M48
; DRILL file {KiCad (5.1.5-0-10_14)} date Tuesday 21. April 2020 13:13:14
; FORMAT={-:-/ absolute / metric / decimal}
; #@! TF.CreationDate,2020-04-21T13:13:14+02:00
; #@! TF.GenerationSoftware,Kicad,Pcbnew,(5.1.5-0-10_14)
FMAT,2
METRIC
T1C0.400
T2C1.000
T3C2.540
T4C3.200
%
G90
G05
T1
X63.28Y-103.77
X63.3Y-91.09
X68.58Y-91.01
X69.36Y-109.56
X69.6Y-87.35
X71.33Y-57.34
X71.5Y-104.81
X72.77Y-86.22
X72.83Y-91.25
X74.18Y-88.98
X75.06Y-103.09
X75.48Y-97.48
X76.79Y-89.43
X78.53Y-87.5
X78.94Y-93.41
X79.4Y-105.48
X79.43Y-108.2
X80.27Y-91.93
X80.391Y-86.246
X80.4Y-62.5
X80.404Y-88.798
X80.99Y-99.88
X81.17Y-102.7
X81.37Y-93.32
X82.58Y-97.15
X84.03Y-98.05
X89.25Y-108.43
X90.16Y-102.59
X90.51Y-105.3
X91.01Y-93.5
X91.11Y-89.93
X91.15Y-96.91
X103.25Y-62.5
X103.27Y-86.53
X105.05Y-109.55
X105.09Y-105.19
X105.18Y-98.77
X107.5Y-96.7
X107.91Y-93.72
X108.04Y-89.84
X108.45Y-86.53
X110.49Y-93.74
X110.51Y-89.81
X110.55Y-86.41
X113.11Y-89.79
X113.12Y-86.52
X113.13Y-93.82
X115.59Y-89.78
X115.65Y-93.67
X115.94Y-86.43
X118.38Y-89.78
X118.4Y-93.73
X118.49Y-86.5
X119.16Y-96.81
X120.23Y-109.86
X120.44Y-104.7
X120.65Y-101.63
X120.99Y-86.58
X126.1Y-101.35
X128.12Y-104.84
X128.96Y-96.95
X129.06Y-99.0
X130.67Y-93.67
X132.44Y-90.38
X133.198Y-105.348
X133.91Y-94.9
X135.48Y-90.32
X136.25Y-86.51
X137.41Y-89.76
X137.41Y-98.95
X139.63Y-101.43
X140.57Y-86.69
X140.59Y-93.73
X143.07Y-58.55
T2
X72.65Y-93.57
X72.65Y-96.11
X72.65Y-98.65
X72.65Y-101.19
X107.67Y-100.15
X110.21Y-100.15
X112.75Y-100.15
X115.29Y-100.15
X117.83Y-100.15
X70.23Y-66.77
X70.23Y-82.01
X72.77Y-66.77
X72.77Y-82.01
X75.31Y-66.77
X75.31Y-82.01
X77.85Y-66.77
X77.85Y-82.01
X80.39Y-66.77
X80.39Y-82.01
X82.93Y-66.77
X82.93Y-82.01
X85.47Y-66.77
X85.47Y-82.01
X88.01Y-66.77
X88.01Y-82.01
X90.55Y-66.77
X90.55Y-82.01
X93.09Y-66.77
X93.09Y-82.01
X95.63Y-66.77
X95.63Y-82.01
X98.17Y-66.77
X98.17Y-82.01
X100.71Y-66.77
X100.71Y-82.01
X103.25Y-66.77
X103.25Y-82.01
X105.79Y-66.77
X105.79Y-82.01
X108.33Y-66.77
X108.33Y-82.01
X110.87Y-66.77
X110.87Y-82.01
X113.41Y-66.77
X113.41Y-82.01
X115.95Y-66.77
X115.95Y-82.01
X118.49Y-66.77
X118.49Y-82.01
X121.03Y-66.77
X121.03Y-82.01
X123.57Y-66.77
X123.57Y-82.01
X126.11Y-66.77
X126.11Y-82.01
X128.65Y-66.77
X128.65Y-82.01
X131.19Y-66.77
X131.19Y-82.01
X133.73Y-66.77
X133.73Y-82.01
X136.27Y-66.77
X136.27Y-82.01
X138.81Y-66.77
X138.81Y-82.01
T3
X143.89Y-66.77
X143.89Y-82.01
T4
X123.5Y-58.5
X123.5Y-107.5
X65.5Y-107.5
X65.5Y-58.5
T0
M30
