G04 #@! TF.GenerationSoftware,KiCad,Pcbnew,(5.1.5-0-10_14)*
G04 #@! TF.CreationDate,2020-04-21T13:10:17+02:00*
G04 #@! TF.ProjectId,Curiosity_Nano_Full-bridge_module_rev1,43757269-6f73-4697-9479-5f4e616e6f5f,rev?*
G04 #@! TF.SameCoordinates,Original*
G04 #@! TF.FileFunction,Legend,Top*
G04 #@! TF.FilePolarity,Positive*
%FSLAX46Y46*%
G04 Gerber Fmt 4.6, Leading zero omitted, Abs format (unit mm)*
G04 Created by KiCad (PCBNEW (5.1.5-0-10_14)) date 2020-04-21 13:10:17*
%MOMM*%
%LPD*%
G04 APERTURE LIST*
%ADD10C,0.150000*%
%ADD11C,0.200000*%
%ADD12C,0.120000*%
%ADD13C,0.010000*%
G04 APERTURE END LIST*
D10*
X118430000Y-95992776D02*
X118477619Y-95897538D01*
X118477619Y-95754681D01*
X118430000Y-95611823D01*
X118334761Y-95516585D01*
X118239523Y-95468966D01*
X118049047Y-95421347D01*
X117906190Y-95421347D01*
X117715714Y-95468966D01*
X117620476Y-95516585D01*
X117525238Y-95611823D01*
X117477619Y-95754681D01*
X117477619Y-95849919D01*
X117525238Y-95992776D01*
X117572857Y-96040395D01*
X117906190Y-96040395D01*
X117906190Y-95849919D01*
X117477619Y-96468966D02*
X118477619Y-96468966D01*
X117477619Y-97040395D01*
X118477619Y-97040395D01*
X117477619Y-97516585D02*
X118477619Y-97516585D01*
X118477619Y-97754681D01*
X118430000Y-97897538D01*
X118334761Y-97992776D01*
X118239523Y-98040395D01*
X118049047Y-98088014D01*
X117906190Y-98088014D01*
X117715714Y-98040395D01*
X117620476Y-97992776D01*
X117525238Y-97897538D01*
X117477619Y-97754681D01*
X117477619Y-97516585D01*
X76806665Y-101970000D02*
X76901903Y-102017619D01*
X77044761Y-102017619D01*
X77187618Y-101970000D01*
X77282856Y-101874761D01*
X77330475Y-101779523D01*
X77378094Y-101589047D01*
X77378094Y-101446190D01*
X77330475Y-101255714D01*
X77282856Y-101160476D01*
X77187618Y-101065238D01*
X77044761Y-101017619D01*
X76949522Y-101017619D01*
X76806665Y-101065238D01*
X76759046Y-101112857D01*
X76759046Y-101446190D01*
X76949522Y-101446190D01*
X76330475Y-101017619D02*
X76330475Y-102017619D01*
X75759046Y-101017619D01*
X75759046Y-102017619D01*
X75282856Y-101017619D02*
X75282856Y-102017619D01*
X75044761Y-102017619D01*
X74901903Y-101970000D01*
X74806665Y-101874761D01*
X74759046Y-101779523D01*
X74711427Y-101589047D01*
X74711427Y-101446190D01*
X74759046Y-101255714D01*
X74806665Y-101160476D01*
X74901903Y-101065238D01*
X75044761Y-101017619D01*
X75282856Y-101017619D01*
X77235237Y-99167619D02*
X76663809Y-99167619D01*
X76949523Y-98167619D02*
X76949523Y-99167619D01*
X75616190Y-99215238D02*
X76473333Y-97929523D01*
X74711428Y-98167619D02*
X75044761Y-98643809D01*
X75282856Y-98167619D02*
X75282856Y-99167619D01*
X74901904Y-99167619D01*
X74806666Y-99120000D01*
X74759047Y-99072380D01*
X74711428Y-98977142D01*
X74711428Y-98834285D01*
X74759047Y-98739047D01*
X74806666Y-98691428D01*
X74901904Y-98643809D01*
X75282856Y-98643809D01*
X141680000Y-81448095D02*
X141727619Y-81352857D01*
X141727619Y-81210000D01*
X141680000Y-81067142D01*
X141584761Y-80971904D01*
X141489523Y-80924285D01*
X141299047Y-80876666D01*
X141156190Y-80876666D01*
X140965714Y-80924285D01*
X140870476Y-80971904D01*
X140775238Y-81067142D01*
X140727619Y-81210000D01*
X140727619Y-81305238D01*
X140775238Y-81448095D01*
X140822857Y-81495714D01*
X141156190Y-81495714D01*
X141156190Y-81305238D01*
X140727619Y-81924285D02*
X141727619Y-81924285D01*
X140727619Y-82495714D01*
X141727619Y-82495714D01*
X140727619Y-82971904D02*
X141727619Y-82971904D01*
X141727619Y-83210000D01*
X141680000Y-83352857D01*
X141584761Y-83448095D01*
X141489523Y-83495714D01*
X141299047Y-83543333D01*
X141156190Y-83543333D01*
X140965714Y-83495714D01*
X140870476Y-83448095D01*
X140775238Y-83352857D01*
X140727619Y-83210000D01*
X140727619Y-82971904D01*
X141680000Y-66068095D02*
X141727619Y-65972857D01*
X141727619Y-65830000D01*
X141680000Y-65687142D01*
X141584761Y-65591904D01*
X141489523Y-65544285D01*
X141299047Y-65496666D01*
X141156190Y-65496666D01*
X140965714Y-65544285D01*
X140870476Y-65591904D01*
X140775238Y-65687142D01*
X140727619Y-65830000D01*
X140727619Y-65925238D01*
X140775238Y-66068095D01*
X140822857Y-66115714D01*
X141156190Y-66115714D01*
X141156190Y-65925238D01*
X140727619Y-66544285D02*
X141727619Y-66544285D01*
X140727619Y-67115714D01*
X141727619Y-67115714D01*
X140727619Y-67591904D02*
X141727619Y-67591904D01*
X141727619Y-67830000D01*
X141680000Y-67972857D01*
X141584761Y-68068095D01*
X141489523Y-68115714D01*
X141299047Y-68163333D01*
X141156190Y-68163333D01*
X140965714Y-68115714D01*
X140870476Y-68068095D01*
X140775238Y-67972857D01*
X140727619Y-67830000D01*
X140727619Y-67591904D01*
X144547857Y-69635714D02*
X144500238Y-69588095D01*
X144452619Y-69445238D01*
X144452619Y-69350000D01*
X144500238Y-69207142D01*
X144595476Y-69111904D01*
X144690714Y-69064285D01*
X144881190Y-69016666D01*
X145024047Y-69016666D01*
X145214523Y-69064285D01*
X145309761Y-69111904D01*
X145405000Y-69207142D01*
X145452619Y-69350000D01*
X145452619Y-69445238D01*
X145405000Y-69588095D01*
X145357380Y-69635714D01*
X145119285Y-70492857D02*
X144452619Y-70492857D01*
X145119285Y-70064285D02*
X144595476Y-70064285D01*
X144500238Y-70111904D01*
X144452619Y-70207142D01*
X144452619Y-70350000D01*
X144500238Y-70445238D01*
X144547857Y-70492857D01*
X144452619Y-70969047D02*
X145119285Y-70969047D01*
X144928809Y-70969047D02*
X145024047Y-71016666D01*
X145071666Y-71064285D01*
X145119285Y-71159523D01*
X145119285Y-71254761D01*
X144452619Y-71588095D02*
X145119285Y-71588095D01*
X145452619Y-71588095D02*
X145405000Y-71540476D01*
X145357380Y-71588095D01*
X145405000Y-71635714D01*
X145452619Y-71588095D01*
X145357380Y-71588095D01*
X144452619Y-72207142D02*
X144500238Y-72111904D01*
X144547857Y-72064285D01*
X144643095Y-72016666D01*
X144928809Y-72016666D01*
X145024047Y-72064285D01*
X145071666Y-72111904D01*
X145119285Y-72207142D01*
X145119285Y-72350000D01*
X145071666Y-72445238D01*
X145024047Y-72492857D01*
X144928809Y-72540476D01*
X144643095Y-72540476D01*
X144547857Y-72492857D01*
X144500238Y-72445238D01*
X144452619Y-72350000D01*
X144452619Y-72207142D01*
X144500238Y-72921428D02*
X144452619Y-73016666D01*
X144452619Y-73207142D01*
X144500238Y-73302380D01*
X144595476Y-73350000D01*
X144643095Y-73350000D01*
X144738333Y-73302380D01*
X144785952Y-73207142D01*
X144785952Y-73064285D01*
X144833571Y-72969047D01*
X144928809Y-72921428D01*
X144976428Y-72921428D01*
X145071666Y-72969047D01*
X145119285Y-73064285D01*
X145119285Y-73207142D01*
X145071666Y-73302380D01*
X144452619Y-73778571D02*
X145119285Y-73778571D01*
X145452619Y-73778571D02*
X145405000Y-73730952D01*
X145357380Y-73778571D01*
X145405000Y-73826190D01*
X145452619Y-73778571D01*
X145357380Y-73778571D01*
X145119285Y-74111904D02*
X145119285Y-74492857D01*
X145452619Y-74254761D02*
X144595476Y-74254761D01*
X144500238Y-74302380D01*
X144452619Y-74397619D01*
X144452619Y-74492857D01*
X145119285Y-74730952D02*
X144452619Y-74969047D01*
X145119285Y-75207142D02*
X144452619Y-74969047D01*
X144214523Y-74873809D01*
X144166904Y-74826190D01*
X144119285Y-74730952D01*
X144452619Y-76350000D02*
X145452619Y-76350000D01*
X144452619Y-76921428D01*
X145452619Y-76921428D01*
X144452619Y-77826190D02*
X144976428Y-77826190D01*
X145071666Y-77778571D01*
X145119285Y-77683333D01*
X145119285Y-77492857D01*
X145071666Y-77397619D01*
X144500238Y-77826190D02*
X144452619Y-77730952D01*
X144452619Y-77492857D01*
X144500238Y-77397619D01*
X144595476Y-77350000D01*
X144690714Y-77350000D01*
X144785952Y-77397619D01*
X144833571Y-77492857D01*
X144833571Y-77730952D01*
X144881190Y-77826190D01*
X145119285Y-78302380D02*
X144452619Y-78302380D01*
X145024047Y-78302380D02*
X145071666Y-78350000D01*
X145119285Y-78445238D01*
X145119285Y-78588095D01*
X145071666Y-78683333D01*
X144976428Y-78730952D01*
X144452619Y-78730952D01*
X144452619Y-79350000D02*
X144500238Y-79254761D01*
X144547857Y-79207142D01*
X144643095Y-79159523D01*
X144928809Y-79159523D01*
X145024047Y-79207142D01*
X145071666Y-79254761D01*
X145119285Y-79350000D01*
X145119285Y-79492857D01*
X145071666Y-79588095D01*
X145024047Y-79635714D01*
X144928809Y-79683333D01*
X144643095Y-79683333D01*
X144547857Y-79635714D01*
X144500238Y-79588095D01*
X144452619Y-79492857D01*
X144452619Y-79350000D01*
X143469285Y-71230952D02*
X143469285Y-71611904D01*
X142802619Y-71373809D02*
X143659761Y-71373809D01*
X143755000Y-71421428D01*
X143802619Y-71516666D01*
X143802619Y-71611904D01*
X142802619Y-72088095D02*
X142850238Y-71992857D01*
X142897857Y-71945238D01*
X142993095Y-71897619D01*
X143278809Y-71897619D01*
X143374047Y-71945238D01*
X143421666Y-71992857D01*
X143469285Y-72088095D01*
X143469285Y-72230952D01*
X143421666Y-72326190D01*
X143374047Y-72373809D01*
X143278809Y-72421428D01*
X142993095Y-72421428D01*
X142897857Y-72373809D01*
X142850238Y-72326190D01*
X142802619Y-72230952D01*
X142802619Y-72088095D01*
X142802619Y-72992857D02*
X142850238Y-72897619D01*
X142897857Y-72850000D01*
X142993095Y-72802380D01*
X143278809Y-72802380D01*
X143374047Y-72850000D01*
X143421666Y-72897619D01*
X143469285Y-72992857D01*
X143469285Y-73135714D01*
X143421666Y-73230952D01*
X143374047Y-73278571D01*
X143278809Y-73326190D01*
X142993095Y-73326190D01*
X142897857Y-73278571D01*
X142850238Y-73230952D01*
X142802619Y-73135714D01*
X142802619Y-72992857D01*
X143469285Y-73611904D02*
X143469285Y-73992857D01*
X143802619Y-73754761D02*
X142945476Y-73754761D01*
X142850238Y-73802380D01*
X142802619Y-73897619D01*
X142802619Y-73992857D01*
X143469285Y-74326190D02*
X142469285Y-74326190D01*
X143421666Y-74326190D02*
X143469285Y-74421428D01*
X143469285Y-74611904D01*
X143421666Y-74707142D01*
X143374047Y-74754761D01*
X143278809Y-74802380D01*
X142993095Y-74802380D01*
X142897857Y-74754761D01*
X142850238Y-74707142D01*
X142802619Y-74611904D01*
X142802619Y-74421428D01*
X142850238Y-74326190D01*
X142802619Y-75230952D02*
X143469285Y-75230952D01*
X143278809Y-75230952D02*
X143374047Y-75278571D01*
X143421666Y-75326190D01*
X143469285Y-75421428D01*
X143469285Y-75516666D01*
X142802619Y-75850000D02*
X143469285Y-75850000D01*
X143802619Y-75850000D02*
X143755000Y-75802380D01*
X143707380Y-75850000D01*
X143755000Y-75897619D01*
X143802619Y-75850000D01*
X143707380Y-75850000D01*
X143469285Y-76326190D02*
X142802619Y-76326190D01*
X143374047Y-76326190D02*
X143421666Y-76373809D01*
X143469285Y-76469047D01*
X143469285Y-76611904D01*
X143421666Y-76707142D01*
X143326428Y-76754761D01*
X142802619Y-76754761D01*
X143469285Y-77088095D02*
X143469285Y-77469047D01*
X143802619Y-77230952D02*
X142945476Y-77230952D01*
X142850238Y-77278571D01*
X142802619Y-77373809D01*
X142802619Y-77469047D01*
X98740000Y-72740000D02*
X98740000Y-72440000D01*
X98740000Y-72440000D02*
X110530000Y-72440000D01*
X110530000Y-76170000D02*
X110530000Y-72440000D01*
X110130000Y-76170000D02*
X110530000Y-76170000D01*
X98740000Y-76170000D02*
X110130000Y-76170000D01*
X98740000Y-72750000D02*
X98740000Y-76170000D01*
D11*
X70750000Y-57357142D02*
X70821428Y-57214285D01*
X70821428Y-57000000D01*
X70750000Y-56785714D01*
X70607142Y-56642857D01*
X70464285Y-56571428D01*
X70178571Y-56500000D01*
X69964285Y-56500000D01*
X69678571Y-56571428D01*
X69535714Y-56642857D01*
X69392857Y-56785714D01*
X69321428Y-57000000D01*
X69321428Y-57142857D01*
X69392857Y-57357142D01*
X69464285Y-57428571D01*
X69964285Y-57428571D01*
X69964285Y-57142857D01*
X69321428Y-58071428D02*
X70821428Y-58071428D01*
X69321428Y-58928571D01*
X70821428Y-58928571D01*
X69321428Y-59642857D02*
X70821428Y-59642857D01*
X70821428Y-60000000D01*
X70750000Y-60214285D01*
X70607142Y-60357142D01*
X70464285Y-60428571D01*
X70178571Y-60500000D01*
X69964285Y-60500000D01*
X69678571Y-60428571D01*
X69535714Y-60357142D01*
X69392857Y-60214285D01*
X69321428Y-60000000D01*
X69321428Y-59642857D01*
X128500000Y-57357142D02*
X128571428Y-57214285D01*
X128571428Y-57000000D01*
X128500000Y-56785714D01*
X128357142Y-56642857D01*
X128214285Y-56571428D01*
X127928571Y-56500000D01*
X127714285Y-56500000D01*
X127428571Y-56571428D01*
X127285714Y-56642857D01*
X127142857Y-56785714D01*
X127071428Y-57000000D01*
X127071428Y-57142857D01*
X127142857Y-57357142D01*
X127214285Y-57428571D01*
X127714285Y-57428571D01*
X127714285Y-57142857D01*
X127071428Y-58071428D02*
X128571428Y-58071428D01*
X127071428Y-58928571D01*
X128571428Y-58928571D01*
X127071428Y-59642857D02*
X128571428Y-59642857D01*
X128571428Y-60000000D01*
X128500000Y-60214285D01*
X128357142Y-60357142D01*
X128214285Y-60428571D01*
X127928571Y-60500000D01*
X127714285Y-60500000D01*
X127428571Y-60428571D01*
X127285714Y-60357142D01*
X127142857Y-60214285D01*
X127071428Y-60000000D01*
X127071428Y-59642857D01*
X128500000Y-106357142D02*
X128571428Y-106214285D01*
X128571428Y-106000000D01*
X128500000Y-105785714D01*
X128357142Y-105642857D01*
X128214285Y-105571428D01*
X127928571Y-105500000D01*
X127714285Y-105500000D01*
X127428571Y-105571428D01*
X127285714Y-105642857D01*
X127142857Y-105785714D01*
X127071428Y-106000000D01*
X127071428Y-106142857D01*
X127142857Y-106357142D01*
X127214285Y-106428571D01*
X127714285Y-106428571D01*
X127714285Y-106142857D01*
X127071428Y-107071428D02*
X128571428Y-107071428D01*
X127071428Y-107928571D01*
X128571428Y-107928571D01*
X127071428Y-108642857D02*
X128571428Y-108642857D01*
X128571428Y-109000000D01*
X128500000Y-109214285D01*
X128357142Y-109357142D01*
X128214285Y-109428571D01*
X127928571Y-109500000D01*
X127714285Y-109500000D01*
X127428571Y-109428571D01*
X127285714Y-109357142D01*
X127142857Y-109214285D01*
X127071428Y-109000000D01*
X127071428Y-108642857D01*
X70500000Y-106357142D02*
X70571428Y-106214285D01*
X70571428Y-106000000D01*
X70500000Y-105785714D01*
X70357142Y-105642857D01*
X70214285Y-105571428D01*
X69928571Y-105500000D01*
X69714285Y-105500000D01*
X69428571Y-105571428D01*
X69285714Y-105642857D01*
X69142857Y-105785714D01*
X69071428Y-106000000D01*
X69071428Y-106142857D01*
X69142857Y-106357142D01*
X69214285Y-106428571D01*
X69714285Y-106428571D01*
X69714285Y-106142857D01*
X69071428Y-107071428D02*
X70571428Y-107071428D01*
X69071428Y-107928571D01*
X70571428Y-107928571D01*
X69071428Y-108642857D02*
X70571428Y-108642857D01*
X70571428Y-109000000D01*
X70500000Y-109214285D01*
X70357142Y-109357142D01*
X70214285Y-109428571D01*
X69928571Y-109500000D01*
X69714285Y-109500000D01*
X69428571Y-109428571D01*
X69285714Y-109357142D01*
X69142857Y-109214285D01*
X69071428Y-109000000D01*
X69071428Y-108642857D01*
D10*
X107131419Y-95564204D02*
X108131419Y-95564204D01*
X108131419Y-95945157D01*
X108083800Y-96040395D01*
X108036180Y-96088014D01*
X107940942Y-96135633D01*
X107798085Y-96135633D01*
X107702847Y-96088014D01*
X107655228Y-96040395D01*
X107607609Y-95945157D01*
X107607609Y-95564204D01*
X107131419Y-96564204D02*
X108131419Y-96564204D01*
X108131419Y-96802300D01*
X108083800Y-96945157D01*
X107988561Y-97040395D01*
X107893323Y-97088014D01*
X107702847Y-97135633D01*
X107559990Y-97135633D01*
X107369514Y-97088014D01*
X107274276Y-97040395D01*
X107179038Y-96945157D01*
X107131419Y-96802300D01*
X107131419Y-96564204D01*
X108036180Y-97516585D02*
X108083800Y-97564204D01*
X108131419Y-97659442D01*
X108131419Y-97897538D01*
X108083800Y-97992776D01*
X108036180Y-98040395D01*
X107940942Y-98088014D01*
X107845704Y-98088014D01*
X107702847Y-98040395D01*
X107131419Y-97468966D01*
X107131419Y-98088014D01*
X109709519Y-95564204D02*
X110709519Y-95564204D01*
X110709519Y-95945157D01*
X110661900Y-96040395D01*
X110614280Y-96088014D01*
X110519042Y-96135633D01*
X110376185Y-96135633D01*
X110280947Y-96088014D01*
X110233328Y-96040395D01*
X110185709Y-95945157D01*
X110185709Y-95564204D01*
X109709519Y-96564204D02*
X110709519Y-96564204D01*
X110709519Y-96802300D01*
X110661900Y-96945157D01*
X110566661Y-97040395D01*
X110471423Y-97088014D01*
X110280947Y-97135633D01*
X110138090Y-97135633D01*
X109947614Y-97088014D01*
X109852376Y-97040395D01*
X109757138Y-96945157D01*
X109709519Y-96802300D01*
X109709519Y-96564204D01*
X110709519Y-97468966D02*
X110709519Y-98088014D01*
X110328566Y-97754680D01*
X110328566Y-97897538D01*
X110280947Y-97992776D01*
X110233328Y-98040395D01*
X110138090Y-98088014D01*
X109899995Y-98088014D01*
X109804757Y-98040395D01*
X109757138Y-97992776D01*
X109709519Y-97897538D01*
X109709519Y-97611823D01*
X109757138Y-97516585D01*
X109804757Y-97468966D01*
X112287619Y-95564204D02*
X113287619Y-95564204D01*
X113287619Y-95945157D01*
X113240000Y-96040395D01*
X113192380Y-96088014D01*
X113097142Y-96135633D01*
X112954285Y-96135633D01*
X112859047Y-96088014D01*
X112811428Y-96040395D01*
X112763809Y-95945157D01*
X112763809Y-95564204D01*
X112287619Y-96564204D02*
X113287619Y-96564204D01*
X113287619Y-96802300D01*
X113240000Y-96945157D01*
X113144761Y-97040395D01*
X113049523Y-97088014D01*
X112859047Y-97135633D01*
X112716190Y-97135633D01*
X112525714Y-97088014D01*
X112430476Y-97040395D01*
X112335238Y-96945157D01*
X112287619Y-96802300D01*
X112287619Y-96564204D01*
X112954285Y-97992776D02*
X112287619Y-97992776D01*
X113335238Y-97754680D02*
X112620952Y-97516585D01*
X112620952Y-98135633D01*
X114878419Y-95564204D02*
X115878419Y-95564204D01*
X115878419Y-95945157D01*
X115830800Y-96040395D01*
X115783180Y-96088014D01*
X115687942Y-96135633D01*
X115545085Y-96135633D01*
X115449847Y-96088014D01*
X115402228Y-96040395D01*
X115354609Y-95945157D01*
X115354609Y-95564204D01*
X114878419Y-96564204D02*
X115878419Y-96564204D01*
X115878419Y-96802300D01*
X115830800Y-96945157D01*
X115735561Y-97040395D01*
X115640323Y-97088014D01*
X115449847Y-97135633D01*
X115306990Y-97135633D01*
X115116514Y-97088014D01*
X115021276Y-97040395D01*
X114926038Y-96945157D01*
X114878419Y-96802300D01*
X114878419Y-96564204D01*
X115878419Y-98040395D02*
X115878419Y-97564204D01*
X115402228Y-97516585D01*
X115449847Y-97564204D01*
X115497466Y-97659442D01*
X115497466Y-97897538D01*
X115449847Y-97992776D01*
X115402228Y-98040395D01*
X115306990Y-98088014D01*
X115068895Y-98088014D01*
X114973657Y-98040395D01*
X114926038Y-97992776D01*
X114878419Y-97897538D01*
X114878419Y-97659442D01*
X114926038Y-97564204D01*
X114973657Y-97516585D01*
X138321619Y-60278285D02*
X139321619Y-60278285D01*
X138321619Y-60849714D01*
X139321619Y-60849714D01*
X138416857Y-61897333D02*
X138369238Y-61849714D01*
X138321619Y-61706857D01*
X138321619Y-61611619D01*
X138369238Y-61468761D01*
X138464476Y-61373523D01*
X138559714Y-61325904D01*
X138750190Y-61278285D01*
X138893047Y-61278285D01*
X139083523Y-61325904D01*
X139178761Y-61373523D01*
X139274000Y-61468761D01*
X139321619Y-61611619D01*
X139321619Y-61706857D01*
X139274000Y-61849714D01*
X139226380Y-61897333D01*
X135781619Y-60278285D02*
X136781619Y-60278285D01*
X135781619Y-60849714D01*
X136781619Y-60849714D01*
X135876857Y-61897333D02*
X135829238Y-61849714D01*
X135781619Y-61706857D01*
X135781619Y-61611619D01*
X135829238Y-61468761D01*
X135924476Y-61373523D01*
X136019714Y-61325904D01*
X136210190Y-61278285D01*
X136353047Y-61278285D01*
X136543523Y-61325904D01*
X136638761Y-61373523D01*
X136734000Y-61468761D01*
X136781619Y-61611619D01*
X136781619Y-61706857D01*
X136734000Y-61849714D01*
X136686380Y-61897333D01*
X133241619Y-60278285D02*
X134241619Y-60278285D01*
X133241619Y-60849714D01*
X134241619Y-60849714D01*
X133336857Y-61897333D02*
X133289238Y-61849714D01*
X133241619Y-61706857D01*
X133241619Y-61611619D01*
X133289238Y-61468761D01*
X133384476Y-61373523D01*
X133479714Y-61325904D01*
X133670190Y-61278285D01*
X133813047Y-61278285D01*
X134003523Y-61325904D01*
X134098761Y-61373523D01*
X134194000Y-61468761D01*
X134241619Y-61611619D01*
X134241619Y-61706857D01*
X134194000Y-61849714D01*
X134146380Y-61897333D01*
X130701619Y-60278285D02*
X131701619Y-60278285D01*
X130701619Y-60849714D01*
X131701619Y-60849714D01*
X130796857Y-61897333D02*
X130749238Y-61849714D01*
X130701619Y-61706857D01*
X130701619Y-61611619D01*
X130749238Y-61468761D01*
X130844476Y-61373523D01*
X130939714Y-61325904D01*
X131130190Y-61278285D01*
X131273047Y-61278285D01*
X131463523Y-61325904D01*
X131558761Y-61373523D01*
X131654000Y-61468761D01*
X131701619Y-61611619D01*
X131701619Y-61706857D01*
X131654000Y-61849714D01*
X131606380Y-61897333D01*
X118001619Y-60278285D02*
X119001619Y-60278285D01*
X118001619Y-60849714D01*
X119001619Y-60849714D01*
X118096857Y-61897333D02*
X118049238Y-61849714D01*
X118001619Y-61706857D01*
X118001619Y-61611619D01*
X118049238Y-61468761D01*
X118144476Y-61373523D01*
X118239714Y-61325904D01*
X118430190Y-61278285D01*
X118573047Y-61278285D01*
X118763523Y-61325904D01*
X118858761Y-61373523D01*
X118954000Y-61468761D01*
X119001619Y-61611619D01*
X119001619Y-61706857D01*
X118954000Y-61849714D01*
X118906380Y-61897333D01*
X115461619Y-60278285D02*
X116461619Y-60278285D01*
X115461619Y-60849714D01*
X116461619Y-60849714D01*
X115556857Y-61897333D02*
X115509238Y-61849714D01*
X115461619Y-61706857D01*
X115461619Y-61611619D01*
X115509238Y-61468761D01*
X115604476Y-61373523D01*
X115699714Y-61325904D01*
X115890190Y-61278285D01*
X116033047Y-61278285D01*
X116223523Y-61325904D01*
X116318761Y-61373523D01*
X116414000Y-61468761D01*
X116461619Y-61611619D01*
X116461619Y-61706857D01*
X116414000Y-61849714D01*
X116366380Y-61897333D01*
X112921619Y-60278285D02*
X113921619Y-60278285D01*
X112921619Y-60849714D01*
X113921619Y-60849714D01*
X113016857Y-61897333D02*
X112969238Y-61849714D01*
X112921619Y-61706857D01*
X112921619Y-61611619D01*
X112969238Y-61468761D01*
X113064476Y-61373523D01*
X113159714Y-61325904D01*
X113350190Y-61278285D01*
X113493047Y-61278285D01*
X113683523Y-61325904D01*
X113778761Y-61373523D01*
X113874000Y-61468761D01*
X113921619Y-61611619D01*
X113921619Y-61706857D01*
X113874000Y-61849714D01*
X113826380Y-61897333D01*
X110381619Y-60278285D02*
X111381619Y-60278285D01*
X110381619Y-60849714D01*
X111381619Y-60849714D01*
X110476857Y-61897333D02*
X110429238Y-61849714D01*
X110381619Y-61706857D01*
X110381619Y-61611619D01*
X110429238Y-61468761D01*
X110524476Y-61373523D01*
X110619714Y-61325904D01*
X110810190Y-61278285D01*
X110953047Y-61278285D01*
X111143523Y-61325904D01*
X111238761Y-61373523D01*
X111334000Y-61468761D01*
X111381619Y-61611619D01*
X111381619Y-61706857D01*
X111334000Y-61849714D01*
X111286380Y-61897333D01*
X107841619Y-60278285D02*
X108841619Y-60278285D01*
X107841619Y-60849714D01*
X108841619Y-60849714D01*
X107936857Y-61897333D02*
X107889238Y-61849714D01*
X107841619Y-61706857D01*
X107841619Y-61611619D01*
X107889238Y-61468761D01*
X107984476Y-61373523D01*
X108079714Y-61325904D01*
X108270190Y-61278285D01*
X108413047Y-61278285D01*
X108603523Y-61325904D01*
X108698761Y-61373523D01*
X108794000Y-61468761D01*
X108841619Y-61611619D01*
X108841619Y-61706857D01*
X108794000Y-61849714D01*
X108746380Y-61897333D01*
X105301619Y-60278285D02*
X106301619Y-60278285D01*
X105301619Y-60849714D01*
X106301619Y-60849714D01*
X105396857Y-61897333D02*
X105349238Y-61849714D01*
X105301619Y-61706857D01*
X105301619Y-61611619D01*
X105349238Y-61468761D01*
X105444476Y-61373523D01*
X105539714Y-61325904D01*
X105730190Y-61278285D01*
X105873047Y-61278285D01*
X106063523Y-61325904D01*
X106158761Y-61373523D01*
X106254000Y-61468761D01*
X106301619Y-61611619D01*
X106301619Y-61706857D01*
X106254000Y-61849714D01*
X106206380Y-61897333D01*
X100221619Y-60278285D02*
X101221619Y-60278285D01*
X100221619Y-60849714D01*
X101221619Y-60849714D01*
X100316857Y-61897333D02*
X100269238Y-61849714D01*
X100221619Y-61706857D01*
X100221619Y-61611619D01*
X100269238Y-61468761D01*
X100364476Y-61373523D01*
X100459714Y-61325904D01*
X100650190Y-61278285D01*
X100793047Y-61278285D01*
X100983523Y-61325904D01*
X101078761Y-61373523D01*
X101174000Y-61468761D01*
X101221619Y-61611619D01*
X101221619Y-61706857D01*
X101174000Y-61849714D01*
X101126380Y-61897333D01*
X97681619Y-60278285D02*
X98681619Y-60278285D01*
X97681619Y-60849714D01*
X98681619Y-60849714D01*
X97776857Y-61897333D02*
X97729238Y-61849714D01*
X97681619Y-61706857D01*
X97681619Y-61611619D01*
X97729238Y-61468761D01*
X97824476Y-61373523D01*
X97919714Y-61325904D01*
X98110190Y-61278285D01*
X98253047Y-61278285D01*
X98443523Y-61325904D01*
X98538761Y-61373523D01*
X98634000Y-61468761D01*
X98681619Y-61611619D01*
X98681619Y-61706857D01*
X98634000Y-61849714D01*
X98586380Y-61897333D01*
X95141619Y-60278285D02*
X96141619Y-60278285D01*
X95141619Y-60849714D01*
X96141619Y-60849714D01*
X95236857Y-61897333D02*
X95189238Y-61849714D01*
X95141619Y-61706857D01*
X95141619Y-61611619D01*
X95189238Y-61468761D01*
X95284476Y-61373523D01*
X95379714Y-61325904D01*
X95570190Y-61278285D01*
X95713047Y-61278285D01*
X95903523Y-61325904D01*
X95998761Y-61373523D01*
X96094000Y-61468761D01*
X96141619Y-61611619D01*
X96141619Y-61706857D01*
X96094000Y-61849714D01*
X96046380Y-61897333D01*
X92601619Y-60278285D02*
X93601619Y-60278285D01*
X92601619Y-60849714D01*
X93601619Y-60849714D01*
X92696857Y-61897333D02*
X92649238Y-61849714D01*
X92601619Y-61706857D01*
X92601619Y-61611619D01*
X92649238Y-61468761D01*
X92744476Y-61373523D01*
X92839714Y-61325904D01*
X93030190Y-61278285D01*
X93173047Y-61278285D01*
X93363523Y-61325904D01*
X93458761Y-61373523D01*
X93554000Y-61468761D01*
X93601619Y-61611619D01*
X93601619Y-61706857D01*
X93554000Y-61849714D01*
X93506380Y-61897333D01*
X90061619Y-60278285D02*
X91061619Y-60278285D01*
X90061619Y-60849714D01*
X91061619Y-60849714D01*
X90156857Y-61897333D02*
X90109238Y-61849714D01*
X90061619Y-61706857D01*
X90061619Y-61611619D01*
X90109238Y-61468761D01*
X90204476Y-61373523D01*
X90299714Y-61325904D01*
X90490190Y-61278285D01*
X90633047Y-61278285D01*
X90823523Y-61325904D01*
X90918761Y-61373523D01*
X91014000Y-61468761D01*
X91061619Y-61611619D01*
X91061619Y-61706857D01*
X91014000Y-61849714D01*
X90966380Y-61897333D01*
X87521619Y-60278285D02*
X88521619Y-60278285D01*
X87521619Y-60849714D01*
X88521619Y-60849714D01*
X87616857Y-61897333D02*
X87569238Y-61849714D01*
X87521619Y-61706857D01*
X87521619Y-61611619D01*
X87569238Y-61468761D01*
X87664476Y-61373523D01*
X87759714Y-61325904D01*
X87950190Y-61278285D01*
X88093047Y-61278285D01*
X88283523Y-61325904D01*
X88378761Y-61373523D01*
X88474000Y-61468761D01*
X88521619Y-61611619D01*
X88521619Y-61706857D01*
X88474000Y-61849714D01*
X88426380Y-61897333D01*
X84981619Y-60278285D02*
X85981619Y-60278285D01*
X84981619Y-60849714D01*
X85981619Y-60849714D01*
X85076857Y-61897333D02*
X85029238Y-61849714D01*
X84981619Y-61706857D01*
X84981619Y-61611619D01*
X85029238Y-61468761D01*
X85124476Y-61373523D01*
X85219714Y-61325904D01*
X85410190Y-61278285D01*
X85553047Y-61278285D01*
X85743523Y-61325904D01*
X85838761Y-61373523D01*
X85934000Y-61468761D01*
X85981619Y-61611619D01*
X85981619Y-61706857D01*
X85934000Y-61849714D01*
X85886380Y-61897333D01*
X82441619Y-60278285D02*
X83441619Y-60278285D01*
X82441619Y-60849714D01*
X83441619Y-60849714D01*
X82536857Y-61897333D02*
X82489238Y-61849714D01*
X82441619Y-61706857D01*
X82441619Y-61611619D01*
X82489238Y-61468761D01*
X82584476Y-61373523D01*
X82679714Y-61325904D01*
X82870190Y-61278285D01*
X83013047Y-61278285D01*
X83203523Y-61325904D01*
X83298761Y-61373523D01*
X83394000Y-61468761D01*
X83441619Y-61611619D01*
X83441619Y-61706857D01*
X83394000Y-61849714D01*
X83346380Y-61897333D01*
X72535619Y-60278285D02*
X73535619Y-60278285D01*
X72535619Y-60849714D01*
X73535619Y-60849714D01*
X72630857Y-61897333D02*
X72583238Y-61849714D01*
X72535619Y-61706857D01*
X72535619Y-61611619D01*
X72583238Y-61468761D01*
X72678476Y-61373523D01*
X72773714Y-61325904D01*
X72964190Y-61278285D01*
X73107047Y-61278285D01*
X73297523Y-61325904D01*
X73392761Y-61373523D01*
X73488000Y-61468761D01*
X73535619Y-61611619D01*
X73535619Y-61706857D01*
X73488000Y-61849714D01*
X73440380Y-61897333D01*
X75075619Y-60278285D02*
X76075619Y-60278285D01*
X75075619Y-60849714D01*
X76075619Y-60849714D01*
X75170857Y-61897333D02*
X75123238Y-61849714D01*
X75075619Y-61706857D01*
X75075619Y-61611619D01*
X75123238Y-61468761D01*
X75218476Y-61373523D01*
X75313714Y-61325904D01*
X75504190Y-61278285D01*
X75647047Y-61278285D01*
X75837523Y-61325904D01*
X75932761Y-61373523D01*
X76028000Y-61468761D01*
X76075619Y-61611619D01*
X76075619Y-61706857D01*
X76028000Y-61849714D01*
X75980380Y-61897333D01*
X77615619Y-60278285D02*
X78615619Y-60278285D01*
X77615619Y-60849714D01*
X78615619Y-60849714D01*
X77710857Y-61897333D02*
X77663238Y-61849714D01*
X77615619Y-61706857D01*
X77615619Y-61611619D01*
X77663238Y-61468761D01*
X77758476Y-61373523D01*
X77853714Y-61325904D01*
X78044190Y-61278285D01*
X78187047Y-61278285D01*
X78377523Y-61325904D01*
X78472761Y-61373523D01*
X78568000Y-61468761D01*
X78615619Y-61611619D01*
X78615619Y-61706857D01*
X78568000Y-61849714D01*
X78520380Y-61897333D01*
X103714000Y-59802095D02*
X103761619Y-59706857D01*
X103761619Y-59564000D01*
X103714000Y-59421142D01*
X103618761Y-59325904D01*
X103523523Y-59278285D01*
X103333047Y-59230666D01*
X103190190Y-59230666D01*
X102999714Y-59278285D01*
X102904476Y-59325904D01*
X102809238Y-59421142D01*
X102761619Y-59564000D01*
X102761619Y-59659238D01*
X102809238Y-59802095D01*
X102856857Y-59849714D01*
X103190190Y-59849714D01*
X103190190Y-59659238D01*
X102761619Y-60278285D02*
X103761619Y-60278285D01*
X102761619Y-60849714D01*
X103761619Y-60849714D01*
X102761619Y-61325904D02*
X103761619Y-61325904D01*
X103761619Y-61564000D01*
X103714000Y-61706857D01*
X103618761Y-61802095D01*
X103523523Y-61849714D01*
X103333047Y-61897333D01*
X103190190Y-61897333D01*
X102999714Y-61849714D01*
X102904476Y-61802095D01*
X102809238Y-61706857D01*
X102761619Y-61564000D01*
X102761619Y-61325904D01*
X80854000Y-59802095D02*
X80901619Y-59706857D01*
X80901619Y-59564000D01*
X80854000Y-59421142D01*
X80758761Y-59325904D01*
X80663523Y-59278285D01*
X80473047Y-59230666D01*
X80330190Y-59230666D01*
X80139714Y-59278285D01*
X80044476Y-59325904D01*
X79949238Y-59421142D01*
X79901619Y-59564000D01*
X79901619Y-59659238D01*
X79949238Y-59802095D01*
X79996857Y-59849714D01*
X80330190Y-59849714D01*
X80330190Y-59659238D01*
X79901619Y-60278285D02*
X80901619Y-60278285D01*
X79901619Y-60849714D01*
X80901619Y-60849714D01*
X79901619Y-61325904D02*
X80901619Y-61325904D01*
X80901619Y-61564000D01*
X80854000Y-61706857D01*
X80758761Y-61802095D01*
X80663523Y-61849714D01*
X80473047Y-61897333D01*
X80330190Y-61897333D01*
X80139714Y-61849714D01*
X80044476Y-61802095D01*
X79949238Y-61706857D01*
X79901619Y-61564000D01*
X79901619Y-61325904D01*
X139231619Y-87617523D02*
X139231619Y-87141333D01*
X138755428Y-87093714D01*
X138803047Y-87141333D01*
X138850666Y-87236571D01*
X138850666Y-87474666D01*
X138803047Y-87569904D01*
X138755428Y-87617523D01*
X138660190Y-87665142D01*
X138422095Y-87665142D01*
X138326857Y-87617523D01*
X138279238Y-87569904D01*
X138231619Y-87474666D01*
X138231619Y-87236571D01*
X138279238Y-87141333D01*
X138326857Y-87093714D01*
X139231619Y-87950857D02*
X138231619Y-88284190D01*
X139231619Y-88617523D01*
X135691619Y-87141332D02*
X136691619Y-87141332D01*
X135691619Y-87712761D01*
X136691619Y-87712761D01*
X135786857Y-88760380D02*
X135739238Y-88712761D01*
X135691619Y-88569904D01*
X135691619Y-88474666D01*
X135739238Y-88331808D01*
X135834476Y-88236570D01*
X135929714Y-88188951D01*
X136120190Y-88141332D01*
X136263047Y-88141332D01*
X136453523Y-88188951D01*
X136548761Y-88236570D01*
X136644000Y-88331808D01*
X136691619Y-88474666D01*
X136691619Y-88569904D01*
X136644000Y-88712761D01*
X136596380Y-88760380D01*
X133151619Y-87141332D02*
X134151619Y-87141332D01*
X133151619Y-87712761D01*
X134151619Y-87712761D01*
X133246857Y-88760380D02*
X133199238Y-88712761D01*
X133151619Y-88569904D01*
X133151619Y-88474666D01*
X133199238Y-88331808D01*
X133294476Y-88236570D01*
X133389714Y-88188951D01*
X133580190Y-88141332D01*
X133723047Y-88141332D01*
X133913523Y-88188951D01*
X134008761Y-88236570D01*
X134104000Y-88331808D01*
X134151619Y-88474666D01*
X134151619Y-88569904D01*
X134104000Y-88712761D01*
X134056380Y-88760380D01*
X130611619Y-87141332D02*
X131611619Y-87141332D01*
X130611619Y-87712761D01*
X131611619Y-87712761D01*
X130706857Y-88760380D02*
X130659238Y-88712761D01*
X130611619Y-88569904D01*
X130611619Y-88474666D01*
X130659238Y-88331808D01*
X130754476Y-88236570D01*
X130849714Y-88188951D01*
X131040190Y-88141332D01*
X131183047Y-88141332D01*
X131373523Y-88188951D01*
X131468761Y-88236570D01*
X131564000Y-88331808D01*
X131611619Y-88474666D01*
X131611619Y-88569904D01*
X131564000Y-88712761D01*
X131516380Y-88760380D01*
X128325619Y-87141332D02*
X129325619Y-87141332D01*
X128325619Y-87712761D01*
X129325619Y-87712761D01*
X128420857Y-88760380D02*
X128373238Y-88712761D01*
X128325619Y-88569904D01*
X128325619Y-88474666D01*
X128373238Y-88331808D01*
X128468476Y-88236570D01*
X128563714Y-88188951D01*
X128754190Y-88141332D01*
X128897047Y-88141332D01*
X129087523Y-88188951D01*
X129182761Y-88236570D01*
X129278000Y-88331808D01*
X129325619Y-88474666D01*
X129325619Y-88569904D01*
X129278000Y-88712761D01*
X129230380Y-88760380D01*
X125531619Y-87141332D02*
X126531619Y-87141332D01*
X125531619Y-87712761D01*
X126531619Y-87712761D01*
X125626857Y-88760380D02*
X125579238Y-88712761D01*
X125531619Y-88569904D01*
X125531619Y-88474666D01*
X125579238Y-88331808D01*
X125674476Y-88236570D01*
X125769714Y-88188951D01*
X125960190Y-88141332D01*
X126103047Y-88141332D01*
X126293523Y-88188951D01*
X126388761Y-88236570D01*
X126484000Y-88331808D01*
X126531619Y-88474666D01*
X126531619Y-88569904D01*
X126484000Y-88712761D01*
X126436380Y-88760380D01*
X122991619Y-87141332D02*
X123991619Y-87141332D01*
X122991619Y-87712761D01*
X123991619Y-87712761D01*
X123086857Y-88760380D02*
X123039238Y-88712761D01*
X122991619Y-88569904D01*
X122991619Y-88474666D01*
X123039238Y-88331808D01*
X123134476Y-88236570D01*
X123229714Y-88188951D01*
X123420190Y-88141332D01*
X123563047Y-88141332D01*
X123753523Y-88188951D01*
X123848761Y-88236570D01*
X123944000Y-88331808D01*
X123991619Y-88474666D01*
X123991619Y-88569904D01*
X123944000Y-88712761D01*
X123896380Y-88760380D01*
X120451619Y-87141332D02*
X121451619Y-87141332D01*
X120451619Y-87712761D01*
X121451619Y-87712761D01*
X120546857Y-88760380D02*
X120499238Y-88712761D01*
X120451619Y-88569904D01*
X120451619Y-88474666D01*
X120499238Y-88331808D01*
X120594476Y-88236570D01*
X120689714Y-88188951D01*
X120880190Y-88141332D01*
X121023047Y-88141332D01*
X121213523Y-88188951D01*
X121308761Y-88236570D01*
X121404000Y-88331808D01*
X121451619Y-88474666D01*
X121451619Y-88569904D01*
X121404000Y-88712761D01*
X121356380Y-88760380D01*
X107751619Y-87141332D02*
X108751619Y-87141332D01*
X107751619Y-87712761D01*
X108751619Y-87712761D01*
X107846857Y-88760380D02*
X107799238Y-88712761D01*
X107751619Y-88569904D01*
X107751619Y-88474666D01*
X107799238Y-88331808D01*
X107894476Y-88236570D01*
X107989714Y-88188951D01*
X108180190Y-88141332D01*
X108323047Y-88141332D01*
X108513523Y-88188951D01*
X108608761Y-88236570D01*
X108704000Y-88331808D01*
X108751619Y-88474666D01*
X108751619Y-88569904D01*
X108704000Y-88712761D01*
X108656380Y-88760380D01*
X105211619Y-87141332D02*
X106211619Y-87141332D01*
X105211619Y-87712761D01*
X106211619Y-87712761D01*
X105306857Y-88760380D02*
X105259238Y-88712761D01*
X105211619Y-88569904D01*
X105211619Y-88474666D01*
X105259238Y-88331808D01*
X105354476Y-88236570D01*
X105449714Y-88188951D01*
X105640190Y-88141332D01*
X105783047Y-88141332D01*
X105973523Y-88188951D01*
X106068761Y-88236570D01*
X106164000Y-88331808D01*
X106211619Y-88474666D01*
X106211619Y-88569904D01*
X106164000Y-88712761D01*
X106116380Y-88760380D01*
X100131619Y-87141332D02*
X101131619Y-87141332D01*
X100131619Y-87712761D01*
X101131619Y-87712761D01*
X100226857Y-88760380D02*
X100179238Y-88712761D01*
X100131619Y-88569904D01*
X100131619Y-88474666D01*
X100179238Y-88331808D01*
X100274476Y-88236570D01*
X100369714Y-88188951D01*
X100560190Y-88141332D01*
X100703047Y-88141332D01*
X100893523Y-88188951D01*
X100988761Y-88236570D01*
X101084000Y-88331808D01*
X101131619Y-88474666D01*
X101131619Y-88569904D01*
X101084000Y-88712761D01*
X101036380Y-88760380D01*
X97845619Y-87141332D02*
X98845619Y-87141332D01*
X97845619Y-87712761D01*
X98845619Y-87712761D01*
X97940857Y-88760380D02*
X97893238Y-88712761D01*
X97845619Y-88569904D01*
X97845619Y-88474666D01*
X97893238Y-88331808D01*
X97988476Y-88236570D01*
X98083714Y-88188951D01*
X98274190Y-88141332D01*
X98417047Y-88141332D01*
X98607523Y-88188951D01*
X98702761Y-88236570D01*
X98798000Y-88331808D01*
X98845619Y-88474666D01*
X98845619Y-88569904D01*
X98798000Y-88712761D01*
X98750380Y-88760380D01*
X95051619Y-87141332D02*
X96051619Y-87141332D01*
X95051619Y-87712761D01*
X96051619Y-87712761D01*
X95146857Y-88760380D02*
X95099238Y-88712761D01*
X95051619Y-88569904D01*
X95051619Y-88474666D01*
X95099238Y-88331808D01*
X95194476Y-88236570D01*
X95289714Y-88188951D01*
X95480190Y-88141332D01*
X95623047Y-88141332D01*
X95813523Y-88188951D01*
X95908761Y-88236570D01*
X96004000Y-88331808D01*
X96051619Y-88474666D01*
X96051619Y-88569904D01*
X96004000Y-88712761D01*
X95956380Y-88760380D01*
X92511619Y-87141332D02*
X93511619Y-87141332D01*
X92511619Y-87712761D01*
X93511619Y-87712761D01*
X92606857Y-88760380D02*
X92559238Y-88712761D01*
X92511619Y-88569904D01*
X92511619Y-88474666D01*
X92559238Y-88331808D01*
X92654476Y-88236570D01*
X92749714Y-88188951D01*
X92940190Y-88141332D01*
X93083047Y-88141332D01*
X93273523Y-88188951D01*
X93368761Y-88236570D01*
X93464000Y-88331808D01*
X93511619Y-88474666D01*
X93511619Y-88569904D01*
X93464000Y-88712761D01*
X93416380Y-88760380D01*
X89971619Y-87141332D02*
X90971619Y-87141332D01*
X89971619Y-87712761D01*
X90971619Y-87712761D01*
X90066857Y-88760380D02*
X90019238Y-88712761D01*
X89971619Y-88569904D01*
X89971619Y-88474666D01*
X90019238Y-88331808D01*
X90114476Y-88236570D01*
X90209714Y-88188951D01*
X90400190Y-88141332D01*
X90543047Y-88141332D01*
X90733523Y-88188951D01*
X90828761Y-88236570D01*
X90924000Y-88331808D01*
X90971619Y-88474666D01*
X90971619Y-88569904D01*
X90924000Y-88712761D01*
X90876380Y-88760380D01*
X69651619Y-87141332D02*
X70651619Y-87141332D01*
X69651619Y-87712761D01*
X70651619Y-87712761D01*
X69746857Y-88760380D02*
X69699238Y-88712761D01*
X69651619Y-88569904D01*
X69651619Y-88474666D01*
X69699238Y-88331808D01*
X69794476Y-88236570D01*
X69889714Y-88188951D01*
X70080190Y-88141332D01*
X70223047Y-88141332D01*
X70413523Y-88188951D01*
X70508761Y-88236570D01*
X70604000Y-88331808D01*
X70651619Y-88474666D01*
X70651619Y-88569904D01*
X70604000Y-88712761D01*
X70556380Y-88760380D01*
X72191619Y-87141332D02*
X73191619Y-87141332D01*
X72191619Y-87712761D01*
X73191619Y-87712761D01*
X72286857Y-88760380D02*
X72239238Y-88712761D01*
X72191619Y-88569904D01*
X72191619Y-88474666D01*
X72239238Y-88331808D01*
X72334476Y-88236570D01*
X72429714Y-88188951D01*
X72620190Y-88141332D01*
X72763047Y-88141332D01*
X72953523Y-88188951D01*
X73048761Y-88236570D01*
X73144000Y-88331808D01*
X73191619Y-88474666D01*
X73191619Y-88569904D01*
X73144000Y-88712761D01*
X73096380Y-88760380D01*
X74731619Y-87141333D02*
X75731619Y-87141333D01*
X75731619Y-87522285D01*
X75684000Y-87617523D01*
X75636380Y-87665142D01*
X75541142Y-87712761D01*
X75398285Y-87712761D01*
X75303047Y-87665142D01*
X75255428Y-87617523D01*
X75207809Y-87522285D01*
X75207809Y-87141333D01*
X75255428Y-88474666D02*
X75255428Y-88141333D01*
X74731619Y-88141333D02*
X75731619Y-88141333D01*
X75731619Y-88617523D01*
X75398285Y-89427047D02*
X74731619Y-89427047D01*
X75779238Y-89188952D02*
X75064952Y-88950857D01*
X75064952Y-89569904D01*
X77271619Y-87141333D02*
X78271619Y-87141333D01*
X78271619Y-87522285D01*
X78224000Y-87617523D01*
X78176380Y-87665142D01*
X78081142Y-87712761D01*
X77938285Y-87712761D01*
X77843047Y-87665142D01*
X77795428Y-87617523D01*
X77747809Y-87522285D01*
X77747809Y-87141333D01*
X77795428Y-88474666D02*
X77795428Y-88141333D01*
X77271619Y-88141333D02*
X78271619Y-88141333D01*
X78271619Y-88617523D01*
X78271619Y-89474666D02*
X78271619Y-88998476D01*
X77795428Y-88950857D01*
X77843047Y-88998476D01*
X77890666Y-89093714D01*
X77890666Y-89331809D01*
X77843047Y-89427047D01*
X77795428Y-89474666D01*
X77700190Y-89522285D01*
X77462095Y-89522285D01*
X77366857Y-89474666D01*
X77319238Y-89427047D01*
X77271619Y-89331809D01*
X77271619Y-89093714D01*
X77319238Y-88998476D01*
X77366857Y-88950857D01*
X80764000Y-87665142D02*
X80811619Y-87569904D01*
X80811619Y-87427047D01*
X80764000Y-87284189D01*
X80668761Y-87188951D01*
X80573523Y-87141332D01*
X80383047Y-87093713D01*
X80240190Y-87093713D01*
X80049714Y-87141332D01*
X79954476Y-87188951D01*
X79859238Y-87284189D01*
X79811619Y-87427047D01*
X79811619Y-87522285D01*
X79859238Y-87665142D01*
X79906857Y-87712761D01*
X80240190Y-87712761D01*
X80240190Y-87522285D01*
X79811619Y-88141332D02*
X80811619Y-88141332D01*
X79811619Y-88712761D01*
X80811619Y-88712761D01*
X79811619Y-89188951D02*
X80811619Y-89188951D01*
X80811619Y-89427047D01*
X80764000Y-89569904D01*
X80668761Y-89665142D01*
X80573523Y-89712761D01*
X80383047Y-89760380D01*
X80240190Y-89760380D01*
X80049714Y-89712761D01*
X79954476Y-89665142D01*
X79859238Y-89569904D01*
X79811619Y-89427047D01*
X79811619Y-89188951D01*
X103760000Y-87665142D02*
X103807619Y-87569904D01*
X103807619Y-87427047D01*
X103760000Y-87284189D01*
X103664761Y-87188951D01*
X103569523Y-87141332D01*
X103379047Y-87093713D01*
X103236190Y-87093713D01*
X103045714Y-87141332D01*
X102950476Y-87188951D01*
X102855238Y-87284189D01*
X102807619Y-87427047D01*
X102807619Y-87522285D01*
X102855238Y-87665142D01*
X102902857Y-87712761D01*
X103236190Y-87712761D01*
X103236190Y-87522285D01*
X102807619Y-88141332D02*
X103807619Y-88141332D01*
X102807619Y-88712761D01*
X103807619Y-88712761D01*
X102807619Y-89188951D02*
X103807619Y-89188951D01*
X103807619Y-89427047D01*
X103760000Y-89569904D01*
X103664761Y-89665142D01*
X103569523Y-89712761D01*
X103379047Y-89760380D01*
X103236190Y-89760380D01*
X103045714Y-89712761D01*
X102950476Y-89665142D01*
X102855238Y-89569904D01*
X102807619Y-89427047D01*
X102807619Y-89188951D01*
X110291619Y-87141332D02*
X111291619Y-87141332D01*
X111291619Y-87522285D01*
X111244000Y-87617523D01*
X111196380Y-87665142D01*
X111101142Y-87712761D01*
X110958285Y-87712761D01*
X110863047Y-87665142D01*
X110815428Y-87617523D01*
X110767809Y-87522285D01*
X110767809Y-87141332D01*
X110291619Y-88141332D02*
X111291619Y-88141332D01*
X111291619Y-88379428D01*
X111244000Y-88522285D01*
X111148761Y-88617523D01*
X111053523Y-88665142D01*
X110863047Y-88712761D01*
X110720190Y-88712761D01*
X110529714Y-88665142D01*
X110434476Y-88617523D01*
X110339238Y-88522285D01*
X110291619Y-88379428D01*
X110291619Y-88141332D01*
X111196380Y-89093713D02*
X111244000Y-89141332D01*
X111291619Y-89236570D01*
X111291619Y-89474666D01*
X111244000Y-89569904D01*
X111196380Y-89617523D01*
X111101142Y-89665142D01*
X111005904Y-89665142D01*
X110863047Y-89617523D01*
X110291619Y-89046094D01*
X110291619Y-89665142D01*
X112817619Y-87141332D02*
X113817619Y-87141332D01*
X113817619Y-87522285D01*
X113770000Y-87617523D01*
X113722380Y-87665142D01*
X113627142Y-87712761D01*
X113484285Y-87712761D01*
X113389047Y-87665142D01*
X113341428Y-87617523D01*
X113293809Y-87522285D01*
X113293809Y-87141332D01*
X112817619Y-88141332D02*
X113817619Y-88141332D01*
X113817619Y-88379428D01*
X113770000Y-88522285D01*
X113674761Y-88617523D01*
X113579523Y-88665142D01*
X113389047Y-88712761D01*
X113246190Y-88712761D01*
X113055714Y-88665142D01*
X112960476Y-88617523D01*
X112865238Y-88522285D01*
X112817619Y-88379428D01*
X112817619Y-88141332D01*
X113817619Y-89046094D02*
X113817619Y-89665142D01*
X113436666Y-89331808D01*
X113436666Y-89474666D01*
X113389047Y-89569904D01*
X113341428Y-89617523D01*
X113246190Y-89665142D01*
X113008095Y-89665142D01*
X112912857Y-89617523D01*
X112865238Y-89569904D01*
X112817619Y-89474666D01*
X112817619Y-89188951D01*
X112865238Y-89093713D01*
X112912857Y-89046094D01*
X115367619Y-87141332D02*
X116367619Y-87141332D01*
X116367619Y-87522285D01*
X116320000Y-87617523D01*
X116272380Y-87665142D01*
X116177142Y-87712761D01*
X116034285Y-87712761D01*
X115939047Y-87665142D01*
X115891428Y-87617523D01*
X115843809Y-87522285D01*
X115843809Y-87141332D01*
X115367619Y-88141332D02*
X116367619Y-88141332D01*
X116367619Y-88379428D01*
X116320000Y-88522285D01*
X116224761Y-88617523D01*
X116129523Y-88665142D01*
X115939047Y-88712761D01*
X115796190Y-88712761D01*
X115605714Y-88665142D01*
X115510476Y-88617523D01*
X115415238Y-88522285D01*
X115367619Y-88379428D01*
X115367619Y-88141332D01*
X116034285Y-89569904D02*
X115367619Y-89569904D01*
X116415238Y-89331808D02*
X115700952Y-89093713D01*
X115700952Y-89712761D01*
X118017619Y-87141332D02*
X119017619Y-87141332D01*
X119017619Y-87522285D01*
X118970000Y-87617523D01*
X118922380Y-87665142D01*
X118827142Y-87712761D01*
X118684285Y-87712761D01*
X118589047Y-87665142D01*
X118541428Y-87617523D01*
X118493809Y-87522285D01*
X118493809Y-87141332D01*
X118017619Y-88141332D02*
X119017619Y-88141332D01*
X119017619Y-88379428D01*
X118970000Y-88522285D01*
X118874761Y-88617523D01*
X118779523Y-88665142D01*
X118589047Y-88712761D01*
X118446190Y-88712761D01*
X118255714Y-88665142D01*
X118160476Y-88617523D01*
X118065238Y-88522285D01*
X118017619Y-88379428D01*
X118017619Y-88141332D01*
X119017619Y-89617523D02*
X119017619Y-89141332D01*
X118541428Y-89093713D01*
X118589047Y-89141332D01*
X118636666Y-89236570D01*
X118636666Y-89474666D01*
X118589047Y-89569904D01*
X118541428Y-89617523D01*
X118446190Y-89665142D01*
X118208095Y-89665142D01*
X118112857Y-89617523D01*
X118065238Y-89569904D01*
X118017619Y-89474666D01*
X118017619Y-89236570D01*
X118065238Y-89141332D01*
X118112857Y-89093713D01*
X101893809Y-104891333D02*
X101417619Y-104891333D01*
X101989047Y-104605619D02*
X101655714Y-105605619D01*
X101322380Y-104605619D01*
X101131904Y-105605619D02*
X100560476Y-105605619D01*
X100846190Y-104605619D02*
X100846190Y-105605619D01*
X100227142Y-104605619D02*
X100227142Y-105272285D01*
X100227142Y-105177047D02*
X100179523Y-105224666D01*
X100084285Y-105272285D01*
X99941428Y-105272285D01*
X99846190Y-105224666D01*
X99798571Y-105129428D01*
X99798571Y-104605619D01*
X99798571Y-105129428D02*
X99750952Y-105224666D01*
X99655714Y-105272285D01*
X99512857Y-105272285D01*
X99417619Y-105224666D01*
X99370000Y-105129428D01*
X99370000Y-104605619D01*
X98512857Y-104653238D02*
X98608095Y-104605619D01*
X98798571Y-104605619D01*
X98893809Y-104653238D01*
X98941428Y-104748476D01*
X98941428Y-105129428D01*
X98893809Y-105224666D01*
X98798571Y-105272285D01*
X98608095Y-105272285D01*
X98512857Y-105224666D01*
X98465238Y-105129428D01*
X98465238Y-105034190D01*
X98941428Y-104938952D01*
X97608095Y-105272285D02*
X97608095Y-104462761D01*
X97655714Y-104367523D01*
X97703333Y-104319904D01*
X97798571Y-104272285D01*
X97941428Y-104272285D01*
X98036666Y-104319904D01*
X97608095Y-104653238D02*
X97703333Y-104605619D01*
X97893809Y-104605619D01*
X97989047Y-104653238D01*
X98036666Y-104700857D01*
X98084285Y-104796095D01*
X98084285Y-105081809D01*
X98036666Y-105177047D01*
X97989047Y-105224666D01*
X97893809Y-105272285D01*
X97703333Y-105272285D01*
X97608095Y-105224666D01*
X96703333Y-104605619D02*
X96703333Y-105129428D01*
X96750952Y-105224666D01*
X96846190Y-105272285D01*
X97036666Y-105272285D01*
X97131904Y-105224666D01*
X96703333Y-104653238D02*
X96798571Y-104605619D01*
X97036666Y-104605619D01*
X97131904Y-104653238D01*
X97179523Y-104748476D01*
X97179523Y-104843714D01*
X97131904Y-104938952D01*
X97036666Y-104986571D01*
X96798571Y-104986571D01*
X96703333Y-105034190D01*
X95798571Y-105272285D02*
X95798571Y-104605619D01*
X96036666Y-105653238D02*
X96274761Y-104938952D01*
X95655714Y-104938952D01*
X95131904Y-105177047D02*
X95227142Y-105224666D01*
X95274761Y-105272285D01*
X95322380Y-105367523D01*
X95322380Y-105415142D01*
X95274761Y-105510380D01*
X95227142Y-105558000D01*
X95131904Y-105605619D01*
X94941428Y-105605619D01*
X94846190Y-105558000D01*
X94798571Y-105510380D01*
X94750952Y-105415142D01*
X94750952Y-105367523D01*
X94798571Y-105272285D01*
X94846190Y-105224666D01*
X94941428Y-105177047D01*
X95131904Y-105177047D01*
X95227142Y-105129428D01*
X95274761Y-105081809D01*
X95322380Y-104986571D01*
X95322380Y-104796095D01*
X95274761Y-104700857D01*
X95227142Y-104653238D01*
X95131904Y-104605619D01*
X94941428Y-104605619D01*
X94846190Y-104653238D01*
X94798571Y-104700857D01*
X94750952Y-104796095D01*
X94750952Y-104986571D01*
X94798571Y-105081809D01*
X94846190Y-105129428D01*
X94941428Y-105177047D01*
X94131904Y-105605619D02*
X94036666Y-105605619D01*
X93941428Y-105558000D01*
X93893809Y-105510380D01*
X93846190Y-105415142D01*
X93798571Y-105224666D01*
X93798571Y-104986571D01*
X93846190Y-104796095D01*
X93893809Y-104700857D01*
X93941428Y-104653238D01*
X94036666Y-104605619D01*
X94131904Y-104605619D01*
X94227142Y-104653238D01*
X94274761Y-104700857D01*
X94322380Y-104796095D01*
X94370000Y-104986571D01*
X94370000Y-105224666D01*
X94322380Y-105415142D01*
X94274761Y-105510380D01*
X94227142Y-105558000D01*
X94131904Y-105605619D01*
X93322380Y-104605619D02*
X93131904Y-104605619D01*
X93036666Y-104653238D01*
X92989047Y-104700857D01*
X92893809Y-104843714D01*
X92846190Y-105034190D01*
X92846190Y-105415142D01*
X92893809Y-105510380D01*
X92941428Y-105558000D01*
X93036666Y-105605619D01*
X93227142Y-105605619D01*
X93322380Y-105558000D01*
X93370000Y-105510380D01*
X93417619Y-105415142D01*
X93417619Y-105177047D01*
X93370000Y-105081809D01*
X93322380Y-105034190D01*
X93227142Y-104986571D01*
X93036666Y-104986571D01*
X92941428Y-105034190D01*
X92893809Y-105081809D01*
X92846190Y-105177047D01*
X102084285Y-103050857D02*
X102131904Y-103003238D01*
X102274761Y-102955619D01*
X102370000Y-102955619D01*
X102512857Y-103003238D01*
X102608095Y-103098476D01*
X102655714Y-103193714D01*
X102703333Y-103384190D01*
X102703333Y-103527047D01*
X102655714Y-103717523D01*
X102608095Y-103812761D01*
X102512857Y-103908000D01*
X102370000Y-103955619D01*
X102274761Y-103955619D01*
X102131904Y-103908000D01*
X102084285Y-103860380D01*
X101227142Y-103622285D02*
X101227142Y-102955619D01*
X101655714Y-103622285D02*
X101655714Y-103098476D01*
X101608095Y-103003238D01*
X101512857Y-102955619D01*
X101370000Y-102955619D01*
X101274761Y-103003238D01*
X101227142Y-103050857D01*
X100750952Y-102955619D02*
X100750952Y-103622285D01*
X100750952Y-103431809D02*
X100703333Y-103527047D01*
X100655714Y-103574666D01*
X100560476Y-103622285D01*
X100465238Y-103622285D01*
X100131904Y-102955619D02*
X100131904Y-103622285D01*
X100131904Y-103955619D02*
X100179523Y-103908000D01*
X100131904Y-103860380D01*
X100084285Y-103908000D01*
X100131904Y-103955619D01*
X100131904Y-103860380D01*
X99512857Y-102955619D02*
X99608095Y-103003238D01*
X99655714Y-103050857D01*
X99703333Y-103146095D01*
X99703333Y-103431809D01*
X99655714Y-103527047D01*
X99608095Y-103574666D01*
X99512857Y-103622285D01*
X99370000Y-103622285D01*
X99274761Y-103574666D01*
X99227142Y-103527047D01*
X99179523Y-103431809D01*
X99179523Y-103146095D01*
X99227142Y-103050857D01*
X99274761Y-103003238D01*
X99370000Y-102955619D01*
X99512857Y-102955619D01*
X98798571Y-103003238D02*
X98703333Y-102955619D01*
X98512857Y-102955619D01*
X98417619Y-103003238D01*
X98370000Y-103098476D01*
X98370000Y-103146095D01*
X98417619Y-103241333D01*
X98512857Y-103288952D01*
X98655714Y-103288952D01*
X98750952Y-103336571D01*
X98798571Y-103431809D01*
X98798571Y-103479428D01*
X98750952Y-103574666D01*
X98655714Y-103622285D01*
X98512857Y-103622285D01*
X98417619Y-103574666D01*
X97941428Y-102955619D02*
X97941428Y-103622285D01*
X97941428Y-103955619D02*
X97989047Y-103908000D01*
X97941428Y-103860380D01*
X97893809Y-103908000D01*
X97941428Y-103955619D01*
X97941428Y-103860380D01*
X97608095Y-103622285D02*
X97227142Y-103622285D01*
X97465238Y-103955619D02*
X97465238Y-103098476D01*
X97417619Y-103003238D01*
X97322380Y-102955619D01*
X97227142Y-102955619D01*
X96989047Y-103622285D02*
X96750952Y-102955619D01*
X96512857Y-103622285D02*
X96750952Y-102955619D01*
X96846190Y-102717523D01*
X96893809Y-102669904D01*
X96989047Y-102622285D01*
X95370000Y-102955619D02*
X95370000Y-103955619D01*
X94798571Y-102955619D01*
X94798571Y-103955619D01*
X93893809Y-102955619D02*
X93893809Y-103479428D01*
X93941428Y-103574666D01*
X94036666Y-103622285D01*
X94227142Y-103622285D01*
X94322380Y-103574666D01*
X93893809Y-103003238D02*
X93989047Y-102955619D01*
X94227142Y-102955619D01*
X94322380Y-103003238D01*
X94370000Y-103098476D01*
X94370000Y-103193714D01*
X94322380Y-103288952D01*
X94227142Y-103336571D01*
X93989047Y-103336571D01*
X93893809Y-103384190D01*
X93417619Y-103622285D02*
X93417619Y-102955619D01*
X93417619Y-103527047D02*
X93370000Y-103574666D01*
X93274761Y-103622285D01*
X93131904Y-103622285D01*
X93036666Y-103574666D01*
X92989047Y-103479428D01*
X92989047Y-102955619D01*
X92370000Y-102955619D02*
X92465238Y-103003238D01*
X92512857Y-103050857D01*
X92560476Y-103146095D01*
X92560476Y-103431809D01*
X92512857Y-103527047D01*
X92465238Y-103574666D01*
X92370000Y-103622285D01*
X92227142Y-103622285D01*
X92131904Y-103574666D01*
X92084285Y-103527047D01*
X92036666Y-103431809D01*
X92036666Y-103146095D01*
X92084285Y-103050857D01*
X92131904Y-103003238D01*
X92227142Y-102955619D01*
X92370000Y-102955619D01*
X104250952Y-101829428D02*
X104584285Y-101829428D01*
X104584285Y-101305619D02*
X104584285Y-102305619D01*
X104108095Y-102305619D01*
X103298571Y-101972285D02*
X103298571Y-101305619D01*
X103727142Y-101972285D02*
X103727142Y-101448476D01*
X103679523Y-101353238D01*
X103584285Y-101305619D01*
X103441428Y-101305619D01*
X103346190Y-101353238D01*
X103298571Y-101400857D01*
X102679523Y-101305619D02*
X102774761Y-101353238D01*
X102822380Y-101448476D01*
X102822380Y-102305619D01*
X102155714Y-101305619D02*
X102250952Y-101353238D01*
X102298571Y-101448476D01*
X102298571Y-102305619D01*
X101774761Y-101686571D02*
X101012857Y-101686571D01*
X100536666Y-101305619D02*
X100536666Y-102305619D01*
X100536666Y-101924666D02*
X100441428Y-101972285D01*
X100250952Y-101972285D01*
X100155714Y-101924666D01*
X100108095Y-101877047D01*
X100060476Y-101781809D01*
X100060476Y-101496095D01*
X100108095Y-101400857D01*
X100155714Y-101353238D01*
X100250952Y-101305619D01*
X100441428Y-101305619D01*
X100536666Y-101353238D01*
X99631904Y-101305619D02*
X99631904Y-101972285D01*
X99631904Y-101781809D02*
X99584285Y-101877047D01*
X99536666Y-101924666D01*
X99441428Y-101972285D01*
X99346190Y-101972285D01*
X99012857Y-101305619D02*
X99012857Y-101972285D01*
X99012857Y-102305619D02*
X99060476Y-102258000D01*
X99012857Y-102210380D01*
X98965238Y-102258000D01*
X99012857Y-102305619D01*
X99012857Y-102210380D01*
X98108095Y-101305619D02*
X98108095Y-102305619D01*
X98108095Y-101353238D02*
X98203333Y-101305619D01*
X98393809Y-101305619D01*
X98489047Y-101353238D01*
X98536666Y-101400857D01*
X98584285Y-101496095D01*
X98584285Y-101781809D01*
X98536666Y-101877047D01*
X98489047Y-101924666D01*
X98393809Y-101972285D01*
X98203333Y-101972285D01*
X98108095Y-101924666D01*
X97203333Y-101972285D02*
X97203333Y-101162761D01*
X97250952Y-101067523D01*
X97298571Y-101019904D01*
X97393809Y-100972285D01*
X97536666Y-100972285D01*
X97631904Y-101019904D01*
X97203333Y-101353238D02*
X97298571Y-101305619D01*
X97489047Y-101305619D01*
X97584285Y-101353238D01*
X97631904Y-101400857D01*
X97679523Y-101496095D01*
X97679523Y-101781809D01*
X97631904Y-101877047D01*
X97584285Y-101924666D01*
X97489047Y-101972285D01*
X97298571Y-101972285D01*
X97203333Y-101924666D01*
X96346190Y-101353238D02*
X96441428Y-101305619D01*
X96631904Y-101305619D01*
X96727142Y-101353238D01*
X96774761Y-101448476D01*
X96774761Y-101829428D01*
X96727142Y-101924666D01*
X96631904Y-101972285D01*
X96441428Y-101972285D01*
X96346190Y-101924666D01*
X96298571Y-101829428D01*
X96298571Y-101734190D01*
X96774761Y-101638952D01*
X95108095Y-101305619D02*
X95108095Y-101972285D01*
X95108095Y-101877047D02*
X95060476Y-101924666D01*
X94965238Y-101972285D01*
X94822380Y-101972285D01*
X94727142Y-101924666D01*
X94679523Y-101829428D01*
X94679523Y-101305619D01*
X94679523Y-101829428D02*
X94631904Y-101924666D01*
X94536666Y-101972285D01*
X94393809Y-101972285D01*
X94298571Y-101924666D01*
X94250952Y-101829428D01*
X94250952Y-101305619D01*
X93631904Y-101305619D02*
X93727142Y-101353238D01*
X93774761Y-101400857D01*
X93822380Y-101496095D01*
X93822380Y-101781809D01*
X93774761Y-101877047D01*
X93727142Y-101924666D01*
X93631904Y-101972285D01*
X93489047Y-101972285D01*
X93393809Y-101924666D01*
X93346190Y-101877047D01*
X93298571Y-101781809D01*
X93298571Y-101496095D01*
X93346190Y-101400857D01*
X93393809Y-101353238D01*
X93489047Y-101305619D01*
X93631904Y-101305619D01*
X92441428Y-101305619D02*
X92441428Y-102305619D01*
X92441428Y-101353238D02*
X92536666Y-101305619D01*
X92727142Y-101305619D01*
X92822380Y-101353238D01*
X92870000Y-101400857D01*
X92917619Y-101496095D01*
X92917619Y-101781809D01*
X92870000Y-101877047D01*
X92822380Y-101924666D01*
X92727142Y-101972285D01*
X92536666Y-101972285D01*
X92441428Y-101924666D01*
X91536666Y-101972285D02*
X91536666Y-101305619D01*
X91965238Y-101972285D02*
X91965238Y-101448476D01*
X91917619Y-101353238D01*
X91822380Y-101305619D01*
X91679523Y-101305619D01*
X91584285Y-101353238D01*
X91536666Y-101400857D01*
X90917619Y-101305619D02*
X91012857Y-101353238D01*
X91060476Y-101448476D01*
X91060476Y-102305619D01*
X90155714Y-101353238D02*
X90250952Y-101305619D01*
X90441428Y-101305619D01*
X90536666Y-101353238D01*
X90584285Y-101448476D01*
X90584285Y-101829428D01*
X90536666Y-101924666D01*
X90441428Y-101972285D01*
X90250952Y-101972285D01*
X90155714Y-101924666D01*
X90108095Y-101829428D01*
X90108095Y-101734190D01*
X90584285Y-101638952D01*
X98965238Y-99655619D02*
X98965238Y-100322285D01*
X98965238Y-100131809D02*
X98917619Y-100227047D01*
X98870000Y-100274666D01*
X98774761Y-100322285D01*
X98679523Y-100322285D01*
X97965238Y-99703238D02*
X98060476Y-99655619D01*
X98250952Y-99655619D01*
X98346190Y-99703238D01*
X98393809Y-99798476D01*
X98393809Y-100179428D01*
X98346190Y-100274666D01*
X98250952Y-100322285D01*
X98060476Y-100322285D01*
X97965238Y-100274666D01*
X97917619Y-100179428D01*
X97917619Y-100084190D01*
X98393809Y-99988952D01*
X97584285Y-100322285D02*
X97346190Y-99655619D01*
X97108095Y-100322285D01*
X96727142Y-99750857D02*
X96679523Y-99703238D01*
X96727142Y-99655619D01*
X96774761Y-99703238D01*
X96727142Y-99750857D01*
X96727142Y-99655619D01*
X95727142Y-99655619D02*
X96298571Y-99655619D01*
X96012857Y-99655619D02*
X96012857Y-100655619D01*
X96108095Y-100512761D01*
X96203333Y-100417523D01*
X96298571Y-100369904D01*
X101155714Y-98291333D02*
X100679523Y-98291333D01*
X101250952Y-98005619D02*
X100917619Y-99005619D01*
X100584285Y-98005619D01*
X100250952Y-98672285D02*
X100250952Y-97672285D01*
X100250952Y-98624666D02*
X100155714Y-98672285D01*
X99965238Y-98672285D01*
X99870000Y-98624666D01*
X99822380Y-98577047D01*
X99774761Y-98481809D01*
X99774761Y-98196095D01*
X99822380Y-98100857D01*
X99870000Y-98053238D01*
X99965238Y-98005619D01*
X100155714Y-98005619D01*
X100250952Y-98053238D01*
X99346190Y-98005619D02*
X99346190Y-98672285D01*
X99346190Y-98481809D02*
X99298571Y-98577047D01*
X99250952Y-98624666D01*
X99155714Y-98672285D01*
X99060476Y-98672285D01*
X98727142Y-98005619D02*
X98727142Y-98672285D01*
X98727142Y-99005619D02*
X98774761Y-98958000D01*
X98727142Y-98910380D01*
X98679523Y-98958000D01*
X98727142Y-99005619D01*
X98727142Y-98910380D01*
X98108095Y-98005619D02*
X98203333Y-98053238D01*
X98250952Y-98148476D01*
X98250952Y-99005619D01*
X97012857Y-98910380D02*
X96965238Y-98958000D01*
X96870000Y-99005619D01*
X96631904Y-99005619D01*
X96536666Y-98958000D01*
X96489047Y-98910380D01*
X96441428Y-98815142D01*
X96441428Y-98719904D01*
X96489047Y-98577047D01*
X97060476Y-98005619D01*
X96441428Y-98005619D01*
X95822380Y-99005619D02*
X95727142Y-99005619D01*
X95631904Y-98958000D01*
X95584285Y-98910380D01*
X95536666Y-98815142D01*
X95489047Y-98624666D01*
X95489047Y-98386571D01*
X95536666Y-98196095D01*
X95584285Y-98100857D01*
X95631904Y-98053238D01*
X95727142Y-98005619D01*
X95822380Y-98005619D01*
X95917619Y-98053238D01*
X95965238Y-98100857D01*
X96012857Y-98196095D01*
X96060476Y-98386571D01*
X96060476Y-98624666D01*
X96012857Y-98815142D01*
X95965238Y-98910380D01*
X95917619Y-98958000D01*
X95822380Y-99005619D01*
X95108095Y-98910380D02*
X95060476Y-98958000D01*
X94965238Y-99005619D01*
X94727142Y-99005619D01*
X94631904Y-98958000D01*
X94584285Y-98910380D01*
X94536666Y-98815142D01*
X94536666Y-98719904D01*
X94584285Y-98577047D01*
X95155714Y-98005619D01*
X94536666Y-98005619D01*
X93917619Y-99005619D02*
X93822380Y-99005619D01*
X93727142Y-98958000D01*
X93679523Y-98910380D01*
X93631904Y-98815142D01*
X93584285Y-98624666D01*
X93584285Y-98386571D01*
X93631904Y-98196095D01*
X93679523Y-98100857D01*
X93727142Y-98053238D01*
X93822380Y-98005619D01*
X93917619Y-98005619D01*
X94012857Y-98053238D01*
X94060476Y-98100857D01*
X94108095Y-98196095D01*
X94155714Y-98386571D01*
X94155714Y-98624666D01*
X94108095Y-98815142D01*
X94060476Y-98910380D01*
X94012857Y-98958000D01*
X93917619Y-99005619D01*
X78520952Y-95717619D02*
X78520952Y-96717619D01*
X78140000Y-96717619D01*
X78044761Y-96670000D01*
X77997142Y-96622380D01*
X77949523Y-96527142D01*
X77949523Y-96384285D01*
X77997142Y-96289047D01*
X78044761Y-96241428D01*
X78140000Y-96193809D01*
X78520952Y-96193809D01*
X77616190Y-96717619D02*
X77378095Y-95717619D01*
X77187619Y-96431904D01*
X76997142Y-95717619D01*
X76759047Y-96717619D01*
X76378095Y-95717619D02*
X76378095Y-96717619D01*
X76044761Y-96003333D01*
X75711428Y-96717619D01*
X75711428Y-95717619D01*
X75282857Y-96622380D02*
X75235238Y-96670000D01*
X75140000Y-96717619D01*
X74901904Y-96717619D01*
X74806666Y-96670000D01*
X74759047Y-96622380D01*
X74711428Y-96527142D01*
X74711428Y-96431904D01*
X74759047Y-96289047D01*
X75330476Y-95717619D01*
X74711428Y-95717619D01*
X78520952Y-93047619D02*
X78520952Y-94047619D01*
X78140000Y-94047619D01*
X78044761Y-94000000D01*
X77997142Y-93952380D01*
X77949523Y-93857142D01*
X77949523Y-93714285D01*
X77997142Y-93619047D01*
X78044761Y-93571428D01*
X78140000Y-93523809D01*
X78520952Y-93523809D01*
X77616190Y-94047619D02*
X77378095Y-93047619D01*
X77187619Y-93761904D01*
X76997142Y-93047619D01*
X76759047Y-94047619D01*
X76378095Y-93047619D02*
X76378095Y-94047619D01*
X76044761Y-93333333D01*
X75711428Y-94047619D01*
X75711428Y-93047619D01*
X74711428Y-93047619D02*
X75282857Y-93047619D01*
X74997142Y-93047619D02*
X74997142Y-94047619D01*
X75092380Y-93904761D01*
X75187619Y-93809523D01*
X75282857Y-93761904D01*
X109123809Y-75018333D02*
X108647619Y-75018333D01*
X109219047Y-74732619D02*
X108885714Y-75732619D01*
X108552380Y-74732619D01*
X108361904Y-75732619D02*
X107790476Y-75732619D01*
X108076190Y-74732619D02*
X108076190Y-75732619D01*
X107457142Y-74732619D02*
X107457142Y-75399285D01*
X107457142Y-75304047D02*
X107409523Y-75351666D01*
X107314285Y-75399285D01*
X107171428Y-75399285D01*
X107076190Y-75351666D01*
X107028571Y-75256428D01*
X107028571Y-74732619D01*
X107028571Y-75256428D02*
X106980952Y-75351666D01*
X106885714Y-75399285D01*
X106742857Y-75399285D01*
X106647619Y-75351666D01*
X106600000Y-75256428D01*
X106600000Y-74732619D01*
X105742857Y-74780238D02*
X105838095Y-74732619D01*
X106028571Y-74732619D01*
X106123809Y-74780238D01*
X106171428Y-74875476D01*
X106171428Y-75256428D01*
X106123809Y-75351666D01*
X106028571Y-75399285D01*
X105838095Y-75399285D01*
X105742857Y-75351666D01*
X105695238Y-75256428D01*
X105695238Y-75161190D01*
X106171428Y-75065952D01*
X104838095Y-75399285D02*
X104838095Y-74589761D01*
X104885714Y-74494523D01*
X104933333Y-74446904D01*
X105028571Y-74399285D01*
X105171428Y-74399285D01*
X105266666Y-74446904D01*
X104838095Y-74780238D02*
X104933333Y-74732619D01*
X105123809Y-74732619D01*
X105219047Y-74780238D01*
X105266666Y-74827857D01*
X105314285Y-74923095D01*
X105314285Y-75208809D01*
X105266666Y-75304047D01*
X105219047Y-75351666D01*
X105123809Y-75399285D01*
X104933333Y-75399285D01*
X104838095Y-75351666D01*
X103933333Y-74732619D02*
X103933333Y-75256428D01*
X103980952Y-75351666D01*
X104076190Y-75399285D01*
X104266666Y-75399285D01*
X104361904Y-75351666D01*
X103933333Y-74780238D02*
X104028571Y-74732619D01*
X104266666Y-74732619D01*
X104361904Y-74780238D01*
X104409523Y-74875476D01*
X104409523Y-74970714D01*
X104361904Y-75065952D01*
X104266666Y-75113571D01*
X104028571Y-75113571D01*
X103933333Y-75161190D01*
X103028571Y-75399285D02*
X103028571Y-74732619D01*
X103266666Y-75780238D02*
X103504761Y-75065952D01*
X102885714Y-75065952D01*
X102361904Y-75304047D02*
X102457142Y-75351666D01*
X102504761Y-75399285D01*
X102552380Y-75494523D01*
X102552380Y-75542142D01*
X102504761Y-75637380D01*
X102457142Y-75685000D01*
X102361904Y-75732619D01*
X102171428Y-75732619D01*
X102076190Y-75685000D01*
X102028571Y-75637380D01*
X101980952Y-75542142D01*
X101980952Y-75494523D01*
X102028571Y-75399285D01*
X102076190Y-75351666D01*
X102171428Y-75304047D01*
X102361904Y-75304047D01*
X102457142Y-75256428D01*
X102504761Y-75208809D01*
X102552380Y-75113571D01*
X102552380Y-74923095D01*
X102504761Y-74827857D01*
X102457142Y-74780238D01*
X102361904Y-74732619D01*
X102171428Y-74732619D01*
X102076190Y-74780238D01*
X102028571Y-74827857D01*
X101980952Y-74923095D01*
X101980952Y-75113571D01*
X102028571Y-75208809D01*
X102076190Y-75256428D01*
X102171428Y-75304047D01*
X101361904Y-75732619D02*
X101266666Y-75732619D01*
X101171428Y-75685000D01*
X101123809Y-75637380D01*
X101076190Y-75542142D01*
X101028571Y-75351666D01*
X101028571Y-75113571D01*
X101076190Y-74923095D01*
X101123809Y-74827857D01*
X101171428Y-74780238D01*
X101266666Y-74732619D01*
X101361904Y-74732619D01*
X101457142Y-74780238D01*
X101504761Y-74827857D01*
X101552380Y-74923095D01*
X101600000Y-75113571D01*
X101600000Y-75351666D01*
X101552380Y-75542142D01*
X101504761Y-75637380D01*
X101457142Y-75685000D01*
X101361904Y-75732619D01*
X100552380Y-74732619D02*
X100361904Y-74732619D01*
X100266666Y-74780238D01*
X100219047Y-74827857D01*
X100123809Y-74970714D01*
X100076190Y-75161190D01*
X100076190Y-75542142D01*
X100123809Y-75637380D01*
X100171428Y-75685000D01*
X100266666Y-75732619D01*
X100457142Y-75732619D01*
X100552380Y-75685000D01*
X100600000Y-75637380D01*
X100647619Y-75542142D01*
X100647619Y-75304047D01*
X100600000Y-75208809D01*
X100552380Y-75161190D01*
X100457142Y-75113571D01*
X100266666Y-75113571D01*
X100171428Y-75161190D01*
X100123809Y-75208809D01*
X100076190Y-75304047D01*
X109314285Y-73177857D02*
X109361904Y-73130238D01*
X109504761Y-73082619D01*
X109600000Y-73082619D01*
X109742857Y-73130238D01*
X109838095Y-73225476D01*
X109885714Y-73320714D01*
X109933333Y-73511190D01*
X109933333Y-73654047D01*
X109885714Y-73844523D01*
X109838095Y-73939761D01*
X109742857Y-74035000D01*
X109600000Y-74082619D01*
X109504761Y-74082619D01*
X109361904Y-74035000D01*
X109314285Y-73987380D01*
X108457142Y-73749285D02*
X108457142Y-73082619D01*
X108885714Y-73749285D02*
X108885714Y-73225476D01*
X108838095Y-73130238D01*
X108742857Y-73082619D01*
X108600000Y-73082619D01*
X108504761Y-73130238D01*
X108457142Y-73177857D01*
X107980952Y-73082619D02*
X107980952Y-73749285D01*
X107980952Y-73558809D02*
X107933333Y-73654047D01*
X107885714Y-73701666D01*
X107790476Y-73749285D01*
X107695238Y-73749285D01*
X107361904Y-73082619D02*
X107361904Y-73749285D01*
X107361904Y-74082619D02*
X107409523Y-74035000D01*
X107361904Y-73987380D01*
X107314285Y-74035000D01*
X107361904Y-74082619D01*
X107361904Y-73987380D01*
X106742857Y-73082619D02*
X106838095Y-73130238D01*
X106885714Y-73177857D01*
X106933333Y-73273095D01*
X106933333Y-73558809D01*
X106885714Y-73654047D01*
X106838095Y-73701666D01*
X106742857Y-73749285D01*
X106600000Y-73749285D01*
X106504761Y-73701666D01*
X106457142Y-73654047D01*
X106409523Y-73558809D01*
X106409523Y-73273095D01*
X106457142Y-73177857D01*
X106504761Y-73130238D01*
X106600000Y-73082619D01*
X106742857Y-73082619D01*
X106028571Y-73130238D02*
X105933333Y-73082619D01*
X105742857Y-73082619D01*
X105647619Y-73130238D01*
X105600000Y-73225476D01*
X105600000Y-73273095D01*
X105647619Y-73368333D01*
X105742857Y-73415952D01*
X105885714Y-73415952D01*
X105980952Y-73463571D01*
X106028571Y-73558809D01*
X106028571Y-73606428D01*
X105980952Y-73701666D01*
X105885714Y-73749285D01*
X105742857Y-73749285D01*
X105647619Y-73701666D01*
X105171428Y-73082619D02*
X105171428Y-73749285D01*
X105171428Y-74082619D02*
X105219047Y-74035000D01*
X105171428Y-73987380D01*
X105123809Y-74035000D01*
X105171428Y-74082619D01*
X105171428Y-73987380D01*
X104838095Y-73749285D02*
X104457142Y-73749285D01*
X104695238Y-74082619D02*
X104695238Y-73225476D01*
X104647619Y-73130238D01*
X104552380Y-73082619D01*
X104457142Y-73082619D01*
X104219047Y-73749285D02*
X103980952Y-73082619D01*
X103742857Y-73749285D02*
X103980952Y-73082619D01*
X104076190Y-72844523D01*
X104123809Y-72796904D01*
X104219047Y-72749285D01*
X102600000Y-73082619D02*
X102600000Y-74082619D01*
X102028571Y-73082619D01*
X102028571Y-74082619D01*
X101123809Y-73082619D02*
X101123809Y-73606428D01*
X101171428Y-73701666D01*
X101266666Y-73749285D01*
X101457142Y-73749285D01*
X101552380Y-73701666D01*
X101123809Y-73130238D02*
X101219047Y-73082619D01*
X101457142Y-73082619D01*
X101552380Y-73130238D01*
X101600000Y-73225476D01*
X101600000Y-73320714D01*
X101552380Y-73415952D01*
X101457142Y-73463571D01*
X101219047Y-73463571D01*
X101123809Y-73511190D01*
X100647619Y-73749285D02*
X100647619Y-73082619D01*
X100647619Y-73654047D02*
X100600000Y-73701666D01*
X100504761Y-73749285D01*
X100361904Y-73749285D01*
X100266666Y-73701666D01*
X100219047Y-73606428D01*
X100219047Y-73082619D01*
X99600000Y-73082619D02*
X99695238Y-73130238D01*
X99742857Y-73177857D01*
X99790476Y-73273095D01*
X99790476Y-73558809D01*
X99742857Y-73654047D01*
X99695238Y-73701666D01*
X99600000Y-73749285D01*
X99457142Y-73749285D01*
X99361904Y-73701666D01*
X99314285Y-73654047D01*
X99266666Y-73558809D01*
X99266666Y-73273095D01*
X99314285Y-73177857D01*
X99361904Y-73130238D01*
X99457142Y-73082619D01*
X99600000Y-73082619D01*
D12*
X140300000Y-64990000D02*
G75*
G03X140300000Y-64990000I-50000J0D01*
G01*
X140352195Y-64990000D02*
G75*
G03X140352195Y-64990000I-92195J0D01*
G01*
X140462485Y-64990000D02*
G75*
G03X140462485Y-64990000I-202485J0D01*
G01*
X140579061Y-64990000D02*
G75*
G03X140579061Y-64990000I-319061J0D01*
G01*
X140698292Y-64990000D02*
G75*
G03X140698292Y-64990000I-438292J0D01*
G01*
X64180000Y-84550000D02*
X144730000Y-84550000D01*
X144730000Y-64230000D02*
X64190000Y-64230000D01*
X146730000Y-82550000D02*
X146730000Y-66230000D01*
X144730000Y-64230000D02*
G75*
G02X146730000Y-66230000I0J-2000000D01*
G01*
X146730000Y-82550000D02*
G75*
G02X144730000Y-84550000I-2000000J0D01*
G01*
X62190000Y-66230000D02*
X62180000Y-82550000D01*
X64180000Y-84550000D02*
G75*
G02X62180000Y-82550000I0J2000000D01*
G01*
X62190000Y-66230000D02*
G75*
G02X64190000Y-64230000I2000000J0D01*
G01*
X84920000Y-86872900D02*
X81470000Y-86872900D01*
X84920000Y-86872900D02*
X86870000Y-86872900D01*
X84920000Y-91992900D02*
X82970000Y-91992900D01*
X84920000Y-91992900D02*
X86870000Y-91992900D01*
D13*
G36*
X92377334Y-108988756D02*
G01*
X92245260Y-108988650D01*
X92122579Y-108988473D01*
X92009552Y-108988225D01*
X91906445Y-108987910D01*
X91813521Y-108987528D01*
X91731043Y-108987080D01*
X91659275Y-108986569D01*
X91598481Y-108985996D01*
X91548925Y-108985362D01*
X91510869Y-108984669D01*
X91484577Y-108983918D01*
X91470314Y-108983111D01*
X91467977Y-108982756D01*
X91434066Y-108967264D01*
X91404373Y-108942884D01*
X91386407Y-108918966D01*
X91381185Y-108909231D01*
X91377287Y-108899503D01*
X91374479Y-108887776D01*
X91372527Y-108872039D01*
X91371197Y-108850287D01*
X91370254Y-108820509D01*
X91369466Y-108780698D01*
X91369323Y-108772333D01*
X91368928Y-108721936D01*
X91369551Y-108680032D01*
X91371152Y-108647827D01*
X91373690Y-108626527D01*
X91374350Y-108623505D01*
X91389636Y-108584869D01*
X91413969Y-108553642D01*
X91438108Y-108535673D01*
X91464378Y-108520626D01*
X92422459Y-108517034D01*
X92551086Y-108516542D01*
X92667911Y-108516073D01*
X92773535Y-108515617D01*
X92868558Y-108515167D01*
X92953582Y-108514713D01*
X93029206Y-108514248D01*
X93096031Y-108513763D01*
X93154657Y-108513250D01*
X93205686Y-108512701D01*
X93249718Y-108512107D01*
X93287353Y-108511460D01*
X93319192Y-108510751D01*
X93345836Y-108509972D01*
X93367884Y-108509115D01*
X93385939Y-108508172D01*
X93400599Y-108507133D01*
X93412466Y-108505991D01*
X93422141Y-108504738D01*
X93430223Y-108503364D01*
X93432112Y-108502992D01*
X93469498Y-108494587D01*
X93497402Y-108485979D01*
X93518697Y-108475885D01*
X93536257Y-108463025D01*
X93548360Y-108451162D01*
X93569376Y-108426086D01*
X93582374Y-108402941D01*
X93589758Y-108376937D01*
X93591652Y-108364859D01*
X93591747Y-108323467D01*
X93580464Y-108286916D01*
X93557874Y-108255281D01*
X93524051Y-108228639D01*
X93479066Y-108207065D01*
X93427049Y-108191565D01*
X93418933Y-108189863D01*
X93409505Y-108188333D01*
X93398046Y-108186961D01*
X93383837Y-108185733D01*
X93366160Y-108184633D01*
X93344296Y-108183647D01*
X93317527Y-108182761D01*
X93285133Y-108181959D01*
X93246395Y-108181228D01*
X93200596Y-108180552D01*
X93147017Y-108179917D01*
X93084938Y-108179309D01*
X93013641Y-108178712D01*
X92932408Y-108178112D01*
X92840519Y-108177494D01*
X92737256Y-108176845D01*
X92689109Y-108176552D01*
X92581592Y-108175896D01*
X92485745Y-108175292D01*
X92400838Y-108174722D01*
X92326140Y-108174170D01*
X92260917Y-108173619D01*
X92204441Y-108173052D01*
X92155978Y-108172453D01*
X92114798Y-108171804D01*
X92080170Y-108171090D01*
X92051361Y-108170292D01*
X92027641Y-108169395D01*
X92008279Y-108168381D01*
X91992542Y-108167234D01*
X91979700Y-108165937D01*
X91969022Y-108164473D01*
X91959775Y-108162826D01*
X91951229Y-108160978D01*
X91944969Y-108159483D01*
X91874670Y-108139998D01*
X91813835Y-108118033D01*
X91771336Y-108098644D01*
X91696925Y-108054485D01*
X91627642Y-107999988D01*
X91564477Y-107936504D01*
X91508414Y-107865385D01*
X91460442Y-107787982D01*
X91421548Y-107705648D01*
X91392718Y-107619734D01*
X91379832Y-107562545D01*
X91375607Y-107529628D01*
X91372836Y-107487652D01*
X91371489Y-107439871D01*
X91371540Y-107389540D01*
X91372959Y-107339912D01*
X91375717Y-107294243D01*
X91379787Y-107255786D01*
X91382674Y-107238379D01*
X91406580Y-107146074D01*
X91440271Y-107061041D01*
X91484289Y-106982284D01*
X91539173Y-106908809D01*
X91592533Y-106851932D01*
X91659731Y-106792410D01*
X91727740Y-106744033D01*
X91798511Y-106705599D01*
X91873993Y-106675904D01*
X91881893Y-106673364D01*
X91895957Y-106668901D01*
X91908962Y-106664837D01*
X91921519Y-106661153D01*
X91934242Y-106657832D01*
X91947741Y-106654854D01*
X91962628Y-106652201D01*
X91979516Y-106649855D01*
X91999016Y-106647797D01*
X92021741Y-106646008D01*
X92048302Y-106644469D01*
X92079312Y-106643164D01*
X92115381Y-106642072D01*
X92157123Y-106641175D01*
X92205149Y-106640455D01*
X92260070Y-106639893D01*
X92322500Y-106639470D01*
X92393050Y-106639169D01*
X92472331Y-106638971D01*
X92560957Y-106638856D01*
X92659538Y-106638807D01*
X92768687Y-106638805D01*
X92889015Y-106638831D01*
X93020872Y-106638868D01*
X93154247Y-106638919D01*
X93275730Y-106639006D01*
X93385830Y-106639132D01*
X93485057Y-106639302D01*
X93573921Y-106639519D01*
X93652932Y-106639789D01*
X93722599Y-106640115D01*
X93783432Y-106640501D01*
X93835941Y-106640952D01*
X93880636Y-106641472D01*
X93918027Y-106642066D01*
X93948623Y-106642736D01*
X93972934Y-106643489D01*
X93991469Y-106644327D01*
X94004740Y-106645255D01*
X94013255Y-106646278D01*
X94016873Y-106647126D01*
X94054089Y-106666108D01*
X94082091Y-106692961D01*
X94092265Y-106708856D01*
X94096747Y-106717850D01*
X94100140Y-106727044D01*
X94102594Y-106738248D01*
X94104261Y-106753271D01*
X94105291Y-106773922D01*
X94105836Y-106802011D01*
X94106047Y-106839345D01*
X94106077Y-106874215D01*
X94106077Y-107013741D01*
X94088859Y-107043032D01*
X94063910Y-107073636D01*
X94042350Y-107089541D01*
X94013059Y-107106759D01*
X93110789Y-107110241D01*
X92982654Y-107110739D01*
X92866298Y-107111209D01*
X92761100Y-107111674D01*
X92666436Y-107112153D01*
X92581685Y-107112669D01*
X92506222Y-107113242D01*
X92439427Y-107113893D01*
X92380676Y-107114643D01*
X92329346Y-107115515D01*
X92284816Y-107116528D01*
X92246463Y-107117703D01*
X92213663Y-107119063D01*
X92185795Y-107120627D01*
X92162236Y-107122418D01*
X92142363Y-107124456D01*
X92125554Y-107126761D01*
X92111187Y-107129357D01*
X92098638Y-107132262D01*
X92087285Y-107135499D01*
X92076506Y-107139089D01*
X92065677Y-107143053D01*
X92058127Y-107145912D01*
X92029148Y-107160599D01*
X91996815Y-107182888D01*
X91964499Y-107209963D01*
X91935572Y-107239007D01*
X91914007Y-107266297D01*
X91891058Y-107306512D01*
X91877253Y-107346372D01*
X91871505Y-107389972D01*
X91871722Y-107425510D01*
X91878036Y-107475339D01*
X91892600Y-107518279D01*
X91916793Y-107557768D01*
X91932370Y-107576662D01*
X91970777Y-107612522D01*
X92017545Y-107644623D01*
X92068729Y-107670755D01*
X92120386Y-107688710D01*
X92140305Y-107693109D01*
X92151080Y-107694442D01*
X92168370Y-107695681D01*
X92192685Y-107696832D01*
X92224533Y-107697906D01*
X92264422Y-107698910D01*
X92312861Y-107699851D01*
X92370356Y-107700739D01*
X92437417Y-107701582D01*
X92514552Y-107702387D01*
X92602268Y-107703163D01*
X92701075Y-107703919D01*
X92811479Y-107704662D01*
X92881346Y-107705092D01*
X92990191Y-107705755D01*
X93087350Y-107706379D01*
X93173538Y-107706980D01*
X93249470Y-107707571D01*
X93315862Y-107708166D01*
X93373430Y-107708781D01*
X93422888Y-107709430D01*
X93464952Y-107710128D01*
X93500339Y-107710887D01*
X93529763Y-107711725D01*
X93553940Y-107712654D01*
X93573586Y-107713689D01*
X93589415Y-107714844D01*
X93602144Y-107716135D01*
X93612489Y-107717576D01*
X93621163Y-107719180D01*
X93625486Y-107720139D01*
X93703251Y-107741880D01*
X93771487Y-107768957D01*
X93832355Y-107802556D01*
X93888012Y-107843859D01*
X93938672Y-107891994D01*
X93974507Y-107932373D01*
X94004380Y-107972460D01*
X94031104Y-108016425D01*
X94057103Y-108067620D01*
X94077987Y-108115558D01*
X94093203Y-108160553D01*
X94103649Y-108206475D01*
X94110223Y-108257197D01*
X94113614Y-108311163D01*
X94112803Y-108407125D01*
X94102191Y-108495782D01*
X94081638Y-108577606D01*
X94051001Y-108653071D01*
X94010141Y-108722650D01*
X93978560Y-108764310D01*
X93936876Y-108808486D01*
X93887257Y-108851258D01*
X93832813Y-108890468D01*
X93776658Y-108923958D01*
X93721901Y-108949571D01*
X93699900Y-108957515D01*
X93687877Y-108961428D01*
X93676588Y-108965000D01*
X93665445Y-108968247D01*
X93653860Y-108971184D01*
X93641246Y-108973826D01*
X93627015Y-108976190D01*
X93610580Y-108978290D01*
X93591354Y-108980143D01*
X93568748Y-108981763D01*
X93542175Y-108983167D01*
X93511048Y-108984370D01*
X93474778Y-108985388D01*
X93432780Y-108986236D01*
X93384464Y-108986929D01*
X93329243Y-108987483D01*
X93266530Y-108987915D01*
X93195737Y-108988238D01*
X93116277Y-108988469D01*
X93027561Y-108988624D01*
X92929004Y-108988718D01*
X92820016Y-108988766D01*
X92700010Y-108988785D01*
X92568400Y-108988789D01*
X92518536Y-108988790D01*
X92377334Y-108988756D01*
G37*
X92377334Y-108988756D02*
X92245260Y-108988650D01*
X92122579Y-108988473D01*
X92009552Y-108988225D01*
X91906445Y-108987910D01*
X91813521Y-108987528D01*
X91731043Y-108987080D01*
X91659275Y-108986569D01*
X91598481Y-108985996D01*
X91548925Y-108985362D01*
X91510869Y-108984669D01*
X91484577Y-108983918D01*
X91470314Y-108983111D01*
X91467977Y-108982756D01*
X91434066Y-108967264D01*
X91404373Y-108942884D01*
X91386407Y-108918966D01*
X91381185Y-108909231D01*
X91377287Y-108899503D01*
X91374479Y-108887776D01*
X91372527Y-108872039D01*
X91371197Y-108850287D01*
X91370254Y-108820509D01*
X91369466Y-108780698D01*
X91369323Y-108772333D01*
X91368928Y-108721936D01*
X91369551Y-108680032D01*
X91371152Y-108647827D01*
X91373690Y-108626527D01*
X91374350Y-108623505D01*
X91389636Y-108584869D01*
X91413969Y-108553642D01*
X91438108Y-108535673D01*
X91464378Y-108520626D01*
X92422459Y-108517034D01*
X92551086Y-108516542D01*
X92667911Y-108516073D01*
X92773535Y-108515617D01*
X92868558Y-108515167D01*
X92953582Y-108514713D01*
X93029206Y-108514248D01*
X93096031Y-108513763D01*
X93154657Y-108513250D01*
X93205686Y-108512701D01*
X93249718Y-108512107D01*
X93287353Y-108511460D01*
X93319192Y-108510751D01*
X93345836Y-108509972D01*
X93367884Y-108509115D01*
X93385939Y-108508172D01*
X93400599Y-108507133D01*
X93412466Y-108505991D01*
X93422141Y-108504738D01*
X93430223Y-108503364D01*
X93432112Y-108502992D01*
X93469498Y-108494587D01*
X93497402Y-108485979D01*
X93518697Y-108475885D01*
X93536257Y-108463025D01*
X93548360Y-108451162D01*
X93569376Y-108426086D01*
X93582374Y-108402941D01*
X93589758Y-108376937D01*
X93591652Y-108364859D01*
X93591747Y-108323467D01*
X93580464Y-108286916D01*
X93557874Y-108255281D01*
X93524051Y-108228639D01*
X93479066Y-108207065D01*
X93427049Y-108191565D01*
X93418933Y-108189863D01*
X93409505Y-108188333D01*
X93398046Y-108186961D01*
X93383837Y-108185733D01*
X93366160Y-108184633D01*
X93344296Y-108183647D01*
X93317527Y-108182761D01*
X93285133Y-108181959D01*
X93246395Y-108181228D01*
X93200596Y-108180552D01*
X93147017Y-108179917D01*
X93084938Y-108179309D01*
X93013641Y-108178712D01*
X92932408Y-108178112D01*
X92840519Y-108177494D01*
X92737256Y-108176845D01*
X92689109Y-108176552D01*
X92581592Y-108175896D01*
X92485745Y-108175292D01*
X92400838Y-108174722D01*
X92326140Y-108174170D01*
X92260917Y-108173619D01*
X92204441Y-108173052D01*
X92155978Y-108172453D01*
X92114798Y-108171804D01*
X92080170Y-108171090D01*
X92051361Y-108170292D01*
X92027641Y-108169395D01*
X92008279Y-108168381D01*
X91992542Y-108167234D01*
X91979700Y-108165937D01*
X91969022Y-108164473D01*
X91959775Y-108162826D01*
X91951229Y-108160978D01*
X91944969Y-108159483D01*
X91874670Y-108139998D01*
X91813835Y-108118033D01*
X91771336Y-108098644D01*
X91696925Y-108054485D01*
X91627642Y-107999988D01*
X91564477Y-107936504D01*
X91508414Y-107865385D01*
X91460442Y-107787982D01*
X91421548Y-107705648D01*
X91392718Y-107619734D01*
X91379832Y-107562545D01*
X91375607Y-107529628D01*
X91372836Y-107487652D01*
X91371489Y-107439871D01*
X91371540Y-107389540D01*
X91372959Y-107339912D01*
X91375717Y-107294243D01*
X91379787Y-107255786D01*
X91382674Y-107238379D01*
X91406580Y-107146074D01*
X91440271Y-107061041D01*
X91484289Y-106982284D01*
X91539173Y-106908809D01*
X91592533Y-106851932D01*
X91659731Y-106792410D01*
X91727740Y-106744033D01*
X91798511Y-106705599D01*
X91873993Y-106675904D01*
X91881893Y-106673364D01*
X91895957Y-106668901D01*
X91908962Y-106664837D01*
X91921519Y-106661153D01*
X91934242Y-106657832D01*
X91947741Y-106654854D01*
X91962628Y-106652201D01*
X91979516Y-106649855D01*
X91999016Y-106647797D01*
X92021741Y-106646008D01*
X92048302Y-106644469D01*
X92079312Y-106643164D01*
X92115381Y-106642072D01*
X92157123Y-106641175D01*
X92205149Y-106640455D01*
X92260070Y-106639893D01*
X92322500Y-106639470D01*
X92393050Y-106639169D01*
X92472331Y-106638971D01*
X92560957Y-106638856D01*
X92659538Y-106638807D01*
X92768687Y-106638805D01*
X92889015Y-106638831D01*
X93020872Y-106638868D01*
X93154247Y-106638919D01*
X93275730Y-106639006D01*
X93385830Y-106639132D01*
X93485057Y-106639302D01*
X93573921Y-106639519D01*
X93652932Y-106639789D01*
X93722599Y-106640115D01*
X93783432Y-106640501D01*
X93835941Y-106640952D01*
X93880636Y-106641472D01*
X93918027Y-106642066D01*
X93948623Y-106642736D01*
X93972934Y-106643489D01*
X93991469Y-106644327D01*
X94004740Y-106645255D01*
X94013255Y-106646278D01*
X94016873Y-106647126D01*
X94054089Y-106666108D01*
X94082091Y-106692961D01*
X94092265Y-106708856D01*
X94096747Y-106717850D01*
X94100140Y-106727044D01*
X94102594Y-106738248D01*
X94104261Y-106753271D01*
X94105291Y-106773922D01*
X94105836Y-106802011D01*
X94106047Y-106839345D01*
X94106077Y-106874215D01*
X94106077Y-107013741D01*
X94088859Y-107043032D01*
X94063910Y-107073636D01*
X94042350Y-107089541D01*
X94013059Y-107106759D01*
X93110789Y-107110241D01*
X92982654Y-107110739D01*
X92866298Y-107111209D01*
X92761100Y-107111674D01*
X92666436Y-107112153D01*
X92581685Y-107112669D01*
X92506222Y-107113242D01*
X92439427Y-107113893D01*
X92380676Y-107114643D01*
X92329346Y-107115515D01*
X92284816Y-107116528D01*
X92246463Y-107117703D01*
X92213663Y-107119063D01*
X92185795Y-107120627D01*
X92162236Y-107122418D01*
X92142363Y-107124456D01*
X92125554Y-107126761D01*
X92111187Y-107129357D01*
X92098638Y-107132262D01*
X92087285Y-107135499D01*
X92076506Y-107139089D01*
X92065677Y-107143053D01*
X92058127Y-107145912D01*
X92029148Y-107160599D01*
X91996815Y-107182888D01*
X91964499Y-107209963D01*
X91935572Y-107239007D01*
X91914007Y-107266297D01*
X91891058Y-107306512D01*
X91877253Y-107346372D01*
X91871505Y-107389972D01*
X91871722Y-107425510D01*
X91878036Y-107475339D01*
X91892600Y-107518279D01*
X91916793Y-107557768D01*
X91932370Y-107576662D01*
X91970777Y-107612522D01*
X92017545Y-107644623D01*
X92068729Y-107670755D01*
X92120386Y-107688710D01*
X92140305Y-107693109D01*
X92151080Y-107694442D01*
X92168370Y-107695681D01*
X92192685Y-107696832D01*
X92224533Y-107697906D01*
X92264422Y-107698910D01*
X92312861Y-107699851D01*
X92370356Y-107700739D01*
X92437417Y-107701582D01*
X92514552Y-107702387D01*
X92602268Y-107703163D01*
X92701075Y-107703919D01*
X92811479Y-107704662D01*
X92881346Y-107705092D01*
X92990191Y-107705755D01*
X93087350Y-107706379D01*
X93173538Y-107706980D01*
X93249470Y-107707571D01*
X93315862Y-107708166D01*
X93373430Y-107708781D01*
X93422888Y-107709430D01*
X93464952Y-107710128D01*
X93500339Y-107710887D01*
X93529763Y-107711725D01*
X93553940Y-107712654D01*
X93573586Y-107713689D01*
X93589415Y-107714844D01*
X93602144Y-107716135D01*
X93612489Y-107717576D01*
X93621163Y-107719180D01*
X93625486Y-107720139D01*
X93703251Y-107741880D01*
X93771487Y-107768957D01*
X93832355Y-107802556D01*
X93888012Y-107843859D01*
X93938672Y-107891994D01*
X93974507Y-107932373D01*
X94004380Y-107972460D01*
X94031104Y-108016425D01*
X94057103Y-108067620D01*
X94077987Y-108115558D01*
X94093203Y-108160553D01*
X94103649Y-108206475D01*
X94110223Y-108257197D01*
X94113614Y-108311163D01*
X94112803Y-108407125D01*
X94102191Y-108495782D01*
X94081638Y-108577606D01*
X94051001Y-108653071D01*
X94010141Y-108722650D01*
X93978560Y-108764310D01*
X93936876Y-108808486D01*
X93887257Y-108851258D01*
X93832813Y-108890468D01*
X93776658Y-108923958D01*
X93721901Y-108949571D01*
X93699900Y-108957515D01*
X93687877Y-108961428D01*
X93676588Y-108965000D01*
X93665445Y-108968247D01*
X93653860Y-108971184D01*
X93641246Y-108973826D01*
X93627015Y-108976190D01*
X93610580Y-108978290D01*
X93591354Y-108980143D01*
X93568748Y-108981763D01*
X93542175Y-108983167D01*
X93511048Y-108984370D01*
X93474778Y-108985388D01*
X93432780Y-108986236D01*
X93384464Y-108986929D01*
X93329243Y-108987483D01*
X93266530Y-108987915D01*
X93195737Y-108988238D01*
X93116277Y-108988469D01*
X93027561Y-108988624D01*
X92929004Y-108988718D01*
X92820016Y-108988766D01*
X92700010Y-108988785D01*
X92568400Y-108988789D01*
X92518536Y-108988790D01*
X92377334Y-108988756D01*
G36*
X94427580Y-108987801D02*
G01*
X94403803Y-108987000D01*
X94390609Y-108985930D01*
X94359061Y-108975863D01*
X94328575Y-108956868D01*
X94303505Y-108931975D01*
X94294958Y-108919325D01*
X94279710Y-108892696D01*
X94277876Y-107829195D01*
X94277648Y-107682804D01*
X94277493Y-107548468D01*
X94277411Y-107425844D01*
X94277405Y-107314585D01*
X94277476Y-107214346D01*
X94277625Y-107124782D01*
X94277855Y-107045546D01*
X94278167Y-106976293D01*
X94278563Y-106916678D01*
X94279043Y-106866355D01*
X94279611Y-106824978D01*
X94280267Y-106792202D01*
X94281014Y-106767682D01*
X94281852Y-106751071D01*
X94282784Y-106742024D01*
X94283035Y-106740890D01*
X94299664Y-106702662D01*
X94325442Y-106672468D01*
X94352942Y-106654279D01*
X94364121Y-106648934D01*
X94374523Y-106644968D01*
X94386171Y-106642180D01*
X94401090Y-106640371D01*
X94421305Y-106639338D01*
X94448839Y-106638882D01*
X94485717Y-106638803D01*
X94508820Y-106638843D01*
X94561441Y-106639358D01*
X94602297Y-106640671D01*
X94632002Y-106642816D01*
X94651169Y-106645828D01*
X94655593Y-106647126D01*
X94690465Y-106664503D01*
X94716557Y-106689411D01*
X94732082Y-106714889D01*
X94748037Y-106747501D01*
X94746417Y-107820098D01*
X94744798Y-108892696D01*
X94727580Y-108921987D01*
X94702631Y-108952591D01*
X94681071Y-108968496D01*
X94670498Y-108974494D01*
X94660752Y-108978943D01*
X94649767Y-108982116D01*
X94635478Y-108984281D01*
X94615820Y-108985711D01*
X94588727Y-108986676D01*
X94552134Y-108987447D01*
X94534154Y-108987765D01*
X94495262Y-108988216D01*
X94458902Y-108988217D01*
X94427580Y-108987801D01*
G37*
X94427580Y-108987801D02*
X94403803Y-108987000D01*
X94390609Y-108985930D01*
X94359061Y-108975863D01*
X94328575Y-108956868D01*
X94303505Y-108931975D01*
X94294958Y-108919325D01*
X94279710Y-108892696D01*
X94277876Y-107829195D01*
X94277648Y-107682804D01*
X94277493Y-107548468D01*
X94277411Y-107425844D01*
X94277405Y-107314585D01*
X94277476Y-107214346D01*
X94277625Y-107124782D01*
X94277855Y-107045546D01*
X94278167Y-106976293D01*
X94278563Y-106916678D01*
X94279043Y-106866355D01*
X94279611Y-106824978D01*
X94280267Y-106792202D01*
X94281014Y-106767682D01*
X94281852Y-106751071D01*
X94282784Y-106742024D01*
X94283035Y-106740890D01*
X94299664Y-106702662D01*
X94325442Y-106672468D01*
X94352942Y-106654279D01*
X94364121Y-106648934D01*
X94374523Y-106644968D01*
X94386171Y-106642180D01*
X94401090Y-106640371D01*
X94421305Y-106639338D01*
X94448839Y-106638882D01*
X94485717Y-106638803D01*
X94508820Y-106638843D01*
X94561441Y-106639358D01*
X94602297Y-106640671D01*
X94632002Y-106642816D01*
X94651169Y-106645828D01*
X94655593Y-106647126D01*
X94690465Y-106664503D01*
X94716557Y-106689411D01*
X94732082Y-106714889D01*
X94748037Y-106747501D01*
X94746417Y-107820098D01*
X94744798Y-108892696D01*
X94727580Y-108921987D01*
X94702631Y-108952591D01*
X94681071Y-108968496D01*
X94670498Y-108974494D01*
X94660752Y-108978943D01*
X94649767Y-108982116D01*
X94635478Y-108984281D01*
X94615820Y-108985711D01*
X94588727Y-108986676D01*
X94552134Y-108987447D01*
X94534154Y-108987765D01*
X94495262Y-108988216D01*
X94458902Y-108988217D01*
X94427580Y-108987801D01*
G36*
X95918203Y-108988756D02*
G01*
X95786129Y-108988650D01*
X95663448Y-108988473D01*
X95550421Y-108988225D01*
X95447314Y-108987910D01*
X95354390Y-108987528D01*
X95271912Y-108987080D01*
X95200145Y-108986569D01*
X95139350Y-108985996D01*
X95089794Y-108985362D01*
X95051738Y-108984669D01*
X95025446Y-108983918D01*
X95011183Y-108983111D01*
X95008846Y-108982756D01*
X94974935Y-108967264D01*
X94945242Y-108942884D01*
X94927276Y-108918966D01*
X94922054Y-108909231D01*
X94918156Y-108899503D01*
X94915348Y-108887776D01*
X94913396Y-108872039D01*
X94912066Y-108850287D01*
X94911124Y-108820509D01*
X94910336Y-108780698D01*
X94910192Y-108772333D01*
X94909797Y-108721936D01*
X94910420Y-108680032D01*
X94912021Y-108647827D01*
X94914559Y-108626527D01*
X94915219Y-108623505D01*
X94930505Y-108584869D01*
X94954838Y-108553642D01*
X94978977Y-108535673D01*
X95005247Y-108520626D01*
X95963328Y-108517034D01*
X96091955Y-108516542D01*
X96208780Y-108516073D01*
X96314404Y-108515617D01*
X96409428Y-108515167D01*
X96494451Y-108514713D01*
X96570075Y-108514248D01*
X96636900Y-108513763D01*
X96695527Y-108513250D01*
X96746555Y-108512701D01*
X96790587Y-108512107D01*
X96828222Y-108511460D01*
X96860061Y-108510751D01*
X96886705Y-108509972D01*
X96908753Y-108509115D01*
X96926808Y-108508172D01*
X96941468Y-108507133D01*
X96953335Y-108505991D01*
X96963010Y-108504738D01*
X96971093Y-108503364D01*
X96972981Y-108502992D01*
X97010367Y-108494587D01*
X97038271Y-108485979D01*
X97059566Y-108475885D01*
X97077126Y-108463025D01*
X97089229Y-108451162D01*
X97110245Y-108426086D01*
X97123243Y-108402941D01*
X97130627Y-108376937D01*
X97132521Y-108364859D01*
X97132616Y-108323467D01*
X97121333Y-108286916D01*
X97098744Y-108255281D01*
X97064920Y-108228639D01*
X97019935Y-108207065D01*
X96967918Y-108191565D01*
X96959802Y-108189863D01*
X96950374Y-108188333D01*
X96938915Y-108186961D01*
X96924706Y-108185733D01*
X96907029Y-108184633D01*
X96885165Y-108183647D01*
X96858396Y-108182761D01*
X96826002Y-108181959D01*
X96787265Y-108181228D01*
X96741465Y-108180552D01*
X96687886Y-108179917D01*
X96625807Y-108179309D01*
X96554510Y-108178712D01*
X96473277Y-108178112D01*
X96381388Y-108177494D01*
X96278125Y-108176845D01*
X96229978Y-108176552D01*
X96122461Y-108175896D01*
X96026615Y-108175292D01*
X95941708Y-108174722D01*
X95867009Y-108174170D01*
X95801787Y-108173619D01*
X95745310Y-108173052D01*
X95696847Y-108172453D01*
X95655667Y-108171804D01*
X95621039Y-108171090D01*
X95592230Y-108170292D01*
X95568510Y-108169395D01*
X95549148Y-108168381D01*
X95533411Y-108167234D01*
X95520569Y-108165937D01*
X95509891Y-108164473D01*
X95500644Y-108162826D01*
X95492098Y-108160978D01*
X95485838Y-108159483D01*
X95415539Y-108139998D01*
X95354705Y-108118033D01*
X95312205Y-108098644D01*
X95237794Y-108054485D01*
X95168512Y-107999988D01*
X95105346Y-107936504D01*
X95049283Y-107865385D01*
X95001311Y-107787982D01*
X94962417Y-107705648D01*
X94933587Y-107619734D01*
X94920701Y-107562545D01*
X94916476Y-107529628D01*
X94913705Y-107487652D01*
X94912359Y-107439871D01*
X94912409Y-107389540D01*
X94913828Y-107339912D01*
X94916586Y-107294243D01*
X94920656Y-107255786D01*
X94923543Y-107238379D01*
X94947449Y-107146074D01*
X94981140Y-107061041D01*
X95025158Y-106982284D01*
X95080042Y-106908809D01*
X95133402Y-106851932D01*
X95200600Y-106792410D01*
X95268609Y-106744033D01*
X95339380Y-106705599D01*
X95414862Y-106675904D01*
X95422762Y-106673364D01*
X95436826Y-106668901D01*
X95449831Y-106664837D01*
X95462388Y-106661153D01*
X95475111Y-106657832D01*
X95488610Y-106654854D01*
X95503497Y-106652201D01*
X95520385Y-106649855D01*
X95539886Y-106647797D01*
X95562610Y-106646008D01*
X95589171Y-106644469D01*
X95620181Y-106643164D01*
X95656250Y-106642072D01*
X95697992Y-106641175D01*
X95746018Y-106640455D01*
X95800940Y-106639893D01*
X95863369Y-106639470D01*
X95933919Y-106639169D01*
X96013201Y-106638971D01*
X96101826Y-106638856D01*
X96200407Y-106638807D01*
X96309556Y-106638805D01*
X96429884Y-106638831D01*
X96561741Y-106638868D01*
X96695116Y-106638919D01*
X96816599Y-106639006D01*
X96926699Y-106639132D01*
X97025927Y-106639302D01*
X97114791Y-106639519D01*
X97193801Y-106639789D01*
X97263468Y-106640115D01*
X97324301Y-106640501D01*
X97376811Y-106640952D01*
X97421506Y-106641472D01*
X97458896Y-106642066D01*
X97489492Y-106642736D01*
X97513803Y-106643489D01*
X97532339Y-106644327D01*
X97545609Y-106645255D01*
X97554124Y-106646278D01*
X97557742Y-106647126D01*
X97594958Y-106666108D01*
X97622960Y-106692961D01*
X97633134Y-106708856D01*
X97637616Y-106717850D01*
X97641009Y-106727044D01*
X97643463Y-106738248D01*
X97645130Y-106753271D01*
X97646160Y-106773922D01*
X97646705Y-106802011D01*
X97646916Y-106839345D01*
X97646946Y-106874215D01*
X97646946Y-107013741D01*
X97629728Y-107043032D01*
X97604779Y-107073636D01*
X97583219Y-107089541D01*
X97553929Y-107106759D01*
X96651658Y-107110241D01*
X96523523Y-107110739D01*
X96407167Y-107111209D01*
X96301969Y-107111674D01*
X96207305Y-107112153D01*
X96122554Y-107112669D01*
X96047091Y-107113242D01*
X95980296Y-107113893D01*
X95921545Y-107114643D01*
X95870216Y-107115515D01*
X95825685Y-107116528D01*
X95787332Y-107117703D01*
X95754532Y-107119063D01*
X95726664Y-107120627D01*
X95703105Y-107122418D01*
X95683232Y-107124456D01*
X95666424Y-107126761D01*
X95652056Y-107129357D01*
X95639507Y-107132262D01*
X95628154Y-107135499D01*
X95617375Y-107139089D01*
X95606547Y-107143053D01*
X95598996Y-107145912D01*
X95570017Y-107160599D01*
X95537684Y-107182888D01*
X95505368Y-107209963D01*
X95476441Y-107239007D01*
X95454876Y-107266297D01*
X95431927Y-107306512D01*
X95418122Y-107346372D01*
X95412374Y-107389972D01*
X95412591Y-107425510D01*
X95418905Y-107475339D01*
X95433469Y-107518279D01*
X95457662Y-107557768D01*
X95473239Y-107576662D01*
X95511646Y-107612522D01*
X95558414Y-107644623D01*
X95609598Y-107670755D01*
X95661255Y-107688710D01*
X95681175Y-107693109D01*
X95691949Y-107694442D01*
X95709239Y-107695681D01*
X95733554Y-107696832D01*
X95765402Y-107697906D01*
X95805292Y-107698910D01*
X95853730Y-107699851D01*
X95911225Y-107700739D01*
X95978286Y-107701582D01*
X96055421Y-107702387D01*
X96143137Y-107703163D01*
X96241944Y-107703919D01*
X96352348Y-107704662D01*
X96422215Y-107705092D01*
X96531060Y-107705755D01*
X96628219Y-107706379D01*
X96714407Y-107706980D01*
X96790339Y-107707571D01*
X96856731Y-107708166D01*
X96914299Y-107708781D01*
X96963757Y-107709430D01*
X97005822Y-107710128D01*
X97041208Y-107710887D01*
X97070632Y-107711725D01*
X97094809Y-107712654D01*
X97114455Y-107713689D01*
X97130284Y-107714844D01*
X97143014Y-107716135D01*
X97153358Y-107717576D01*
X97162033Y-107719180D01*
X97166355Y-107720139D01*
X97244120Y-107741880D01*
X97312356Y-107768957D01*
X97373224Y-107802556D01*
X97428881Y-107843859D01*
X97479542Y-107891994D01*
X97515376Y-107932373D01*
X97545249Y-107972460D01*
X97571973Y-108016425D01*
X97597973Y-108067620D01*
X97618856Y-108115558D01*
X97634072Y-108160553D01*
X97644518Y-108206475D01*
X97651093Y-108257197D01*
X97654484Y-108311163D01*
X97653672Y-108407125D01*
X97643060Y-108495782D01*
X97622507Y-108577606D01*
X97591870Y-108653071D01*
X97551010Y-108722650D01*
X97519429Y-108764310D01*
X97477745Y-108808486D01*
X97428126Y-108851258D01*
X97373683Y-108890468D01*
X97317527Y-108923958D01*
X97262770Y-108949571D01*
X97240769Y-108957515D01*
X97228746Y-108961428D01*
X97217457Y-108965000D01*
X97206314Y-108968247D01*
X97194729Y-108971184D01*
X97182115Y-108973826D01*
X97167884Y-108976190D01*
X97151450Y-108978290D01*
X97132223Y-108980143D01*
X97109617Y-108981763D01*
X97083044Y-108983167D01*
X97051917Y-108984370D01*
X97015648Y-108985388D01*
X96973649Y-108986236D01*
X96925333Y-108986929D01*
X96870112Y-108987483D01*
X96807399Y-108987915D01*
X96736606Y-108988238D01*
X96657146Y-108988469D01*
X96568430Y-108988624D01*
X96469873Y-108988718D01*
X96360885Y-108988766D01*
X96240879Y-108988785D01*
X96109269Y-108988789D01*
X96059405Y-108988790D01*
X95918203Y-108988756D01*
G37*
X95918203Y-108988756D02*
X95786129Y-108988650D01*
X95663448Y-108988473D01*
X95550421Y-108988225D01*
X95447314Y-108987910D01*
X95354390Y-108987528D01*
X95271912Y-108987080D01*
X95200145Y-108986569D01*
X95139350Y-108985996D01*
X95089794Y-108985362D01*
X95051738Y-108984669D01*
X95025446Y-108983918D01*
X95011183Y-108983111D01*
X95008846Y-108982756D01*
X94974935Y-108967264D01*
X94945242Y-108942884D01*
X94927276Y-108918966D01*
X94922054Y-108909231D01*
X94918156Y-108899503D01*
X94915348Y-108887776D01*
X94913396Y-108872039D01*
X94912066Y-108850287D01*
X94911124Y-108820509D01*
X94910336Y-108780698D01*
X94910192Y-108772333D01*
X94909797Y-108721936D01*
X94910420Y-108680032D01*
X94912021Y-108647827D01*
X94914559Y-108626527D01*
X94915219Y-108623505D01*
X94930505Y-108584869D01*
X94954838Y-108553642D01*
X94978977Y-108535673D01*
X95005247Y-108520626D01*
X95963328Y-108517034D01*
X96091955Y-108516542D01*
X96208780Y-108516073D01*
X96314404Y-108515617D01*
X96409428Y-108515167D01*
X96494451Y-108514713D01*
X96570075Y-108514248D01*
X96636900Y-108513763D01*
X96695527Y-108513250D01*
X96746555Y-108512701D01*
X96790587Y-108512107D01*
X96828222Y-108511460D01*
X96860061Y-108510751D01*
X96886705Y-108509972D01*
X96908753Y-108509115D01*
X96926808Y-108508172D01*
X96941468Y-108507133D01*
X96953335Y-108505991D01*
X96963010Y-108504738D01*
X96971093Y-108503364D01*
X96972981Y-108502992D01*
X97010367Y-108494587D01*
X97038271Y-108485979D01*
X97059566Y-108475885D01*
X97077126Y-108463025D01*
X97089229Y-108451162D01*
X97110245Y-108426086D01*
X97123243Y-108402941D01*
X97130627Y-108376937D01*
X97132521Y-108364859D01*
X97132616Y-108323467D01*
X97121333Y-108286916D01*
X97098744Y-108255281D01*
X97064920Y-108228639D01*
X97019935Y-108207065D01*
X96967918Y-108191565D01*
X96959802Y-108189863D01*
X96950374Y-108188333D01*
X96938915Y-108186961D01*
X96924706Y-108185733D01*
X96907029Y-108184633D01*
X96885165Y-108183647D01*
X96858396Y-108182761D01*
X96826002Y-108181959D01*
X96787265Y-108181228D01*
X96741465Y-108180552D01*
X96687886Y-108179917D01*
X96625807Y-108179309D01*
X96554510Y-108178712D01*
X96473277Y-108178112D01*
X96381388Y-108177494D01*
X96278125Y-108176845D01*
X96229978Y-108176552D01*
X96122461Y-108175896D01*
X96026615Y-108175292D01*
X95941708Y-108174722D01*
X95867009Y-108174170D01*
X95801787Y-108173619D01*
X95745310Y-108173052D01*
X95696847Y-108172453D01*
X95655667Y-108171804D01*
X95621039Y-108171090D01*
X95592230Y-108170292D01*
X95568510Y-108169395D01*
X95549148Y-108168381D01*
X95533411Y-108167234D01*
X95520569Y-108165937D01*
X95509891Y-108164473D01*
X95500644Y-108162826D01*
X95492098Y-108160978D01*
X95485838Y-108159483D01*
X95415539Y-108139998D01*
X95354705Y-108118033D01*
X95312205Y-108098644D01*
X95237794Y-108054485D01*
X95168512Y-107999988D01*
X95105346Y-107936504D01*
X95049283Y-107865385D01*
X95001311Y-107787982D01*
X94962417Y-107705648D01*
X94933587Y-107619734D01*
X94920701Y-107562545D01*
X94916476Y-107529628D01*
X94913705Y-107487652D01*
X94912359Y-107439871D01*
X94912409Y-107389540D01*
X94913828Y-107339912D01*
X94916586Y-107294243D01*
X94920656Y-107255786D01*
X94923543Y-107238379D01*
X94947449Y-107146074D01*
X94981140Y-107061041D01*
X95025158Y-106982284D01*
X95080042Y-106908809D01*
X95133402Y-106851932D01*
X95200600Y-106792410D01*
X95268609Y-106744033D01*
X95339380Y-106705599D01*
X95414862Y-106675904D01*
X95422762Y-106673364D01*
X95436826Y-106668901D01*
X95449831Y-106664837D01*
X95462388Y-106661153D01*
X95475111Y-106657832D01*
X95488610Y-106654854D01*
X95503497Y-106652201D01*
X95520385Y-106649855D01*
X95539886Y-106647797D01*
X95562610Y-106646008D01*
X95589171Y-106644469D01*
X95620181Y-106643164D01*
X95656250Y-106642072D01*
X95697992Y-106641175D01*
X95746018Y-106640455D01*
X95800940Y-106639893D01*
X95863369Y-106639470D01*
X95933919Y-106639169D01*
X96013201Y-106638971D01*
X96101826Y-106638856D01*
X96200407Y-106638807D01*
X96309556Y-106638805D01*
X96429884Y-106638831D01*
X96561741Y-106638868D01*
X96695116Y-106638919D01*
X96816599Y-106639006D01*
X96926699Y-106639132D01*
X97025927Y-106639302D01*
X97114791Y-106639519D01*
X97193801Y-106639789D01*
X97263468Y-106640115D01*
X97324301Y-106640501D01*
X97376811Y-106640952D01*
X97421506Y-106641472D01*
X97458896Y-106642066D01*
X97489492Y-106642736D01*
X97513803Y-106643489D01*
X97532339Y-106644327D01*
X97545609Y-106645255D01*
X97554124Y-106646278D01*
X97557742Y-106647126D01*
X97594958Y-106666108D01*
X97622960Y-106692961D01*
X97633134Y-106708856D01*
X97637616Y-106717850D01*
X97641009Y-106727044D01*
X97643463Y-106738248D01*
X97645130Y-106753271D01*
X97646160Y-106773922D01*
X97646705Y-106802011D01*
X97646916Y-106839345D01*
X97646946Y-106874215D01*
X97646946Y-107013741D01*
X97629728Y-107043032D01*
X97604779Y-107073636D01*
X97583219Y-107089541D01*
X97553929Y-107106759D01*
X96651658Y-107110241D01*
X96523523Y-107110739D01*
X96407167Y-107111209D01*
X96301969Y-107111674D01*
X96207305Y-107112153D01*
X96122554Y-107112669D01*
X96047091Y-107113242D01*
X95980296Y-107113893D01*
X95921545Y-107114643D01*
X95870216Y-107115515D01*
X95825685Y-107116528D01*
X95787332Y-107117703D01*
X95754532Y-107119063D01*
X95726664Y-107120627D01*
X95703105Y-107122418D01*
X95683232Y-107124456D01*
X95666424Y-107126761D01*
X95652056Y-107129357D01*
X95639507Y-107132262D01*
X95628154Y-107135499D01*
X95617375Y-107139089D01*
X95606547Y-107143053D01*
X95598996Y-107145912D01*
X95570017Y-107160599D01*
X95537684Y-107182888D01*
X95505368Y-107209963D01*
X95476441Y-107239007D01*
X95454876Y-107266297D01*
X95431927Y-107306512D01*
X95418122Y-107346372D01*
X95412374Y-107389972D01*
X95412591Y-107425510D01*
X95418905Y-107475339D01*
X95433469Y-107518279D01*
X95457662Y-107557768D01*
X95473239Y-107576662D01*
X95511646Y-107612522D01*
X95558414Y-107644623D01*
X95609598Y-107670755D01*
X95661255Y-107688710D01*
X95681175Y-107693109D01*
X95691949Y-107694442D01*
X95709239Y-107695681D01*
X95733554Y-107696832D01*
X95765402Y-107697906D01*
X95805292Y-107698910D01*
X95853730Y-107699851D01*
X95911225Y-107700739D01*
X95978286Y-107701582D01*
X96055421Y-107702387D01*
X96143137Y-107703163D01*
X96241944Y-107703919D01*
X96352348Y-107704662D01*
X96422215Y-107705092D01*
X96531060Y-107705755D01*
X96628219Y-107706379D01*
X96714407Y-107706980D01*
X96790339Y-107707571D01*
X96856731Y-107708166D01*
X96914299Y-107708781D01*
X96963757Y-107709430D01*
X97005822Y-107710128D01*
X97041208Y-107710887D01*
X97070632Y-107711725D01*
X97094809Y-107712654D01*
X97114455Y-107713689D01*
X97130284Y-107714844D01*
X97143014Y-107716135D01*
X97153358Y-107717576D01*
X97162033Y-107719180D01*
X97166355Y-107720139D01*
X97244120Y-107741880D01*
X97312356Y-107768957D01*
X97373224Y-107802556D01*
X97428881Y-107843859D01*
X97479542Y-107891994D01*
X97515376Y-107932373D01*
X97545249Y-107972460D01*
X97571973Y-108016425D01*
X97597973Y-108067620D01*
X97618856Y-108115558D01*
X97634072Y-108160553D01*
X97644518Y-108206475D01*
X97651093Y-108257197D01*
X97654484Y-108311163D01*
X97653672Y-108407125D01*
X97643060Y-108495782D01*
X97622507Y-108577606D01*
X97591870Y-108653071D01*
X97551010Y-108722650D01*
X97519429Y-108764310D01*
X97477745Y-108808486D01*
X97428126Y-108851258D01*
X97373683Y-108890468D01*
X97317527Y-108923958D01*
X97262770Y-108949571D01*
X97240769Y-108957515D01*
X97228746Y-108961428D01*
X97217457Y-108965000D01*
X97206314Y-108968247D01*
X97194729Y-108971184D01*
X97182115Y-108973826D01*
X97167884Y-108976190D01*
X97151450Y-108978290D01*
X97132223Y-108980143D01*
X97109617Y-108981763D01*
X97083044Y-108983167D01*
X97051917Y-108984370D01*
X97015648Y-108985388D01*
X96973649Y-108986236D01*
X96925333Y-108986929D01*
X96870112Y-108987483D01*
X96807399Y-108987915D01*
X96736606Y-108988238D01*
X96657146Y-108988469D01*
X96568430Y-108988624D01*
X96469873Y-108988718D01*
X96360885Y-108988766D01*
X96240879Y-108988785D01*
X96109269Y-108988789D01*
X96059405Y-108988790D01*
X95918203Y-108988756D01*
G36*
X99138864Y-108985698D02*
G01*
X99094543Y-108985587D01*
X99059726Y-108985285D01*
X99032962Y-108984698D01*
X99012804Y-108983732D01*
X98997800Y-108982290D01*
X98986503Y-108980278D01*
X98977462Y-108977602D01*
X98969228Y-108974166D01*
X98961595Y-108970485D01*
X98929528Y-108950065D01*
X98897283Y-108921497D01*
X98868428Y-108888455D01*
X98846533Y-108854615D01*
X98843874Y-108849288D01*
X98838877Y-108839010D01*
X98828735Y-108818347D01*
X98813809Y-108788027D01*
X98794458Y-108748780D01*
X98771042Y-108701334D01*
X98743922Y-108646419D01*
X98713457Y-108584762D01*
X98680008Y-108517093D01*
X98643935Y-108444140D01*
X98605598Y-108366633D01*
X98565356Y-108285299D01*
X98523570Y-108200868D01*
X98494604Y-108142355D01*
X98423547Y-107998766D01*
X98355724Y-107861597D01*
X98291293Y-107731168D01*
X98230413Y-107607801D01*
X98173240Y-107491819D01*
X98119933Y-107383542D01*
X98070650Y-107283293D01*
X98025549Y-107191393D01*
X97984787Y-107108165D01*
X97948522Y-107033929D01*
X97916911Y-106969007D01*
X97890114Y-106913722D01*
X97868287Y-106868395D01*
X97851588Y-106833348D01*
X97840176Y-106808902D01*
X97836201Y-106800073D01*
X97822198Y-106759507D01*
X97818598Y-106724636D01*
X97825391Y-106694414D01*
X97835174Y-106677053D01*
X97843868Y-106666147D01*
X97853676Y-106657461D01*
X97866020Y-106650770D01*
X97882322Y-106645845D01*
X97904002Y-106642461D01*
X97932482Y-106640390D01*
X97969183Y-106639406D01*
X98015526Y-106639281D01*
X98068961Y-106639742D01*
X98236057Y-106641671D01*
X98268825Y-106658936D01*
X98311414Y-106688116D01*
X98350572Y-106728731D01*
X98385812Y-106780170D01*
X98416646Y-106841820D01*
X98419271Y-106848046D01*
X98424627Y-106859840D01*
X98435152Y-106881968D01*
X98450471Y-106913669D01*
X98470208Y-106954183D01*
X98493990Y-107002747D01*
X98521442Y-107058603D01*
X98552188Y-107120988D01*
X98585855Y-107189142D01*
X98622068Y-107262304D01*
X98660451Y-107339713D01*
X98700631Y-107420609D01*
X98742232Y-107504230D01*
X98758904Y-107537704D01*
X98809396Y-107639026D01*
X98854700Y-107729844D01*
X98895149Y-107810759D01*
X98931075Y-107882370D01*
X98962809Y-107945281D01*
X98990685Y-108000091D01*
X99015034Y-108047402D01*
X99036190Y-108087815D01*
X99054484Y-108121931D01*
X99070249Y-108150352D01*
X99083817Y-108173678D01*
X99095520Y-108192512D01*
X99105692Y-108207452D01*
X99114664Y-108219102D01*
X99122768Y-108228063D01*
X99130337Y-108234934D01*
X99137704Y-108240318D01*
X99145200Y-108244816D01*
X99151777Y-108248316D01*
X99180379Y-108256762D01*
X99212061Y-108256040D01*
X99242028Y-108246563D01*
X99253722Y-108239519D01*
X99276276Y-108218574D01*
X99301490Y-108186904D01*
X99328579Y-108145697D01*
X99356759Y-108096142D01*
X99384146Y-108041747D01*
X99392425Y-108024569D01*
X99405789Y-107997125D01*
X99423818Y-107960263D01*
X99446096Y-107914832D01*
X99472205Y-107861680D01*
X99501727Y-107801657D01*
X99534245Y-107735612D01*
X99569341Y-107664392D01*
X99606597Y-107588847D01*
X99645595Y-107509825D01*
X99685918Y-107428176D01*
X99726501Y-107346056D01*
X99775205Y-107247534D01*
X99818751Y-107159495D01*
X99857498Y-107081314D01*
X99891803Y-107012366D01*
X99922023Y-106952024D01*
X99948515Y-106899663D01*
X99971637Y-106854658D01*
X99991745Y-106816382D01*
X100009198Y-106784211D01*
X100024352Y-106757519D01*
X100037564Y-106735680D01*
X100049193Y-106718068D01*
X100059594Y-106704058D01*
X100069126Y-106693025D01*
X100078146Y-106684342D01*
X100087011Y-106677384D01*
X100096077Y-106671525D01*
X100105704Y-106666140D01*
X100116247Y-106660604D01*
X100118667Y-106659333D01*
X100152220Y-106641671D01*
X100322752Y-106640066D01*
X100373804Y-106639647D01*
X100414037Y-106639515D01*
X100445033Y-106639752D01*
X100468373Y-106640440D01*
X100485640Y-106641662D01*
X100498414Y-106643497D01*
X100508278Y-106646030D01*
X100516814Y-106649340D01*
X100518702Y-106650196D01*
X100546243Y-106668171D01*
X100563417Y-106692104D01*
X100570331Y-106722374D01*
X100567091Y-106759364D01*
X100558291Y-106791079D01*
X100553124Y-106803632D01*
X100542587Y-106826873D01*
X100526874Y-106860406D01*
X100506180Y-106903835D01*
X100480700Y-106956764D01*
X100450627Y-107018796D01*
X100416158Y-107089537D01*
X100377485Y-107168589D01*
X100334804Y-107255557D01*
X100288310Y-107350045D01*
X100238197Y-107451657D01*
X100184659Y-107559996D01*
X100127891Y-107674668D01*
X100068088Y-107795275D01*
X100005445Y-107921422D01*
X99940155Y-108052713D01*
X99872413Y-108188753D01*
X99809777Y-108314386D01*
X99761736Y-108410699D01*
X99718883Y-108496556D01*
X99680853Y-108572591D01*
X99647278Y-108639437D01*
X99617793Y-108697728D01*
X99592031Y-108748095D01*
X99569625Y-108791174D01*
X99550208Y-108827596D01*
X99533415Y-108857996D01*
X99518879Y-108883005D01*
X99506233Y-108903258D01*
X99495111Y-108919388D01*
X99485145Y-108932028D01*
X99475971Y-108941810D01*
X99467221Y-108949369D01*
X99458528Y-108955338D01*
X99449526Y-108960349D01*
X99439850Y-108965036D01*
X99430701Y-108969294D01*
X99395677Y-108985714D01*
X99194138Y-108985714D01*
X99138864Y-108985698D01*
G37*
X99138864Y-108985698D02*
X99094543Y-108985587D01*
X99059726Y-108985285D01*
X99032962Y-108984698D01*
X99012804Y-108983732D01*
X98997800Y-108982290D01*
X98986503Y-108980278D01*
X98977462Y-108977602D01*
X98969228Y-108974166D01*
X98961595Y-108970485D01*
X98929528Y-108950065D01*
X98897283Y-108921497D01*
X98868428Y-108888455D01*
X98846533Y-108854615D01*
X98843874Y-108849288D01*
X98838877Y-108839010D01*
X98828735Y-108818347D01*
X98813809Y-108788027D01*
X98794458Y-108748780D01*
X98771042Y-108701334D01*
X98743922Y-108646419D01*
X98713457Y-108584762D01*
X98680008Y-108517093D01*
X98643935Y-108444140D01*
X98605598Y-108366633D01*
X98565356Y-108285299D01*
X98523570Y-108200868D01*
X98494604Y-108142355D01*
X98423547Y-107998766D01*
X98355724Y-107861597D01*
X98291293Y-107731168D01*
X98230413Y-107607801D01*
X98173240Y-107491819D01*
X98119933Y-107383542D01*
X98070650Y-107283293D01*
X98025549Y-107191393D01*
X97984787Y-107108165D01*
X97948522Y-107033929D01*
X97916911Y-106969007D01*
X97890114Y-106913722D01*
X97868287Y-106868395D01*
X97851588Y-106833348D01*
X97840176Y-106808902D01*
X97836201Y-106800073D01*
X97822198Y-106759507D01*
X97818598Y-106724636D01*
X97825391Y-106694414D01*
X97835174Y-106677053D01*
X97843868Y-106666147D01*
X97853676Y-106657461D01*
X97866020Y-106650770D01*
X97882322Y-106645845D01*
X97904002Y-106642461D01*
X97932482Y-106640390D01*
X97969183Y-106639406D01*
X98015526Y-106639281D01*
X98068961Y-106639742D01*
X98236057Y-106641671D01*
X98268825Y-106658936D01*
X98311414Y-106688116D01*
X98350572Y-106728731D01*
X98385812Y-106780170D01*
X98416646Y-106841820D01*
X98419271Y-106848046D01*
X98424627Y-106859840D01*
X98435152Y-106881968D01*
X98450471Y-106913669D01*
X98470208Y-106954183D01*
X98493990Y-107002747D01*
X98521442Y-107058603D01*
X98552188Y-107120988D01*
X98585855Y-107189142D01*
X98622068Y-107262304D01*
X98660451Y-107339713D01*
X98700631Y-107420609D01*
X98742232Y-107504230D01*
X98758904Y-107537704D01*
X98809396Y-107639026D01*
X98854700Y-107729844D01*
X98895149Y-107810759D01*
X98931075Y-107882370D01*
X98962809Y-107945281D01*
X98990685Y-108000091D01*
X99015034Y-108047402D01*
X99036190Y-108087815D01*
X99054484Y-108121931D01*
X99070249Y-108150352D01*
X99083817Y-108173678D01*
X99095520Y-108192512D01*
X99105692Y-108207452D01*
X99114664Y-108219102D01*
X99122768Y-108228063D01*
X99130337Y-108234934D01*
X99137704Y-108240318D01*
X99145200Y-108244816D01*
X99151777Y-108248316D01*
X99180379Y-108256762D01*
X99212061Y-108256040D01*
X99242028Y-108246563D01*
X99253722Y-108239519D01*
X99276276Y-108218574D01*
X99301490Y-108186904D01*
X99328579Y-108145697D01*
X99356759Y-108096142D01*
X99384146Y-108041747D01*
X99392425Y-108024569D01*
X99405789Y-107997125D01*
X99423818Y-107960263D01*
X99446096Y-107914832D01*
X99472205Y-107861680D01*
X99501727Y-107801657D01*
X99534245Y-107735612D01*
X99569341Y-107664392D01*
X99606597Y-107588847D01*
X99645595Y-107509825D01*
X99685918Y-107428176D01*
X99726501Y-107346056D01*
X99775205Y-107247534D01*
X99818751Y-107159495D01*
X99857498Y-107081314D01*
X99891803Y-107012366D01*
X99922023Y-106952024D01*
X99948515Y-106899663D01*
X99971637Y-106854658D01*
X99991745Y-106816382D01*
X100009198Y-106784211D01*
X100024352Y-106757519D01*
X100037564Y-106735680D01*
X100049193Y-106718068D01*
X100059594Y-106704058D01*
X100069126Y-106693025D01*
X100078146Y-106684342D01*
X100087011Y-106677384D01*
X100096077Y-106671525D01*
X100105704Y-106666140D01*
X100116247Y-106660604D01*
X100118667Y-106659333D01*
X100152220Y-106641671D01*
X100322752Y-106640066D01*
X100373804Y-106639647D01*
X100414037Y-106639515D01*
X100445033Y-106639752D01*
X100468373Y-106640440D01*
X100485640Y-106641662D01*
X100498414Y-106643497D01*
X100508278Y-106646030D01*
X100516814Y-106649340D01*
X100518702Y-106650196D01*
X100546243Y-106668171D01*
X100563417Y-106692104D01*
X100570331Y-106722374D01*
X100567091Y-106759364D01*
X100558291Y-106791079D01*
X100553124Y-106803632D01*
X100542587Y-106826873D01*
X100526874Y-106860406D01*
X100506180Y-106903835D01*
X100480700Y-106956764D01*
X100450627Y-107018796D01*
X100416158Y-107089537D01*
X100377485Y-107168589D01*
X100334804Y-107255557D01*
X100288310Y-107350045D01*
X100238197Y-107451657D01*
X100184659Y-107559996D01*
X100127891Y-107674668D01*
X100068088Y-107795275D01*
X100005445Y-107921422D01*
X99940155Y-108052713D01*
X99872413Y-108188753D01*
X99809777Y-108314386D01*
X99761736Y-108410699D01*
X99718883Y-108496556D01*
X99680853Y-108572591D01*
X99647278Y-108639437D01*
X99617793Y-108697728D01*
X99592031Y-108748095D01*
X99569625Y-108791174D01*
X99550208Y-108827596D01*
X99533415Y-108857996D01*
X99518879Y-108883005D01*
X99506233Y-108903258D01*
X99495111Y-108919388D01*
X99485145Y-108932028D01*
X99475971Y-108941810D01*
X99467221Y-108949369D01*
X99458528Y-108955338D01*
X99449526Y-108960349D01*
X99439850Y-108965036D01*
X99430701Y-108969294D01*
X99395677Y-108985714D01*
X99194138Y-108985714D01*
X99138864Y-108985698D01*
G36*
X101861440Y-108988526D02*
G01*
X101783665Y-108988355D01*
X101716176Y-108988009D01*
X101657916Y-108987440D01*
X101607827Y-108986599D01*
X101564852Y-108985437D01*
X101527932Y-108983905D01*
X101496010Y-108981954D01*
X101468028Y-108979535D01*
X101442928Y-108976599D01*
X101419653Y-108973097D01*
X101397145Y-108968981D01*
X101374345Y-108964200D01*
X101361448Y-108961304D01*
X101251447Y-108929867D01*
X101145412Y-108886814D01*
X101043741Y-108832409D01*
X100946832Y-108766915D01*
X100855082Y-108690594D01*
X100768889Y-108603710D01*
X100704244Y-108526827D01*
X100652484Y-108452393D01*
X100605584Y-108368247D01*
X100564458Y-108276432D01*
X100530015Y-108178993D01*
X100503167Y-108077973D01*
X100502176Y-108073484D01*
X100497835Y-108051911D01*
X100494402Y-108030102D01*
X100491730Y-108006015D01*
X100489667Y-107977606D01*
X100488064Y-107942834D01*
X100486770Y-107899654D01*
X100485686Y-107848644D01*
X100484814Y-107783617D01*
X100484973Y-107728684D01*
X100486356Y-107681567D01*
X100489155Y-107639988D01*
X100493559Y-107601667D01*
X100499762Y-107564325D01*
X100507954Y-107525683D01*
X100515391Y-107494986D01*
X100544398Y-107397917D01*
X100581476Y-107306367D01*
X100627655Y-107218370D01*
X100683965Y-107131961D01*
X100750740Y-107046005D01*
X100831762Y-106958607D01*
X100920241Y-106880966D01*
X101015575Y-106813414D01*
X101117162Y-106756282D01*
X101224400Y-106709901D01*
X101336686Y-106674602D01*
X101453418Y-106650717D01*
X101475324Y-106647593D01*
X101491802Y-106645750D01*
X101512051Y-106644176D01*
X101536984Y-106642855D01*
X101567518Y-106641774D01*
X101604565Y-106640915D01*
X101649040Y-106640265D01*
X101701858Y-106639808D01*
X101763933Y-106639528D01*
X101836179Y-106639411D01*
X101919511Y-106639440D01*
X101959861Y-106639496D01*
X102032150Y-106639689D01*
X102101805Y-106640020D01*
X102167668Y-106640475D01*
X102228580Y-106641038D01*
X102283384Y-106641694D01*
X102330921Y-106642430D01*
X102370032Y-106643230D01*
X102399559Y-106644080D01*
X102418343Y-106644965D01*
X102422851Y-106645356D01*
X102536251Y-106664558D01*
X102645777Y-106695331D01*
X102751656Y-106737781D01*
X102854116Y-106792012D01*
X102953383Y-106858130D01*
X103048167Y-106934896D01*
X103130861Y-107016032D01*
X103203892Y-107104759D01*
X103267640Y-107201570D01*
X103299082Y-107258824D01*
X103338589Y-107343093D01*
X103369910Y-107426976D01*
X103393543Y-107512710D01*
X103409986Y-107602532D01*
X103419740Y-107698678D01*
X103423302Y-107803385D01*
X103423338Y-107815723D01*
X103422655Y-107841595D01*
X102936593Y-107841595D01*
X102935048Y-107756563D01*
X102921278Y-107672195D01*
X102895324Y-107589076D01*
X102867634Y-107527409D01*
X102851400Y-107497693D01*
X102832301Y-107465808D01*
X102814102Y-107438001D01*
X102811717Y-107434616D01*
X102788115Y-107404132D01*
X102758418Y-107369643D01*
X102725331Y-107333973D01*
X102691561Y-107299947D01*
X102659813Y-107270390D01*
X102633749Y-107248840D01*
X102577746Y-107212912D01*
X102512142Y-107181524D01*
X102439158Y-107155471D01*
X102361017Y-107135552D01*
X102282322Y-107122836D01*
X102253800Y-107119529D01*
X102227464Y-107116476D01*
X102207463Y-107114159D01*
X102201707Y-107113492D01*
X102186681Y-107112610D01*
X102160941Y-107112054D01*
X102126169Y-107111800D01*
X102084048Y-107111821D01*
X102036260Y-107112093D01*
X101984489Y-107112589D01*
X101930418Y-107113285D01*
X101875728Y-107114155D01*
X101822103Y-107115174D01*
X101771226Y-107116317D01*
X101724779Y-107117557D01*
X101684445Y-107118870D01*
X101651907Y-107120230D01*
X101628847Y-107121611D01*
X101621897Y-107122246D01*
X101572221Y-107128278D01*
X101531691Y-107134718D01*
X101497061Y-107142463D01*
X101465082Y-107152409D01*
X101432510Y-107165456D01*
X101396097Y-107182498D01*
X101386253Y-107187369D01*
X101333306Y-107215245D01*
X101288729Y-107242455D01*
X101248931Y-107271615D01*
X101210324Y-107305339D01*
X101172092Y-107343349D01*
X101109605Y-107416365D01*
X101058823Y-107493360D01*
X101019631Y-107574560D01*
X100991916Y-107660187D01*
X100979908Y-107718910D01*
X100975806Y-107758037D01*
X100974422Y-107803928D01*
X100975575Y-107852746D01*
X100979085Y-107900652D01*
X100984770Y-107943808D01*
X100992095Y-107977172D01*
X101023091Y-108063222D01*
X101065013Y-108144545D01*
X101118193Y-108221663D01*
X101182962Y-108295102D01*
X101209859Y-108321380D01*
X101255174Y-108361209D01*
X101301288Y-108395673D01*
X101349366Y-108425095D01*
X101400572Y-108449794D01*
X101456068Y-108470090D01*
X101517019Y-108486303D01*
X101584588Y-108498755D01*
X101659939Y-108507764D01*
X101744235Y-108513652D01*
X101838640Y-108516739D01*
X101922004Y-108517407D01*
X102033397Y-108516436D01*
X102132671Y-108513697D01*
X102219987Y-108509180D01*
X102295503Y-108502873D01*
X102359379Y-108494765D01*
X102411774Y-108484845D01*
X102421449Y-108482501D01*
X102474705Y-108464622D01*
X102532108Y-108437437D01*
X102591468Y-108402301D01*
X102650592Y-108360569D01*
X102707291Y-108313594D01*
X102732205Y-108290357D01*
X102767449Y-108251423D01*
X102803102Y-108203454D01*
X102837242Y-108149593D01*
X102867945Y-108092988D01*
X102893288Y-108036781D01*
X102902834Y-108011300D01*
X102925869Y-107926703D01*
X102936593Y-107841595D01*
X103422655Y-107841595D01*
X103420603Y-107919183D01*
X103412071Y-108013658D01*
X103397246Y-108101375D01*
X103375635Y-108184560D01*
X103346743Y-108265440D01*
X103310076Y-108346242D01*
X103302084Y-108361975D01*
X103242709Y-108464094D01*
X103174065Y-108559029D01*
X103096946Y-108646137D01*
X103012148Y-108724779D01*
X102920467Y-108794313D01*
X102822699Y-108854099D01*
X102719639Y-108903494D01*
X102612083Y-108941860D01*
X102566813Y-108954266D01*
X102540669Y-108960666D01*
X102516180Y-108966220D01*
X102492274Y-108970987D01*
X102467880Y-108975027D01*
X102441924Y-108978399D01*
X102413336Y-108981164D01*
X102381042Y-108983381D01*
X102343971Y-108985110D01*
X102301051Y-108986410D01*
X102251209Y-108987342D01*
X102193373Y-108987964D01*
X102126471Y-108988336D01*
X102049432Y-108988519D01*
X101961183Y-108988572D01*
X101950559Y-108988572D01*
X101861440Y-108988526D01*
G37*
X101861440Y-108988526D02*
X101783665Y-108988355D01*
X101716176Y-108988009D01*
X101657916Y-108987440D01*
X101607827Y-108986599D01*
X101564852Y-108985437D01*
X101527932Y-108983905D01*
X101496010Y-108981954D01*
X101468028Y-108979535D01*
X101442928Y-108976599D01*
X101419653Y-108973097D01*
X101397145Y-108968981D01*
X101374345Y-108964200D01*
X101361448Y-108961304D01*
X101251447Y-108929867D01*
X101145412Y-108886814D01*
X101043741Y-108832409D01*
X100946832Y-108766915D01*
X100855082Y-108690594D01*
X100768889Y-108603710D01*
X100704244Y-108526827D01*
X100652484Y-108452393D01*
X100605584Y-108368247D01*
X100564458Y-108276432D01*
X100530015Y-108178993D01*
X100503167Y-108077973D01*
X100502176Y-108073484D01*
X100497835Y-108051911D01*
X100494402Y-108030102D01*
X100491730Y-108006015D01*
X100489667Y-107977606D01*
X100488064Y-107942834D01*
X100486770Y-107899654D01*
X100485686Y-107848644D01*
X100484814Y-107783617D01*
X100484973Y-107728684D01*
X100486356Y-107681567D01*
X100489155Y-107639988D01*
X100493559Y-107601667D01*
X100499762Y-107564325D01*
X100507954Y-107525683D01*
X100515391Y-107494986D01*
X100544398Y-107397917D01*
X100581476Y-107306367D01*
X100627655Y-107218370D01*
X100683965Y-107131961D01*
X100750740Y-107046005D01*
X100831762Y-106958607D01*
X100920241Y-106880966D01*
X101015575Y-106813414D01*
X101117162Y-106756282D01*
X101224400Y-106709901D01*
X101336686Y-106674602D01*
X101453418Y-106650717D01*
X101475324Y-106647593D01*
X101491802Y-106645750D01*
X101512051Y-106644176D01*
X101536984Y-106642855D01*
X101567518Y-106641774D01*
X101604565Y-106640915D01*
X101649040Y-106640265D01*
X101701858Y-106639808D01*
X101763933Y-106639528D01*
X101836179Y-106639411D01*
X101919511Y-106639440D01*
X101959861Y-106639496D01*
X102032150Y-106639689D01*
X102101805Y-106640020D01*
X102167668Y-106640475D01*
X102228580Y-106641038D01*
X102283384Y-106641694D01*
X102330921Y-106642430D01*
X102370032Y-106643230D01*
X102399559Y-106644080D01*
X102418343Y-106644965D01*
X102422851Y-106645356D01*
X102536251Y-106664558D01*
X102645777Y-106695331D01*
X102751656Y-106737781D01*
X102854116Y-106792012D01*
X102953383Y-106858130D01*
X103048167Y-106934896D01*
X103130861Y-107016032D01*
X103203892Y-107104759D01*
X103267640Y-107201570D01*
X103299082Y-107258824D01*
X103338589Y-107343093D01*
X103369910Y-107426976D01*
X103393543Y-107512710D01*
X103409986Y-107602532D01*
X103419740Y-107698678D01*
X103423302Y-107803385D01*
X103423338Y-107815723D01*
X103422655Y-107841595D01*
X102936593Y-107841595D01*
X102935048Y-107756563D01*
X102921278Y-107672195D01*
X102895324Y-107589076D01*
X102867634Y-107527409D01*
X102851400Y-107497693D01*
X102832301Y-107465808D01*
X102814102Y-107438001D01*
X102811717Y-107434616D01*
X102788115Y-107404132D01*
X102758418Y-107369643D01*
X102725331Y-107333973D01*
X102691561Y-107299947D01*
X102659813Y-107270390D01*
X102633749Y-107248840D01*
X102577746Y-107212912D01*
X102512142Y-107181524D01*
X102439158Y-107155471D01*
X102361017Y-107135552D01*
X102282322Y-107122836D01*
X102253800Y-107119529D01*
X102227464Y-107116476D01*
X102207463Y-107114159D01*
X102201707Y-107113492D01*
X102186681Y-107112610D01*
X102160941Y-107112054D01*
X102126169Y-107111800D01*
X102084048Y-107111821D01*
X102036260Y-107112093D01*
X101984489Y-107112589D01*
X101930418Y-107113285D01*
X101875728Y-107114155D01*
X101822103Y-107115174D01*
X101771226Y-107116317D01*
X101724779Y-107117557D01*
X101684445Y-107118870D01*
X101651907Y-107120230D01*
X101628847Y-107121611D01*
X101621897Y-107122246D01*
X101572221Y-107128278D01*
X101531691Y-107134718D01*
X101497061Y-107142463D01*
X101465082Y-107152409D01*
X101432510Y-107165456D01*
X101396097Y-107182498D01*
X101386253Y-107187369D01*
X101333306Y-107215245D01*
X101288729Y-107242455D01*
X101248931Y-107271615D01*
X101210324Y-107305339D01*
X101172092Y-107343349D01*
X101109605Y-107416365D01*
X101058823Y-107493360D01*
X101019631Y-107574560D01*
X100991916Y-107660187D01*
X100979908Y-107718910D01*
X100975806Y-107758037D01*
X100974422Y-107803928D01*
X100975575Y-107852746D01*
X100979085Y-107900652D01*
X100984770Y-107943808D01*
X100992095Y-107977172D01*
X101023091Y-108063222D01*
X101065013Y-108144545D01*
X101118193Y-108221663D01*
X101182962Y-108295102D01*
X101209859Y-108321380D01*
X101255174Y-108361209D01*
X101301288Y-108395673D01*
X101349366Y-108425095D01*
X101400572Y-108449794D01*
X101456068Y-108470090D01*
X101517019Y-108486303D01*
X101584588Y-108498755D01*
X101659939Y-108507764D01*
X101744235Y-108513652D01*
X101838640Y-108516739D01*
X101922004Y-108517407D01*
X102033397Y-108516436D01*
X102132671Y-108513697D01*
X102219987Y-108509180D01*
X102295503Y-108502873D01*
X102359379Y-108494765D01*
X102411774Y-108484845D01*
X102421449Y-108482501D01*
X102474705Y-108464622D01*
X102532108Y-108437437D01*
X102591468Y-108402301D01*
X102650592Y-108360569D01*
X102707291Y-108313594D01*
X102732205Y-108290357D01*
X102767449Y-108251423D01*
X102803102Y-108203454D01*
X102837242Y-108149593D01*
X102867945Y-108092988D01*
X102893288Y-108036781D01*
X102902834Y-108011300D01*
X102925869Y-107926703D01*
X102936593Y-107841595D01*
X103422655Y-107841595D01*
X103420603Y-107919183D01*
X103412071Y-108013658D01*
X103397246Y-108101375D01*
X103375635Y-108184560D01*
X103346743Y-108265440D01*
X103310076Y-108346242D01*
X103302084Y-108361975D01*
X103242709Y-108464094D01*
X103174065Y-108559029D01*
X103096946Y-108646137D01*
X103012148Y-108724779D01*
X102920467Y-108794313D01*
X102822699Y-108854099D01*
X102719639Y-108903494D01*
X102612083Y-108941860D01*
X102566813Y-108954266D01*
X102540669Y-108960666D01*
X102516180Y-108966220D01*
X102492274Y-108970987D01*
X102467880Y-108975027D01*
X102441924Y-108978399D01*
X102413336Y-108981164D01*
X102381042Y-108983381D01*
X102343971Y-108985110D01*
X102301051Y-108986410D01*
X102251209Y-108987342D01*
X102193373Y-108987964D01*
X102126471Y-108988336D01*
X102049432Y-108988519D01*
X101961183Y-108988572D01*
X101950559Y-108988572D01*
X101861440Y-108988526D01*
G36*
X139236744Y-109030663D02*
G01*
X139237567Y-108914934D01*
X139837885Y-108305000D01*
X140438204Y-107695066D01*
X140438641Y-107415165D01*
X140439079Y-107135263D01*
X140804663Y-107135263D01*
X140814083Y-107064244D01*
X140817650Y-107031873D01*
X140823662Y-106970913D01*
X140831799Y-106885002D01*
X140841738Y-106777774D01*
X140853157Y-106652867D01*
X140865736Y-106513917D01*
X140879153Y-106364559D01*
X140893085Y-106208432D01*
X140907212Y-106049170D01*
X140921212Y-105890410D01*
X140934763Y-105735789D01*
X140947544Y-105588943D01*
X140959233Y-105453507D01*
X140969508Y-105333120D01*
X140978048Y-105231416D01*
X140984531Y-105152033D01*
X140988636Y-105098606D01*
X140990041Y-105074771D01*
X140990040Y-105074658D01*
X140979796Y-105055534D01*
X140949026Y-105016045D01*
X140897311Y-104955734D01*
X140824233Y-104874139D01*
X140729373Y-104770802D01*
X140612313Y-104645262D01*
X140472633Y-104497060D01*
X140309916Y-104325737D01*
X140264179Y-104277763D01*
X139538805Y-103517434D01*
X139597449Y-103458948D01*
X139656092Y-103400461D01*
X139750974Y-103503690D01*
X139785685Y-103540997D01*
X139839906Y-103598689D01*
X139910059Y-103672987D01*
X139992568Y-103760111D01*
X140083855Y-103856282D01*
X140180342Y-103957720D01*
X140238065Y-104018305D01*
X140346434Y-104131803D01*
X140434028Y-104222715D01*
X140503080Y-104292693D01*
X140555824Y-104343390D01*
X140594494Y-104376460D01*
X140621323Y-104393556D01*
X140638544Y-104396331D01*
X140648392Y-104386437D01*
X140653099Y-104365529D01*
X140654899Y-104335259D01*
X140655141Y-104326998D01*
X140667658Y-104270091D01*
X140698497Y-104201307D01*
X140741503Y-104131525D01*
X140790520Y-104071622D01*
X140810134Y-104053118D01*
X140910770Y-103988372D01*
X141028327Y-103952146D01*
X141132262Y-103943553D01*
X141250049Y-103959761D01*
X141358831Y-104007288D01*
X141455110Y-104084489D01*
X141472875Y-104103705D01*
X141537832Y-104177500D01*
X142661579Y-104177500D01*
X142661579Y-103943553D01*
X142962368Y-103943553D01*
X142962368Y-104052848D01*
X142966143Y-104127461D01*
X142978825Y-104179250D01*
X142994237Y-104207420D01*
X143005250Y-104227576D01*
X143014679Y-104256800D01*
X143023151Y-104299425D01*
X143031290Y-104359783D01*
X143039721Y-104442207D01*
X143049068Y-104551028D01*
X143055469Y-104631983D01*
X143084831Y-105011268D01*
X143805659Y-104281062D01*
X143935992Y-104148934D01*
X144061108Y-104021904D01*
X144178721Y-103902305D01*
X144286545Y-103792472D01*
X144382295Y-103694737D01*
X144463683Y-103611434D01*
X144528423Y-103544896D01*
X144574230Y-103497458D01*
X144598792Y-103471480D01*
X144639145Y-103430351D01*
X144672805Y-103401665D01*
X144690910Y-103392105D01*
X144714035Y-103403303D01*
X144747743Y-103431281D01*
X144759169Y-103442674D01*
X144807617Y-103493243D01*
X144540881Y-103764298D01*
X144472831Y-103833348D01*
X144385085Y-103922226D01*
X144281492Y-104027041D01*
X144165900Y-104143903D01*
X144042159Y-104268921D01*
X143914119Y-104398205D01*
X143785628Y-104527864D01*
X143693454Y-104620821D01*
X143553342Y-104762480D01*
X143435632Y-104882409D01*
X143338820Y-104982232D01*
X143261399Y-105063572D01*
X143201864Y-105128052D01*
X143172358Y-105161723D01*
X142935409Y-105161723D01*
X142905743Y-104782408D01*
X142896797Y-104671223D01*
X142888142Y-104569547D01*
X142880271Y-104482696D01*
X142873672Y-104415982D01*
X142868836Y-104374721D01*
X142867280Y-104365494D01*
X142858482Y-104327895D01*
X141596681Y-104327895D01*
X141588258Y-104432827D01*
X141562828Y-104556805D01*
X141509611Y-104666476D01*
X141431963Y-104757844D01*
X141333237Y-104826917D01*
X141222428Y-104868380D01*
X141186480Y-104887829D01*
X141168483Y-104929570D01*
X141168106Y-104931411D01*
X141165947Y-104949033D01*
X141168616Y-104967078D01*
X141178720Y-104988892D01*
X141198863Y-105017823D01*
X141231651Y-105057217D01*
X141279690Y-105110423D01*
X141345584Y-105180786D01*
X141431940Y-105271654D01*
X141437520Y-105277507D01*
X141530405Y-105375044D01*
X141629155Y-105478933D01*
X141726984Y-105582023D01*
X141817107Y-105677161D01*
X141892738Y-105757196D01*
X141909605Y-105775089D01*
X141974265Y-105842556D01*
X142031705Y-105900291D01*
X142077801Y-105944325D01*
X142108431Y-105970686D01*
X142118715Y-105976479D01*
X142134052Y-105964354D01*
X142169917Y-105931090D01*
X142223488Y-105879458D01*
X142291940Y-105812225D01*
X142372447Y-105732163D01*
X142462187Y-105642039D01*
X142535532Y-105567802D01*
X142935409Y-105161723D01*
X143172358Y-105161723D01*
X143158709Y-105177297D01*
X143130429Y-105212929D01*
X143115517Y-105236571D01*
X143112199Y-105247520D01*
X143113456Y-105271414D01*
X143117274Y-105325499D01*
X143123407Y-105406662D01*
X143131607Y-105511790D01*
X143141627Y-105637772D01*
X143153220Y-105781495D01*
X143166140Y-105939846D01*
X143180138Y-106109713D01*
X143191419Y-106245472D01*
X143255250Y-107010894D01*
X143091004Y-107010894D01*
X143090297Y-106994376D01*
X143086969Y-106947855D01*
X143081290Y-106874622D01*
X143073526Y-106777972D01*
X143063943Y-106661195D01*
X143052811Y-106527586D01*
X143040395Y-106380437D01*
X143028480Y-106240729D01*
X143014984Y-106082213D01*
X143002413Y-105932579D01*
X142991055Y-105795398D01*
X142981198Y-105674241D01*
X142973130Y-105572680D01*
X142967140Y-105494288D01*
X142963515Y-105442637D01*
X142962509Y-105422577D01*
X142960940Y-105410092D01*
X142954722Y-105405138D01*
X142941459Y-105409782D01*
X142918753Y-105426091D01*
X142884208Y-105456132D01*
X142835427Y-105501973D01*
X142770013Y-105565680D01*
X142685569Y-105649321D01*
X142595971Y-105738701D01*
X142229574Y-106104814D01*
X142232141Y-106107566D01*
X141989951Y-106107566D01*
X141978913Y-106092450D01*
X141948013Y-106056858D01*
X141900347Y-106004059D01*
X141839013Y-105937327D01*
X141767107Y-105859930D01*
X141687727Y-105775142D01*
X141603969Y-105686233D01*
X141518930Y-105596474D01*
X141435708Y-105509136D01*
X141357399Y-105427491D01*
X141287100Y-105354809D01*
X141227909Y-105294363D01*
X141182922Y-105249422D01*
X141155236Y-105223258D01*
X141147686Y-105217928D01*
X141145197Y-105235133D01*
X141140030Y-105282652D01*
X141132470Y-105357511D01*
X141122800Y-105456736D01*
X141111305Y-105577351D01*
X141098269Y-105716382D01*
X141083976Y-105870855D01*
X141068710Y-106037794D01*
X141056521Y-106172403D01*
X141040929Y-106346946D01*
X141026523Y-106511373D01*
X141013547Y-106662701D01*
X141002241Y-106797947D01*
X140992848Y-106914130D01*
X140985611Y-107008265D01*
X140980772Y-107077370D01*
X140978573Y-107118462D01*
X140978824Y-107129132D01*
X140991970Y-107119628D01*
X141025446Y-107089080D01*
X141076326Y-107040444D01*
X141141683Y-106976677D01*
X141218591Y-106900735D01*
X141304124Y-106815576D01*
X141395354Y-106724155D01*
X141489356Y-106629431D01*
X141583202Y-106534359D01*
X141673967Y-106441897D01*
X141758723Y-106355001D01*
X141834544Y-106276628D01*
X141898503Y-106209735D01*
X141947674Y-106157278D01*
X141979131Y-106122215D01*
X141989951Y-106107566D01*
X142232141Y-106107566D01*
X142366202Y-106251240D01*
X142435784Y-106325552D01*
X142513881Y-106408517D01*
X142597406Y-106496898D01*
X142683270Y-106587459D01*
X142768385Y-106676964D01*
X142849664Y-106762177D01*
X142924019Y-106839861D01*
X142988363Y-106906780D01*
X143039606Y-106959697D01*
X143074663Y-106995377D01*
X143090444Y-107010584D01*
X143091004Y-107010894D01*
X143255250Y-107010894D01*
X143271204Y-107202193D01*
X144069286Y-108041515D01*
X144867368Y-108880836D01*
X144866781Y-108998148D01*
X144866194Y-109115461D01*
X144737275Y-108977747D01*
X144665124Y-108900937D01*
X144579940Y-108810696D01*
X144484021Y-108709425D01*
X144379666Y-108599524D01*
X144269174Y-108483396D01*
X144154844Y-108363442D01*
X144038975Y-108242064D01*
X143923865Y-108121662D01*
X143811814Y-108004638D01*
X143705119Y-107893394D01*
X143606080Y-107790331D01*
X143516997Y-107697850D01*
X143440166Y-107618353D01*
X143377888Y-107554242D01*
X143332462Y-107507917D01*
X143306185Y-107481781D01*
X143300426Y-107476767D01*
X143300030Y-107494209D01*
X143302208Y-107538865D01*
X143306583Y-107604660D01*
X143312775Y-107685517D01*
X143315433Y-107717817D01*
X143335228Y-107954079D01*
X143180242Y-107954079D01*
X143172240Y-107916480D01*
X143168160Y-107886745D01*
X143162425Y-107830797D01*
X143155701Y-107755764D01*
X143148648Y-107668775D01*
X143146207Y-107636579D01*
X143139008Y-107544139D01*
X143131742Y-107458293D01*
X143125136Y-107387153D01*
X143119916Y-107338831D01*
X143118739Y-107330061D01*
X143114298Y-107312058D01*
X143104687Y-107290983D01*
X143087860Y-107264475D01*
X143061775Y-107230172D01*
X143024387Y-107185711D01*
X142973654Y-107128729D01*
X142907530Y-107056864D01*
X142823974Y-106967754D01*
X142720940Y-106859036D01*
X142615833Y-106748725D01*
X142511262Y-106639559D01*
X142413649Y-106538460D01*
X142325422Y-106447885D01*
X142249012Y-106370292D01*
X142186849Y-106308138D01*
X142141363Y-106263882D01*
X142114983Y-106239982D01*
X142109357Y-106236426D01*
X142094557Y-106249319D01*
X142059961Y-106282940D01*
X142008929Y-106333918D01*
X141944817Y-106398880D01*
X141870984Y-106474452D01*
X141817589Y-106529507D01*
X141538827Y-106817763D01*
X142360790Y-106817763D01*
X142360790Y-107135263D01*
X141358158Y-107135263D01*
X141358158Y-106993794D01*
X141174342Y-107177040D01*
X141043948Y-107307029D01*
X140790000Y-107307029D01*
X140787571Y-107286523D01*
X140775276Y-107275098D01*
X140745604Y-107270120D01*
X140691045Y-107268956D01*
X140681382Y-107268948D01*
X140572763Y-107268948D01*
X140572763Y-107560416D01*
X140681382Y-107452763D01*
X140742654Y-107387313D01*
X140779301Y-107337171D01*
X140790000Y-107307029D01*
X141043948Y-107307029D01*
X140990526Y-107360285D01*
X140990526Y-107523498D01*
X140990015Y-107598586D01*
X140987672Y-107646355D01*
X140982289Y-107672902D01*
X140972656Y-107684321D01*
X140958129Y-107686711D01*
X140941973Y-107690220D01*
X140930031Y-107704289D01*
X140920861Y-107734231D01*
X140913018Y-107785358D01*
X140905058Y-107862983D01*
X140902504Y-107891415D01*
X140896974Y-107954079D01*
X143180242Y-107954079D01*
X143335228Y-107954079D01*
X143547237Y-107954079D01*
X143547237Y-108104474D01*
X143457141Y-108104474D01*
X143404445Y-108105917D01*
X143375812Y-108112884D01*
X143372309Y-108117030D01*
X143187766Y-108117030D01*
X143178054Y-108107558D01*
X143144412Y-108104634D01*
X143121706Y-108104474D01*
X143045921Y-108104474D01*
X142763306Y-108104474D01*
X140883481Y-108104474D01*
X140947062Y-108169587D01*
X141045814Y-108249938D01*
X141168032Y-108311911D01*
X141315787Y-108356354D01*
X141462599Y-108380935D01*
X141558684Y-108392404D01*
X141558684Y-108271579D01*
X142327368Y-108271579D01*
X142327368Y-108408655D01*
X142440165Y-108397224D01*
X142518975Y-108387575D01*
X142602943Y-108374786D01*
X142653224Y-108365652D01*
X142753487Y-108345512D01*
X142758397Y-108224993D01*
X142763306Y-108104474D01*
X143045921Y-108104474D01*
X143045921Y-108171316D01*
X143048131Y-108213190D01*
X143053650Y-108236464D01*
X143055874Y-108238158D01*
X143080613Y-108227440D01*
X143116757Y-108201437D01*
X143152990Y-108169377D01*
X143177999Y-108140489D01*
X143180227Y-108136733D01*
X143187766Y-108117030D01*
X143372309Y-108117030D01*
X143361919Y-108129326D01*
X143356311Y-108147238D01*
X143333422Y-108193721D01*
X143289460Y-108249600D01*
X143231989Y-108307040D01*
X143168573Y-108358207D01*
X143126918Y-108384857D01*
X143079466Y-108414028D01*
X143055141Y-108438533D01*
X143046595Y-108467428D01*
X143045938Y-108484638D01*
X143045937Y-108488816D01*
X142193684Y-108488816D01*
X142193684Y-108405263D01*
X141692368Y-108405263D01*
X141692368Y-108488816D01*
X142193684Y-108488816D01*
X143045937Y-108488816D01*
X143045921Y-108538948D01*
X142905274Y-108538948D01*
X142840564Y-108537383D01*
X142790130Y-108533215D01*
X142762094Y-108527227D01*
X142759057Y-108524803D01*
X142741273Y-108521082D01*
X142697992Y-108522606D01*
X142636651Y-108528925D01*
X142594737Y-108534760D01*
X142518737Y-108546222D01*
X142449230Y-108556570D01*
X142396997Y-108564204D01*
X142381678Y-108566373D01*
X142341653Y-108578768D01*
X142327368Y-108598192D01*
X142323025Y-108606102D01*
X142307490Y-108612137D01*
X142277001Y-108616534D01*
X142227800Y-108619531D01*
X142156126Y-108621365D01*
X142058219Y-108622275D01*
X141943026Y-108622500D01*
X141820086Y-108622372D01*
X141726559Y-108621770D01*
X141658440Y-108620361D01*
X141611719Y-108617819D01*
X141582391Y-108613811D01*
X141566449Y-108608009D01*
X141559885Y-108600083D01*
X141558684Y-108590867D01*
X141548460Y-108561615D01*
X141514970Y-108544969D01*
X141453988Y-108539032D01*
X141443017Y-108538948D01*
X141339746Y-108528294D01*
X141222453Y-108498967D01*
X141101715Y-108454916D01*
X140988111Y-108400089D01*
X140892219Y-108338436D01*
X140879799Y-108328668D01*
X140839318Y-108296885D01*
X140815345Y-108284156D01*
X140798604Y-108288271D01*
X140781419Y-108305250D01*
X140730664Y-108338508D01*
X140664607Y-108351275D01*
X140593474Y-108344635D01*
X140527486Y-108319673D01*
X140476868Y-108277471D01*
X140473203Y-108272566D01*
X140435328Y-108193789D01*
X140428281Y-108112246D01*
X140451285Y-108034513D01*
X140503563Y-107967165D01*
X140509956Y-107961604D01*
X140547073Y-107935187D01*
X140584733Y-107923553D01*
X140637676Y-107922713D01*
X140650902Y-107923458D01*
X140702703Y-107925359D01*
X140729386Y-107921004D01*
X140739045Y-107907862D01*
X140740037Y-107895592D01*
X140742061Y-107859998D01*
X140747086Y-107806467D01*
X140750697Y-107774441D01*
X140755934Y-107723573D01*
X140753756Y-107697532D01*
X140741125Y-107688014D01*
X140718625Y-107686711D01*
X140705282Y-107691014D01*
X140683756Y-107704943D01*
X140652452Y-107730023D01*
X140609776Y-107767781D01*
X140554132Y-107819744D01*
X140483925Y-107887438D01*
X140397560Y-107972389D01*
X140293442Y-108076125D01*
X140169975Y-108200172D01*
X140025564Y-108346056D01*
X139955969Y-108416551D01*
X139235921Y-109146390D01*
X139236744Y-109030663D01*
G37*
X139236744Y-109030663D02*
X139237567Y-108914934D01*
X139837885Y-108305000D01*
X140438204Y-107695066D01*
X140438641Y-107415165D01*
X140439079Y-107135263D01*
X140804663Y-107135263D01*
X140814083Y-107064244D01*
X140817650Y-107031873D01*
X140823662Y-106970913D01*
X140831799Y-106885002D01*
X140841738Y-106777774D01*
X140853157Y-106652867D01*
X140865736Y-106513917D01*
X140879153Y-106364559D01*
X140893085Y-106208432D01*
X140907212Y-106049170D01*
X140921212Y-105890410D01*
X140934763Y-105735789D01*
X140947544Y-105588943D01*
X140959233Y-105453507D01*
X140969508Y-105333120D01*
X140978048Y-105231416D01*
X140984531Y-105152033D01*
X140988636Y-105098606D01*
X140990041Y-105074771D01*
X140990040Y-105074658D01*
X140979796Y-105055534D01*
X140949026Y-105016045D01*
X140897311Y-104955734D01*
X140824233Y-104874139D01*
X140729373Y-104770802D01*
X140612313Y-104645262D01*
X140472633Y-104497060D01*
X140309916Y-104325737D01*
X140264179Y-104277763D01*
X139538805Y-103517434D01*
X139597449Y-103458948D01*
X139656092Y-103400461D01*
X139750974Y-103503690D01*
X139785685Y-103540997D01*
X139839906Y-103598689D01*
X139910059Y-103672987D01*
X139992568Y-103760111D01*
X140083855Y-103856282D01*
X140180342Y-103957720D01*
X140238065Y-104018305D01*
X140346434Y-104131803D01*
X140434028Y-104222715D01*
X140503080Y-104292693D01*
X140555824Y-104343390D01*
X140594494Y-104376460D01*
X140621323Y-104393556D01*
X140638544Y-104396331D01*
X140648392Y-104386437D01*
X140653099Y-104365529D01*
X140654899Y-104335259D01*
X140655141Y-104326998D01*
X140667658Y-104270091D01*
X140698497Y-104201307D01*
X140741503Y-104131525D01*
X140790520Y-104071622D01*
X140810134Y-104053118D01*
X140910770Y-103988372D01*
X141028327Y-103952146D01*
X141132262Y-103943553D01*
X141250049Y-103959761D01*
X141358831Y-104007288D01*
X141455110Y-104084489D01*
X141472875Y-104103705D01*
X141537832Y-104177500D01*
X142661579Y-104177500D01*
X142661579Y-103943553D01*
X142962368Y-103943553D01*
X142962368Y-104052848D01*
X142966143Y-104127461D01*
X142978825Y-104179250D01*
X142994237Y-104207420D01*
X143005250Y-104227576D01*
X143014679Y-104256800D01*
X143023151Y-104299425D01*
X143031290Y-104359783D01*
X143039721Y-104442207D01*
X143049068Y-104551028D01*
X143055469Y-104631983D01*
X143084831Y-105011268D01*
X143805659Y-104281062D01*
X143935992Y-104148934D01*
X144061108Y-104021904D01*
X144178721Y-103902305D01*
X144286545Y-103792472D01*
X144382295Y-103694737D01*
X144463683Y-103611434D01*
X144528423Y-103544896D01*
X144574230Y-103497458D01*
X144598792Y-103471480D01*
X144639145Y-103430351D01*
X144672805Y-103401665D01*
X144690910Y-103392105D01*
X144714035Y-103403303D01*
X144747743Y-103431281D01*
X144759169Y-103442674D01*
X144807617Y-103493243D01*
X144540881Y-103764298D01*
X144472831Y-103833348D01*
X144385085Y-103922226D01*
X144281492Y-104027041D01*
X144165900Y-104143903D01*
X144042159Y-104268921D01*
X143914119Y-104398205D01*
X143785628Y-104527864D01*
X143693454Y-104620821D01*
X143553342Y-104762480D01*
X143435632Y-104882409D01*
X143338820Y-104982232D01*
X143261399Y-105063572D01*
X143201864Y-105128052D01*
X143172358Y-105161723D01*
X142935409Y-105161723D01*
X142905743Y-104782408D01*
X142896797Y-104671223D01*
X142888142Y-104569547D01*
X142880271Y-104482696D01*
X142873672Y-104415982D01*
X142868836Y-104374721D01*
X142867280Y-104365494D01*
X142858482Y-104327895D01*
X141596681Y-104327895D01*
X141588258Y-104432827D01*
X141562828Y-104556805D01*
X141509611Y-104666476D01*
X141431963Y-104757844D01*
X141333237Y-104826917D01*
X141222428Y-104868380D01*
X141186480Y-104887829D01*
X141168483Y-104929570D01*
X141168106Y-104931411D01*
X141165947Y-104949033D01*
X141168616Y-104967078D01*
X141178720Y-104988892D01*
X141198863Y-105017823D01*
X141231651Y-105057217D01*
X141279690Y-105110423D01*
X141345584Y-105180786D01*
X141431940Y-105271654D01*
X141437520Y-105277507D01*
X141530405Y-105375044D01*
X141629155Y-105478933D01*
X141726984Y-105582023D01*
X141817107Y-105677161D01*
X141892738Y-105757196D01*
X141909605Y-105775089D01*
X141974265Y-105842556D01*
X142031705Y-105900291D01*
X142077801Y-105944325D01*
X142108431Y-105970686D01*
X142118715Y-105976479D01*
X142134052Y-105964354D01*
X142169917Y-105931090D01*
X142223488Y-105879458D01*
X142291940Y-105812225D01*
X142372447Y-105732163D01*
X142462187Y-105642039D01*
X142535532Y-105567802D01*
X142935409Y-105161723D01*
X143172358Y-105161723D01*
X143158709Y-105177297D01*
X143130429Y-105212929D01*
X143115517Y-105236571D01*
X143112199Y-105247520D01*
X143113456Y-105271414D01*
X143117274Y-105325499D01*
X143123407Y-105406662D01*
X143131607Y-105511790D01*
X143141627Y-105637772D01*
X143153220Y-105781495D01*
X143166140Y-105939846D01*
X143180138Y-106109713D01*
X143191419Y-106245472D01*
X143255250Y-107010894D01*
X143091004Y-107010894D01*
X143090297Y-106994376D01*
X143086969Y-106947855D01*
X143081290Y-106874622D01*
X143073526Y-106777972D01*
X143063943Y-106661195D01*
X143052811Y-106527586D01*
X143040395Y-106380437D01*
X143028480Y-106240729D01*
X143014984Y-106082213D01*
X143002413Y-105932579D01*
X142991055Y-105795398D01*
X142981198Y-105674241D01*
X142973130Y-105572680D01*
X142967140Y-105494288D01*
X142963515Y-105442637D01*
X142962509Y-105422577D01*
X142960940Y-105410092D01*
X142954722Y-105405138D01*
X142941459Y-105409782D01*
X142918753Y-105426091D01*
X142884208Y-105456132D01*
X142835427Y-105501973D01*
X142770013Y-105565680D01*
X142685569Y-105649321D01*
X142595971Y-105738701D01*
X142229574Y-106104814D01*
X142232141Y-106107566D01*
X141989951Y-106107566D01*
X141978913Y-106092450D01*
X141948013Y-106056858D01*
X141900347Y-106004059D01*
X141839013Y-105937327D01*
X141767107Y-105859930D01*
X141687727Y-105775142D01*
X141603969Y-105686233D01*
X141518930Y-105596474D01*
X141435708Y-105509136D01*
X141357399Y-105427491D01*
X141287100Y-105354809D01*
X141227909Y-105294363D01*
X141182922Y-105249422D01*
X141155236Y-105223258D01*
X141147686Y-105217928D01*
X141145197Y-105235133D01*
X141140030Y-105282652D01*
X141132470Y-105357511D01*
X141122800Y-105456736D01*
X141111305Y-105577351D01*
X141098269Y-105716382D01*
X141083976Y-105870855D01*
X141068710Y-106037794D01*
X141056521Y-106172403D01*
X141040929Y-106346946D01*
X141026523Y-106511373D01*
X141013547Y-106662701D01*
X141002241Y-106797947D01*
X140992848Y-106914130D01*
X140985611Y-107008265D01*
X140980772Y-107077370D01*
X140978573Y-107118462D01*
X140978824Y-107129132D01*
X140991970Y-107119628D01*
X141025446Y-107089080D01*
X141076326Y-107040444D01*
X141141683Y-106976677D01*
X141218591Y-106900735D01*
X141304124Y-106815576D01*
X141395354Y-106724155D01*
X141489356Y-106629431D01*
X141583202Y-106534359D01*
X141673967Y-106441897D01*
X141758723Y-106355001D01*
X141834544Y-106276628D01*
X141898503Y-106209735D01*
X141947674Y-106157278D01*
X141979131Y-106122215D01*
X141989951Y-106107566D01*
X142232141Y-106107566D01*
X142366202Y-106251240D01*
X142435784Y-106325552D01*
X142513881Y-106408517D01*
X142597406Y-106496898D01*
X142683270Y-106587459D01*
X142768385Y-106676964D01*
X142849664Y-106762177D01*
X142924019Y-106839861D01*
X142988363Y-106906780D01*
X143039606Y-106959697D01*
X143074663Y-106995377D01*
X143090444Y-107010584D01*
X143091004Y-107010894D01*
X143255250Y-107010894D01*
X143271204Y-107202193D01*
X144069286Y-108041515D01*
X144867368Y-108880836D01*
X144866781Y-108998148D01*
X144866194Y-109115461D01*
X144737275Y-108977747D01*
X144665124Y-108900937D01*
X144579940Y-108810696D01*
X144484021Y-108709425D01*
X144379666Y-108599524D01*
X144269174Y-108483396D01*
X144154844Y-108363442D01*
X144038975Y-108242064D01*
X143923865Y-108121662D01*
X143811814Y-108004638D01*
X143705119Y-107893394D01*
X143606080Y-107790331D01*
X143516997Y-107697850D01*
X143440166Y-107618353D01*
X143377888Y-107554242D01*
X143332462Y-107507917D01*
X143306185Y-107481781D01*
X143300426Y-107476767D01*
X143300030Y-107494209D01*
X143302208Y-107538865D01*
X143306583Y-107604660D01*
X143312775Y-107685517D01*
X143315433Y-107717817D01*
X143335228Y-107954079D01*
X143180242Y-107954079D01*
X143172240Y-107916480D01*
X143168160Y-107886745D01*
X143162425Y-107830797D01*
X143155701Y-107755764D01*
X143148648Y-107668775D01*
X143146207Y-107636579D01*
X143139008Y-107544139D01*
X143131742Y-107458293D01*
X143125136Y-107387153D01*
X143119916Y-107338831D01*
X143118739Y-107330061D01*
X143114298Y-107312058D01*
X143104687Y-107290983D01*
X143087860Y-107264475D01*
X143061775Y-107230172D01*
X143024387Y-107185711D01*
X142973654Y-107128729D01*
X142907530Y-107056864D01*
X142823974Y-106967754D01*
X142720940Y-106859036D01*
X142615833Y-106748725D01*
X142511262Y-106639559D01*
X142413649Y-106538460D01*
X142325422Y-106447885D01*
X142249012Y-106370292D01*
X142186849Y-106308138D01*
X142141363Y-106263882D01*
X142114983Y-106239982D01*
X142109357Y-106236426D01*
X142094557Y-106249319D01*
X142059961Y-106282940D01*
X142008929Y-106333918D01*
X141944817Y-106398880D01*
X141870984Y-106474452D01*
X141817589Y-106529507D01*
X141538827Y-106817763D01*
X142360790Y-106817763D01*
X142360790Y-107135263D01*
X141358158Y-107135263D01*
X141358158Y-106993794D01*
X141174342Y-107177040D01*
X141043948Y-107307029D01*
X140790000Y-107307029D01*
X140787571Y-107286523D01*
X140775276Y-107275098D01*
X140745604Y-107270120D01*
X140691045Y-107268956D01*
X140681382Y-107268948D01*
X140572763Y-107268948D01*
X140572763Y-107560416D01*
X140681382Y-107452763D01*
X140742654Y-107387313D01*
X140779301Y-107337171D01*
X140790000Y-107307029D01*
X141043948Y-107307029D01*
X140990526Y-107360285D01*
X140990526Y-107523498D01*
X140990015Y-107598586D01*
X140987672Y-107646355D01*
X140982289Y-107672902D01*
X140972656Y-107684321D01*
X140958129Y-107686711D01*
X140941973Y-107690220D01*
X140930031Y-107704289D01*
X140920861Y-107734231D01*
X140913018Y-107785358D01*
X140905058Y-107862983D01*
X140902504Y-107891415D01*
X140896974Y-107954079D01*
X143180242Y-107954079D01*
X143335228Y-107954079D01*
X143547237Y-107954079D01*
X143547237Y-108104474D01*
X143457141Y-108104474D01*
X143404445Y-108105917D01*
X143375812Y-108112884D01*
X143372309Y-108117030D01*
X143187766Y-108117030D01*
X143178054Y-108107558D01*
X143144412Y-108104634D01*
X143121706Y-108104474D01*
X143045921Y-108104474D01*
X142763306Y-108104474D01*
X140883481Y-108104474D01*
X140947062Y-108169587D01*
X141045814Y-108249938D01*
X141168032Y-108311911D01*
X141315787Y-108356354D01*
X141462599Y-108380935D01*
X141558684Y-108392404D01*
X141558684Y-108271579D01*
X142327368Y-108271579D01*
X142327368Y-108408655D01*
X142440165Y-108397224D01*
X142518975Y-108387575D01*
X142602943Y-108374786D01*
X142653224Y-108365652D01*
X142753487Y-108345512D01*
X142758397Y-108224993D01*
X142763306Y-108104474D01*
X143045921Y-108104474D01*
X143045921Y-108171316D01*
X143048131Y-108213190D01*
X143053650Y-108236464D01*
X143055874Y-108238158D01*
X143080613Y-108227440D01*
X143116757Y-108201437D01*
X143152990Y-108169377D01*
X143177999Y-108140489D01*
X143180227Y-108136733D01*
X143187766Y-108117030D01*
X143372309Y-108117030D01*
X143361919Y-108129326D01*
X143356311Y-108147238D01*
X143333422Y-108193721D01*
X143289460Y-108249600D01*
X143231989Y-108307040D01*
X143168573Y-108358207D01*
X143126918Y-108384857D01*
X143079466Y-108414028D01*
X143055141Y-108438533D01*
X143046595Y-108467428D01*
X143045938Y-108484638D01*
X143045937Y-108488816D01*
X142193684Y-108488816D01*
X142193684Y-108405263D01*
X141692368Y-108405263D01*
X141692368Y-108488816D01*
X142193684Y-108488816D01*
X143045937Y-108488816D01*
X143045921Y-108538948D01*
X142905274Y-108538948D01*
X142840564Y-108537383D01*
X142790130Y-108533215D01*
X142762094Y-108527227D01*
X142759057Y-108524803D01*
X142741273Y-108521082D01*
X142697992Y-108522606D01*
X142636651Y-108528925D01*
X142594737Y-108534760D01*
X142518737Y-108546222D01*
X142449230Y-108556570D01*
X142396997Y-108564204D01*
X142381678Y-108566373D01*
X142341653Y-108578768D01*
X142327368Y-108598192D01*
X142323025Y-108606102D01*
X142307490Y-108612137D01*
X142277001Y-108616534D01*
X142227800Y-108619531D01*
X142156126Y-108621365D01*
X142058219Y-108622275D01*
X141943026Y-108622500D01*
X141820086Y-108622372D01*
X141726559Y-108621770D01*
X141658440Y-108620361D01*
X141611719Y-108617819D01*
X141582391Y-108613811D01*
X141566449Y-108608009D01*
X141559885Y-108600083D01*
X141558684Y-108590867D01*
X141548460Y-108561615D01*
X141514970Y-108544969D01*
X141453988Y-108539032D01*
X141443017Y-108538948D01*
X141339746Y-108528294D01*
X141222453Y-108498967D01*
X141101715Y-108454916D01*
X140988111Y-108400089D01*
X140892219Y-108338436D01*
X140879799Y-108328668D01*
X140839318Y-108296885D01*
X140815345Y-108284156D01*
X140798604Y-108288271D01*
X140781419Y-108305250D01*
X140730664Y-108338508D01*
X140664607Y-108351275D01*
X140593474Y-108344635D01*
X140527486Y-108319673D01*
X140476868Y-108277471D01*
X140473203Y-108272566D01*
X140435328Y-108193789D01*
X140428281Y-108112246D01*
X140451285Y-108034513D01*
X140503563Y-107967165D01*
X140509956Y-107961604D01*
X140547073Y-107935187D01*
X140584733Y-107923553D01*
X140637676Y-107922713D01*
X140650902Y-107923458D01*
X140702703Y-107925359D01*
X140729386Y-107921004D01*
X140739045Y-107907862D01*
X140740037Y-107895592D01*
X140742061Y-107859998D01*
X140747086Y-107806467D01*
X140750697Y-107774441D01*
X140755934Y-107723573D01*
X140753756Y-107697532D01*
X140741125Y-107688014D01*
X140718625Y-107686711D01*
X140705282Y-107691014D01*
X140683756Y-107704943D01*
X140652452Y-107730023D01*
X140609776Y-107767781D01*
X140554132Y-107819744D01*
X140483925Y-107887438D01*
X140397560Y-107972389D01*
X140293442Y-108076125D01*
X140169975Y-108200172D01*
X140025564Y-108346056D01*
X139955969Y-108416551D01*
X139235921Y-109146390D01*
X139236744Y-109030663D01*
G36*
X139737237Y-101119474D02*
G01*
X144416184Y-101119474D01*
X144416184Y-102272500D01*
X139737237Y-102272500D01*
X139737237Y-101119474D01*
G37*
X139737237Y-101119474D02*
X144416184Y-101119474D01*
X144416184Y-102272500D01*
X139737237Y-102272500D01*
X139737237Y-101119474D01*
D12*
X136607600Y-96176500D02*
X136607600Y-102186500D01*
X129787600Y-98426500D02*
X129787600Y-102186500D01*
X136607600Y-102186500D02*
X135347600Y-102186500D01*
X129787600Y-102186500D02*
X131047600Y-102186500D01*
X84602500Y-103630400D02*
X81152500Y-103630400D01*
X84602500Y-103630400D02*
X86552500Y-103630400D01*
X84602500Y-108750400D02*
X82652500Y-108750400D01*
X84602500Y-108750400D02*
X86552500Y-108750400D01*
X80630000Y-100135200D02*
X82130000Y-100135200D01*
X80630000Y-102635200D02*
X80630000Y-100135200D01*
X82130000Y-102635200D02*
X80630000Y-102635200D01*
X82130000Y-100135200D02*
X82130000Y-102635200D01*
X87835500Y-102847600D02*
X86335500Y-102847600D01*
X87835500Y-100347600D02*
X87835500Y-102847600D01*
X86335500Y-100347600D02*
X87835500Y-100347600D01*
X86335500Y-102847600D02*
X86335500Y-100347600D01*
X82120000Y-96880000D02*
X80620000Y-96880000D01*
X82120000Y-94380000D02*
X82120000Y-96880000D01*
X80620000Y-94380000D02*
X82120000Y-94380000D01*
X80620000Y-96880000D02*
X80620000Y-94380000D01*
X88070000Y-95080000D02*
X86570000Y-95080000D01*
X88070000Y-92580000D02*
X88070000Y-95080000D01*
X86570000Y-92580000D02*
X88070000Y-92580000D01*
X86570000Y-95080000D02*
X86570000Y-92580000D01*
X135960000Y-93121267D02*
X135960000Y-92778733D01*
X134940000Y-93121267D02*
X134940000Y-92778733D01*
X131940000Y-92778733D02*
X131940000Y-93121267D01*
X132960000Y-92778733D02*
X132960000Y-93121267D01*
X87059767Y-98504900D02*
X86717233Y-98504900D01*
X87059767Y-99524900D02*
X86717233Y-99524900D01*
X87121267Y-96440000D02*
X86778733Y-96440000D01*
X87121267Y-97460000D02*
X86778733Y-97460000D01*
X71210000Y-102520000D02*
X71210000Y-92240000D01*
X71210000Y-92240000D02*
X68550000Y-92240000D01*
X68550000Y-92240000D02*
X68550000Y-102520000D01*
X68550000Y-102520000D02*
X71210000Y-102520000D01*
X68550000Y-101570000D02*
X62550000Y-101570000D01*
X62550000Y-101570000D02*
X62550000Y-100810000D01*
X62550000Y-100810000D02*
X68550000Y-100810000D01*
X68550000Y-101510000D02*
X62550000Y-101510000D01*
X68550000Y-101390000D02*
X62550000Y-101390000D01*
X68550000Y-101270000D02*
X62550000Y-101270000D01*
X68550000Y-101150000D02*
X62550000Y-101150000D01*
X68550000Y-101030000D02*
X62550000Y-101030000D01*
X68550000Y-100910000D02*
X62550000Y-100910000D01*
X71540000Y-101570000D02*
X71210000Y-101570000D01*
X71540000Y-100810000D02*
X71210000Y-100810000D01*
X71210000Y-99920000D02*
X68550000Y-99920000D01*
X68550000Y-99030000D02*
X62550000Y-99030000D01*
X62550000Y-99030000D02*
X62550000Y-98270000D01*
X62550000Y-98270000D02*
X68550000Y-98270000D01*
X71607071Y-99030000D02*
X71210000Y-99030000D01*
X71607071Y-98270000D02*
X71210000Y-98270000D01*
X71210000Y-97380000D02*
X68550000Y-97380000D01*
X68550000Y-96490000D02*
X62550000Y-96490000D01*
X62550000Y-96490000D02*
X62550000Y-95730000D01*
X62550000Y-95730000D02*
X68550000Y-95730000D01*
X71607071Y-96490000D02*
X71210000Y-96490000D01*
X71607071Y-95730000D02*
X71210000Y-95730000D01*
X71210000Y-94840000D02*
X68550000Y-94840000D01*
X68550000Y-93950000D02*
X62550000Y-93950000D01*
X62550000Y-93950000D02*
X62550000Y-93190000D01*
X62550000Y-93190000D02*
X68550000Y-93190000D01*
X71607071Y-93950000D02*
X71210000Y-93950000D01*
X71607071Y-93190000D02*
X71210000Y-93190000D01*
X73920000Y-101190000D02*
X73920000Y-102460000D01*
X73920000Y-102460000D02*
X72650000Y-102460000D01*
X119160000Y-101590000D02*
X106340000Y-101590000D01*
X106340000Y-101590000D02*
X106340000Y-104250000D01*
X106340000Y-104250000D02*
X119160000Y-104250000D01*
X119160000Y-104250000D02*
X119160000Y-101590000D01*
X118210000Y-104250000D02*
X118210000Y-110250000D01*
X118210000Y-110250000D02*
X117450000Y-110250000D01*
X117450000Y-110250000D02*
X117450000Y-104250000D01*
X118150000Y-104250000D02*
X118150000Y-110250000D01*
X118030000Y-104250000D02*
X118030000Y-110250000D01*
X117910000Y-104250000D02*
X117910000Y-110250000D01*
X117790000Y-104250000D02*
X117790000Y-110250000D01*
X117670000Y-104250000D02*
X117670000Y-110250000D01*
X117550000Y-104250000D02*
X117550000Y-110250000D01*
X118210000Y-101260000D02*
X118210000Y-101590000D01*
X117450000Y-101260000D02*
X117450000Y-101590000D01*
X116560000Y-101590000D02*
X116560000Y-104250000D01*
X115670000Y-104250000D02*
X115670000Y-110250000D01*
X115670000Y-110250000D02*
X114910000Y-110250000D01*
X114910000Y-110250000D02*
X114910000Y-104250000D01*
X115670000Y-101192929D02*
X115670000Y-101590000D01*
X114910000Y-101192929D02*
X114910000Y-101590000D01*
X114020000Y-101590000D02*
X114020000Y-104250000D01*
X113130000Y-104250000D02*
X113130000Y-110250000D01*
X113130000Y-110250000D02*
X112370000Y-110250000D01*
X112370000Y-110250000D02*
X112370000Y-104250000D01*
X113130000Y-101192929D02*
X113130000Y-101590000D01*
X112370000Y-101192929D02*
X112370000Y-101590000D01*
X111480000Y-101590000D02*
X111480000Y-104250000D01*
X110590000Y-104250000D02*
X110590000Y-110250000D01*
X110590000Y-110250000D02*
X109830000Y-110250000D01*
X109830000Y-110250000D02*
X109830000Y-104250000D01*
X110590000Y-101192929D02*
X110590000Y-101590000D01*
X109830000Y-101192929D02*
X109830000Y-101590000D01*
X108940000Y-101590000D02*
X108940000Y-104250000D01*
X108050000Y-104250000D02*
X108050000Y-110250000D01*
X108050000Y-110250000D02*
X107290000Y-110250000D01*
X107290000Y-110250000D02*
X107290000Y-104250000D01*
X108050000Y-101192929D02*
X108050000Y-101590000D01*
X107290000Y-101192929D02*
X107290000Y-101590000D01*
X117830000Y-98880000D02*
X119100000Y-98880000D01*
X119100000Y-98880000D02*
X119100000Y-100150000D01*
D10*
X105093333Y-77467619D02*
X105093333Y-76753333D01*
X105140952Y-76610476D01*
X105236190Y-76515238D01*
X105379047Y-76467619D01*
X105474285Y-76467619D01*
X104093333Y-76467619D02*
X104664761Y-76467619D01*
X104379047Y-76467619D02*
X104379047Y-77467619D01*
X104474285Y-77324761D01*
X104569523Y-77229523D01*
X104664761Y-77181904D01*
X84158095Y-88885280D02*
X84158095Y-89694804D01*
X84205714Y-89790042D01*
X84253333Y-89837661D01*
X84348571Y-89885280D01*
X84539047Y-89885280D01*
X84634285Y-89837661D01*
X84681904Y-89790042D01*
X84729523Y-89694804D01*
X84729523Y-88885280D01*
X85729523Y-89885280D02*
X85158095Y-89885280D01*
X85443809Y-89885280D02*
X85443809Y-88885280D01*
X85348571Y-89028138D01*
X85253333Y-89123376D01*
X85158095Y-89170995D01*
X134010304Y-100863219D02*
X134010304Y-100053695D01*
X133962685Y-99958457D01*
X133915066Y-99910838D01*
X133819828Y-99863219D01*
X133629352Y-99863219D01*
X133534114Y-99910838D01*
X133486495Y-99958457D01*
X133438876Y-100053695D01*
X133438876Y-100863219D01*
X133057923Y-100863219D02*
X132438876Y-100863219D01*
X132772209Y-100482266D01*
X132629352Y-100482266D01*
X132534114Y-100434647D01*
X132486495Y-100387028D01*
X132438876Y-100291790D01*
X132438876Y-100053695D01*
X132486495Y-99958457D01*
X132534114Y-99910838D01*
X132629352Y-99863219D01*
X132915066Y-99863219D01*
X133010304Y-99910838D01*
X133057923Y-99958457D01*
X85300904Y-106865019D02*
X85300904Y-106055495D01*
X85253285Y-105960257D01*
X85205666Y-105912638D01*
X85110428Y-105865019D01*
X84919952Y-105865019D01*
X84824714Y-105912638D01*
X84777095Y-105960257D01*
X84729476Y-106055495D01*
X84729476Y-106865019D01*
X84300904Y-106769780D02*
X84253285Y-106817400D01*
X84158047Y-106865019D01*
X83919952Y-106865019D01*
X83824714Y-106817400D01*
X83777095Y-106769780D01*
X83729476Y-106674542D01*
X83729476Y-106579304D01*
X83777095Y-106436447D01*
X84348523Y-105865019D01*
X83729476Y-105865019D01*
X80821280Y-101225361D02*
X80868900Y-101130123D01*
X80964138Y-101034885D01*
X81106995Y-100892028D01*
X81154614Y-100796790D01*
X81154614Y-100701552D01*
X80916519Y-100749171D02*
X80964138Y-100653933D01*
X81059376Y-100558695D01*
X81249852Y-100511076D01*
X81583185Y-100511076D01*
X81773661Y-100558695D01*
X81868900Y-100653933D01*
X81916519Y-100749171D01*
X81916519Y-100939647D01*
X81868900Y-101034885D01*
X81773661Y-101130123D01*
X81583185Y-101177742D01*
X81249852Y-101177742D01*
X81059376Y-101130123D01*
X80964138Y-101034885D01*
X80916519Y-100939647D01*
X80916519Y-100749171D01*
X81583185Y-102034885D02*
X80916519Y-102034885D01*
X81964138Y-101796790D02*
X81249852Y-101558695D01*
X81249852Y-102177742D01*
X86523580Y-101428561D02*
X86571200Y-101333323D01*
X86666438Y-101238085D01*
X86809295Y-101095228D01*
X86856914Y-100999990D01*
X86856914Y-100904752D01*
X86618819Y-100952371D02*
X86666438Y-100857133D01*
X86761676Y-100761895D01*
X86952152Y-100714276D01*
X87285485Y-100714276D01*
X87475961Y-100761895D01*
X87571200Y-100857133D01*
X87618819Y-100952371D01*
X87618819Y-101142847D01*
X87571200Y-101238085D01*
X87475961Y-101333323D01*
X87285485Y-101380942D01*
X86952152Y-101380942D01*
X86761676Y-101333323D01*
X86666438Y-101238085D01*
X86618819Y-101142847D01*
X86618819Y-100952371D01*
X87618819Y-101714276D02*
X87618819Y-102333323D01*
X87237866Y-101999990D01*
X87237866Y-102142847D01*
X87190247Y-102238085D01*
X87142628Y-102285704D01*
X87047390Y-102333323D01*
X86809295Y-102333323D01*
X86714057Y-102285704D01*
X86666438Y-102238085D01*
X86618819Y-102142847D01*
X86618819Y-101857133D01*
X86666438Y-101761895D01*
X86714057Y-101714276D01*
X80802380Y-95504761D02*
X80850000Y-95409523D01*
X80945238Y-95314285D01*
X81088095Y-95171428D01*
X81135714Y-95076190D01*
X81135714Y-94980952D01*
X80897619Y-95028571D02*
X80945238Y-94933333D01*
X81040476Y-94838095D01*
X81230952Y-94790476D01*
X81564285Y-94790476D01*
X81754761Y-94838095D01*
X81850000Y-94933333D01*
X81897619Y-95028571D01*
X81897619Y-95219047D01*
X81850000Y-95314285D01*
X81754761Y-95409523D01*
X81564285Y-95457142D01*
X81230952Y-95457142D01*
X81040476Y-95409523D01*
X80945238Y-95314285D01*
X80897619Y-95219047D01*
X80897619Y-95028571D01*
X81802380Y-95838095D02*
X81850000Y-95885714D01*
X81897619Y-95980952D01*
X81897619Y-96219047D01*
X81850000Y-96314285D01*
X81802380Y-96361904D01*
X81707142Y-96409523D01*
X81611904Y-96409523D01*
X81469047Y-96361904D01*
X80897619Y-95790476D01*
X80897619Y-96409523D01*
X86765880Y-93768261D02*
X86813500Y-93673023D01*
X86908738Y-93577785D01*
X87051595Y-93434928D01*
X87099214Y-93339690D01*
X87099214Y-93244452D01*
X86861119Y-93292071D02*
X86908738Y-93196833D01*
X87003976Y-93101595D01*
X87194452Y-93053976D01*
X87527785Y-93053976D01*
X87718261Y-93101595D01*
X87813500Y-93196833D01*
X87861119Y-93292071D01*
X87861119Y-93482547D01*
X87813500Y-93577785D01*
X87718261Y-93673023D01*
X87527785Y-93720642D01*
X87194452Y-93720642D01*
X87003976Y-93673023D01*
X86908738Y-93577785D01*
X86861119Y-93482547D01*
X86861119Y-93292071D01*
X86861119Y-94673023D02*
X86861119Y-94101595D01*
X86861119Y-94387309D02*
X87861119Y-94387309D01*
X87718261Y-94292071D01*
X87623023Y-94196833D01*
X87575404Y-94101595D01*
X136426357Y-92782033D02*
X136378738Y-92734414D01*
X136331119Y-92591557D01*
X136331119Y-92496319D01*
X136378738Y-92353461D01*
X136473976Y-92258223D01*
X136569214Y-92210604D01*
X136759690Y-92162985D01*
X136902547Y-92162985D01*
X137093023Y-92210604D01*
X137188261Y-92258223D01*
X137283500Y-92353461D01*
X137331119Y-92496319D01*
X137331119Y-92591557D01*
X137283500Y-92734414D01*
X137235880Y-92782033D01*
X136997785Y-93639176D02*
X136331119Y-93639176D01*
X137378738Y-93401080D02*
X136664452Y-93162985D01*
X136664452Y-93782033D01*
X133452857Y-92803333D02*
X133405238Y-92755714D01*
X133357619Y-92612857D01*
X133357619Y-92517619D01*
X133405238Y-92374761D01*
X133500476Y-92279523D01*
X133595714Y-92231904D01*
X133786190Y-92184285D01*
X133929047Y-92184285D01*
X134119523Y-92231904D01*
X134214761Y-92279523D01*
X134310000Y-92374761D01*
X134357619Y-92517619D01*
X134357619Y-92612857D01*
X134310000Y-92755714D01*
X134262380Y-92803333D01*
X134357619Y-93136666D02*
X134357619Y-93755714D01*
X133976666Y-93422380D01*
X133976666Y-93565238D01*
X133929047Y-93660476D01*
X133881428Y-93708095D01*
X133786190Y-93755714D01*
X133548095Y-93755714D01*
X133452857Y-93708095D01*
X133405238Y-93660476D01*
X133357619Y-93565238D01*
X133357619Y-93279523D01*
X133405238Y-93184285D01*
X133452857Y-93136666D01*
X89816666Y-98702857D02*
X89864285Y-98655238D01*
X90007142Y-98607619D01*
X90102380Y-98607619D01*
X90245238Y-98655238D01*
X90340476Y-98750476D01*
X90388095Y-98845714D01*
X90435714Y-99036190D01*
X90435714Y-99179047D01*
X90388095Y-99369523D01*
X90340476Y-99464761D01*
X90245238Y-99560000D01*
X90102380Y-99607619D01*
X90007142Y-99607619D01*
X89864285Y-99560000D01*
X89816666Y-99512380D01*
X89435714Y-99512380D02*
X89388095Y-99560000D01*
X89292857Y-99607619D01*
X89054761Y-99607619D01*
X88959523Y-99560000D01*
X88911904Y-99512380D01*
X88864285Y-99417142D01*
X88864285Y-99321904D01*
X88911904Y-99179047D01*
X89483333Y-98607619D01*
X88864285Y-98607619D01*
X89816666Y-96542857D02*
X89864285Y-96495238D01*
X90007142Y-96447619D01*
X90102380Y-96447619D01*
X90245238Y-96495238D01*
X90340476Y-96590476D01*
X90388095Y-96685714D01*
X90435714Y-96876190D01*
X90435714Y-97019047D01*
X90388095Y-97209523D01*
X90340476Y-97304761D01*
X90245238Y-97400000D01*
X90102380Y-97447619D01*
X90007142Y-97447619D01*
X89864285Y-97400000D01*
X89816666Y-97352380D01*
X88864285Y-96447619D02*
X89435714Y-96447619D01*
X89150000Y-96447619D02*
X89150000Y-97447619D01*
X89245238Y-97304761D01*
X89340476Y-97209523D01*
X89435714Y-97161904D01*
X70203333Y-101897619D02*
X70203333Y-101183333D01*
X70250952Y-101040476D01*
X70346190Y-100945238D01*
X70489047Y-100897619D01*
X70584285Y-100897619D01*
X69822380Y-101897619D02*
X69203333Y-101897619D01*
X69536666Y-101516666D01*
X69393809Y-101516666D01*
X69298571Y-101469047D01*
X69250952Y-101421428D01*
X69203333Y-101326190D01*
X69203333Y-101088095D01*
X69250952Y-100992857D01*
X69298571Y-100945238D01*
X69393809Y-100897619D01*
X69679523Y-100897619D01*
X69774761Y-100945238D01*
X69822380Y-100992857D01*
X118223333Y-103577619D02*
X118223333Y-102863333D01*
X118270952Y-102720476D01*
X118366190Y-102625238D01*
X118509047Y-102577619D01*
X118604285Y-102577619D01*
X117794761Y-103482380D02*
X117747142Y-103530000D01*
X117651904Y-103577619D01*
X117413809Y-103577619D01*
X117318571Y-103530000D01*
X117270952Y-103482380D01*
X117223333Y-103387142D01*
X117223333Y-103291904D01*
X117270952Y-103149047D01*
X117842380Y-102577619D01*
X117223333Y-102577619D01*
M02*
