G04 #@! TF.GenerationSoftware,KiCad,Pcbnew,(5.1.5-0-10_14)*
G04 #@! TF.CreationDate,2020-04-21T13:10:17+02:00*
G04 #@! TF.ProjectId,Curiosity_Nano_Full-bridge_module_rev1,43757269-6f73-4697-9479-5f4e616e6f5f,rev?*
G04 #@! TF.SameCoordinates,Original*
G04 #@! TF.FileFunction,Paste,Top*
G04 #@! TF.FilePolarity,Positive*
%FSLAX46Y46*%
G04 Gerber Fmt 4.6, Leading zero omitted, Abs format (unit mm)*
G04 Created by KiCad (PCBNEW (5.1.5-0-10_14)) date 2020-04-21 13:10:17*
%MOMM*%
%LPD*%
G04 APERTURE LIST*
%ADD10C,0.100000*%
%ADD11R,1.000000X2.200000*%
%ADD12R,3.400000X1.800000*%
%ADD13R,0.450000X0.480000*%
G04 APERTURE END LIST*
D10*
G36*
X70696657Y-63398046D02*
G01*
X70737913Y-63404166D01*
X70778371Y-63414300D01*
X70817640Y-63428351D01*
X70855344Y-63446183D01*
X70891117Y-63467625D01*
X70924617Y-63492471D01*
X70955520Y-63520480D01*
X70983529Y-63551383D01*
X71008375Y-63584883D01*
X71029817Y-63620656D01*
X71047649Y-63658360D01*
X71061700Y-63697629D01*
X71071834Y-63738087D01*
X71077954Y-63779343D01*
X71080000Y-63821000D01*
X71080000Y-66671000D01*
X71077954Y-66712657D01*
X71071834Y-66753913D01*
X71061700Y-66794371D01*
X71047649Y-66833640D01*
X71029817Y-66871344D01*
X71008375Y-66907117D01*
X70983529Y-66940617D01*
X70955520Y-66971520D01*
X70924617Y-66999529D01*
X70891117Y-67024375D01*
X70855344Y-67045817D01*
X70817640Y-67063649D01*
X70778371Y-67077700D01*
X70737913Y-67087834D01*
X70696657Y-67093954D01*
X70655000Y-67096000D01*
X69805000Y-67096000D01*
X69763343Y-67093954D01*
X69722087Y-67087834D01*
X69681629Y-67077700D01*
X69642360Y-67063649D01*
X69604656Y-67045817D01*
X69568883Y-67024375D01*
X69535383Y-66999529D01*
X69504480Y-66971520D01*
X69476471Y-66940617D01*
X69451625Y-66907117D01*
X69430183Y-66871344D01*
X69412351Y-66833640D01*
X69398300Y-66794371D01*
X69388166Y-66753913D01*
X69382046Y-66712657D01*
X69380000Y-66671000D01*
X69380000Y-63821000D01*
X69382046Y-63779343D01*
X69388166Y-63738087D01*
X69398300Y-63697629D01*
X69412351Y-63658360D01*
X69430183Y-63620656D01*
X69451625Y-63584883D01*
X69476471Y-63551383D01*
X69504480Y-63520480D01*
X69535383Y-63492471D01*
X69568883Y-63467625D01*
X69604656Y-63446183D01*
X69642360Y-63428351D01*
X69681629Y-63414300D01*
X69722087Y-63404166D01*
X69763343Y-63398046D01*
X69805000Y-63396000D01*
X70655000Y-63396000D01*
X70696657Y-63398046D01*
G37*
G36*
X73236657Y-63398046D02*
G01*
X73277913Y-63404166D01*
X73318371Y-63414300D01*
X73357640Y-63428351D01*
X73395344Y-63446183D01*
X73431117Y-63467625D01*
X73464617Y-63492471D01*
X73495520Y-63520480D01*
X73523529Y-63551383D01*
X73548375Y-63584883D01*
X73569817Y-63620656D01*
X73587649Y-63658360D01*
X73601700Y-63697629D01*
X73611834Y-63738087D01*
X73617954Y-63779343D01*
X73620000Y-63821000D01*
X73620000Y-66671000D01*
X73617954Y-66712657D01*
X73611834Y-66753913D01*
X73601700Y-66794371D01*
X73587649Y-66833640D01*
X73569817Y-66871344D01*
X73548375Y-66907117D01*
X73523529Y-66940617D01*
X73495520Y-66971520D01*
X73464617Y-66999529D01*
X73431117Y-67024375D01*
X73395344Y-67045817D01*
X73357640Y-67063649D01*
X73318371Y-67077700D01*
X73277913Y-67087834D01*
X73236657Y-67093954D01*
X73195000Y-67096000D01*
X72345000Y-67096000D01*
X72303343Y-67093954D01*
X72262087Y-67087834D01*
X72221629Y-67077700D01*
X72182360Y-67063649D01*
X72144656Y-67045817D01*
X72108883Y-67024375D01*
X72075383Y-66999529D01*
X72044480Y-66971520D01*
X72016471Y-66940617D01*
X71991625Y-66907117D01*
X71970183Y-66871344D01*
X71952351Y-66833640D01*
X71938300Y-66794371D01*
X71928166Y-66753913D01*
X71922046Y-66712657D01*
X71920000Y-66671000D01*
X71920000Y-63821000D01*
X71922046Y-63779343D01*
X71928166Y-63738087D01*
X71938300Y-63697629D01*
X71952351Y-63658360D01*
X71970183Y-63620656D01*
X71991625Y-63584883D01*
X72016471Y-63551383D01*
X72044480Y-63520480D01*
X72075383Y-63492471D01*
X72108883Y-63467625D01*
X72144656Y-63446183D01*
X72182360Y-63428351D01*
X72221629Y-63414300D01*
X72262087Y-63404166D01*
X72303343Y-63398046D01*
X72345000Y-63396000D01*
X73195000Y-63396000D01*
X73236657Y-63398046D01*
G37*
G36*
X75776657Y-63398046D02*
G01*
X75817913Y-63404166D01*
X75858371Y-63414300D01*
X75897640Y-63428351D01*
X75935344Y-63446183D01*
X75971117Y-63467625D01*
X76004617Y-63492471D01*
X76035520Y-63520480D01*
X76063529Y-63551383D01*
X76088375Y-63584883D01*
X76109817Y-63620656D01*
X76127649Y-63658360D01*
X76141700Y-63697629D01*
X76151834Y-63738087D01*
X76157954Y-63779343D01*
X76160000Y-63821000D01*
X76160000Y-66671000D01*
X76157954Y-66712657D01*
X76151834Y-66753913D01*
X76141700Y-66794371D01*
X76127649Y-66833640D01*
X76109817Y-66871344D01*
X76088375Y-66907117D01*
X76063529Y-66940617D01*
X76035520Y-66971520D01*
X76004617Y-66999529D01*
X75971117Y-67024375D01*
X75935344Y-67045817D01*
X75897640Y-67063649D01*
X75858371Y-67077700D01*
X75817913Y-67087834D01*
X75776657Y-67093954D01*
X75735000Y-67096000D01*
X74885000Y-67096000D01*
X74843343Y-67093954D01*
X74802087Y-67087834D01*
X74761629Y-67077700D01*
X74722360Y-67063649D01*
X74684656Y-67045817D01*
X74648883Y-67024375D01*
X74615383Y-66999529D01*
X74584480Y-66971520D01*
X74556471Y-66940617D01*
X74531625Y-66907117D01*
X74510183Y-66871344D01*
X74492351Y-66833640D01*
X74478300Y-66794371D01*
X74468166Y-66753913D01*
X74462046Y-66712657D01*
X74460000Y-66671000D01*
X74460000Y-63821000D01*
X74462046Y-63779343D01*
X74468166Y-63738087D01*
X74478300Y-63697629D01*
X74492351Y-63658360D01*
X74510183Y-63620656D01*
X74531625Y-63584883D01*
X74556471Y-63551383D01*
X74584480Y-63520480D01*
X74615383Y-63492471D01*
X74648883Y-63467625D01*
X74684656Y-63446183D01*
X74722360Y-63428351D01*
X74761629Y-63414300D01*
X74802087Y-63404166D01*
X74843343Y-63398046D01*
X74885000Y-63396000D01*
X75735000Y-63396000D01*
X75776657Y-63398046D01*
G37*
G36*
X78316657Y-63398046D02*
G01*
X78357913Y-63404166D01*
X78398371Y-63414300D01*
X78437640Y-63428351D01*
X78475344Y-63446183D01*
X78511117Y-63467625D01*
X78544617Y-63492471D01*
X78575520Y-63520480D01*
X78603529Y-63551383D01*
X78628375Y-63584883D01*
X78649817Y-63620656D01*
X78667649Y-63658360D01*
X78681700Y-63697629D01*
X78691834Y-63738087D01*
X78697954Y-63779343D01*
X78700000Y-63821000D01*
X78700000Y-66671000D01*
X78697954Y-66712657D01*
X78691834Y-66753913D01*
X78681700Y-66794371D01*
X78667649Y-66833640D01*
X78649817Y-66871344D01*
X78628375Y-66907117D01*
X78603529Y-66940617D01*
X78575520Y-66971520D01*
X78544617Y-66999529D01*
X78511117Y-67024375D01*
X78475344Y-67045817D01*
X78437640Y-67063649D01*
X78398371Y-67077700D01*
X78357913Y-67087834D01*
X78316657Y-67093954D01*
X78275000Y-67096000D01*
X77425000Y-67096000D01*
X77383343Y-67093954D01*
X77342087Y-67087834D01*
X77301629Y-67077700D01*
X77262360Y-67063649D01*
X77224656Y-67045817D01*
X77188883Y-67024375D01*
X77155383Y-66999529D01*
X77124480Y-66971520D01*
X77096471Y-66940617D01*
X77071625Y-66907117D01*
X77050183Y-66871344D01*
X77032351Y-66833640D01*
X77018300Y-66794371D01*
X77008166Y-66753913D01*
X77002046Y-66712657D01*
X77000000Y-66671000D01*
X77000000Y-63821000D01*
X77002046Y-63779343D01*
X77008166Y-63738087D01*
X77018300Y-63697629D01*
X77032351Y-63658360D01*
X77050183Y-63620656D01*
X77071625Y-63584883D01*
X77096471Y-63551383D01*
X77124480Y-63520480D01*
X77155383Y-63492471D01*
X77188883Y-63467625D01*
X77224656Y-63446183D01*
X77262360Y-63428351D01*
X77301629Y-63414300D01*
X77342087Y-63404166D01*
X77383343Y-63398046D01*
X77425000Y-63396000D01*
X78275000Y-63396000D01*
X78316657Y-63398046D01*
G37*
G36*
X80856657Y-63398046D02*
G01*
X80897913Y-63404166D01*
X80938371Y-63414300D01*
X80977640Y-63428351D01*
X81015344Y-63446183D01*
X81051117Y-63467625D01*
X81084617Y-63492471D01*
X81115520Y-63520480D01*
X81143529Y-63551383D01*
X81168375Y-63584883D01*
X81189817Y-63620656D01*
X81207649Y-63658360D01*
X81221700Y-63697629D01*
X81231834Y-63738087D01*
X81237954Y-63779343D01*
X81240000Y-63821000D01*
X81240000Y-66671000D01*
X81237954Y-66712657D01*
X81231834Y-66753913D01*
X81221700Y-66794371D01*
X81207649Y-66833640D01*
X81189817Y-66871344D01*
X81168375Y-66907117D01*
X81143529Y-66940617D01*
X81115520Y-66971520D01*
X81084617Y-66999529D01*
X81051117Y-67024375D01*
X81015344Y-67045817D01*
X80977640Y-67063649D01*
X80938371Y-67077700D01*
X80897913Y-67087834D01*
X80856657Y-67093954D01*
X80815000Y-67096000D01*
X79965000Y-67096000D01*
X79923343Y-67093954D01*
X79882087Y-67087834D01*
X79841629Y-67077700D01*
X79802360Y-67063649D01*
X79764656Y-67045817D01*
X79728883Y-67024375D01*
X79695383Y-66999529D01*
X79664480Y-66971520D01*
X79636471Y-66940617D01*
X79611625Y-66907117D01*
X79590183Y-66871344D01*
X79572351Y-66833640D01*
X79558300Y-66794371D01*
X79548166Y-66753913D01*
X79542046Y-66712657D01*
X79540000Y-66671000D01*
X79540000Y-63821000D01*
X79542046Y-63779343D01*
X79548166Y-63738087D01*
X79558300Y-63697629D01*
X79572351Y-63658360D01*
X79590183Y-63620656D01*
X79611625Y-63584883D01*
X79636471Y-63551383D01*
X79664480Y-63520480D01*
X79695383Y-63492471D01*
X79728883Y-63467625D01*
X79764656Y-63446183D01*
X79802360Y-63428351D01*
X79841629Y-63414300D01*
X79882087Y-63404166D01*
X79923343Y-63398046D01*
X79965000Y-63396000D01*
X80815000Y-63396000D01*
X80856657Y-63398046D01*
G37*
G36*
X83396657Y-63398046D02*
G01*
X83437913Y-63404166D01*
X83478371Y-63414300D01*
X83517640Y-63428351D01*
X83555344Y-63446183D01*
X83591117Y-63467625D01*
X83624617Y-63492471D01*
X83655520Y-63520480D01*
X83683529Y-63551383D01*
X83708375Y-63584883D01*
X83729817Y-63620656D01*
X83747649Y-63658360D01*
X83761700Y-63697629D01*
X83771834Y-63738087D01*
X83777954Y-63779343D01*
X83780000Y-63821000D01*
X83780000Y-66671000D01*
X83777954Y-66712657D01*
X83771834Y-66753913D01*
X83761700Y-66794371D01*
X83747649Y-66833640D01*
X83729817Y-66871344D01*
X83708375Y-66907117D01*
X83683529Y-66940617D01*
X83655520Y-66971520D01*
X83624617Y-66999529D01*
X83591117Y-67024375D01*
X83555344Y-67045817D01*
X83517640Y-67063649D01*
X83478371Y-67077700D01*
X83437913Y-67087834D01*
X83396657Y-67093954D01*
X83355000Y-67096000D01*
X82505000Y-67096000D01*
X82463343Y-67093954D01*
X82422087Y-67087834D01*
X82381629Y-67077700D01*
X82342360Y-67063649D01*
X82304656Y-67045817D01*
X82268883Y-67024375D01*
X82235383Y-66999529D01*
X82204480Y-66971520D01*
X82176471Y-66940617D01*
X82151625Y-66907117D01*
X82130183Y-66871344D01*
X82112351Y-66833640D01*
X82098300Y-66794371D01*
X82088166Y-66753913D01*
X82082046Y-66712657D01*
X82080000Y-66671000D01*
X82080000Y-63821000D01*
X82082046Y-63779343D01*
X82088166Y-63738087D01*
X82098300Y-63697629D01*
X82112351Y-63658360D01*
X82130183Y-63620656D01*
X82151625Y-63584883D01*
X82176471Y-63551383D01*
X82204480Y-63520480D01*
X82235383Y-63492471D01*
X82268883Y-63467625D01*
X82304656Y-63446183D01*
X82342360Y-63428351D01*
X82381629Y-63414300D01*
X82422087Y-63404166D01*
X82463343Y-63398046D01*
X82505000Y-63396000D01*
X83355000Y-63396000D01*
X83396657Y-63398046D01*
G37*
G36*
X85936657Y-63398046D02*
G01*
X85977913Y-63404166D01*
X86018371Y-63414300D01*
X86057640Y-63428351D01*
X86095344Y-63446183D01*
X86131117Y-63467625D01*
X86164617Y-63492471D01*
X86195520Y-63520480D01*
X86223529Y-63551383D01*
X86248375Y-63584883D01*
X86269817Y-63620656D01*
X86287649Y-63658360D01*
X86301700Y-63697629D01*
X86311834Y-63738087D01*
X86317954Y-63779343D01*
X86320000Y-63821000D01*
X86320000Y-66671000D01*
X86317954Y-66712657D01*
X86311834Y-66753913D01*
X86301700Y-66794371D01*
X86287649Y-66833640D01*
X86269817Y-66871344D01*
X86248375Y-66907117D01*
X86223529Y-66940617D01*
X86195520Y-66971520D01*
X86164617Y-66999529D01*
X86131117Y-67024375D01*
X86095344Y-67045817D01*
X86057640Y-67063649D01*
X86018371Y-67077700D01*
X85977913Y-67087834D01*
X85936657Y-67093954D01*
X85895000Y-67096000D01*
X85045000Y-67096000D01*
X85003343Y-67093954D01*
X84962087Y-67087834D01*
X84921629Y-67077700D01*
X84882360Y-67063649D01*
X84844656Y-67045817D01*
X84808883Y-67024375D01*
X84775383Y-66999529D01*
X84744480Y-66971520D01*
X84716471Y-66940617D01*
X84691625Y-66907117D01*
X84670183Y-66871344D01*
X84652351Y-66833640D01*
X84638300Y-66794371D01*
X84628166Y-66753913D01*
X84622046Y-66712657D01*
X84620000Y-66671000D01*
X84620000Y-63821000D01*
X84622046Y-63779343D01*
X84628166Y-63738087D01*
X84638300Y-63697629D01*
X84652351Y-63658360D01*
X84670183Y-63620656D01*
X84691625Y-63584883D01*
X84716471Y-63551383D01*
X84744480Y-63520480D01*
X84775383Y-63492471D01*
X84808883Y-63467625D01*
X84844656Y-63446183D01*
X84882360Y-63428351D01*
X84921629Y-63414300D01*
X84962087Y-63404166D01*
X85003343Y-63398046D01*
X85045000Y-63396000D01*
X85895000Y-63396000D01*
X85936657Y-63398046D01*
G37*
G36*
X88476657Y-63398046D02*
G01*
X88517913Y-63404166D01*
X88558371Y-63414300D01*
X88597640Y-63428351D01*
X88635344Y-63446183D01*
X88671117Y-63467625D01*
X88704617Y-63492471D01*
X88735520Y-63520480D01*
X88763529Y-63551383D01*
X88788375Y-63584883D01*
X88809817Y-63620656D01*
X88827649Y-63658360D01*
X88841700Y-63697629D01*
X88851834Y-63738087D01*
X88857954Y-63779343D01*
X88860000Y-63821000D01*
X88860000Y-66671000D01*
X88857954Y-66712657D01*
X88851834Y-66753913D01*
X88841700Y-66794371D01*
X88827649Y-66833640D01*
X88809817Y-66871344D01*
X88788375Y-66907117D01*
X88763529Y-66940617D01*
X88735520Y-66971520D01*
X88704617Y-66999529D01*
X88671117Y-67024375D01*
X88635344Y-67045817D01*
X88597640Y-67063649D01*
X88558371Y-67077700D01*
X88517913Y-67087834D01*
X88476657Y-67093954D01*
X88435000Y-67096000D01*
X87585000Y-67096000D01*
X87543343Y-67093954D01*
X87502087Y-67087834D01*
X87461629Y-67077700D01*
X87422360Y-67063649D01*
X87384656Y-67045817D01*
X87348883Y-67024375D01*
X87315383Y-66999529D01*
X87284480Y-66971520D01*
X87256471Y-66940617D01*
X87231625Y-66907117D01*
X87210183Y-66871344D01*
X87192351Y-66833640D01*
X87178300Y-66794371D01*
X87168166Y-66753913D01*
X87162046Y-66712657D01*
X87160000Y-66671000D01*
X87160000Y-63821000D01*
X87162046Y-63779343D01*
X87168166Y-63738087D01*
X87178300Y-63697629D01*
X87192351Y-63658360D01*
X87210183Y-63620656D01*
X87231625Y-63584883D01*
X87256471Y-63551383D01*
X87284480Y-63520480D01*
X87315383Y-63492471D01*
X87348883Y-63467625D01*
X87384656Y-63446183D01*
X87422360Y-63428351D01*
X87461629Y-63414300D01*
X87502087Y-63404166D01*
X87543343Y-63398046D01*
X87585000Y-63396000D01*
X88435000Y-63396000D01*
X88476657Y-63398046D01*
G37*
G36*
X91016657Y-63398046D02*
G01*
X91057913Y-63404166D01*
X91098371Y-63414300D01*
X91137640Y-63428351D01*
X91175344Y-63446183D01*
X91211117Y-63467625D01*
X91244617Y-63492471D01*
X91275520Y-63520480D01*
X91303529Y-63551383D01*
X91328375Y-63584883D01*
X91349817Y-63620656D01*
X91367649Y-63658360D01*
X91381700Y-63697629D01*
X91391834Y-63738087D01*
X91397954Y-63779343D01*
X91400000Y-63821000D01*
X91400000Y-66671000D01*
X91397954Y-66712657D01*
X91391834Y-66753913D01*
X91381700Y-66794371D01*
X91367649Y-66833640D01*
X91349817Y-66871344D01*
X91328375Y-66907117D01*
X91303529Y-66940617D01*
X91275520Y-66971520D01*
X91244617Y-66999529D01*
X91211117Y-67024375D01*
X91175344Y-67045817D01*
X91137640Y-67063649D01*
X91098371Y-67077700D01*
X91057913Y-67087834D01*
X91016657Y-67093954D01*
X90975000Y-67096000D01*
X90125000Y-67096000D01*
X90083343Y-67093954D01*
X90042087Y-67087834D01*
X90001629Y-67077700D01*
X89962360Y-67063649D01*
X89924656Y-67045817D01*
X89888883Y-67024375D01*
X89855383Y-66999529D01*
X89824480Y-66971520D01*
X89796471Y-66940617D01*
X89771625Y-66907117D01*
X89750183Y-66871344D01*
X89732351Y-66833640D01*
X89718300Y-66794371D01*
X89708166Y-66753913D01*
X89702046Y-66712657D01*
X89700000Y-66671000D01*
X89700000Y-63821000D01*
X89702046Y-63779343D01*
X89708166Y-63738087D01*
X89718300Y-63697629D01*
X89732351Y-63658360D01*
X89750183Y-63620656D01*
X89771625Y-63584883D01*
X89796471Y-63551383D01*
X89824480Y-63520480D01*
X89855383Y-63492471D01*
X89888883Y-63467625D01*
X89924656Y-63446183D01*
X89962360Y-63428351D01*
X90001629Y-63414300D01*
X90042087Y-63404166D01*
X90083343Y-63398046D01*
X90125000Y-63396000D01*
X90975000Y-63396000D01*
X91016657Y-63398046D01*
G37*
G36*
X93556657Y-63398046D02*
G01*
X93597913Y-63404166D01*
X93638371Y-63414300D01*
X93677640Y-63428351D01*
X93715344Y-63446183D01*
X93751117Y-63467625D01*
X93784617Y-63492471D01*
X93815520Y-63520480D01*
X93843529Y-63551383D01*
X93868375Y-63584883D01*
X93889817Y-63620656D01*
X93907649Y-63658360D01*
X93921700Y-63697629D01*
X93931834Y-63738087D01*
X93937954Y-63779343D01*
X93940000Y-63821000D01*
X93940000Y-66671000D01*
X93937954Y-66712657D01*
X93931834Y-66753913D01*
X93921700Y-66794371D01*
X93907649Y-66833640D01*
X93889817Y-66871344D01*
X93868375Y-66907117D01*
X93843529Y-66940617D01*
X93815520Y-66971520D01*
X93784617Y-66999529D01*
X93751117Y-67024375D01*
X93715344Y-67045817D01*
X93677640Y-67063649D01*
X93638371Y-67077700D01*
X93597913Y-67087834D01*
X93556657Y-67093954D01*
X93515000Y-67096000D01*
X92665000Y-67096000D01*
X92623343Y-67093954D01*
X92582087Y-67087834D01*
X92541629Y-67077700D01*
X92502360Y-67063649D01*
X92464656Y-67045817D01*
X92428883Y-67024375D01*
X92395383Y-66999529D01*
X92364480Y-66971520D01*
X92336471Y-66940617D01*
X92311625Y-66907117D01*
X92290183Y-66871344D01*
X92272351Y-66833640D01*
X92258300Y-66794371D01*
X92248166Y-66753913D01*
X92242046Y-66712657D01*
X92240000Y-66671000D01*
X92240000Y-63821000D01*
X92242046Y-63779343D01*
X92248166Y-63738087D01*
X92258300Y-63697629D01*
X92272351Y-63658360D01*
X92290183Y-63620656D01*
X92311625Y-63584883D01*
X92336471Y-63551383D01*
X92364480Y-63520480D01*
X92395383Y-63492471D01*
X92428883Y-63467625D01*
X92464656Y-63446183D01*
X92502360Y-63428351D01*
X92541629Y-63414300D01*
X92582087Y-63404166D01*
X92623343Y-63398046D01*
X92665000Y-63396000D01*
X93515000Y-63396000D01*
X93556657Y-63398046D01*
G37*
G36*
X96096657Y-63398046D02*
G01*
X96137913Y-63404166D01*
X96178371Y-63414300D01*
X96217640Y-63428351D01*
X96255344Y-63446183D01*
X96291117Y-63467625D01*
X96324617Y-63492471D01*
X96355520Y-63520480D01*
X96383529Y-63551383D01*
X96408375Y-63584883D01*
X96429817Y-63620656D01*
X96447649Y-63658360D01*
X96461700Y-63697629D01*
X96471834Y-63738087D01*
X96477954Y-63779343D01*
X96480000Y-63821000D01*
X96480000Y-66671000D01*
X96477954Y-66712657D01*
X96471834Y-66753913D01*
X96461700Y-66794371D01*
X96447649Y-66833640D01*
X96429817Y-66871344D01*
X96408375Y-66907117D01*
X96383529Y-66940617D01*
X96355520Y-66971520D01*
X96324617Y-66999529D01*
X96291117Y-67024375D01*
X96255344Y-67045817D01*
X96217640Y-67063649D01*
X96178371Y-67077700D01*
X96137913Y-67087834D01*
X96096657Y-67093954D01*
X96055000Y-67096000D01*
X95205000Y-67096000D01*
X95163343Y-67093954D01*
X95122087Y-67087834D01*
X95081629Y-67077700D01*
X95042360Y-67063649D01*
X95004656Y-67045817D01*
X94968883Y-67024375D01*
X94935383Y-66999529D01*
X94904480Y-66971520D01*
X94876471Y-66940617D01*
X94851625Y-66907117D01*
X94830183Y-66871344D01*
X94812351Y-66833640D01*
X94798300Y-66794371D01*
X94788166Y-66753913D01*
X94782046Y-66712657D01*
X94780000Y-66671000D01*
X94780000Y-63821000D01*
X94782046Y-63779343D01*
X94788166Y-63738087D01*
X94798300Y-63697629D01*
X94812351Y-63658360D01*
X94830183Y-63620656D01*
X94851625Y-63584883D01*
X94876471Y-63551383D01*
X94904480Y-63520480D01*
X94935383Y-63492471D01*
X94968883Y-63467625D01*
X95004656Y-63446183D01*
X95042360Y-63428351D01*
X95081629Y-63414300D01*
X95122087Y-63404166D01*
X95163343Y-63398046D01*
X95205000Y-63396000D01*
X96055000Y-63396000D01*
X96096657Y-63398046D01*
G37*
G36*
X98636657Y-63398046D02*
G01*
X98677913Y-63404166D01*
X98718371Y-63414300D01*
X98757640Y-63428351D01*
X98795344Y-63446183D01*
X98831117Y-63467625D01*
X98864617Y-63492471D01*
X98895520Y-63520480D01*
X98923529Y-63551383D01*
X98948375Y-63584883D01*
X98969817Y-63620656D01*
X98987649Y-63658360D01*
X99001700Y-63697629D01*
X99011834Y-63738087D01*
X99017954Y-63779343D01*
X99020000Y-63821000D01*
X99020000Y-66671000D01*
X99017954Y-66712657D01*
X99011834Y-66753913D01*
X99001700Y-66794371D01*
X98987649Y-66833640D01*
X98969817Y-66871344D01*
X98948375Y-66907117D01*
X98923529Y-66940617D01*
X98895520Y-66971520D01*
X98864617Y-66999529D01*
X98831117Y-67024375D01*
X98795344Y-67045817D01*
X98757640Y-67063649D01*
X98718371Y-67077700D01*
X98677913Y-67087834D01*
X98636657Y-67093954D01*
X98595000Y-67096000D01*
X97745000Y-67096000D01*
X97703343Y-67093954D01*
X97662087Y-67087834D01*
X97621629Y-67077700D01*
X97582360Y-67063649D01*
X97544656Y-67045817D01*
X97508883Y-67024375D01*
X97475383Y-66999529D01*
X97444480Y-66971520D01*
X97416471Y-66940617D01*
X97391625Y-66907117D01*
X97370183Y-66871344D01*
X97352351Y-66833640D01*
X97338300Y-66794371D01*
X97328166Y-66753913D01*
X97322046Y-66712657D01*
X97320000Y-66671000D01*
X97320000Y-63821000D01*
X97322046Y-63779343D01*
X97328166Y-63738087D01*
X97338300Y-63697629D01*
X97352351Y-63658360D01*
X97370183Y-63620656D01*
X97391625Y-63584883D01*
X97416471Y-63551383D01*
X97444480Y-63520480D01*
X97475383Y-63492471D01*
X97508883Y-63467625D01*
X97544656Y-63446183D01*
X97582360Y-63428351D01*
X97621629Y-63414300D01*
X97662087Y-63404166D01*
X97703343Y-63398046D01*
X97745000Y-63396000D01*
X98595000Y-63396000D01*
X98636657Y-63398046D01*
G37*
G36*
X101176657Y-63398046D02*
G01*
X101217913Y-63404166D01*
X101258371Y-63414300D01*
X101297640Y-63428351D01*
X101335344Y-63446183D01*
X101371117Y-63467625D01*
X101404617Y-63492471D01*
X101435520Y-63520480D01*
X101463529Y-63551383D01*
X101488375Y-63584883D01*
X101509817Y-63620656D01*
X101527649Y-63658360D01*
X101541700Y-63697629D01*
X101551834Y-63738087D01*
X101557954Y-63779343D01*
X101560000Y-63821000D01*
X101560000Y-66671000D01*
X101557954Y-66712657D01*
X101551834Y-66753913D01*
X101541700Y-66794371D01*
X101527649Y-66833640D01*
X101509817Y-66871344D01*
X101488375Y-66907117D01*
X101463529Y-66940617D01*
X101435520Y-66971520D01*
X101404617Y-66999529D01*
X101371117Y-67024375D01*
X101335344Y-67045817D01*
X101297640Y-67063649D01*
X101258371Y-67077700D01*
X101217913Y-67087834D01*
X101176657Y-67093954D01*
X101135000Y-67096000D01*
X100285000Y-67096000D01*
X100243343Y-67093954D01*
X100202087Y-67087834D01*
X100161629Y-67077700D01*
X100122360Y-67063649D01*
X100084656Y-67045817D01*
X100048883Y-67024375D01*
X100015383Y-66999529D01*
X99984480Y-66971520D01*
X99956471Y-66940617D01*
X99931625Y-66907117D01*
X99910183Y-66871344D01*
X99892351Y-66833640D01*
X99878300Y-66794371D01*
X99868166Y-66753913D01*
X99862046Y-66712657D01*
X99860000Y-66671000D01*
X99860000Y-63821000D01*
X99862046Y-63779343D01*
X99868166Y-63738087D01*
X99878300Y-63697629D01*
X99892351Y-63658360D01*
X99910183Y-63620656D01*
X99931625Y-63584883D01*
X99956471Y-63551383D01*
X99984480Y-63520480D01*
X100015383Y-63492471D01*
X100048883Y-63467625D01*
X100084656Y-63446183D01*
X100122360Y-63428351D01*
X100161629Y-63414300D01*
X100202087Y-63404166D01*
X100243343Y-63398046D01*
X100285000Y-63396000D01*
X101135000Y-63396000D01*
X101176657Y-63398046D01*
G37*
G36*
X103716657Y-63398046D02*
G01*
X103757913Y-63404166D01*
X103798371Y-63414300D01*
X103837640Y-63428351D01*
X103875344Y-63446183D01*
X103911117Y-63467625D01*
X103944617Y-63492471D01*
X103975520Y-63520480D01*
X104003529Y-63551383D01*
X104028375Y-63584883D01*
X104049817Y-63620656D01*
X104067649Y-63658360D01*
X104081700Y-63697629D01*
X104091834Y-63738087D01*
X104097954Y-63779343D01*
X104100000Y-63821000D01*
X104100000Y-66671000D01*
X104097954Y-66712657D01*
X104091834Y-66753913D01*
X104081700Y-66794371D01*
X104067649Y-66833640D01*
X104049817Y-66871344D01*
X104028375Y-66907117D01*
X104003529Y-66940617D01*
X103975520Y-66971520D01*
X103944617Y-66999529D01*
X103911117Y-67024375D01*
X103875344Y-67045817D01*
X103837640Y-67063649D01*
X103798371Y-67077700D01*
X103757913Y-67087834D01*
X103716657Y-67093954D01*
X103675000Y-67096000D01*
X102825000Y-67096000D01*
X102783343Y-67093954D01*
X102742087Y-67087834D01*
X102701629Y-67077700D01*
X102662360Y-67063649D01*
X102624656Y-67045817D01*
X102588883Y-67024375D01*
X102555383Y-66999529D01*
X102524480Y-66971520D01*
X102496471Y-66940617D01*
X102471625Y-66907117D01*
X102450183Y-66871344D01*
X102432351Y-66833640D01*
X102418300Y-66794371D01*
X102408166Y-66753913D01*
X102402046Y-66712657D01*
X102400000Y-66671000D01*
X102400000Y-63821000D01*
X102402046Y-63779343D01*
X102408166Y-63738087D01*
X102418300Y-63697629D01*
X102432351Y-63658360D01*
X102450183Y-63620656D01*
X102471625Y-63584883D01*
X102496471Y-63551383D01*
X102524480Y-63520480D01*
X102555383Y-63492471D01*
X102588883Y-63467625D01*
X102624656Y-63446183D01*
X102662360Y-63428351D01*
X102701629Y-63414300D01*
X102742087Y-63404166D01*
X102783343Y-63398046D01*
X102825000Y-63396000D01*
X103675000Y-63396000D01*
X103716657Y-63398046D01*
G37*
G36*
X106256657Y-63398046D02*
G01*
X106297913Y-63404166D01*
X106338371Y-63414300D01*
X106377640Y-63428351D01*
X106415344Y-63446183D01*
X106451117Y-63467625D01*
X106484617Y-63492471D01*
X106515520Y-63520480D01*
X106543529Y-63551383D01*
X106568375Y-63584883D01*
X106589817Y-63620656D01*
X106607649Y-63658360D01*
X106621700Y-63697629D01*
X106631834Y-63738087D01*
X106637954Y-63779343D01*
X106640000Y-63821000D01*
X106640000Y-66671000D01*
X106637954Y-66712657D01*
X106631834Y-66753913D01*
X106621700Y-66794371D01*
X106607649Y-66833640D01*
X106589817Y-66871344D01*
X106568375Y-66907117D01*
X106543529Y-66940617D01*
X106515520Y-66971520D01*
X106484617Y-66999529D01*
X106451117Y-67024375D01*
X106415344Y-67045817D01*
X106377640Y-67063649D01*
X106338371Y-67077700D01*
X106297913Y-67087834D01*
X106256657Y-67093954D01*
X106215000Y-67096000D01*
X105365000Y-67096000D01*
X105323343Y-67093954D01*
X105282087Y-67087834D01*
X105241629Y-67077700D01*
X105202360Y-67063649D01*
X105164656Y-67045817D01*
X105128883Y-67024375D01*
X105095383Y-66999529D01*
X105064480Y-66971520D01*
X105036471Y-66940617D01*
X105011625Y-66907117D01*
X104990183Y-66871344D01*
X104972351Y-66833640D01*
X104958300Y-66794371D01*
X104948166Y-66753913D01*
X104942046Y-66712657D01*
X104940000Y-66671000D01*
X104940000Y-63821000D01*
X104942046Y-63779343D01*
X104948166Y-63738087D01*
X104958300Y-63697629D01*
X104972351Y-63658360D01*
X104990183Y-63620656D01*
X105011625Y-63584883D01*
X105036471Y-63551383D01*
X105064480Y-63520480D01*
X105095383Y-63492471D01*
X105128883Y-63467625D01*
X105164656Y-63446183D01*
X105202360Y-63428351D01*
X105241629Y-63414300D01*
X105282087Y-63404166D01*
X105323343Y-63398046D01*
X105365000Y-63396000D01*
X106215000Y-63396000D01*
X106256657Y-63398046D01*
G37*
G36*
X108796657Y-63398046D02*
G01*
X108837913Y-63404166D01*
X108878371Y-63414300D01*
X108917640Y-63428351D01*
X108955344Y-63446183D01*
X108991117Y-63467625D01*
X109024617Y-63492471D01*
X109055520Y-63520480D01*
X109083529Y-63551383D01*
X109108375Y-63584883D01*
X109129817Y-63620656D01*
X109147649Y-63658360D01*
X109161700Y-63697629D01*
X109171834Y-63738087D01*
X109177954Y-63779343D01*
X109180000Y-63821000D01*
X109180000Y-66671000D01*
X109177954Y-66712657D01*
X109171834Y-66753913D01*
X109161700Y-66794371D01*
X109147649Y-66833640D01*
X109129817Y-66871344D01*
X109108375Y-66907117D01*
X109083529Y-66940617D01*
X109055520Y-66971520D01*
X109024617Y-66999529D01*
X108991117Y-67024375D01*
X108955344Y-67045817D01*
X108917640Y-67063649D01*
X108878371Y-67077700D01*
X108837913Y-67087834D01*
X108796657Y-67093954D01*
X108755000Y-67096000D01*
X107905000Y-67096000D01*
X107863343Y-67093954D01*
X107822087Y-67087834D01*
X107781629Y-67077700D01*
X107742360Y-67063649D01*
X107704656Y-67045817D01*
X107668883Y-67024375D01*
X107635383Y-66999529D01*
X107604480Y-66971520D01*
X107576471Y-66940617D01*
X107551625Y-66907117D01*
X107530183Y-66871344D01*
X107512351Y-66833640D01*
X107498300Y-66794371D01*
X107488166Y-66753913D01*
X107482046Y-66712657D01*
X107480000Y-66671000D01*
X107480000Y-63821000D01*
X107482046Y-63779343D01*
X107488166Y-63738087D01*
X107498300Y-63697629D01*
X107512351Y-63658360D01*
X107530183Y-63620656D01*
X107551625Y-63584883D01*
X107576471Y-63551383D01*
X107604480Y-63520480D01*
X107635383Y-63492471D01*
X107668883Y-63467625D01*
X107704656Y-63446183D01*
X107742360Y-63428351D01*
X107781629Y-63414300D01*
X107822087Y-63404166D01*
X107863343Y-63398046D01*
X107905000Y-63396000D01*
X108755000Y-63396000D01*
X108796657Y-63398046D01*
G37*
G36*
X111336657Y-63398046D02*
G01*
X111377913Y-63404166D01*
X111418371Y-63414300D01*
X111457640Y-63428351D01*
X111495344Y-63446183D01*
X111531117Y-63467625D01*
X111564617Y-63492471D01*
X111595520Y-63520480D01*
X111623529Y-63551383D01*
X111648375Y-63584883D01*
X111669817Y-63620656D01*
X111687649Y-63658360D01*
X111701700Y-63697629D01*
X111711834Y-63738087D01*
X111717954Y-63779343D01*
X111720000Y-63821000D01*
X111720000Y-66671000D01*
X111717954Y-66712657D01*
X111711834Y-66753913D01*
X111701700Y-66794371D01*
X111687649Y-66833640D01*
X111669817Y-66871344D01*
X111648375Y-66907117D01*
X111623529Y-66940617D01*
X111595520Y-66971520D01*
X111564617Y-66999529D01*
X111531117Y-67024375D01*
X111495344Y-67045817D01*
X111457640Y-67063649D01*
X111418371Y-67077700D01*
X111377913Y-67087834D01*
X111336657Y-67093954D01*
X111295000Y-67096000D01*
X110445000Y-67096000D01*
X110403343Y-67093954D01*
X110362087Y-67087834D01*
X110321629Y-67077700D01*
X110282360Y-67063649D01*
X110244656Y-67045817D01*
X110208883Y-67024375D01*
X110175383Y-66999529D01*
X110144480Y-66971520D01*
X110116471Y-66940617D01*
X110091625Y-66907117D01*
X110070183Y-66871344D01*
X110052351Y-66833640D01*
X110038300Y-66794371D01*
X110028166Y-66753913D01*
X110022046Y-66712657D01*
X110020000Y-66671000D01*
X110020000Y-63821000D01*
X110022046Y-63779343D01*
X110028166Y-63738087D01*
X110038300Y-63697629D01*
X110052351Y-63658360D01*
X110070183Y-63620656D01*
X110091625Y-63584883D01*
X110116471Y-63551383D01*
X110144480Y-63520480D01*
X110175383Y-63492471D01*
X110208883Y-63467625D01*
X110244656Y-63446183D01*
X110282360Y-63428351D01*
X110321629Y-63414300D01*
X110362087Y-63404166D01*
X110403343Y-63398046D01*
X110445000Y-63396000D01*
X111295000Y-63396000D01*
X111336657Y-63398046D01*
G37*
G36*
X113876657Y-63398046D02*
G01*
X113917913Y-63404166D01*
X113958371Y-63414300D01*
X113997640Y-63428351D01*
X114035344Y-63446183D01*
X114071117Y-63467625D01*
X114104617Y-63492471D01*
X114135520Y-63520480D01*
X114163529Y-63551383D01*
X114188375Y-63584883D01*
X114209817Y-63620656D01*
X114227649Y-63658360D01*
X114241700Y-63697629D01*
X114251834Y-63738087D01*
X114257954Y-63779343D01*
X114260000Y-63821000D01*
X114260000Y-66671000D01*
X114257954Y-66712657D01*
X114251834Y-66753913D01*
X114241700Y-66794371D01*
X114227649Y-66833640D01*
X114209817Y-66871344D01*
X114188375Y-66907117D01*
X114163529Y-66940617D01*
X114135520Y-66971520D01*
X114104617Y-66999529D01*
X114071117Y-67024375D01*
X114035344Y-67045817D01*
X113997640Y-67063649D01*
X113958371Y-67077700D01*
X113917913Y-67087834D01*
X113876657Y-67093954D01*
X113835000Y-67096000D01*
X112985000Y-67096000D01*
X112943343Y-67093954D01*
X112902087Y-67087834D01*
X112861629Y-67077700D01*
X112822360Y-67063649D01*
X112784656Y-67045817D01*
X112748883Y-67024375D01*
X112715383Y-66999529D01*
X112684480Y-66971520D01*
X112656471Y-66940617D01*
X112631625Y-66907117D01*
X112610183Y-66871344D01*
X112592351Y-66833640D01*
X112578300Y-66794371D01*
X112568166Y-66753913D01*
X112562046Y-66712657D01*
X112560000Y-66671000D01*
X112560000Y-63821000D01*
X112562046Y-63779343D01*
X112568166Y-63738087D01*
X112578300Y-63697629D01*
X112592351Y-63658360D01*
X112610183Y-63620656D01*
X112631625Y-63584883D01*
X112656471Y-63551383D01*
X112684480Y-63520480D01*
X112715383Y-63492471D01*
X112748883Y-63467625D01*
X112784656Y-63446183D01*
X112822360Y-63428351D01*
X112861629Y-63414300D01*
X112902087Y-63404166D01*
X112943343Y-63398046D01*
X112985000Y-63396000D01*
X113835000Y-63396000D01*
X113876657Y-63398046D01*
G37*
G36*
X116416657Y-63398046D02*
G01*
X116457913Y-63404166D01*
X116498371Y-63414300D01*
X116537640Y-63428351D01*
X116575344Y-63446183D01*
X116611117Y-63467625D01*
X116644617Y-63492471D01*
X116675520Y-63520480D01*
X116703529Y-63551383D01*
X116728375Y-63584883D01*
X116749817Y-63620656D01*
X116767649Y-63658360D01*
X116781700Y-63697629D01*
X116791834Y-63738087D01*
X116797954Y-63779343D01*
X116800000Y-63821000D01*
X116800000Y-66671000D01*
X116797954Y-66712657D01*
X116791834Y-66753913D01*
X116781700Y-66794371D01*
X116767649Y-66833640D01*
X116749817Y-66871344D01*
X116728375Y-66907117D01*
X116703529Y-66940617D01*
X116675520Y-66971520D01*
X116644617Y-66999529D01*
X116611117Y-67024375D01*
X116575344Y-67045817D01*
X116537640Y-67063649D01*
X116498371Y-67077700D01*
X116457913Y-67087834D01*
X116416657Y-67093954D01*
X116375000Y-67096000D01*
X115525000Y-67096000D01*
X115483343Y-67093954D01*
X115442087Y-67087834D01*
X115401629Y-67077700D01*
X115362360Y-67063649D01*
X115324656Y-67045817D01*
X115288883Y-67024375D01*
X115255383Y-66999529D01*
X115224480Y-66971520D01*
X115196471Y-66940617D01*
X115171625Y-66907117D01*
X115150183Y-66871344D01*
X115132351Y-66833640D01*
X115118300Y-66794371D01*
X115108166Y-66753913D01*
X115102046Y-66712657D01*
X115100000Y-66671000D01*
X115100000Y-63821000D01*
X115102046Y-63779343D01*
X115108166Y-63738087D01*
X115118300Y-63697629D01*
X115132351Y-63658360D01*
X115150183Y-63620656D01*
X115171625Y-63584883D01*
X115196471Y-63551383D01*
X115224480Y-63520480D01*
X115255383Y-63492471D01*
X115288883Y-63467625D01*
X115324656Y-63446183D01*
X115362360Y-63428351D01*
X115401629Y-63414300D01*
X115442087Y-63404166D01*
X115483343Y-63398046D01*
X115525000Y-63396000D01*
X116375000Y-63396000D01*
X116416657Y-63398046D01*
G37*
G36*
X118956657Y-63398046D02*
G01*
X118997913Y-63404166D01*
X119038371Y-63414300D01*
X119077640Y-63428351D01*
X119115344Y-63446183D01*
X119151117Y-63467625D01*
X119184617Y-63492471D01*
X119215520Y-63520480D01*
X119243529Y-63551383D01*
X119268375Y-63584883D01*
X119289817Y-63620656D01*
X119307649Y-63658360D01*
X119321700Y-63697629D01*
X119331834Y-63738087D01*
X119337954Y-63779343D01*
X119340000Y-63821000D01*
X119340000Y-66671000D01*
X119337954Y-66712657D01*
X119331834Y-66753913D01*
X119321700Y-66794371D01*
X119307649Y-66833640D01*
X119289817Y-66871344D01*
X119268375Y-66907117D01*
X119243529Y-66940617D01*
X119215520Y-66971520D01*
X119184617Y-66999529D01*
X119151117Y-67024375D01*
X119115344Y-67045817D01*
X119077640Y-67063649D01*
X119038371Y-67077700D01*
X118997913Y-67087834D01*
X118956657Y-67093954D01*
X118915000Y-67096000D01*
X118065000Y-67096000D01*
X118023343Y-67093954D01*
X117982087Y-67087834D01*
X117941629Y-67077700D01*
X117902360Y-67063649D01*
X117864656Y-67045817D01*
X117828883Y-67024375D01*
X117795383Y-66999529D01*
X117764480Y-66971520D01*
X117736471Y-66940617D01*
X117711625Y-66907117D01*
X117690183Y-66871344D01*
X117672351Y-66833640D01*
X117658300Y-66794371D01*
X117648166Y-66753913D01*
X117642046Y-66712657D01*
X117640000Y-66671000D01*
X117640000Y-63821000D01*
X117642046Y-63779343D01*
X117648166Y-63738087D01*
X117658300Y-63697629D01*
X117672351Y-63658360D01*
X117690183Y-63620656D01*
X117711625Y-63584883D01*
X117736471Y-63551383D01*
X117764480Y-63520480D01*
X117795383Y-63492471D01*
X117828883Y-63467625D01*
X117864656Y-63446183D01*
X117902360Y-63428351D01*
X117941629Y-63414300D01*
X117982087Y-63404166D01*
X118023343Y-63398046D01*
X118065000Y-63396000D01*
X118915000Y-63396000D01*
X118956657Y-63398046D01*
G37*
G36*
X121496657Y-63398046D02*
G01*
X121537913Y-63404166D01*
X121578371Y-63414300D01*
X121617640Y-63428351D01*
X121655344Y-63446183D01*
X121691117Y-63467625D01*
X121724617Y-63492471D01*
X121755520Y-63520480D01*
X121783529Y-63551383D01*
X121808375Y-63584883D01*
X121829817Y-63620656D01*
X121847649Y-63658360D01*
X121861700Y-63697629D01*
X121871834Y-63738087D01*
X121877954Y-63779343D01*
X121880000Y-63821000D01*
X121880000Y-66671000D01*
X121877954Y-66712657D01*
X121871834Y-66753913D01*
X121861700Y-66794371D01*
X121847649Y-66833640D01*
X121829817Y-66871344D01*
X121808375Y-66907117D01*
X121783529Y-66940617D01*
X121755520Y-66971520D01*
X121724617Y-66999529D01*
X121691117Y-67024375D01*
X121655344Y-67045817D01*
X121617640Y-67063649D01*
X121578371Y-67077700D01*
X121537913Y-67087834D01*
X121496657Y-67093954D01*
X121455000Y-67096000D01*
X120605000Y-67096000D01*
X120563343Y-67093954D01*
X120522087Y-67087834D01*
X120481629Y-67077700D01*
X120442360Y-67063649D01*
X120404656Y-67045817D01*
X120368883Y-67024375D01*
X120335383Y-66999529D01*
X120304480Y-66971520D01*
X120276471Y-66940617D01*
X120251625Y-66907117D01*
X120230183Y-66871344D01*
X120212351Y-66833640D01*
X120198300Y-66794371D01*
X120188166Y-66753913D01*
X120182046Y-66712657D01*
X120180000Y-66671000D01*
X120180000Y-63821000D01*
X120182046Y-63779343D01*
X120188166Y-63738087D01*
X120198300Y-63697629D01*
X120212351Y-63658360D01*
X120230183Y-63620656D01*
X120251625Y-63584883D01*
X120276471Y-63551383D01*
X120304480Y-63520480D01*
X120335383Y-63492471D01*
X120368883Y-63467625D01*
X120404656Y-63446183D01*
X120442360Y-63428351D01*
X120481629Y-63414300D01*
X120522087Y-63404166D01*
X120563343Y-63398046D01*
X120605000Y-63396000D01*
X121455000Y-63396000D01*
X121496657Y-63398046D01*
G37*
G36*
X124036657Y-63398046D02*
G01*
X124077913Y-63404166D01*
X124118371Y-63414300D01*
X124157640Y-63428351D01*
X124195344Y-63446183D01*
X124231117Y-63467625D01*
X124264617Y-63492471D01*
X124295520Y-63520480D01*
X124323529Y-63551383D01*
X124348375Y-63584883D01*
X124369817Y-63620656D01*
X124387649Y-63658360D01*
X124401700Y-63697629D01*
X124411834Y-63738087D01*
X124417954Y-63779343D01*
X124420000Y-63821000D01*
X124420000Y-66671000D01*
X124417954Y-66712657D01*
X124411834Y-66753913D01*
X124401700Y-66794371D01*
X124387649Y-66833640D01*
X124369817Y-66871344D01*
X124348375Y-66907117D01*
X124323529Y-66940617D01*
X124295520Y-66971520D01*
X124264617Y-66999529D01*
X124231117Y-67024375D01*
X124195344Y-67045817D01*
X124157640Y-67063649D01*
X124118371Y-67077700D01*
X124077913Y-67087834D01*
X124036657Y-67093954D01*
X123995000Y-67096000D01*
X123145000Y-67096000D01*
X123103343Y-67093954D01*
X123062087Y-67087834D01*
X123021629Y-67077700D01*
X122982360Y-67063649D01*
X122944656Y-67045817D01*
X122908883Y-67024375D01*
X122875383Y-66999529D01*
X122844480Y-66971520D01*
X122816471Y-66940617D01*
X122791625Y-66907117D01*
X122770183Y-66871344D01*
X122752351Y-66833640D01*
X122738300Y-66794371D01*
X122728166Y-66753913D01*
X122722046Y-66712657D01*
X122720000Y-66671000D01*
X122720000Y-63821000D01*
X122722046Y-63779343D01*
X122728166Y-63738087D01*
X122738300Y-63697629D01*
X122752351Y-63658360D01*
X122770183Y-63620656D01*
X122791625Y-63584883D01*
X122816471Y-63551383D01*
X122844480Y-63520480D01*
X122875383Y-63492471D01*
X122908883Y-63467625D01*
X122944656Y-63446183D01*
X122982360Y-63428351D01*
X123021629Y-63414300D01*
X123062087Y-63404166D01*
X123103343Y-63398046D01*
X123145000Y-63396000D01*
X123995000Y-63396000D01*
X124036657Y-63398046D01*
G37*
G36*
X126576657Y-63398046D02*
G01*
X126617913Y-63404166D01*
X126658371Y-63414300D01*
X126697640Y-63428351D01*
X126735344Y-63446183D01*
X126771117Y-63467625D01*
X126804617Y-63492471D01*
X126835520Y-63520480D01*
X126863529Y-63551383D01*
X126888375Y-63584883D01*
X126909817Y-63620656D01*
X126927649Y-63658360D01*
X126941700Y-63697629D01*
X126951834Y-63738087D01*
X126957954Y-63779343D01*
X126960000Y-63821000D01*
X126960000Y-66671000D01*
X126957954Y-66712657D01*
X126951834Y-66753913D01*
X126941700Y-66794371D01*
X126927649Y-66833640D01*
X126909817Y-66871344D01*
X126888375Y-66907117D01*
X126863529Y-66940617D01*
X126835520Y-66971520D01*
X126804617Y-66999529D01*
X126771117Y-67024375D01*
X126735344Y-67045817D01*
X126697640Y-67063649D01*
X126658371Y-67077700D01*
X126617913Y-67087834D01*
X126576657Y-67093954D01*
X126535000Y-67096000D01*
X125685000Y-67096000D01*
X125643343Y-67093954D01*
X125602087Y-67087834D01*
X125561629Y-67077700D01*
X125522360Y-67063649D01*
X125484656Y-67045817D01*
X125448883Y-67024375D01*
X125415383Y-66999529D01*
X125384480Y-66971520D01*
X125356471Y-66940617D01*
X125331625Y-66907117D01*
X125310183Y-66871344D01*
X125292351Y-66833640D01*
X125278300Y-66794371D01*
X125268166Y-66753913D01*
X125262046Y-66712657D01*
X125260000Y-66671000D01*
X125260000Y-63821000D01*
X125262046Y-63779343D01*
X125268166Y-63738087D01*
X125278300Y-63697629D01*
X125292351Y-63658360D01*
X125310183Y-63620656D01*
X125331625Y-63584883D01*
X125356471Y-63551383D01*
X125384480Y-63520480D01*
X125415383Y-63492471D01*
X125448883Y-63467625D01*
X125484656Y-63446183D01*
X125522360Y-63428351D01*
X125561629Y-63414300D01*
X125602087Y-63404166D01*
X125643343Y-63398046D01*
X125685000Y-63396000D01*
X126535000Y-63396000D01*
X126576657Y-63398046D01*
G37*
G36*
X129116657Y-63398046D02*
G01*
X129157913Y-63404166D01*
X129198371Y-63414300D01*
X129237640Y-63428351D01*
X129275344Y-63446183D01*
X129311117Y-63467625D01*
X129344617Y-63492471D01*
X129375520Y-63520480D01*
X129403529Y-63551383D01*
X129428375Y-63584883D01*
X129449817Y-63620656D01*
X129467649Y-63658360D01*
X129481700Y-63697629D01*
X129491834Y-63738087D01*
X129497954Y-63779343D01*
X129500000Y-63821000D01*
X129500000Y-66671000D01*
X129497954Y-66712657D01*
X129491834Y-66753913D01*
X129481700Y-66794371D01*
X129467649Y-66833640D01*
X129449817Y-66871344D01*
X129428375Y-66907117D01*
X129403529Y-66940617D01*
X129375520Y-66971520D01*
X129344617Y-66999529D01*
X129311117Y-67024375D01*
X129275344Y-67045817D01*
X129237640Y-67063649D01*
X129198371Y-67077700D01*
X129157913Y-67087834D01*
X129116657Y-67093954D01*
X129075000Y-67096000D01*
X128225000Y-67096000D01*
X128183343Y-67093954D01*
X128142087Y-67087834D01*
X128101629Y-67077700D01*
X128062360Y-67063649D01*
X128024656Y-67045817D01*
X127988883Y-67024375D01*
X127955383Y-66999529D01*
X127924480Y-66971520D01*
X127896471Y-66940617D01*
X127871625Y-66907117D01*
X127850183Y-66871344D01*
X127832351Y-66833640D01*
X127818300Y-66794371D01*
X127808166Y-66753913D01*
X127802046Y-66712657D01*
X127800000Y-66671000D01*
X127800000Y-63821000D01*
X127802046Y-63779343D01*
X127808166Y-63738087D01*
X127818300Y-63697629D01*
X127832351Y-63658360D01*
X127850183Y-63620656D01*
X127871625Y-63584883D01*
X127896471Y-63551383D01*
X127924480Y-63520480D01*
X127955383Y-63492471D01*
X127988883Y-63467625D01*
X128024656Y-63446183D01*
X128062360Y-63428351D01*
X128101629Y-63414300D01*
X128142087Y-63404166D01*
X128183343Y-63398046D01*
X128225000Y-63396000D01*
X129075000Y-63396000D01*
X129116657Y-63398046D01*
G37*
G36*
X131656657Y-63398046D02*
G01*
X131697913Y-63404166D01*
X131738371Y-63414300D01*
X131777640Y-63428351D01*
X131815344Y-63446183D01*
X131851117Y-63467625D01*
X131884617Y-63492471D01*
X131915520Y-63520480D01*
X131943529Y-63551383D01*
X131968375Y-63584883D01*
X131989817Y-63620656D01*
X132007649Y-63658360D01*
X132021700Y-63697629D01*
X132031834Y-63738087D01*
X132037954Y-63779343D01*
X132040000Y-63821000D01*
X132040000Y-66671000D01*
X132037954Y-66712657D01*
X132031834Y-66753913D01*
X132021700Y-66794371D01*
X132007649Y-66833640D01*
X131989817Y-66871344D01*
X131968375Y-66907117D01*
X131943529Y-66940617D01*
X131915520Y-66971520D01*
X131884617Y-66999529D01*
X131851117Y-67024375D01*
X131815344Y-67045817D01*
X131777640Y-67063649D01*
X131738371Y-67077700D01*
X131697913Y-67087834D01*
X131656657Y-67093954D01*
X131615000Y-67096000D01*
X130765000Y-67096000D01*
X130723343Y-67093954D01*
X130682087Y-67087834D01*
X130641629Y-67077700D01*
X130602360Y-67063649D01*
X130564656Y-67045817D01*
X130528883Y-67024375D01*
X130495383Y-66999529D01*
X130464480Y-66971520D01*
X130436471Y-66940617D01*
X130411625Y-66907117D01*
X130390183Y-66871344D01*
X130372351Y-66833640D01*
X130358300Y-66794371D01*
X130348166Y-66753913D01*
X130342046Y-66712657D01*
X130340000Y-66671000D01*
X130340000Y-63821000D01*
X130342046Y-63779343D01*
X130348166Y-63738087D01*
X130358300Y-63697629D01*
X130372351Y-63658360D01*
X130390183Y-63620656D01*
X130411625Y-63584883D01*
X130436471Y-63551383D01*
X130464480Y-63520480D01*
X130495383Y-63492471D01*
X130528883Y-63467625D01*
X130564656Y-63446183D01*
X130602360Y-63428351D01*
X130641629Y-63414300D01*
X130682087Y-63404166D01*
X130723343Y-63398046D01*
X130765000Y-63396000D01*
X131615000Y-63396000D01*
X131656657Y-63398046D01*
G37*
G36*
X134196657Y-63398046D02*
G01*
X134237913Y-63404166D01*
X134278371Y-63414300D01*
X134317640Y-63428351D01*
X134355344Y-63446183D01*
X134391117Y-63467625D01*
X134424617Y-63492471D01*
X134455520Y-63520480D01*
X134483529Y-63551383D01*
X134508375Y-63584883D01*
X134529817Y-63620656D01*
X134547649Y-63658360D01*
X134561700Y-63697629D01*
X134571834Y-63738087D01*
X134577954Y-63779343D01*
X134580000Y-63821000D01*
X134580000Y-66671000D01*
X134577954Y-66712657D01*
X134571834Y-66753913D01*
X134561700Y-66794371D01*
X134547649Y-66833640D01*
X134529817Y-66871344D01*
X134508375Y-66907117D01*
X134483529Y-66940617D01*
X134455520Y-66971520D01*
X134424617Y-66999529D01*
X134391117Y-67024375D01*
X134355344Y-67045817D01*
X134317640Y-67063649D01*
X134278371Y-67077700D01*
X134237913Y-67087834D01*
X134196657Y-67093954D01*
X134155000Y-67096000D01*
X133305000Y-67096000D01*
X133263343Y-67093954D01*
X133222087Y-67087834D01*
X133181629Y-67077700D01*
X133142360Y-67063649D01*
X133104656Y-67045817D01*
X133068883Y-67024375D01*
X133035383Y-66999529D01*
X133004480Y-66971520D01*
X132976471Y-66940617D01*
X132951625Y-66907117D01*
X132930183Y-66871344D01*
X132912351Y-66833640D01*
X132898300Y-66794371D01*
X132888166Y-66753913D01*
X132882046Y-66712657D01*
X132880000Y-66671000D01*
X132880000Y-63821000D01*
X132882046Y-63779343D01*
X132888166Y-63738087D01*
X132898300Y-63697629D01*
X132912351Y-63658360D01*
X132930183Y-63620656D01*
X132951625Y-63584883D01*
X132976471Y-63551383D01*
X133004480Y-63520480D01*
X133035383Y-63492471D01*
X133068883Y-63467625D01*
X133104656Y-63446183D01*
X133142360Y-63428351D01*
X133181629Y-63414300D01*
X133222087Y-63404166D01*
X133263343Y-63398046D01*
X133305000Y-63396000D01*
X134155000Y-63396000D01*
X134196657Y-63398046D01*
G37*
G36*
X136736657Y-63398046D02*
G01*
X136777913Y-63404166D01*
X136818371Y-63414300D01*
X136857640Y-63428351D01*
X136895344Y-63446183D01*
X136931117Y-63467625D01*
X136964617Y-63492471D01*
X136995520Y-63520480D01*
X137023529Y-63551383D01*
X137048375Y-63584883D01*
X137069817Y-63620656D01*
X137087649Y-63658360D01*
X137101700Y-63697629D01*
X137111834Y-63738087D01*
X137117954Y-63779343D01*
X137120000Y-63821000D01*
X137120000Y-66671000D01*
X137117954Y-66712657D01*
X137111834Y-66753913D01*
X137101700Y-66794371D01*
X137087649Y-66833640D01*
X137069817Y-66871344D01*
X137048375Y-66907117D01*
X137023529Y-66940617D01*
X136995520Y-66971520D01*
X136964617Y-66999529D01*
X136931117Y-67024375D01*
X136895344Y-67045817D01*
X136857640Y-67063649D01*
X136818371Y-67077700D01*
X136777913Y-67087834D01*
X136736657Y-67093954D01*
X136695000Y-67096000D01*
X135845000Y-67096000D01*
X135803343Y-67093954D01*
X135762087Y-67087834D01*
X135721629Y-67077700D01*
X135682360Y-67063649D01*
X135644656Y-67045817D01*
X135608883Y-67024375D01*
X135575383Y-66999529D01*
X135544480Y-66971520D01*
X135516471Y-66940617D01*
X135491625Y-66907117D01*
X135470183Y-66871344D01*
X135452351Y-66833640D01*
X135438300Y-66794371D01*
X135428166Y-66753913D01*
X135422046Y-66712657D01*
X135420000Y-66671000D01*
X135420000Y-63821000D01*
X135422046Y-63779343D01*
X135428166Y-63738087D01*
X135438300Y-63697629D01*
X135452351Y-63658360D01*
X135470183Y-63620656D01*
X135491625Y-63584883D01*
X135516471Y-63551383D01*
X135544480Y-63520480D01*
X135575383Y-63492471D01*
X135608883Y-63467625D01*
X135644656Y-63446183D01*
X135682360Y-63428351D01*
X135721629Y-63414300D01*
X135762087Y-63404166D01*
X135803343Y-63398046D01*
X135845000Y-63396000D01*
X136695000Y-63396000D01*
X136736657Y-63398046D01*
G37*
G36*
X139276657Y-63398046D02*
G01*
X139317913Y-63404166D01*
X139358371Y-63414300D01*
X139397640Y-63428351D01*
X139435344Y-63446183D01*
X139471117Y-63467625D01*
X139504617Y-63492471D01*
X139535520Y-63520480D01*
X139563529Y-63551383D01*
X139588375Y-63584883D01*
X139609817Y-63620656D01*
X139627649Y-63658360D01*
X139641700Y-63697629D01*
X139651834Y-63738087D01*
X139657954Y-63779343D01*
X139660000Y-63821000D01*
X139660000Y-66671000D01*
X139657954Y-66712657D01*
X139651834Y-66753913D01*
X139641700Y-66794371D01*
X139627649Y-66833640D01*
X139609817Y-66871344D01*
X139588375Y-66907117D01*
X139563529Y-66940617D01*
X139535520Y-66971520D01*
X139504617Y-66999529D01*
X139471117Y-67024375D01*
X139435344Y-67045817D01*
X139397640Y-67063649D01*
X139358371Y-67077700D01*
X139317913Y-67087834D01*
X139276657Y-67093954D01*
X139235000Y-67096000D01*
X138385000Y-67096000D01*
X138343343Y-67093954D01*
X138302087Y-67087834D01*
X138261629Y-67077700D01*
X138222360Y-67063649D01*
X138184656Y-67045817D01*
X138148883Y-67024375D01*
X138115383Y-66999529D01*
X138084480Y-66971520D01*
X138056471Y-66940617D01*
X138031625Y-66907117D01*
X138010183Y-66871344D01*
X137992351Y-66833640D01*
X137978300Y-66794371D01*
X137968166Y-66753913D01*
X137962046Y-66712657D01*
X137960000Y-66671000D01*
X137960000Y-63821000D01*
X137962046Y-63779343D01*
X137968166Y-63738087D01*
X137978300Y-63697629D01*
X137992351Y-63658360D01*
X138010183Y-63620656D01*
X138031625Y-63584883D01*
X138056471Y-63551383D01*
X138084480Y-63520480D01*
X138115383Y-63492471D01*
X138148883Y-63467625D01*
X138184656Y-63446183D01*
X138222360Y-63428351D01*
X138261629Y-63414300D01*
X138302087Y-63404166D01*
X138343343Y-63398046D01*
X138385000Y-63396000D01*
X139235000Y-63396000D01*
X139276657Y-63398046D01*
G37*
G36*
X139276657Y-81686046D02*
G01*
X139317913Y-81692166D01*
X139358371Y-81702300D01*
X139397640Y-81716351D01*
X139435344Y-81734183D01*
X139471117Y-81755625D01*
X139504617Y-81780471D01*
X139535520Y-81808480D01*
X139563529Y-81839383D01*
X139588375Y-81872883D01*
X139609817Y-81908656D01*
X139627649Y-81946360D01*
X139641700Y-81985629D01*
X139651834Y-82026087D01*
X139657954Y-82067343D01*
X139660000Y-82109000D01*
X139660000Y-84959000D01*
X139657954Y-85000657D01*
X139651834Y-85041913D01*
X139641700Y-85082371D01*
X139627649Y-85121640D01*
X139609817Y-85159344D01*
X139588375Y-85195117D01*
X139563529Y-85228617D01*
X139535520Y-85259520D01*
X139504617Y-85287529D01*
X139471117Y-85312375D01*
X139435344Y-85333817D01*
X139397640Y-85351649D01*
X139358371Y-85365700D01*
X139317913Y-85375834D01*
X139276657Y-85381954D01*
X139235000Y-85384000D01*
X138385000Y-85384000D01*
X138343343Y-85381954D01*
X138302087Y-85375834D01*
X138261629Y-85365700D01*
X138222360Y-85351649D01*
X138184656Y-85333817D01*
X138148883Y-85312375D01*
X138115383Y-85287529D01*
X138084480Y-85259520D01*
X138056471Y-85228617D01*
X138031625Y-85195117D01*
X138010183Y-85159344D01*
X137992351Y-85121640D01*
X137978300Y-85082371D01*
X137968166Y-85041913D01*
X137962046Y-85000657D01*
X137960000Y-84959000D01*
X137960000Y-82109000D01*
X137962046Y-82067343D01*
X137968166Y-82026087D01*
X137978300Y-81985629D01*
X137992351Y-81946360D01*
X138010183Y-81908656D01*
X138031625Y-81872883D01*
X138056471Y-81839383D01*
X138084480Y-81808480D01*
X138115383Y-81780471D01*
X138148883Y-81755625D01*
X138184656Y-81734183D01*
X138222360Y-81716351D01*
X138261629Y-81702300D01*
X138302087Y-81692166D01*
X138343343Y-81686046D01*
X138385000Y-81684000D01*
X139235000Y-81684000D01*
X139276657Y-81686046D01*
G37*
G36*
X136736657Y-81686046D02*
G01*
X136777913Y-81692166D01*
X136818371Y-81702300D01*
X136857640Y-81716351D01*
X136895344Y-81734183D01*
X136931117Y-81755625D01*
X136964617Y-81780471D01*
X136995520Y-81808480D01*
X137023529Y-81839383D01*
X137048375Y-81872883D01*
X137069817Y-81908656D01*
X137087649Y-81946360D01*
X137101700Y-81985629D01*
X137111834Y-82026087D01*
X137117954Y-82067343D01*
X137120000Y-82109000D01*
X137120000Y-84959000D01*
X137117954Y-85000657D01*
X137111834Y-85041913D01*
X137101700Y-85082371D01*
X137087649Y-85121640D01*
X137069817Y-85159344D01*
X137048375Y-85195117D01*
X137023529Y-85228617D01*
X136995520Y-85259520D01*
X136964617Y-85287529D01*
X136931117Y-85312375D01*
X136895344Y-85333817D01*
X136857640Y-85351649D01*
X136818371Y-85365700D01*
X136777913Y-85375834D01*
X136736657Y-85381954D01*
X136695000Y-85384000D01*
X135845000Y-85384000D01*
X135803343Y-85381954D01*
X135762087Y-85375834D01*
X135721629Y-85365700D01*
X135682360Y-85351649D01*
X135644656Y-85333817D01*
X135608883Y-85312375D01*
X135575383Y-85287529D01*
X135544480Y-85259520D01*
X135516471Y-85228617D01*
X135491625Y-85195117D01*
X135470183Y-85159344D01*
X135452351Y-85121640D01*
X135438300Y-85082371D01*
X135428166Y-85041913D01*
X135422046Y-85000657D01*
X135420000Y-84959000D01*
X135420000Y-82109000D01*
X135422046Y-82067343D01*
X135428166Y-82026087D01*
X135438300Y-81985629D01*
X135452351Y-81946360D01*
X135470183Y-81908656D01*
X135491625Y-81872883D01*
X135516471Y-81839383D01*
X135544480Y-81808480D01*
X135575383Y-81780471D01*
X135608883Y-81755625D01*
X135644656Y-81734183D01*
X135682360Y-81716351D01*
X135721629Y-81702300D01*
X135762087Y-81692166D01*
X135803343Y-81686046D01*
X135845000Y-81684000D01*
X136695000Y-81684000D01*
X136736657Y-81686046D01*
G37*
G36*
X134196657Y-81686046D02*
G01*
X134237913Y-81692166D01*
X134278371Y-81702300D01*
X134317640Y-81716351D01*
X134355344Y-81734183D01*
X134391117Y-81755625D01*
X134424617Y-81780471D01*
X134455520Y-81808480D01*
X134483529Y-81839383D01*
X134508375Y-81872883D01*
X134529817Y-81908656D01*
X134547649Y-81946360D01*
X134561700Y-81985629D01*
X134571834Y-82026087D01*
X134577954Y-82067343D01*
X134580000Y-82109000D01*
X134580000Y-84959000D01*
X134577954Y-85000657D01*
X134571834Y-85041913D01*
X134561700Y-85082371D01*
X134547649Y-85121640D01*
X134529817Y-85159344D01*
X134508375Y-85195117D01*
X134483529Y-85228617D01*
X134455520Y-85259520D01*
X134424617Y-85287529D01*
X134391117Y-85312375D01*
X134355344Y-85333817D01*
X134317640Y-85351649D01*
X134278371Y-85365700D01*
X134237913Y-85375834D01*
X134196657Y-85381954D01*
X134155000Y-85384000D01*
X133305000Y-85384000D01*
X133263343Y-85381954D01*
X133222087Y-85375834D01*
X133181629Y-85365700D01*
X133142360Y-85351649D01*
X133104656Y-85333817D01*
X133068883Y-85312375D01*
X133035383Y-85287529D01*
X133004480Y-85259520D01*
X132976471Y-85228617D01*
X132951625Y-85195117D01*
X132930183Y-85159344D01*
X132912351Y-85121640D01*
X132898300Y-85082371D01*
X132888166Y-85041913D01*
X132882046Y-85000657D01*
X132880000Y-84959000D01*
X132880000Y-82109000D01*
X132882046Y-82067343D01*
X132888166Y-82026087D01*
X132898300Y-81985629D01*
X132912351Y-81946360D01*
X132930183Y-81908656D01*
X132951625Y-81872883D01*
X132976471Y-81839383D01*
X133004480Y-81808480D01*
X133035383Y-81780471D01*
X133068883Y-81755625D01*
X133104656Y-81734183D01*
X133142360Y-81716351D01*
X133181629Y-81702300D01*
X133222087Y-81692166D01*
X133263343Y-81686046D01*
X133305000Y-81684000D01*
X134155000Y-81684000D01*
X134196657Y-81686046D01*
G37*
G36*
X131656657Y-81686046D02*
G01*
X131697913Y-81692166D01*
X131738371Y-81702300D01*
X131777640Y-81716351D01*
X131815344Y-81734183D01*
X131851117Y-81755625D01*
X131884617Y-81780471D01*
X131915520Y-81808480D01*
X131943529Y-81839383D01*
X131968375Y-81872883D01*
X131989817Y-81908656D01*
X132007649Y-81946360D01*
X132021700Y-81985629D01*
X132031834Y-82026087D01*
X132037954Y-82067343D01*
X132040000Y-82109000D01*
X132040000Y-84959000D01*
X132037954Y-85000657D01*
X132031834Y-85041913D01*
X132021700Y-85082371D01*
X132007649Y-85121640D01*
X131989817Y-85159344D01*
X131968375Y-85195117D01*
X131943529Y-85228617D01*
X131915520Y-85259520D01*
X131884617Y-85287529D01*
X131851117Y-85312375D01*
X131815344Y-85333817D01*
X131777640Y-85351649D01*
X131738371Y-85365700D01*
X131697913Y-85375834D01*
X131656657Y-85381954D01*
X131615000Y-85384000D01*
X130765000Y-85384000D01*
X130723343Y-85381954D01*
X130682087Y-85375834D01*
X130641629Y-85365700D01*
X130602360Y-85351649D01*
X130564656Y-85333817D01*
X130528883Y-85312375D01*
X130495383Y-85287529D01*
X130464480Y-85259520D01*
X130436471Y-85228617D01*
X130411625Y-85195117D01*
X130390183Y-85159344D01*
X130372351Y-85121640D01*
X130358300Y-85082371D01*
X130348166Y-85041913D01*
X130342046Y-85000657D01*
X130340000Y-84959000D01*
X130340000Y-82109000D01*
X130342046Y-82067343D01*
X130348166Y-82026087D01*
X130358300Y-81985629D01*
X130372351Y-81946360D01*
X130390183Y-81908656D01*
X130411625Y-81872883D01*
X130436471Y-81839383D01*
X130464480Y-81808480D01*
X130495383Y-81780471D01*
X130528883Y-81755625D01*
X130564656Y-81734183D01*
X130602360Y-81716351D01*
X130641629Y-81702300D01*
X130682087Y-81692166D01*
X130723343Y-81686046D01*
X130765000Y-81684000D01*
X131615000Y-81684000D01*
X131656657Y-81686046D01*
G37*
G36*
X129116657Y-81686046D02*
G01*
X129157913Y-81692166D01*
X129198371Y-81702300D01*
X129237640Y-81716351D01*
X129275344Y-81734183D01*
X129311117Y-81755625D01*
X129344617Y-81780471D01*
X129375520Y-81808480D01*
X129403529Y-81839383D01*
X129428375Y-81872883D01*
X129449817Y-81908656D01*
X129467649Y-81946360D01*
X129481700Y-81985629D01*
X129491834Y-82026087D01*
X129497954Y-82067343D01*
X129500000Y-82109000D01*
X129500000Y-84959000D01*
X129497954Y-85000657D01*
X129491834Y-85041913D01*
X129481700Y-85082371D01*
X129467649Y-85121640D01*
X129449817Y-85159344D01*
X129428375Y-85195117D01*
X129403529Y-85228617D01*
X129375520Y-85259520D01*
X129344617Y-85287529D01*
X129311117Y-85312375D01*
X129275344Y-85333817D01*
X129237640Y-85351649D01*
X129198371Y-85365700D01*
X129157913Y-85375834D01*
X129116657Y-85381954D01*
X129075000Y-85384000D01*
X128225000Y-85384000D01*
X128183343Y-85381954D01*
X128142087Y-85375834D01*
X128101629Y-85365700D01*
X128062360Y-85351649D01*
X128024656Y-85333817D01*
X127988883Y-85312375D01*
X127955383Y-85287529D01*
X127924480Y-85259520D01*
X127896471Y-85228617D01*
X127871625Y-85195117D01*
X127850183Y-85159344D01*
X127832351Y-85121640D01*
X127818300Y-85082371D01*
X127808166Y-85041913D01*
X127802046Y-85000657D01*
X127800000Y-84959000D01*
X127800000Y-82109000D01*
X127802046Y-82067343D01*
X127808166Y-82026087D01*
X127818300Y-81985629D01*
X127832351Y-81946360D01*
X127850183Y-81908656D01*
X127871625Y-81872883D01*
X127896471Y-81839383D01*
X127924480Y-81808480D01*
X127955383Y-81780471D01*
X127988883Y-81755625D01*
X128024656Y-81734183D01*
X128062360Y-81716351D01*
X128101629Y-81702300D01*
X128142087Y-81692166D01*
X128183343Y-81686046D01*
X128225000Y-81684000D01*
X129075000Y-81684000D01*
X129116657Y-81686046D01*
G37*
G36*
X126576657Y-81686046D02*
G01*
X126617913Y-81692166D01*
X126658371Y-81702300D01*
X126697640Y-81716351D01*
X126735344Y-81734183D01*
X126771117Y-81755625D01*
X126804617Y-81780471D01*
X126835520Y-81808480D01*
X126863529Y-81839383D01*
X126888375Y-81872883D01*
X126909817Y-81908656D01*
X126927649Y-81946360D01*
X126941700Y-81985629D01*
X126951834Y-82026087D01*
X126957954Y-82067343D01*
X126960000Y-82109000D01*
X126960000Y-84959000D01*
X126957954Y-85000657D01*
X126951834Y-85041913D01*
X126941700Y-85082371D01*
X126927649Y-85121640D01*
X126909817Y-85159344D01*
X126888375Y-85195117D01*
X126863529Y-85228617D01*
X126835520Y-85259520D01*
X126804617Y-85287529D01*
X126771117Y-85312375D01*
X126735344Y-85333817D01*
X126697640Y-85351649D01*
X126658371Y-85365700D01*
X126617913Y-85375834D01*
X126576657Y-85381954D01*
X126535000Y-85384000D01*
X125685000Y-85384000D01*
X125643343Y-85381954D01*
X125602087Y-85375834D01*
X125561629Y-85365700D01*
X125522360Y-85351649D01*
X125484656Y-85333817D01*
X125448883Y-85312375D01*
X125415383Y-85287529D01*
X125384480Y-85259520D01*
X125356471Y-85228617D01*
X125331625Y-85195117D01*
X125310183Y-85159344D01*
X125292351Y-85121640D01*
X125278300Y-85082371D01*
X125268166Y-85041913D01*
X125262046Y-85000657D01*
X125260000Y-84959000D01*
X125260000Y-82109000D01*
X125262046Y-82067343D01*
X125268166Y-82026087D01*
X125278300Y-81985629D01*
X125292351Y-81946360D01*
X125310183Y-81908656D01*
X125331625Y-81872883D01*
X125356471Y-81839383D01*
X125384480Y-81808480D01*
X125415383Y-81780471D01*
X125448883Y-81755625D01*
X125484656Y-81734183D01*
X125522360Y-81716351D01*
X125561629Y-81702300D01*
X125602087Y-81692166D01*
X125643343Y-81686046D01*
X125685000Y-81684000D01*
X126535000Y-81684000D01*
X126576657Y-81686046D01*
G37*
G36*
X124036657Y-81686046D02*
G01*
X124077913Y-81692166D01*
X124118371Y-81702300D01*
X124157640Y-81716351D01*
X124195344Y-81734183D01*
X124231117Y-81755625D01*
X124264617Y-81780471D01*
X124295520Y-81808480D01*
X124323529Y-81839383D01*
X124348375Y-81872883D01*
X124369817Y-81908656D01*
X124387649Y-81946360D01*
X124401700Y-81985629D01*
X124411834Y-82026087D01*
X124417954Y-82067343D01*
X124420000Y-82109000D01*
X124420000Y-84959000D01*
X124417954Y-85000657D01*
X124411834Y-85041913D01*
X124401700Y-85082371D01*
X124387649Y-85121640D01*
X124369817Y-85159344D01*
X124348375Y-85195117D01*
X124323529Y-85228617D01*
X124295520Y-85259520D01*
X124264617Y-85287529D01*
X124231117Y-85312375D01*
X124195344Y-85333817D01*
X124157640Y-85351649D01*
X124118371Y-85365700D01*
X124077913Y-85375834D01*
X124036657Y-85381954D01*
X123995000Y-85384000D01*
X123145000Y-85384000D01*
X123103343Y-85381954D01*
X123062087Y-85375834D01*
X123021629Y-85365700D01*
X122982360Y-85351649D01*
X122944656Y-85333817D01*
X122908883Y-85312375D01*
X122875383Y-85287529D01*
X122844480Y-85259520D01*
X122816471Y-85228617D01*
X122791625Y-85195117D01*
X122770183Y-85159344D01*
X122752351Y-85121640D01*
X122738300Y-85082371D01*
X122728166Y-85041913D01*
X122722046Y-85000657D01*
X122720000Y-84959000D01*
X122720000Y-82109000D01*
X122722046Y-82067343D01*
X122728166Y-82026087D01*
X122738300Y-81985629D01*
X122752351Y-81946360D01*
X122770183Y-81908656D01*
X122791625Y-81872883D01*
X122816471Y-81839383D01*
X122844480Y-81808480D01*
X122875383Y-81780471D01*
X122908883Y-81755625D01*
X122944656Y-81734183D01*
X122982360Y-81716351D01*
X123021629Y-81702300D01*
X123062087Y-81692166D01*
X123103343Y-81686046D01*
X123145000Y-81684000D01*
X123995000Y-81684000D01*
X124036657Y-81686046D01*
G37*
G36*
X121496657Y-81686046D02*
G01*
X121537913Y-81692166D01*
X121578371Y-81702300D01*
X121617640Y-81716351D01*
X121655344Y-81734183D01*
X121691117Y-81755625D01*
X121724617Y-81780471D01*
X121755520Y-81808480D01*
X121783529Y-81839383D01*
X121808375Y-81872883D01*
X121829817Y-81908656D01*
X121847649Y-81946360D01*
X121861700Y-81985629D01*
X121871834Y-82026087D01*
X121877954Y-82067343D01*
X121880000Y-82109000D01*
X121880000Y-84959000D01*
X121877954Y-85000657D01*
X121871834Y-85041913D01*
X121861700Y-85082371D01*
X121847649Y-85121640D01*
X121829817Y-85159344D01*
X121808375Y-85195117D01*
X121783529Y-85228617D01*
X121755520Y-85259520D01*
X121724617Y-85287529D01*
X121691117Y-85312375D01*
X121655344Y-85333817D01*
X121617640Y-85351649D01*
X121578371Y-85365700D01*
X121537913Y-85375834D01*
X121496657Y-85381954D01*
X121455000Y-85384000D01*
X120605000Y-85384000D01*
X120563343Y-85381954D01*
X120522087Y-85375834D01*
X120481629Y-85365700D01*
X120442360Y-85351649D01*
X120404656Y-85333817D01*
X120368883Y-85312375D01*
X120335383Y-85287529D01*
X120304480Y-85259520D01*
X120276471Y-85228617D01*
X120251625Y-85195117D01*
X120230183Y-85159344D01*
X120212351Y-85121640D01*
X120198300Y-85082371D01*
X120188166Y-85041913D01*
X120182046Y-85000657D01*
X120180000Y-84959000D01*
X120180000Y-82109000D01*
X120182046Y-82067343D01*
X120188166Y-82026087D01*
X120198300Y-81985629D01*
X120212351Y-81946360D01*
X120230183Y-81908656D01*
X120251625Y-81872883D01*
X120276471Y-81839383D01*
X120304480Y-81808480D01*
X120335383Y-81780471D01*
X120368883Y-81755625D01*
X120404656Y-81734183D01*
X120442360Y-81716351D01*
X120481629Y-81702300D01*
X120522087Y-81692166D01*
X120563343Y-81686046D01*
X120605000Y-81684000D01*
X121455000Y-81684000D01*
X121496657Y-81686046D01*
G37*
G36*
X118956657Y-81686046D02*
G01*
X118997913Y-81692166D01*
X119038371Y-81702300D01*
X119077640Y-81716351D01*
X119115344Y-81734183D01*
X119151117Y-81755625D01*
X119184617Y-81780471D01*
X119215520Y-81808480D01*
X119243529Y-81839383D01*
X119268375Y-81872883D01*
X119289817Y-81908656D01*
X119307649Y-81946360D01*
X119321700Y-81985629D01*
X119331834Y-82026087D01*
X119337954Y-82067343D01*
X119340000Y-82109000D01*
X119340000Y-84959000D01*
X119337954Y-85000657D01*
X119331834Y-85041913D01*
X119321700Y-85082371D01*
X119307649Y-85121640D01*
X119289817Y-85159344D01*
X119268375Y-85195117D01*
X119243529Y-85228617D01*
X119215520Y-85259520D01*
X119184617Y-85287529D01*
X119151117Y-85312375D01*
X119115344Y-85333817D01*
X119077640Y-85351649D01*
X119038371Y-85365700D01*
X118997913Y-85375834D01*
X118956657Y-85381954D01*
X118915000Y-85384000D01*
X118065000Y-85384000D01*
X118023343Y-85381954D01*
X117982087Y-85375834D01*
X117941629Y-85365700D01*
X117902360Y-85351649D01*
X117864656Y-85333817D01*
X117828883Y-85312375D01*
X117795383Y-85287529D01*
X117764480Y-85259520D01*
X117736471Y-85228617D01*
X117711625Y-85195117D01*
X117690183Y-85159344D01*
X117672351Y-85121640D01*
X117658300Y-85082371D01*
X117648166Y-85041913D01*
X117642046Y-85000657D01*
X117640000Y-84959000D01*
X117640000Y-82109000D01*
X117642046Y-82067343D01*
X117648166Y-82026087D01*
X117658300Y-81985629D01*
X117672351Y-81946360D01*
X117690183Y-81908656D01*
X117711625Y-81872883D01*
X117736471Y-81839383D01*
X117764480Y-81808480D01*
X117795383Y-81780471D01*
X117828883Y-81755625D01*
X117864656Y-81734183D01*
X117902360Y-81716351D01*
X117941629Y-81702300D01*
X117982087Y-81692166D01*
X118023343Y-81686046D01*
X118065000Y-81684000D01*
X118915000Y-81684000D01*
X118956657Y-81686046D01*
G37*
G36*
X116416657Y-81686046D02*
G01*
X116457913Y-81692166D01*
X116498371Y-81702300D01*
X116537640Y-81716351D01*
X116575344Y-81734183D01*
X116611117Y-81755625D01*
X116644617Y-81780471D01*
X116675520Y-81808480D01*
X116703529Y-81839383D01*
X116728375Y-81872883D01*
X116749817Y-81908656D01*
X116767649Y-81946360D01*
X116781700Y-81985629D01*
X116791834Y-82026087D01*
X116797954Y-82067343D01*
X116800000Y-82109000D01*
X116800000Y-84959000D01*
X116797954Y-85000657D01*
X116791834Y-85041913D01*
X116781700Y-85082371D01*
X116767649Y-85121640D01*
X116749817Y-85159344D01*
X116728375Y-85195117D01*
X116703529Y-85228617D01*
X116675520Y-85259520D01*
X116644617Y-85287529D01*
X116611117Y-85312375D01*
X116575344Y-85333817D01*
X116537640Y-85351649D01*
X116498371Y-85365700D01*
X116457913Y-85375834D01*
X116416657Y-85381954D01*
X116375000Y-85384000D01*
X115525000Y-85384000D01*
X115483343Y-85381954D01*
X115442087Y-85375834D01*
X115401629Y-85365700D01*
X115362360Y-85351649D01*
X115324656Y-85333817D01*
X115288883Y-85312375D01*
X115255383Y-85287529D01*
X115224480Y-85259520D01*
X115196471Y-85228617D01*
X115171625Y-85195117D01*
X115150183Y-85159344D01*
X115132351Y-85121640D01*
X115118300Y-85082371D01*
X115108166Y-85041913D01*
X115102046Y-85000657D01*
X115100000Y-84959000D01*
X115100000Y-82109000D01*
X115102046Y-82067343D01*
X115108166Y-82026087D01*
X115118300Y-81985629D01*
X115132351Y-81946360D01*
X115150183Y-81908656D01*
X115171625Y-81872883D01*
X115196471Y-81839383D01*
X115224480Y-81808480D01*
X115255383Y-81780471D01*
X115288883Y-81755625D01*
X115324656Y-81734183D01*
X115362360Y-81716351D01*
X115401629Y-81702300D01*
X115442087Y-81692166D01*
X115483343Y-81686046D01*
X115525000Y-81684000D01*
X116375000Y-81684000D01*
X116416657Y-81686046D01*
G37*
G36*
X113876657Y-81686046D02*
G01*
X113917913Y-81692166D01*
X113958371Y-81702300D01*
X113997640Y-81716351D01*
X114035344Y-81734183D01*
X114071117Y-81755625D01*
X114104617Y-81780471D01*
X114135520Y-81808480D01*
X114163529Y-81839383D01*
X114188375Y-81872883D01*
X114209817Y-81908656D01*
X114227649Y-81946360D01*
X114241700Y-81985629D01*
X114251834Y-82026087D01*
X114257954Y-82067343D01*
X114260000Y-82109000D01*
X114260000Y-84959000D01*
X114257954Y-85000657D01*
X114251834Y-85041913D01*
X114241700Y-85082371D01*
X114227649Y-85121640D01*
X114209817Y-85159344D01*
X114188375Y-85195117D01*
X114163529Y-85228617D01*
X114135520Y-85259520D01*
X114104617Y-85287529D01*
X114071117Y-85312375D01*
X114035344Y-85333817D01*
X113997640Y-85351649D01*
X113958371Y-85365700D01*
X113917913Y-85375834D01*
X113876657Y-85381954D01*
X113835000Y-85384000D01*
X112985000Y-85384000D01*
X112943343Y-85381954D01*
X112902087Y-85375834D01*
X112861629Y-85365700D01*
X112822360Y-85351649D01*
X112784656Y-85333817D01*
X112748883Y-85312375D01*
X112715383Y-85287529D01*
X112684480Y-85259520D01*
X112656471Y-85228617D01*
X112631625Y-85195117D01*
X112610183Y-85159344D01*
X112592351Y-85121640D01*
X112578300Y-85082371D01*
X112568166Y-85041913D01*
X112562046Y-85000657D01*
X112560000Y-84959000D01*
X112560000Y-82109000D01*
X112562046Y-82067343D01*
X112568166Y-82026087D01*
X112578300Y-81985629D01*
X112592351Y-81946360D01*
X112610183Y-81908656D01*
X112631625Y-81872883D01*
X112656471Y-81839383D01*
X112684480Y-81808480D01*
X112715383Y-81780471D01*
X112748883Y-81755625D01*
X112784656Y-81734183D01*
X112822360Y-81716351D01*
X112861629Y-81702300D01*
X112902087Y-81692166D01*
X112943343Y-81686046D01*
X112985000Y-81684000D01*
X113835000Y-81684000D01*
X113876657Y-81686046D01*
G37*
G36*
X111336657Y-81686046D02*
G01*
X111377913Y-81692166D01*
X111418371Y-81702300D01*
X111457640Y-81716351D01*
X111495344Y-81734183D01*
X111531117Y-81755625D01*
X111564617Y-81780471D01*
X111595520Y-81808480D01*
X111623529Y-81839383D01*
X111648375Y-81872883D01*
X111669817Y-81908656D01*
X111687649Y-81946360D01*
X111701700Y-81985629D01*
X111711834Y-82026087D01*
X111717954Y-82067343D01*
X111720000Y-82109000D01*
X111720000Y-84959000D01*
X111717954Y-85000657D01*
X111711834Y-85041913D01*
X111701700Y-85082371D01*
X111687649Y-85121640D01*
X111669817Y-85159344D01*
X111648375Y-85195117D01*
X111623529Y-85228617D01*
X111595520Y-85259520D01*
X111564617Y-85287529D01*
X111531117Y-85312375D01*
X111495344Y-85333817D01*
X111457640Y-85351649D01*
X111418371Y-85365700D01*
X111377913Y-85375834D01*
X111336657Y-85381954D01*
X111295000Y-85384000D01*
X110445000Y-85384000D01*
X110403343Y-85381954D01*
X110362087Y-85375834D01*
X110321629Y-85365700D01*
X110282360Y-85351649D01*
X110244656Y-85333817D01*
X110208883Y-85312375D01*
X110175383Y-85287529D01*
X110144480Y-85259520D01*
X110116471Y-85228617D01*
X110091625Y-85195117D01*
X110070183Y-85159344D01*
X110052351Y-85121640D01*
X110038300Y-85082371D01*
X110028166Y-85041913D01*
X110022046Y-85000657D01*
X110020000Y-84959000D01*
X110020000Y-82109000D01*
X110022046Y-82067343D01*
X110028166Y-82026087D01*
X110038300Y-81985629D01*
X110052351Y-81946360D01*
X110070183Y-81908656D01*
X110091625Y-81872883D01*
X110116471Y-81839383D01*
X110144480Y-81808480D01*
X110175383Y-81780471D01*
X110208883Y-81755625D01*
X110244656Y-81734183D01*
X110282360Y-81716351D01*
X110321629Y-81702300D01*
X110362087Y-81692166D01*
X110403343Y-81686046D01*
X110445000Y-81684000D01*
X111295000Y-81684000D01*
X111336657Y-81686046D01*
G37*
G36*
X108796657Y-81686046D02*
G01*
X108837913Y-81692166D01*
X108878371Y-81702300D01*
X108917640Y-81716351D01*
X108955344Y-81734183D01*
X108991117Y-81755625D01*
X109024617Y-81780471D01*
X109055520Y-81808480D01*
X109083529Y-81839383D01*
X109108375Y-81872883D01*
X109129817Y-81908656D01*
X109147649Y-81946360D01*
X109161700Y-81985629D01*
X109171834Y-82026087D01*
X109177954Y-82067343D01*
X109180000Y-82109000D01*
X109180000Y-84959000D01*
X109177954Y-85000657D01*
X109171834Y-85041913D01*
X109161700Y-85082371D01*
X109147649Y-85121640D01*
X109129817Y-85159344D01*
X109108375Y-85195117D01*
X109083529Y-85228617D01*
X109055520Y-85259520D01*
X109024617Y-85287529D01*
X108991117Y-85312375D01*
X108955344Y-85333817D01*
X108917640Y-85351649D01*
X108878371Y-85365700D01*
X108837913Y-85375834D01*
X108796657Y-85381954D01*
X108755000Y-85384000D01*
X107905000Y-85384000D01*
X107863343Y-85381954D01*
X107822087Y-85375834D01*
X107781629Y-85365700D01*
X107742360Y-85351649D01*
X107704656Y-85333817D01*
X107668883Y-85312375D01*
X107635383Y-85287529D01*
X107604480Y-85259520D01*
X107576471Y-85228617D01*
X107551625Y-85195117D01*
X107530183Y-85159344D01*
X107512351Y-85121640D01*
X107498300Y-85082371D01*
X107488166Y-85041913D01*
X107482046Y-85000657D01*
X107480000Y-84959000D01*
X107480000Y-82109000D01*
X107482046Y-82067343D01*
X107488166Y-82026087D01*
X107498300Y-81985629D01*
X107512351Y-81946360D01*
X107530183Y-81908656D01*
X107551625Y-81872883D01*
X107576471Y-81839383D01*
X107604480Y-81808480D01*
X107635383Y-81780471D01*
X107668883Y-81755625D01*
X107704656Y-81734183D01*
X107742360Y-81716351D01*
X107781629Y-81702300D01*
X107822087Y-81692166D01*
X107863343Y-81686046D01*
X107905000Y-81684000D01*
X108755000Y-81684000D01*
X108796657Y-81686046D01*
G37*
G36*
X106256657Y-81686046D02*
G01*
X106297913Y-81692166D01*
X106338371Y-81702300D01*
X106377640Y-81716351D01*
X106415344Y-81734183D01*
X106451117Y-81755625D01*
X106484617Y-81780471D01*
X106515520Y-81808480D01*
X106543529Y-81839383D01*
X106568375Y-81872883D01*
X106589817Y-81908656D01*
X106607649Y-81946360D01*
X106621700Y-81985629D01*
X106631834Y-82026087D01*
X106637954Y-82067343D01*
X106640000Y-82109000D01*
X106640000Y-84959000D01*
X106637954Y-85000657D01*
X106631834Y-85041913D01*
X106621700Y-85082371D01*
X106607649Y-85121640D01*
X106589817Y-85159344D01*
X106568375Y-85195117D01*
X106543529Y-85228617D01*
X106515520Y-85259520D01*
X106484617Y-85287529D01*
X106451117Y-85312375D01*
X106415344Y-85333817D01*
X106377640Y-85351649D01*
X106338371Y-85365700D01*
X106297913Y-85375834D01*
X106256657Y-85381954D01*
X106215000Y-85384000D01*
X105365000Y-85384000D01*
X105323343Y-85381954D01*
X105282087Y-85375834D01*
X105241629Y-85365700D01*
X105202360Y-85351649D01*
X105164656Y-85333817D01*
X105128883Y-85312375D01*
X105095383Y-85287529D01*
X105064480Y-85259520D01*
X105036471Y-85228617D01*
X105011625Y-85195117D01*
X104990183Y-85159344D01*
X104972351Y-85121640D01*
X104958300Y-85082371D01*
X104948166Y-85041913D01*
X104942046Y-85000657D01*
X104940000Y-84959000D01*
X104940000Y-82109000D01*
X104942046Y-82067343D01*
X104948166Y-82026087D01*
X104958300Y-81985629D01*
X104972351Y-81946360D01*
X104990183Y-81908656D01*
X105011625Y-81872883D01*
X105036471Y-81839383D01*
X105064480Y-81808480D01*
X105095383Y-81780471D01*
X105128883Y-81755625D01*
X105164656Y-81734183D01*
X105202360Y-81716351D01*
X105241629Y-81702300D01*
X105282087Y-81692166D01*
X105323343Y-81686046D01*
X105365000Y-81684000D01*
X106215000Y-81684000D01*
X106256657Y-81686046D01*
G37*
G36*
X103716657Y-81686046D02*
G01*
X103757913Y-81692166D01*
X103798371Y-81702300D01*
X103837640Y-81716351D01*
X103875344Y-81734183D01*
X103911117Y-81755625D01*
X103944617Y-81780471D01*
X103975520Y-81808480D01*
X104003529Y-81839383D01*
X104028375Y-81872883D01*
X104049817Y-81908656D01*
X104067649Y-81946360D01*
X104081700Y-81985629D01*
X104091834Y-82026087D01*
X104097954Y-82067343D01*
X104100000Y-82109000D01*
X104100000Y-84959000D01*
X104097954Y-85000657D01*
X104091834Y-85041913D01*
X104081700Y-85082371D01*
X104067649Y-85121640D01*
X104049817Y-85159344D01*
X104028375Y-85195117D01*
X104003529Y-85228617D01*
X103975520Y-85259520D01*
X103944617Y-85287529D01*
X103911117Y-85312375D01*
X103875344Y-85333817D01*
X103837640Y-85351649D01*
X103798371Y-85365700D01*
X103757913Y-85375834D01*
X103716657Y-85381954D01*
X103675000Y-85384000D01*
X102825000Y-85384000D01*
X102783343Y-85381954D01*
X102742087Y-85375834D01*
X102701629Y-85365700D01*
X102662360Y-85351649D01*
X102624656Y-85333817D01*
X102588883Y-85312375D01*
X102555383Y-85287529D01*
X102524480Y-85259520D01*
X102496471Y-85228617D01*
X102471625Y-85195117D01*
X102450183Y-85159344D01*
X102432351Y-85121640D01*
X102418300Y-85082371D01*
X102408166Y-85041913D01*
X102402046Y-85000657D01*
X102400000Y-84959000D01*
X102400000Y-82109000D01*
X102402046Y-82067343D01*
X102408166Y-82026087D01*
X102418300Y-81985629D01*
X102432351Y-81946360D01*
X102450183Y-81908656D01*
X102471625Y-81872883D01*
X102496471Y-81839383D01*
X102524480Y-81808480D01*
X102555383Y-81780471D01*
X102588883Y-81755625D01*
X102624656Y-81734183D01*
X102662360Y-81716351D01*
X102701629Y-81702300D01*
X102742087Y-81692166D01*
X102783343Y-81686046D01*
X102825000Y-81684000D01*
X103675000Y-81684000D01*
X103716657Y-81686046D01*
G37*
G36*
X101176657Y-81686046D02*
G01*
X101217913Y-81692166D01*
X101258371Y-81702300D01*
X101297640Y-81716351D01*
X101335344Y-81734183D01*
X101371117Y-81755625D01*
X101404617Y-81780471D01*
X101435520Y-81808480D01*
X101463529Y-81839383D01*
X101488375Y-81872883D01*
X101509817Y-81908656D01*
X101527649Y-81946360D01*
X101541700Y-81985629D01*
X101551834Y-82026087D01*
X101557954Y-82067343D01*
X101560000Y-82109000D01*
X101560000Y-84959000D01*
X101557954Y-85000657D01*
X101551834Y-85041913D01*
X101541700Y-85082371D01*
X101527649Y-85121640D01*
X101509817Y-85159344D01*
X101488375Y-85195117D01*
X101463529Y-85228617D01*
X101435520Y-85259520D01*
X101404617Y-85287529D01*
X101371117Y-85312375D01*
X101335344Y-85333817D01*
X101297640Y-85351649D01*
X101258371Y-85365700D01*
X101217913Y-85375834D01*
X101176657Y-85381954D01*
X101135000Y-85384000D01*
X100285000Y-85384000D01*
X100243343Y-85381954D01*
X100202087Y-85375834D01*
X100161629Y-85365700D01*
X100122360Y-85351649D01*
X100084656Y-85333817D01*
X100048883Y-85312375D01*
X100015383Y-85287529D01*
X99984480Y-85259520D01*
X99956471Y-85228617D01*
X99931625Y-85195117D01*
X99910183Y-85159344D01*
X99892351Y-85121640D01*
X99878300Y-85082371D01*
X99868166Y-85041913D01*
X99862046Y-85000657D01*
X99860000Y-84959000D01*
X99860000Y-82109000D01*
X99862046Y-82067343D01*
X99868166Y-82026087D01*
X99878300Y-81985629D01*
X99892351Y-81946360D01*
X99910183Y-81908656D01*
X99931625Y-81872883D01*
X99956471Y-81839383D01*
X99984480Y-81808480D01*
X100015383Y-81780471D01*
X100048883Y-81755625D01*
X100084656Y-81734183D01*
X100122360Y-81716351D01*
X100161629Y-81702300D01*
X100202087Y-81692166D01*
X100243343Y-81686046D01*
X100285000Y-81684000D01*
X101135000Y-81684000D01*
X101176657Y-81686046D01*
G37*
G36*
X98636657Y-81686046D02*
G01*
X98677913Y-81692166D01*
X98718371Y-81702300D01*
X98757640Y-81716351D01*
X98795344Y-81734183D01*
X98831117Y-81755625D01*
X98864617Y-81780471D01*
X98895520Y-81808480D01*
X98923529Y-81839383D01*
X98948375Y-81872883D01*
X98969817Y-81908656D01*
X98987649Y-81946360D01*
X99001700Y-81985629D01*
X99011834Y-82026087D01*
X99017954Y-82067343D01*
X99020000Y-82109000D01*
X99020000Y-84959000D01*
X99017954Y-85000657D01*
X99011834Y-85041913D01*
X99001700Y-85082371D01*
X98987649Y-85121640D01*
X98969817Y-85159344D01*
X98948375Y-85195117D01*
X98923529Y-85228617D01*
X98895520Y-85259520D01*
X98864617Y-85287529D01*
X98831117Y-85312375D01*
X98795344Y-85333817D01*
X98757640Y-85351649D01*
X98718371Y-85365700D01*
X98677913Y-85375834D01*
X98636657Y-85381954D01*
X98595000Y-85384000D01*
X97745000Y-85384000D01*
X97703343Y-85381954D01*
X97662087Y-85375834D01*
X97621629Y-85365700D01*
X97582360Y-85351649D01*
X97544656Y-85333817D01*
X97508883Y-85312375D01*
X97475383Y-85287529D01*
X97444480Y-85259520D01*
X97416471Y-85228617D01*
X97391625Y-85195117D01*
X97370183Y-85159344D01*
X97352351Y-85121640D01*
X97338300Y-85082371D01*
X97328166Y-85041913D01*
X97322046Y-85000657D01*
X97320000Y-84959000D01*
X97320000Y-82109000D01*
X97322046Y-82067343D01*
X97328166Y-82026087D01*
X97338300Y-81985629D01*
X97352351Y-81946360D01*
X97370183Y-81908656D01*
X97391625Y-81872883D01*
X97416471Y-81839383D01*
X97444480Y-81808480D01*
X97475383Y-81780471D01*
X97508883Y-81755625D01*
X97544656Y-81734183D01*
X97582360Y-81716351D01*
X97621629Y-81702300D01*
X97662087Y-81692166D01*
X97703343Y-81686046D01*
X97745000Y-81684000D01*
X98595000Y-81684000D01*
X98636657Y-81686046D01*
G37*
G36*
X96096657Y-81686046D02*
G01*
X96137913Y-81692166D01*
X96178371Y-81702300D01*
X96217640Y-81716351D01*
X96255344Y-81734183D01*
X96291117Y-81755625D01*
X96324617Y-81780471D01*
X96355520Y-81808480D01*
X96383529Y-81839383D01*
X96408375Y-81872883D01*
X96429817Y-81908656D01*
X96447649Y-81946360D01*
X96461700Y-81985629D01*
X96471834Y-82026087D01*
X96477954Y-82067343D01*
X96480000Y-82109000D01*
X96480000Y-84959000D01*
X96477954Y-85000657D01*
X96471834Y-85041913D01*
X96461700Y-85082371D01*
X96447649Y-85121640D01*
X96429817Y-85159344D01*
X96408375Y-85195117D01*
X96383529Y-85228617D01*
X96355520Y-85259520D01*
X96324617Y-85287529D01*
X96291117Y-85312375D01*
X96255344Y-85333817D01*
X96217640Y-85351649D01*
X96178371Y-85365700D01*
X96137913Y-85375834D01*
X96096657Y-85381954D01*
X96055000Y-85384000D01*
X95205000Y-85384000D01*
X95163343Y-85381954D01*
X95122087Y-85375834D01*
X95081629Y-85365700D01*
X95042360Y-85351649D01*
X95004656Y-85333817D01*
X94968883Y-85312375D01*
X94935383Y-85287529D01*
X94904480Y-85259520D01*
X94876471Y-85228617D01*
X94851625Y-85195117D01*
X94830183Y-85159344D01*
X94812351Y-85121640D01*
X94798300Y-85082371D01*
X94788166Y-85041913D01*
X94782046Y-85000657D01*
X94780000Y-84959000D01*
X94780000Y-82109000D01*
X94782046Y-82067343D01*
X94788166Y-82026087D01*
X94798300Y-81985629D01*
X94812351Y-81946360D01*
X94830183Y-81908656D01*
X94851625Y-81872883D01*
X94876471Y-81839383D01*
X94904480Y-81808480D01*
X94935383Y-81780471D01*
X94968883Y-81755625D01*
X95004656Y-81734183D01*
X95042360Y-81716351D01*
X95081629Y-81702300D01*
X95122087Y-81692166D01*
X95163343Y-81686046D01*
X95205000Y-81684000D01*
X96055000Y-81684000D01*
X96096657Y-81686046D01*
G37*
G36*
X93556657Y-81686046D02*
G01*
X93597913Y-81692166D01*
X93638371Y-81702300D01*
X93677640Y-81716351D01*
X93715344Y-81734183D01*
X93751117Y-81755625D01*
X93784617Y-81780471D01*
X93815520Y-81808480D01*
X93843529Y-81839383D01*
X93868375Y-81872883D01*
X93889817Y-81908656D01*
X93907649Y-81946360D01*
X93921700Y-81985629D01*
X93931834Y-82026087D01*
X93937954Y-82067343D01*
X93940000Y-82109000D01*
X93940000Y-84959000D01*
X93937954Y-85000657D01*
X93931834Y-85041913D01*
X93921700Y-85082371D01*
X93907649Y-85121640D01*
X93889817Y-85159344D01*
X93868375Y-85195117D01*
X93843529Y-85228617D01*
X93815520Y-85259520D01*
X93784617Y-85287529D01*
X93751117Y-85312375D01*
X93715344Y-85333817D01*
X93677640Y-85351649D01*
X93638371Y-85365700D01*
X93597913Y-85375834D01*
X93556657Y-85381954D01*
X93515000Y-85384000D01*
X92665000Y-85384000D01*
X92623343Y-85381954D01*
X92582087Y-85375834D01*
X92541629Y-85365700D01*
X92502360Y-85351649D01*
X92464656Y-85333817D01*
X92428883Y-85312375D01*
X92395383Y-85287529D01*
X92364480Y-85259520D01*
X92336471Y-85228617D01*
X92311625Y-85195117D01*
X92290183Y-85159344D01*
X92272351Y-85121640D01*
X92258300Y-85082371D01*
X92248166Y-85041913D01*
X92242046Y-85000657D01*
X92240000Y-84959000D01*
X92240000Y-82109000D01*
X92242046Y-82067343D01*
X92248166Y-82026087D01*
X92258300Y-81985629D01*
X92272351Y-81946360D01*
X92290183Y-81908656D01*
X92311625Y-81872883D01*
X92336471Y-81839383D01*
X92364480Y-81808480D01*
X92395383Y-81780471D01*
X92428883Y-81755625D01*
X92464656Y-81734183D01*
X92502360Y-81716351D01*
X92541629Y-81702300D01*
X92582087Y-81692166D01*
X92623343Y-81686046D01*
X92665000Y-81684000D01*
X93515000Y-81684000D01*
X93556657Y-81686046D01*
G37*
G36*
X91016657Y-81686046D02*
G01*
X91057913Y-81692166D01*
X91098371Y-81702300D01*
X91137640Y-81716351D01*
X91175344Y-81734183D01*
X91211117Y-81755625D01*
X91244617Y-81780471D01*
X91275520Y-81808480D01*
X91303529Y-81839383D01*
X91328375Y-81872883D01*
X91349817Y-81908656D01*
X91367649Y-81946360D01*
X91381700Y-81985629D01*
X91391834Y-82026087D01*
X91397954Y-82067343D01*
X91400000Y-82109000D01*
X91400000Y-84959000D01*
X91397954Y-85000657D01*
X91391834Y-85041913D01*
X91381700Y-85082371D01*
X91367649Y-85121640D01*
X91349817Y-85159344D01*
X91328375Y-85195117D01*
X91303529Y-85228617D01*
X91275520Y-85259520D01*
X91244617Y-85287529D01*
X91211117Y-85312375D01*
X91175344Y-85333817D01*
X91137640Y-85351649D01*
X91098371Y-85365700D01*
X91057913Y-85375834D01*
X91016657Y-85381954D01*
X90975000Y-85384000D01*
X90125000Y-85384000D01*
X90083343Y-85381954D01*
X90042087Y-85375834D01*
X90001629Y-85365700D01*
X89962360Y-85351649D01*
X89924656Y-85333817D01*
X89888883Y-85312375D01*
X89855383Y-85287529D01*
X89824480Y-85259520D01*
X89796471Y-85228617D01*
X89771625Y-85195117D01*
X89750183Y-85159344D01*
X89732351Y-85121640D01*
X89718300Y-85082371D01*
X89708166Y-85041913D01*
X89702046Y-85000657D01*
X89700000Y-84959000D01*
X89700000Y-82109000D01*
X89702046Y-82067343D01*
X89708166Y-82026087D01*
X89718300Y-81985629D01*
X89732351Y-81946360D01*
X89750183Y-81908656D01*
X89771625Y-81872883D01*
X89796471Y-81839383D01*
X89824480Y-81808480D01*
X89855383Y-81780471D01*
X89888883Y-81755625D01*
X89924656Y-81734183D01*
X89962360Y-81716351D01*
X90001629Y-81702300D01*
X90042087Y-81692166D01*
X90083343Y-81686046D01*
X90125000Y-81684000D01*
X90975000Y-81684000D01*
X91016657Y-81686046D01*
G37*
G36*
X88476657Y-81686046D02*
G01*
X88517913Y-81692166D01*
X88558371Y-81702300D01*
X88597640Y-81716351D01*
X88635344Y-81734183D01*
X88671117Y-81755625D01*
X88704617Y-81780471D01*
X88735520Y-81808480D01*
X88763529Y-81839383D01*
X88788375Y-81872883D01*
X88809817Y-81908656D01*
X88827649Y-81946360D01*
X88841700Y-81985629D01*
X88851834Y-82026087D01*
X88857954Y-82067343D01*
X88860000Y-82109000D01*
X88860000Y-84959000D01*
X88857954Y-85000657D01*
X88851834Y-85041913D01*
X88841700Y-85082371D01*
X88827649Y-85121640D01*
X88809817Y-85159344D01*
X88788375Y-85195117D01*
X88763529Y-85228617D01*
X88735520Y-85259520D01*
X88704617Y-85287529D01*
X88671117Y-85312375D01*
X88635344Y-85333817D01*
X88597640Y-85351649D01*
X88558371Y-85365700D01*
X88517913Y-85375834D01*
X88476657Y-85381954D01*
X88435000Y-85384000D01*
X87585000Y-85384000D01*
X87543343Y-85381954D01*
X87502087Y-85375834D01*
X87461629Y-85365700D01*
X87422360Y-85351649D01*
X87384656Y-85333817D01*
X87348883Y-85312375D01*
X87315383Y-85287529D01*
X87284480Y-85259520D01*
X87256471Y-85228617D01*
X87231625Y-85195117D01*
X87210183Y-85159344D01*
X87192351Y-85121640D01*
X87178300Y-85082371D01*
X87168166Y-85041913D01*
X87162046Y-85000657D01*
X87160000Y-84959000D01*
X87160000Y-82109000D01*
X87162046Y-82067343D01*
X87168166Y-82026087D01*
X87178300Y-81985629D01*
X87192351Y-81946360D01*
X87210183Y-81908656D01*
X87231625Y-81872883D01*
X87256471Y-81839383D01*
X87284480Y-81808480D01*
X87315383Y-81780471D01*
X87348883Y-81755625D01*
X87384656Y-81734183D01*
X87422360Y-81716351D01*
X87461629Y-81702300D01*
X87502087Y-81692166D01*
X87543343Y-81686046D01*
X87585000Y-81684000D01*
X88435000Y-81684000D01*
X88476657Y-81686046D01*
G37*
G36*
X85936657Y-81686046D02*
G01*
X85977913Y-81692166D01*
X86018371Y-81702300D01*
X86057640Y-81716351D01*
X86095344Y-81734183D01*
X86131117Y-81755625D01*
X86164617Y-81780471D01*
X86195520Y-81808480D01*
X86223529Y-81839383D01*
X86248375Y-81872883D01*
X86269817Y-81908656D01*
X86287649Y-81946360D01*
X86301700Y-81985629D01*
X86311834Y-82026087D01*
X86317954Y-82067343D01*
X86320000Y-82109000D01*
X86320000Y-84959000D01*
X86317954Y-85000657D01*
X86311834Y-85041913D01*
X86301700Y-85082371D01*
X86287649Y-85121640D01*
X86269817Y-85159344D01*
X86248375Y-85195117D01*
X86223529Y-85228617D01*
X86195520Y-85259520D01*
X86164617Y-85287529D01*
X86131117Y-85312375D01*
X86095344Y-85333817D01*
X86057640Y-85351649D01*
X86018371Y-85365700D01*
X85977913Y-85375834D01*
X85936657Y-85381954D01*
X85895000Y-85384000D01*
X85045000Y-85384000D01*
X85003343Y-85381954D01*
X84962087Y-85375834D01*
X84921629Y-85365700D01*
X84882360Y-85351649D01*
X84844656Y-85333817D01*
X84808883Y-85312375D01*
X84775383Y-85287529D01*
X84744480Y-85259520D01*
X84716471Y-85228617D01*
X84691625Y-85195117D01*
X84670183Y-85159344D01*
X84652351Y-85121640D01*
X84638300Y-85082371D01*
X84628166Y-85041913D01*
X84622046Y-85000657D01*
X84620000Y-84959000D01*
X84620000Y-82109000D01*
X84622046Y-82067343D01*
X84628166Y-82026087D01*
X84638300Y-81985629D01*
X84652351Y-81946360D01*
X84670183Y-81908656D01*
X84691625Y-81872883D01*
X84716471Y-81839383D01*
X84744480Y-81808480D01*
X84775383Y-81780471D01*
X84808883Y-81755625D01*
X84844656Y-81734183D01*
X84882360Y-81716351D01*
X84921629Y-81702300D01*
X84962087Y-81692166D01*
X85003343Y-81686046D01*
X85045000Y-81684000D01*
X85895000Y-81684000D01*
X85936657Y-81686046D01*
G37*
G36*
X83396657Y-81686046D02*
G01*
X83437913Y-81692166D01*
X83478371Y-81702300D01*
X83517640Y-81716351D01*
X83555344Y-81734183D01*
X83591117Y-81755625D01*
X83624617Y-81780471D01*
X83655520Y-81808480D01*
X83683529Y-81839383D01*
X83708375Y-81872883D01*
X83729817Y-81908656D01*
X83747649Y-81946360D01*
X83761700Y-81985629D01*
X83771834Y-82026087D01*
X83777954Y-82067343D01*
X83780000Y-82109000D01*
X83780000Y-84959000D01*
X83777954Y-85000657D01*
X83771834Y-85041913D01*
X83761700Y-85082371D01*
X83747649Y-85121640D01*
X83729817Y-85159344D01*
X83708375Y-85195117D01*
X83683529Y-85228617D01*
X83655520Y-85259520D01*
X83624617Y-85287529D01*
X83591117Y-85312375D01*
X83555344Y-85333817D01*
X83517640Y-85351649D01*
X83478371Y-85365700D01*
X83437913Y-85375834D01*
X83396657Y-85381954D01*
X83355000Y-85384000D01*
X82505000Y-85384000D01*
X82463343Y-85381954D01*
X82422087Y-85375834D01*
X82381629Y-85365700D01*
X82342360Y-85351649D01*
X82304656Y-85333817D01*
X82268883Y-85312375D01*
X82235383Y-85287529D01*
X82204480Y-85259520D01*
X82176471Y-85228617D01*
X82151625Y-85195117D01*
X82130183Y-85159344D01*
X82112351Y-85121640D01*
X82098300Y-85082371D01*
X82088166Y-85041913D01*
X82082046Y-85000657D01*
X82080000Y-84959000D01*
X82080000Y-82109000D01*
X82082046Y-82067343D01*
X82088166Y-82026087D01*
X82098300Y-81985629D01*
X82112351Y-81946360D01*
X82130183Y-81908656D01*
X82151625Y-81872883D01*
X82176471Y-81839383D01*
X82204480Y-81808480D01*
X82235383Y-81780471D01*
X82268883Y-81755625D01*
X82304656Y-81734183D01*
X82342360Y-81716351D01*
X82381629Y-81702300D01*
X82422087Y-81692166D01*
X82463343Y-81686046D01*
X82505000Y-81684000D01*
X83355000Y-81684000D01*
X83396657Y-81686046D01*
G37*
G36*
X80856657Y-81686046D02*
G01*
X80897913Y-81692166D01*
X80938371Y-81702300D01*
X80977640Y-81716351D01*
X81015344Y-81734183D01*
X81051117Y-81755625D01*
X81084617Y-81780471D01*
X81115520Y-81808480D01*
X81143529Y-81839383D01*
X81168375Y-81872883D01*
X81189817Y-81908656D01*
X81207649Y-81946360D01*
X81221700Y-81985629D01*
X81231834Y-82026087D01*
X81237954Y-82067343D01*
X81240000Y-82109000D01*
X81240000Y-84959000D01*
X81237954Y-85000657D01*
X81231834Y-85041913D01*
X81221700Y-85082371D01*
X81207649Y-85121640D01*
X81189817Y-85159344D01*
X81168375Y-85195117D01*
X81143529Y-85228617D01*
X81115520Y-85259520D01*
X81084617Y-85287529D01*
X81051117Y-85312375D01*
X81015344Y-85333817D01*
X80977640Y-85351649D01*
X80938371Y-85365700D01*
X80897913Y-85375834D01*
X80856657Y-85381954D01*
X80815000Y-85384000D01*
X79965000Y-85384000D01*
X79923343Y-85381954D01*
X79882087Y-85375834D01*
X79841629Y-85365700D01*
X79802360Y-85351649D01*
X79764656Y-85333817D01*
X79728883Y-85312375D01*
X79695383Y-85287529D01*
X79664480Y-85259520D01*
X79636471Y-85228617D01*
X79611625Y-85195117D01*
X79590183Y-85159344D01*
X79572351Y-85121640D01*
X79558300Y-85082371D01*
X79548166Y-85041913D01*
X79542046Y-85000657D01*
X79540000Y-84959000D01*
X79540000Y-82109000D01*
X79542046Y-82067343D01*
X79548166Y-82026087D01*
X79558300Y-81985629D01*
X79572351Y-81946360D01*
X79590183Y-81908656D01*
X79611625Y-81872883D01*
X79636471Y-81839383D01*
X79664480Y-81808480D01*
X79695383Y-81780471D01*
X79728883Y-81755625D01*
X79764656Y-81734183D01*
X79802360Y-81716351D01*
X79841629Y-81702300D01*
X79882087Y-81692166D01*
X79923343Y-81686046D01*
X79965000Y-81684000D01*
X80815000Y-81684000D01*
X80856657Y-81686046D01*
G37*
G36*
X78316657Y-81686046D02*
G01*
X78357913Y-81692166D01*
X78398371Y-81702300D01*
X78437640Y-81716351D01*
X78475344Y-81734183D01*
X78511117Y-81755625D01*
X78544617Y-81780471D01*
X78575520Y-81808480D01*
X78603529Y-81839383D01*
X78628375Y-81872883D01*
X78649817Y-81908656D01*
X78667649Y-81946360D01*
X78681700Y-81985629D01*
X78691834Y-82026087D01*
X78697954Y-82067343D01*
X78700000Y-82109000D01*
X78700000Y-84959000D01*
X78697954Y-85000657D01*
X78691834Y-85041913D01*
X78681700Y-85082371D01*
X78667649Y-85121640D01*
X78649817Y-85159344D01*
X78628375Y-85195117D01*
X78603529Y-85228617D01*
X78575520Y-85259520D01*
X78544617Y-85287529D01*
X78511117Y-85312375D01*
X78475344Y-85333817D01*
X78437640Y-85351649D01*
X78398371Y-85365700D01*
X78357913Y-85375834D01*
X78316657Y-85381954D01*
X78275000Y-85384000D01*
X77425000Y-85384000D01*
X77383343Y-85381954D01*
X77342087Y-85375834D01*
X77301629Y-85365700D01*
X77262360Y-85351649D01*
X77224656Y-85333817D01*
X77188883Y-85312375D01*
X77155383Y-85287529D01*
X77124480Y-85259520D01*
X77096471Y-85228617D01*
X77071625Y-85195117D01*
X77050183Y-85159344D01*
X77032351Y-85121640D01*
X77018300Y-85082371D01*
X77008166Y-85041913D01*
X77002046Y-85000657D01*
X77000000Y-84959000D01*
X77000000Y-82109000D01*
X77002046Y-82067343D01*
X77008166Y-82026087D01*
X77018300Y-81985629D01*
X77032351Y-81946360D01*
X77050183Y-81908656D01*
X77071625Y-81872883D01*
X77096471Y-81839383D01*
X77124480Y-81808480D01*
X77155383Y-81780471D01*
X77188883Y-81755625D01*
X77224656Y-81734183D01*
X77262360Y-81716351D01*
X77301629Y-81702300D01*
X77342087Y-81692166D01*
X77383343Y-81686046D01*
X77425000Y-81684000D01*
X78275000Y-81684000D01*
X78316657Y-81686046D01*
G37*
G36*
X75776657Y-81686046D02*
G01*
X75817913Y-81692166D01*
X75858371Y-81702300D01*
X75897640Y-81716351D01*
X75935344Y-81734183D01*
X75971117Y-81755625D01*
X76004617Y-81780471D01*
X76035520Y-81808480D01*
X76063529Y-81839383D01*
X76088375Y-81872883D01*
X76109817Y-81908656D01*
X76127649Y-81946360D01*
X76141700Y-81985629D01*
X76151834Y-82026087D01*
X76157954Y-82067343D01*
X76160000Y-82109000D01*
X76160000Y-84959000D01*
X76157954Y-85000657D01*
X76151834Y-85041913D01*
X76141700Y-85082371D01*
X76127649Y-85121640D01*
X76109817Y-85159344D01*
X76088375Y-85195117D01*
X76063529Y-85228617D01*
X76035520Y-85259520D01*
X76004617Y-85287529D01*
X75971117Y-85312375D01*
X75935344Y-85333817D01*
X75897640Y-85351649D01*
X75858371Y-85365700D01*
X75817913Y-85375834D01*
X75776657Y-85381954D01*
X75735000Y-85384000D01*
X74885000Y-85384000D01*
X74843343Y-85381954D01*
X74802087Y-85375834D01*
X74761629Y-85365700D01*
X74722360Y-85351649D01*
X74684656Y-85333817D01*
X74648883Y-85312375D01*
X74615383Y-85287529D01*
X74584480Y-85259520D01*
X74556471Y-85228617D01*
X74531625Y-85195117D01*
X74510183Y-85159344D01*
X74492351Y-85121640D01*
X74478300Y-85082371D01*
X74468166Y-85041913D01*
X74462046Y-85000657D01*
X74460000Y-84959000D01*
X74460000Y-82109000D01*
X74462046Y-82067343D01*
X74468166Y-82026087D01*
X74478300Y-81985629D01*
X74492351Y-81946360D01*
X74510183Y-81908656D01*
X74531625Y-81872883D01*
X74556471Y-81839383D01*
X74584480Y-81808480D01*
X74615383Y-81780471D01*
X74648883Y-81755625D01*
X74684656Y-81734183D01*
X74722360Y-81716351D01*
X74761629Y-81702300D01*
X74802087Y-81692166D01*
X74843343Y-81686046D01*
X74885000Y-81684000D01*
X75735000Y-81684000D01*
X75776657Y-81686046D01*
G37*
G36*
X73236657Y-81686046D02*
G01*
X73277913Y-81692166D01*
X73318371Y-81702300D01*
X73357640Y-81716351D01*
X73395344Y-81734183D01*
X73431117Y-81755625D01*
X73464617Y-81780471D01*
X73495520Y-81808480D01*
X73523529Y-81839383D01*
X73548375Y-81872883D01*
X73569817Y-81908656D01*
X73587649Y-81946360D01*
X73601700Y-81985629D01*
X73611834Y-82026087D01*
X73617954Y-82067343D01*
X73620000Y-82109000D01*
X73620000Y-84959000D01*
X73617954Y-85000657D01*
X73611834Y-85041913D01*
X73601700Y-85082371D01*
X73587649Y-85121640D01*
X73569817Y-85159344D01*
X73548375Y-85195117D01*
X73523529Y-85228617D01*
X73495520Y-85259520D01*
X73464617Y-85287529D01*
X73431117Y-85312375D01*
X73395344Y-85333817D01*
X73357640Y-85351649D01*
X73318371Y-85365700D01*
X73277913Y-85375834D01*
X73236657Y-85381954D01*
X73195000Y-85384000D01*
X72345000Y-85384000D01*
X72303343Y-85381954D01*
X72262087Y-85375834D01*
X72221629Y-85365700D01*
X72182360Y-85351649D01*
X72144656Y-85333817D01*
X72108883Y-85312375D01*
X72075383Y-85287529D01*
X72044480Y-85259520D01*
X72016471Y-85228617D01*
X71991625Y-85195117D01*
X71970183Y-85159344D01*
X71952351Y-85121640D01*
X71938300Y-85082371D01*
X71928166Y-85041913D01*
X71922046Y-85000657D01*
X71920000Y-84959000D01*
X71920000Y-82109000D01*
X71922046Y-82067343D01*
X71928166Y-82026087D01*
X71938300Y-81985629D01*
X71952351Y-81946360D01*
X71970183Y-81908656D01*
X71991625Y-81872883D01*
X72016471Y-81839383D01*
X72044480Y-81808480D01*
X72075383Y-81780471D01*
X72108883Y-81755625D01*
X72144656Y-81734183D01*
X72182360Y-81716351D01*
X72221629Y-81702300D01*
X72262087Y-81692166D01*
X72303343Y-81686046D01*
X72345000Y-81684000D01*
X73195000Y-81684000D01*
X73236657Y-81686046D01*
G37*
G36*
X70696657Y-81686046D02*
G01*
X70737913Y-81692166D01*
X70778371Y-81702300D01*
X70817640Y-81716351D01*
X70855344Y-81734183D01*
X70891117Y-81755625D01*
X70924617Y-81780471D01*
X70955520Y-81808480D01*
X70983529Y-81839383D01*
X71008375Y-81872883D01*
X71029817Y-81908656D01*
X71047649Y-81946360D01*
X71061700Y-81985629D01*
X71071834Y-82026087D01*
X71077954Y-82067343D01*
X71080000Y-82109000D01*
X71080000Y-84959000D01*
X71077954Y-85000657D01*
X71071834Y-85041913D01*
X71061700Y-85082371D01*
X71047649Y-85121640D01*
X71029817Y-85159344D01*
X71008375Y-85195117D01*
X70983529Y-85228617D01*
X70955520Y-85259520D01*
X70924617Y-85287529D01*
X70891117Y-85312375D01*
X70855344Y-85333817D01*
X70817640Y-85351649D01*
X70778371Y-85365700D01*
X70737913Y-85375834D01*
X70696657Y-85381954D01*
X70655000Y-85384000D01*
X69805000Y-85384000D01*
X69763343Y-85381954D01*
X69722087Y-85375834D01*
X69681629Y-85365700D01*
X69642360Y-85351649D01*
X69604656Y-85333817D01*
X69568883Y-85312375D01*
X69535383Y-85287529D01*
X69504480Y-85259520D01*
X69476471Y-85228617D01*
X69451625Y-85195117D01*
X69430183Y-85159344D01*
X69412351Y-85121640D01*
X69398300Y-85082371D01*
X69388166Y-85041913D01*
X69382046Y-85000657D01*
X69380000Y-84959000D01*
X69380000Y-82109000D01*
X69382046Y-82067343D01*
X69388166Y-82026087D01*
X69398300Y-81985629D01*
X69412351Y-81946360D01*
X69430183Y-81908656D01*
X69451625Y-81872883D01*
X69476471Y-81839383D01*
X69504480Y-81808480D01*
X69535383Y-81780471D01*
X69568883Y-81755625D01*
X69604656Y-81734183D01*
X69642360Y-81716351D01*
X69681629Y-81702300D01*
X69722087Y-81692166D01*
X69763343Y-81686046D01*
X69805000Y-81684000D01*
X70655000Y-81684000D01*
X70696657Y-81686046D01*
G37*
G36*
X88234703Y-87228622D02*
G01*
X88249264Y-87230782D01*
X88263543Y-87234359D01*
X88277403Y-87239318D01*
X88290710Y-87245612D01*
X88303336Y-87253180D01*
X88315159Y-87261948D01*
X88326066Y-87271834D01*
X88335952Y-87282741D01*
X88344720Y-87294564D01*
X88352288Y-87307190D01*
X88358582Y-87320497D01*
X88363541Y-87334357D01*
X88367118Y-87348636D01*
X88369278Y-87363197D01*
X88370000Y-87377900D01*
X88370000Y-87677900D01*
X88369278Y-87692603D01*
X88367118Y-87707164D01*
X88363541Y-87721443D01*
X88358582Y-87735303D01*
X88352288Y-87748610D01*
X88344720Y-87761236D01*
X88335952Y-87773059D01*
X88326066Y-87783966D01*
X88315159Y-87793852D01*
X88303336Y-87802620D01*
X88290710Y-87810188D01*
X88277403Y-87816482D01*
X88263543Y-87821441D01*
X88249264Y-87825018D01*
X88234703Y-87827178D01*
X88220000Y-87827900D01*
X86570000Y-87827900D01*
X86555297Y-87827178D01*
X86540736Y-87825018D01*
X86526457Y-87821441D01*
X86512597Y-87816482D01*
X86499290Y-87810188D01*
X86486664Y-87802620D01*
X86474841Y-87793852D01*
X86463934Y-87783966D01*
X86454048Y-87773059D01*
X86445280Y-87761236D01*
X86437712Y-87748610D01*
X86431418Y-87735303D01*
X86426459Y-87721443D01*
X86422882Y-87707164D01*
X86420722Y-87692603D01*
X86420000Y-87677900D01*
X86420000Y-87377900D01*
X86420722Y-87363197D01*
X86422882Y-87348636D01*
X86426459Y-87334357D01*
X86431418Y-87320497D01*
X86437712Y-87307190D01*
X86445280Y-87294564D01*
X86454048Y-87282741D01*
X86463934Y-87271834D01*
X86474841Y-87261948D01*
X86486664Y-87253180D01*
X86499290Y-87245612D01*
X86512597Y-87239318D01*
X86526457Y-87234359D01*
X86540736Y-87230782D01*
X86555297Y-87228622D01*
X86570000Y-87227900D01*
X88220000Y-87227900D01*
X88234703Y-87228622D01*
G37*
G36*
X88234703Y-88498622D02*
G01*
X88249264Y-88500782D01*
X88263543Y-88504359D01*
X88277403Y-88509318D01*
X88290710Y-88515612D01*
X88303336Y-88523180D01*
X88315159Y-88531948D01*
X88326066Y-88541834D01*
X88335952Y-88552741D01*
X88344720Y-88564564D01*
X88352288Y-88577190D01*
X88358582Y-88590497D01*
X88363541Y-88604357D01*
X88367118Y-88618636D01*
X88369278Y-88633197D01*
X88370000Y-88647900D01*
X88370000Y-88947900D01*
X88369278Y-88962603D01*
X88367118Y-88977164D01*
X88363541Y-88991443D01*
X88358582Y-89005303D01*
X88352288Y-89018610D01*
X88344720Y-89031236D01*
X88335952Y-89043059D01*
X88326066Y-89053966D01*
X88315159Y-89063852D01*
X88303336Y-89072620D01*
X88290710Y-89080188D01*
X88277403Y-89086482D01*
X88263543Y-89091441D01*
X88249264Y-89095018D01*
X88234703Y-89097178D01*
X88220000Y-89097900D01*
X86570000Y-89097900D01*
X86555297Y-89097178D01*
X86540736Y-89095018D01*
X86526457Y-89091441D01*
X86512597Y-89086482D01*
X86499290Y-89080188D01*
X86486664Y-89072620D01*
X86474841Y-89063852D01*
X86463934Y-89053966D01*
X86454048Y-89043059D01*
X86445280Y-89031236D01*
X86437712Y-89018610D01*
X86431418Y-89005303D01*
X86426459Y-88991443D01*
X86422882Y-88977164D01*
X86420722Y-88962603D01*
X86420000Y-88947900D01*
X86420000Y-88647900D01*
X86420722Y-88633197D01*
X86422882Y-88618636D01*
X86426459Y-88604357D01*
X86431418Y-88590497D01*
X86437712Y-88577190D01*
X86445280Y-88564564D01*
X86454048Y-88552741D01*
X86463934Y-88541834D01*
X86474841Y-88531948D01*
X86486664Y-88523180D01*
X86499290Y-88515612D01*
X86512597Y-88509318D01*
X86526457Y-88504359D01*
X86540736Y-88500782D01*
X86555297Y-88498622D01*
X86570000Y-88497900D01*
X88220000Y-88497900D01*
X88234703Y-88498622D01*
G37*
G36*
X88234703Y-89768622D02*
G01*
X88249264Y-89770782D01*
X88263543Y-89774359D01*
X88277403Y-89779318D01*
X88290710Y-89785612D01*
X88303336Y-89793180D01*
X88315159Y-89801948D01*
X88326066Y-89811834D01*
X88335952Y-89822741D01*
X88344720Y-89834564D01*
X88352288Y-89847190D01*
X88358582Y-89860497D01*
X88363541Y-89874357D01*
X88367118Y-89888636D01*
X88369278Y-89903197D01*
X88370000Y-89917900D01*
X88370000Y-90217900D01*
X88369278Y-90232603D01*
X88367118Y-90247164D01*
X88363541Y-90261443D01*
X88358582Y-90275303D01*
X88352288Y-90288610D01*
X88344720Y-90301236D01*
X88335952Y-90313059D01*
X88326066Y-90323966D01*
X88315159Y-90333852D01*
X88303336Y-90342620D01*
X88290710Y-90350188D01*
X88277403Y-90356482D01*
X88263543Y-90361441D01*
X88249264Y-90365018D01*
X88234703Y-90367178D01*
X88220000Y-90367900D01*
X86570000Y-90367900D01*
X86555297Y-90367178D01*
X86540736Y-90365018D01*
X86526457Y-90361441D01*
X86512597Y-90356482D01*
X86499290Y-90350188D01*
X86486664Y-90342620D01*
X86474841Y-90333852D01*
X86463934Y-90323966D01*
X86454048Y-90313059D01*
X86445280Y-90301236D01*
X86437712Y-90288610D01*
X86431418Y-90275303D01*
X86426459Y-90261443D01*
X86422882Y-90247164D01*
X86420722Y-90232603D01*
X86420000Y-90217900D01*
X86420000Y-89917900D01*
X86420722Y-89903197D01*
X86422882Y-89888636D01*
X86426459Y-89874357D01*
X86431418Y-89860497D01*
X86437712Y-89847190D01*
X86445280Y-89834564D01*
X86454048Y-89822741D01*
X86463934Y-89811834D01*
X86474841Y-89801948D01*
X86486664Y-89793180D01*
X86499290Y-89785612D01*
X86512597Y-89779318D01*
X86526457Y-89774359D01*
X86540736Y-89770782D01*
X86555297Y-89768622D01*
X86570000Y-89767900D01*
X88220000Y-89767900D01*
X88234703Y-89768622D01*
G37*
G36*
X88234703Y-91038622D02*
G01*
X88249264Y-91040782D01*
X88263543Y-91044359D01*
X88277403Y-91049318D01*
X88290710Y-91055612D01*
X88303336Y-91063180D01*
X88315159Y-91071948D01*
X88326066Y-91081834D01*
X88335952Y-91092741D01*
X88344720Y-91104564D01*
X88352288Y-91117190D01*
X88358582Y-91130497D01*
X88363541Y-91144357D01*
X88367118Y-91158636D01*
X88369278Y-91173197D01*
X88370000Y-91187900D01*
X88370000Y-91487900D01*
X88369278Y-91502603D01*
X88367118Y-91517164D01*
X88363541Y-91531443D01*
X88358582Y-91545303D01*
X88352288Y-91558610D01*
X88344720Y-91571236D01*
X88335952Y-91583059D01*
X88326066Y-91593966D01*
X88315159Y-91603852D01*
X88303336Y-91612620D01*
X88290710Y-91620188D01*
X88277403Y-91626482D01*
X88263543Y-91631441D01*
X88249264Y-91635018D01*
X88234703Y-91637178D01*
X88220000Y-91637900D01*
X86570000Y-91637900D01*
X86555297Y-91637178D01*
X86540736Y-91635018D01*
X86526457Y-91631441D01*
X86512597Y-91626482D01*
X86499290Y-91620188D01*
X86486664Y-91612620D01*
X86474841Y-91603852D01*
X86463934Y-91593966D01*
X86454048Y-91583059D01*
X86445280Y-91571236D01*
X86437712Y-91558610D01*
X86431418Y-91545303D01*
X86426459Y-91531443D01*
X86422882Y-91517164D01*
X86420722Y-91502603D01*
X86420000Y-91487900D01*
X86420000Y-91187900D01*
X86420722Y-91173197D01*
X86422882Y-91158636D01*
X86426459Y-91144357D01*
X86431418Y-91130497D01*
X86437712Y-91117190D01*
X86445280Y-91104564D01*
X86454048Y-91092741D01*
X86463934Y-91081834D01*
X86474841Y-91071948D01*
X86486664Y-91063180D01*
X86499290Y-91055612D01*
X86512597Y-91049318D01*
X86526457Y-91044359D01*
X86540736Y-91040782D01*
X86555297Y-91038622D01*
X86570000Y-91037900D01*
X88220000Y-91037900D01*
X88234703Y-91038622D01*
G37*
G36*
X83284703Y-91038622D02*
G01*
X83299264Y-91040782D01*
X83313543Y-91044359D01*
X83327403Y-91049318D01*
X83340710Y-91055612D01*
X83353336Y-91063180D01*
X83365159Y-91071948D01*
X83376066Y-91081834D01*
X83385952Y-91092741D01*
X83394720Y-91104564D01*
X83402288Y-91117190D01*
X83408582Y-91130497D01*
X83413541Y-91144357D01*
X83417118Y-91158636D01*
X83419278Y-91173197D01*
X83420000Y-91187900D01*
X83420000Y-91487900D01*
X83419278Y-91502603D01*
X83417118Y-91517164D01*
X83413541Y-91531443D01*
X83408582Y-91545303D01*
X83402288Y-91558610D01*
X83394720Y-91571236D01*
X83385952Y-91583059D01*
X83376066Y-91593966D01*
X83365159Y-91603852D01*
X83353336Y-91612620D01*
X83340710Y-91620188D01*
X83327403Y-91626482D01*
X83313543Y-91631441D01*
X83299264Y-91635018D01*
X83284703Y-91637178D01*
X83270000Y-91637900D01*
X81620000Y-91637900D01*
X81605297Y-91637178D01*
X81590736Y-91635018D01*
X81576457Y-91631441D01*
X81562597Y-91626482D01*
X81549290Y-91620188D01*
X81536664Y-91612620D01*
X81524841Y-91603852D01*
X81513934Y-91593966D01*
X81504048Y-91583059D01*
X81495280Y-91571236D01*
X81487712Y-91558610D01*
X81481418Y-91545303D01*
X81476459Y-91531443D01*
X81472882Y-91517164D01*
X81470722Y-91502603D01*
X81470000Y-91487900D01*
X81470000Y-91187900D01*
X81470722Y-91173197D01*
X81472882Y-91158636D01*
X81476459Y-91144357D01*
X81481418Y-91130497D01*
X81487712Y-91117190D01*
X81495280Y-91104564D01*
X81504048Y-91092741D01*
X81513934Y-91081834D01*
X81524841Y-91071948D01*
X81536664Y-91063180D01*
X81549290Y-91055612D01*
X81562597Y-91049318D01*
X81576457Y-91044359D01*
X81590736Y-91040782D01*
X81605297Y-91038622D01*
X81620000Y-91037900D01*
X83270000Y-91037900D01*
X83284703Y-91038622D01*
G37*
G36*
X83284703Y-89768622D02*
G01*
X83299264Y-89770782D01*
X83313543Y-89774359D01*
X83327403Y-89779318D01*
X83340710Y-89785612D01*
X83353336Y-89793180D01*
X83365159Y-89801948D01*
X83376066Y-89811834D01*
X83385952Y-89822741D01*
X83394720Y-89834564D01*
X83402288Y-89847190D01*
X83408582Y-89860497D01*
X83413541Y-89874357D01*
X83417118Y-89888636D01*
X83419278Y-89903197D01*
X83420000Y-89917900D01*
X83420000Y-90217900D01*
X83419278Y-90232603D01*
X83417118Y-90247164D01*
X83413541Y-90261443D01*
X83408582Y-90275303D01*
X83402288Y-90288610D01*
X83394720Y-90301236D01*
X83385952Y-90313059D01*
X83376066Y-90323966D01*
X83365159Y-90333852D01*
X83353336Y-90342620D01*
X83340710Y-90350188D01*
X83327403Y-90356482D01*
X83313543Y-90361441D01*
X83299264Y-90365018D01*
X83284703Y-90367178D01*
X83270000Y-90367900D01*
X81620000Y-90367900D01*
X81605297Y-90367178D01*
X81590736Y-90365018D01*
X81576457Y-90361441D01*
X81562597Y-90356482D01*
X81549290Y-90350188D01*
X81536664Y-90342620D01*
X81524841Y-90333852D01*
X81513934Y-90323966D01*
X81504048Y-90313059D01*
X81495280Y-90301236D01*
X81487712Y-90288610D01*
X81481418Y-90275303D01*
X81476459Y-90261443D01*
X81472882Y-90247164D01*
X81470722Y-90232603D01*
X81470000Y-90217900D01*
X81470000Y-89917900D01*
X81470722Y-89903197D01*
X81472882Y-89888636D01*
X81476459Y-89874357D01*
X81481418Y-89860497D01*
X81487712Y-89847190D01*
X81495280Y-89834564D01*
X81504048Y-89822741D01*
X81513934Y-89811834D01*
X81524841Y-89801948D01*
X81536664Y-89793180D01*
X81549290Y-89785612D01*
X81562597Y-89779318D01*
X81576457Y-89774359D01*
X81590736Y-89770782D01*
X81605297Y-89768622D01*
X81620000Y-89767900D01*
X83270000Y-89767900D01*
X83284703Y-89768622D01*
G37*
G36*
X83284703Y-88498622D02*
G01*
X83299264Y-88500782D01*
X83313543Y-88504359D01*
X83327403Y-88509318D01*
X83340710Y-88515612D01*
X83353336Y-88523180D01*
X83365159Y-88531948D01*
X83376066Y-88541834D01*
X83385952Y-88552741D01*
X83394720Y-88564564D01*
X83402288Y-88577190D01*
X83408582Y-88590497D01*
X83413541Y-88604357D01*
X83417118Y-88618636D01*
X83419278Y-88633197D01*
X83420000Y-88647900D01*
X83420000Y-88947900D01*
X83419278Y-88962603D01*
X83417118Y-88977164D01*
X83413541Y-88991443D01*
X83408582Y-89005303D01*
X83402288Y-89018610D01*
X83394720Y-89031236D01*
X83385952Y-89043059D01*
X83376066Y-89053966D01*
X83365159Y-89063852D01*
X83353336Y-89072620D01*
X83340710Y-89080188D01*
X83327403Y-89086482D01*
X83313543Y-89091441D01*
X83299264Y-89095018D01*
X83284703Y-89097178D01*
X83270000Y-89097900D01*
X81620000Y-89097900D01*
X81605297Y-89097178D01*
X81590736Y-89095018D01*
X81576457Y-89091441D01*
X81562597Y-89086482D01*
X81549290Y-89080188D01*
X81536664Y-89072620D01*
X81524841Y-89063852D01*
X81513934Y-89053966D01*
X81504048Y-89043059D01*
X81495280Y-89031236D01*
X81487712Y-89018610D01*
X81481418Y-89005303D01*
X81476459Y-88991443D01*
X81472882Y-88977164D01*
X81470722Y-88962603D01*
X81470000Y-88947900D01*
X81470000Y-88647900D01*
X81470722Y-88633197D01*
X81472882Y-88618636D01*
X81476459Y-88604357D01*
X81481418Y-88590497D01*
X81487712Y-88577190D01*
X81495280Y-88564564D01*
X81504048Y-88552741D01*
X81513934Y-88541834D01*
X81524841Y-88531948D01*
X81536664Y-88523180D01*
X81549290Y-88515612D01*
X81562597Y-88509318D01*
X81576457Y-88504359D01*
X81590736Y-88500782D01*
X81605297Y-88498622D01*
X81620000Y-88497900D01*
X83270000Y-88497900D01*
X83284703Y-88498622D01*
G37*
G36*
X83284703Y-87228622D02*
G01*
X83299264Y-87230782D01*
X83313543Y-87234359D01*
X83327403Y-87239318D01*
X83340710Y-87245612D01*
X83353336Y-87253180D01*
X83365159Y-87261948D01*
X83376066Y-87271834D01*
X83385952Y-87282741D01*
X83394720Y-87294564D01*
X83402288Y-87307190D01*
X83408582Y-87320497D01*
X83413541Y-87334357D01*
X83417118Y-87348636D01*
X83419278Y-87363197D01*
X83420000Y-87377900D01*
X83420000Y-87677900D01*
X83419278Y-87692603D01*
X83417118Y-87707164D01*
X83413541Y-87721443D01*
X83408582Y-87735303D01*
X83402288Y-87748610D01*
X83394720Y-87761236D01*
X83385952Y-87773059D01*
X83376066Y-87783966D01*
X83365159Y-87793852D01*
X83353336Y-87802620D01*
X83340710Y-87810188D01*
X83327403Y-87816482D01*
X83313543Y-87821441D01*
X83299264Y-87825018D01*
X83284703Y-87827178D01*
X83270000Y-87827900D01*
X81620000Y-87827900D01*
X81605297Y-87827178D01*
X81590736Y-87825018D01*
X81576457Y-87821441D01*
X81562597Y-87816482D01*
X81549290Y-87810188D01*
X81536664Y-87802620D01*
X81524841Y-87793852D01*
X81513934Y-87783966D01*
X81504048Y-87773059D01*
X81495280Y-87761236D01*
X81487712Y-87748610D01*
X81481418Y-87735303D01*
X81476459Y-87721443D01*
X81472882Y-87707164D01*
X81470722Y-87692603D01*
X81470000Y-87677900D01*
X81470000Y-87377900D01*
X81470722Y-87363197D01*
X81472882Y-87348636D01*
X81476459Y-87334357D01*
X81481418Y-87320497D01*
X81487712Y-87307190D01*
X81495280Y-87294564D01*
X81504048Y-87282741D01*
X81513934Y-87271834D01*
X81524841Y-87261948D01*
X81536664Y-87253180D01*
X81549290Y-87245612D01*
X81562597Y-87239318D01*
X81576457Y-87234359D01*
X81590736Y-87230782D01*
X81605297Y-87228622D01*
X81620000Y-87227900D01*
X83270000Y-87227900D01*
X83284703Y-87228622D01*
G37*
D11*
X135447600Y-97164000D03*
X132447600Y-97164000D03*
D12*
X133197600Y-103464000D03*
D11*
X133947600Y-97164000D03*
X130947600Y-97164000D03*
D10*
G36*
X87917203Y-103986122D02*
G01*
X87931764Y-103988282D01*
X87946043Y-103991859D01*
X87959903Y-103996818D01*
X87973210Y-104003112D01*
X87985836Y-104010680D01*
X87997659Y-104019448D01*
X88008566Y-104029334D01*
X88018452Y-104040241D01*
X88027220Y-104052064D01*
X88034788Y-104064690D01*
X88041082Y-104077997D01*
X88046041Y-104091857D01*
X88049618Y-104106136D01*
X88051778Y-104120697D01*
X88052500Y-104135400D01*
X88052500Y-104435400D01*
X88051778Y-104450103D01*
X88049618Y-104464664D01*
X88046041Y-104478943D01*
X88041082Y-104492803D01*
X88034788Y-104506110D01*
X88027220Y-104518736D01*
X88018452Y-104530559D01*
X88008566Y-104541466D01*
X87997659Y-104551352D01*
X87985836Y-104560120D01*
X87973210Y-104567688D01*
X87959903Y-104573982D01*
X87946043Y-104578941D01*
X87931764Y-104582518D01*
X87917203Y-104584678D01*
X87902500Y-104585400D01*
X86252500Y-104585400D01*
X86237797Y-104584678D01*
X86223236Y-104582518D01*
X86208957Y-104578941D01*
X86195097Y-104573982D01*
X86181790Y-104567688D01*
X86169164Y-104560120D01*
X86157341Y-104551352D01*
X86146434Y-104541466D01*
X86136548Y-104530559D01*
X86127780Y-104518736D01*
X86120212Y-104506110D01*
X86113918Y-104492803D01*
X86108959Y-104478943D01*
X86105382Y-104464664D01*
X86103222Y-104450103D01*
X86102500Y-104435400D01*
X86102500Y-104135400D01*
X86103222Y-104120697D01*
X86105382Y-104106136D01*
X86108959Y-104091857D01*
X86113918Y-104077997D01*
X86120212Y-104064690D01*
X86127780Y-104052064D01*
X86136548Y-104040241D01*
X86146434Y-104029334D01*
X86157341Y-104019448D01*
X86169164Y-104010680D01*
X86181790Y-104003112D01*
X86195097Y-103996818D01*
X86208957Y-103991859D01*
X86223236Y-103988282D01*
X86237797Y-103986122D01*
X86252500Y-103985400D01*
X87902500Y-103985400D01*
X87917203Y-103986122D01*
G37*
G36*
X87917203Y-105256122D02*
G01*
X87931764Y-105258282D01*
X87946043Y-105261859D01*
X87959903Y-105266818D01*
X87973210Y-105273112D01*
X87985836Y-105280680D01*
X87997659Y-105289448D01*
X88008566Y-105299334D01*
X88018452Y-105310241D01*
X88027220Y-105322064D01*
X88034788Y-105334690D01*
X88041082Y-105347997D01*
X88046041Y-105361857D01*
X88049618Y-105376136D01*
X88051778Y-105390697D01*
X88052500Y-105405400D01*
X88052500Y-105705400D01*
X88051778Y-105720103D01*
X88049618Y-105734664D01*
X88046041Y-105748943D01*
X88041082Y-105762803D01*
X88034788Y-105776110D01*
X88027220Y-105788736D01*
X88018452Y-105800559D01*
X88008566Y-105811466D01*
X87997659Y-105821352D01*
X87985836Y-105830120D01*
X87973210Y-105837688D01*
X87959903Y-105843982D01*
X87946043Y-105848941D01*
X87931764Y-105852518D01*
X87917203Y-105854678D01*
X87902500Y-105855400D01*
X86252500Y-105855400D01*
X86237797Y-105854678D01*
X86223236Y-105852518D01*
X86208957Y-105848941D01*
X86195097Y-105843982D01*
X86181790Y-105837688D01*
X86169164Y-105830120D01*
X86157341Y-105821352D01*
X86146434Y-105811466D01*
X86136548Y-105800559D01*
X86127780Y-105788736D01*
X86120212Y-105776110D01*
X86113918Y-105762803D01*
X86108959Y-105748943D01*
X86105382Y-105734664D01*
X86103222Y-105720103D01*
X86102500Y-105705400D01*
X86102500Y-105405400D01*
X86103222Y-105390697D01*
X86105382Y-105376136D01*
X86108959Y-105361857D01*
X86113918Y-105347997D01*
X86120212Y-105334690D01*
X86127780Y-105322064D01*
X86136548Y-105310241D01*
X86146434Y-105299334D01*
X86157341Y-105289448D01*
X86169164Y-105280680D01*
X86181790Y-105273112D01*
X86195097Y-105266818D01*
X86208957Y-105261859D01*
X86223236Y-105258282D01*
X86237797Y-105256122D01*
X86252500Y-105255400D01*
X87902500Y-105255400D01*
X87917203Y-105256122D01*
G37*
G36*
X87917203Y-106526122D02*
G01*
X87931764Y-106528282D01*
X87946043Y-106531859D01*
X87959903Y-106536818D01*
X87973210Y-106543112D01*
X87985836Y-106550680D01*
X87997659Y-106559448D01*
X88008566Y-106569334D01*
X88018452Y-106580241D01*
X88027220Y-106592064D01*
X88034788Y-106604690D01*
X88041082Y-106617997D01*
X88046041Y-106631857D01*
X88049618Y-106646136D01*
X88051778Y-106660697D01*
X88052500Y-106675400D01*
X88052500Y-106975400D01*
X88051778Y-106990103D01*
X88049618Y-107004664D01*
X88046041Y-107018943D01*
X88041082Y-107032803D01*
X88034788Y-107046110D01*
X88027220Y-107058736D01*
X88018452Y-107070559D01*
X88008566Y-107081466D01*
X87997659Y-107091352D01*
X87985836Y-107100120D01*
X87973210Y-107107688D01*
X87959903Y-107113982D01*
X87946043Y-107118941D01*
X87931764Y-107122518D01*
X87917203Y-107124678D01*
X87902500Y-107125400D01*
X86252500Y-107125400D01*
X86237797Y-107124678D01*
X86223236Y-107122518D01*
X86208957Y-107118941D01*
X86195097Y-107113982D01*
X86181790Y-107107688D01*
X86169164Y-107100120D01*
X86157341Y-107091352D01*
X86146434Y-107081466D01*
X86136548Y-107070559D01*
X86127780Y-107058736D01*
X86120212Y-107046110D01*
X86113918Y-107032803D01*
X86108959Y-107018943D01*
X86105382Y-107004664D01*
X86103222Y-106990103D01*
X86102500Y-106975400D01*
X86102500Y-106675400D01*
X86103222Y-106660697D01*
X86105382Y-106646136D01*
X86108959Y-106631857D01*
X86113918Y-106617997D01*
X86120212Y-106604690D01*
X86127780Y-106592064D01*
X86136548Y-106580241D01*
X86146434Y-106569334D01*
X86157341Y-106559448D01*
X86169164Y-106550680D01*
X86181790Y-106543112D01*
X86195097Y-106536818D01*
X86208957Y-106531859D01*
X86223236Y-106528282D01*
X86237797Y-106526122D01*
X86252500Y-106525400D01*
X87902500Y-106525400D01*
X87917203Y-106526122D01*
G37*
G36*
X87917203Y-107796122D02*
G01*
X87931764Y-107798282D01*
X87946043Y-107801859D01*
X87959903Y-107806818D01*
X87973210Y-107813112D01*
X87985836Y-107820680D01*
X87997659Y-107829448D01*
X88008566Y-107839334D01*
X88018452Y-107850241D01*
X88027220Y-107862064D01*
X88034788Y-107874690D01*
X88041082Y-107887997D01*
X88046041Y-107901857D01*
X88049618Y-107916136D01*
X88051778Y-107930697D01*
X88052500Y-107945400D01*
X88052500Y-108245400D01*
X88051778Y-108260103D01*
X88049618Y-108274664D01*
X88046041Y-108288943D01*
X88041082Y-108302803D01*
X88034788Y-108316110D01*
X88027220Y-108328736D01*
X88018452Y-108340559D01*
X88008566Y-108351466D01*
X87997659Y-108361352D01*
X87985836Y-108370120D01*
X87973210Y-108377688D01*
X87959903Y-108383982D01*
X87946043Y-108388941D01*
X87931764Y-108392518D01*
X87917203Y-108394678D01*
X87902500Y-108395400D01*
X86252500Y-108395400D01*
X86237797Y-108394678D01*
X86223236Y-108392518D01*
X86208957Y-108388941D01*
X86195097Y-108383982D01*
X86181790Y-108377688D01*
X86169164Y-108370120D01*
X86157341Y-108361352D01*
X86146434Y-108351466D01*
X86136548Y-108340559D01*
X86127780Y-108328736D01*
X86120212Y-108316110D01*
X86113918Y-108302803D01*
X86108959Y-108288943D01*
X86105382Y-108274664D01*
X86103222Y-108260103D01*
X86102500Y-108245400D01*
X86102500Y-107945400D01*
X86103222Y-107930697D01*
X86105382Y-107916136D01*
X86108959Y-107901857D01*
X86113918Y-107887997D01*
X86120212Y-107874690D01*
X86127780Y-107862064D01*
X86136548Y-107850241D01*
X86146434Y-107839334D01*
X86157341Y-107829448D01*
X86169164Y-107820680D01*
X86181790Y-107813112D01*
X86195097Y-107806818D01*
X86208957Y-107801859D01*
X86223236Y-107798282D01*
X86237797Y-107796122D01*
X86252500Y-107795400D01*
X87902500Y-107795400D01*
X87917203Y-107796122D01*
G37*
G36*
X82967203Y-107796122D02*
G01*
X82981764Y-107798282D01*
X82996043Y-107801859D01*
X83009903Y-107806818D01*
X83023210Y-107813112D01*
X83035836Y-107820680D01*
X83047659Y-107829448D01*
X83058566Y-107839334D01*
X83068452Y-107850241D01*
X83077220Y-107862064D01*
X83084788Y-107874690D01*
X83091082Y-107887997D01*
X83096041Y-107901857D01*
X83099618Y-107916136D01*
X83101778Y-107930697D01*
X83102500Y-107945400D01*
X83102500Y-108245400D01*
X83101778Y-108260103D01*
X83099618Y-108274664D01*
X83096041Y-108288943D01*
X83091082Y-108302803D01*
X83084788Y-108316110D01*
X83077220Y-108328736D01*
X83068452Y-108340559D01*
X83058566Y-108351466D01*
X83047659Y-108361352D01*
X83035836Y-108370120D01*
X83023210Y-108377688D01*
X83009903Y-108383982D01*
X82996043Y-108388941D01*
X82981764Y-108392518D01*
X82967203Y-108394678D01*
X82952500Y-108395400D01*
X81302500Y-108395400D01*
X81287797Y-108394678D01*
X81273236Y-108392518D01*
X81258957Y-108388941D01*
X81245097Y-108383982D01*
X81231790Y-108377688D01*
X81219164Y-108370120D01*
X81207341Y-108361352D01*
X81196434Y-108351466D01*
X81186548Y-108340559D01*
X81177780Y-108328736D01*
X81170212Y-108316110D01*
X81163918Y-108302803D01*
X81158959Y-108288943D01*
X81155382Y-108274664D01*
X81153222Y-108260103D01*
X81152500Y-108245400D01*
X81152500Y-107945400D01*
X81153222Y-107930697D01*
X81155382Y-107916136D01*
X81158959Y-107901857D01*
X81163918Y-107887997D01*
X81170212Y-107874690D01*
X81177780Y-107862064D01*
X81186548Y-107850241D01*
X81196434Y-107839334D01*
X81207341Y-107829448D01*
X81219164Y-107820680D01*
X81231790Y-107813112D01*
X81245097Y-107806818D01*
X81258957Y-107801859D01*
X81273236Y-107798282D01*
X81287797Y-107796122D01*
X81302500Y-107795400D01*
X82952500Y-107795400D01*
X82967203Y-107796122D01*
G37*
G36*
X82967203Y-106526122D02*
G01*
X82981764Y-106528282D01*
X82996043Y-106531859D01*
X83009903Y-106536818D01*
X83023210Y-106543112D01*
X83035836Y-106550680D01*
X83047659Y-106559448D01*
X83058566Y-106569334D01*
X83068452Y-106580241D01*
X83077220Y-106592064D01*
X83084788Y-106604690D01*
X83091082Y-106617997D01*
X83096041Y-106631857D01*
X83099618Y-106646136D01*
X83101778Y-106660697D01*
X83102500Y-106675400D01*
X83102500Y-106975400D01*
X83101778Y-106990103D01*
X83099618Y-107004664D01*
X83096041Y-107018943D01*
X83091082Y-107032803D01*
X83084788Y-107046110D01*
X83077220Y-107058736D01*
X83068452Y-107070559D01*
X83058566Y-107081466D01*
X83047659Y-107091352D01*
X83035836Y-107100120D01*
X83023210Y-107107688D01*
X83009903Y-107113982D01*
X82996043Y-107118941D01*
X82981764Y-107122518D01*
X82967203Y-107124678D01*
X82952500Y-107125400D01*
X81302500Y-107125400D01*
X81287797Y-107124678D01*
X81273236Y-107122518D01*
X81258957Y-107118941D01*
X81245097Y-107113982D01*
X81231790Y-107107688D01*
X81219164Y-107100120D01*
X81207341Y-107091352D01*
X81196434Y-107081466D01*
X81186548Y-107070559D01*
X81177780Y-107058736D01*
X81170212Y-107046110D01*
X81163918Y-107032803D01*
X81158959Y-107018943D01*
X81155382Y-107004664D01*
X81153222Y-106990103D01*
X81152500Y-106975400D01*
X81152500Y-106675400D01*
X81153222Y-106660697D01*
X81155382Y-106646136D01*
X81158959Y-106631857D01*
X81163918Y-106617997D01*
X81170212Y-106604690D01*
X81177780Y-106592064D01*
X81186548Y-106580241D01*
X81196434Y-106569334D01*
X81207341Y-106559448D01*
X81219164Y-106550680D01*
X81231790Y-106543112D01*
X81245097Y-106536818D01*
X81258957Y-106531859D01*
X81273236Y-106528282D01*
X81287797Y-106526122D01*
X81302500Y-106525400D01*
X82952500Y-106525400D01*
X82967203Y-106526122D01*
G37*
G36*
X82967203Y-105256122D02*
G01*
X82981764Y-105258282D01*
X82996043Y-105261859D01*
X83009903Y-105266818D01*
X83023210Y-105273112D01*
X83035836Y-105280680D01*
X83047659Y-105289448D01*
X83058566Y-105299334D01*
X83068452Y-105310241D01*
X83077220Y-105322064D01*
X83084788Y-105334690D01*
X83091082Y-105347997D01*
X83096041Y-105361857D01*
X83099618Y-105376136D01*
X83101778Y-105390697D01*
X83102500Y-105405400D01*
X83102500Y-105705400D01*
X83101778Y-105720103D01*
X83099618Y-105734664D01*
X83096041Y-105748943D01*
X83091082Y-105762803D01*
X83084788Y-105776110D01*
X83077220Y-105788736D01*
X83068452Y-105800559D01*
X83058566Y-105811466D01*
X83047659Y-105821352D01*
X83035836Y-105830120D01*
X83023210Y-105837688D01*
X83009903Y-105843982D01*
X82996043Y-105848941D01*
X82981764Y-105852518D01*
X82967203Y-105854678D01*
X82952500Y-105855400D01*
X81302500Y-105855400D01*
X81287797Y-105854678D01*
X81273236Y-105852518D01*
X81258957Y-105848941D01*
X81245097Y-105843982D01*
X81231790Y-105837688D01*
X81219164Y-105830120D01*
X81207341Y-105821352D01*
X81196434Y-105811466D01*
X81186548Y-105800559D01*
X81177780Y-105788736D01*
X81170212Y-105776110D01*
X81163918Y-105762803D01*
X81158959Y-105748943D01*
X81155382Y-105734664D01*
X81153222Y-105720103D01*
X81152500Y-105705400D01*
X81152500Y-105405400D01*
X81153222Y-105390697D01*
X81155382Y-105376136D01*
X81158959Y-105361857D01*
X81163918Y-105347997D01*
X81170212Y-105334690D01*
X81177780Y-105322064D01*
X81186548Y-105310241D01*
X81196434Y-105299334D01*
X81207341Y-105289448D01*
X81219164Y-105280680D01*
X81231790Y-105273112D01*
X81245097Y-105266818D01*
X81258957Y-105261859D01*
X81273236Y-105258282D01*
X81287797Y-105256122D01*
X81302500Y-105255400D01*
X82952500Y-105255400D01*
X82967203Y-105256122D01*
G37*
G36*
X82967203Y-103986122D02*
G01*
X82981764Y-103988282D01*
X82996043Y-103991859D01*
X83009903Y-103996818D01*
X83023210Y-104003112D01*
X83035836Y-104010680D01*
X83047659Y-104019448D01*
X83058566Y-104029334D01*
X83068452Y-104040241D01*
X83077220Y-104052064D01*
X83084788Y-104064690D01*
X83091082Y-104077997D01*
X83096041Y-104091857D01*
X83099618Y-104106136D01*
X83101778Y-104120697D01*
X83102500Y-104135400D01*
X83102500Y-104435400D01*
X83101778Y-104450103D01*
X83099618Y-104464664D01*
X83096041Y-104478943D01*
X83091082Y-104492803D01*
X83084788Y-104506110D01*
X83077220Y-104518736D01*
X83068452Y-104530559D01*
X83058566Y-104541466D01*
X83047659Y-104551352D01*
X83035836Y-104560120D01*
X83023210Y-104567688D01*
X83009903Y-104573982D01*
X82996043Y-104578941D01*
X82981764Y-104582518D01*
X82967203Y-104584678D01*
X82952500Y-104585400D01*
X81302500Y-104585400D01*
X81287797Y-104584678D01*
X81273236Y-104582518D01*
X81258957Y-104578941D01*
X81245097Y-104573982D01*
X81231790Y-104567688D01*
X81219164Y-104560120D01*
X81207341Y-104551352D01*
X81196434Y-104541466D01*
X81186548Y-104530559D01*
X81177780Y-104518736D01*
X81170212Y-104506110D01*
X81163918Y-104492803D01*
X81158959Y-104478943D01*
X81155382Y-104464664D01*
X81153222Y-104450103D01*
X81152500Y-104435400D01*
X81152500Y-104135400D01*
X81153222Y-104120697D01*
X81155382Y-104106136D01*
X81158959Y-104091857D01*
X81163918Y-104077997D01*
X81170212Y-104064690D01*
X81177780Y-104052064D01*
X81186548Y-104040241D01*
X81196434Y-104029334D01*
X81207341Y-104019448D01*
X81219164Y-104010680D01*
X81231790Y-104003112D01*
X81245097Y-103996818D01*
X81258957Y-103991859D01*
X81273236Y-103988282D01*
X81287797Y-103986122D01*
X81302500Y-103985400D01*
X82952500Y-103985400D01*
X82967203Y-103986122D01*
G37*
D13*
X80130000Y-101385200D03*
X82630000Y-100435200D03*
X82630000Y-102335200D03*
X88335500Y-101597600D03*
X85835500Y-102547600D03*
X85835500Y-100647600D03*
X82620000Y-95630000D03*
X80120000Y-96580000D03*
X80120000Y-94680000D03*
X88570000Y-93830000D03*
X86070000Y-94780000D03*
X86070000Y-92880000D03*
D10*
G36*
X135710779Y-91551144D02*
G01*
X135733834Y-91554563D01*
X135756443Y-91560227D01*
X135778387Y-91568079D01*
X135799457Y-91578044D01*
X135819448Y-91590026D01*
X135838168Y-91603910D01*
X135855438Y-91619562D01*
X135871090Y-91636832D01*
X135884974Y-91655552D01*
X135896956Y-91675543D01*
X135906921Y-91696613D01*
X135914773Y-91718557D01*
X135920437Y-91741166D01*
X135923856Y-91764221D01*
X135925000Y-91787500D01*
X135925000Y-92362500D01*
X135923856Y-92385779D01*
X135920437Y-92408834D01*
X135914773Y-92431443D01*
X135906921Y-92453387D01*
X135896956Y-92474457D01*
X135884974Y-92494448D01*
X135871090Y-92513168D01*
X135855438Y-92530438D01*
X135838168Y-92546090D01*
X135819448Y-92559974D01*
X135799457Y-92571956D01*
X135778387Y-92581921D01*
X135756443Y-92589773D01*
X135733834Y-92595437D01*
X135710779Y-92598856D01*
X135687500Y-92600000D01*
X135212500Y-92600000D01*
X135189221Y-92598856D01*
X135166166Y-92595437D01*
X135143557Y-92589773D01*
X135121613Y-92581921D01*
X135100543Y-92571956D01*
X135080552Y-92559974D01*
X135061832Y-92546090D01*
X135044562Y-92530438D01*
X135028910Y-92513168D01*
X135015026Y-92494448D01*
X135003044Y-92474457D01*
X134993079Y-92453387D01*
X134985227Y-92431443D01*
X134979563Y-92408834D01*
X134976144Y-92385779D01*
X134975000Y-92362500D01*
X134975000Y-91787500D01*
X134976144Y-91764221D01*
X134979563Y-91741166D01*
X134985227Y-91718557D01*
X134993079Y-91696613D01*
X135003044Y-91675543D01*
X135015026Y-91655552D01*
X135028910Y-91636832D01*
X135044562Y-91619562D01*
X135061832Y-91603910D01*
X135080552Y-91590026D01*
X135100543Y-91578044D01*
X135121613Y-91568079D01*
X135143557Y-91560227D01*
X135166166Y-91554563D01*
X135189221Y-91551144D01*
X135212500Y-91550000D01*
X135687500Y-91550000D01*
X135710779Y-91551144D01*
G37*
G36*
X135710779Y-93301144D02*
G01*
X135733834Y-93304563D01*
X135756443Y-93310227D01*
X135778387Y-93318079D01*
X135799457Y-93328044D01*
X135819448Y-93340026D01*
X135838168Y-93353910D01*
X135855438Y-93369562D01*
X135871090Y-93386832D01*
X135884974Y-93405552D01*
X135896956Y-93425543D01*
X135906921Y-93446613D01*
X135914773Y-93468557D01*
X135920437Y-93491166D01*
X135923856Y-93514221D01*
X135925000Y-93537500D01*
X135925000Y-94112500D01*
X135923856Y-94135779D01*
X135920437Y-94158834D01*
X135914773Y-94181443D01*
X135906921Y-94203387D01*
X135896956Y-94224457D01*
X135884974Y-94244448D01*
X135871090Y-94263168D01*
X135855438Y-94280438D01*
X135838168Y-94296090D01*
X135819448Y-94309974D01*
X135799457Y-94321956D01*
X135778387Y-94331921D01*
X135756443Y-94339773D01*
X135733834Y-94345437D01*
X135710779Y-94348856D01*
X135687500Y-94350000D01*
X135212500Y-94350000D01*
X135189221Y-94348856D01*
X135166166Y-94345437D01*
X135143557Y-94339773D01*
X135121613Y-94331921D01*
X135100543Y-94321956D01*
X135080552Y-94309974D01*
X135061832Y-94296090D01*
X135044562Y-94280438D01*
X135028910Y-94263168D01*
X135015026Y-94244448D01*
X135003044Y-94224457D01*
X134993079Y-94203387D01*
X134985227Y-94181443D01*
X134979563Y-94158834D01*
X134976144Y-94135779D01*
X134975000Y-94112500D01*
X134975000Y-93537500D01*
X134976144Y-93514221D01*
X134979563Y-93491166D01*
X134985227Y-93468557D01*
X134993079Y-93446613D01*
X135003044Y-93425543D01*
X135015026Y-93405552D01*
X135028910Y-93386832D01*
X135044562Y-93369562D01*
X135061832Y-93353910D01*
X135080552Y-93340026D01*
X135100543Y-93328044D01*
X135121613Y-93318079D01*
X135143557Y-93310227D01*
X135166166Y-93304563D01*
X135189221Y-93301144D01*
X135212500Y-93300000D01*
X135687500Y-93300000D01*
X135710779Y-93301144D01*
G37*
G36*
X132710779Y-93301144D02*
G01*
X132733834Y-93304563D01*
X132756443Y-93310227D01*
X132778387Y-93318079D01*
X132799457Y-93328044D01*
X132819448Y-93340026D01*
X132838168Y-93353910D01*
X132855438Y-93369562D01*
X132871090Y-93386832D01*
X132884974Y-93405552D01*
X132896956Y-93425543D01*
X132906921Y-93446613D01*
X132914773Y-93468557D01*
X132920437Y-93491166D01*
X132923856Y-93514221D01*
X132925000Y-93537500D01*
X132925000Y-94112500D01*
X132923856Y-94135779D01*
X132920437Y-94158834D01*
X132914773Y-94181443D01*
X132906921Y-94203387D01*
X132896956Y-94224457D01*
X132884974Y-94244448D01*
X132871090Y-94263168D01*
X132855438Y-94280438D01*
X132838168Y-94296090D01*
X132819448Y-94309974D01*
X132799457Y-94321956D01*
X132778387Y-94331921D01*
X132756443Y-94339773D01*
X132733834Y-94345437D01*
X132710779Y-94348856D01*
X132687500Y-94350000D01*
X132212500Y-94350000D01*
X132189221Y-94348856D01*
X132166166Y-94345437D01*
X132143557Y-94339773D01*
X132121613Y-94331921D01*
X132100543Y-94321956D01*
X132080552Y-94309974D01*
X132061832Y-94296090D01*
X132044562Y-94280438D01*
X132028910Y-94263168D01*
X132015026Y-94244448D01*
X132003044Y-94224457D01*
X131993079Y-94203387D01*
X131985227Y-94181443D01*
X131979563Y-94158834D01*
X131976144Y-94135779D01*
X131975000Y-94112500D01*
X131975000Y-93537500D01*
X131976144Y-93514221D01*
X131979563Y-93491166D01*
X131985227Y-93468557D01*
X131993079Y-93446613D01*
X132003044Y-93425543D01*
X132015026Y-93405552D01*
X132028910Y-93386832D01*
X132044562Y-93369562D01*
X132061832Y-93353910D01*
X132080552Y-93340026D01*
X132100543Y-93328044D01*
X132121613Y-93318079D01*
X132143557Y-93310227D01*
X132166166Y-93304563D01*
X132189221Y-93301144D01*
X132212500Y-93300000D01*
X132687500Y-93300000D01*
X132710779Y-93301144D01*
G37*
G36*
X132710779Y-91551144D02*
G01*
X132733834Y-91554563D01*
X132756443Y-91560227D01*
X132778387Y-91568079D01*
X132799457Y-91578044D01*
X132819448Y-91590026D01*
X132838168Y-91603910D01*
X132855438Y-91619562D01*
X132871090Y-91636832D01*
X132884974Y-91655552D01*
X132896956Y-91675543D01*
X132906921Y-91696613D01*
X132914773Y-91718557D01*
X132920437Y-91741166D01*
X132923856Y-91764221D01*
X132925000Y-91787500D01*
X132925000Y-92362500D01*
X132923856Y-92385779D01*
X132920437Y-92408834D01*
X132914773Y-92431443D01*
X132906921Y-92453387D01*
X132896956Y-92474457D01*
X132884974Y-92494448D01*
X132871090Y-92513168D01*
X132855438Y-92530438D01*
X132838168Y-92546090D01*
X132819448Y-92559974D01*
X132799457Y-92571956D01*
X132778387Y-92581921D01*
X132756443Y-92589773D01*
X132733834Y-92595437D01*
X132710779Y-92598856D01*
X132687500Y-92600000D01*
X132212500Y-92600000D01*
X132189221Y-92598856D01*
X132166166Y-92595437D01*
X132143557Y-92589773D01*
X132121613Y-92581921D01*
X132100543Y-92571956D01*
X132080552Y-92559974D01*
X132061832Y-92546090D01*
X132044562Y-92530438D01*
X132028910Y-92513168D01*
X132015026Y-92494448D01*
X132003044Y-92474457D01*
X131993079Y-92453387D01*
X131985227Y-92431443D01*
X131979563Y-92408834D01*
X131976144Y-92385779D01*
X131975000Y-92362500D01*
X131975000Y-91787500D01*
X131976144Y-91764221D01*
X131979563Y-91741166D01*
X131985227Y-91718557D01*
X131993079Y-91696613D01*
X132003044Y-91675543D01*
X132015026Y-91655552D01*
X132028910Y-91636832D01*
X132044562Y-91619562D01*
X132061832Y-91603910D01*
X132080552Y-91590026D01*
X132100543Y-91578044D01*
X132121613Y-91568079D01*
X132143557Y-91560227D01*
X132166166Y-91554563D01*
X132189221Y-91551144D01*
X132212500Y-91550000D01*
X132687500Y-91550000D01*
X132710779Y-91551144D01*
G37*
G36*
X86324279Y-98541044D02*
G01*
X86347334Y-98544463D01*
X86369943Y-98550127D01*
X86391887Y-98557979D01*
X86412957Y-98567944D01*
X86432948Y-98579926D01*
X86451668Y-98593810D01*
X86468938Y-98609462D01*
X86484590Y-98626732D01*
X86498474Y-98645452D01*
X86510456Y-98665443D01*
X86520421Y-98686513D01*
X86528273Y-98708457D01*
X86533937Y-98731066D01*
X86537356Y-98754121D01*
X86538500Y-98777400D01*
X86538500Y-99252400D01*
X86537356Y-99275679D01*
X86533937Y-99298734D01*
X86528273Y-99321343D01*
X86520421Y-99343287D01*
X86510456Y-99364357D01*
X86498474Y-99384348D01*
X86484590Y-99403068D01*
X86468938Y-99420338D01*
X86451668Y-99435990D01*
X86432948Y-99449874D01*
X86412957Y-99461856D01*
X86391887Y-99471821D01*
X86369943Y-99479673D01*
X86347334Y-99485337D01*
X86324279Y-99488756D01*
X86301000Y-99489900D01*
X85726000Y-99489900D01*
X85702721Y-99488756D01*
X85679666Y-99485337D01*
X85657057Y-99479673D01*
X85635113Y-99471821D01*
X85614043Y-99461856D01*
X85594052Y-99449874D01*
X85575332Y-99435990D01*
X85558062Y-99420338D01*
X85542410Y-99403068D01*
X85528526Y-99384348D01*
X85516544Y-99364357D01*
X85506579Y-99343287D01*
X85498727Y-99321343D01*
X85493063Y-99298734D01*
X85489644Y-99275679D01*
X85488500Y-99252400D01*
X85488500Y-98777400D01*
X85489644Y-98754121D01*
X85493063Y-98731066D01*
X85498727Y-98708457D01*
X85506579Y-98686513D01*
X85516544Y-98665443D01*
X85528526Y-98645452D01*
X85542410Y-98626732D01*
X85558062Y-98609462D01*
X85575332Y-98593810D01*
X85594052Y-98579926D01*
X85614043Y-98567944D01*
X85635113Y-98557979D01*
X85657057Y-98550127D01*
X85679666Y-98544463D01*
X85702721Y-98541044D01*
X85726000Y-98539900D01*
X86301000Y-98539900D01*
X86324279Y-98541044D01*
G37*
G36*
X88074279Y-98541044D02*
G01*
X88097334Y-98544463D01*
X88119943Y-98550127D01*
X88141887Y-98557979D01*
X88162957Y-98567944D01*
X88182948Y-98579926D01*
X88201668Y-98593810D01*
X88218938Y-98609462D01*
X88234590Y-98626732D01*
X88248474Y-98645452D01*
X88260456Y-98665443D01*
X88270421Y-98686513D01*
X88278273Y-98708457D01*
X88283937Y-98731066D01*
X88287356Y-98754121D01*
X88288500Y-98777400D01*
X88288500Y-99252400D01*
X88287356Y-99275679D01*
X88283937Y-99298734D01*
X88278273Y-99321343D01*
X88270421Y-99343287D01*
X88260456Y-99364357D01*
X88248474Y-99384348D01*
X88234590Y-99403068D01*
X88218938Y-99420338D01*
X88201668Y-99435990D01*
X88182948Y-99449874D01*
X88162957Y-99461856D01*
X88141887Y-99471821D01*
X88119943Y-99479673D01*
X88097334Y-99485337D01*
X88074279Y-99488756D01*
X88051000Y-99489900D01*
X87476000Y-99489900D01*
X87452721Y-99488756D01*
X87429666Y-99485337D01*
X87407057Y-99479673D01*
X87385113Y-99471821D01*
X87364043Y-99461856D01*
X87344052Y-99449874D01*
X87325332Y-99435990D01*
X87308062Y-99420338D01*
X87292410Y-99403068D01*
X87278526Y-99384348D01*
X87266544Y-99364357D01*
X87256579Y-99343287D01*
X87248727Y-99321343D01*
X87243063Y-99298734D01*
X87239644Y-99275679D01*
X87238500Y-99252400D01*
X87238500Y-98777400D01*
X87239644Y-98754121D01*
X87243063Y-98731066D01*
X87248727Y-98708457D01*
X87256579Y-98686513D01*
X87266544Y-98665443D01*
X87278526Y-98645452D01*
X87292410Y-98626732D01*
X87308062Y-98609462D01*
X87325332Y-98593810D01*
X87344052Y-98579926D01*
X87364043Y-98567944D01*
X87385113Y-98557979D01*
X87407057Y-98550127D01*
X87429666Y-98544463D01*
X87452721Y-98541044D01*
X87476000Y-98539900D01*
X88051000Y-98539900D01*
X88074279Y-98541044D01*
G37*
G36*
X86385779Y-96476144D02*
G01*
X86408834Y-96479563D01*
X86431443Y-96485227D01*
X86453387Y-96493079D01*
X86474457Y-96503044D01*
X86494448Y-96515026D01*
X86513168Y-96528910D01*
X86530438Y-96544562D01*
X86546090Y-96561832D01*
X86559974Y-96580552D01*
X86571956Y-96600543D01*
X86581921Y-96621613D01*
X86589773Y-96643557D01*
X86595437Y-96666166D01*
X86598856Y-96689221D01*
X86600000Y-96712500D01*
X86600000Y-97187500D01*
X86598856Y-97210779D01*
X86595437Y-97233834D01*
X86589773Y-97256443D01*
X86581921Y-97278387D01*
X86571956Y-97299457D01*
X86559974Y-97319448D01*
X86546090Y-97338168D01*
X86530438Y-97355438D01*
X86513168Y-97371090D01*
X86494448Y-97384974D01*
X86474457Y-97396956D01*
X86453387Y-97406921D01*
X86431443Y-97414773D01*
X86408834Y-97420437D01*
X86385779Y-97423856D01*
X86362500Y-97425000D01*
X85787500Y-97425000D01*
X85764221Y-97423856D01*
X85741166Y-97420437D01*
X85718557Y-97414773D01*
X85696613Y-97406921D01*
X85675543Y-97396956D01*
X85655552Y-97384974D01*
X85636832Y-97371090D01*
X85619562Y-97355438D01*
X85603910Y-97338168D01*
X85590026Y-97319448D01*
X85578044Y-97299457D01*
X85568079Y-97278387D01*
X85560227Y-97256443D01*
X85554563Y-97233834D01*
X85551144Y-97210779D01*
X85550000Y-97187500D01*
X85550000Y-96712500D01*
X85551144Y-96689221D01*
X85554563Y-96666166D01*
X85560227Y-96643557D01*
X85568079Y-96621613D01*
X85578044Y-96600543D01*
X85590026Y-96580552D01*
X85603910Y-96561832D01*
X85619562Y-96544562D01*
X85636832Y-96528910D01*
X85655552Y-96515026D01*
X85675543Y-96503044D01*
X85696613Y-96493079D01*
X85718557Y-96485227D01*
X85741166Y-96479563D01*
X85764221Y-96476144D01*
X85787500Y-96475000D01*
X86362500Y-96475000D01*
X86385779Y-96476144D01*
G37*
G36*
X88135779Y-96476144D02*
G01*
X88158834Y-96479563D01*
X88181443Y-96485227D01*
X88203387Y-96493079D01*
X88224457Y-96503044D01*
X88244448Y-96515026D01*
X88263168Y-96528910D01*
X88280438Y-96544562D01*
X88296090Y-96561832D01*
X88309974Y-96580552D01*
X88321956Y-96600543D01*
X88331921Y-96621613D01*
X88339773Y-96643557D01*
X88345437Y-96666166D01*
X88348856Y-96689221D01*
X88350000Y-96712500D01*
X88350000Y-97187500D01*
X88348856Y-97210779D01*
X88345437Y-97233834D01*
X88339773Y-97256443D01*
X88331921Y-97278387D01*
X88321956Y-97299457D01*
X88309974Y-97319448D01*
X88296090Y-97338168D01*
X88280438Y-97355438D01*
X88263168Y-97371090D01*
X88244448Y-97384974D01*
X88224457Y-97396956D01*
X88203387Y-97406921D01*
X88181443Y-97414773D01*
X88158834Y-97420437D01*
X88135779Y-97423856D01*
X88112500Y-97425000D01*
X87537500Y-97425000D01*
X87514221Y-97423856D01*
X87491166Y-97420437D01*
X87468557Y-97414773D01*
X87446613Y-97406921D01*
X87425543Y-97396956D01*
X87405552Y-97384974D01*
X87386832Y-97371090D01*
X87369562Y-97355438D01*
X87353910Y-97338168D01*
X87340026Y-97319448D01*
X87328044Y-97299457D01*
X87318079Y-97278387D01*
X87310227Y-97256443D01*
X87304563Y-97233834D01*
X87301144Y-97210779D01*
X87300000Y-97187500D01*
X87300000Y-96712500D01*
X87301144Y-96689221D01*
X87304563Y-96666166D01*
X87310227Y-96643557D01*
X87318079Y-96621613D01*
X87328044Y-96600543D01*
X87340026Y-96580552D01*
X87353910Y-96561832D01*
X87369562Y-96544562D01*
X87386832Y-96528910D01*
X87405552Y-96515026D01*
X87425543Y-96503044D01*
X87446613Y-96493079D01*
X87468557Y-96485227D01*
X87491166Y-96479563D01*
X87514221Y-96476144D01*
X87537500Y-96475000D01*
X88112500Y-96475000D01*
X88135779Y-96476144D01*
G37*
M02*
