G04 #@! TF.GenerationSoftware,KiCad,Pcbnew,(5.1.5-0-10_14)*
G04 #@! TF.CreationDate,2020-04-21T13:10:17+02:00*
G04 #@! TF.ProjectId,Curiosity_Nano_Full-bridge_module_rev1,43757269-6f73-4697-9479-5f4e616e6f5f,rev?*
G04 #@! TF.SameCoordinates,Original*
G04 #@! TF.FileFunction,Soldermask,Bot*
G04 #@! TF.FilePolarity,Negative*
%FSLAX46Y46*%
G04 Gerber Fmt 4.6, Leading zero omitted, Abs format (unit mm)*
G04 Created by KiCad (PCBNEW (5.1.5-0-10_14)) date 2020-04-21 13:10:17*
%MOMM*%
%LPD*%
G04 APERTURE LIST*
%ADD10C,3.540000*%
%ADD11C,1.700000*%
%ADD12C,5.700000*%
%ADD13R,1.700000X1.700000*%
%ADD14O,1.700000X1.700000*%
G04 APERTURE END LIST*
D10*
X143890000Y-82010000D03*
X143890000Y-66770000D03*
D11*
X70230000Y-82010000D03*
X72770000Y-82010000D03*
X75310000Y-82010000D03*
X77850000Y-82010000D03*
X80390000Y-82010000D03*
X82930000Y-82010000D03*
X85470000Y-82010000D03*
X88010000Y-82010000D03*
X90550000Y-82010000D03*
X93090000Y-82010000D03*
X95630000Y-82010000D03*
X98170000Y-82010000D03*
X100710000Y-82010000D03*
X103250000Y-82010000D03*
X105790000Y-82010000D03*
X108330000Y-82010000D03*
X110870000Y-82010000D03*
X113410000Y-82010000D03*
X115950000Y-82010000D03*
X118490000Y-82010000D03*
X121030000Y-82010000D03*
X123570000Y-82010000D03*
X126110000Y-82010000D03*
X128650000Y-82010000D03*
X131190000Y-82010000D03*
X133730000Y-82010000D03*
X136270000Y-82010000D03*
X138810000Y-82010000D03*
X70230000Y-66770000D03*
X72770000Y-66770000D03*
X75310000Y-66770000D03*
X77850000Y-66770000D03*
X80390000Y-66770000D03*
X82930000Y-66770000D03*
X85470000Y-66770000D03*
X88010000Y-66770000D03*
X90550000Y-66770000D03*
X93090000Y-66770000D03*
X95630000Y-66770000D03*
X98170000Y-66770000D03*
X100710000Y-66770000D03*
X103250000Y-66770000D03*
X105790000Y-66770000D03*
X108330000Y-66770000D03*
X110870000Y-66770000D03*
X113410000Y-66770000D03*
X115950000Y-66770000D03*
X118490000Y-66770000D03*
X121030000Y-66770000D03*
X123570000Y-66770000D03*
X126110000Y-66770000D03*
X128650000Y-66770000D03*
X131190000Y-66770000D03*
X133730000Y-66770000D03*
X136270000Y-66770000D03*
X138810000Y-66770000D03*
D12*
X123500000Y-58500000D03*
X123500000Y-107500000D03*
X65500000Y-58500000D03*
X65500000Y-107500000D03*
D13*
X72650000Y-101190000D03*
D14*
X72650000Y-98650000D03*
X72650000Y-96110000D03*
X72650000Y-93570000D03*
D13*
X117830000Y-100150000D03*
D14*
X115290000Y-100150000D03*
X112750000Y-100150000D03*
X110210000Y-100150000D03*
X107670000Y-100150000D03*
M02*
