G04 #@! TF.GenerationSoftware,KiCad,Pcbnew,(5.1.5-0-10_14)*
G04 #@! TF.CreationDate,2020-04-21T13:10:17+02:00*
G04 #@! TF.ProjectId,Curiosity_Nano_Full-bridge_module_rev1,43757269-6f73-4697-9479-5f4e616e6f5f,rev?*
G04 #@! TF.SameCoordinates,Original*
G04 #@! TF.FileFunction,Legend,Bot*
G04 #@! TF.FilePolarity,Positive*
%FSLAX46Y46*%
G04 Gerber Fmt 4.6, Leading zero omitted, Abs format (unit mm)*
G04 Created by KiCad (PCBNEW (5.1.5-0-10_14)) date 2020-04-21 13:10:17*
%MOMM*%
%LPD*%
G04 APERTURE LIST*
%ADD10C,0.150000*%
%ADD11C,0.010000*%
%ADD12C,0.200000*%
G04 APERTURE END LIST*
D10*
X118280000Y-103941904D02*
X118327619Y-104037142D01*
X118327619Y-104180000D01*
X118280000Y-104322857D01*
X118184761Y-104418095D01*
X118089523Y-104465714D01*
X117899047Y-104513333D01*
X117756190Y-104513333D01*
X117565714Y-104465714D01*
X117470476Y-104418095D01*
X117375238Y-104322857D01*
X117327619Y-104180000D01*
X117327619Y-104084761D01*
X117375238Y-103941904D01*
X117422857Y-103894285D01*
X117756190Y-103894285D01*
X117756190Y-104084761D01*
X117327619Y-103465714D02*
X118327619Y-103465714D01*
X117327619Y-102894285D01*
X118327619Y-102894285D01*
X117327619Y-102418095D02*
X118327619Y-102418095D01*
X118327619Y-102180000D01*
X118280000Y-102037142D01*
X118184761Y-101941904D01*
X118089523Y-101894285D01*
X117899047Y-101846666D01*
X117756190Y-101846666D01*
X117565714Y-101894285D01*
X117470476Y-101941904D01*
X117375238Y-102037142D01*
X117327619Y-102180000D01*
X117327619Y-102418095D01*
X142563809Y-100686666D02*
X142087619Y-100686666D01*
X142659047Y-100972380D02*
X142325714Y-99972380D01*
X141992380Y-100972380D01*
X141801904Y-99972380D02*
X141230476Y-99972380D01*
X141516190Y-100972380D02*
X141516190Y-99972380D01*
X140897142Y-100972380D02*
X140897142Y-100305714D01*
X140897142Y-100400952D02*
X140849523Y-100353333D01*
X140754285Y-100305714D01*
X140611428Y-100305714D01*
X140516190Y-100353333D01*
X140468571Y-100448571D01*
X140468571Y-100972380D01*
X140468571Y-100448571D02*
X140420952Y-100353333D01*
X140325714Y-100305714D01*
X140182857Y-100305714D01*
X140087619Y-100353333D01*
X140040000Y-100448571D01*
X140040000Y-100972380D01*
X139182857Y-100924761D02*
X139278095Y-100972380D01*
X139468571Y-100972380D01*
X139563809Y-100924761D01*
X139611428Y-100829523D01*
X139611428Y-100448571D01*
X139563809Y-100353333D01*
X139468571Y-100305714D01*
X139278095Y-100305714D01*
X139182857Y-100353333D01*
X139135238Y-100448571D01*
X139135238Y-100543809D01*
X139611428Y-100639047D01*
X138278095Y-100305714D02*
X138278095Y-101115238D01*
X138325714Y-101210476D01*
X138373333Y-101258095D01*
X138468571Y-101305714D01*
X138611428Y-101305714D01*
X138706666Y-101258095D01*
X138278095Y-100924761D02*
X138373333Y-100972380D01*
X138563809Y-100972380D01*
X138659047Y-100924761D01*
X138706666Y-100877142D01*
X138754285Y-100781904D01*
X138754285Y-100496190D01*
X138706666Y-100400952D01*
X138659047Y-100353333D01*
X138563809Y-100305714D01*
X138373333Y-100305714D01*
X138278095Y-100353333D01*
X137373333Y-100972380D02*
X137373333Y-100448571D01*
X137420952Y-100353333D01*
X137516190Y-100305714D01*
X137706666Y-100305714D01*
X137801904Y-100353333D01*
X137373333Y-100924761D02*
X137468571Y-100972380D01*
X137706666Y-100972380D01*
X137801904Y-100924761D01*
X137849523Y-100829523D01*
X137849523Y-100734285D01*
X137801904Y-100639047D01*
X137706666Y-100591428D01*
X137468571Y-100591428D01*
X137373333Y-100543809D01*
X136468571Y-100305714D02*
X136468571Y-100972380D01*
X136706666Y-99924761D02*
X136944761Y-100639047D01*
X136325714Y-100639047D01*
X135801904Y-100400952D02*
X135897142Y-100353333D01*
X135944761Y-100305714D01*
X135992380Y-100210476D01*
X135992380Y-100162857D01*
X135944761Y-100067619D01*
X135897142Y-100020000D01*
X135801904Y-99972380D01*
X135611428Y-99972380D01*
X135516190Y-100020000D01*
X135468571Y-100067619D01*
X135420952Y-100162857D01*
X135420952Y-100210476D01*
X135468571Y-100305714D01*
X135516190Y-100353333D01*
X135611428Y-100400952D01*
X135801904Y-100400952D01*
X135897142Y-100448571D01*
X135944761Y-100496190D01*
X135992380Y-100591428D01*
X135992380Y-100781904D01*
X135944761Y-100877142D01*
X135897142Y-100924761D01*
X135801904Y-100972380D01*
X135611428Y-100972380D01*
X135516190Y-100924761D01*
X135468571Y-100877142D01*
X135420952Y-100781904D01*
X135420952Y-100591428D01*
X135468571Y-100496190D01*
X135516190Y-100448571D01*
X135611428Y-100400952D01*
X134801904Y-99972380D02*
X134706666Y-99972380D01*
X134611428Y-100020000D01*
X134563809Y-100067619D01*
X134516190Y-100162857D01*
X134468571Y-100353333D01*
X134468571Y-100591428D01*
X134516190Y-100781904D01*
X134563809Y-100877142D01*
X134611428Y-100924761D01*
X134706666Y-100972380D01*
X134801904Y-100972380D01*
X134897142Y-100924761D01*
X134944761Y-100877142D01*
X134992380Y-100781904D01*
X135040000Y-100591428D01*
X135040000Y-100353333D01*
X134992380Y-100162857D01*
X134944761Y-100067619D01*
X134897142Y-100020000D01*
X134801904Y-99972380D01*
X133992380Y-100972380D02*
X133801904Y-100972380D01*
X133706666Y-100924761D01*
X133659047Y-100877142D01*
X133563809Y-100734285D01*
X133516190Y-100543809D01*
X133516190Y-100162857D01*
X133563809Y-100067619D01*
X133611428Y-100020000D01*
X133706666Y-99972380D01*
X133897142Y-99972380D01*
X133992380Y-100020000D01*
X134040000Y-100067619D01*
X134087619Y-100162857D01*
X134087619Y-100400952D01*
X134040000Y-100496190D01*
X133992380Y-100543809D01*
X133897142Y-100591428D01*
X133706666Y-100591428D01*
X133611428Y-100543809D01*
X133563809Y-100496190D01*
X133516190Y-100400952D01*
X142754285Y-102527142D02*
X142801904Y-102574761D01*
X142944761Y-102622380D01*
X143040000Y-102622380D01*
X143182857Y-102574761D01*
X143278095Y-102479523D01*
X143325714Y-102384285D01*
X143373333Y-102193809D01*
X143373333Y-102050952D01*
X143325714Y-101860476D01*
X143278095Y-101765238D01*
X143182857Y-101670000D01*
X143040000Y-101622380D01*
X142944761Y-101622380D01*
X142801904Y-101670000D01*
X142754285Y-101717619D01*
X141897142Y-101955714D02*
X141897142Y-102622380D01*
X142325714Y-101955714D02*
X142325714Y-102479523D01*
X142278095Y-102574761D01*
X142182857Y-102622380D01*
X142040000Y-102622380D01*
X141944761Y-102574761D01*
X141897142Y-102527142D01*
X141420952Y-102622380D02*
X141420952Y-101955714D01*
X141420952Y-102146190D02*
X141373333Y-102050952D01*
X141325714Y-102003333D01*
X141230476Y-101955714D01*
X141135238Y-101955714D01*
X140801904Y-102622380D02*
X140801904Y-101955714D01*
X140801904Y-101622380D02*
X140849523Y-101670000D01*
X140801904Y-101717619D01*
X140754285Y-101670000D01*
X140801904Y-101622380D01*
X140801904Y-101717619D01*
X140182857Y-102622380D02*
X140278095Y-102574761D01*
X140325714Y-102527142D01*
X140373333Y-102431904D01*
X140373333Y-102146190D01*
X140325714Y-102050952D01*
X140278095Y-102003333D01*
X140182857Y-101955714D01*
X140040000Y-101955714D01*
X139944761Y-102003333D01*
X139897142Y-102050952D01*
X139849523Y-102146190D01*
X139849523Y-102431904D01*
X139897142Y-102527142D01*
X139944761Y-102574761D01*
X140040000Y-102622380D01*
X140182857Y-102622380D01*
X139468571Y-102574761D02*
X139373333Y-102622380D01*
X139182857Y-102622380D01*
X139087619Y-102574761D01*
X139040000Y-102479523D01*
X139040000Y-102431904D01*
X139087619Y-102336666D01*
X139182857Y-102289047D01*
X139325714Y-102289047D01*
X139420952Y-102241428D01*
X139468571Y-102146190D01*
X139468571Y-102098571D01*
X139420952Y-102003333D01*
X139325714Y-101955714D01*
X139182857Y-101955714D01*
X139087619Y-102003333D01*
X138611428Y-102622380D02*
X138611428Y-101955714D01*
X138611428Y-101622380D02*
X138659047Y-101670000D01*
X138611428Y-101717619D01*
X138563809Y-101670000D01*
X138611428Y-101622380D01*
X138611428Y-101717619D01*
X138278095Y-101955714D02*
X137897142Y-101955714D01*
X138135238Y-101622380D02*
X138135238Y-102479523D01*
X138087619Y-102574761D01*
X137992380Y-102622380D01*
X137897142Y-102622380D01*
X137659047Y-101955714D02*
X137420952Y-102622380D01*
X137182857Y-101955714D02*
X137420952Y-102622380D01*
X137516190Y-102860476D01*
X137563809Y-102908095D01*
X137659047Y-102955714D01*
X136040000Y-102622380D02*
X136040000Y-101622380D01*
X135468571Y-102622380D01*
X135468571Y-101622380D01*
X134563809Y-102622380D02*
X134563809Y-102098571D01*
X134611428Y-102003333D01*
X134706666Y-101955714D01*
X134897142Y-101955714D01*
X134992380Y-102003333D01*
X134563809Y-102574761D02*
X134659047Y-102622380D01*
X134897142Y-102622380D01*
X134992380Y-102574761D01*
X135040000Y-102479523D01*
X135040000Y-102384285D01*
X134992380Y-102289047D01*
X134897142Y-102241428D01*
X134659047Y-102241428D01*
X134563809Y-102193809D01*
X134087619Y-101955714D02*
X134087619Y-102622380D01*
X134087619Y-102050952D02*
X134040000Y-102003333D01*
X133944761Y-101955714D01*
X133801904Y-101955714D01*
X133706666Y-102003333D01*
X133659047Y-102098571D01*
X133659047Y-102622380D01*
X133040000Y-102622380D02*
X133135238Y-102574761D01*
X133182857Y-102527142D01*
X133230476Y-102431904D01*
X133230476Y-102146190D01*
X133182857Y-102050952D01*
X133135238Y-102003333D01*
X133040000Y-101955714D01*
X132897142Y-101955714D01*
X132801904Y-102003333D01*
X132754285Y-102050952D01*
X132706666Y-102146190D01*
X132706666Y-102431904D01*
X132754285Y-102527142D01*
X132801904Y-102574761D01*
X132897142Y-102622380D01*
X133040000Y-102622380D01*
X144920952Y-103748571D02*
X145254285Y-103748571D01*
X145254285Y-104272380D02*
X145254285Y-103272380D01*
X144778095Y-103272380D01*
X143968571Y-103605714D02*
X143968571Y-104272380D01*
X144397142Y-103605714D02*
X144397142Y-104129523D01*
X144349523Y-104224761D01*
X144254285Y-104272380D01*
X144111428Y-104272380D01*
X144016190Y-104224761D01*
X143968571Y-104177142D01*
X143349523Y-104272380D02*
X143444761Y-104224761D01*
X143492380Y-104129523D01*
X143492380Y-103272380D01*
X142825714Y-104272380D02*
X142920952Y-104224761D01*
X142968571Y-104129523D01*
X142968571Y-103272380D01*
X142444761Y-103891428D02*
X141682857Y-103891428D01*
X141206666Y-104272380D02*
X141206666Y-103272380D01*
X141206666Y-103653333D02*
X141111428Y-103605714D01*
X140920952Y-103605714D01*
X140825714Y-103653333D01*
X140778095Y-103700952D01*
X140730476Y-103796190D01*
X140730476Y-104081904D01*
X140778095Y-104177142D01*
X140825714Y-104224761D01*
X140920952Y-104272380D01*
X141111428Y-104272380D01*
X141206666Y-104224761D01*
X140301904Y-104272380D02*
X140301904Y-103605714D01*
X140301904Y-103796190D02*
X140254285Y-103700952D01*
X140206666Y-103653333D01*
X140111428Y-103605714D01*
X140016190Y-103605714D01*
X139682857Y-104272380D02*
X139682857Y-103605714D01*
X139682857Y-103272380D02*
X139730476Y-103320000D01*
X139682857Y-103367619D01*
X139635238Y-103320000D01*
X139682857Y-103272380D01*
X139682857Y-103367619D01*
X138778095Y-104272380D02*
X138778095Y-103272380D01*
X138778095Y-104224761D02*
X138873333Y-104272380D01*
X139063809Y-104272380D01*
X139159047Y-104224761D01*
X139206666Y-104177142D01*
X139254285Y-104081904D01*
X139254285Y-103796190D01*
X139206666Y-103700952D01*
X139159047Y-103653333D01*
X139063809Y-103605714D01*
X138873333Y-103605714D01*
X138778095Y-103653333D01*
X137873333Y-103605714D02*
X137873333Y-104415238D01*
X137920952Y-104510476D01*
X137968571Y-104558095D01*
X138063809Y-104605714D01*
X138206666Y-104605714D01*
X138301904Y-104558095D01*
X137873333Y-104224761D02*
X137968571Y-104272380D01*
X138159047Y-104272380D01*
X138254285Y-104224761D01*
X138301904Y-104177142D01*
X138349523Y-104081904D01*
X138349523Y-103796190D01*
X138301904Y-103700952D01*
X138254285Y-103653333D01*
X138159047Y-103605714D01*
X137968571Y-103605714D01*
X137873333Y-103653333D01*
X137016190Y-104224761D02*
X137111428Y-104272380D01*
X137301904Y-104272380D01*
X137397142Y-104224761D01*
X137444761Y-104129523D01*
X137444761Y-103748571D01*
X137397142Y-103653333D01*
X137301904Y-103605714D01*
X137111428Y-103605714D01*
X137016190Y-103653333D01*
X136968571Y-103748571D01*
X136968571Y-103843809D01*
X137444761Y-103939047D01*
X135778095Y-104272380D02*
X135778095Y-103605714D01*
X135778095Y-103700952D02*
X135730476Y-103653333D01*
X135635238Y-103605714D01*
X135492380Y-103605714D01*
X135397142Y-103653333D01*
X135349523Y-103748571D01*
X135349523Y-104272380D01*
X135349523Y-103748571D02*
X135301904Y-103653333D01*
X135206666Y-103605714D01*
X135063809Y-103605714D01*
X134968571Y-103653333D01*
X134920952Y-103748571D01*
X134920952Y-104272380D01*
X134301904Y-104272380D02*
X134397142Y-104224761D01*
X134444761Y-104177142D01*
X134492380Y-104081904D01*
X134492380Y-103796190D01*
X134444761Y-103700952D01*
X134397142Y-103653333D01*
X134301904Y-103605714D01*
X134159047Y-103605714D01*
X134063809Y-103653333D01*
X134016190Y-103700952D01*
X133968571Y-103796190D01*
X133968571Y-104081904D01*
X134016190Y-104177142D01*
X134063809Y-104224761D01*
X134159047Y-104272380D01*
X134301904Y-104272380D01*
X133111428Y-104272380D02*
X133111428Y-103272380D01*
X133111428Y-104224761D02*
X133206666Y-104272380D01*
X133397142Y-104272380D01*
X133492380Y-104224761D01*
X133540000Y-104177142D01*
X133587619Y-104081904D01*
X133587619Y-103796190D01*
X133540000Y-103700952D01*
X133492380Y-103653333D01*
X133397142Y-103605714D01*
X133206666Y-103605714D01*
X133111428Y-103653333D01*
X132206666Y-103605714D02*
X132206666Y-104272380D01*
X132635238Y-103605714D02*
X132635238Y-104129523D01*
X132587619Y-104224761D01*
X132492380Y-104272380D01*
X132349523Y-104272380D01*
X132254285Y-104224761D01*
X132206666Y-104177142D01*
X131587619Y-104272380D02*
X131682857Y-104224761D01*
X131730476Y-104129523D01*
X131730476Y-103272380D01*
X130825714Y-104224761D02*
X130920952Y-104272380D01*
X131111428Y-104272380D01*
X131206666Y-104224761D01*
X131254285Y-104129523D01*
X131254285Y-103748571D01*
X131206666Y-103653333D01*
X131111428Y-103605714D01*
X130920952Y-103605714D01*
X130825714Y-103653333D01*
X130778095Y-103748571D01*
X130778095Y-103843809D01*
X131254285Y-103939047D01*
X139635238Y-105922380D02*
X139635238Y-105255714D01*
X139635238Y-105446190D02*
X139587619Y-105350952D01*
X139540000Y-105303333D01*
X139444761Y-105255714D01*
X139349523Y-105255714D01*
X138635238Y-105874761D02*
X138730476Y-105922380D01*
X138920952Y-105922380D01*
X139016190Y-105874761D01*
X139063809Y-105779523D01*
X139063809Y-105398571D01*
X139016190Y-105303333D01*
X138920952Y-105255714D01*
X138730476Y-105255714D01*
X138635238Y-105303333D01*
X138587619Y-105398571D01*
X138587619Y-105493809D01*
X139063809Y-105589047D01*
X138254285Y-105255714D02*
X138016190Y-105922380D01*
X137778095Y-105255714D01*
X137397142Y-105827142D02*
X137349523Y-105874761D01*
X137397142Y-105922380D01*
X137444761Y-105874761D01*
X137397142Y-105827142D01*
X137397142Y-105922380D01*
X136397142Y-105922380D02*
X136968571Y-105922380D01*
X136682857Y-105922380D02*
X136682857Y-104922380D01*
X136778095Y-105065238D01*
X136873333Y-105160476D01*
X136968571Y-105208095D01*
X141825714Y-107286666D02*
X141349523Y-107286666D01*
X141920952Y-107572380D02*
X141587619Y-106572380D01*
X141254285Y-107572380D01*
X140920952Y-106905714D02*
X140920952Y-107905714D01*
X140920952Y-106953333D02*
X140825714Y-106905714D01*
X140635238Y-106905714D01*
X140540000Y-106953333D01*
X140492380Y-107000952D01*
X140444761Y-107096190D01*
X140444761Y-107381904D01*
X140492380Y-107477142D01*
X140540000Y-107524761D01*
X140635238Y-107572380D01*
X140825714Y-107572380D01*
X140920952Y-107524761D01*
X140016190Y-107572380D02*
X140016190Y-106905714D01*
X140016190Y-107096190D02*
X139968571Y-107000952D01*
X139920952Y-106953333D01*
X139825714Y-106905714D01*
X139730476Y-106905714D01*
X139397142Y-107572380D02*
X139397142Y-106905714D01*
X139397142Y-106572380D02*
X139444761Y-106620000D01*
X139397142Y-106667619D01*
X139349523Y-106620000D01*
X139397142Y-106572380D01*
X139397142Y-106667619D01*
X138778095Y-107572380D02*
X138873333Y-107524761D01*
X138920952Y-107429523D01*
X138920952Y-106572380D01*
X137682857Y-106667619D02*
X137635238Y-106620000D01*
X137540000Y-106572380D01*
X137301904Y-106572380D01*
X137206666Y-106620000D01*
X137159047Y-106667619D01*
X137111428Y-106762857D01*
X137111428Y-106858095D01*
X137159047Y-107000952D01*
X137730476Y-107572380D01*
X137111428Y-107572380D01*
X136492380Y-106572380D02*
X136397142Y-106572380D01*
X136301904Y-106620000D01*
X136254285Y-106667619D01*
X136206666Y-106762857D01*
X136159047Y-106953333D01*
X136159047Y-107191428D01*
X136206666Y-107381904D01*
X136254285Y-107477142D01*
X136301904Y-107524761D01*
X136397142Y-107572380D01*
X136492380Y-107572380D01*
X136587619Y-107524761D01*
X136635238Y-107477142D01*
X136682857Y-107381904D01*
X136730476Y-107191428D01*
X136730476Y-106953333D01*
X136682857Y-106762857D01*
X136635238Y-106667619D01*
X136587619Y-106620000D01*
X136492380Y-106572380D01*
X135778095Y-106667619D02*
X135730476Y-106620000D01*
X135635238Y-106572380D01*
X135397142Y-106572380D01*
X135301904Y-106620000D01*
X135254285Y-106667619D01*
X135206666Y-106762857D01*
X135206666Y-106858095D01*
X135254285Y-107000952D01*
X135825714Y-107572380D01*
X135206666Y-107572380D01*
X134587619Y-106572380D02*
X134492380Y-106572380D01*
X134397142Y-106620000D01*
X134349523Y-106667619D01*
X134301904Y-106762857D01*
X134254285Y-106953333D01*
X134254285Y-107191428D01*
X134301904Y-107381904D01*
X134349523Y-107477142D01*
X134397142Y-107524761D01*
X134492380Y-107572380D01*
X134587619Y-107572380D01*
X134682857Y-107524761D01*
X134730476Y-107477142D01*
X134778095Y-107381904D01*
X134825714Y-107191428D01*
X134825714Y-106953333D01*
X134778095Y-106762857D01*
X134730476Y-106667619D01*
X134682857Y-106620000D01*
X134587619Y-106572380D01*
X76786666Y-100810000D02*
X76881904Y-100762380D01*
X77024762Y-100762380D01*
X77167619Y-100810000D01*
X77262857Y-100905238D01*
X77310476Y-101000476D01*
X77358095Y-101190952D01*
X77358095Y-101333809D01*
X77310476Y-101524285D01*
X77262857Y-101619523D01*
X77167619Y-101714761D01*
X77024762Y-101762380D01*
X76929523Y-101762380D01*
X76786666Y-101714761D01*
X76739047Y-101667142D01*
X76739047Y-101333809D01*
X76929523Y-101333809D01*
X76310476Y-101762380D02*
X76310476Y-100762380D01*
X75739047Y-101762380D01*
X75739047Y-100762380D01*
X75262857Y-101762380D02*
X75262857Y-100762380D01*
X75024762Y-100762380D01*
X74881904Y-100810000D01*
X74786666Y-100905238D01*
X74739047Y-101000476D01*
X74691428Y-101190952D01*
X74691428Y-101333809D01*
X74739047Y-101524285D01*
X74786666Y-101619523D01*
X74881904Y-101714761D01*
X75024762Y-101762380D01*
X75262857Y-101762380D01*
X77215238Y-98142380D02*
X76643810Y-98142380D01*
X76929524Y-99142380D02*
X76929524Y-98142380D01*
X75596191Y-98094761D02*
X76453334Y-99380476D01*
X74691429Y-99142380D02*
X75024762Y-98666190D01*
X75262857Y-99142380D02*
X75262857Y-98142380D01*
X74881905Y-98142380D01*
X74786667Y-98190000D01*
X74739048Y-98237619D01*
X74691429Y-98332857D01*
X74691429Y-98475714D01*
X74739048Y-98570952D01*
X74786667Y-98618571D01*
X74881905Y-98666190D01*
X75262857Y-98666190D01*
X141680000Y-67591904D02*
X141727619Y-67687142D01*
X141727619Y-67830000D01*
X141680000Y-67972857D01*
X141584761Y-68068095D01*
X141489523Y-68115714D01*
X141299047Y-68163333D01*
X141156190Y-68163333D01*
X140965714Y-68115714D01*
X140870476Y-68068095D01*
X140775238Y-67972857D01*
X140727619Y-67830000D01*
X140727619Y-67734761D01*
X140775238Y-67591904D01*
X140822857Y-67544285D01*
X141156190Y-67544285D01*
X141156190Y-67734761D01*
X140727619Y-67115714D02*
X141727619Y-67115714D01*
X140727619Y-66544285D01*
X141727619Y-66544285D01*
X140727619Y-66068095D02*
X141727619Y-66068095D01*
X141727619Y-65830000D01*
X141680000Y-65687142D01*
X141584761Y-65591904D01*
X141489523Y-65544285D01*
X141299047Y-65496666D01*
X141156190Y-65496666D01*
X140965714Y-65544285D01*
X140870476Y-65591904D01*
X140775238Y-65687142D01*
X140727619Y-65830000D01*
X140727619Y-66068095D01*
X141680000Y-82971904D02*
X141727619Y-83067142D01*
X141727619Y-83210000D01*
X141680000Y-83352857D01*
X141584761Y-83448095D01*
X141489523Y-83495714D01*
X141299047Y-83543333D01*
X141156190Y-83543333D01*
X140965714Y-83495714D01*
X140870476Y-83448095D01*
X140775238Y-83352857D01*
X140727619Y-83210000D01*
X140727619Y-83114761D01*
X140775238Y-82971904D01*
X140822857Y-82924285D01*
X141156190Y-82924285D01*
X141156190Y-83114761D01*
X140727619Y-82495714D02*
X141727619Y-82495714D01*
X140727619Y-81924285D01*
X141727619Y-81924285D01*
X140727619Y-81448095D02*
X141727619Y-81448095D01*
X141727619Y-81210000D01*
X141680000Y-81067142D01*
X141584761Y-80971904D01*
X141489523Y-80924285D01*
X141299047Y-80876666D01*
X141156190Y-80876666D01*
X140965714Y-80924285D01*
X140870476Y-80971904D01*
X140775238Y-81067142D01*
X140727619Y-81210000D01*
X140727619Y-81448095D01*
X92310000Y-73940000D02*
X92310000Y-74960000D01*
X115670000Y-73950000D02*
X115670000Y-74980000D01*
X92990000Y-73260000D02*
X115010000Y-73260000D01*
X92310000Y-73930000D02*
G75*
G02X92980000Y-73260000I670000J0D01*
G01*
X115000000Y-73260000D02*
G75*
G02X115670000Y-73930000I0J-670000D01*
G01*
X115670000Y-74950000D02*
G75*
G02X115000000Y-75620000I-670000J0D01*
G01*
X92980000Y-75620000D02*
G75*
G02X92310000Y-74950000I0J670000D01*
G01*
X92990000Y-75620000D02*
X115010000Y-75620000D01*
X114388571Y-74586666D02*
X113912380Y-74586666D01*
X114483809Y-74872380D02*
X114150476Y-73872380D01*
X113817142Y-74872380D01*
X113626666Y-73872380D02*
X113055238Y-73872380D01*
X113340952Y-74872380D02*
X113340952Y-73872380D01*
X112721904Y-74872380D02*
X112721904Y-74205714D01*
X112721904Y-74300952D02*
X112674285Y-74253333D01*
X112579047Y-74205714D01*
X112436190Y-74205714D01*
X112340952Y-74253333D01*
X112293333Y-74348571D01*
X112293333Y-74872380D01*
X112293333Y-74348571D02*
X112245714Y-74253333D01*
X112150476Y-74205714D01*
X112007619Y-74205714D01*
X111912380Y-74253333D01*
X111864761Y-74348571D01*
X111864761Y-74872380D01*
X111007619Y-74824761D02*
X111102857Y-74872380D01*
X111293333Y-74872380D01*
X111388571Y-74824761D01*
X111436190Y-74729523D01*
X111436190Y-74348571D01*
X111388571Y-74253333D01*
X111293333Y-74205714D01*
X111102857Y-74205714D01*
X111007619Y-74253333D01*
X110960000Y-74348571D01*
X110960000Y-74443809D01*
X111436190Y-74539047D01*
X110102857Y-74205714D02*
X110102857Y-75015238D01*
X110150476Y-75110476D01*
X110198095Y-75158095D01*
X110293333Y-75205714D01*
X110436190Y-75205714D01*
X110531428Y-75158095D01*
X110102857Y-74824761D02*
X110198095Y-74872380D01*
X110388571Y-74872380D01*
X110483809Y-74824761D01*
X110531428Y-74777142D01*
X110579047Y-74681904D01*
X110579047Y-74396190D01*
X110531428Y-74300952D01*
X110483809Y-74253333D01*
X110388571Y-74205714D01*
X110198095Y-74205714D01*
X110102857Y-74253333D01*
X109198095Y-74872380D02*
X109198095Y-74348571D01*
X109245714Y-74253333D01*
X109340952Y-74205714D01*
X109531428Y-74205714D01*
X109626666Y-74253333D01*
X109198095Y-74824761D02*
X109293333Y-74872380D01*
X109531428Y-74872380D01*
X109626666Y-74824761D01*
X109674285Y-74729523D01*
X109674285Y-74634285D01*
X109626666Y-74539047D01*
X109531428Y-74491428D01*
X109293333Y-74491428D01*
X109198095Y-74443809D01*
X108293333Y-74205714D02*
X108293333Y-74872380D01*
X108531428Y-73824761D02*
X108769523Y-74539047D01*
X108150476Y-74539047D01*
X107626666Y-74300952D02*
X107721904Y-74253333D01*
X107769523Y-74205714D01*
X107817142Y-74110476D01*
X107817142Y-74062857D01*
X107769523Y-73967619D01*
X107721904Y-73920000D01*
X107626666Y-73872380D01*
X107436190Y-73872380D01*
X107340952Y-73920000D01*
X107293333Y-73967619D01*
X107245714Y-74062857D01*
X107245714Y-74110476D01*
X107293333Y-74205714D01*
X107340952Y-74253333D01*
X107436190Y-74300952D01*
X107626666Y-74300952D01*
X107721904Y-74348571D01*
X107769523Y-74396190D01*
X107817142Y-74491428D01*
X107817142Y-74681904D01*
X107769523Y-74777142D01*
X107721904Y-74824761D01*
X107626666Y-74872380D01*
X107436190Y-74872380D01*
X107340952Y-74824761D01*
X107293333Y-74777142D01*
X107245714Y-74681904D01*
X107245714Y-74491428D01*
X107293333Y-74396190D01*
X107340952Y-74348571D01*
X107436190Y-74300952D01*
X106626666Y-73872380D02*
X106531428Y-73872380D01*
X106436190Y-73920000D01*
X106388571Y-73967619D01*
X106340952Y-74062857D01*
X106293333Y-74253333D01*
X106293333Y-74491428D01*
X106340952Y-74681904D01*
X106388571Y-74777142D01*
X106436190Y-74824761D01*
X106531428Y-74872380D01*
X106626666Y-74872380D01*
X106721904Y-74824761D01*
X106769523Y-74777142D01*
X106817142Y-74681904D01*
X106864761Y-74491428D01*
X106864761Y-74253333D01*
X106817142Y-74062857D01*
X106769523Y-73967619D01*
X106721904Y-73920000D01*
X106626666Y-73872380D01*
X105817142Y-74872380D02*
X105626666Y-74872380D01*
X105531428Y-74824761D01*
X105483809Y-74777142D01*
X105388571Y-74634285D01*
X105340952Y-74443809D01*
X105340952Y-74062857D01*
X105388571Y-73967619D01*
X105436190Y-73920000D01*
X105531428Y-73872380D01*
X105721904Y-73872380D01*
X105817142Y-73920000D01*
X105864761Y-73967619D01*
X105912380Y-74062857D01*
X105912380Y-74300952D01*
X105864761Y-74396190D01*
X105817142Y-74443809D01*
X105721904Y-74491428D01*
X105531428Y-74491428D01*
X105436190Y-74443809D01*
X105388571Y-74396190D01*
X105340952Y-74300952D01*
X103579047Y-74777142D02*
X103626666Y-74824761D01*
X103769523Y-74872380D01*
X103864761Y-74872380D01*
X104007619Y-74824761D01*
X104102857Y-74729523D01*
X104150476Y-74634285D01*
X104198095Y-74443809D01*
X104198095Y-74300952D01*
X104150476Y-74110476D01*
X104102857Y-74015238D01*
X104007619Y-73920000D01*
X103864761Y-73872380D01*
X103769523Y-73872380D01*
X103626666Y-73920000D01*
X103579047Y-73967619D01*
X102721904Y-74205714D02*
X102721904Y-74872380D01*
X103150476Y-74205714D02*
X103150476Y-74729523D01*
X103102857Y-74824761D01*
X103007619Y-74872380D01*
X102864761Y-74872380D01*
X102769523Y-74824761D01*
X102721904Y-74777142D01*
X102245714Y-74872380D02*
X102245714Y-74205714D01*
X102245714Y-74396190D02*
X102198095Y-74300952D01*
X102150476Y-74253333D01*
X102055238Y-74205714D01*
X101960000Y-74205714D01*
X101626666Y-74872380D02*
X101626666Y-74205714D01*
X101626666Y-73872380D02*
X101674285Y-73920000D01*
X101626666Y-73967619D01*
X101579047Y-73920000D01*
X101626666Y-73872380D01*
X101626666Y-73967619D01*
X101007619Y-74872380D02*
X101102857Y-74824761D01*
X101150476Y-74777142D01*
X101198095Y-74681904D01*
X101198095Y-74396190D01*
X101150476Y-74300952D01*
X101102857Y-74253333D01*
X101007619Y-74205714D01*
X100864761Y-74205714D01*
X100769523Y-74253333D01*
X100721904Y-74300952D01*
X100674285Y-74396190D01*
X100674285Y-74681904D01*
X100721904Y-74777142D01*
X100769523Y-74824761D01*
X100864761Y-74872380D01*
X101007619Y-74872380D01*
X100293333Y-74824761D02*
X100198095Y-74872380D01*
X100007619Y-74872380D01*
X99912380Y-74824761D01*
X99864761Y-74729523D01*
X99864761Y-74681904D01*
X99912380Y-74586666D01*
X100007619Y-74539047D01*
X100150476Y-74539047D01*
X100245714Y-74491428D01*
X100293333Y-74396190D01*
X100293333Y-74348571D01*
X100245714Y-74253333D01*
X100150476Y-74205714D01*
X100007619Y-74205714D01*
X99912380Y-74253333D01*
X99436190Y-74872380D02*
X99436190Y-74205714D01*
X99436190Y-73872380D02*
X99483809Y-73920000D01*
X99436190Y-73967619D01*
X99388571Y-73920000D01*
X99436190Y-73872380D01*
X99436190Y-73967619D01*
X99102857Y-74205714D02*
X98721904Y-74205714D01*
X98960000Y-73872380D02*
X98960000Y-74729523D01*
X98912380Y-74824761D01*
X98817142Y-74872380D01*
X98721904Y-74872380D01*
X98483809Y-74205714D02*
X98245714Y-74872380D01*
X98007619Y-74205714D02*
X98245714Y-74872380D01*
X98340952Y-75110476D01*
X98388571Y-75158095D01*
X98483809Y-75205714D01*
X96864761Y-74872380D02*
X96864761Y-73872380D01*
X96293333Y-74872380D01*
X96293333Y-73872380D01*
X95388571Y-74872380D02*
X95388571Y-74348571D01*
X95436190Y-74253333D01*
X95531428Y-74205714D01*
X95721904Y-74205714D01*
X95817142Y-74253333D01*
X95388571Y-74824761D02*
X95483809Y-74872380D01*
X95721904Y-74872380D01*
X95817142Y-74824761D01*
X95864761Y-74729523D01*
X95864761Y-74634285D01*
X95817142Y-74539047D01*
X95721904Y-74491428D01*
X95483809Y-74491428D01*
X95388571Y-74443809D01*
X94912380Y-74205714D02*
X94912380Y-74872380D01*
X94912380Y-74300952D02*
X94864761Y-74253333D01*
X94769523Y-74205714D01*
X94626666Y-74205714D01*
X94531428Y-74253333D01*
X94483809Y-74348571D01*
X94483809Y-74872380D01*
X93864761Y-74872380D02*
X93960000Y-74824761D01*
X94007619Y-74777142D01*
X94055238Y-74681904D01*
X94055238Y-74396190D01*
X94007619Y-74300952D01*
X93960000Y-74253333D01*
X93864761Y-74205714D01*
X93721904Y-74205714D01*
X93626666Y-74253333D01*
X93579047Y-74300952D01*
X93531428Y-74396190D01*
X93531428Y-74681904D01*
X93579047Y-74777142D01*
X93626666Y-74824761D01*
X93721904Y-74872380D01*
X93864761Y-74872380D01*
X78500952Y-96712380D02*
X78500952Y-95712380D01*
X78120000Y-95712380D01*
X78024761Y-95760000D01*
X77977142Y-95807619D01*
X77929523Y-95902857D01*
X77929523Y-96045714D01*
X77977142Y-96140952D01*
X78024761Y-96188571D01*
X78120000Y-96236190D01*
X78500952Y-96236190D01*
X77596190Y-95712380D02*
X77358095Y-96712380D01*
X77167619Y-95998095D01*
X76977142Y-96712380D01*
X76739047Y-95712380D01*
X76358095Y-96712380D02*
X76358095Y-95712380D01*
X76024761Y-96426666D01*
X75691428Y-95712380D01*
X75691428Y-96712380D01*
X75262857Y-95807619D02*
X75215238Y-95760000D01*
X75120000Y-95712380D01*
X74881904Y-95712380D01*
X74786666Y-95760000D01*
X74739047Y-95807619D01*
X74691428Y-95902857D01*
X74691428Y-95998095D01*
X74739047Y-96140952D01*
X75310476Y-96712380D01*
X74691428Y-96712380D01*
X78500952Y-94052380D02*
X78500952Y-93052380D01*
X78120000Y-93052380D01*
X78024761Y-93100000D01*
X77977142Y-93147619D01*
X77929523Y-93242857D01*
X77929523Y-93385714D01*
X77977142Y-93480952D01*
X78024761Y-93528571D01*
X78120000Y-93576190D01*
X78500952Y-93576190D01*
X77596190Y-93052380D02*
X77358095Y-94052380D01*
X77167619Y-93338095D01*
X76977142Y-94052380D01*
X76739047Y-93052380D01*
X76358095Y-94052380D02*
X76358095Y-93052380D01*
X76024761Y-93766666D01*
X75691428Y-93052380D01*
X75691428Y-94052380D01*
X74691428Y-94052380D02*
X75262857Y-94052380D01*
X74977142Y-94052380D02*
X74977142Y-93052380D01*
X75072380Y-93195238D01*
X75167619Y-93290476D01*
X75262857Y-93338095D01*
X114827619Y-104398095D02*
X115827619Y-104398095D01*
X115827619Y-104017142D01*
X115780000Y-103921904D01*
X115732380Y-103874285D01*
X115637142Y-103826666D01*
X115494285Y-103826666D01*
X115399047Y-103874285D01*
X115351428Y-103921904D01*
X115303809Y-104017142D01*
X115303809Y-104398095D01*
X114827619Y-103398095D02*
X115827619Y-103398095D01*
X115827619Y-103160000D01*
X115780000Y-103017142D01*
X115684761Y-102921904D01*
X115589523Y-102874285D01*
X115399047Y-102826666D01*
X115256190Y-102826666D01*
X115065714Y-102874285D01*
X114970476Y-102921904D01*
X114875238Y-103017142D01*
X114827619Y-103160000D01*
X114827619Y-103398095D01*
X115827619Y-101921904D02*
X115827619Y-102398095D01*
X115351428Y-102445714D01*
X115399047Y-102398095D01*
X115446666Y-102302857D01*
X115446666Y-102064761D01*
X115399047Y-101969523D01*
X115351428Y-101921904D01*
X115256190Y-101874285D01*
X115018095Y-101874285D01*
X114922857Y-101921904D01*
X114875238Y-101969523D01*
X114827619Y-102064761D01*
X114827619Y-102302857D01*
X114875238Y-102398095D01*
X114922857Y-102445714D01*
X112257619Y-104398095D02*
X113257619Y-104398095D01*
X113257619Y-104017142D01*
X113210000Y-103921904D01*
X113162380Y-103874285D01*
X113067142Y-103826666D01*
X112924285Y-103826666D01*
X112829047Y-103874285D01*
X112781428Y-103921904D01*
X112733809Y-104017142D01*
X112733809Y-104398095D01*
X112257619Y-103398095D02*
X113257619Y-103398095D01*
X113257619Y-103160000D01*
X113210000Y-103017142D01*
X113114761Y-102921904D01*
X113019523Y-102874285D01*
X112829047Y-102826666D01*
X112686190Y-102826666D01*
X112495714Y-102874285D01*
X112400476Y-102921904D01*
X112305238Y-103017142D01*
X112257619Y-103160000D01*
X112257619Y-103398095D01*
X112924285Y-101969523D02*
X112257619Y-101969523D01*
X113305238Y-102207619D02*
X112590952Y-102445714D01*
X112590952Y-101826666D01*
X109727619Y-104398095D02*
X110727619Y-104398095D01*
X110727619Y-104017142D01*
X110680000Y-103921904D01*
X110632380Y-103874285D01*
X110537142Y-103826666D01*
X110394285Y-103826666D01*
X110299047Y-103874285D01*
X110251428Y-103921904D01*
X110203809Y-104017142D01*
X110203809Y-104398095D01*
X109727619Y-103398095D02*
X110727619Y-103398095D01*
X110727619Y-103160000D01*
X110680000Y-103017142D01*
X110584761Y-102921904D01*
X110489523Y-102874285D01*
X110299047Y-102826666D01*
X110156190Y-102826666D01*
X109965714Y-102874285D01*
X109870476Y-102921904D01*
X109775238Y-103017142D01*
X109727619Y-103160000D01*
X109727619Y-103398095D01*
X110727619Y-102493333D02*
X110727619Y-101874285D01*
X110346666Y-102207619D01*
X110346666Y-102064761D01*
X110299047Y-101969523D01*
X110251428Y-101921904D01*
X110156190Y-101874285D01*
X109918095Y-101874285D01*
X109822857Y-101921904D01*
X109775238Y-101969523D01*
X109727619Y-102064761D01*
X109727619Y-102350476D01*
X109775238Y-102445714D01*
X109822857Y-102493333D01*
X107277619Y-104398095D02*
X108277619Y-104398095D01*
X108277619Y-104017142D01*
X108230000Y-103921904D01*
X108182380Y-103874285D01*
X108087142Y-103826666D01*
X107944285Y-103826666D01*
X107849047Y-103874285D01*
X107801428Y-103921904D01*
X107753809Y-104017142D01*
X107753809Y-104398095D01*
X107277619Y-103398095D02*
X108277619Y-103398095D01*
X108277619Y-103160000D01*
X108230000Y-103017142D01*
X108134761Y-102921904D01*
X108039523Y-102874285D01*
X107849047Y-102826666D01*
X107706190Y-102826666D01*
X107515714Y-102874285D01*
X107420476Y-102921904D01*
X107325238Y-103017142D01*
X107277619Y-103160000D01*
X107277619Y-103398095D01*
X108182380Y-102445714D02*
X108230000Y-102398095D01*
X108277619Y-102302857D01*
X108277619Y-102064761D01*
X108230000Y-101969523D01*
X108182380Y-101921904D01*
X108087142Y-101874285D01*
X107991904Y-101874285D01*
X107849047Y-101921904D01*
X107277619Y-102493333D01*
X107277619Y-101874285D01*
X97797619Y-80435714D02*
X98797619Y-80435714D01*
X97797619Y-79864285D01*
X98797619Y-79864285D01*
X97892857Y-78816666D02*
X97845238Y-78864285D01*
X97797619Y-79007142D01*
X97797619Y-79102380D01*
X97845238Y-79245238D01*
X97940476Y-79340476D01*
X98035714Y-79388095D01*
X98226190Y-79435714D01*
X98369047Y-79435714D01*
X98559523Y-79388095D01*
X98654761Y-79340476D01*
X98750000Y-79245238D01*
X98797619Y-79102380D01*
X98797619Y-79007142D01*
X98750000Y-78864285D01*
X98702380Y-78816666D01*
X85107619Y-80445714D02*
X86107619Y-80445714D01*
X85107619Y-79874285D01*
X86107619Y-79874285D01*
X85202857Y-78826666D02*
X85155238Y-78874285D01*
X85107619Y-79017142D01*
X85107619Y-79112380D01*
X85155238Y-79255238D01*
X85250476Y-79350476D01*
X85345714Y-79398095D01*
X85536190Y-79445714D01*
X85679047Y-79445714D01*
X85869523Y-79398095D01*
X85964761Y-79350476D01*
X86060000Y-79255238D01*
X86107619Y-79112380D01*
X86107619Y-79017142D01*
X86060000Y-78874285D01*
X86012380Y-78826666D01*
X81000000Y-79911904D02*
X81047619Y-80007142D01*
X81047619Y-80150000D01*
X81000000Y-80292857D01*
X80904761Y-80388095D01*
X80809523Y-80435714D01*
X80619047Y-80483333D01*
X80476190Y-80483333D01*
X80285714Y-80435714D01*
X80190476Y-80388095D01*
X80095238Y-80292857D01*
X80047619Y-80150000D01*
X80047619Y-80054761D01*
X80095238Y-79911904D01*
X80142857Y-79864285D01*
X80476190Y-79864285D01*
X80476190Y-80054761D01*
X80047619Y-79435714D02*
X81047619Y-79435714D01*
X80047619Y-78864285D01*
X81047619Y-78864285D01*
X80047619Y-78388095D02*
X81047619Y-78388095D01*
X81047619Y-78150000D01*
X81000000Y-78007142D01*
X80904761Y-77911904D01*
X80809523Y-77864285D01*
X80619047Y-77816666D01*
X80476190Y-77816666D01*
X80285714Y-77864285D01*
X80190476Y-77911904D01*
X80095238Y-78007142D01*
X80047619Y-78150000D01*
X80047619Y-78388095D01*
X82557619Y-80445714D02*
X83557619Y-80445714D01*
X82557619Y-79874285D01*
X83557619Y-79874285D01*
X82652857Y-78826666D02*
X82605238Y-78874285D01*
X82557619Y-79017142D01*
X82557619Y-79112380D01*
X82605238Y-79255238D01*
X82700476Y-79350476D01*
X82795714Y-79398095D01*
X82986190Y-79445714D01*
X83129047Y-79445714D01*
X83319523Y-79398095D01*
X83414761Y-79350476D01*
X83510000Y-79255238D01*
X83557619Y-79112380D01*
X83557619Y-79017142D01*
X83510000Y-78874285D01*
X83462380Y-78826666D01*
X87697619Y-80435714D02*
X88697619Y-80435714D01*
X87697619Y-79864285D01*
X88697619Y-79864285D01*
X87792857Y-78816666D02*
X87745238Y-78864285D01*
X87697619Y-79007142D01*
X87697619Y-79102380D01*
X87745238Y-79245238D01*
X87840476Y-79340476D01*
X87935714Y-79388095D01*
X88126190Y-79435714D01*
X88269047Y-79435714D01*
X88459523Y-79388095D01*
X88554761Y-79340476D01*
X88650000Y-79245238D01*
X88697619Y-79102380D01*
X88697619Y-79007142D01*
X88650000Y-78864285D01*
X88602380Y-78816666D01*
X92747619Y-80435714D02*
X93747619Y-80435714D01*
X92747619Y-79864285D01*
X93747619Y-79864285D01*
X92842857Y-78816666D02*
X92795238Y-78864285D01*
X92747619Y-79007142D01*
X92747619Y-79102380D01*
X92795238Y-79245238D01*
X92890476Y-79340476D01*
X92985714Y-79388095D01*
X93176190Y-79435714D01*
X93319047Y-79435714D01*
X93509523Y-79388095D01*
X93604761Y-79340476D01*
X93700000Y-79245238D01*
X93747619Y-79102380D01*
X93747619Y-79007142D01*
X93700000Y-78864285D01*
X93652380Y-78816666D01*
X95297619Y-80435714D02*
X96297619Y-80435714D01*
X95297619Y-79864285D01*
X96297619Y-79864285D01*
X95392857Y-78816666D02*
X95345238Y-78864285D01*
X95297619Y-79007142D01*
X95297619Y-79102380D01*
X95345238Y-79245238D01*
X95440476Y-79340476D01*
X95535714Y-79388095D01*
X95726190Y-79435714D01*
X95869047Y-79435714D01*
X96059523Y-79388095D01*
X96154761Y-79340476D01*
X96250000Y-79245238D01*
X96297619Y-79102380D01*
X96297619Y-79007142D01*
X96250000Y-78864285D01*
X96202380Y-78816666D01*
X90247619Y-80435714D02*
X91247619Y-80435714D01*
X90247619Y-79864285D01*
X91247619Y-79864285D01*
X90342857Y-78816666D02*
X90295238Y-78864285D01*
X90247619Y-79007142D01*
X90247619Y-79102380D01*
X90295238Y-79245238D01*
X90390476Y-79340476D01*
X90485714Y-79388095D01*
X90676190Y-79435714D01*
X90819047Y-79435714D01*
X91009523Y-79388095D01*
X91104761Y-79340476D01*
X91200000Y-79245238D01*
X91247619Y-79102380D01*
X91247619Y-79007142D01*
X91200000Y-78864285D01*
X91152380Y-78816666D01*
X133347619Y-80385714D02*
X134347619Y-80385714D01*
X133347619Y-79814285D01*
X134347619Y-79814285D01*
X133442857Y-78766666D02*
X133395238Y-78814285D01*
X133347619Y-78957142D01*
X133347619Y-79052380D01*
X133395238Y-79195238D01*
X133490476Y-79290476D01*
X133585714Y-79338095D01*
X133776190Y-79385714D01*
X133919047Y-79385714D01*
X134109523Y-79338095D01*
X134204761Y-79290476D01*
X134300000Y-79195238D01*
X134347619Y-79052380D01*
X134347619Y-78957142D01*
X134300000Y-78814285D01*
X134252380Y-78766666D01*
X135897619Y-80385714D02*
X136897619Y-80385714D01*
X135897619Y-79814285D01*
X136897619Y-79814285D01*
X135992857Y-78766666D02*
X135945238Y-78814285D01*
X135897619Y-78957142D01*
X135897619Y-79052380D01*
X135945238Y-79195238D01*
X136040476Y-79290476D01*
X136135714Y-79338095D01*
X136326190Y-79385714D01*
X136469047Y-79385714D01*
X136659523Y-79338095D01*
X136754761Y-79290476D01*
X136850000Y-79195238D01*
X136897619Y-79052380D01*
X136897619Y-78957142D01*
X136850000Y-78814285D01*
X136802380Y-78766666D01*
X130847619Y-80385714D02*
X131847619Y-80385714D01*
X130847619Y-79814285D01*
X131847619Y-79814285D01*
X130942857Y-78766666D02*
X130895238Y-78814285D01*
X130847619Y-78957142D01*
X130847619Y-79052380D01*
X130895238Y-79195238D01*
X130990476Y-79290476D01*
X131085714Y-79338095D01*
X131276190Y-79385714D01*
X131419047Y-79385714D01*
X131609523Y-79338095D01*
X131704761Y-79290476D01*
X131800000Y-79195238D01*
X131847619Y-79052380D01*
X131847619Y-78957142D01*
X131800000Y-78814285D01*
X131752380Y-78766666D01*
X112997619Y-80488095D02*
X113997619Y-80488095D01*
X113997619Y-80107142D01*
X113950000Y-80011904D01*
X113902380Y-79964285D01*
X113807142Y-79916666D01*
X113664285Y-79916666D01*
X113569047Y-79964285D01*
X113521428Y-80011904D01*
X113473809Y-80107142D01*
X113473809Y-80488095D01*
X112997619Y-79488095D02*
X113997619Y-79488095D01*
X113997619Y-79250000D01*
X113950000Y-79107142D01*
X113854761Y-79011904D01*
X113759523Y-78964285D01*
X113569047Y-78916666D01*
X113426190Y-78916666D01*
X113235714Y-78964285D01*
X113140476Y-79011904D01*
X113045238Y-79107142D01*
X112997619Y-79250000D01*
X112997619Y-79488095D01*
X113997619Y-78583333D02*
X113997619Y-77964285D01*
X113616666Y-78297619D01*
X113616666Y-78154761D01*
X113569047Y-78059523D01*
X113521428Y-78011904D01*
X113426190Y-77964285D01*
X113188095Y-77964285D01*
X113092857Y-78011904D01*
X113045238Y-78059523D01*
X112997619Y-78154761D01*
X112997619Y-78440476D01*
X113045238Y-78535714D01*
X113092857Y-78583333D01*
X115597619Y-80338095D02*
X116597619Y-80338095D01*
X116597619Y-79957142D01*
X116550000Y-79861904D01*
X116502380Y-79814285D01*
X116407142Y-79766666D01*
X116264285Y-79766666D01*
X116169047Y-79814285D01*
X116121428Y-79861904D01*
X116073809Y-79957142D01*
X116073809Y-80338095D01*
X115597619Y-79338095D02*
X116597619Y-79338095D01*
X116597619Y-79100000D01*
X116550000Y-78957142D01*
X116454761Y-78861904D01*
X116359523Y-78814285D01*
X116169047Y-78766666D01*
X116026190Y-78766666D01*
X115835714Y-78814285D01*
X115740476Y-78861904D01*
X115645238Y-78957142D01*
X115597619Y-79100000D01*
X115597619Y-79338095D01*
X116264285Y-77909523D02*
X115597619Y-77909523D01*
X116645238Y-78147619D02*
X115930952Y-78385714D01*
X115930952Y-77766666D01*
X110547619Y-80488095D02*
X111547619Y-80488095D01*
X111547619Y-80107142D01*
X111500000Y-80011904D01*
X111452380Y-79964285D01*
X111357142Y-79916666D01*
X111214285Y-79916666D01*
X111119047Y-79964285D01*
X111071428Y-80011904D01*
X111023809Y-80107142D01*
X111023809Y-80488095D01*
X110547619Y-79488095D02*
X111547619Y-79488095D01*
X111547619Y-79250000D01*
X111500000Y-79107142D01*
X111404761Y-79011904D01*
X111309523Y-78964285D01*
X111119047Y-78916666D01*
X110976190Y-78916666D01*
X110785714Y-78964285D01*
X110690476Y-79011904D01*
X110595238Y-79107142D01*
X110547619Y-79250000D01*
X110547619Y-79488095D01*
X111452380Y-78535714D02*
X111500000Y-78488095D01*
X111547619Y-78392857D01*
X111547619Y-78154761D01*
X111500000Y-78059523D01*
X111452380Y-78011904D01*
X111357142Y-77964285D01*
X111261904Y-77964285D01*
X111119047Y-78011904D01*
X110547619Y-78583333D01*
X110547619Y-77964285D01*
X117947619Y-80338095D02*
X118947619Y-80338095D01*
X118947619Y-79957142D01*
X118900000Y-79861904D01*
X118852380Y-79814285D01*
X118757142Y-79766666D01*
X118614285Y-79766666D01*
X118519047Y-79814285D01*
X118471428Y-79861904D01*
X118423809Y-79957142D01*
X118423809Y-80338095D01*
X117947619Y-79338095D02*
X118947619Y-79338095D01*
X118947619Y-79100000D01*
X118900000Y-78957142D01*
X118804761Y-78861904D01*
X118709523Y-78814285D01*
X118519047Y-78766666D01*
X118376190Y-78766666D01*
X118185714Y-78814285D01*
X118090476Y-78861904D01*
X117995238Y-78957142D01*
X117947619Y-79100000D01*
X117947619Y-79338095D01*
X118947619Y-77861904D02*
X118947619Y-78338095D01*
X118471428Y-78385714D01*
X118519047Y-78338095D01*
X118566666Y-78242857D01*
X118566666Y-78004761D01*
X118519047Y-77909523D01*
X118471428Y-77861904D01*
X118376190Y-77814285D01*
X118138095Y-77814285D01*
X118042857Y-77861904D01*
X117995238Y-77909523D01*
X117947619Y-78004761D01*
X117947619Y-78242857D01*
X117995238Y-78338095D01*
X118042857Y-78385714D01*
X105407619Y-80395714D02*
X106407619Y-80395714D01*
X105407619Y-79824285D01*
X106407619Y-79824285D01*
X105502857Y-78776666D02*
X105455238Y-78824285D01*
X105407619Y-78967142D01*
X105407619Y-79062380D01*
X105455238Y-79205238D01*
X105550476Y-79300476D01*
X105645714Y-79348095D01*
X105836190Y-79395714D01*
X105979047Y-79395714D01*
X106169523Y-79348095D01*
X106264761Y-79300476D01*
X106360000Y-79205238D01*
X106407619Y-79062380D01*
X106407619Y-78967142D01*
X106360000Y-78824285D01*
X106312380Y-78776666D01*
X100357619Y-80445714D02*
X101357619Y-80445714D01*
X100357619Y-79874285D01*
X101357619Y-79874285D01*
X100452857Y-78826666D02*
X100405238Y-78874285D01*
X100357619Y-79017142D01*
X100357619Y-79112380D01*
X100405238Y-79255238D01*
X100500476Y-79350476D01*
X100595714Y-79398095D01*
X100786190Y-79445714D01*
X100929047Y-79445714D01*
X101119523Y-79398095D01*
X101214761Y-79350476D01*
X101310000Y-79255238D01*
X101357619Y-79112380D01*
X101357619Y-79017142D01*
X101310000Y-78874285D01*
X101262380Y-78826666D01*
X103800000Y-79861904D02*
X103847619Y-79957142D01*
X103847619Y-80100000D01*
X103800000Y-80242857D01*
X103704761Y-80338095D01*
X103609523Y-80385714D01*
X103419047Y-80433333D01*
X103276190Y-80433333D01*
X103085714Y-80385714D01*
X102990476Y-80338095D01*
X102895238Y-80242857D01*
X102847619Y-80100000D01*
X102847619Y-80004761D01*
X102895238Y-79861904D01*
X102942857Y-79814285D01*
X103276190Y-79814285D01*
X103276190Y-80004761D01*
X102847619Y-79385714D02*
X103847619Y-79385714D01*
X102847619Y-78814285D01*
X103847619Y-78814285D01*
X102847619Y-78338095D02*
X103847619Y-78338095D01*
X103847619Y-78100000D01*
X103800000Y-77957142D01*
X103704761Y-77861904D01*
X103609523Y-77814285D01*
X103419047Y-77766666D01*
X103276190Y-77766666D01*
X103085714Y-77814285D01*
X102990476Y-77861904D01*
X102895238Y-77957142D01*
X102847619Y-78100000D01*
X102847619Y-78338095D01*
X107997619Y-80385714D02*
X108997619Y-80385714D01*
X107997619Y-79814285D01*
X108997619Y-79814285D01*
X108092857Y-78766666D02*
X108045238Y-78814285D01*
X107997619Y-78957142D01*
X107997619Y-79052380D01*
X108045238Y-79195238D01*
X108140476Y-79290476D01*
X108235714Y-79338095D01*
X108426190Y-79385714D01*
X108569047Y-79385714D01*
X108759523Y-79338095D01*
X108854761Y-79290476D01*
X108950000Y-79195238D01*
X108997619Y-79052380D01*
X108997619Y-78957142D01*
X108950000Y-78814285D01*
X108902380Y-78766666D01*
X139397619Y-79790476D02*
X139397619Y-80266666D01*
X138921428Y-80314285D01*
X138969047Y-80266666D01*
X139016666Y-80171428D01*
X139016666Y-79933333D01*
X138969047Y-79838095D01*
X138921428Y-79790476D01*
X138826190Y-79742857D01*
X138588095Y-79742857D01*
X138492857Y-79790476D01*
X138445238Y-79838095D01*
X138397619Y-79933333D01*
X138397619Y-80171428D01*
X138445238Y-80266666D01*
X138492857Y-80314285D01*
X139397619Y-79457142D02*
X138397619Y-79123809D01*
X139397619Y-78790476D01*
X74907619Y-80416666D02*
X75907619Y-80416666D01*
X75907619Y-80035714D01*
X75860000Y-79940476D01*
X75812380Y-79892857D01*
X75717142Y-79845238D01*
X75574285Y-79845238D01*
X75479047Y-79892857D01*
X75431428Y-79940476D01*
X75383809Y-80035714D01*
X75383809Y-80416666D01*
X75431428Y-79083333D02*
X75431428Y-79416666D01*
X74907619Y-79416666D02*
X75907619Y-79416666D01*
X75907619Y-78940476D01*
X75574285Y-78130952D02*
X74907619Y-78130952D01*
X75955238Y-78369047D02*
X75240952Y-78607142D01*
X75240952Y-77988095D01*
X69857619Y-80445714D02*
X70857619Y-80445714D01*
X69857619Y-79874285D01*
X70857619Y-79874285D01*
X69952857Y-78826666D02*
X69905238Y-78874285D01*
X69857619Y-79017142D01*
X69857619Y-79112380D01*
X69905238Y-79255238D01*
X70000476Y-79350476D01*
X70095714Y-79398095D01*
X70286190Y-79445714D01*
X70429047Y-79445714D01*
X70619523Y-79398095D01*
X70714761Y-79350476D01*
X70810000Y-79255238D01*
X70857619Y-79112380D01*
X70857619Y-79017142D01*
X70810000Y-78874285D01*
X70762380Y-78826666D01*
X72357619Y-80395714D02*
X73357619Y-80395714D01*
X72357619Y-79824285D01*
X73357619Y-79824285D01*
X72452857Y-78776666D02*
X72405238Y-78824285D01*
X72357619Y-78967142D01*
X72357619Y-79062380D01*
X72405238Y-79205238D01*
X72500476Y-79300476D01*
X72595714Y-79348095D01*
X72786190Y-79395714D01*
X72929047Y-79395714D01*
X73119523Y-79348095D01*
X73214761Y-79300476D01*
X73310000Y-79205238D01*
X73357619Y-79062380D01*
X73357619Y-78967142D01*
X73310000Y-78824285D01*
X73262380Y-78776666D01*
X77497619Y-80416666D02*
X78497619Y-80416666D01*
X78497619Y-80035714D01*
X78450000Y-79940476D01*
X78402380Y-79892857D01*
X78307142Y-79845238D01*
X78164285Y-79845238D01*
X78069047Y-79892857D01*
X78021428Y-79940476D01*
X77973809Y-80035714D01*
X77973809Y-80416666D01*
X78021428Y-79083333D02*
X78021428Y-79416666D01*
X77497619Y-79416666D02*
X78497619Y-79416666D01*
X78497619Y-78940476D01*
X78497619Y-78083333D02*
X78497619Y-78559523D01*
X78021428Y-78607142D01*
X78069047Y-78559523D01*
X78116666Y-78464285D01*
X78116666Y-78226190D01*
X78069047Y-78130952D01*
X78021428Y-78083333D01*
X77926190Y-78035714D01*
X77688095Y-78035714D01*
X77592857Y-78083333D01*
X77545238Y-78130952D01*
X77497619Y-78226190D01*
X77497619Y-78464285D01*
X77545238Y-78559523D01*
X77592857Y-78607142D01*
X125707619Y-80395714D02*
X126707619Y-80395714D01*
X125707619Y-79824285D01*
X126707619Y-79824285D01*
X125802857Y-78776666D02*
X125755238Y-78824285D01*
X125707619Y-78967142D01*
X125707619Y-79062380D01*
X125755238Y-79205238D01*
X125850476Y-79300476D01*
X125945714Y-79348095D01*
X126136190Y-79395714D01*
X126279047Y-79395714D01*
X126469523Y-79348095D01*
X126564761Y-79300476D01*
X126660000Y-79205238D01*
X126707619Y-79062380D01*
X126707619Y-78967142D01*
X126660000Y-78824285D01*
X126612380Y-78776666D01*
X120657619Y-80445714D02*
X121657619Y-80445714D01*
X120657619Y-79874285D01*
X121657619Y-79874285D01*
X120752857Y-78826666D02*
X120705238Y-78874285D01*
X120657619Y-79017142D01*
X120657619Y-79112380D01*
X120705238Y-79255238D01*
X120800476Y-79350476D01*
X120895714Y-79398095D01*
X121086190Y-79445714D01*
X121229047Y-79445714D01*
X121419523Y-79398095D01*
X121514761Y-79350476D01*
X121610000Y-79255238D01*
X121657619Y-79112380D01*
X121657619Y-79017142D01*
X121610000Y-78874285D01*
X121562380Y-78826666D01*
X123157619Y-80395714D02*
X124157619Y-80395714D01*
X123157619Y-79824285D01*
X124157619Y-79824285D01*
X123252857Y-78776666D02*
X123205238Y-78824285D01*
X123157619Y-78967142D01*
X123157619Y-79062380D01*
X123205238Y-79205238D01*
X123300476Y-79300476D01*
X123395714Y-79348095D01*
X123586190Y-79395714D01*
X123729047Y-79395714D01*
X123919523Y-79348095D01*
X124014761Y-79300476D01*
X124110000Y-79205238D01*
X124157619Y-79062380D01*
X124157619Y-78967142D01*
X124110000Y-78824285D01*
X124062380Y-78776666D01*
X128297619Y-80385714D02*
X129297619Y-80385714D01*
X128297619Y-79814285D01*
X129297619Y-79814285D01*
X128392857Y-78766666D02*
X128345238Y-78814285D01*
X128297619Y-78957142D01*
X128297619Y-79052380D01*
X128345238Y-79195238D01*
X128440476Y-79290476D01*
X128535714Y-79338095D01*
X128726190Y-79385714D01*
X128869047Y-79385714D01*
X129059523Y-79338095D01*
X129154761Y-79290476D01*
X129250000Y-79195238D01*
X129297619Y-79052380D01*
X129297619Y-78957142D01*
X129250000Y-78814285D01*
X129202380Y-78766666D01*
X74907619Y-69795714D02*
X75907619Y-69795714D01*
X74907619Y-69224285D01*
X75907619Y-69224285D01*
X75002857Y-68176666D02*
X74955238Y-68224285D01*
X74907619Y-68367142D01*
X74907619Y-68462380D01*
X74955238Y-68605238D01*
X75050476Y-68700476D01*
X75145714Y-68748095D01*
X75336190Y-68795714D01*
X75479047Y-68795714D01*
X75669523Y-68748095D01*
X75764761Y-68700476D01*
X75860000Y-68605238D01*
X75907619Y-68462380D01*
X75907619Y-68367142D01*
X75860000Y-68224285D01*
X75812380Y-68176666D01*
X69857619Y-69845714D02*
X70857619Y-69845714D01*
X69857619Y-69274285D01*
X70857619Y-69274285D01*
X69952857Y-68226666D02*
X69905238Y-68274285D01*
X69857619Y-68417142D01*
X69857619Y-68512380D01*
X69905238Y-68655238D01*
X70000476Y-68750476D01*
X70095714Y-68798095D01*
X70286190Y-68845714D01*
X70429047Y-68845714D01*
X70619523Y-68798095D01*
X70714761Y-68750476D01*
X70810000Y-68655238D01*
X70857619Y-68512380D01*
X70857619Y-68417142D01*
X70810000Y-68274285D01*
X70762380Y-68226666D01*
X72357619Y-69795714D02*
X73357619Y-69795714D01*
X72357619Y-69224285D01*
X73357619Y-69224285D01*
X72452857Y-68176666D02*
X72405238Y-68224285D01*
X72357619Y-68367142D01*
X72357619Y-68462380D01*
X72405238Y-68605238D01*
X72500476Y-68700476D01*
X72595714Y-68748095D01*
X72786190Y-68795714D01*
X72929047Y-68795714D01*
X73119523Y-68748095D01*
X73214761Y-68700476D01*
X73310000Y-68605238D01*
X73357619Y-68462380D01*
X73357619Y-68367142D01*
X73310000Y-68224285D01*
X73262380Y-68176666D01*
X77497619Y-69785714D02*
X78497619Y-69785714D01*
X77497619Y-69214285D01*
X78497619Y-69214285D01*
X77592857Y-68166666D02*
X77545238Y-68214285D01*
X77497619Y-68357142D01*
X77497619Y-68452380D01*
X77545238Y-68595238D01*
X77640476Y-68690476D01*
X77735714Y-68738095D01*
X77926190Y-68785714D01*
X78069047Y-68785714D01*
X78259523Y-68738095D01*
X78354761Y-68690476D01*
X78450000Y-68595238D01*
X78497619Y-68452380D01*
X78497619Y-68357142D01*
X78450000Y-68214285D01*
X78402380Y-68166666D01*
X92747619Y-69835714D02*
X93747619Y-69835714D01*
X92747619Y-69264285D01*
X93747619Y-69264285D01*
X92842857Y-68216666D02*
X92795238Y-68264285D01*
X92747619Y-68407142D01*
X92747619Y-68502380D01*
X92795238Y-68645238D01*
X92890476Y-68740476D01*
X92985714Y-68788095D01*
X93176190Y-68835714D01*
X93319047Y-68835714D01*
X93509523Y-68788095D01*
X93604761Y-68740476D01*
X93700000Y-68645238D01*
X93747619Y-68502380D01*
X93747619Y-68407142D01*
X93700000Y-68264285D01*
X93652380Y-68216666D01*
X95297619Y-69835714D02*
X96297619Y-69835714D01*
X95297619Y-69264285D01*
X96297619Y-69264285D01*
X95392857Y-68216666D02*
X95345238Y-68264285D01*
X95297619Y-68407142D01*
X95297619Y-68502380D01*
X95345238Y-68645238D01*
X95440476Y-68740476D01*
X95535714Y-68788095D01*
X95726190Y-68835714D01*
X95869047Y-68835714D01*
X96059523Y-68788095D01*
X96154761Y-68740476D01*
X96250000Y-68645238D01*
X96297619Y-68502380D01*
X96297619Y-68407142D01*
X96250000Y-68264285D01*
X96202380Y-68216666D01*
X90247619Y-69835714D02*
X91247619Y-69835714D01*
X90247619Y-69264285D01*
X91247619Y-69264285D01*
X90342857Y-68216666D02*
X90295238Y-68264285D01*
X90247619Y-68407142D01*
X90247619Y-68502380D01*
X90295238Y-68645238D01*
X90390476Y-68740476D01*
X90485714Y-68788095D01*
X90676190Y-68835714D01*
X90819047Y-68835714D01*
X91009523Y-68788095D01*
X91104761Y-68740476D01*
X91200000Y-68645238D01*
X91247619Y-68502380D01*
X91247619Y-68407142D01*
X91200000Y-68264285D01*
X91152380Y-68216666D01*
X97797619Y-69835714D02*
X98797619Y-69835714D01*
X97797619Y-69264285D01*
X98797619Y-69264285D01*
X97892857Y-68216666D02*
X97845238Y-68264285D01*
X97797619Y-68407142D01*
X97797619Y-68502380D01*
X97845238Y-68645238D01*
X97940476Y-68740476D01*
X98035714Y-68788095D01*
X98226190Y-68835714D01*
X98369047Y-68835714D01*
X98559523Y-68788095D01*
X98654761Y-68740476D01*
X98750000Y-68645238D01*
X98797619Y-68502380D01*
X98797619Y-68407142D01*
X98750000Y-68264285D01*
X98702380Y-68216666D01*
X85107619Y-69845714D02*
X86107619Y-69845714D01*
X85107619Y-69274285D01*
X86107619Y-69274285D01*
X85202857Y-68226666D02*
X85155238Y-68274285D01*
X85107619Y-68417142D01*
X85107619Y-68512380D01*
X85155238Y-68655238D01*
X85250476Y-68750476D01*
X85345714Y-68798095D01*
X85536190Y-68845714D01*
X85679047Y-68845714D01*
X85869523Y-68798095D01*
X85964761Y-68750476D01*
X86060000Y-68655238D01*
X86107619Y-68512380D01*
X86107619Y-68417142D01*
X86060000Y-68274285D01*
X86012380Y-68226666D01*
X81000000Y-70261904D02*
X81047619Y-70357142D01*
X81047619Y-70500000D01*
X81000000Y-70642857D01*
X80904761Y-70738095D01*
X80809523Y-70785714D01*
X80619047Y-70833333D01*
X80476190Y-70833333D01*
X80285714Y-70785714D01*
X80190476Y-70738095D01*
X80095238Y-70642857D01*
X80047619Y-70500000D01*
X80047619Y-70404761D01*
X80095238Y-70261904D01*
X80142857Y-70214285D01*
X80476190Y-70214285D01*
X80476190Y-70404761D01*
X80047619Y-69785714D02*
X81047619Y-69785714D01*
X80047619Y-69214285D01*
X81047619Y-69214285D01*
X80047619Y-68738095D02*
X81047619Y-68738095D01*
X81047619Y-68500000D01*
X81000000Y-68357142D01*
X80904761Y-68261904D01*
X80809523Y-68214285D01*
X80619047Y-68166666D01*
X80476190Y-68166666D01*
X80285714Y-68214285D01*
X80190476Y-68261904D01*
X80095238Y-68357142D01*
X80047619Y-68500000D01*
X80047619Y-68738095D01*
X82557619Y-69845714D02*
X83557619Y-69845714D01*
X82557619Y-69274285D01*
X83557619Y-69274285D01*
X82652857Y-68226666D02*
X82605238Y-68274285D01*
X82557619Y-68417142D01*
X82557619Y-68512380D01*
X82605238Y-68655238D01*
X82700476Y-68750476D01*
X82795714Y-68798095D01*
X82986190Y-68845714D01*
X83129047Y-68845714D01*
X83319523Y-68798095D01*
X83414761Y-68750476D01*
X83510000Y-68655238D01*
X83557619Y-68512380D01*
X83557619Y-68417142D01*
X83510000Y-68274285D01*
X83462380Y-68226666D01*
X87697619Y-69835714D02*
X88697619Y-69835714D01*
X87697619Y-69264285D01*
X88697619Y-69264285D01*
X87792857Y-68216666D02*
X87745238Y-68264285D01*
X87697619Y-68407142D01*
X87697619Y-68502380D01*
X87745238Y-68645238D01*
X87840476Y-68740476D01*
X87935714Y-68788095D01*
X88126190Y-68835714D01*
X88269047Y-68835714D01*
X88459523Y-68788095D01*
X88554761Y-68740476D01*
X88650000Y-68645238D01*
X88697619Y-68502380D01*
X88697619Y-68407142D01*
X88650000Y-68264285D01*
X88602380Y-68216666D01*
X113047619Y-69785714D02*
X114047619Y-69785714D01*
X113047619Y-69214285D01*
X114047619Y-69214285D01*
X113142857Y-68166666D02*
X113095238Y-68214285D01*
X113047619Y-68357142D01*
X113047619Y-68452380D01*
X113095238Y-68595238D01*
X113190476Y-68690476D01*
X113285714Y-68738095D01*
X113476190Y-68785714D01*
X113619047Y-68785714D01*
X113809523Y-68738095D01*
X113904761Y-68690476D01*
X114000000Y-68595238D01*
X114047619Y-68452380D01*
X114047619Y-68357142D01*
X114000000Y-68214285D01*
X113952380Y-68166666D01*
X115597619Y-69785714D02*
X116597619Y-69785714D01*
X115597619Y-69214285D01*
X116597619Y-69214285D01*
X115692857Y-68166666D02*
X115645238Y-68214285D01*
X115597619Y-68357142D01*
X115597619Y-68452380D01*
X115645238Y-68595238D01*
X115740476Y-68690476D01*
X115835714Y-68738095D01*
X116026190Y-68785714D01*
X116169047Y-68785714D01*
X116359523Y-68738095D01*
X116454761Y-68690476D01*
X116550000Y-68595238D01*
X116597619Y-68452380D01*
X116597619Y-68357142D01*
X116550000Y-68214285D01*
X116502380Y-68166666D01*
X110547619Y-69785714D02*
X111547619Y-69785714D01*
X110547619Y-69214285D01*
X111547619Y-69214285D01*
X110642857Y-68166666D02*
X110595238Y-68214285D01*
X110547619Y-68357142D01*
X110547619Y-68452380D01*
X110595238Y-68595238D01*
X110690476Y-68690476D01*
X110785714Y-68738095D01*
X110976190Y-68785714D01*
X111119047Y-68785714D01*
X111309523Y-68738095D01*
X111404761Y-68690476D01*
X111500000Y-68595238D01*
X111547619Y-68452380D01*
X111547619Y-68357142D01*
X111500000Y-68214285D01*
X111452380Y-68166666D01*
X118097619Y-69785714D02*
X119097619Y-69785714D01*
X118097619Y-69214285D01*
X119097619Y-69214285D01*
X118192857Y-68166666D02*
X118145238Y-68214285D01*
X118097619Y-68357142D01*
X118097619Y-68452380D01*
X118145238Y-68595238D01*
X118240476Y-68690476D01*
X118335714Y-68738095D01*
X118526190Y-68785714D01*
X118669047Y-68785714D01*
X118859523Y-68738095D01*
X118954761Y-68690476D01*
X119050000Y-68595238D01*
X119097619Y-68452380D01*
X119097619Y-68357142D01*
X119050000Y-68214285D01*
X119002380Y-68166666D01*
X105407619Y-69795714D02*
X106407619Y-69795714D01*
X105407619Y-69224285D01*
X106407619Y-69224285D01*
X105502857Y-68176666D02*
X105455238Y-68224285D01*
X105407619Y-68367142D01*
X105407619Y-68462380D01*
X105455238Y-68605238D01*
X105550476Y-68700476D01*
X105645714Y-68748095D01*
X105836190Y-68795714D01*
X105979047Y-68795714D01*
X106169523Y-68748095D01*
X106264761Y-68700476D01*
X106360000Y-68605238D01*
X106407619Y-68462380D01*
X106407619Y-68367142D01*
X106360000Y-68224285D01*
X106312380Y-68176666D01*
X100357619Y-69845714D02*
X101357619Y-69845714D01*
X100357619Y-69274285D01*
X101357619Y-69274285D01*
X100452857Y-68226666D02*
X100405238Y-68274285D01*
X100357619Y-68417142D01*
X100357619Y-68512380D01*
X100405238Y-68655238D01*
X100500476Y-68750476D01*
X100595714Y-68798095D01*
X100786190Y-68845714D01*
X100929047Y-68845714D01*
X101119523Y-68798095D01*
X101214761Y-68750476D01*
X101310000Y-68655238D01*
X101357619Y-68512380D01*
X101357619Y-68417142D01*
X101310000Y-68274285D01*
X101262380Y-68226666D01*
X103800000Y-70261904D02*
X103847619Y-70357142D01*
X103847619Y-70500000D01*
X103800000Y-70642857D01*
X103704761Y-70738095D01*
X103609523Y-70785714D01*
X103419047Y-70833333D01*
X103276190Y-70833333D01*
X103085714Y-70785714D01*
X102990476Y-70738095D01*
X102895238Y-70642857D01*
X102847619Y-70500000D01*
X102847619Y-70404761D01*
X102895238Y-70261904D01*
X102942857Y-70214285D01*
X103276190Y-70214285D01*
X103276190Y-70404761D01*
X102847619Y-69785714D02*
X103847619Y-69785714D01*
X102847619Y-69214285D01*
X103847619Y-69214285D01*
X102847619Y-68738095D02*
X103847619Y-68738095D01*
X103847619Y-68500000D01*
X103800000Y-68357142D01*
X103704761Y-68261904D01*
X103609523Y-68214285D01*
X103419047Y-68166666D01*
X103276190Y-68166666D01*
X103085714Y-68214285D01*
X102990476Y-68261904D01*
X102895238Y-68357142D01*
X102847619Y-68500000D01*
X102847619Y-68738095D01*
X107997619Y-69785714D02*
X108997619Y-69785714D01*
X107997619Y-69214285D01*
X108997619Y-69214285D01*
X108092857Y-68166666D02*
X108045238Y-68214285D01*
X107997619Y-68357142D01*
X107997619Y-68452380D01*
X108045238Y-68595238D01*
X108140476Y-68690476D01*
X108235714Y-68738095D01*
X108426190Y-68785714D01*
X108569047Y-68785714D01*
X108759523Y-68738095D01*
X108854761Y-68690476D01*
X108950000Y-68595238D01*
X108997619Y-68452380D01*
X108997619Y-68357142D01*
X108950000Y-68214285D01*
X108902380Y-68166666D01*
X120657619Y-69845714D02*
X121657619Y-69845714D01*
X120657619Y-69274285D01*
X121657619Y-69274285D01*
X120752857Y-68226666D02*
X120705238Y-68274285D01*
X120657619Y-68417142D01*
X120657619Y-68512380D01*
X120705238Y-68655238D01*
X120800476Y-68750476D01*
X120895714Y-68798095D01*
X121086190Y-68845714D01*
X121229047Y-68845714D01*
X121419523Y-68798095D01*
X121514761Y-68750476D01*
X121610000Y-68655238D01*
X121657619Y-68512380D01*
X121657619Y-68417142D01*
X121610000Y-68274285D01*
X121562380Y-68226666D01*
X123157619Y-69795714D02*
X124157619Y-69795714D01*
X123157619Y-69224285D01*
X124157619Y-69224285D01*
X123252857Y-68176666D02*
X123205238Y-68224285D01*
X123157619Y-68367142D01*
X123157619Y-68462380D01*
X123205238Y-68605238D01*
X123300476Y-68700476D01*
X123395714Y-68748095D01*
X123586190Y-68795714D01*
X123729047Y-68795714D01*
X123919523Y-68748095D01*
X124014761Y-68700476D01*
X124110000Y-68605238D01*
X124157619Y-68462380D01*
X124157619Y-68367142D01*
X124110000Y-68224285D01*
X124062380Y-68176666D01*
X125707619Y-69795714D02*
X126707619Y-69795714D01*
X125707619Y-69224285D01*
X126707619Y-69224285D01*
X125802857Y-68176666D02*
X125755238Y-68224285D01*
X125707619Y-68367142D01*
X125707619Y-68462380D01*
X125755238Y-68605238D01*
X125850476Y-68700476D01*
X125945714Y-68748095D01*
X126136190Y-68795714D01*
X126279047Y-68795714D01*
X126469523Y-68748095D01*
X126564761Y-68700476D01*
X126660000Y-68605238D01*
X126707619Y-68462380D01*
X126707619Y-68367142D01*
X126660000Y-68224285D01*
X126612380Y-68176666D01*
X130847619Y-69785714D02*
X131847619Y-69785714D01*
X130847619Y-69214285D01*
X131847619Y-69214285D01*
X130942857Y-68166666D02*
X130895238Y-68214285D01*
X130847619Y-68357142D01*
X130847619Y-68452380D01*
X130895238Y-68595238D01*
X130990476Y-68690476D01*
X131085714Y-68738095D01*
X131276190Y-68785714D01*
X131419047Y-68785714D01*
X131609523Y-68738095D01*
X131704761Y-68690476D01*
X131800000Y-68595238D01*
X131847619Y-68452380D01*
X131847619Y-68357142D01*
X131800000Y-68214285D01*
X131752380Y-68166666D01*
X128297619Y-69785714D02*
X129297619Y-69785714D01*
X128297619Y-69214285D01*
X129297619Y-69214285D01*
X128392857Y-68166666D02*
X128345238Y-68214285D01*
X128297619Y-68357142D01*
X128297619Y-68452380D01*
X128345238Y-68595238D01*
X128440476Y-68690476D01*
X128535714Y-68738095D01*
X128726190Y-68785714D01*
X128869047Y-68785714D01*
X129059523Y-68738095D01*
X129154761Y-68690476D01*
X129250000Y-68595238D01*
X129297619Y-68452380D01*
X129297619Y-68357142D01*
X129250000Y-68214285D01*
X129202380Y-68166666D01*
X133347619Y-69785714D02*
X134347619Y-69785714D01*
X133347619Y-69214285D01*
X134347619Y-69214285D01*
X133442857Y-68166666D02*
X133395238Y-68214285D01*
X133347619Y-68357142D01*
X133347619Y-68452380D01*
X133395238Y-68595238D01*
X133490476Y-68690476D01*
X133585714Y-68738095D01*
X133776190Y-68785714D01*
X133919047Y-68785714D01*
X134109523Y-68738095D01*
X134204761Y-68690476D01*
X134300000Y-68595238D01*
X134347619Y-68452380D01*
X134347619Y-68357142D01*
X134300000Y-68214285D01*
X134252380Y-68166666D01*
X135897619Y-69785714D02*
X136897619Y-69785714D01*
X135897619Y-69214285D01*
X136897619Y-69214285D01*
X135992857Y-68166666D02*
X135945238Y-68214285D01*
X135897619Y-68357142D01*
X135897619Y-68452380D01*
X135945238Y-68595238D01*
X136040476Y-68690476D01*
X136135714Y-68738095D01*
X136326190Y-68785714D01*
X136469047Y-68785714D01*
X136659523Y-68738095D01*
X136754761Y-68690476D01*
X136850000Y-68595238D01*
X136897619Y-68452380D01*
X136897619Y-68357142D01*
X136850000Y-68214285D01*
X136802380Y-68166666D01*
X138397619Y-69785714D02*
X139397619Y-69785714D01*
X138397619Y-69214285D01*
X139397619Y-69214285D01*
X138492857Y-68166666D02*
X138445238Y-68214285D01*
X138397619Y-68357142D01*
X138397619Y-68452380D01*
X138445238Y-68595238D01*
X138540476Y-68690476D01*
X138635714Y-68738095D01*
X138826190Y-68785714D01*
X138969047Y-68785714D01*
X139159523Y-68738095D01*
X139254761Y-68690476D01*
X139350000Y-68595238D01*
X139397619Y-68452380D01*
X139397619Y-68357142D01*
X139350000Y-68214285D01*
X139302380Y-68166666D01*
D11*
G36*
X71500663Y-71856744D02*
G01*
X71384934Y-71857567D01*
X70775000Y-72457885D01*
X70165066Y-73058204D01*
X69885165Y-73058641D01*
X69605263Y-73059079D01*
X69605263Y-73424663D01*
X69534244Y-73434083D01*
X69501873Y-73437650D01*
X69440913Y-73443662D01*
X69355002Y-73451799D01*
X69247774Y-73461738D01*
X69122867Y-73473157D01*
X68983917Y-73485736D01*
X68834559Y-73499153D01*
X68678432Y-73513085D01*
X68519170Y-73527212D01*
X68360410Y-73541212D01*
X68205789Y-73554763D01*
X68058943Y-73567544D01*
X67923507Y-73579233D01*
X67803120Y-73589508D01*
X67701416Y-73598048D01*
X67622033Y-73604531D01*
X67568606Y-73608636D01*
X67544771Y-73610041D01*
X67544658Y-73610040D01*
X67525534Y-73599796D01*
X67486045Y-73569026D01*
X67425734Y-73517311D01*
X67344139Y-73444233D01*
X67240802Y-73349373D01*
X67115262Y-73232313D01*
X66967060Y-73092633D01*
X66795737Y-72929916D01*
X66747763Y-72884179D01*
X65987434Y-72158805D01*
X65928948Y-72217449D01*
X65870461Y-72276092D01*
X65973690Y-72370974D01*
X66010997Y-72405685D01*
X66068689Y-72459906D01*
X66142987Y-72530059D01*
X66230111Y-72612568D01*
X66326282Y-72703855D01*
X66427720Y-72800342D01*
X66488305Y-72858065D01*
X66601803Y-72966434D01*
X66692715Y-73054028D01*
X66762693Y-73123080D01*
X66813390Y-73175824D01*
X66846460Y-73214494D01*
X66863556Y-73241323D01*
X66866331Y-73258544D01*
X66856437Y-73268392D01*
X66835529Y-73273099D01*
X66805259Y-73274899D01*
X66796998Y-73275141D01*
X66740091Y-73287658D01*
X66671307Y-73318497D01*
X66601525Y-73361503D01*
X66541622Y-73410520D01*
X66523118Y-73430134D01*
X66458372Y-73530770D01*
X66422146Y-73648327D01*
X66413553Y-73752262D01*
X66429761Y-73870049D01*
X66477288Y-73978831D01*
X66554489Y-74075110D01*
X66573705Y-74092875D01*
X66647500Y-74157832D01*
X66647500Y-75281579D01*
X66413553Y-75281579D01*
X66413553Y-75582368D01*
X66522848Y-75582368D01*
X66597461Y-75586143D01*
X66649250Y-75598825D01*
X66677420Y-75614237D01*
X66697576Y-75625250D01*
X66726800Y-75634679D01*
X66769425Y-75643151D01*
X66829783Y-75651290D01*
X66912207Y-75659721D01*
X67021028Y-75669068D01*
X67101983Y-75675469D01*
X67481268Y-75704831D01*
X66751062Y-76425659D01*
X66618934Y-76555992D01*
X66491904Y-76681108D01*
X66372305Y-76798721D01*
X66262472Y-76906545D01*
X66164737Y-77002295D01*
X66081434Y-77083683D01*
X66014896Y-77148423D01*
X65967458Y-77194230D01*
X65941480Y-77218792D01*
X65900351Y-77259145D01*
X65871665Y-77292805D01*
X65862105Y-77310910D01*
X65873303Y-77334035D01*
X65901281Y-77367743D01*
X65912674Y-77379169D01*
X65963243Y-77427617D01*
X66234298Y-77160881D01*
X66303348Y-77092831D01*
X66392226Y-77005085D01*
X66497041Y-76901492D01*
X66613903Y-76785900D01*
X66738921Y-76662159D01*
X66868205Y-76534119D01*
X66997864Y-76405628D01*
X67090821Y-76313454D01*
X67232480Y-76173342D01*
X67352409Y-76055632D01*
X67452232Y-75958820D01*
X67533572Y-75881399D01*
X67598052Y-75821864D01*
X67631723Y-75792358D01*
X67631723Y-75555409D01*
X67252408Y-75525743D01*
X67141223Y-75516797D01*
X67039547Y-75508142D01*
X66952696Y-75500271D01*
X66885982Y-75493672D01*
X66844721Y-75488836D01*
X66835494Y-75487280D01*
X66797895Y-75478482D01*
X66797895Y-74216681D01*
X66902827Y-74208258D01*
X67026805Y-74182828D01*
X67136476Y-74129611D01*
X67227844Y-74051963D01*
X67296917Y-73953237D01*
X67338380Y-73842428D01*
X67357829Y-73806480D01*
X67399570Y-73788483D01*
X67401411Y-73788106D01*
X67419033Y-73785947D01*
X67437078Y-73788616D01*
X67458892Y-73798720D01*
X67487823Y-73818863D01*
X67527217Y-73851651D01*
X67580423Y-73899690D01*
X67650786Y-73965584D01*
X67741654Y-74051940D01*
X67747507Y-74057520D01*
X67845044Y-74150405D01*
X67948933Y-74249155D01*
X68052023Y-74346984D01*
X68147161Y-74437107D01*
X68227196Y-74512738D01*
X68245089Y-74529605D01*
X68312556Y-74594265D01*
X68370291Y-74651705D01*
X68414325Y-74697801D01*
X68440686Y-74728431D01*
X68446479Y-74738715D01*
X68434354Y-74754052D01*
X68401090Y-74789917D01*
X68349458Y-74843488D01*
X68282225Y-74911940D01*
X68202163Y-74992447D01*
X68112039Y-75082187D01*
X68037802Y-75155532D01*
X67631723Y-75555409D01*
X67631723Y-75792358D01*
X67647297Y-75778709D01*
X67682929Y-75750429D01*
X67706571Y-75735517D01*
X67717520Y-75732199D01*
X67741414Y-75733456D01*
X67795499Y-75737274D01*
X67876662Y-75743407D01*
X67981790Y-75751607D01*
X68107772Y-75761627D01*
X68251495Y-75773220D01*
X68409846Y-75786140D01*
X68579713Y-75800138D01*
X68715472Y-75811419D01*
X69480894Y-75875250D01*
X69480894Y-75711004D01*
X69464376Y-75710297D01*
X69417855Y-75706969D01*
X69344622Y-75701290D01*
X69247972Y-75693526D01*
X69131195Y-75683943D01*
X68997586Y-75672811D01*
X68850437Y-75660395D01*
X68710729Y-75648480D01*
X68552213Y-75634984D01*
X68402579Y-75622413D01*
X68265398Y-75611055D01*
X68144241Y-75601198D01*
X68042680Y-75593130D01*
X67964288Y-75587140D01*
X67912637Y-75583515D01*
X67892577Y-75582509D01*
X67880092Y-75580940D01*
X67875138Y-75574722D01*
X67879782Y-75561459D01*
X67896091Y-75538753D01*
X67926132Y-75504208D01*
X67971973Y-75455427D01*
X68035680Y-75390013D01*
X68119321Y-75305569D01*
X68208701Y-75215971D01*
X68574814Y-74849574D01*
X68577566Y-74852141D01*
X68577566Y-74609951D01*
X68562450Y-74598913D01*
X68526858Y-74568013D01*
X68474059Y-74520347D01*
X68407327Y-74459013D01*
X68329930Y-74387107D01*
X68245142Y-74307727D01*
X68156233Y-74223969D01*
X68066474Y-74138930D01*
X67979136Y-74055708D01*
X67897491Y-73977399D01*
X67824809Y-73907100D01*
X67764363Y-73847909D01*
X67719422Y-73802922D01*
X67693258Y-73775236D01*
X67687928Y-73767686D01*
X67705133Y-73765197D01*
X67752652Y-73760030D01*
X67827511Y-73752470D01*
X67926736Y-73742800D01*
X68047351Y-73731305D01*
X68186382Y-73718269D01*
X68340855Y-73703976D01*
X68507794Y-73688710D01*
X68642403Y-73676521D01*
X68816946Y-73660929D01*
X68981373Y-73646523D01*
X69132701Y-73633547D01*
X69267947Y-73622241D01*
X69384130Y-73612848D01*
X69478265Y-73605611D01*
X69547370Y-73600772D01*
X69588462Y-73598573D01*
X69599132Y-73598824D01*
X69589628Y-73611970D01*
X69559080Y-73645446D01*
X69510444Y-73696326D01*
X69446677Y-73761683D01*
X69370735Y-73838591D01*
X69285576Y-73924124D01*
X69194155Y-74015354D01*
X69099431Y-74109356D01*
X69004359Y-74203202D01*
X68911897Y-74293967D01*
X68825001Y-74378723D01*
X68746628Y-74454544D01*
X68679735Y-74518503D01*
X68627278Y-74567674D01*
X68592215Y-74599131D01*
X68577566Y-74609951D01*
X68577566Y-74852141D01*
X68721240Y-74986202D01*
X68795552Y-75055784D01*
X68878517Y-75133881D01*
X68966898Y-75217406D01*
X69057459Y-75303270D01*
X69146964Y-75388385D01*
X69232177Y-75469664D01*
X69309861Y-75544019D01*
X69376780Y-75608363D01*
X69429697Y-75659606D01*
X69465377Y-75694663D01*
X69480584Y-75710444D01*
X69480894Y-75711004D01*
X69480894Y-75875250D01*
X69672193Y-75891204D01*
X70511515Y-76689286D01*
X71350836Y-77487368D01*
X71468148Y-77486781D01*
X71585461Y-77486194D01*
X71447747Y-77357275D01*
X71370937Y-77285124D01*
X71280696Y-77199940D01*
X71179425Y-77104021D01*
X71069524Y-76999666D01*
X70953396Y-76889174D01*
X70833442Y-76774844D01*
X70712064Y-76658975D01*
X70591662Y-76543865D01*
X70474638Y-76431814D01*
X70363394Y-76325119D01*
X70260331Y-76226080D01*
X70167850Y-76136997D01*
X70088353Y-76060166D01*
X70024242Y-75997888D01*
X69977917Y-75952462D01*
X69951781Y-75926185D01*
X69946767Y-75920426D01*
X69964209Y-75920030D01*
X70008865Y-75922208D01*
X70074660Y-75926583D01*
X70155517Y-75932775D01*
X70187817Y-75935433D01*
X70424079Y-75955228D01*
X70424079Y-75800242D01*
X70386480Y-75792240D01*
X70356745Y-75788160D01*
X70300797Y-75782425D01*
X70225764Y-75775701D01*
X70138775Y-75768648D01*
X70106579Y-75766207D01*
X70014139Y-75759008D01*
X69928293Y-75751742D01*
X69857153Y-75745136D01*
X69808831Y-75739916D01*
X69800061Y-75738739D01*
X69782058Y-75734298D01*
X69760983Y-75724687D01*
X69734475Y-75707860D01*
X69700172Y-75681775D01*
X69655711Y-75644387D01*
X69598729Y-75593654D01*
X69526864Y-75527530D01*
X69437754Y-75443974D01*
X69329036Y-75340940D01*
X69218725Y-75235833D01*
X69109559Y-75131262D01*
X69008460Y-75033649D01*
X68917885Y-74945422D01*
X68840292Y-74869012D01*
X68778138Y-74806849D01*
X68733882Y-74761363D01*
X68709982Y-74734983D01*
X68706426Y-74729357D01*
X68719319Y-74714557D01*
X68752940Y-74679961D01*
X68803918Y-74628929D01*
X68868880Y-74564817D01*
X68944452Y-74490984D01*
X68999507Y-74437589D01*
X69287763Y-74158827D01*
X69287763Y-74980790D01*
X69605263Y-74980790D01*
X69605263Y-73978158D01*
X69463794Y-73978158D01*
X69647040Y-73794342D01*
X69777029Y-73663948D01*
X69777029Y-73410000D01*
X69756523Y-73407571D01*
X69745098Y-73395276D01*
X69740120Y-73365604D01*
X69738956Y-73311045D01*
X69738948Y-73301382D01*
X69738948Y-73192763D01*
X70030416Y-73192763D01*
X69922763Y-73301382D01*
X69857313Y-73362654D01*
X69807171Y-73399301D01*
X69777029Y-73410000D01*
X69777029Y-73663948D01*
X69830285Y-73610526D01*
X69993498Y-73610526D01*
X70068586Y-73610015D01*
X70116355Y-73607672D01*
X70142902Y-73602289D01*
X70154321Y-73592656D01*
X70156711Y-73578129D01*
X70160220Y-73561973D01*
X70174289Y-73550031D01*
X70204231Y-73540861D01*
X70255358Y-73533018D01*
X70332983Y-73525058D01*
X70361415Y-73522504D01*
X70424079Y-73516974D01*
X70424079Y-75800242D01*
X70424079Y-75955228D01*
X70424079Y-76167237D01*
X70574474Y-76167237D01*
X70574474Y-76077141D01*
X70575917Y-76024445D01*
X70582884Y-75995812D01*
X70587030Y-75992309D01*
X70587030Y-75807766D01*
X70577558Y-75798054D01*
X70574634Y-75764412D01*
X70574474Y-75741706D01*
X70574474Y-75665921D01*
X70574474Y-75383306D01*
X70574474Y-73503481D01*
X70639587Y-73567062D01*
X70719938Y-73665814D01*
X70781911Y-73788032D01*
X70826354Y-73935787D01*
X70850935Y-74082599D01*
X70862404Y-74178684D01*
X70741579Y-74178684D01*
X70741579Y-74947368D01*
X70878655Y-74947368D01*
X70867224Y-75060165D01*
X70857575Y-75138975D01*
X70844786Y-75222943D01*
X70835652Y-75273224D01*
X70815512Y-75373487D01*
X70694993Y-75378397D01*
X70574474Y-75383306D01*
X70574474Y-75665921D01*
X70641316Y-75665921D01*
X70683190Y-75668131D01*
X70706464Y-75673650D01*
X70708158Y-75675874D01*
X70697440Y-75700613D01*
X70671437Y-75736757D01*
X70639377Y-75772990D01*
X70610489Y-75797999D01*
X70606733Y-75800227D01*
X70587030Y-75807766D01*
X70587030Y-75992309D01*
X70599326Y-75981919D01*
X70617238Y-75976311D01*
X70663721Y-75953422D01*
X70719600Y-75909460D01*
X70777040Y-75851989D01*
X70828207Y-75788573D01*
X70854857Y-75746918D01*
X70884028Y-75699466D01*
X70908533Y-75675141D01*
X70937428Y-75666595D01*
X70954638Y-75665938D01*
X70958816Y-75665937D01*
X70958816Y-74813684D01*
X70875263Y-74813684D01*
X70875263Y-74312368D01*
X70958816Y-74312368D01*
X70958816Y-74813684D01*
X70958816Y-75665937D01*
X71008948Y-75665921D01*
X71008948Y-75525274D01*
X71007383Y-75460564D01*
X71003215Y-75410130D01*
X70997227Y-75382094D01*
X70994803Y-75379057D01*
X70991082Y-75361273D01*
X70992606Y-75317992D01*
X70998925Y-75256651D01*
X71004760Y-75214737D01*
X71016222Y-75138737D01*
X71026570Y-75069230D01*
X71034204Y-75016997D01*
X71036373Y-75001678D01*
X71048768Y-74961653D01*
X71068192Y-74947368D01*
X71076102Y-74943025D01*
X71082137Y-74927490D01*
X71086534Y-74897001D01*
X71089531Y-74847800D01*
X71091365Y-74776126D01*
X71092275Y-74678219D01*
X71092500Y-74563026D01*
X71092372Y-74440086D01*
X71091770Y-74346559D01*
X71090361Y-74278440D01*
X71087819Y-74231719D01*
X71083811Y-74202391D01*
X71078009Y-74186449D01*
X71070083Y-74179885D01*
X71060867Y-74178684D01*
X71031615Y-74168460D01*
X71014969Y-74134970D01*
X71009032Y-74073988D01*
X71008948Y-74063017D01*
X70998294Y-73959746D01*
X70968967Y-73842453D01*
X70924916Y-73721715D01*
X70870089Y-73608111D01*
X70808436Y-73512219D01*
X70798668Y-73499799D01*
X70766885Y-73459318D01*
X70754156Y-73435345D01*
X70758271Y-73418604D01*
X70775250Y-73401419D01*
X70808508Y-73350664D01*
X70821275Y-73284607D01*
X70814635Y-73213474D01*
X70789673Y-73147486D01*
X70747471Y-73096868D01*
X70742566Y-73093203D01*
X70663789Y-73055328D01*
X70582246Y-73048281D01*
X70504513Y-73071285D01*
X70437165Y-73123563D01*
X70431604Y-73129956D01*
X70405187Y-73167073D01*
X70393553Y-73204733D01*
X70392713Y-73257676D01*
X70393458Y-73270902D01*
X70395359Y-73322703D01*
X70391004Y-73349386D01*
X70377862Y-73359045D01*
X70365592Y-73360037D01*
X70329998Y-73362061D01*
X70276467Y-73367086D01*
X70244441Y-73370697D01*
X70193573Y-73375934D01*
X70167532Y-73373756D01*
X70158014Y-73361125D01*
X70156711Y-73338625D01*
X70161014Y-73325282D01*
X70174943Y-73303756D01*
X70200023Y-73272452D01*
X70237781Y-73229776D01*
X70289744Y-73174132D01*
X70357438Y-73103925D01*
X70442389Y-73017560D01*
X70546125Y-72913442D01*
X70670172Y-72789975D01*
X70816056Y-72645564D01*
X70886551Y-72575969D01*
X71616390Y-71855921D01*
X71500663Y-71856744D01*
G37*
X71500663Y-71856744D02*
X71384934Y-71857567D01*
X70775000Y-72457885D01*
X70165066Y-73058204D01*
X69885165Y-73058641D01*
X69605263Y-73059079D01*
X69605263Y-73424663D01*
X69534244Y-73434083D01*
X69501873Y-73437650D01*
X69440913Y-73443662D01*
X69355002Y-73451799D01*
X69247774Y-73461738D01*
X69122867Y-73473157D01*
X68983917Y-73485736D01*
X68834559Y-73499153D01*
X68678432Y-73513085D01*
X68519170Y-73527212D01*
X68360410Y-73541212D01*
X68205789Y-73554763D01*
X68058943Y-73567544D01*
X67923507Y-73579233D01*
X67803120Y-73589508D01*
X67701416Y-73598048D01*
X67622033Y-73604531D01*
X67568606Y-73608636D01*
X67544771Y-73610041D01*
X67544658Y-73610040D01*
X67525534Y-73599796D01*
X67486045Y-73569026D01*
X67425734Y-73517311D01*
X67344139Y-73444233D01*
X67240802Y-73349373D01*
X67115262Y-73232313D01*
X66967060Y-73092633D01*
X66795737Y-72929916D01*
X66747763Y-72884179D01*
X65987434Y-72158805D01*
X65928948Y-72217449D01*
X65870461Y-72276092D01*
X65973690Y-72370974D01*
X66010997Y-72405685D01*
X66068689Y-72459906D01*
X66142987Y-72530059D01*
X66230111Y-72612568D01*
X66326282Y-72703855D01*
X66427720Y-72800342D01*
X66488305Y-72858065D01*
X66601803Y-72966434D01*
X66692715Y-73054028D01*
X66762693Y-73123080D01*
X66813390Y-73175824D01*
X66846460Y-73214494D01*
X66863556Y-73241323D01*
X66866331Y-73258544D01*
X66856437Y-73268392D01*
X66835529Y-73273099D01*
X66805259Y-73274899D01*
X66796998Y-73275141D01*
X66740091Y-73287658D01*
X66671307Y-73318497D01*
X66601525Y-73361503D01*
X66541622Y-73410520D01*
X66523118Y-73430134D01*
X66458372Y-73530770D01*
X66422146Y-73648327D01*
X66413553Y-73752262D01*
X66429761Y-73870049D01*
X66477288Y-73978831D01*
X66554489Y-74075110D01*
X66573705Y-74092875D01*
X66647500Y-74157832D01*
X66647500Y-75281579D01*
X66413553Y-75281579D01*
X66413553Y-75582368D01*
X66522848Y-75582368D01*
X66597461Y-75586143D01*
X66649250Y-75598825D01*
X66677420Y-75614237D01*
X66697576Y-75625250D01*
X66726800Y-75634679D01*
X66769425Y-75643151D01*
X66829783Y-75651290D01*
X66912207Y-75659721D01*
X67021028Y-75669068D01*
X67101983Y-75675469D01*
X67481268Y-75704831D01*
X66751062Y-76425659D01*
X66618934Y-76555992D01*
X66491904Y-76681108D01*
X66372305Y-76798721D01*
X66262472Y-76906545D01*
X66164737Y-77002295D01*
X66081434Y-77083683D01*
X66014896Y-77148423D01*
X65967458Y-77194230D01*
X65941480Y-77218792D01*
X65900351Y-77259145D01*
X65871665Y-77292805D01*
X65862105Y-77310910D01*
X65873303Y-77334035D01*
X65901281Y-77367743D01*
X65912674Y-77379169D01*
X65963243Y-77427617D01*
X66234298Y-77160881D01*
X66303348Y-77092831D01*
X66392226Y-77005085D01*
X66497041Y-76901492D01*
X66613903Y-76785900D01*
X66738921Y-76662159D01*
X66868205Y-76534119D01*
X66997864Y-76405628D01*
X67090821Y-76313454D01*
X67232480Y-76173342D01*
X67352409Y-76055632D01*
X67452232Y-75958820D01*
X67533572Y-75881399D01*
X67598052Y-75821864D01*
X67631723Y-75792358D01*
X67631723Y-75555409D01*
X67252408Y-75525743D01*
X67141223Y-75516797D01*
X67039547Y-75508142D01*
X66952696Y-75500271D01*
X66885982Y-75493672D01*
X66844721Y-75488836D01*
X66835494Y-75487280D01*
X66797895Y-75478482D01*
X66797895Y-74216681D01*
X66902827Y-74208258D01*
X67026805Y-74182828D01*
X67136476Y-74129611D01*
X67227844Y-74051963D01*
X67296917Y-73953237D01*
X67338380Y-73842428D01*
X67357829Y-73806480D01*
X67399570Y-73788483D01*
X67401411Y-73788106D01*
X67419033Y-73785947D01*
X67437078Y-73788616D01*
X67458892Y-73798720D01*
X67487823Y-73818863D01*
X67527217Y-73851651D01*
X67580423Y-73899690D01*
X67650786Y-73965584D01*
X67741654Y-74051940D01*
X67747507Y-74057520D01*
X67845044Y-74150405D01*
X67948933Y-74249155D01*
X68052023Y-74346984D01*
X68147161Y-74437107D01*
X68227196Y-74512738D01*
X68245089Y-74529605D01*
X68312556Y-74594265D01*
X68370291Y-74651705D01*
X68414325Y-74697801D01*
X68440686Y-74728431D01*
X68446479Y-74738715D01*
X68434354Y-74754052D01*
X68401090Y-74789917D01*
X68349458Y-74843488D01*
X68282225Y-74911940D01*
X68202163Y-74992447D01*
X68112039Y-75082187D01*
X68037802Y-75155532D01*
X67631723Y-75555409D01*
X67631723Y-75792358D01*
X67647297Y-75778709D01*
X67682929Y-75750429D01*
X67706571Y-75735517D01*
X67717520Y-75732199D01*
X67741414Y-75733456D01*
X67795499Y-75737274D01*
X67876662Y-75743407D01*
X67981790Y-75751607D01*
X68107772Y-75761627D01*
X68251495Y-75773220D01*
X68409846Y-75786140D01*
X68579713Y-75800138D01*
X68715472Y-75811419D01*
X69480894Y-75875250D01*
X69480894Y-75711004D01*
X69464376Y-75710297D01*
X69417855Y-75706969D01*
X69344622Y-75701290D01*
X69247972Y-75693526D01*
X69131195Y-75683943D01*
X68997586Y-75672811D01*
X68850437Y-75660395D01*
X68710729Y-75648480D01*
X68552213Y-75634984D01*
X68402579Y-75622413D01*
X68265398Y-75611055D01*
X68144241Y-75601198D01*
X68042680Y-75593130D01*
X67964288Y-75587140D01*
X67912637Y-75583515D01*
X67892577Y-75582509D01*
X67880092Y-75580940D01*
X67875138Y-75574722D01*
X67879782Y-75561459D01*
X67896091Y-75538753D01*
X67926132Y-75504208D01*
X67971973Y-75455427D01*
X68035680Y-75390013D01*
X68119321Y-75305569D01*
X68208701Y-75215971D01*
X68574814Y-74849574D01*
X68577566Y-74852141D01*
X68577566Y-74609951D01*
X68562450Y-74598913D01*
X68526858Y-74568013D01*
X68474059Y-74520347D01*
X68407327Y-74459013D01*
X68329930Y-74387107D01*
X68245142Y-74307727D01*
X68156233Y-74223969D01*
X68066474Y-74138930D01*
X67979136Y-74055708D01*
X67897491Y-73977399D01*
X67824809Y-73907100D01*
X67764363Y-73847909D01*
X67719422Y-73802922D01*
X67693258Y-73775236D01*
X67687928Y-73767686D01*
X67705133Y-73765197D01*
X67752652Y-73760030D01*
X67827511Y-73752470D01*
X67926736Y-73742800D01*
X68047351Y-73731305D01*
X68186382Y-73718269D01*
X68340855Y-73703976D01*
X68507794Y-73688710D01*
X68642403Y-73676521D01*
X68816946Y-73660929D01*
X68981373Y-73646523D01*
X69132701Y-73633547D01*
X69267947Y-73622241D01*
X69384130Y-73612848D01*
X69478265Y-73605611D01*
X69547370Y-73600772D01*
X69588462Y-73598573D01*
X69599132Y-73598824D01*
X69589628Y-73611970D01*
X69559080Y-73645446D01*
X69510444Y-73696326D01*
X69446677Y-73761683D01*
X69370735Y-73838591D01*
X69285576Y-73924124D01*
X69194155Y-74015354D01*
X69099431Y-74109356D01*
X69004359Y-74203202D01*
X68911897Y-74293967D01*
X68825001Y-74378723D01*
X68746628Y-74454544D01*
X68679735Y-74518503D01*
X68627278Y-74567674D01*
X68592215Y-74599131D01*
X68577566Y-74609951D01*
X68577566Y-74852141D01*
X68721240Y-74986202D01*
X68795552Y-75055784D01*
X68878517Y-75133881D01*
X68966898Y-75217406D01*
X69057459Y-75303270D01*
X69146964Y-75388385D01*
X69232177Y-75469664D01*
X69309861Y-75544019D01*
X69376780Y-75608363D01*
X69429697Y-75659606D01*
X69465377Y-75694663D01*
X69480584Y-75710444D01*
X69480894Y-75711004D01*
X69480894Y-75875250D01*
X69672193Y-75891204D01*
X70511515Y-76689286D01*
X71350836Y-77487368D01*
X71468148Y-77486781D01*
X71585461Y-77486194D01*
X71447747Y-77357275D01*
X71370937Y-77285124D01*
X71280696Y-77199940D01*
X71179425Y-77104021D01*
X71069524Y-76999666D01*
X70953396Y-76889174D01*
X70833442Y-76774844D01*
X70712064Y-76658975D01*
X70591662Y-76543865D01*
X70474638Y-76431814D01*
X70363394Y-76325119D01*
X70260331Y-76226080D01*
X70167850Y-76136997D01*
X70088353Y-76060166D01*
X70024242Y-75997888D01*
X69977917Y-75952462D01*
X69951781Y-75926185D01*
X69946767Y-75920426D01*
X69964209Y-75920030D01*
X70008865Y-75922208D01*
X70074660Y-75926583D01*
X70155517Y-75932775D01*
X70187817Y-75935433D01*
X70424079Y-75955228D01*
X70424079Y-75800242D01*
X70386480Y-75792240D01*
X70356745Y-75788160D01*
X70300797Y-75782425D01*
X70225764Y-75775701D01*
X70138775Y-75768648D01*
X70106579Y-75766207D01*
X70014139Y-75759008D01*
X69928293Y-75751742D01*
X69857153Y-75745136D01*
X69808831Y-75739916D01*
X69800061Y-75738739D01*
X69782058Y-75734298D01*
X69760983Y-75724687D01*
X69734475Y-75707860D01*
X69700172Y-75681775D01*
X69655711Y-75644387D01*
X69598729Y-75593654D01*
X69526864Y-75527530D01*
X69437754Y-75443974D01*
X69329036Y-75340940D01*
X69218725Y-75235833D01*
X69109559Y-75131262D01*
X69008460Y-75033649D01*
X68917885Y-74945422D01*
X68840292Y-74869012D01*
X68778138Y-74806849D01*
X68733882Y-74761363D01*
X68709982Y-74734983D01*
X68706426Y-74729357D01*
X68719319Y-74714557D01*
X68752940Y-74679961D01*
X68803918Y-74628929D01*
X68868880Y-74564817D01*
X68944452Y-74490984D01*
X68999507Y-74437589D01*
X69287763Y-74158827D01*
X69287763Y-74980790D01*
X69605263Y-74980790D01*
X69605263Y-73978158D01*
X69463794Y-73978158D01*
X69647040Y-73794342D01*
X69777029Y-73663948D01*
X69777029Y-73410000D01*
X69756523Y-73407571D01*
X69745098Y-73395276D01*
X69740120Y-73365604D01*
X69738956Y-73311045D01*
X69738948Y-73301382D01*
X69738948Y-73192763D01*
X70030416Y-73192763D01*
X69922763Y-73301382D01*
X69857313Y-73362654D01*
X69807171Y-73399301D01*
X69777029Y-73410000D01*
X69777029Y-73663948D01*
X69830285Y-73610526D01*
X69993498Y-73610526D01*
X70068586Y-73610015D01*
X70116355Y-73607672D01*
X70142902Y-73602289D01*
X70154321Y-73592656D01*
X70156711Y-73578129D01*
X70160220Y-73561973D01*
X70174289Y-73550031D01*
X70204231Y-73540861D01*
X70255358Y-73533018D01*
X70332983Y-73525058D01*
X70361415Y-73522504D01*
X70424079Y-73516974D01*
X70424079Y-75800242D01*
X70424079Y-75955228D01*
X70424079Y-76167237D01*
X70574474Y-76167237D01*
X70574474Y-76077141D01*
X70575917Y-76024445D01*
X70582884Y-75995812D01*
X70587030Y-75992309D01*
X70587030Y-75807766D01*
X70577558Y-75798054D01*
X70574634Y-75764412D01*
X70574474Y-75741706D01*
X70574474Y-75665921D01*
X70574474Y-75383306D01*
X70574474Y-73503481D01*
X70639587Y-73567062D01*
X70719938Y-73665814D01*
X70781911Y-73788032D01*
X70826354Y-73935787D01*
X70850935Y-74082599D01*
X70862404Y-74178684D01*
X70741579Y-74178684D01*
X70741579Y-74947368D01*
X70878655Y-74947368D01*
X70867224Y-75060165D01*
X70857575Y-75138975D01*
X70844786Y-75222943D01*
X70835652Y-75273224D01*
X70815512Y-75373487D01*
X70694993Y-75378397D01*
X70574474Y-75383306D01*
X70574474Y-75665921D01*
X70641316Y-75665921D01*
X70683190Y-75668131D01*
X70706464Y-75673650D01*
X70708158Y-75675874D01*
X70697440Y-75700613D01*
X70671437Y-75736757D01*
X70639377Y-75772990D01*
X70610489Y-75797999D01*
X70606733Y-75800227D01*
X70587030Y-75807766D01*
X70587030Y-75992309D01*
X70599326Y-75981919D01*
X70617238Y-75976311D01*
X70663721Y-75953422D01*
X70719600Y-75909460D01*
X70777040Y-75851989D01*
X70828207Y-75788573D01*
X70854857Y-75746918D01*
X70884028Y-75699466D01*
X70908533Y-75675141D01*
X70937428Y-75666595D01*
X70954638Y-75665938D01*
X70958816Y-75665937D01*
X70958816Y-74813684D01*
X70875263Y-74813684D01*
X70875263Y-74312368D01*
X70958816Y-74312368D01*
X70958816Y-74813684D01*
X70958816Y-75665937D01*
X71008948Y-75665921D01*
X71008948Y-75525274D01*
X71007383Y-75460564D01*
X71003215Y-75410130D01*
X70997227Y-75382094D01*
X70994803Y-75379057D01*
X70991082Y-75361273D01*
X70992606Y-75317992D01*
X70998925Y-75256651D01*
X71004760Y-75214737D01*
X71016222Y-75138737D01*
X71026570Y-75069230D01*
X71034204Y-75016997D01*
X71036373Y-75001678D01*
X71048768Y-74961653D01*
X71068192Y-74947368D01*
X71076102Y-74943025D01*
X71082137Y-74927490D01*
X71086534Y-74897001D01*
X71089531Y-74847800D01*
X71091365Y-74776126D01*
X71092275Y-74678219D01*
X71092500Y-74563026D01*
X71092372Y-74440086D01*
X71091770Y-74346559D01*
X71090361Y-74278440D01*
X71087819Y-74231719D01*
X71083811Y-74202391D01*
X71078009Y-74186449D01*
X71070083Y-74179885D01*
X71060867Y-74178684D01*
X71031615Y-74168460D01*
X71014969Y-74134970D01*
X71009032Y-74073988D01*
X71008948Y-74063017D01*
X70998294Y-73959746D01*
X70968967Y-73842453D01*
X70924916Y-73721715D01*
X70870089Y-73608111D01*
X70808436Y-73512219D01*
X70798668Y-73499799D01*
X70766885Y-73459318D01*
X70754156Y-73435345D01*
X70758271Y-73418604D01*
X70775250Y-73401419D01*
X70808508Y-73350664D01*
X70821275Y-73284607D01*
X70814635Y-73213474D01*
X70789673Y-73147486D01*
X70747471Y-73096868D01*
X70742566Y-73093203D01*
X70663789Y-73055328D01*
X70582246Y-73048281D01*
X70504513Y-73071285D01*
X70437165Y-73123563D01*
X70431604Y-73129956D01*
X70405187Y-73167073D01*
X70393553Y-73204733D01*
X70392713Y-73257676D01*
X70393458Y-73270902D01*
X70395359Y-73322703D01*
X70391004Y-73349386D01*
X70377862Y-73359045D01*
X70365592Y-73360037D01*
X70329998Y-73362061D01*
X70276467Y-73367086D01*
X70244441Y-73370697D01*
X70193573Y-73375934D01*
X70167532Y-73373756D01*
X70158014Y-73361125D01*
X70156711Y-73338625D01*
X70161014Y-73325282D01*
X70174943Y-73303756D01*
X70200023Y-73272452D01*
X70237781Y-73229776D01*
X70289744Y-73174132D01*
X70357438Y-73103925D01*
X70442389Y-73017560D01*
X70546125Y-72913442D01*
X70670172Y-72789975D01*
X70816056Y-72645564D01*
X70886551Y-72575969D01*
X71616390Y-71855921D01*
X71500663Y-71856744D01*
G36*
X63589474Y-72357237D02*
G01*
X63589474Y-77036184D01*
X64742500Y-77036184D01*
X64742500Y-72357237D01*
X63589474Y-72357237D01*
G37*
X63589474Y-72357237D02*
X63589474Y-77036184D01*
X64742500Y-77036184D01*
X64742500Y-72357237D01*
X63589474Y-72357237D01*
G36*
X101491337Y-87820975D02*
G01*
X100963042Y-87821400D01*
X100472315Y-87822110D01*
X100020210Y-87823099D01*
X99607782Y-87824361D01*
X99236085Y-87825889D01*
X98906173Y-87827679D01*
X98619102Y-87829724D01*
X98375926Y-87832017D01*
X98177699Y-87834553D01*
X98025475Y-87837326D01*
X97920310Y-87840329D01*
X97863257Y-87843557D01*
X97853909Y-87844975D01*
X97718264Y-87906945D01*
X97599493Y-88004463D01*
X97527628Y-88100136D01*
X97506740Y-88139077D01*
X97491148Y-88177987D01*
X97479916Y-88224898D01*
X97472107Y-88287843D01*
X97466787Y-88374854D01*
X97463018Y-88493965D01*
X97459866Y-88653207D01*
X97459293Y-88686669D01*
X97457713Y-88888256D01*
X97460206Y-89055873D01*
X97466609Y-89184694D01*
X97476759Y-89269891D01*
X97479400Y-89281982D01*
X97540543Y-89436523D01*
X97637876Y-89561431D01*
X97734432Y-89633310D01*
X97839511Y-89693496D01*
X101671836Y-89707866D01*
X102186343Y-89709832D01*
X102653644Y-89711709D01*
X103076140Y-89713532D01*
X103456234Y-89715334D01*
X103796327Y-89717149D01*
X104098823Y-89719008D01*
X104366123Y-89720947D01*
X104600630Y-89722999D01*
X104804746Y-89725196D01*
X104980873Y-89727573D01*
X105131413Y-89730162D01*
X105258769Y-89732997D01*
X105365343Y-89736112D01*
X105453538Y-89739540D01*
X105525755Y-89743314D01*
X105584397Y-89747468D01*
X105631866Y-89752036D01*
X105670564Y-89757049D01*
X105702894Y-89762543D01*
X105710448Y-89764033D01*
X105859992Y-89797651D01*
X105971608Y-89832086D01*
X106056788Y-89872462D01*
X106127027Y-89923902D01*
X106175441Y-89971354D01*
X106259503Y-90071658D01*
X106311495Y-90164235D01*
X106341031Y-90268252D01*
X106348607Y-90316565D01*
X106348988Y-90482133D01*
X106303855Y-90628338D01*
X106213498Y-90754877D01*
X106078205Y-90861445D01*
X105898265Y-90947739D01*
X105690195Y-91009741D01*
X105657732Y-91016550D01*
X105620019Y-91022669D01*
X105574184Y-91028156D01*
X105517349Y-91033069D01*
X105446642Y-91037469D01*
X105359186Y-91041412D01*
X105252107Y-91044957D01*
X105122531Y-91048163D01*
X104967582Y-91051089D01*
X104784386Y-91053792D01*
X104570067Y-91056332D01*
X104321752Y-91058766D01*
X104036565Y-91061154D01*
X103711631Y-91063553D01*
X103344076Y-91066023D01*
X102931025Y-91068621D01*
X102738437Y-91069794D01*
X102308368Y-91072416D01*
X101924982Y-91074833D01*
X101585354Y-91077112D01*
X101286559Y-91079320D01*
X101025670Y-91081524D01*
X100799764Y-91083791D01*
X100605913Y-91086188D01*
X100441193Y-91088783D01*
X100302679Y-91091642D01*
X100187445Y-91094832D01*
X100092566Y-91098422D01*
X100015116Y-91102477D01*
X99952169Y-91107064D01*
X99900802Y-91112252D01*
X99858087Y-91118107D01*
X99821100Y-91124696D01*
X99786916Y-91132087D01*
X99761875Y-91138069D01*
X99480681Y-91216009D01*
X99237342Y-91303870D01*
X99067343Y-91381425D01*
X98769699Y-91558060D01*
X98492570Y-91776049D01*
X98239907Y-92029985D01*
X98015657Y-92314461D01*
X97823769Y-92624071D01*
X97668191Y-92953408D01*
X97552873Y-93297065D01*
X97501328Y-93525820D01*
X97484428Y-93657489D01*
X97473343Y-93825393D01*
X97467958Y-94016517D01*
X97468161Y-94217842D01*
X97473836Y-94416352D01*
X97484869Y-94599029D01*
X97501147Y-94752856D01*
X97512697Y-94822483D01*
X97608319Y-95191703D01*
X97743085Y-95531837D01*
X97919156Y-95846865D01*
X98138694Y-96140764D01*
X98352133Y-96368271D01*
X98620925Y-96606362D01*
X98892961Y-96799868D01*
X99176043Y-96953603D01*
X99477973Y-97072383D01*
X99509571Y-97082545D01*
X99565827Y-97100398D01*
X99617847Y-97116653D01*
X99668078Y-97131387D01*
X99718967Y-97144672D01*
X99772963Y-97156583D01*
X99832513Y-97167195D01*
X99900064Y-97176580D01*
X99978066Y-97184814D01*
X100068965Y-97191970D01*
X100175209Y-97198123D01*
X100299247Y-97203346D01*
X100443525Y-97207714D01*
X100610492Y-97211302D01*
X100802595Y-97214182D01*
X101022282Y-97216430D01*
X101272001Y-97218119D01*
X101554200Y-97219324D01*
X101871326Y-97220118D01*
X102225828Y-97220576D01*
X102620152Y-97220773D01*
X103056747Y-97220781D01*
X103538061Y-97220675D01*
X104065488Y-97220530D01*
X104598990Y-97220324D01*
X105084921Y-97219977D01*
X105525321Y-97219473D01*
X105922230Y-97218794D01*
X106277686Y-97217923D01*
X106593729Y-97216845D01*
X106872397Y-97215541D01*
X107115729Y-97213996D01*
X107325766Y-97212191D01*
X107504546Y-97210111D01*
X107654108Y-97207737D01*
X107776491Y-97205055D01*
X107873735Y-97202045D01*
X107947878Y-97198692D01*
X108000960Y-97194979D01*
X108035020Y-97190888D01*
X108049491Y-97187498D01*
X108198355Y-97111570D01*
X108310365Y-97004157D01*
X108351059Y-96940577D01*
X108368989Y-96904602D01*
X108382559Y-96867825D01*
X108392376Y-96823008D01*
X108399043Y-96762915D01*
X108403164Y-96680311D01*
X108405345Y-96567957D01*
X108406189Y-96418619D01*
X108406308Y-96279141D01*
X108406308Y-95721035D01*
X108337436Y-95603872D01*
X108237641Y-95481456D01*
X108151401Y-95417837D01*
X108034238Y-95348965D01*
X104425156Y-95335035D01*
X103912616Y-95333045D01*
X103447194Y-95331164D01*
X103026401Y-95329306D01*
X102647746Y-95327388D01*
X102308739Y-95325326D01*
X102006890Y-95323034D01*
X101739708Y-95320429D01*
X101504703Y-95317427D01*
X101299386Y-95313941D01*
X101121265Y-95309890D01*
X100967851Y-95305187D01*
X100836653Y-95299749D01*
X100725181Y-95293491D01*
X100630945Y-95286329D01*
X100551454Y-95278178D01*
X100484218Y-95268955D01*
X100426748Y-95258574D01*
X100376552Y-95246951D01*
X100331141Y-95234003D01*
X100288023Y-95219644D01*
X100244710Y-95203790D01*
X100214507Y-95192353D01*
X100098594Y-95133606D01*
X99969260Y-95044449D01*
X99839995Y-94936149D01*
X99724288Y-94819972D01*
X99638029Y-94710811D01*
X99546233Y-94549953D01*
X99491013Y-94390511D01*
X99468021Y-94216113D01*
X99468889Y-94073961D01*
X99494145Y-93874646D01*
X99552400Y-93702884D01*
X99649173Y-93544929D01*
X99711480Y-93469354D01*
X99865108Y-93325911D01*
X100052179Y-93197507D01*
X100256916Y-93092979D01*
X100463543Y-93021160D01*
X100543222Y-93003564D01*
X100586319Y-92998232D01*
X100655481Y-92993278D01*
X100752742Y-92988671D01*
X100880134Y-92984376D01*
X101039690Y-92980362D01*
X101233443Y-92976596D01*
X101463425Y-92973044D01*
X101731669Y-92969674D01*
X102040207Y-92966453D01*
X102391073Y-92963347D01*
X102786299Y-92960325D01*
X103227917Y-92957353D01*
X103507383Y-92955632D01*
X103942765Y-92952980D01*
X104331401Y-92950483D01*
X104676153Y-92948081D01*
X104979881Y-92945718D01*
X105245449Y-92943335D01*
X105475719Y-92940875D01*
X105673552Y-92938279D01*
X105841810Y-92935490D01*
X105983357Y-92932451D01*
X106101053Y-92929102D01*
X106197761Y-92925386D01*
X106276344Y-92921246D01*
X106339662Y-92916623D01*
X106390578Y-92911460D01*
X106431955Y-92905698D01*
X106466654Y-92899280D01*
X106483945Y-92895446D01*
X106795003Y-92808481D01*
X107067949Y-92700172D01*
X107311419Y-92565778D01*
X107534049Y-92400563D01*
X107736690Y-92208026D01*
X107880028Y-92046507D01*
X107999520Y-91886160D01*
X108106415Y-91710300D01*
X108210414Y-91505521D01*
X108293948Y-91313769D01*
X108354811Y-91133789D01*
X108396596Y-90950099D01*
X108422894Y-90747214D01*
X108436458Y-90531347D01*
X108433213Y-90147499D01*
X108390765Y-89792873D01*
X108308551Y-89465577D01*
X108186005Y-89163717D01*
X108022564Y-88885400D01*
X107896240Y-88718761D01*
X107729505Y-88542055D01*
X107531028Y-88370968D01*
X107313254Y-88214129D01*
X107088631Y-88080170D01*
X106869605Y-87977718D01*
X106781601Y-87945940D01*
X106733510Y-87930288D01*
X106688352Y-87915999D01*
X106643779Y-87903012D01*
X106597440Y-87891265D01*
X106546984Y-87880696D01*
X106490062Y-87871241D01*
X106424322Y-87862840D01*
X106347416Y-87855429D01*
X106256992Y-87848947D01*
X106150701Y-87843331D01*
X106026192Y-87838519D01*
X105881114Y-87834449D01*
X105713119Y-87831058D01*
X105519855Y-87828285D01*
X105298971Y-87826067D01*
X105048119Y-87824342D01*
X104764948Y-87823048D01*
X104447107Y-87822123D01*
X104092246Y-87821504D01*
X103698015Y-87821128D01*
X103262063Y-87820935D01*
X102782041Y-87820862D01*
X102255599Y-87820846D01*
X102056145Y-87820842D01*
X101491337Y-87820975D01*
G37*
X101491337Y-87820975D02*
X100963042Y-87821400D01*
X100472315Y-87822110D01*
X100020210Y-87823099D01*
X99607782Y-87824361D01*
X99236085Y-87825889D01*
X98906173Y-87827679D01*
X98619102Y-87829724D01*
X98375926Y-87832017D01*
X98177699Y-87834553D01*
X98025475Y-87837326D01*
X97920310Y-87840329D01*
X97863257Y-87843557D01*
X97853909Y-87844975D01*
X97718264Y-87906945D01*
X97599493Y-88004463D01*
X97527628Y-88100136D01*
X97506740Y-88139077D01*
X97491148Y-88177987D01*
X97479916Y-88224898D01*
X97472107Y-88287843D01*
X97466787Y-88374854D01*
X97463018Y-88493965D01*
X97459866Y-88653207D01*
X97459293Y-88686669D01*
X97457713Y-88888256D01*
X97460206Y-89055873D01*
X97466609Y-89184694D01*
X97476759Y-89269891D01*
X97479400Y-89281982D01*
X97540543Y-89436523D01*
X97637876Y-89561431D01*
X97734432Y-89633310D01*
X97839511Y-89693496D01*
X101671836Y-89707866D01*
X102186343Y-89709832D01*
X102653644Y-89711709D01*
X103076140Y-89713532D01*
X103456234Y-89715334D01*
X103796327Y-89717149D01*
X104098823Y-89719008D01*
X104366123Y-89720947D01*
X104600630Y-89722999D01*
X104804746Y-89725196D01*
X104980873Y-89727573D01*
X105131413Y-89730162D01*
X105258769Y-89732997D01*
X105365343Y-89736112D01*
X105453538Y-89739540D01*
X105525755Y-89743314D01*
X105584397Y-89747468D01*
X105631866Y-89752036D01*
X105670564Y-89757049D01*
X105702894Y-89762543D01*
X105710448Y-89764033D01*
X105859992Y-89797651D01*
X105971608Y-89832086D01*
X106056788Y-89872462D01*
X106127027Y-89923902D01*
X106175441Y-89971354D01*
X106259503Y-90071658D01*
X106311495Y-90164235D01*
X106341031Y-90268252D01*
X106348607Y-90316565D01*
X106348988Y-90482133D01*
X106303855Y-90628338D01*
X106213498Y-90754877D01*
X106078205Y-90861445D01*
X105898265Y-90947739D01*
X105690195Y-91009741D01*
X105657732Y-91016550D01*
X105620019Y-91022669D01*
X105574184Y-91028156D01*
X105517349Y-91033069D01*
X105446642Y-91037469D01*
X105359186Y-91041412D01*
X105252107Y-91044957D01*
X105122531Y-91048163D01*
X104967582Y-91051089D01*
X104784386Y-91053792D01*
X104570067Y-91056332D01*
X104321752Y-91058766D01*
X104036565Y-91061154D01*
X103711631Y-91063553D01*
X103344076Y-91066023D01*
X102931025Y-91068621D01*
X102738437Y-91069794D01*
X102308368Y-91072416D01*
X101924982Y-91074833D01*
X101585354Y-91077112D01*
X101286559Y-91079320D01*
X101025670Y-91081524D01*
X100799764Y-91083791D01*
X100605913Y-91086188D01*
X100441193Y-91088783D01*
X100302679Y-91091642D01*
X100187445Y-91094832D01*
X100092566Y-91098422D01*
X100015116Y-91102477D01*
X99952169Y-91107064D01*
X99900802Y-91112252D01*
X99858087Y-91118107D01*
X99821100Y-91124696D01*
X99786916Y-91132087D01*
X99761875Y-91138069D01*
X99480681Y-91216009D01*
X99237342Y-91303870D01*
X99067343Y-91381425D01*
X98769699Y-91558060D01*
X98492570Y-91776049D01*
X98239907Y-92029985D01*
X98015657Y-92314461D01*
X97823769Y-92624071D01*
X97668191Y-92953408D01*
X97552873Y-93297065D01*
X97501328Y-93525820D01*
X97484428Y-93657489D01*
X97473343Y-93825393D01*
X97467958Y-94016517D01*
X97468161Y-94217842D01*
X97473836Y-94416352D01*
X97484869Y-94599029D01*
X97501147Y-94752856D01*
X97512697Y-94822483D01*
X97608319Y-95191703D01*
X97743085Y-95531837D01*
X97919156Y-95846865D01*
X98138694Y-96140764D01*
X98352133Y-96368271D01*
X98620925Y-96606362D01*
X98892961Y-96799868D01*
X99176043Y-96953603D01*
X99477973Y-97072383D01*
X99509571Y-97082545D01*
X99565827Y-97100398D01*
X99617847Y-97116653D01*
X99668078Y-97131387D01*
X99718967Y-97144672D01*
X99772963Y-97156583D01*
X99832513Y-97167195D01*
X99900064Y-97176580D01*
X99978066Y-97184814D01*
X100068965Y-97191970D01*
X100175209Y-97198123D01*
X100299247Y-97203346D01*
X100443525Y-97207714D01*
X100610492Y-97211302D01*
X100802595Y-97214182D01*
X101022282Y-97216430D01*
X101272001Y-97218119D01*
X101554200Y-97219324D01*
X101871326Y-97220118D01*
X102225828Y-97220576D01*
X102620152Y-97220773D01*
X103056747Y-97220781D01*
X103538061Y-97220675D01*
X104065488Y-97220530D01*
X104598990Y-97220324D01*
X105084921Y-97219977D01*
X105525321Y-97219473D01*
X105922230Y-97218794D01*
X106277686Y-97217923D01*
X106593729Y-97216845D01*
X106872397Y-97215541D01*
X107115729Y-97213996D01*
X107325766Y-97212191D01*
X107504546Y-97210111D01*
X107654108Y-97207737D01*
X107776491Y-97205055D01*
X107873735Y-97202045D01*
X107947878Y-97198692D01*
X108000960Y-97194979D01*
X108035020Y-97190888D01*
X108049491Y-97187498D01*
X108198355Y-97111570D01*
X108310365Y-97004157D01*
X108351059Y-96940577D01*
X108368989Y-96904602D01*
X108382559Y-96867825D01*
X108392376Y-96823008D01*
X108399043Y-96762915D01*
X108403164Y-96680311D01*
X108405345Y-96567957D01*
X108406189Y-96418619D01*
X108406308Y-96279141D01*
X108406308Y-95721035D01*
X108337436Y-95603872D01*
X108237641Y-95481456D01*
X108151401Y-95417837D01*
X108034238Y-95348965D01*
X104425156Y-95335035D01*
X103912616Y-95333045D01*
X103447194Y-95331164D01*
X103026401Y-95329306D01*
X102647746Y-95327388D01*
X102308739Y-95325326D01*
X102006890Y-95323034D01*
X101739708Y-95320429D01*
X101504703Y-95317427D01*
X101299386Y-95313941D01*
X101121265Y-95309890D01*
X100967851Y-95305187D01*
X100836653Y-95299749D01*
X100725181Y-95293491D01*
X100630945Y-95286329D01*
X100551454Y-95278178D01*
X100484218Y-95268955D01*
X100426748Y-95258574D01*
X100376552Y-95246951D01*
X100331141Y-95234003D01*
X100288023Y-95219644D01*
X100244710Y-95203790D01*
X100214507Y-95192353D01*
X100098594Y-95133606D01*
X99969260Y-95044449D01*
X99839995Y-94936149D01*
X99724288Y-94819972D01*
X99638029Y-94710811D01*
X99546233Y-94549953D01*
X99491013Y-94390511D01*
X99468021Y-94216113D01*
X99468889Y-94073961D01*
X99494145Y-93874646D01*
X99552400Y-93702884D01*
X99649173Y-93544929D01*
X99711480Y-93469354D01*
X99865108Y-93325911D01*
X100052179Y-93197507D01*
X100256916Y-93092979D01*
X100463543Y-93021160D01*
X100543222Y-93003564D01*
X100586319Y-92998232D01*
X100655481Y-92993278D01*
X100752742Y-92988671D01*
X100880134Y-92984376D01*
X101039690Y-92980362D01*
X101233443Y-92976596D01*
X101463425Y-92973044D01*
X101731669Y-92969674D01*
X102040207Y-92966453D01*
X102391073Y-92963347D01*
X102786299Y-92960325D01*
X103227917Y-92957353D01*
X103507383Y-92955632D01*
X103942765Y-92952980D01*
X104331401Y-92950483D01*
X104676153Y-92948081D01*
X104979881Y-92945718D01*
X105245449Y-92943335D01*
X105475719Y-92940875D01*
X105673552Y-92938279D01*
X105841810Y-92935490D01*
X105983357Y-92932451D01*
X106101053Y-92929102D01*
X106197761Y-92925386D01*
X106276344Y-92921246D01*
X106339662Y-92916623D01*
X106390578Y-92911460D01*
X106431955Y-92905698D01*
X106466654Y-92899280D01*
X106483945Y-92895446D01*
X106795003Y-92808481D01*
X107067949Y-92700172D01*
X107311419Y-92565778D01*
X107534049Y-92400563D01*
X107736690Y-92208026D01*
X107880028Y-92046507D01*
X107999520Y-91886160D01*
X108106415Y-91710300D01*
X108210414Y-91505521D01*
X108293948Y-91313769D01*
X108354811Y-91133789D01*
X108396596Y-90950099D01*
X108422894Y-90747214D01*
X108436458Y-90531347D01*
X108433213Y-90147499D01*
X108390765Y-89792873D01*
X108308551Y-89465577D01*
X108186005Y-89163717D01*
X108022564Y-88885400D01*
X107896240Y-88718761D01*
X107729505Y-88542055D01*
X107531028Y-88370968D01*
X107313254Y-88214129D01*
X107088631Y-88080170D01*
X106869605Y-87977718D01*
X106781601Y-87945940D01*
X106733510Y-87930288D01*
X106688352Y-87915999D01*
X106643779Y-87903012D01*
X106597440Y-87891265D01*
X106546984Y-87880696D01*
X106490062Y-87871241D01*
X106424322Y-87862840D01*
X106347416Y-87855429D01*
X106256992Y-87848947D01*
X106150701Y-87843331D01*
X106026192Y-87838519D01*
X105881114Y-87834449D01*
X105713119Y-87831058D01*
X105519855Y-87828285D01*
X105298971Y-87826067D01*
X105048119Y-87824342D01*
X104764948Y-87823048D01*
X104447107Y-87822123D01*
X104092246Y-87821504D01*
X103698015Y-87821128D01*
X103262063Y-87820935D01*
X102782041Y-87820862D01*
X102255599Y-87820846D01*
X102056145Y-87820842D01*
X101491337Y-87820975D01*
G36*
X109692319Y-87824796D02*
G01*
X109597212Y-87828001D01*
X109544438Y-87832281D01*
X109418245Y-87872550D01*
X109296302Y-87948530D01*
X109196019Y-88048102D01*
X109161834Y-88098699D01*
X109100840Y-88205215D01*
X109093503Y-92459219D01*
X109092592Y-93044786D01*
X109091971Y-93582127D01*
X109091644Y-94072624D01*
X109091619Y-94517659D01*
X109091903Y-94918615D01*
X109092501Y-95276873D01*
X109093421Y-95593817D01*
X109094669Y-95870828D01*
X109096251Y-96109289D01*
X109098174Y-96310582D01*
X109100445Y-96476089D01*
X109103070Y-96607192D01*
X109106055Y-96705274D01*
X109109408Y-96771717D01*
X109113135Y-96807904D01*
X109114141Y-96812441D01*
X109180656Y-96965354D01*
X109283768Y-97086127D01*
X109393768Y-97158886D01*
X109438484Y-97180264D01*
X109480091Y-97196128D01*
X109526685Y-97207279D01*
X109586362Y-97214518D01*
X109667221Y-97218649D01*
X109777357Y-97220472D01*
X109924868Y-97220790D01*
X110017282Y-97220630D01*
X110227765Y-97218568D01*
X110391189Y-97213316D01*
X110510007Y-97204736D01*
X110586675Y-97192690D01*
X110604374Y-97187498D01*
X110743859Y-97117987D01*
X110848227Y-97018356D01*
X110910328Y-96916444D01*
X110974149Y-96785998D01*
X110967670Y-92495607D01*
X110961191Y-88205215D01*
X110892319Y-88088052D01*
X110792523Y-87965635D01*
X110706284Y-87902017D01*
X110663994Y-87878025D01*
X110625010Y-87860227D01*
X110581070Y-87847538D01*
X110523914Y-87838876D01*
X110445281Y-87833157D01*
X110336909Y-87829298D01*
X110190538Y-87826214D01*
X110118616Y-87824939D01*
X109963049Y-87823138D01*
X109817607Y-87823133D01*
X109692319Y-87824796D01*
G37*
X109692319Y-87824796D02*
X109597212Y-87828001D01*
X109544438Y-87832281D01*
X109418245Y-87872550D01*
X109296302Y-87948530D01*
X109196019Y-88048102D01*
X109161834Y-88098699D01*
X109100840Y-88205215D01*
X109093503Y-92459219D01*
X109092592Y-93044786D01*
X109091971Y-93582127D01*
X109091644Y-94072624D01*
X109091619Y-94517659D01*
X109091903Y-94918615D01*
X109092501Y-95276873D01*
X109093421Y-95593817D01*
X109094669Y-95870828D01*
X109096251Y-96109289D01*
X109098174Y-96310582D01*
X109100445Y-96476089D01*
X109103070Y-96607192D01*
X109106055Y-96705274D01*
X109109408Y-96771717D01*
X109113135Y-96807904D01*
X109114141Y-96812441D01*
X109180656Y-96965354D01*
X109283768Y-97086127D01*
X109393768Y-97158886D01*
X109438484Y-97180264D01*
X109480091Y-97196128D01*
X109526685Y-97207279D01*
X109586362Y-97214518D01*
X109667221Y-97218649D01*
X109777357Y-97220472D01*
X109924868Y-97220790D01*
X110017282Y-97220630D01*
X110227765Y-97218568D01*
X110391189Y-97213316D01*
X110510007Y-97204736D01*
X110586675Y-97192690D01*
X110604374Y-97187498D01*
X110743859Y-97117987D01*
X110848227Y-97018356D01*
X110910328Y-96916444D01*
X110974149Y-96785998D01*
X110967670Y-92495607D01*
X110961191Y-88205215D01*
X110892319Y-88088052D01*
X110792523Y-87965635D01*
X110706284Y-87902017D01*
X110663994Y-87878025D01*
X110625010Y-87860227D01*
X110581070Y-87847538D01*
X110523914Y-87838876D01*
X110445281Y-87833157D01*
X110336909Y-87829298D01*
X110190538Y-87826214D01*
X110118616Y-87824939D01*
X109963049Y-87823138D01*
X109817607Y-87823133D01*
X109692319Y-87824796D01*
G36*
X115654813Y-87820975D02*
G01*
X115126518Y-87821400D01*
X114635791Y-87822110D01*
X114183686Y-87823099D01*
X113771258Y-87824361D01*
X113399561Y-87825889D01*
X113069650Y-87827679D01*
X112782579Y-87829724D01*
X112539402Y-87832017D01*
X112341175Y-87834553D01*
X112188952Y-87837326D01*
X112083786Y-87840329D01*
X112026734Y-87843557D01*
X112017386Y-87844975D01*
X111881741Y-87906945D01*
X111762969Y-88004463D01*
X111691104Y-88100136D01*
X111670217Y-88139077D01*
X111654625Y-88177987D01*
X111643392Y-88224898D01*
X111635584Y-88287843D01*
X111630263Y-88374854D01*
X111626495Y-88493965D01*
X111623343Y-88653207D01*
X111622770Y-88686669D01*
X111621189Y-88888256D01*
X111623682Y-89055873D01*
X111630085Y-89184694D01*
X111640236Y-89269891D01*
X111642876Y-89281982D01*
X111704020Y-89436523D01*
X111801353Y-89561431D01*
X111897909Y-89633310D01*
X112002988Y-89693496D01*
X115835312Y-89707866D01*
X116349820Y-89709832D01*
X116817121Y-89711709D01*
X117239617Y-89713532D01*
X117619711Y-89715334D01*
X117959804Y-89717149D01*
X118262300Y-89719008D01*
X118529600Y-89720947D01*
X118764107Y-89722999D01*
X118968222Y-89725196D01*
X119144349Y-89727573D01*
X119294889Y-89730162D01*
X119422246Y-89732997D01*
X119528820Y-89736112D01*
X119617014Y-89739540D01*
X119689231Y-89743314D01*
X119747873Y-89747468D01*
X119795342Y-89752036D01*
X119834041Y-89757049D01*
X119866371Y-89762543D01*
X119873924Y-89764033D01*
X120023469Y-89797651D01*
X120135084Y-89832086D01*
X120220265Y-89872462D01*
X120290504Y-89923902D01*
X120338917Y-89971354D01*
X120422980Y-90071658D01*
X120474971Y-90164235D01*
X120504507Y-90268252D01*
X120512083Y-90316565D01*
X120512464Y-90482133D01*
X120467332Y-90628338D01*
X120376975Y-90754877D01*
X120241681Y-90861445D01*
X120061742Y-90947739D01*
X119853672Y-91009741D01*
X119821208Y-91016550D01*
X119783496Y-91022669D01*
X119737660Y-91028156D01*
X119680826Y-91033069D01*
X119610118Y-91037469D01*
X119522662Y-91041412D01*
X119415584Y-91044957D01*
X119286007Y-91048163D01*
X119131059Y-91051089D01*
X118947862Y-91053792D01*
X118733544Y-91056332D01*
X118485229Y-91058766D01*
X118200041Y-91061154D01*
X117875108Y-91063553D01*
X117507552Y-91066023D01*
X117094501Y-91068621D01*
X116901914Y-91069794D01*
X116471845Y-91072416D01*
X116088459Y-91074833D01*
X115748831Y-91077112D01*
X115450035Y-91079320D01*
X115189147Y-91081524D01*
X114963240Y-91083791D01*
X114769390Y-91086188D01*
X114604670Y-91088783D01*
X114466156Y-91091642D01*
X114350922Y-91094832D01*
X114256042Y-91098422D01*
X114178592Y-91102477D01*
X114115646Y-91107064D01*
X114064278Y-91112252D01*
X114021564Y-91118107D01*
X113984577Y-91124696D01*
X113950392Y-91132087D01*
X113925351Y-91138069D01*
X113644158Y-91216009D01*
X113400819Y-91303870D01*
X113230820Y-91381425D01*
X112933175Y-91558060D01*
X112656047Y-91776049D01*
X112403383Y-92029985D01*
X112179133Y-92314461D01*
X111987245Y-92624071D01*
X111831668Y-92953408D01*
X111716350Y-93297065D01*
X111664805Y-93525820D01*
X111647904Y-93657489D01*
X111636819Y-93825393D01*
X111631435Y-94016517D01*
X111631637Y-94217842D01*
X111637312Y-94416352D01*
X111648346Y-94599029D01*
X111664624Y-94752856D01*
X111676174Y-94822483D01*
X111771795Y-95191703D01*
X111906562Y-95531837D01*
X112082633Y-95846865D01*
X112302170Y-96140764D01*
X112515610Y-96368271D01*
X112784402Y-96606362D01*
X113056438Y-96799868D01*
X113339520Y-96953603D01*
X113641450Y-97072383D01*
X113673047Y-97082545D01*
X113729304Y-97100398D01*
X113781324Y-97116653D01*
X113831554Y-97131387D01*
X113882444Y-97144672D01*
X113936439Y-97156583D01*
X113995989Y-97167195D01*
X114063541Y-97176580D01*
X114141543Y-97184814D01*
X114232442Y-97191970D01*
X114338686Y-97198123D01*
X114462723Y-97203346D01*
X114607002Y-97207714D01*
X114773968Y-97211302D01*
X114966072Y-97214182D01*
X115185759Y-97216430D01*
X115435478Y-97218119D01*
X115717677Y-97219324D01*
X116034803Y-97220118D01*
X116389304Y-97220576D01*
X116783629Y-97220773D01*
X117220224Y-97220781D01*
X117701537Y-97220675D01*
X118228965Y-97220530D01*
X118762466Y-97220324D01*
X119248397Y-97219977D01*
X119688798Y-97219473D01*
X120085707Y-97218794D01*
X120441163Y-97217923D01*
X120757205Y-97216845D01*
X121035873Y-97215541D01*
X121279206Y-97213996D01*
X121489243Y-97212191D01*
X121668023Y-97210111D01*
X121817584Y-97207737D01*
X121939968Y-97205055D01*
X122037211Y-97202045D01*
X122111355Y-97198692D01*
X122164437Y-97194979D01*
X122198497Y-97190888D01*
X122212968Y-97187498D01*
X122361832Y-97111570D01*
X122473842Y-97004157D01*
X122514536Y-96940577D01*
X122532465Y-96904602D01*
X122546036Y-96867825D01*
X122555853Y-96823008D01*
X122562519Y-96762915D01*
X122566641Y-96680311D01*
X122568821Y-96567957D01*
X122569665Y-96418619D01*
X122569785Y-96279141D01*
X122569785Y-95721035D01*
X122500913Y-95603872D01*
X122401117Y-95481456D01*
X122314878Y-95417837D01*
X122197715Y-95348965D01*
X118588633Y-95335035D01*
X118076092Y-95333045D01*
X117610670Y-95331164D01*
X117189877Y-95329306D01*
X116811222Y-95327388D01*
X116472215Y-95325326D01*
X116170366Y-95323034D01*
X115903184Y-95320429D01*
X115668180Y-95317427D01*
X115462863Y-95313941D01*
X115284742Y-95309890D01*
X115131328Y-95305187D01*
X115000130Y-95299749D01*
X114888658Y-95293491D01*
X114794421Y-95286329D01*
X114714930Y-95278178D01*
X114647695Y-95268955D01*
X114590224Y-95258574D01*
X114540029Y-95246951D01*
X114494617Y-95234003D01*
X114451500Y-95219644D01*
X114408187Y-95203790D01*
X114377984Y-95192353D01*
X114262070Y-95133606D01*
X114132737Y-95044449D01*
X114003472Y-94936149D01*
X113887765Y-94819972D01*
X113801505Y-94710811D01*
X113709709Y-94549953D01*
X113654490Y-94390511D01*
X113631498Y-94216113D01*
X113632366Y-94073961D01*
X113657621Y-93874646D01*
X113715877Y-93702884D01*
X113812649Y-93544929D01*
X113874957Y-93469354D01*
X114028585Y-93325911D01*
X114215656Y-93197507D01*
X114420393Y-93092979D01*
X114627020Y-93021160D01*
X114706699Y-93003564D01*
X114749795Y-92998232D01*
X114818957Y-92993278D01*
X114916218Y-92988671D01*
X115043610Y-92984376D01*
X115203167Y-92980362D01*
X115396919Y-92976596D01*
X115626901Y-92973044D01*
X115895145Y-92969674D01*
X116203684Y-92966453D01*
X116554550Y-92963347D01*
X116949775Y-92960325D01*
X117391394Y-92957353D01*
X117670859Y-92955632D01*
X118106242Y-92952980D01*
X118494878Y-92950483D01*
X118839629Y-92948081D01*
X119143358Y-92945718D01*
X119408926Y-92943335D01*
X119639195Y-92940875D01*
X119837028Y-92938279D01*
X120005287Y-92935490D01*
X120146833Y-92932451D01*
X120264530Y-92929102D01*
X120361238Y-92925386D01*
X120439820Y-92921246D01*
X120503138Y-92916623D01*
X120554055Y-92911460D01*
X120595432Y-92905698D01*
X120630131Y-92899280D01*
X120647422Y-92895446D01*
X120958479Y-92808481D01*
X121231425Y-92700172D01*
X121474896Y-92565778D01*
X121697526Y-92400563D01*
X121900167Y-92208026D01*
X122043505Y-92046507D01*
X122162996Y-91886160D01*
X122269892Y-91710300D01*
X122373891Y-91505521D01*
X122457425Y-91313769D01*
X122518288Y-91133789D01*
X122560072Y-90950099D01*
X122586371Y-90747214D01*
X122599935Y-90531347D01*
X122596690Y-90147499D01*
X122554242Y-89792873D01*
X122472027Y-89465577D01*
X122349481Y-89163717D01*
X122186040Y-88885400D01*
X122059717Y-88718761D01*
X121892982Y-88542055D01*
X121694505Y-88370968D01*
X121476731Y-88214129D01*
X121252108Y-88080170D01*
X121033081Y-87977718D01*
X120945078Y-87945940D01*
X120896986Y-87930288D01*
X120851829Y-87915999D01*
X120807256Y-87903012D01*
X120760916Y-87891265D01*
X120710460Y-87880696D01*
X120653538Y-87871241D01*
X120587799Y-87862840D01*
X120510893Y-87855429D01*
X120420469Y-87848947D01*
X120314177Y-87843331D01*
X120189668Y-87838519D01*
X120044591Y-87834449D01*
X119876595Y-87831058D01*
X119683331Y-87828285D01*
X119462448Y-87826067D01*
X119211596Y-87824342D01*
X118928424Y-87823048D01*
X118610583Y-87822123D01*
X118255722Y-87821504D01*
X117861491Y-87821128D01*
X117425540Y-87820935D01*
X116945518Y-87820862D01*
X116419075Y-87820846D01*
X116219621Y-87820842D01*
X115654813Y-87820975D01*
G37*
X115654813Y-87820975D02*
X115126518Y-87821400D01*
X114635791Y-87822110D01*
X114183686Y-87823099D01*
X113771258Y-87824361D01*
X113399561Y-87825889D01*
X113069650Y-87827679D01*
X112782579Y-87829724D01*
X112539402Y-87832017D01*
X112341175Y-87834553D01*
X112188952Y-87837326D01*
X112083786Y-87840329D01*
X112026734Y-87843557D01*
X112017386Y-87844975D01*
X111881741Y-87906945D01*
X111762969Y-88004463D01*
X111691104Y-88100136D01*
X111670217Y-88139077D01*
X111654625Y-88177987D01*
X111643392Y-88224898D01*
X111635584Y-88287843D01*
X111630263Y-88374854D01*
X111626495Y-88493965D01*
X111623343Y-88653207D01*
X111622770Y-88686669D01*
X111621189Y-88888256D01*
X111623682Y-89055873D01*
X111630085Y-89184694D01*
X111640236Y-89269891D01*
X111642876Y-89281982D01*
X111704020Y-89436523D01*
X111801353Y-89561431D01*
X111897909Y-89633310D01*
X112002988Y-89693496D01*
X115835312Y-89707866D01*
X116349820Y-89709832D01*
X116817121Y-89711709D01*
X117239617Y-89713532D01*
X117619711Y-89715334D01*
X117959804Y-89717149D01*
X118262300Y-89719008D01*
X118529600Y-89720947D01*
X118764107Y-89722999D01*
X118968222Y-89725196D01*
X119144349Y-89727573D01*
X119294889Y-89730162D01*
X119422246Y-89732997D01*
X119528820Y-89736112D01*
X119617014Y-89739540D01*
X119689231Y-89743314D01*
X119747873Y-89747468D01*
X119795342Y-89752036D01*
X119834041Y-89757049D01*
X119866371Y-89762543D01*
X119873924Y-89764033D01*
X120023469Y-89797651D01*
X120135084Y-89832086D01*
X120220265Y-89872462D01*
X120290504Y-89923902D01*
X120338917Y-89971354D01*
X120422980Y-90071658D01*
X120474971Y-90164235D01*
X120504507Y-90268252D01*
X120512083Y-90316565D01*
X120512464Y-90482133D01*
X120467332Y-90628338D01*
X120376975Y-90754877D01*
X120241681Y-90861445D01*
X120061742Y-90947739D01*
X119853672Y-91009741D01*
X119821208Y-91016550D01*
X119783496Y-91022669D01*
X119737660Y-91028156D01*
X119680826Y-91033069D01*
X119610118Y-91037469D01*
X119522662Y-91041412D01*
X119415584Y-91044957D01*
X119286007Y-91048163D01*
X119131059Y-91051089D01*
X118947862Y-91053792D01*
X118733544Y-91056332D01*
X118485229Y-91058766D01*
X118200041Y-91061154D01*
X117875108Y-91063553D01*
X117507552Y-91066023D01*
X117094501Y-91068621D01*
X116901914Y-91069794D01*
X116471845Y-91072416D01*
X116088459Y-91074833D01*
X115748831Y-91077112D01*
X115450035Y-91079320D01*
X115189147Y-91081524D01*
X114963240Y-91083791D01*
X114769390Y-91086188D01*
X114604670Y-91088783D01*
X114466156Y-91091642D01*
X114350922Y-91094832D01*
X114256042Y-91098422D01*
X114178592Y-91102477D01*
X114115646Y-91107064D01*
X114064278Y-91112252D01*
X114021564Y-91118107D01*
X113984577Y-91124696D01*
X113950392Y-91132087D01*
X113925351Y-91138069D01*
X113644158Y-91216009D01*
X113400819Y-91303870D01*
X113230820Y-91381425D01*
X112933175Y-91558060D01*
X112656047Y-91776049D01*
X112403383Y-92029985D01*
X112179133Y-92314461D01*
X111987245Y-92624071D01*
X111831668Y-92953408D01*
X111716350Y-93297065D01*
X111664805Y-93525820D01*
X111647904Y-93657489D01*
X111636819Y-93825393D01*
X111631435Y-94016517D01*
X111631637Y-94217842D01*
X111637312Y-94416352D01*
X111648346Y-94599029D01*
X111664624Y-94752856D01*
X111676174Y-94822483D01*
X111771795Y-95191703D01*
X111906562Y-95531837D01*
X112082633Y-95846865D01*
X112302170Y-96140764D01*
X112515610Y-96368271D01*
X112784402Y-96606362D01*
X113056438Y-96799868D01*
X113339520Y-96953603D01*
X113641450Y-97072383D01*
X113673047Y-97082545D01*
X113729304Y-97100398D01*
X113781324Y-97116653D01*
X113831554Y-97131387D01*
X113882444Y-97144672D01*
X113936439Y-97156583D01*
X113995989Y-97167195D01*
X114063541Y-97176580D01*
X114141543Y-97184814D01*
X114232442Y-97191970D01*
X114338686Y-97198123D01*
X114462723Y-97203346D01*
X114607002Y-97207714D01*
X114773968Y-97211302D01*
X114966072Y-97214182D01*
X115185759Y-97216430D01*
X115435478Y-97218119D01*
X115717677Y-97219324D01*
X116034803Y-97220118D01*
X116389304Y-97220576D01*
X116783629Y-97220773D01*
X117220224Y-97220781D01*
X117701537Y-97220675D01*
X118228965Y-97220530D01*
X118762466Y-97220324D01*
X119248397Y-97219977D01*
X119688798Y-97219473D01*
X120085707Y-97218794D01*
X120441163Y-97217923D01*
X120757205Y-97216845D01*
X121035873Y-97215541D01*
X121279206Y-97213996D01*
X121489243Y-97212191D01*
X121668023Y-97210111D01*
X121817584Y-97207737D01*
X121939968Y-97205055D01*
X122037211Y-97202045D01*
X122111355Y-97198692D01*
X122164437Y-97194979D01*
X122198497Y-97190888D01*
X122212968Y-97187498D01*
X122361832Y-97111570D01*
X122473842Y-97004157D01*
X122514536Y-96940577D01*
X122532465Y-96904602D01*
X122546036Y-96867825D01*
X122555853Y-96823008D01*
X122562519Y-96762915D01*
X122566641Y-96680311D01*
X122568821Y-96567957D01*
X122569665Y-96418619D01*
X122569785Y-96279141D01*
X122569785Y-95721035D01*
X122500913Y-95603872D01*
X122401117Y-95481456D01*
X122314878Y-95417837D01*
X122197715Y-95348965D01*
X118588633Y-95335035D01*
X118076092Y-95333045D01*
X117610670Y-95331164D01*
X117189877Y-95329306D01*
X116811222Y-95327388D01*
X116472215Y-95325326D01*
X116170366Y-95323034D01*
X115903184Y-95320429D01*
X115668180Y-95317427D01*
X115462863Y-95313941D01*
X115284742Y-95309890D01*
X115131328Y-95305187D01*
X115000130Y-95299749D01*
X114888658Y-95293491D01*
X114794421Y-95286329D01*
X114714930Y-95278178D01*
X114647695Y-95268955D01*
X114590224Y-95258574D01*
X114540029Y-95246951D01*
X114494617Y-95234003D01*
X114451500Y-95219644D01*
X114408187Y-95203790D01*
X114377984Y-95192353D01*
X114262070Y-95133606D01*
X114132737Y-95044449D01*
X114003472Y-94936149D01*
X113887765Y-94819972D01*
X113801505Y-94710811D01*
X113709709Y-94549953D01*
X113654490Y-94390511D01*
X113631498Y-94216113D01*
X113632366Y-94073961D01*
X113657621Y-93874646D01*
X113715877Y-93702884D01*
X113812649Y-93544929D01*
X113874957Y-93469354D01*
X114028585Y-93325911D01*
X114215656Y-93197507D01*
X114420393Y-93092979D01*
X114627020Y-93021160D01*
X114706699Y-93003564D01*
X114749795Y-92998232D01*
X114818957Y-92993278D01*
X114916218Y-92988671D01*
X115043610Y-92984376D01*
X115203167Y-92980362D01*
X115396919Y-92976596D01*
X115626901Y-92973044D01*
X115895145Y-92969674D01*
X116203684Y-92966453D01*
X116554550Y-92963347D01*
X116949775Y-92960325D01*
X117391394Y-92957353D01*
X117670859Y-92955632D01*
X118106242Y-92952980D01*
X118494878Y-92950483D01*
X118839629Y-92948081D01*
X119143358Y-92945718D01*
X119408926Y-92943335D01*
X119639195Y-92940875D01*
X119837028Y-92938279D01*
X120005287Y-92935490D01*
X120146833Y-92932451D01*
X120264530Y-92929102D01*
X120361238Y-92925386D01*
X120439820Y-92921246D01*
X120503138Y-92916623D01*
X120554055Y-92911460D01*
X120595432Y-92905698D01*
X120630131Y-92899280D01*
X120647422Y-92895446D01*
X120958479Y-92808481D01*
X121231425Y-92700172D01*
X121474896Y-92565778D01*
X121697526Y-92400563D01*
X121900167Y-92208026D01*
X122043505Y-92046507D01*
X122162996Y-91886160D01*
X122269892Y-91710300D01*
X122373891Y-91505521D01*
X122457425Y-91313769D01*
X122518288Y-91133789D01*
X122560072Y-90950099D01*
X122586371Y-90747214D01*
X122599935Y-90531347D01*
X122596690Y-90147499D01*
X122554242Y-89792873D01*
X122472027Y-89465577D01*
X122349481Y-89163717D01*
X122186040Y-88885400D01*
X122059717Y-88718761D01*
X121892982Y-88542055D01*
X121694505Y-88370968D01*
X121476731Y-88214129D01*
X121252108Y-88080170D01*
X121033081Y-87977718D01*
X120945078Y-87945940D01*
X120896986Y-87930288D01*
X120851829Y-87915999D01*
X120807256Y-87903012D01*
X120760916Y-87891265D01*
X120710460Y-87880696D01*
X120653538Y-87871241D01*
X120587799Y-87862840D01*
X120510893Y-87855429D01*
X120420469Y-87848947D01*
X120314177Y-87843331D01*
X120189668Y-87838519D01*
X120044591Y-87834449D01*
X119876595Y-87831058D01*
X119683331Y-87828285D01*
X119462448Y-87826067D01*
X119211596Y-87824342D01*
X118928424Y-87823048D01*
X118610583Y-87822123D01*
X118255722Y-87821504D01*
X117861491Y-87821128D01*
X117425540Y-87820935D01*
X116945518Y-87820862D01*
X116419075Y-87820846D01*
X116219621Y-87820842D01*
X115654813Y-87820975D01*
G36*
X128537458Y-87833209D02*
G01*
X128360174Y-87833654D01*
X128220904Y-87834860D01*
X128113850Y-87837207D01*
X128033216Y-87841074D01*
X127973202Y-87846841D01*
X127928012Y-87854887D01*
X127891848Y-87865593D01*
X127858912Y-87879337D01*
X127828379Y-87894060D01*
X127700112Y-87975741D01*
X127571131Y-88090014D01*
X127455713Y-88222180D01*
X127368133Y-88357541D01*
X127357498Y-88378848D01*
X127337509Y-88419961D01*
X127296942Y-88502614D01*
X127237236Y-88623892D01*
X127159831Y-88780880D01*
X127066168Y-88970663D01*
X126957688Y-89190325D01*
X126835830Y-89436952D01*
X126702034Y-89707629D01*
X126557741Y-89999440D01*
X126404391Y-90309470D01*
X126243424Y-90634804D01*
X126076281Y-90972528D01*
X125960418Y-91206582D01*
X125676188Y-91780935D01*
X125404896Y-92329613D01*
X125147173Y-92851329D01*
X124903651Y-93344795D01*
X124674961Y-93808725D01*
X124461734Y-94241831D01*
X124264602Y-94642828D01*
X124084196Y-95010427D01*
X123921147Y-95343342D01*
X123776087Y-95640286D01*
X123649646Y-95899971D01*
X123542456Y-96121112D01*
X123455148Y-96302420D01*
X123388354Y-96442609D01*
X123342705Y-96540392D01*
X123326805Y-96575709D01*
X123270793Y-96737973D01*
X123256392Y-96877458D01*
X123283566Y-96998344D01*
X123322696Y-97067790D01*
X123357471Y-97111413D01*
X123396705Y-97146155D01*
X123446082Y-97172921D01*
X123511289Y-97192619D01*
X123598010Y-97206156D01*
X123711929Y-97214440D01*
X123858733Y-97218378D01*
X124044106Y-97218878D01*
X124257843Y-97217031D01*
X124926230Y-97209316D01*
X125057302Y-97140256D01*
X125227658Y-97023537D01*
X125384289Y-96861076D01*
X125525248Y-96655321D01*
X125648586Y-96408722D01*
X125659084Y-96383818D01*
X125680510Y-96336641D01*
X125722610Y-96248129D01*
X125783884Y-96121324D01*
X125862834Y-95959270D01*
X125957962Y-95765011D01*
X126067768Y-95541590D01*
X126190754Y-95292049D01*
X126325422Y-95019433D01*
X126470272Y-94726785D01*
X126623805Y-94417148D01*
X126784523Y-94093564D01*
X126950928Y-93759079D01*
X127017615Y-93625185D01*
X127219585Y-93219895D01*
X127400802Y-92856623D01*
X127562597Y-92532966D01*
X127706299Y-92246519D01*
X127833236Y-91994878D01*
X127944739Y-91775637D01*
X128042137Y-91586393D01*
X128126760Y-91424741D01*
X128199936Y-91288275D01*
X128262996Y-91174592D01*
X128317268Y-91081287D01*
X128364082Y-91005954D01*
X128404768Y-90946191D01*
X128440655Y-90899591D01*
X128473072Y-90863750D01*
X128503349Y-90836264D01*
X128532816Y-90814728D01*
X128562801Y-90796738D01*
X128589110Y-90782736D01*
X128703518Y-90748953D01*
X128830245Y-90751842D01*
X128950112Y-90789750D01*
X128996889Y-90817926D01*
X129087105Y-90901704D01*
X129187959Y-91028384D01*
X129296315Y-91193212D01*
X129409037Y-91391431D01*
X129518584Y-91609011D01*
X129551702Y-91677723D01*
X129605155Y-91787500D01*
X129677273Y-91934949D01*
X129766385Y-92116673D01*
X129870821Y-92329279D01*
X129988910Y-92569371D01*
X130118981Y-92833554D01*
X130259364Y-93118433D01*
X130408387Y-93420613D01*
X130564380Y-93736699D01*
X130725673Y-94063296D01*
X130888006Y-94391775D01*
X131082819Y-94785865D01*
X131257006Y-95138020D01*
X131411994Y-95450744D01*
X131549213Y-95726538D01*
X131670093Y-95967906D01*
X131776061Y-96177349D01*
X131868548Y-96357369D01*
X131948982Y-96510471D01*
X132018792Y-96639155D01*
X132079408Y-96745924D01*
X132132258Y-96833281D01*
X132178772Y-96903728D01*
X132220378Y-96959768D01*
X132258506Y-97003902D01*
X132294585Y-97038634D01*
X132330043Y-97066466D01*
X132366310Y-97089900D01*
X132404815Y-97111439D01*
X132446987Y-97133585D01*
X132456670Y-97138667D01*
X132590879Y-97209316D01*
X133273008Y-97215735D01*
X133477216Y-97217414D01*
X133638149Y-97217942D01*
X133762133Y-97216993D01*
X133855494Y-97214239D01*
X133924561Y-97209354D01*
X133975658Y-97202011D01*
X134015114Y-97191882D01*
X134049255Y-97178640D01*
X134056809Y-97175217D01*
X134166974Y-97103316D01*
X134235669Y-97007586D01*
X134263324Y-96886504D01*
X134250365Y-96738545D01*
X134215164Y-96611686D01*
X134194497Y-96561472D01*
X134152348Y-96468507D01*
X134089497Y-96334375D01*
X134006722Y-96160660D01*
X133904800Y-95948945D01*
X133784510Y-95700815D01*
X133646631Y-95417854D01*
X133491941Y-95101645D01*
X133321218Y-94753773D01*
X133135241Y-94375821D01*
X132934788Y-93969374D01*
X132720636Y-93536016D01*
X132493565Y-93077330D01*
X132254353Y-92594900D01*
X132003779Y-92090311D01*
X131742619Y-91565147D01*
X131471654Y-91020990D01*
X131221108Y-90518456D01*
X131028943Y-90133205D01*
X130857532Y-89789776D01*
X130705411Y-89485636D01*
X130571114Y-89218252D01*
X130453173Y-88985090D01*
X130350124Y-88783619D01*
X130260499Y-88611305D01*
X130182834Y-88465616D01*
X130115662Y-88344018D01*
X130057517Y-88243980D01*
X130006932Y-88162968D01*
X129962443Y-88098449D01*
X129922582Y-88047890D01*
X129885884Y-88008759D01*
X129850883Y-87978524D01*
X129816112Y-87954650D01*
X129780106Y-87934606D01*
X129741399Y-87915858D01*
X129704803Y-87898826D01*
X129564707Y-87833145D01*
X128758554Y-87833145D01*
X128537458Y-87833209D01*
G37*
X128537458Y-87833209D02*
X128360174Y-87833654D01*
X128220904Y-87834860D01*
X128113850Y-87837207D01*
X128033216Y-87841074D01*
X127973202Y-87846841D01*
X127928012Y-87854887D01*
X127891848Y-87865593D01*
X127858912Y-87879337D01*
X127828379Y-87894060D01*
X127700112Y-87975741D01*
X127571131Y-88090014D01*
X127455713Y-88222180D01*
X127368133Y-88357541D01*
X127357498Y-88378848D01*
X127337509Y-88419961D01*
X127296942Y-88502614D01*
X127237236Y-88623892D01*
X127159831Y-88780880D01*
X127066168Y-88970663D01*
X126957688Y-89190325D01*
X126835830Y-89436952D01*
X126702034Y-89707629D01*
X126557741Y-89999440D01*
X126404391Y-90309470D01*
X126243424Y-90634804D01*
X126076281Y-90972528D01*
X125960418Y-91206582D01*
X125676188Y-91780935D01*
X125404896Y-92329613D01*
X125147173Y-92851329D01*
X124903651Y-93344795D01*
X124674961Y-93808725D01*
X124461734Y-94241831D01*
X124264602Y-94642828D01*
X124084196Y-95010427D01*
X123921147Y-95343342D01*
X123776087Y-95640286D01*
X123649646Y-95899971D01*
X123542456Y-96121112D01*
X123455148Y-96302420D01*
X123388354Y-96442609D01*
X123342705Y-96540392D01*
X123326805Y-96575709D01*
X123270793Y-96737973D01*
X123256392Y-96877458D01*
X123283566Y-96998344D01*
X123322696Y-97067790D01*
X123357471Y-97111413D01*
X123396705Y-97146155D01*
X123446082Y-97172921D01*
X123511289Y-97192619D01*
X123598010Y-97206156D01*
X123711929Y-97214440D01*
X123858733Y-97218378D01*
X124044106Y-97218878D01*
X124257843Y-97217031D01*
X124926230Y-97209316D01*
X125057302Y-97140256D01*
X125227658Y-97023537D01*
X125384289Y-96861076D01*
X125525248Y-96655321D01*
X125648586Y-96408722D01*
X125659084Y-96383818D01*
X125680510Y-96336641D01*
X125722610Y-96248129D01*
X125783884Y-96121324D01*
X125862834Y-95959270D01*
X125957962Y-95765011D01*
X126067768Y-95541590D01*
X126190754Y-95292049D01*
X126325422Y-95019433D01*
X126470272Y-94726785D01*
X126623805Y-94417148D01*
X126784523Y-94093564D01*
X126950928Y-93759079D01*
X127017615Y-93625185D01*
X127219585Y-93219895D01*
X127400802Y-92856623D01*
X127562597Y-92532966D01*
X127706299Y-92246519D01*
X127833236Y-91994878D01*
X127944739Y-91775637D01*
X128042137Y-91586393D01*
X128126760Y-91424741D01*
X128199936Y-91288275D01*
X128262996Y-91174592D01*
X128317268Y-91081287D01*
X128364082Y-91005954D01*
X128404768Y-90946191D01*
X128440655Y-90899591D01*
X128473072Y-90863750D01*
X128503349Y-90836264D01*
X128532816Y-90814728D01*
X128562801Y-90796738D01*
X128589110Y-90782736D01*
X128703518Y-90748953D01*
X128830245Y-90751842D01*
X128950112Y-90789750D01*
X128996889Y-90817926D01*
X129087105Y-90901704D01*
X129187959Y-91028384D01*
X129296315Y-91193212D01*
X129409037Y-91391431D01*
X129518584Y-91609011D01*
X129551702Y-91677723D01*
X129605155Y-91787500D01*
X129677273Y-91934949D01*
X129766385Y-92116673D01*
X129870821Y-92329279D01*
X129988910Y-92569371D01*
X130118981Y-92833554D01*
X130259364Y-93118433D01*
X130408387Y-93420613D01*
X130564380Y-93736699D01*
X130725673Y-94063296D01*
X130888006Y-94391775D01*
X131082819Y-94785865D01*
X131257006Y-95138020D01*
X131411994Y-95450744D01*
X131549213Y-95726538D01*
X131670093Y-95967906D01*
X131776061Y-96177349D01*
X131868548Y-96357369D01*
X131948982Y-96510471D01*
X132018792Y-96639155D01*
X132079408Y-96745924D01*
X132132258Y-96833281D01*
X132178772Y-96903728D01*
X132220378Y-96959768D01*
X132258506Y-97003902D01*
X132294585Y-97038634D01*
X132330043Y-97066466D01*
X132366310Y-97089900D01*
X132404815Y-97111439D01*
X132446987Y-97133585D01*
X132456670Y-97138667D01*
X132590879Y-97209316D01*
X133273008Y-97215735D01*
X133477216Y-97217414D01*
X133638149Y-97217942D01*
X133762133Y-97216993D01*
X133855494Y-97214239D01*
X133924561Y-97209354D01*
X133975658Y-97202011D01*
X134015114Y-97191882D01*
X134049255Y-97178640D01*
X134056809Y-97175217D01*
X134166974Y-97103316D01*
X134235669Y-97007586D01*
X134263324Y-96886504D01*
X134250365Y-96738545D01*
X134215164Y-96611686D01*
X134194497Y-96561472D01*
X134152348Y-96468507D01*
X134089497Y-96334375D01*
X134006722Y-96160660D01*
X133904800Y-95948945D01*
X133784510Y-95700815D01*
X133646631Y-95417854D01*
X133491941Y-95101645D01*
X133321218Y-94753773D01*
X133135241Y-94375821D01*
X132934788Y-93969374D01*
X132720636Y-93536016D01*
X132493565Y-93077330D01*
X132254353Y-92594900D01*
X132003779Y-92090311D01*
X131742619Y-91565147D01*
X131471654Y-91020990D01*
X131221108Y-90518456D01*
X131028943Y-90133205D01*
X130857532Y-89789776D01*
X130705411Y-89485636D01*
X130571114Y-89218252D01*
X130453173Y-88985090D01*
X130350124Y-88783619D01*
X130260499Y-88611305D01*
X130182834Y-88465616D01*
X130115662Y-88344018D01*
X130057517Y-88243980D01*
X130006932Y-88162968D01*
X129962443Y-88098449D01*
X129922582Y-88047890D01*
X129885884Y-88008759D01*
X129850883Y-87978524D01*
X129816112Y-87954650D01*
X129780106Y-87934606D01*
X129741399Y-87915858D01*
X129704803Y-87898826D01*
X129564707Y-87833145D01*
X128758554Y-87833145D01*
X128537458Y-87833209D01*
G36*
X139427760Y-87821896D02*
G01*
X139116659Y-87822582D01*
X138846704Y-87823965D01*
X138613665Y-87826240D01*
X138413310Y-87829604D01*
X138241408Y-87834252D01*
X138093729Y-87840381D01*
X137966041Y-87848185D01*
X137854113Y-87857861D01*
X137753714Y-87869605D01*
X137660613Y-87883612D01*
X137570579Y-87900078D01*
X137479381Y-87919200D01*
X137427793Y-87930783D01*
X136987787Y-88056534D01*
X136563648Y-88228745D01*
X136156966Y-88446364D01*
X135769329Y-88708340D01*
X135402330Y-89013623D01*
X135057556Y-89361160D01*
X134798978Y-89668691D01*
X134591935Y-89966428D01*
X134404338Y-90303014D01*
X134239832Y-90670273D01*
X134102061Y-91060029D01*
X133994670Y-91464107D01*
X133990705Y-91482063D01*
X133973339Y-91568356D01*
X133959610Y-91655592D01*
X133948919Y-91751941D01*
X133940667Y-91865575D01*
X133934255Y-92004666D01*
X133929082Y-92177384D01*
X133924746Y-92381423D01*
X133921255Y-92641533D01*
X133921893Y-92861264D01*
X133927426Y-93049731D01*
X133938620Y-93216049D01*
X133956238Y-93369334D01*
X133981049Y-93518702D01*
X134013816Y-93673268D01*
X134043563Y-93796056D01*
X134159593Y-94184334D01*
X134307904Y-94550534D01*
X134492619Y-94902521D01*
X134717859Y-95248158D01*
X134984961Y-95591981D01*
X135309048Y-95941574D01*
X135662964Y-96252137D01*
X136044301Y-96522345D01*
X136450650Y-96750873D01*
X136879601Y-96936397D01*
X137328745Y-97077591D01*
X137795673Y-97173131D01*
X137883297Y-97185627D01*
X137949208Y-97193001D01*
X138030203Y-97199298D01*
X138129938Y-97204579D01*
X138252071Y-97208906D01*
X138400260Y-97212339D01*
X138578161Y-97214939D01*
X138789433Y-97216768D01*
X139037733Y-97217887D01*
X139326718Y-97218357D01*
X139660046Y-97218239D01*
X139821445Y-97218017D01*
X140110599Y-97217243D01*
X140389219Y-97215919D01*
X140652671Y-97214101D01*
X140896322Y-97211850D01*
X141115538Y-97209224D01*
X141305685Y-97206281D01*
X141462129Y-97203080D01*
X141580237Y-97199680D01*
X141655374Y-97196139D01*
X141673403Y-97194578D01*
X142127004Y-97117769D01*
X142565109Y-96994676D01*
X142988626Y-96824877D01*
X143398464Y-96607952D01*
X143795533Y-96343480D01*
X144174668Y-96036417D01*
X144505446Y-95711871D01*
X144797567Y-95356965D01*
X145052561Y-94969722D01*
X145178327Y-94740705D01*
X145336358Y-94403630D01*
X145461641Y-94068097D01*
X145556172Y-93725160D01*
X145621946Y-93365873D01*
X145660960Y-92981288D01*
X145675210Y-92562459D01*
X145675351Y-92513108D01*
X145672617Y-92409622D01*
X143728371Y-92409622D01*
X143722192Y-92749749D01*
X143667111Y-93087222D01*
X143563297Y-93419696D01*
X143452537Y-93666364D01*
X143387599Y-93785230D01*
X143311204Y-93912770D01*
X143238410Y-94023995D01*
X143228868Y-94037537D01*
X143134462Y-94159471D01*
X143015673Y-94297428D01*
X142883325Y-94440109D01*
X142748244Y-94576214D01*
X142621254Y-94694442D01*
X142516996Y-94780641D01*
X142292986Y-94924353D01*
X142030569Y-95049906D01*
X141738633Y-95154115D01*
X141426068Y-95233792D01*
X141111289Y-95284658D01*
X140997200Y-95297886D01*
X140891857Y-95310096D01*
X140811852Y-95319366D01*
X140788828Y-95322031D01*
X140728725Y-95325561D01*
X140625764Y-95327783D01*
X140486676Y-95328801D01*
X140318191Y-95328717D01*
X140127042Y-95327630D01*
X139919958Y-95325644D01*
X139703671Y-95322860D01*
X139484913Y-95319379D01*
X139270413Y-95315303D01*
X139066904Y-95310733D01*
X138881116Y-95305773D01*
X138719780Y-95300522D01*
X138589628Y-95295082D01*
X138497390Y-95289556D01*
X138469590Y-95287017D01*
X138270886Y-95262888D01*
X138108766Y-95237128D01*
X137970243Y-95206150D01*
X137842330Y-95166363D01*
X137712041Y-95114178D01*
X137566389Y-95046007D01*
X137527011Y-95026524D01*
X137315223Y-94915021D01*
X137136915Y-94806179D01*
X136977726Y-94689540D01*
X136823296Y-94554643D01*
X136670368Y-94402605D01*
X136420419Y-94110542D01*
X136217291Y-93802559D01*
X136060526Y-93477761D01*
X135949666Y-93135252D01*
X135901631Y-92900360D01*
X135885223Y-92743853D01*
X135879688Y-92560288D01*
X135884302Y-92365017D01*
X135898341Y-92173392D01*
X135921080Y-92000767D01*
X135950381Y-91867314D01*
X136074365Y-91523112D01*
X136242054Y-91197822D01*
X136454773Y-90889348D01*
X136713849Y-90595591D01*
X136821437Y-90490480D01*
X137002695Y-90331166D01*
X137187153Y-90193307D01*
X137379466Y-90075620D01*
X137584288Y-89976826D01*
X137806274Y-89895642D01*
X138050077Y-89830788D01*
X138320354Y-89780982D01*
X138621757Y-89744944D01*
X138958941Y-89721392D01*
X139336561Y-89709044D01*
X139670018Y-89706372D01*
X140115588Y-89710257D01*
X140512685Y-89721212D01*
X140861947Y-89739281D01*
X141164012Y-89764510D01*
X141419515Y-89796942D01*
X141629095Y-89836622D01*
X141667796Y-89845997D01*
X141880821Y-89917512D01*
X142110434Y-90026252D01*
X142347871Y-90166796D01*
X142584370Y-90333726D01*
X142811166Y-90521625D01*
X142910819Y-90614574D01*
X143051795Y-90770309D01*
X143194408Y-90962186D01*
X143330967Y-91177627D01*
X143453779Y-91404050D01*
X143555152Y-91628875D01*
X143593338Y-91730799D01*
X143685477Y-92069190D01*
X143728371Y-92409622D01*
X145672617Y-92409622D01*
X145664414Y-92099270D01*
X145630285Y-91721370D01*
X145570986Y-91370502D01*
X145484541Y-91037760D01*
X145368974Y-90714239D01*
X145222306Y-90391031D01*
X145190336Y-90328101D01*
X144952838Y-89919623D01*
X144678259Y-89539885D01*
X144369783Y-89191451D01*
X144030592Y-88876883D01*
X143663869Y-88598747D01*
X143272796Y-88359606D01*
X142860557Y-88162023D01*
X142430334Y-88008562D01*
X142249252Y-87958935D01*
X142144675Y-87933335D01*
X142046720Y-87911121D01*
X141951097Y-87892054D01*
X141853520Y-87875894D01*
X141749698Y-87862404D01*
X141635344Y-87851344D01*
X141506169Y-87842476D01*
X141357885Y-87835560D01*
X141186203Y-87830359D01*
X140986835Y-87826634D01*
X140755492Y-87824145D01*
X140487886Y-87822655D01*
X140179729Y-87821923D01*
X139826731Y-87821712D01*
X139784238Y-87821711D01*
X139427760Y-87821896D01*
G37*
X139427760Y-87821896D02*
X139116659Y-87822582D01*
X138846704Y-87823965D01*
X138613665Y-87826240D01*
X138413310Y-87829604D01*
X138241408Y-87834252D01*
X138093729Y-87840381D01*
X137966041Y-87848185D01*
X137854113Y-87857861D01*
X137753714Y-87869605D01*
X137660613Y-87883612D01*
X137570579Y-87900078D01*
X137479381Y-87919200D01*
X137427793Y-87930783D01*
X136987787Y-88056534D01*
X136563648Y-88228745D01*
X136156966Y-88446364D01*
X135769329Y-88708340D01*
X135402330Y-89013623D01*
X135057556Y-89361160D01*
X134798978Y-89668691D01*
X134591935Y-89966428D01*
X134404338Y-90303014D01*
X134239832Y-90670273D01*
X134102061Y-91060029D01*
X133994670Y-91464107D01*
X133990705Y-91482063D01*
X133973339Y-91568356D01*
X133959610Y-91655592D01*
X133948919Y-91751941D01*
X133940667Y-91865575D01*
X133934255Y-92004666D01*
X133929082Y-92177384D01*
X133924746Y-92381423D01*
X133921255Y-92641533D01*
X133921893Y-92861264D01*
X133927426Y-93049731D01*
X133938620Y-93216049D01*
X133956238Y-93369334D01*
X133981049Y-93518702D01*
X134013816Y-93673268D01*
X134043563Y-93796056D01*
X134159593Y-94184334D01*
X134307904Y-94550534D01*
X134492619Y-94902521D01*
X134717859Y-95248158D01*
X134984961Y-95591981D01*
X135309048Y-95941574D01*
X135662964Y-96252137D01*
X136044301Y-96522345D01*
X136450650Y-96750873D01*
X136879601Y-96936397D01*
X137328745Y-97077591D01*
X137795673Y-97173131D01*
X137883297Y-97185627D01*
X137949208Y-97193001D01*
X138030203Y-97199298D01*
X138129938Y-97204579D01*
X138252071Y-97208906D01*
X138400260Y-97212339D01*
X138578161Y-97214939D01*
X138789433Y-97216768D01*
X139037733Y-97217887D01*
X139326718Y-97218357D01*
X139660046Y-97218239D01*
X139821445Y-97218017D01*
X140110599Y-97217243D01*
X140389219Y-97215919D01*
X140652671Y-97214101D01*
X140896322Y-97211850D01*
X141115538Y-97209224D01*
X141305685Y-97206281D01*
X141462129Y-97203080D01*
X141580237Y-97199680D01*
X141655374Y-97196139D01*
X141673403Y-97194578D01*
X142127004Y-97117769D01*
X142565109Y-96994676D01*
X142988626Y-96824877D01*
X143398464Y-96607952D01*
X143795533Y-96343480D01*
X144174668Y-96036417D01*
X144505446Y-95711871D01*
X144797567Y-95356965D01*
X145052561Y-94969722D01*
X145178327Y-94740705D01*
X145336358Y-94403630D01*
X145461641Y-94068097D01*
X145556172Y-93725160D01*
X145621946Y-93365873D01*
X145660960Y-92981288D01*
X145675210Y-92562459D01*
X145675351Y-92513108D01*
X145672617Y-92409622D01*
X143728371Y-92409622D01*
X143722192Y-92749749D01*
X143667111Y-93087222D01*
X143563297Y-93419696D01*
X143452537Y-93666364D01*
X143387599Y-93785230D01*
X143311204Y-93912770D01*
X143238410Y-94023995D01*
X143228868Y-94037537D01*
X143134462Y-94159471D01*
X143015673Y-94297428D01*
X142883325Y-94440109D01*
X142748244Y-94576214D01*
X142621254Y-94694442D01*
X142516996Y-94780641D01*
X142292986Y-94924353D01*
X142030569Y-95049906D01*
X141738633Y-95154115D01*
X141426068Y-95233792D01*
X141111289Y-95284658D01*
X140997200Y-95297886D01*
X140891857Y-95310096D01*
X140811852Y-95319366D01*
X140788828Y-95322031D01*
X140728725Y-95325561D01*
X140625764Y-95327783D01*
X140486676Y-95328801D01*
X140318191Y-95328717D01*
X140127042Y-95327630D01*
X139919958Y-95325644D01*
X139703671Y-95322860D01*
X139484913Y-95319379D01*
X139270413Y-95315303D01*
X139066904Y-95310733D01*
X138881116Y-95305773D01*
X138719780Y-95300522D01*
X138589628Y-95295082D01*
X138497390Y-95289556D01*
X138469590Y-95287017D01*
X138270886Y-95262888D01*
X138108766Y-95237128D01*
X137970243Y-95206150D01*
X137842330Y-95166363D01*
X137712041Y-95114178D01*
X137566389Y-95046007D01*
X137527011Y-95026524D01*
X137315223Y-94915021D01*
X137136915Y-94806179D01*
X136977726Y-94689540D01*
X136823296Y-94554643D01*
X136670368Y-94402605D01*
X136420419Y-94110542D01*
X136217291Y-93802559D01*
X136060526Y-93477761D01*
X135949666Y-93135252D01*
X135901631Y-92900360D01*
X135885223Y-92743853D01*
X135879688Y-92560288D01*
X135884302Y-92365017D01*
X135898341Y-92173392D01*
X135921080Y-92000767D01*
X135950381Y-91867314D01*
X136074365Y-91523112D01*
X136242054Y-91197822D01*
X136454773Y-90889348D01*
X136713849Y-90595591D01*
X136821437Y-90490480D01*
X137002695Y-90331166D01*
X137187153Y-90193307D01*
X137379466Y-90075620D01*
X137584288Y-89976826D01*
X137806274Y-89895642D01*
X138050077Y-89830788D01*
X138320354Y-89780982D01*
X138621757Y-89744944D01*
X138958941Y-89721392D01*
X139336561Y-89709044D01*
X139670018Y-89706372D01*
X140115588Y-89710257D01*
X140512685Y-89721212D01*
X140861947Y-89739281D01*
X141164012Y-89764510D01*
X141419515Y-89796942D01*
X141629095Y-89836622D01*
X141667796Y-89845997D01*
X141880821Y-89917512D01*
X142110434Y-90026252D01*
X142347871Y-90166796D01*
X142584370Y-90333726D01*
X142811166Y-90521625D01*
X142910819Y-90614574D01*
X143051795Y-90770309D01*
X143194408Y-90962186D01*
X143330967Y-91177627D01*
X143453779Y-91404050D01*
X143555152Y-91628875D01*
X143593338Y-91730799D01*
X143685477Y-92069190D01*
X143728371Y-92409622D01*
X145672617Y-92409622D01*
X145664414Y-92099270D01*
X145630285Y-91721370D01*
X145570986Y-91370502D01*
X145484541Y-91037760D01*
X145368974Y-90714239D01*
X145222306Y-90391031D01*
X145190336Y-90328101D01*
X144952838Y-89919623D01*
X144678259Y-89539885D01*
X144369783Y-89191451D01*
X144030592Y-88876883D01*
X143663869Y-88598747D01*
X143272796Y-88359606D01*
X142860557Y-88162023D01*
X142430334Y-88008562D01*
X142249252Y-87958935D01*
X142144675Y-87933335D01*
X142046720Y-87911121D01*
X141951097Y-87892054D01*
X141853520Y-87875894D01*
X141749698Y-87862404D01*
X141635344Y-87851344D01*
X141506169Y-87842476D01*
X141357885Y-87835560D01*
X141186203Y-87830359D01*
X140986835Y-87826634D01*
X140755492Y-87824145D01*
X140487886Y-87822655D01*
X140179729Y-87821923D01*
X139826731Y-87821712D01*
X139784238Y-87821711D01*
X139427760Y-87821896D01*
D12*
X128500000Y-59642857D02*
X128571428Y-59785714D01*
X128571428Y-60000000D01*
X128500000Y-60214285D01*
X128357142Y-60357142D01*
X128214285Y-60428571D01*
X127928571Y-60500000D01*
X127714285Y-60500000D01*
X127428571Y-60428571D01*
X127285714Y-60357142D01*
X127142857Y-60214285D01*
X127071428Y-60000000D01*
X127071428Y-59857142D01*
X127142857Y-59642857D01*
X127214285Y-59571428D01*
X127714285Y-59571428D01*
X127714285Y-59857142D01*
X127071428Y-58928571D02*
X128571428Y-58928571D01*
X127071428Y-58071428D01*
X128571428Y-58071428D01*
X127071428Y-57357142D02*
X128571428Y-57357142D01*
X128571428Y-57000000D01*
X128500000Y-56785714D01*
X128357142Y-56642857D01*
X128214285Y-56571428D01*
X127928571Y-56500000D01*
X127714285Y-56500000D01*
X127428571Y-56571428D01*
X127285714Y-56642857D01*
X127142857Y-56785714D01*
X127071428Y-57000000D01*
X127071428Y-57357142D01*
X128500000Y-108642857D02*
X128571428Y-108785714D01*
X128571428Y-109000000D01*
X128500000Y-109214285D01*
X128357142Y-109357142D01*
X128214285Y-109428571D01*
X127928571Y-109500000D01*
X127714285Y-109500000D01*
X127428571Y-109428571D01*
X127285714Y-109357142D01*
X127142857Y-109214285D01*
X127071428Y-109000000D01*
X127071428Y-108857142D01*
X127142857Y-108642857D01*
X127214285Y-108571428D01*
X127714285Y-108571428D01*
X127714285Y-108857142D01*
X127071428Y-107928571D02*
X128571428Y-107928571D01*
X127071428Y-107071428D01*
X128571428Y-107071428D01*
X127071428Y-106357142D02*
X128571428Y-106357142D01*
X128571428Y-106000000D01*
X128500000Y-105785714D01*
X128357142Y-105642857D01*
X128214285Y-105571428D01*
X127928571Y-105500000D01*
X127714285Y-105500000D01*
X127428571Y-105571428D01*
X127285714Y-105642857D01*
X127142857Y-105785714D01*
X127071428Y-106000000D01*
X127071428Y-106357142D01*
X70750000Y-59642857D02*
X70821428Y-59785714D01*
X70821428Y-60000000D01*
X70750000Y-60214285D01*
X70607142Y-60357142D01*
X70464285Y-60428571D01*
X70178571Y-60500000D01*
X69964285Y-60500000D01*
X69678571Y-60428571D01*
X69535714Y-60357142D01*
X69392857Y-60214285D01*
X69321428Y-60000000D01*
X69321428Y-59857142D01*
X69392857Y-59642857D01*
X69464285Y-59571428D01*
X69964285Y-59571428D01*
X69964285Y-59857142D01*
X69321428Y-58928571D02*
X70821428Y-58928571D01*
X69321428Y-58071428D01*
X70821428Y-58071428D01*
X69321428Y-57357142D02*
X70821428Y-57357142D01*
X70821428Y-57000000D01*
X70750000Y-56785714D01*
X70607142Y-56642857D01*
X70464285Y-56571428D01*
X70178571Y-56500000D01*
X69964285Y-56500000D01*
X69678571Y-56571428D01*
X69535714Y-56642857D01*
X69392857Y-56785714D01*
X69321428Y-57000000D01*
X69321428Y-57357142D01*
X70500000Y-108642857D02*
X70571428Y-108785714D01*
X70571428Y-109000000D01*
X70500000Y-109214285D01*
X70357142Y-109357142D01*
X70214285Y-109428571D01*
X69928571Y-109500000D01*
X69714285Y-109500000D01*
X69428571Y-109428571D01*
X69285714Y-109357142D01*
X69142857Y-109214285D01*
X69071428Y-109000000D01*
X69071428Y-108857142D01*
X69142857Y-108642857D01*
X69214285Y-108571428D01*
X69714285Y-108571428D01*
X69714285Y-108857142D01*
X69071428Y-107928571D02*
X70571428Y-107928571D01*
X69071428Y-107071428D01*
X70571428Y-107071428D01*
X69071428Y-106357142D02*
X70571428Y-106357142D01*
X70571428Y-106000000D01*
X70500000Y-105785714D01*
X70357142Y-105642857D01*
X70214285Y-105571428D01*
X69928571Y-105500000D01*
X69714285Y-105500000D01*
X69428571Y-105571428D01*
X69285714Y-105642857D01*
X69142857Y-105785714D01*
X69071428Y-106000000D01*
X69071428Y-106357142D01*
M02*
