G04 #@! TF.GenerationSoftware,KiCad,Pcbnew,(5.1.5-0-10_14)*
G04 #@! TF.CreationDate,2020-04-05T15:29:42+02:00*
G04 #@! TF.ProjectId,Oasis_ADC,4f617369-735f-4414-9443-2e6b69636164,rev?*
G04 #@! TF.SameCoordinates,Original*
G04 #@! TF.FileFunction,Copper,L2,Bot*
G04 #@! TF.FilePolarity,Positive*
%FSLAX46Y46*%
G04 Gerber Fmt 4.6, Leading zero omitted, Abs format (unit mm)*
G04 Created by KiCad (PCBNEW (5.1.5-0-10_14)) date 2020-04-05 15:29:42*
%MOMM*%
%LPD*%
G04 APERTURE LIST*
%ADD10C,5.700000*%
%ADD11R,1.700000X1.700000*%
%ADD12O,1.700000X1.700000*%
%ADD13C,0.100000*%
%ADD14C,1.700000*%
%ADD15C,0.800000*%
%ADD16C,0.500000*%
%ADD17C,0.250000*%
%ADD18C,0.600000*%
%ADD19C,0.150000*%
%ADD20C,0.200000*%
G04 APERTURE END LIST*
D10*
X3500000Y-52500000D03*
X3500000Y-3500000D03*
X61500000Y-52500000D03*
X61500000Y-3500000D03*
D11*
X56650000Y-51250000D03*
D12*
X56650000Y-53790000D03*
X54110000Y-51250000D03*
X54110000Y-53790000D03*
X51570000Y-51250000D03*
X51570000Y-53790000D03*
X49030000Y-51250000D03*
X49030000Y-53790000D03*
X46490000Y-51250000D03*
X46490000Y-53790000D03*
X43950000Y-51250000D03*
X43950000Y-53790000D03*
X41410000Y-51250000D03*
X41410000Y-53790000D03*
X38870000Y-51250000D03*
X38870000Y-53790000D03*
X36330000Y-51250000D03*
X36330000Y-53790000D03*
X33790000Y-51250000D03*
X33790000Y-53790000D03*
X31250000Y-51250000D03*
X31250000Y-53790000D03*
X28710000Y-51250000D03*
X28710000Y-53790000D03*
X26170000Y-51250000D03*
X26170000Y-53790000D03*
X23630000Y-51250000D03*
X23630000Y-53790000D03*
X21090000Y-51250000D03*
X21090000Y-53790000D03*
X18550000Y-51250000D03*
X18550000Y-53790000D03*
X16010000Y-51250000D03*
X16010000Y-53790000D03*
X13470000Y-51250000D03*
X13470000Y-53790000D03*
X10930000Y-51250000D03*
X10930000Y-53790000D03*
X8390000Y-51250000D03*
X8390000Y-53790000D03*
D11*
X56700000Y-44100000D03*
D12*
X54160000Y-44100000D03*
X51620000Y-44100000D03*
X49080000Y-44100000D03*
X46540000Y-44100000D03*
X44000000Y-44100000D03*
X41460000Y-44100000D03*
D11*
X62800000Y-13400000D03*
G04 #@! TA.AperFunction,ComponentPad*
D13*
G36*
X34303949Y-31206031D02*
G01*
X33101867Y-30003949D01*
X34303949Y-28801867D01*
X35506031Y-30003949D01*
X34303949Y-31206031D01*
G37*
G04 #@! TD.AperFunction*
D14*
X36100000Y-31800000D02*
X36100000Y-31800000D01*
D11*
X62800000Y-23400000D03*
D15*
X31370000Y-37350000D03*
X45000000Y-30420000D03*
X44990000Y-19950000D03*
X46800000Y-6700000D03*
X28500006Y-34500000D03*
X50100000Y-30000000D03*
X4075000Y-29975000D03*
X4075000Y-31325000D03*
X4075000Y-32875000D03*
X6000000Y-49000000D03*
X8000000Y-49000000D03*
X10000000Y-49000000D03*
X1500000Y-36500000D03*
X1500000Y-35000000D03*
X1500000Y-33500000D03*
X1500000Y-32000000D03*
X1500000Y-30500000D03*
X1500000Y-29000000D03*
X1500000Y-27500000D03*
X2500000Y-26500000D03*
X4000000Y-26500000D03*
X2500000Y-23000000D03*
X4000000Y-23000000D03*
X5500000Y-23000000D03*
X7000000Y-23000000D03*
X8500000Y-23000000D03*
X10000000Y-23000000D03*
X11500000Y-23000000D03*
X13000000Y-23000000D03*
X16000000Y-24500000D03*
X1500000Y-49000000D03*
X3500000Y-47000000D03*
X2000000Y-47000000D03*
X2000000Y-40500000D03*
X3500000Y-40500000D03*
X63000000Y-32000000D03*
X63000000Y-30500000D03*
X63000000Y-29000000D03*
X63000000Y-27500000D03*
X63000000Y-26000000D03*
X63000000Y-19500000D03*
X62000000Y-18500000D03*
X63000000Y-17500000D03*
X61000000Y-19500000D03*
X60000000Y-20500000D03*
X58500000Y-20500000D03*
X57000000Y-20500000D03*
X55500000Y-20500000D03*
X54500000Y-21500000D03*
X53000000Y-21500000D03*
X51500000Y-21500000D03*
X50000000Y-21500000D03*
X48500000Y-21500000D03*
X47000000Y-21500000D03*
X41500000Y-20000000D03*
X43000000Y-20000000D03*
X31500000Y-23000000D03*
X32500000Y-24000000D03*
X33500000Y-25000000D03*
X34500000Y-26000000D03*
X35500000Y-27000000D03*
X36500000Y-28000000D03*
X37500000Y-29000000D03*
X38500000Y-30000000D03*
X39500000Y-31000000D03*
X39500000Y-34000000D03*
X41500000Y-34000000D03*
X45000000Y-34000000D03*
X46500000Y-34000000D03*
X48000000Y-34000000D03*
X49500000Y-34000000D03*
X51000000Y-34000000D03*
X52500000Y-34000000D03*
X54000000Y-34000000D03*
X55500000Y-34000000D03*
X57000000Y-34000000D03*
X58500000Y-34000000D03*
X60000000Y-34000000D03*
X61500000Y-34000000D03*
X63000000Y-34000000D03*
X30500000Y-24000000D03*
X29000000Y-26500000D03*
X29000000Y-29000000D03*
X29000000Y-30500000D03*
X23000000Y-30500000D03*
X23000000Y-29000000D03*
X23000000Y-27500000D03*
X23000000Y-24500000D03*
X24000000Y-23500000D03*
X25000000Y-22500000D03*
X26000000Y-21500000D03*
X27000000Y-20500000D03*
X28000000Y-19500000D03*
X29000000Y-18500000D03*
X30000000Y-17500000D03*
X33000000Y-17500000D03*
X35000000Y-17500000D03*
X33000000Y-22500000D03*
X34500000Y-22500000D03*
X34000000Y-17500000D03*
X34000000Y-16000000D03*
X34000000Y-14500000D03*
X34000000Y-12500000D03*
X34000000Y-10500000D03*
X34000000Y-8500000D03*
X36000000Y-8500000D03*
X38000000Y-8500000D03*
X40000000Y-8500000D03*
X42000000Y-8500000D03*
X44000000Y-8500000D03*
X46000000Y-8500000D03*
X48000000Y-8500000D03*
X50000000Y-8500000D03*
X52000000Y-8500000D03*
X54000000Y-8500000D03*
X56000000Y-8500000D03*
X58000000Y-8500000D03*
X60000000Y-8500000D03*
X62000000Y-8500000D03*
X63500000Y-8500000D03*
X59000000Y-10500000D03*
X57000000Y-10500000D03*
X55000000Y-10500000D03*
X45000000Y-17000000D03*
X8900000Y-5000000D03*
X10900000Y-5000000D03*
X12900000Y-5000000D03*
X14900000Y-5000000D03*
X16900000Y-5000000D03*
X18900000Y-5000000D03*
X20900000Y-5000000D03*
X22900000Y-5000000D03*
X24900000Y-5000000D03*
X9900000Y-6500000D03*
X11900000Y-6500000D03*
X13900000Y-6500000D03*
X15900000Y-6500000D03*
X17900000Y-6500000D03*
X19900000Y-6500000D03*
X21900000Y-6500000D03*
X23900000Y-6500000D03*
X25900000Y-6500000D03*
X27900000Y-6500000D03*
X26900000Y-5000000D03*
X23000000Y-26000000D03*
X63000000Y-35500000D03*
X63000000Y-37000000D03*
X63000000Y-38500000D03*
X63000000Y-40000000D03*
X59500000Y-46500000D03*
X61000000Y-46500000D03*
X62500000Y-46500000D03*
X28900000Y-5000000D03*
X47000000Y-10500000D03*
X49000000Y-10500000D03*
X51000000Y-10500000D03*
X53000000Y-10500000D03*
X48000000Y-20000000D03*
X49500000Y-20000000D03*
X51000000Y-20000000D03*
X52500000Y-20000000D03*
X54000000Y-20000000D03*
X61000000Y-10500000D03*
X57000000Y-24000000D03*
X58500000Y-24000000D03*
X60500000Y-25000000D03*
X13500000Y-29500000D03*
X13500000Y-31000000D03*
X13500000Y-32500000D03*
X13500000Y-34000000D03*
X13500000Y-35500000D03*
X13500000Y-28000000D03*
X24000000Y-39500000D03*
X25000000Y-40500000D03*
X26000000Y-41500000D03*
X27000000Y-42500000D03*
X28000000Y-43500000D03*
X25000000Y-42500000D03*
X24000000Y-43500000D03*
X27000000Y-40500000D03*
X28000000Y-39500000D03*
X17500000Y-24500000D03*
X19000000Y-24500000D03*
X21000000Y-24500000D03*
X36000000Y-10500000D03*
X38000000Y-10500000D03*
X26000000Y-39500000D03*
X26000000Y-43500000D03*
X17000000Y-32000000D03*
X17000000Y-30500000D03*
X17000000Y-29000000D03*
X17000000Y-27500000D03*
X18500000Y-27500000D03*
X20000000Y-27500000D03*
X21500000Y-27500000D03*
X21500000Y-29000000D03*
X29000000Y-16500000D03*
X28000000Y-17500000D03*
X27000000Y-18500000D03*
X26000000Y-19500000D03*
X25000000Y-20500000D03*
X24000000Y-21500000D03*
X23000000Y-22500000D03*
X17500000Y-23000000D03*
X19000000Y-23000000D03*
X21000000Y-23000000D03*
X60500000Y-27500000D03*
X39500000Y-27000000D03*
X36000000Y-12500000D03*
X38000000Y-12500000D03*
X38500000Y-28000000D03*
X37500000Y-27000000D03*
X38500000Y-26000000D03*
X60500000Y-29000000D03*
X60500000Y-30500000D03*
X60500000Y-32000000D03*
X6700000Y-33900000D03*
X33850000Y-46300000D03*
X15500000Y-41550000D03*
X17450000Y-41150000D03*
X21500000Y-45050000D03*
X30550000Y-45200000D03*
X15510004Y-44060000D03*
X15490000Y-45640002D03*
X15499998Y-47280000D03*
D16*
X31370000Y-37350000D02*
X39760000Y-37350000D01*
X45000000Y-32110000D02*
X45000000Y-30420000D01*
X39760000Y-37350000D02*
X45000000Y-32110000D01*
D17*
X45000000Y-19960000D02*
X44990000Y-19950000D01*
D16*
X45000000Y-30420000D02*
X45000000Y-19960000D01*
D18*
X49099999Y-8267997D02*
X49099999Y-9267997D01*
X49099999Y-9267997D02*
X49900000Y-10067998D01*
X47532002Y-6700000D02*
X49099999Y-8267997D01*
X46800000Y-6700000D02*
X47532002Y-6700000D01*
X49900000Y-15040000D02*
X44990000Y-19950000D01*
X49900000Y-10067998D02*
X49900000Y-15040000D01*
D17*
X28520000Y-34500000D02*
X28500006Y-34500000D01*
D16*
X31370000Y-37350000D02*
X28520000Y-34500000D01*
D18*
X15500000Y-41750000D02*
X15500000Y-41550000D01*
X20850000Y-47100000D02*
X15500000Y-41750000D01*
X33050000Y-47100000D02*
X20850000Y-47100000D01*
X33850000Y-46300000D02*
X33050000Y-47100000D01*
D17*
X17450000Y-41150000D02*
X18400000Y-41150000D01*
X18400000Y-41150000D02*
X19550000Y-42300000D01*
X19550000Y-42300000D02*
X19550000Y-43900000D01*
X20700000Y-45050000D02*
X21500000Y-45050000D01*
X19550000Y-43900000D02*
X20700000Y-45050000D01*
X30400000Y-45050000D02*
X30550000Y-45200000D01*
X21500000Y-45050000D02*
X30400000Y-45050000D01*
D19*
X18550000Y-51250000D02*
X18550000Y-47099996D01*
X15910003Y-44459999D02*
X15510004Y-44060000D01*
X18550000Y-47099996D02*
X15910003Y-44459999D01*
X15889999Y-46040001D02*
X15490000Y-45640002D01*
X16510000Y-46660002D02*
X15889999Y-46040001D01*
X16510000Y-50750000D02*
X16510000Y-46660002D01*
X16200000Y-51060000D02*
X16510000Y-50750000D01*
X13470000Y-51250000D02*
X13470000Y-49309998D01*
X13470000Y-49309998D02*
X15099999Y-47679999D01*
X15099999Y-47679999D02*
X15499998Y-47280000D01*
D20*
G36*
X59960548Y-619888D02*
G01*
X59428246Y-975560D01*
X58975560Y-1428246D01*
X58619888Y-1960548D01*
X58374896Y-2552010D01*
X58250000Y-3179903D01*
X58250000Y-3820097D01*
X58374896Y-4447990D01*
X58619888Y-5039452D01*
X58975560Y-5571754D01*
X59428246Y-6024440D01*
X59960548Y-6380112D01*
X60552010Y-6625104D01*
X61179903Y-6750000D01*
X61820097Y-6750000D01*
X62447990Y-6625104D01*
X63039452Y-6380112D01*
X63571754Y-6024440D01*
X64024440Y-5571754D01*
X64380112Y-5039452D01*
X64575001Y-4568949D01*
X64575000Y-51431048D01*
X64380112Y-50960548D01*
X64024440Y-50428246D01*
X63571754Y-49975560D01*
X63039452Y-49619888D01*
X62447990Y-49374896D01*
X61820097Y-49250000D01*
X61179903Y-49250000D01*
X60552010Y-49374896D01*
X59960548Y-49619888D01*
X59428246Y-49975560D01*
X58975560Y-50428246D01*
X58619888Y-50960548D01*
X58374896Y-51552010D01*
X58250000Y-52179903D01*
X58250000Y-52820097D01*
X58374896Y-53447990D01*
X58619888Y-54039452D01*
X58975560Y-54571754D01*
X59428246Y-55024440D01*
X59960548Y-55380112D01*
X60431048Y-55575000D01*
X4568952Y-55575000D01*
X5039452Y-55380112D01*
X5571754Y-55024440D01*
X6024440Y-54571754D01*
X6380112Y-54039452D01*
X6625104Y-53447990D01*
X6750000Y-52820097D01*
X6750000Y-52179903D01*
X6640401Y-51628911D01*
X6982091Y-51628911D01*
X7083065Y-51896300D01*
X7234264Y-52138852D01*
X7429878Y-52347246D01*
X7662389Y-52513473D01*
X7922121Y-52630812D01*
X7797903Y-52682265D01*
X7593172Y-52819062D01*
X7419062Y-52993172D01*
X7282265Y-53197903D01*
X7188037Y-53425389D01*
X7140000Y-53666886D01*
X7140000Y-53913114D01*
X7188037Y-54154611D01*
X7282265Y-54382097D01*
X7419062Y-54586828D01*
X7593172Y-54760938D01*
X7797903Y-54897735D01*
X8025389Y-54991963D01*
X8266886Y-55040000D01*
X8513114Y-55040000D01*
X8754611Y-54991963D01*
X8982097Y-54897735D01*
X9186828Y-54760938D01*
X9360938Y-54586828D01*
X9497735Y-54382097D01*
X9591963Y-54154611D01*
X9640000Y-53913114D01*
X9640000Y-53666886D01*
X9680000Y-53666886D01*
X9680000Y-53913114D01*
X9728037Y-54154611D01*
X9822265Y-54382097D01*
X9959062Y-54586828D01*
X10133172Y-54760938D01*
X10337903Y-54897735D01*
X10565389Y-54991963D01*
X10806886Y-55040000D01*
X11053114Y-55040000D01*
X11294611Y-54991963D01*
X11522097Y-54897735D01*
X11726828Y-54760938D01*
X11900938Y-54586828D01*
X12037735Y-54382097D01*
X12131963Y-54154611D01*
X12180000Y-53913114D01*
X12180000Y-53666886D01*
X12131963Y-53425389D01*
X12037735Y-53197903D01*
X11900938Y-52993172D01*
X11726828Y-52819062D01*
X11522097Y-52682265D01*
X11294611Y-52588037D01*
X11053114Y-52540000D01*
X10806886Y-52540000D01*
X10565389Y-52588037D01*
X10337903Y-52682265D01*
X10133172Y-52819062D01*
X9959062Y-52993172D01*
X9822265Y-53197903D01*
X9728037Y-53425389D01*
X9680000Y-53666886D01*
X9640000Y-53666886D01*
X9591963Y-53425389D01*
X9497735Y-53197903D01*
X9360938Y-52993172D01*
X9186828Y-52819062D01*
X8982097Y-52682265D01*
X8857879Y-52630812D01*
X9117611Y-52513473D01*
X9350122Y-52347246D01*
X9545736Y-52138852D01*
X9696935Y-51896300D01*
X9767412Y-51709670D01*
X9822265Y-51842097D01*
X9959062Y-52046828D01*
X10133172Y-52220938D01*
X10337903Y-52357735D01*
X10565389Y-52451963D01*
X10806886Y-52500000D01*
X11053114Y-52500000D01*
X11294611Y-52451963D01*
X11522097Y-52357735D01*
X11726828Y-52220938D01*
X11900938Y-52046828D01*
X12037735Y-51842097D01*
X12131963Y-51614611D01*
X12180000Y-51373114D01*
X12180000Y-51126886D01*
X12220000Y-51126886D01*
X12220000Y-51373114D01*
X12268037Y-51614611D01*
X12362265Y-51842097D01*
X12499062Y-52046828D01*
X12673172Y-52220938D01*
X12877903Y-52357735D01*
X13105389Y-52451963D01*
X13346886Y-52500000D01*
X13593114Y-52500000D01*
X13834611Y-52451963D01*
X14062097Y-52357735D01*
X14266828Y-52220938D01*
X14440938Y-52046828D01*
X14577735Y-51842097D01*
X14671963Y-51614611D01*
X14720000Y-51373114D01*
X14720000Y-51126886D01*
X14671963Y-50885389D01*
X14577735Y-50657903D01*
X14440938Y-50453172D01*
X14266828Y-50279062D01*
X14062097Y-50142265D01*
X13945000Y-50093762D01*
X13945000Y-49506748D01*
X15379955Y-48071795D01*
X15421205Y-48080000D01*
X15578791Y-48080000D01*
X15733349Y-48049257D01*
X15878940Y-47988951D01*
X16009968Y-47901401D01*
X16035001Y-47876368D01*
X16035000Y-50000000D01*
X15886886Y-50000000D01*
X15645389Y-50048037D01*
X15417903Y-50142265D01*
X15213172Y-50279062D01*
X15039062Y-50453172D01*
X14902265Y-50657903D01*
X14808037Y-50885389D01*
X14760000Y-51126886D01*
X14760000Y-51373114D01*
X14808037Y-51614611D01*
X14902265Y-51842097D01*
X15039062Y-52046828D01*
X15213172Y-52220938D01*
X15417903Y-52357735D01*
X15542121Y-52409188D01*
X15282389Y-52526527D01*
X15049878Y-52692754D01*
X14854264Y-52901148D01*
X14703065Y-53143700D01*
X14632588Y-53330330D01*
X14577735Y-53197903D01*
X14440938Y-52993172D01*
X14266828Y-52819062D01*
X14062097Y-52682265D01*
X13834611Y-52588037D01*
X13593114Y-52540000D01*
X13346886Y-52540000D01*
X13105389Y-52588037D01*
X12877903Y-52682265D01*
X12673172Y-52819062D01*
X12499062Y-52993172D01*
X12362265Y-53197903D01*
X12268037Y-53425389D01*
X12220000Y-53666886D01*
X12220000Y-53913114D01*
X12268037Y-54154611D01*
X12362265Y-54382097D01*
X12499062Y-54586828D01*
X12673172Y-54760938D01*
X12877903Y-54897735D01*
X13105389Y-54991963D01*
X13346886Y-55040000D01*
X13593114Y-55040000D01*
X13834611Y-54991963D01*
X14062097Y-54897735D01*
X14266828Y-54760938D01*
X14440938Y-54586828D01*
X14577735Y-54382097D01*
X14632588Y-54249670D01*
X14703065Y-54436300D01*
X14854264Y-54678852D01*
X15049878Y-54887246D01*
X15282389Y-55053473D01*
X15542861Y-55171146D01*
X15631090Y-55197903D01*
X15856000Y-55086889D01*
X15856000Y-53944000D01*
X15836000Y-53944000D01*
X15836000Y-53636000D01*
X15856000Y-53636000D01*
X15856000Y-53616000D01*
X16164000Y-53616000D01*
X16164000Y-53636000D01*
X16184000Y-53636000D01*
X16184000Y-53944000D01*
X16164000Y-53944000D01*
X16164000Y-55086889D01*
X16388910Y-55197903D01*
X16477139Y-55171146D01*
X16737611Y-55053473D01*
X16970122Y-54887246D01*
X17165736Y-54678852D01*
X17316935Y-54436300D01*
X17387412Y-54249670D01*
X17442265Y-54382097D01*
X17579062Y-54586828D01*
X17753172Y-54760938D01*
X17957903Y-54897735D01*
X18185389Y-54991963D01*
X18426886Y-55040000D01*
X18673114Y-55040000D01*
X18914611Y-54991963D01*
X19142097Y-54897735D01*
X19346828Y-54760938D01*
X19520938Y-54586828D01*
X19657735Y-54382097D01*
X19712588Y-54249670D01*
X19783065Y-54436300D01*
X19934264Y-54678852D01*
X20129878Y-54887246D01*
X20362389Y-55053473D01*
X20622861Y-55171146D01*
X20711090Y-55197903D01*
X20936000Y-55086889D01*
X20936000Y-53944000D01*
X20916000Y-53944000D01*
X20916000Y-53636000D01*
X20936000Y-53636000D01*
X20936000Y-53616000D01*
X21244000Y-53616000D01*
X21244000Y-53636000D01*
X21264000Y-53636000D01*
X21264000Y-53944000D01*
X21244000Y-53944000D01*
X21244000Y-55086889D01*
X21468910Y-55197903D01*
X21557139Y-55171146D01*
X21817611Y-55053473D01*
X22050122Y-54887246D01*
X22245736Y-54678852D01*
X22396935Y-54436300D01*
X22467412Y-54249670D01*
X22522265Y-54382097D01*
X22659062Y-54586828D01*
X22833172Y-54760938D01*
X23037903Y-54897735D01*
X23265389Y-54991963D01*
X23506886Y-55040000D01*
X23753114Y-55040000D01*
X23994611Y-54991963D01*
X24222097Y-54897735D01*
X24426828Y-54760938D01*
X24600938Y-54586828D01*
X24737735Y-54382097D01*
X24831963Y-54154611D01*
X24880000Y-53913114D01*
X24880000Y-53666886D01*
X24831963Y-53425389D01*
X24737735Y-53197903D01*
X24600938Y-52993172D01*
X24426828Y-52819062D01*
X24222097Y-52682265D01*
X23994611Y-52588037D01*
X23753114Y-52540000D01*
X23506886Y-52540000D01*
X23265389Y-52588037D01*
X23037903Y-52682265D01*
X22833172Y-52819062D01*
X22659062Y-52993172D01*
X22522265Y-53197903D01*
X22467412Y-53330330D01*
X22396935Y-53143700D01*
X22245736Y-52901148D01*
X22050122Y-52692754D01*
X21817611Y-52526527D01*
X21557879Y-52409188D01*
X21682097Y-52357735D01*
X21886828Y-52220938D01*
X22060938Y-52046828D01*
X22197735Y-51842097D01*
X22291963Y-51614611D01*
X22340000Y-51373114D01*
X22340000Y-51126886D01*
X22380000Y-51126886D01*
X22380000Y-51373114D01*
X22428037Y-51614611D01*
X22522265Y-51842097D01*
X22659062Y-52046828D01*
X22833172Y-52220938D01*
X23037903Y-52357735D01*
X23265389Y-52451963D01*
X23506886Y-52500000D01*
X23753114Y-52500000D01*
X23994611Y-52451963D01*
X24222097Y-52357735D01*
X24426828Y-52220938D01*
X24600938Y-52046828D01*
X24737735Y-51842097D01*
X24792588Y-51709670D01*
X24863065Y-51896300D01*
X25014264Y-52138852D01*
X25209878Y-52347246D01*
X25442389Y-52513473D01*
X25702121Y-52630812D01*
X25577903Y-52682265D01*
X25373172Y-52819062D01*
X25199062Y-52993172D01*
X25062265Y-53197903D01*
X24968037Y-53425389D01*
X24920000Y-53666886D01*
X24920000Y-53913114D01*
X24968037Y-54154611D01*
X25062265Y-54382097D01*
X25199062Y-54586828D01*
X25373172Y-54760938D01*
X25577903Y-54897735D01*
X25805389Y-54991963D01*
X26046886Y-55040000D01*
X26293114Y-55040000D01*
X26534611Y-54991963D01*
X26762097Y-54897735D01*
X26966828Y-54760938D01*
X27140938Y-54586828D01*
X27277735Y-54382097D01*
X27371963Y-54154611D01*
X27420000Y-53913114D01*
X27420000Y-53666886D01*
X27460000Y-53666886D01*
X27460000Y-53913114D01*
X27508037Y-54154611D01*
X27602265Y-54382097D01*
X27739062Y-54586828D01*
X27913172Y-54760938D01*
X28117903Y-54897735D01*
X28345389Y-54991963D01*
X28586886Y-55040000D01*
X28833114Y-55040000D01*
X29074611Y-54991963D01*
X29302097Y-54897735D01*
X29506828Y-54760938D01*
X29680938Y-54586828D01*
X29817735Y-54382097D01*
X29911963Y-54154611D01*
X29960000Y-53913114D01*
X29960000Y-53666886D01*
X30000000Y-53666886D01*
X30000000Y-53913114D01*
X30048037Y-54154611D01*
X30142265Y-54382097D01*
X30279062Y-54586828D01*
X30453172Y-54760938D01*
X30657903Y-54897735D01*
X30885389Y-54991963D01*
X31126886Y-55040000D01*
X31373114Y-55040000D01*
X31614611Y-54991963D01*
X31842097Y-54897735D01*
X32046828Y-54760938D01*
X32220938Y-54586828D01*
X32357735Y-54382097D01*
X32412588Y-54249670D01*
X32483065Y-54436300D01*
X32634264Y-54678852D01*
X32829878Y-54887246D01*
X33062389Y-55053473D01*
X33322861Y-55171146D01*
X33411090Y-55197903D01*
X33636000Y-55086889D01*
X33636000Y-53944000D01*
X33616000Y-53944000D01*
X33616000Y-53636000D01*
X33636000Y-53636000D01*
X33636000Y-53616000D01*
X33944000Y-53616000D01*
X33944000Y-53636000D01*
X33964000Y-53636000D01*
X33964000Y-53944000D01*
X33944000Y-53944000D01*
X33944000Y-55086889D01*
X34168910Y-55197903D01*
X34257139Y-55171146D01*
X34517611Y-55053473D01*
X34750122Y-54887246D01*
X34945736Y-54678852D01*
X35096935Y-54436300D01*
X35167412Y-54249670D01*
X35222265Y-54382097D01*
X35359062Y-54586828D01*
X35533172Y-54760938D01*
X35737903Y-54897735D01*
X35965389Y-54991963D01*
X36206886Y-55040000D01*
X36453114Y-55040000D01*
X36694611Y-54991963D01*
X36922097Y-54897735D01*
X37126828Y-54760938D01*
X37300938Y-54586828D01*
X37437735Y-54382097D01*
X37531963Y-54154611D01*
X37580000Y-53913114D01*
X37580000Y-53666886D01*
X37620000Y-53666886D01*
X37620000Y-53913114D01*
X37668037Y-54154611D01*
X37762265Y-54382097D01*
X37899062Y-54586828D01*
X38073172Y-54760938D01*
X38277903Y-54897735D01*
X38505389Y-54991963D01*
X38746886Y-55040000D01*
X38993114Y-55040000D01*
X39234611Y-54991963D01*
X39462097Y-54897735D01*
X39666828Y-54760938D01*
X39840938Y-54586828D01*
X39977735Y-54382097D01*
X40032588Y-54249670D01*
X40103065Y-54436300D01*
X40254264Y-54678852D01*
X40449878Y-54887246D01*
X40682389Y-55053473D01*
X40942861Y-55171146D01*
X41031090Y-55197903D01*
X41256000Y-55086889D01*
X41256000Y-53944000D01*
X41236000Y-53944000D01*
X41236000Y-53636000D01*
X41256000Y-53636000D01*
X41256000Y-53616000D01*
X41564000Y-53616000D01*
X41564000Y-53636000D01*
X41584000Y-53636000D01*
X41584000Y-53944000D01*
X41564000Y-53944000D01*
X41564000Y-55086889D01*
X41788910Y-55197903D01*
X41877139Y-55171146D01*
X42137611Y-55053473D01*
X42370122Y-54887246D01*
X42565736Y-54678852D01*
X42716935Y-54436300D01*
X42787412Y-54249670D01*
X42842265Y-54382097D01*
X42979062Y-54586828D01*
X43153172Y-54760938D01*
X43357903Y-54897735D01*
X43585389Y-54991963D01*
X43826886Y-55040000D01*
X44073114Y-55040000D01*
X44314611Y-54991963D01*
X44542097Y-54897735D01*
X44746828Y-54760938D01*
X44920938Y-54586828D01*
X45057735Y-54382097D01*
X45151963Y-54154611D01*
X45200000Y-53913114D01*
X45200000Y-53666886D01*
X45151963Y-53425389D01*
X45057735Y-53197903D01*
X44920938Y-52993172D01*
X44746828Y-52819062D01*
X44542097Y-52682265D01*
X44314611Y-52588037D01*
X44073114Y-52540000D01*
X43826886Y-52540000D01*
X43585389Y-52588037D01*
X43357903Y-52682265D01*
X43153172Y-52819062D01*
X42979062Y-52993172D01*
X42842265Y-53197903D01*
X42787412Y-53330330D01*
X42716935Y-53143700D01*
X42565736Y-52901148D01*
X42370122Y-52692754D01*
X42137611Y-52526527D01*
X41877879Y-52409188D01*
X42002097Y-52357735D01*
X42206828Y-52220938D01*
X42380938Y-52046828D01*
X42517735Y-51842097D01*
X42611963Y-51614611D01*
X42660000Y-51373114D01*
X42660000Y-51126886D01*
X42700000Y-51126886D01*
X42700000Y-51373114D01*
X42748037Y-51614611D01*
X42842265Y-51842097D01*
X42979062Y-52046828D01*
X43153172Y-52220938D01*
X43357903Y-52357735D01*
X43585389Y-52451963D01*
X43826886Y-52500000D01*
X44073114Y-52500000D01*
X44314611Y-52451963D01*
X44542097Y-52357735D01*
X44746828Y-52220938D01*
X44920938Y-52046828D01*
X45057735Y-51842097D01*
X45112588Y-51709670D01*
X45183065Y-51896300D01*
X45334264Y-52138852D01*
X45529878Y-52347246D01*
X45762389Y-52513473D01*
X46022121Y-52630812D01*
X45897903Y-52682265D01*
X45693172Y-52819062D01*
X45519062Y-52993172D01*
X45382265Y-53197903D01*
X45288037Y-53425389D01*
X45240000Y-53666886D01*
X45240000Y-53913114D01*
X45288037Y-54154611D01*
X45382265Y-54382097D01*
X45519062Y-54586828D01*
X45693172Y-54760938D01*
X45897903Y-54897735D01*
X46125389Y-54991963D01*
X46366886Y-55040000D01*
X46613114Y-55040000D01*
X46854611Y-54991963D01*
X47082097Y-54897735D01*
X47286828Y-54760938D01*
X47460938Y-54586828D01*
X47597735Y-54382097D01*
X47691963Y-54154611D01*
X47740000Y-53913114D01*
X47740000Y-53666886D01*
X47780000Y-53666886D01*
X47780000Y-53913114D01*
X47828037Y-54154611D01*
X47922265Y-54382097D01*
X48059062Y-54586828D01*
X48233172Y-54760938D01*
X48437903Y-54897735D01*
X48665389Y-54991963D01*
X48906886Y-55040000D01*
X49153114Y-55040000D01*
X49394611Y-54991963D01*
X49622097Y-54897735D01*
X49826828Y-54760938D01*
X50000938Y-54586828D01*
X50137735Y-54382097D01*
X50192588Y-54249670D01*
X50263065Y-54436300D01*
X50414264Y-54678852D01*
X50609878Y-54887246D01*
X50842389Y-55053473D01*
X51102861Y-55171146D01*
X51191090Y-55197903D01*
X51416000Y-55086889D01*
X51416000Y-53944000D01*
X51396000Y-53944000D01*
X51396000Y-53636000D01*
X51416000Y-53636000D01*
X51416000Y-53616000D01*
X51724000Y-53616000D01*
X51724000Y-53636000D01*
X51744000Y-53636000D01*
X51744000Y-53944000D01*
X51724000Y-53944000D01*
X51724000Y-55086889D01*
X51948910Y-55197903D01*
X52037139Y-55171146D01*
X52297611Y-55053473D01*
X52530122Y-54887246D01*
X52725736Y-54678852D01*
X52876935Y-54436300D01*
X52947412Y-54249670D01*
X53002265Y-54382097D01*
X53139062Y-54586828D01*
X53313172Y-54760938D01*
X53517903Y-54897735D01*
X53745389Y-54991963D01*
X53986886Y-55040000D01*
X54233114Y-55040000D01*
X54474611Y-54991963D01*
X54702097Y-54897735D01*
X54906828Y-54760938D01*
X55080938Y-54586828D01*
X55217735Y-54382097D01*
X55311963Y-54154611D01*
X55360000Y-53913114D01*
X55360000Y-53666886D01*
X55400000Y-53666886D01*
X55400000Y-53913114D01*
X55448037Y-54154611D01*
X55542265Y-54382097D01*
X55679062Y-54586828D01*
X55853172Y-54760938D01*
X56057903Y-54897735D01*
X56285389Y-54991963D01*
X56526886Y-55040000D01*
X56773114Y-55040000D01*
X57014611Y-54991963D01*
X57242097Y-54897735D01*
X57446828Y-54760938D01*
X57620938Y-54586828D01*
X57757735Y-54382097D01*
X57851963Y-54154611D01*
X57900000Y-53913114D01*
X57900000Y-53666886D01*
X57851963Y-53425389D01*
X57757735Y-53197903D01*
X57620938Y-52993172D01*
X57446828Y-52819062D01*
X57242097Y-52682265D01*
X57014611Y-52588037D01*
X56773114Y-52540000D01*
X56526886Y-52540000D01*
X56285389Y-52588037D01*
X56057903Y-52682265D01*
X55853172Y-52819062D01*
X55679062Y-52993172D01*
X55542265Y-53197903D01*
X55448037Y-53425389D01*
X55400000Y-53666886D01*
X55360000Y-53666886D01*
X55311963Y-53425389D01*
X55217735Y-53197903D01*
X55080938Y-52993172D01*
X54906828Y-52819062D01*
X54702097Y-52682265D01*
X54474611Y-52588037D01*
X54233114Y-52540000D01*
X53986886Y-52540000D01*
X53745389Y-52588037D01*
X53517903Y-52682265D01*
X53313172Y-52819062D01*
X53139062Y-52993172D01*
X53002265Y-53197903D01*
X52947412Y-53330330D01*
X52876935Y-53143700D01*
X52725736Y-52901148D01*
X52530122Y-52692754D01*
X52297611Y-52526527D01*
X52037879Y-52409188D01*
X52162097Y-52357735D01*
X52366828Y-52220938D01*
X52540938Y-52046828D01*
X52677735Y-51842097D01*
X52771963Y-51614611D01*
X52820000Y-51373114D01*
X52820000Y-51126886D01*
X52860000Y-51126886D01*
X52860000Y-51373114D01*
X52908037Y-51614611D01*
X53002265Y-51842097D01*
X53139062Y-52046828D01*
X53313172Y-52220938D01*
X53517903Y-52357735D01*
X53745389Y-52451963D01*
X53986886Y-52500000D01*
X54233114Y-52500000D01*
X54474611Y-52451963D01*
X54702097Y-52357735D01*
X54906828Y-52220938D01*
X55080938Y-52046828D01*
X55217735Y-51842097D01*
X55311963Y-51614611D01*
X55360000Y-51373114D01*
X55360000Y-51126886D01*
X55311963Y-50885389D01*
X55217735Y-50657903D01*
X55080938Y-50453172D01*
X55027766Y-50400000D01*
X55398065Y-50400000D01*
X55398065Y-52100000D01*
X55405788Y-52178414D01*
X55428660Y-52253814D01*
X55465803Y-52323303D01*
X55515789Y-52384211D01*
X55576697Y-52434197D01*
X55646186Y-52471340D01*
X55721586Y-52494212D01*
X55800000Y-52501935D01*
X57500000Y-52501935D01*
X57578414Y-52494212D01*
X57653814Y-52471340D01*
X57723303Y-52434197D01*
X57784211Y-52384211D01*
X57834197Y-52323303D01*
X57871340Y-52253814D01*
X57894212Y-52178414D01*
X57901935Y-52100000D01*
X57901935Y-50400000D01*
X57894212Y-50321586D01*
X57871340Y-50246186D01*
X57834197Y-50176697D01*
X57784211Y-50115789D01*
X57723303Y-50065803D01*
X57653814Y-50028660D01*
X57578414Y-50005788D01*
X57500000Y-49998065D01*
X55800000Y-49998065D01*
X55721586Y-50005788D01*
X55646186Y-50028660D01*
X55576697Y-50065803D01*
X55515789Y-50115789D01*
X55465803Y-50176697D01*
X55428660Y-50246186D01*
X55405788Y-50321586D01*
X55398065Y-50400000D01*
X55027766Y-50400000D01*
X54906828Y-50279062D01*
X54702097Y-50142265D01*
X54474611Y-50048037D01*
X54233114Y-50000000D01*
X53986886Y-50000000D01*
X53745389Y-50048037D01*
X53517903Y-50142265D01*
X53313172Y-50279062D01*
X53139062Y-50453172D01*
X53002265Y-50657903D01*
X52908037Y-50885389D01*
X52860000Y-51126886D01*
X52820000Y-51126886D01*
X52771963Y-50885389D01*
X52677735Y-50657903D01*
X52540938Y-50453172D01*
X52366828Y-50279062D01*
X52162097Y-50142265D01*
X51934611Y-50048037D01*
X51693114Y-50000000D01*
X51446886Y-50000000D01*
X51205389Y-50048037D01*
X50977903Y-50142265D01*
X50773172Y-50279062D01*
X50599062Y-50453172D01*
X50462265Y-50657903D01*
X50368037Y-50885389D01*
X50320000Y-51126886D01*
X50320000Y-51373114D01*
X50368037Y-51614611D01*
X50462265Y-51842097D01*
X50599062Y-52046828D01*
X50773172Y-52220938D01*
X50977903Y-52357735D01*
X51102121Y-52409188D01*
X50842389Y-52526527D01*
X50609878Y-52692754D01*
X50414264Y-52901148D01*
X50263065Y-53143700D01*
X50192588Y-53330330D01*
X50137735Y-53197903D01*
X50000938Y-52993172D01*
X49826828Y-52819062D01*
X49622097Y-52682265D01*
X49394611Y-52588037D01*
X49153114Y-52540000D01*
X48906886Y-52540000D01*
X48665389Y-52588037D01*
X48437903Y-52682265D01*
X48233172Y-52819062D01*
X48059062Y-52993172D01*
X47922265Y-53197903D01*
X47828037Y-53425389D01*
X47780000Y-53666886D01*
X47740000Y-53666886D01*
X47691963Y-53425389D01*
X47597735Y-53197903D01*
X47460938Y-52993172D01*
X47286828Y-52819062D01*
X47082097Y-52682265D01*
X46957879Y-52630812D01*
X47217611Y-52513473D01*
X47450122Y-52347246D01*
X47645736Y-52138852D01*
X47796935Y-51896300D01*
X47867412Y-51709670D01*
X47922265Y-51842097D01*
X48059062Y-52046828D01*
X48233172Y-52220938D01*
X48437903Y-52357735D01*
X48665389Y-52451963D01*
X48906886Y-52500000D01*
X49153114Y-52500000D01*
X49394611Y-52451963D01*
X49622097Y-52357735D01*
X49826828Y-52220938D01*
X50000938Y-52046828D01*
X50137735Y-51842097D01*
X50231963Y-51614611D01*
X50280000Y-51373114D01*
X50280000Y-51126886D01*
X50231963Y-50885389D01*
X50137735Y-50657903D01*
X50000938Y-50453172D01*
X49826828Y-50279062D01*
X49622097Y-50142265D01*
X49394611Y-50048037D01*
X49153114Y-50000000D01*
X48906886Y-50000000D01*
X48665389Y-50048037D01*
X48437903Y-50142265D01*
X48233172Y-50279062D01*
X48059062Y-50453172D01*
X47922265Y-50657903D01*
X47867412Y-50790330D01*
X47796935Y-50603700D01*
X47645736Y-50361148D01*
X47450122Y-50152754D01*
X47217611Y-49986527D01*
X46957139Y-49868854D01*
X46868910Y-49842097D01*
X46644000Y-49953111D01*
X46644000Y-51096000D01*
X46664000Y-51096000D01*
X46664000Y-51404000D01*
X46644000Y-51404000D01*
X46644000Y-51424000D01*
X46336000Y-51424000D01*
X46336000Y-51404000D01*
X46316000Y-51404000D01*
X46316000Y-51096000D01*
X46336000Y-51096000D01*
X46336000Y-49953111D01*
X46111090Y-49842097D01*
X46022861Y-49868854D01*
X45762389Y-49986527D01*
X45529878Y-50152754D01*
X45334264Y-50361148D01*
X45183065Y-50603700D01*
X45112588Y-50790330D01*
X45057735Y-50657903D01*
X44920938Y-50453172D01*
X44746828Y-50279062D01*
X44542097Y-50142265D01*
X44314611Y-50048037D01*
X44073114Y-50000000D01*
X43826886Y-50000000D01*
X43585389Y-50048037D01*
X43357903Y-50142265D01*
X43153172Y-50279062D01*
X42979062Y-50453172D01*
X42842265Y-50657903D01*
X42748037Y-50885389D01*
X42700000Y-51126886D01*
X42660000Y-51126886D01*
X42611963Y-50885389D01*
X42517735Y-50657903D01*
X42380938Y-50453172D01*
X42206828Y-50279062D01*
X42002097Y-50142265D01*
X41774611Y-50048037D01*
X41533114Y-50000000D01*
X41286886Y-50000000D01*
X41045389Y-50048037D01*
X40817903Y-50142265D01*
X40613172Y-50279062D01*
X40439062Y-50453172D01*
X40302265Y-50657903D01*
X40208037Y-50885389D01*
X40160000Y-51126886D01*
X40160000Y-51373114D01*
X40208037Y-51614611D01*
X40302265Y-51842097D01*
X40439062Y-52046828D01*
X40613172Y-52220938D01*
X40817903Y-52357735D01*
X40942121Y-52409188D01*
X40682389Y-52526527D01*
X40449878Y-52692754D01*
X40254264Y-52901148D01*
X40103065Y-53143700D01*
X40032588Y-53330330D01*
X39977735Y-53197903D01*
X39840938Y-52993172D01*
X39666828Y-52819062D01*
X39462097Y-52682265D01*
X39234611Y-52588037D01*
X38993114Y-52540000D01*
X38746886Y-52540000D01*
X38505389Y-52588037D01*
X38277903Y-52682265D01*
X38073172Y-52819062D01*
X37899062Y-52993172D01*
X37762265Y-53197903D01*
X37668037Y-53425389D01*
X37620000Y-53666886D01*
X37580000Y-53666886D01*
X37531963Y-53425389D01*
X37437735Y-53197903D01*
X37300938Y-52993172D01*
X37126828Y-52819062D01*
X36922097Y-52682265D01*
X36694611Y-52588037D01*
X36453114Y-52540000D01*
X36206886Y-52540000D01*
X35965389Y-52588037D01*
X35737903Y-52682265D01*
X35533172Y-52819062D01*
X35359062Y-52993172D01*
X35222265Y-53197903D01*
X35167412Y-53330330D01*
X35096935Y-53143700D01*
X34945736Y-52901148D01*
X34750122Y-52692754D01*
X34517611Y-52526527D01*
X34257879Y-52409188D01*
X34382097Y-52357735D01*
X34586828Y-52220938D01*
X34760938Y-52046828D01*
X34897735Y-51842097D01*
X34991963Y-51614611D01*
X35040000Y-51373114D01*
X35040000Y-51126886D01*
X35080000Y-51126886D01*
X35080000Y-51373114D01*
X35128037Y-51614611D01*
X35222265Y-51842097D01*
X35359062Y-52046828D01*
X35533172Y-52220938D01*
X35737903Y-52357735D01*
X35965389Y-52451963D01*
X36206886Y-52500000D01*
X36453114Y-52500000D01*
X36694611Y-52451963D01*
X36922097Y-52357735D01*
X37126828Y-52220938D01*
X37300938Y-52046828D01*
X37437735Y-51842097D01*
X37531963Y-51614611D01*
X37580000Y-51373114D01*
X37580000Y-51126886D01*
X37620000Y-51126886D01*
X37620000Y-51373114D01*
X37668037Y-51614611D01*
X37762265Y-51842097D01*
X37899062Y-52046828D01*
X38073172Y-52220938D01*
X38277903Y-52357735D01*
X38505389Y-52451963D01*
X38746886Y-52500000D01*
X38993114Y-52500000D01*
X39234611Y-52451963D01*
X39462097Y-52357735D01*
X39666828Y-52220938D01*
X39840938Y-52046828D01*
X39977735Y-51842097D01*
X40071963Y-51614611D01*
X40120000Y-51373114D01*
X40120000Y-51126886D01*
X40071963Y-50885389D01*
X39977735Y-50657903D01*
X39840938Y-50453172D01*
X39666828Y-50279062D01*
X39462097Y-50142265D01*
X39234611Y-50048037D01*
X38993114Y-50000000D01*
X38746886Y-50000000D01*
X38505389Y-50048037D01*
X38277903Y-50142265D01*
X38073172Y-50279062D01*
X37899062Y-50453172D01*
X37762265Y-50657903D01*
X37668037Y-50885389D01*
X37620000Y-51126886D01*
X37580000Y-51126886D01*
X37531963Y-50885389D01*
X37437735Y-50657903D01*
X37300938Y-50453172D01*
X37126828Y-50279062D01*
X36922097Y-50142265D01*
X36694611Y-50048037D01*
X36453114Y-50000000D01*
X36206886Y-50000000D01*
X35965389Y-50048037D01*
X35737903Y-50142265D01*
X35533172Y-50279062D01*
X35359062Y-50453172D01*
X35222265Y-50657903D01*
X35128037Y-50885389D01*
X35080000Y-51126886D01*
X35040000Y-51126886D01*
X34991963Y-50885389D01*
X34897735Y-50657903D01*
X34760938Y-50453172D01*
X34586828Y-50279062D01*
X34382097Y-50142265D01*
X34154611Y-50048037D01*
X33913114Y-50000000D01*
X33666886Y-50000000D01*
X33425389Y-50048037D01*
X33197903Y-50142265D01*
X32993172Y-50279062D01*
X32819062Y-50453172D01*
X32682265Y-50657903D01*
X32588037Y-50885389D01*
X32540000Y-51126886D01*
X32540000Y-51373114D01*
X32588037Y-51614611D01*
X32682265Y-51842097D01*
X32819062Y-52046828D01*
X32993172Y-52220938D01*
X33197903Y-52357735D01*
X33322121Y-52409188D01*
X33062389Y-52526527D01*
X32829878Y-52692754D01*
X32634264Y-52901148D01*
X32483065Y-53143700D01*
X32412588Y-53330330D01*
X32357735Y-53197903D01*
X32220938Y-52993172D01*
X32046828Y-52819062D01*
X31842097Y-52682265D01*
X31614611Y-52588037D01*
X31373114Y-52540000D01*
X31126886Y-52540000D01*
X30885389Y-52588037D01*
X30657903Y-52682265D01*
X30453172Y-52819062D01*
X30279062Y-52993172D01*
X30142265Y-53197903D01*
X30048037Y-53425389D01*
X30000000Y-53666886D01*
X29960000Y-53666886D01*
X29911963Y-53425389D01*
X29817735Y-53197903D01*
X29680938Y-52993172D01*
X29506828Y-52819062D01*
X29302097Y-52682265D01*
X29074611Y-52588037D01*
X28833114Y-52540000D01*
X28586886Y-52540000D01*
X28345389Y-52588037D01*
X28117903Y-52682265D01*
X27913172Y-52819062D01*
X27739062Y-52993172D01*
X27602265Y-53197903D01*
X27508037Y-53425389D01*
X27460000Y-53666886D01*
X27420000Y-53666886D01*
X27371963Y-53425389D01*
X27277735Y-53197903D01*
X27140938Y-52993172D01*
X26966828Y-52819062D01*
X26762097Y-52682265D01*
X26637879Y-52630812D01*
X26897611Y-52513473D01*
X27130122Y-52347246D01*
X27325736Y-52138852D01*
X27476935Y-51896300D01*
X27547412Y-51709670D01*
X27602265Y-51842097D01*
X27739062Y-52046828D01*
X27913172Y-52220938D01*
X28117903Y-52357735D01*
X28345389Y-52451963D01*
X28586886Y-52500000D01*
X28833114Y-52500000D01*
X29074611Y-52451963D01*
X29302097Y-52357735D01*
X29506828Y-52220938D01*
X29680938Y-52046828D01*
X29817735Y-51842097D01*
X29911963Y-51614611D01*
X29960000Y-51373114D01*
X29960000Y-51126886D01*
X30000000Y-51126886D01*
X30000000Y-51373114D01*
X30048037Y-51614611D01*
X30142265Y-51842097D01*
X30279062Y-52046828D01*
X30453172Y-52220938D01*
X30657903Y-52357735D01*
X30885389Y-52451963D01*
X31126886Y-52500000D01*
X31373114Y-52500000D01*
X31614611Y-52451963D01*
X31842097Y-52357735D01*
X32046828Y-52220938D01*
X32220938Y-52046828D01*
X32357735Y-51842097D01*
X32451963Y-51614611D01*
X32500000Y-51373114D01*
X32500000Y-51126886D01*
X32451963Y-50885389D01*
X32357735Y-50657903D01*
X32220938Y-50453172D01*
X32046828Y-50279062D01*
X31842097Y-50142265D01*
X31614611Y-50048037D01*
X31373114Y-50000000D01*
X31126886Y-50000000D01*
X30885389Y-50048037D01*
X30657903Y-50142265D01*
X30453172Y-50279062D01*
X30279062Y-50453172D01*
X30142265Y-50657903D01*
X30048037Y-50885389D01*
X30000000Y-51126886D01*
X29960000Y-51126886D01*
X29911963Y-50885389D01*
X29817735Y-50657903D01*
X29680938Y-50453172D01*
X29506828Y-50279062D01*
X29302097Y-50142265D01*
X29074611Y-50048037D01*
X28833114Y-50000000D01*
X28586886Y-50000000D01*
X28345389Y-50048037D01*
X28117903Y-50142265D01*
X27913172Y-50279062D01*
X27739062Y-50453172D01*
X27602265Y-50657903D01*
X27547412Y-50790330D01*
X27476935Y-50603700D01*
X27325736Y-50361148D01*
X27130122Y-50152754D01*
X26897611Y-49986527D01*
X26637139Y-49868854D01*
X26548910Y-49842097D01*
X26324000Y-49953111D01*
X26324000Y-51096000D01*
X26344000Y-51096000D01*
X26344000Y-51404000D01*
X26324000Y-51404000D01*
X26324000Y-51424000D01*
X26016000Y-51424000D01*
X26016000Y-51404000D01*
X25996000Y-51404000D01*
X25996000Y-51096000D01*
X26016000Y-51096000D01*
X26016000Y-49953111D01*
X25791090Y-49842097D01*
X25702861Y-49868854D01*
X25442389Y-49986527D01*
X25209878Y-50152754D01*
X25014264Y-50361148D01*
X24863065Y-50603700D01*
X24792588Y-50790330D01*
X24737735Y-50657903D01*
X24600938Y-50453172D01*
X24426828Y-50279062D01*
X24222097Y-50142265D01*
X23994611Y-50048037D01*
X23753114Y-50000000D01*
X23506886Y-50000000D01*
X23265389Y-50048037D01*
X23037903Y-50142265D01*
X22833172Y-50279062D01*
X22659062Y-50453172D01*
X22522265Y-50657903D01*
X22428037Y-50885389D01*
X22380000Y-51126886D01*
X22340000Y-51126886D01*
X22291963Y-50885389D01*
X22197735Y-50657903D01*
X22060938Y-50453172D01*
X21886828Y-50279062D01*
X21682097Y-50142265D01*
X21454611Y-50048037D01*
X21213114Y-50000000D01*
X20966886Y-50000000D01*
X20725389Y-50048037D01*
X20497903Y-50142265D01*
X20293172Y-50279062D01*
X20119062Y-50453172D01*
X19982265Y-50657903D01*
X19888037Y-50885389D01*
X19840000Y-51126886D01*
X19840000Y-51373114D01*
X19888037Y-51614611D01*
X19982265Y-51842097D01*
X20119062Y-52046828D01*
X20293172Y-52220938D01*
X20497903Y-52357735D01*
X20622121Y-52409188D01*
X20362389Y-52526527D01*
X20129878Y-52692754D01*
X19934264Y-52901148D01*
X19783065Y-53143700D01*
X19712588Y-53330330D01*
X19657735Y-53197903D01*
X19520938Y-52993172D01*
X19346828Y-52819062D01*
X19142097Y-52682265D01*
X18914611Y-52588037D01*
X18673114Y-52540000D01*
X18426886Y-52540000D01*
X18185389Y-52588037D01*
X17957903Y-52682265D01*
X17753172Y-52819062D01*
X17579062Y-52993172D01*
X17442265Y-53197903D01*
X17387412Y-53330330D01*
X17316935Y-53143700D01*
X17165736Y-52901148D01*
X16970122Y-52692754D01*
X16737611Y-52526527D01*
X16477879Y-52409188D01*
X16602097Y-52357735D01*
X16806828Y-52220938D01*
X16980938Y-52046828D01*
X17117735Y-51842097D01*
X17211963Y-51614611D01*
X17260000Y-51373114D01*
X17260000Y-51126886D01*
X17211963Y-50885389D01*
X17117735Y-50657903D01*
X16985000Y-50459251D01*
X16985000Y-46683334D01*
X16987298Y-46660002D01*
X16978127Y-46566886D01*
X16950966Y-46477347D01*
X16915036Y-46410128D01*
X16906859Y-46394829D01*
X16847501Y-46322501D01*
X16829377Y-46307627D01*
X16281795Y-45760046D01*
X16290000Y-45718795D01*
X16290000Y-45561209D01*
X16277719Y-45499465D01*
X18075001Y-47296749D01*
X18075000Y-50093762D01*
X17957903Y-50142265D01*
X17753172Y-50279062D01*
X17579062Y-50453172D01*
X17442265Y-50657903D01*
X17348037Y-50885389D01*
X17300000Y-51126886D01*
X17300000Y-51373114D01*
X17348037Y-51614611D01*
X17442265Y-51842097D01*
X17579062Y-52046828D01*
X17753172Y-52220938D01*
X17957903Y-52357735D01*
X18185389Y-52451963D01*
X18426886Y-52500000D01*
X18673114Y-52500000D01*
X18914611Y-52451963D01*
X19142097Y-52357735D01*
X19346828Y-52220938D01*
X19520938Y-52046828D01*
X19657735Y-51842097D01*
X19751963Y-51614611D01*
X19800000Y-51373114D01*
X19800000Y-51126886D01*
X19751963Y-50885389D01*
X19657735Y-50657903D01*
X19520938Y-50453172D01*
X19346828Y-50279062D01*
X19142097Y-50142265D01*
X19025000Y-50093762D01*
X19025000Y-47123328D01*
X19027298Y-47099996D01*
X19018127Y-47006880D01*
X18990966Y-46917342D01*
X18946859Y-46834823D01*
X18902374Y-46780618D01*
X18887501Y-46762495D01*
X18869377Y-46747621D01*
X16301799Y-44180045D01*
X16310004Y-44138793D01*
X16310004Y-43981207D01*
X16279261Y-43826649D01*
X16218955Y-43681058D01*
X16131405Y-43550030D01*
X16019974Y-43438599D01*
X15888946Y-43351049D01*
X15743355Y-43290743D01*
X15588797Y-43260000D01*
X15431211Y-43260000D01*
X15276653Y-43290743D01*
X15131062Y-43351049D01*
X15000034Y-43438599D01*
X14888603Y-43550030D01*
X14801053Y-43681058D01*
X14740747Y-43826649D01*
X14710004Y-43981207D01*
X14710004Y-44138793D01*
X14740747Y-44293351D01*
X14801053Y-44438942D01*
X14888603Y-44569970D01*
X15000034Y-44681401D01*
X15131062Y-44768951D01*
X15276653Y-44829257D01*
X15370940Y-44848012D01*
X15256649Y-44870745D01*
X15111058Y-44931051D01*
X14980030Y-45018601D01*
X14868599Y-45130032D01*
X14781049Y-45261060D01*
X14720743Y-45406651D01*
X14690000Y-45561209D01*
X14690000Y-45718795D01*
X14720743Y-45873353D01*
X14781049Y-46018944D01*
X14868599Y-46149972D01*
X14980030Y-46261403D01*
X15111058Y-46348953D01*
X15256649Y-46409259D01*
X15411207Y-46440002D01*
X15568793Y-46440002D01*
X15610044Y-46431797D01*
X15677976Y-46499729D01*
X15578791Y-46480000D01*
X15421205Y-46480000D01*
X15266647Y-46510743D01*
X15121056Y-46571049D01*
X14990028Y-46658599D01*
X14878597Y-46770030D01*
X14791047Y-46901058D01*
X14730741Y-47046649D01*
X14699998Y-47201207D01*
X14699998Y-47358793D01*
X14708203Y-47400043D01*
X13150629Y-48957619D01*
X13132500Y-48972497D01*
X13073142Y-49044825D01*
X13029035Y-49127344D01*
X13001873Y-49216882D01*
X12992702Y-49309998D01*
X12995001Y-49333340D01*
X12995001Y-50093761D01*
X12877903Y-50142265D01*
X12673172Y-50279062D01*
X12499062Y-50453172D01*
X12362265Y-50657903D01*
X12268037Y-50885389D01*
X12220000Y-51126886D01*
X12180000Y-51126886D01*
X12131963Y-50885389D01*
X12037735Y-50657903D01*
X11900938Y-50453172D01*
X11726828Y-50279062D01*
X11522097Y-50142265D01*
X11294611Y-50048037D01*
X11053114Y-50000000D01*
X10806886Y-50000000D01*
X10565389Y-50048037D01*
X10337903Y-50142265D01*
X10133172Y-50279062D01*
X9959062Y-50453172D01*
X9822265Y-50657903D01*
X9767412Y-50790330D01*
X9696935Y-50603700D01*
X9545736Y-50361148D01*
X9350122Y-50152754D01*
X9117611Y-49986527D01*
X8857139Y-49868854D01*
X8768910Y-49842097D01*
X8544000Y-49953111D01*
X8544000Y-51096000D01*
X8564000Y-51096000D01*
X8564000Y-51404000D01*
X8544000Y-51404000D01*
X8544000Y-51424000D01*
X8236000Y-51424000D01*
X8236000Y-51404000D01*
X7092150Y-51404000D01*
X6982091Y-51628911D01*
X6640401Y-51628911D01*
X6625104Y-51552010D01*
X6380112Y-50960548D01*
X6320338Y-50871089D01*
X6982091Y-50871089D01*
X7092150Y-51096000D01*
X8236000Y-51096000D01*
X8236000Y-49953111D01*
X8011090Y-49842097D01*
X7922861Y-49868854D01*
X7662389Y-49986527D01*
X7429878Y-50152754D01*
X7234264Y-50361148D01*
X7083065Y-50603700D01*
X6982091Y-50871089D01*
X6320338Y-50871089D01*
X6024440Y-50428246D01*
X5571754Y-49975560D01*
X5039452Y-49619888D01*
X4447990Y-49374896D01*
X3820097Y-49250000D01*
X3179903Y-49250000D01*
X2552010Y-49374896D01*
X1960548Y-49619888D01*
X1428246Y-49975560D01*
X975560Y-50428246D01*
X619888Y-50960548D01*
X425000Y-51431048D01*
X425000Y-41471207D01*
X14700000Y-41471207D01*
X14700000Y-41628793D01*
X14730743Y-41783351D01*
X14791049Y-41928942D01*
X14849170Y-42015926D01*
X14850155Y-42019174D01*
X14915155Y-42140781D01*
X14980708Y-42220657D01*
X15002630Y-42247369D01*
X15029343Y-42269292D01*
X20330709Y-47570659D01*
X20352630Y-47597370D01*
X20379341Y-47619291D01*
X20379342Y-47619292D01*
X20459219Y-47684845D01*
X20580825Y-47749845D01*
X20712776Y-47789872D01*
X20850000Y-47803387D01*
X20884390Y-47800000D01*
X33015613Y-47800000D01*
X33050000Y-47803387D01*
X33084387Y-47800000D01*
X33084390Y-47800000D01*
X33187224Y-47789872D01*
X33319175Y-47749845D01*
X33440781Y-47684845D01*
X33547370Y-47597370D01*
X33569296Y-47570653D01*
X34067550Y-47072400D01*
X34083351Y-47069257D01*
X34228942Y-47008951D01*
X34359970Y-46921401D01*
X34471401Y-46809970D01*
X34558951Y-46678942D01*
X34619257Y-46533351D01*
X34650000Y-46378793D01*
X34650000Y-46221207D01*
X34619257Y-46066649D01*
X34558951Y-45921058D01*
X34471401Y-45790030D01*
X34359970Y-45678599D01*
X34228942Y-45591049D01*
X34083351Y-45530743D01*
X33928793Y-45500000D01*
X33771207Y-45500000D01*
X33616649Y-45530743D01*
X33471058Y-45591049D01*
X33340030Y-45678599D01*
X33228599Y-45790030D01*
X33141049Y-45921058D01*
X33080743Y-46066649D01*
X33077600Y-46082450D01*
X32760051Y-46400000D01*
X21139950Y-46400000D01*
X16300000Y-41560051D01*
X16300000Y-41471207D01*
X16269257Y-41316649D01*
X16208951Y-41171058D01*
X16142233Y-41071207D01*
X16650000Y-41071207D01*
X16650000Y-41228793D01*
X16680743Y-41383351D01*
X16741049Y-41528942D01*
X16828599Y-41659970D01*
X16940030Y-41771401D01*
X17071058Y-41858951D01*
X17216649Y-41919257D01*
X17371207Y-41950000D01*
X17528793Y-41950000D01*
X17683351Y-41919257D01*
X17828942Y-41858951D01*
X17959970Y-41771401D01*
X18056371Y-41675000D01*
X18182539Y-41675000D01*
X19025000Y-42517462D01*
X19025001Y-43874210D01*
X19022461Y-43900000D01*
X19032597Y-44002917D01*
X19062617Y-44101880D01*
X19111367Y-44193085D01*
X19111368Y-44193086D01*
X19176974Y-44273027D01*
X19197005Y-44289466D01*
X20310534Y-45402996D01*
X20326973Y-45423027D01*
X20406914Y-45488633D01*
X20498119Y-45537383D01*
X20597082Y-45567403D01*
X20674212Y-45575000D01*
X20700000Y-45577540D01*
X20725788Y-45575000D01*
X20893629Y-45575000D01*
X20990030Y-45671401D01*
X21121058Y-45758951D01*
X21266649Y-45819257D01*
X21421207Y-45850000D01*
X21578793Y-45850000D01*
X21733351Y-45819257D01*
X21878942Y-45758951D01*
X22009970Y-45671401D01*
X22106371Y-45575000D01*
X29839416Y-45575000D01*
X29841049Y-45578942D01*
X29928599Y-45709970D01*
X30040030Y-45821401D01*
X30171058Y-45908951D01*
X30316649Y-45969257D01*
X30471207Y-46000000D01*
X30628793Y-46000000D01*
X30783351Y-45969257D01*
X30928942Y-45908951D01*
X31059970Y-45821401D01*
X31171401Y-45709970D01*
X31258951Y-45578942D01*
X31319257Y-45433351D01*
X31350000Y-45278793D01*
X31350000Y-45121207D01*
X31319257Y-44966649D01*
X31258951Y-44821058D01*
X31171401Y-44690030D01*
X31059970Y-44578599D01*
X30928942Y-44491049D01*
X30783351Y-44430743D01*
X30628793Y-44400000D01*
X30471207Y-44400000D01*
X30316649Y-44430743D01*
X30171058Y-44491049D01*
X30120247Y-44525000D01*
X22106371Y-44525000D01*
X22009970Y-44428599D01*
X21878942Y-44341049D01*
X21733351Y-44280743D01*
X21578793Y-44250000D01*
X21421207Y-44250000D01*
X21266649Y-44280743D01*
X21121058Y-44341049D01*
X20990030Y-44428599D01*
X20905545Y-44513084D01*
X20369347Y-43976886D01*
X40210000Y-43976886D01*
X40210000Y-44223114D01*
X40258037Y-44464611D01*
X40352265Y-44692097D01*
X40489062Y-44896828D01*
X40663172Y-45070938D01*
X40867903Y-45207735D01*
X41095389Y-45301963D01*
X41336886Y-45350000D01*
X41583114Y-45350000D01*
X41824611Y-45301963D01*
X42052097Y-45207735D01*
X42256828Y-45070938D01*
X42430938Y-44896828D01*
X42567735Y-44692097D01*
X42661963Y-44464611D01*
X42710000Y-44223114D01*
X42710000Y-43976886D01*
X42750000Y-43976886D01*
X42750000Y-44223114D01*
X42798037Y-44464611D01*
X42892265Y-44692097D01*
X43029062Y-44896828D01*
X43203172Y-45070938D01*
X43407903Y-45207735D01*
X43635389Y-45301963D01*
X43876886Y-45350000D01*
X44123114Y-45350000D01*
X44364611Y-45301963D01*
X44592097Y-45207735D01*
X44796828Y-45070938D01*
X44970938Y-44896828D01*
X45107735Y-44692097D01*
X45201963Y-44464611D01*
X45250000Y-44223114D01*
X45250000Y-43976886D01*
X45290000Y-43976886D01*
X45290000Y-44223114D01*
X45338037Y-44464611D01*
X45432265Y-44692097D01*
X45569062Y-44896828D01*
X45743172Y-45070938D01*
X45947903Y-45207735D01*
X46175389Y-45301963D01*
X46416886Y-45350000D01*
X46663114Y-45350000D01*
X46904611Y-45301963D01*
X47132097Y-45207735D01*
X47336828Y-45070938D01*
X47510938Y-44896828D01*
X47647735Y-44692097D01*
X47741963Y-44464611D01*
X47790000Y-44223114D01*
X47790000Y-43976886D01*
X47830000Y-43976886D01*
X47830000Y-44223114D01*
X47878037Y-44464611D01*
X47972265Y-44692097D01*
X48109062Y-44896828D01*
X48283172Y-45070938D01*
X48487903Y-45207735D01*
X48715389Y-45301963D01*
X48956886Y-45350000D01*
X49203114Y-45350000D01*
X49444611Y-45301963D01*
X49672097Y-45207735D01*
X49876828Y-45070938D01*
X50050938Y-44896828D01*
X50187735Y-44692097D01*
X50281963Y-44464611D01*
X50330000Y-44223114D01*
X50330000Y-43976886D01*
X50370000Y-43976886D01*
X50370000Y-44223114D01*
X50418037Y-44464611D01*
X50512265Y-44692097D01*
X50649062Y-44896828D01*
X50823172Y-45070938D01*
X51027903Y-45207735D01*
X51255389Y-45301963D01*
X51496886Y-45350000D01*
X51743114Y-45350000D01*
X51984611Y-45301963D01*
X52212097Y-45207735D01*
X52416828Y-45070938D01*
X52590938Y-44896828D01*
X52727735Y-44692097D01*
X52821963Y-44464611D01*
X52870000Y-44223114D01*
X52870000Y-43976886D01*
X52910000Y-43976886D01*
X52910000Y-44223114D01*
X52958037Y-44464611D01*
X53052265Y-44692097D01*
X53189062Y-44896828D01*
X53363172Y-45070938D01*
X53567903Y-45207735D01*
X53795389Y-45301963D01*
X54036886Y-45350000D01*
X54283114Y-45350000D01*
X54524611Y-45301963D01*
X54752097Y-45207735D01*
X54956828Y-45070938D01*
X55130938Y-44896828D01*
X55267735Y-44692097D01*
X55361963Y-44464611D01*
X55410000Y-44223114D01*
X55410000Y-43976886D01*
X55361963Y-43735389D01*
X55267735Y-43507903D01*
X55130938Y-43303172D01*
X55077766Y-43250000D01*
X55448065Y-43250000D01*
X55448065Y-44950000D01*
X55455788Y-45028414D01*
X55478660Y-45103814D01*
X55515803Y-45173303D01*
X55565789Y-45234211D01*
X55626697Y-45284197D01*
X55696186Y-45321340D01*
X55771586Y-45344212D01*
X55850000Y-45351935D01*
X57550000Y-45351935D01*
X57628414Y-45344212D01*
X57703814Y-45321340D01*
X57773303Y-45284197D01*
X57834211Y-45234211D01*
X57884197Y-45173303D01*
X57921340Y-45103814D01*
X57944212Y-45028414D01*
X57951935Y-44950000D01*
X57951935Y-43250000D01*
X57944212Y-43171586D01*
X57921340Y-43096186D01*
X57884197Y-43026697D01*
X57834211Y-42965789D01*
X57773303Y-42915803D01*
X57703814Y-42878660D01*
X57628414Y-42855788D01*
X57550000Y-42848065D01*
X55850000Y-42848065D01*
X55771586Y-42855788D01*
X55696186Y-42878660D01*
X55626697Y-42915803D01*
X55565789Y-42965789D01*
X55515803Y-43026697D01*
X55478660Y-43096186D01*
X55455788Y-43171586D01*
X55448065Y-43250000D01*
X55077766Y-43250000D01*
X54956828Y-43129062D01*
X54752097Y-42992265D01*
X54524611Y-42898037D01*
X54283114Y-42850000D01*
X54036886Y-42850000D01*
X53795389Y-42898037D01*
X53567903Y-42992265D01*
X53363172Y-43129062D01*
X53189062Y-43303172D01*
X53052265Y-43507903D01*
X52958037Y-43735389D01*
X52910000Y-43976886D01*
X52870000Y-43976886D01*
X52821963Y-43735389D01*
X52727735Y-43507903D01*
X52590938Y-43303172D01*
X52416828Y-43129062D01*
X52212097Y-42992265D01*
X51984611Y-42898037D01*
X51743114Y-42850000D01*
X51496886Y-42850000D01*
X51255389Y-42898037D01*
X51027903Y-42992265D01*
X50823172Y-43129062D01*
X50649062Y-43303172D01*
X50512265Y-43507903D01*
X50418037Y-43735389D01*
X50370000Y-43976886D01*
X50330000Y-43976886D01*
X50281963Y-43735389D01*
X50187735Y-43507903D01*
X50050938Y-43303172D01*
X49876828Y-43129062D01*
X49672097Y-42992265D01*
X49444611Y-42898037D01*
X49203114Y-42850000D01*
X48956886Y-42850000D01*
X48715389Y-42898037D01*
X48487903Y-42992265D01*
X48283172Y-43129062D01*
X48109062Y-43303172D01*
X47972265Y-43507903D01*
X47878037Y-43735389D01*
X47830000Y-43976886D01*
X47790000Y-43976886D01*
X47741963Y-43735389D01*
X47647735Y-43507903D01*
X47510938Y-43303172D01*
X47336828Y-43129062D01*
X47132097Y-42992265D01*
X46904611Y-42898037D01*
X46663114Y-42850000D01*
X46416886Y-42850000D01*
X46175389Y-42898037D01*
X45947903Y-42992265D01*
X45743172Y-43129062D01*
X45569062Y-43303172D01*
X45432265Y-43507903D01*
X45338037Y-43735389D01*
X45290000Y-43976886D01*
X45250000Y-43976886D01*
X45201963Y-43735389D01*
X45107735Y-43507903D01*
X44970938Y-43303172D01*
X44796828Y-43129062D01*
X44592097Y-42992265D01*
X44364611Y-42898037D01*
X44123114Y-42850000D01*
X43876886Y-42850000D01*
X43635389Y-42898037D01*
X43407903Y-42992265D01*
X43203172Y-43129062D01*
X43029062Y-43303172D01*
X42892265Y-43507903D01*
X42798037Y-43735389D01*
X42750000Y-43976886D01*
X42710000Y-43976886D01*
X42661963Y-43735389D01*
X42567735Y-43507903D01*
X42430938Y-43303172D01*
X42256828Y-43129062D01*
X42052097Y-42992265D01*
X41824611Y-42898037D01*
X41583114Y-42850000D01*
X41336886Y-42850000D01*
X41095389Y-42898037D01*
X40867903Y-42992265D01*
X40663172Y-43129062D01*
X40489062Y-43303172D01*
X40352265Y-43507903D01*
X40258037Y-43735389D01*
X40210000Y-43976886D01*
X20369347Y-43976886D01*
X20075000Y-43682539D01*
X20075000Y-42325788D01*
X20077540Y-42300000D01*
X20067403Y-42197083D01*
X20037383Y-42098119D01*
X20016992Y-42059970D01*
X19988633Y-42006914D01*
X19923027Y-41926973D01*
X19902996Y-41910534D01*
X18789471Y-40797010D01*
X18773027Y-40776973D01*
X18693086Y-40711367D01*
X18601881Y-40662617D01*
X18502918Y-40632597D01*
X18425788Y-40625000D01*
X18425780Y-40625000D01*
X18400000Y-40622461D01*
X18374220Y-40625000D01*
X18056371Y-40625000D01*
X17959970Y-40528599D01*
X17828942Y-40441049D01*
X17683351Y-40380743D01*
X17528793Y-40350000D01*
X17371207Y-40350000D01*
X17216649Y-40380743D01*
X17071058Y-40441049D01*
X16940030Y-40528599D01*
X16828599Y-40640030D01*
X16741049Y-40771058D01*
X16680743Y-40916649D01*
X16650000Y-41071207D01*
X16142233Y-41071207D01*
X16121401Y-41040030D01*
X16009970Y-40928599D01*
X15878942Y-40841049D01*
X15733351Y-40780743D01*
X15578793Y-40750000D01*
X15421207Y-40750000D01*
X15266649Y-40780743D01*
X15121058Y-40841049D01*
X14990030Y-40928599D01*
X14878599Y-41040030D01*
X14791049Y-41171058D01*
X14730743Y-41316649D01*
X14700000Y-41471207D01*
X425000Y-41471207D01*
X425000Y-34421207D01*
X27700006Y-34421207D01*
X27700006Y-34578793D01*
X27730749Y-34733351D01*
X27791055Y-34878942D01*
X27878605Y-35009970D01*
X27990036Y-35121401D01*
X28121064Y-35208951D01*
X28266655Y-35269257D01*
X28395684Y-35294922D01*
X30580042Y-37479280D01*
X30600743Y-37583351D01*
X30661049Y-37728942D01*
X30748599Y-37859970D01*
X30860030Y-37971401D01*
X30991058Y-38058951D01*
X31136649Y-38119257D01*
X31291207Y-38150000D01*
X31448793Y-38150000D01*
X31603351Y-38119257D01*
X31748942Y-38058951D01*
X31837169Y-38000000D01*
X39728079Y-38000000D01*
X39760000Y-38003144D01*
X39791921Y-38000000D01*
X39791932Y-38000000D01*
X39887422Y-37990595D01*
X40009948Y-37953427D01*
X40122868Y-37893070D01*
X40221843Y-37811843D01*
X40242200Y-37787038D01*
X45437045Y-32592194D01*
X45461843Y-32571843D01*
X45543070Y-32472868D01*
X45603427Y-32359948D01*
X45640595Y-32237422D01*
X45650000Y-32141932D01*
X45650000Y-32141922D01*
X45653144Y-32110001D01*
X45650000Y-32078079D01*
X45650000Y-30887169D01*
X45708951Y-30798942D01*
X45769257Y-30653351D01*
X45800000Y-30498793D01*
X45800000Y-30341207D01*
X45769257Y-30186649D01*
X45708951Y-30041058D01*
X45650000Y-29952831D01*
X45650000Y-22550000D01*
X61548065Y-22550000D01*
X61548065Y-24250000D01*
X61555788Y-24328414D01*
X61578660Y-24403814D01*
X61615803Y-24473303D01*
X61665789Y-24534211D01*
X61726697Y-24584197D01*
X61796186Y-24621340D01*
X61871586Y-24644212D01*
X61950000Y-24651935D01*
X63650000Y-24651935D01*
X63728414Y-24644212D01*
X63803814Y-24621340D01*
X63873303Y-24584197D01*
X63934211Y-24534211D01*
X63984197Y-24473303D01*
X64021340Y-24403814D01*
X64044212Y-24328414D01*
X64051935Y-24250000D01*
X64051935Y-22550000D01*
X64044212Y-22471586D01*
X64021340Y-22396186D01*
X63984197Y-22326697D01*
X63934211Y-22265789D01*
X63873303Y-22215803D01*
X63803814Y-22178660D01*
X63728414Y-22155788D01*
X63650000Y-22148065D01*
X61950000Y-22148065D01*
X61871586Y-22155788D01*
X61796186Y-22178660D01*
X61726697Y-22215803D01*
X61665789Y-22265789D01*
X61615803Y-22326697D01*
X61578660Y-22396186D01*
X61555788Y-22471586D01*
X61548065Y-22550000D01*
X45650000Y-22550000D01*
X45650000Y-20402202D01*
X45698951Y-20328942D01*
X45759257Y-20183351D01*
X45762400Y-20167549D01*
X50370659Y-15559291D01*
X50397370Y-15537370D01*
X50484845Y-15430781D01*
X50549845Y-15309175D01*
X50589872Y-15177224D01*
X50600000Y-15074390D01*
X50603387Y-15040000D01*
X50600000Y-15005610D01*
X50600000Y-12550000D01*
X61548065Y-12550000D01*
X61548065Y-14250000D01*
X61555788Y-14328414D01*
X61578660Y-14403814D01*
X61615803Y-14473303D01*
X61665789Y-14534211D01*
X61726697Y-14584197D01*
X61796186Y-14621340D01*
X61871586Y-14644212D01*
X61950000Y-14651935D01*
X63650000Y-14651935D01*
X63728414Y-14644212D01*
X63803814Y-14621340D01*
X63873303Y-14584197D01*
X63934211Y-14534211D01*
X63984197Y-14473303D01*
X64021340Y-14403814D01*
X64044212Y-14328414D01*
X64051935Y-14250000D01*
X64051935Y-12550000D01*
X64044212Y-12471586D01*
X64021340Y-12396186D01*
X63984197Y-12326697D01*
X63934211Y-12265789D01*
X63873303Y-12215803D01*
X63803814Y-12178660D01*
X63728414Y-12155788D01*
X63650000Y-12148065D01*
X61950000Y-12148065D01*
X61871586Y-12155788D01*
X61796186Y-12178660D01*
X61726697Y-12215803D01*
X61665789Y-12265789D01*
X61615803Y-12326697D01*
X61578660Y-12396186D01*
X61555788Y-12471586D01*
X61548065Y-12550000D01*
X50600000Y-12550000D01*
X50600000Y-10102384D01*
X50603387Y-10067997D01*
X50600000Y-10033608D01*
X50589872Y-9930774D01*
X50549845Y-9798823D01*
X50484846Y-9677218D01*
X50484845Y-9677216D01*
X50419291Y-9597340D01*
X50397369Y-9570628D01*
X50370658Y-9548707D01*
X49799999Y-8978048D01*
X49799999Y-8302387D01*
X49803386Y-8267997D01*
X49789871Y-8130773D01*
X49749844Y-7998822D01*
X49684844Y-7877216D01*
X49619291Y-7797339D01*
X49619286Y-7797334D01*
X49597368Y-7770627D01*
X49570662Y-7748710D01*
X48051298Y-6229347D01*
X48029372Y-6202630D01*
X47922783Y-6115155D01*
X47801177Y-6050155D01*
X47669226Y-6010128D01*
X47566392Y-6000000D01*
X47566389Y-6000000D01*
X47532002Y-5996613D01*
X47497615Y-6000000D01*
X47192338Y-6000000D01*
X47178942Y-5991049D01*
X47033351Y-5930743D01*
X46878793Y-5900000D01*
X46721207Y-5900000D01*
X46566649Y-5930743D01*
X46421058Y-5991049D01*
X46290030Y-6078599D01*
X46178599Y-6190030D01*
X46091049Y-6321058D01*
X46030743Y-6466649D01*
X46000000Y-6621207D01*
X46000000Y-6778793D01*
X46030743Y-6933351D01*
X46091049Y-7078942D01*
X46178599Y-7209970D01*
X46290030Y-7321401D01*
X46421058Y-7408951D01*
X46566649Y-7469257D01*
X46721207Y-7500000D01*
X46878793Y-7500000D01*
X47033351Y-7469257D01*
X47178942Y-7408951D01*
X47192338Y-7400000D01*
X47242053Y-7400000D01*
X48399999Y-8557947D01*
X48400000Y-9233601D01*
X48396612Y-9267997D01*
X48410128Y-9405220D01*
X48450154Y-9537171D01*
X48515154Y-9658778D01*
X48580707Y-9738654D01*
X48602630Y-9765367D01*
X48629341Y-9787288D01*
X49200000Y-10357947D01*
X49200001Y-14750049D01*
X44772451Y-19177600D01*
X44756649Y-19180743D01*
X44611058Y-19241049D01*
X44480030Y-19328599D01*
X44368599Y-19440030D01*
X44281049Y-19571058D01*
X44220743Y-19716649D01*
X44190000Y-19871207D01*
X44190000Y-20028793D01*
X44220743Y-20183351D01*
X44281049Y-20328942D01*
X44350001Y-20432136D01*
X44350000Y-29952831D01*
X44291049Y-30041058D01*
X44230743Y-30186649D01*
X44200000Y-30341207D01*
X44200000Y-30498793D01*
X44230743Y-30653351D01*
X44291049Y-30798942D01*
X44350001Y-30887170D01*
X44350000Y-31840761D01*
X39490762Y-36700000D01*
X31837169Y-36700000D01*
X31748942Y-36641049D01*
X31603351Y-36580743D01*
X31499280Y-36560042D01*
X29284999Y-34345761D01*
X29269263Y-34266649D01*
X29208957Y-34121058D01*
X29121407Y-33990030D01*
X29009976Y-33878599D01*
X28878948Y-33791049D01*
X28733357Y-33730743D01*
X28578799Y-33700000D01*
X28421213Y-33700000D01*
X28266655Y-33730743D01*
X28121064Y-33791049D01*
X27990036Y-33878599D01*
X27878605Y-33990030D01*
X27791055Y-34121058D01*
X27730749Y-34266649D01*
X27700006Y-34421207D01*
X425000Y-34421207D01*
X425000Y-31676886D01*
X34850000Y-31676886D01*
X34850000Y-31923114D01*
X34898037Y-32164611D01*
X34992265Y-32392097D01*
X35129062Y-32596828D01*
X35303172Y-32770938D01*
X35507903Y-32907735D01*
X35735389Y-33001963D01*
X35976886Y-33050000D01*
X36223114Y-33050000D01*
X36464611Y-33001963D01*
X36692097Y-32907735D01*
X36896828Y-32770938D01*
X37070938Y-32596828D01*
X37207735Y-32392097D01*
X37301963Y-32164611D01*
X37350000Y-31923114D01*
X37350000Y-31676886D01*
X37301963Y-31435389D01*
X37207735Y-31207903D01*
X37070938Y-31003172D01*
X36896828Y-30829062D01*
X36692097Y-30692265D01*
X36464611Y-30598037D01*
X36223114Y-30550000D01*
X35976886Y-30550000D01*
X35735389Y-30598037D01*
X35507903Y-30692265D01*
X35303172Y-30829062D01*
X35129062Y-31003172D01*
X34992265Y-31207903D01*
X34898037Y-31435389D01*
X34850000Y-31676886D01*
X425000Y-31676886D01*
X425000Y-30003949D01*
X32699932Y-30003949D01*
X32707655Y-30082363D01*
X32730527Y-30157763D01*
X32767670Y-30227252D01*
X32817656Y-30288160D01*
X34019738Y-31490242D01*
X34080646Y-31540228D01*
X34150135Y-31577371D01*
X34225535Y-31600243D01*
X34303949Y-31607966D01*
X34382363Y-31600243D01*
X34457763Y-31577371D01*
X34527252Y-31540228D01*
X34588160Y-31490242D01*
X35790242Y-30288160D01*
X35840228Y-30227252D01*
X35877371Y-30157763D01*
X35900243Y-30082363D01*
X35907966Y-30003949D01*
X35900243Y-29925535D01*
X35877371Y-29850135D01*
X35840228Y-29780646D01*
X35790242Y-29719738D01*
X34588160Y-28517656D01*
X34527252Y-28467670D01*
X34457763Y-28430527D01*
X34382363Y-28407655D01*
X34303949Y-28399932D01*
X34225535Y-28407655D01*
X34150135Y-28430527D01*
X34080646Y-28467670D01*
X34019738Y-28517656D01*
X32817656Y-29719738D01*
X32767670Y-29780646D01*
X32730527Y-29850135D01*
X32707655Y-29925535D01*
X32699932Y-30003949D01*
X425000Y-30003949D01*
X425000Y-4568952D01*
X619888Y-5039452D01*
X975560Y-5571754D01*
X1428246Y-6024440D01*
X1960548Y-6380112D01*
X2552010Y-6625104D01*
X3179903Y-6750000D01*
X3820097Y-6750000D01*
X4447990Y-6625104D01*
X5039452Y-6380112D01*
X5571754Y-6024440D01*
X6024440Y-5571754D01*
X6380112Y-5039452D01*
X6625104Y-4447990D01*
X6750000Y-3820097D01*
X6750000Y-3179903D01*
X6625104Y-2552010D01*
X6380112Y-1960548D01*
X6024440Y-1428246D01*
X5571754Y-975560D01*
X5039452Y-619888D01*
X4568952Y-425000D01*
X60431048Y-425000D01*
X59960548Y-619888D01*
G37*
X59960548Y-619888D02*
X59428246Y-975560D01*
X58975560Y-1428246D01*
X58619888Y-1960548D01*
X58374896Y-2552010D01*
X58250000Y-3179903D01*
X58250000Y-3820097D01*
X58374896Y-4447990D01*
X58619888Y-5039452D01*
X58975560Y-5571754D01*
X59428246Y-6024440D01*
X59960548Y-6380112D01*
X60552010Y-6625104D01*
X61179903Y-6750000D01*
X61820097Y-6750000D01*
X62447990Y-6625104D01*
X63039452Y-6380112D01*
X63571754Y-6024440D01*
X64024440Y-5571754D01*
X64380112Y-5039452D01*
X64575001Y-4568949D01*
X64575000Y-51431048D01*
X64380112Y-50960548D01*
X64024440Y-50428246D01*
X63571754Y-49975560D01*
X63039452Y-49619888D01*
X62447990Y-49374896D01*
X61820097Y-49250000D01*
X61179903Y-49250000D01*
X60552010Y-49374896D01*
X59960548Y-49619888D01*
X59428246Y-49975560D01*
X58975560Y-50428246D01*
X58619888Y-50960548D01*
X58374896Y-51552010D01*
X58250000Y-52179903D01*
X58250000Y-52820097D01*
X58374896Y-53447990D01*
X58619888Y-54039452D01*
X58975560Y-54571754D01*
X59428246Y-55024440D01*
X59960548Y-55380112D01*
X60431048Y-55575000D01*
X4568952Y-55575000D01*
X5039452Y-55380112D01*
X5571754Y-55024440D01*
X6024440Y-54571754D01*
X6380112Y-54039452D01*
X6625104Y-53447990D01*
X6750000Y-52820097D01*
X6750000Y-52179903D01*
X6640401Y-51628911D01*
X6982091Y-51628911D01*
X7083065Y-51896300D01*
X7234264Y-52138852D01*
X7429878Y-52347246D01*
X7662389Y-52513473D01*
X7922121Y-52630812D01*
X7797903Y-52682265D01*
X7593172Y-52819062D01*
X7419062Y-52993172D01*
X7282265Y-53197903D01*
X7188037Y-53425389D01*
X7140000Y-53666886D01*
X7140000Y-53913114D01*
X7188037Y-54154611D01*
X7282265Y-54382097D01*
X7419062Y-54586828D01*
X7593172Y-54760938D01*
X7797903Y-54897735D01*
X8025389Y-54991963D01*
X8266886Y-55040000D01*
X8513114Y-55040000D01*
X8754611Y-54991963D01*
X8982097Y-54897735D01*
X9186828Y-54760938D01*
X9360938Y-54586828D01*
X9497735Y-54382097D01*
X9591963Y-54154611D01*
X9640000Y-53913114D01*
X9640000Y-53666886D01*
X9680000Y-53666886D01*
X9680000Y-53913114D01*
X9728037Y-54154611D01*
X9822265Y-54382097D01*
X9959062Y-54586828D01*
X10133172Y-54760938D01*
X10337903Y-54897735D01*
X10565389Y-54991963D01*
X10806886Y-55040000D01*
X11053114Y-55040000D01*
X11294611Y-54991963D01*
X11522097Y-54897735D01*
X11726828Y-54760938D01*
X11900938Y-54586828D01*
X12037735Y-54382097D01*
X12131963Y-54154611D01*
X12180000Y-53913114D01*
X12180000Y-53666886D01*
X12131963Y-53425389D01*
X12037735Y-53197903D01*
X11900938Y-52993172D01*
X11726828Y-52819062D01*
X11522097Y-52682265D01*
X11294611Y-52588037D01*
X11053114Y-52540000D01*
X10806886Y-52540000D01*
X10565389Y-52588037D01*
X10337903Y-52682265D01*
X10133172Y-52819062D01*
X9959062Y-52993172D01*
X9822265Y-53197903D01*
X9728037Y-53425389D01*
X9680000Y-53666886D01*
X9640000Y-53666886D01*
X9591963Y-53425389D01*
X9497735Y-53197903D01*
X9360938Y-52993172D01*
X9186828Y-52819062D01*
X8982097Y-52682265D01*
X8857879Y-52630812D01*
X9117611Y-52513473D01*
X9350122Y-52347246D01*
X9545736Y-52138852D01*
X9696935Y-51896300D01*
X9767412Y-51709670D01*
X9822265Y-51842097D01*
X9959062Y-52046828D01*
X10133172Y-52220938D01*
X10337903Y-52357735D01*
X10565389Y-52451963D01*
X10806886Y-52500000D01*
X11053114Y-52500000D01*
X11294611Y-52451963D01*
X11522097Y-52357735D01*
X11726828Y-52220938D01*
X11900938Y-52046828D01*
X12037735Y-51842097D01*
X12131963Y-51614611D01*
X12180000Y-51373114D01*
X12180000Y-51126886D01*
X12220000Y-51126886D01*
X12220000Y-51373114D01*
X12268037Y-51614611D01*
X12362265Y-51842097D01*
X12499062Y-52046828D01*
X12673172Y-52220938D01*
X12877903Y-52357735D01*
X13105389Y-52451963D01*
X13346886Y-52500000D01*
X13593114Y-52500000D01*
X13834611Y-52451963D01*
X14062097Y-52357735D01*
X14266828Y-52220938D01*
X14440938Y-52046828D01*
X14577735Y-51842097D01*
X14671963Y-51614611D01*
X14720000Y-51373114D01*
X14720000Y-51126886D01*
X14671963Y-50885389D01*
X14577735Y-50657903D01*
X14440938Y-50453172D01*
X14266828Y-50279062D01*
X14062097Y-50142265D01*
X13945000Y-50093762D01*
X13945000Y-49506748D01*
X15379955Y-48071795D01*
X15421205Y-48080000D01*
X15578791Y-48080000D01*
X15733349Y-48049257D01*
X15878940Y-47988951D01*
X16009968Y-47901401D01*
X16035001Y-47876368D01*
X16035000Y-50000000D01*
X15886886Y-50000000D01*
X15645389Y-50048037D01*
X15417903Y-50142265D01*
X15213172Y-50279062D01*
X15039062Y-50453172D01*
X14902265Y-50657903D01*
X14808037Y-50885389D01*
X14760000Y-51126886D01*
X14760000Y-51373114D01*
X14808037Y-51614611D01*
X14902265Y-51842097D01*
X15039062Y-52046828D01*
X15213172Y-52220938D01*
X15417903Y-52357735D01*
X15542121Y-52409188D01*
X15282389Y-52526527D01*
X15049878Y-52692754D01*
X14854264Y-52901148D01*
X14703065Y-53143700D01*
X14632588Y-53330330D01*
X14577735Y-53197903D01*
X14440938Y-52993172D01*
X14266828Y-52819062D01*
X14062097Y-52682265D01*
X13834611Y-52588037D01*
X13593114Y-52540000D01*
X13346886Y-52540000D01*
X13105389Y-52588037D01*
X12877903Y-52682265D01*
X12673172Y-52819062D01*
X12499062Y-52993172D01*
X12362265Y-53197903D01*
X12268037Y-53425389D01*
X12220000Y-53666886D01*
X12220000Y-53913114D01*
X12268037Y-54154611D01*
X12362265Y-54382097D01*
X12499062Y-54586828D01*
X12673172Y-54760938D01*
X12877903Y-54897735D01*
X13105389Y-54991963D01*
X13346886Y-55040000D01*
X13593114Y-55040000D01*
X13834611Y-54991963D01*
X14062097Y-54897735D01*
X14266828Y-54760938D01*
X14440938Y-54586828D01*
X14577735Y-54382097D01*
X14632588Y-54249670D01*
X14703065Y-54436300D01*
X14854264Y-54678852D01*
X15049878Y-54887246D01*
X15282389Y-55053473D01*
X15542861Y-55171146D01*
X15631090Y-55197903D01*
X15856000Y-55086889D01*
X15856000Y-53944000D01*
X15836000Y-53944000D01*
X15836000Y-53636000D01*
X15856000Y-53636000D01*
X15856000Y-53616000D01*
X16164000Y-53616000D01*
X16164000Y-53636000D01*
X16184000Y-53636000D01*
X16184000Y-53944000D01*
X16164000Y-53944000D01*
X16164000Y-55086889D01*
X16388910Y-55197903D01*
X16477139Y-55171146D01*
X16737611Y-55053473D01*
X16970122Y-54887246D01*
X17165736Y-54678852D01*
X17316935Y-54436300D01*
X17387412Y-54249670D01*
X17442265Y-54382097D01*
X17579062Y-54586828D01*
X17753172Y-54760938D01*
X17957903Y-54897735D01*
X18185389Y-54991963D01*
X18426886Y-55040000D01*
X18673114Y-55040000D01*
X18914611Y-54991963D01*
X19142097Y-54897735D01*
X19346828Y-54760938D01*
X19520938Y-54586828D01*
X19657735Y-54382097D01*
X19712588Y-54249670D01*
X19783065Y-54436300D01*
X19934264Y-54678852D01*
X20129878Y-54887246D01*
X20362389Y-55053473D01*
X20622861Y-55171146D01*
X20711090Y-55197903D01*
X20936000Y-55086889D01*
X20936000Y-53944000D01*
X20916000Y-53944000D01*
X20916000Y-53636000D01*
X20936000Y-53636000D01*
X20936000Y-53616000D01*
X21244000Y-53616000D01*
X21244000Y-53636000D01*
X21264000Y-53636000D01*
X21264000Y-53944000D01*
X21244000Y-53944000D01*
X21244000Y-55086889D01*
X21468910Y-55197903D01*
X21557139Y-55171146D01*
X21817611Y-55053473D01*
X22050122Y-54887246D01*
X22245736Y-54678852D01*
X22396935Y-54436300D01*
X22467412Y-54249670D01*
X22522265Y-54382097D01*
X22659062Y-54586828D01*
X22833172Y-54760938D01*
X23037903Y-54897735D01*
X23265389Y-54991963D01*
X23506886Y-55040000D01*
X23753114Y-55040000D01*
X23994611Y-54991963D01*
X24222097Y-54897735D01*
X24426828Y-54760938D01*
X24600938Y-54586828D01*
X24737735Y-54382097D01*
X24831963Y-54154611D01*
X24880000Y-53913114D01*
X24880000Y-53666886D01*
X24831963Y-53425389D01*
X24737735Y-53197903D01*
X24600938Y-52993172D01*
X24426828Y-52819062D01*
X24222097Y-52682265D01*
X23994611Y-52588037D01*
X23753114Y-52540000D01*
X23506886Y-52540000D01*
X23265389Y-52588037D01*
X23037903Y-52682265D01*
X22833172Y-52819062D01*
X22659062Y-52993172D01*
X22522265Y-53197903D01*
X22467412Y-53330330D01*
X22396935Y-53143700D01*
X22245736Y-52901148D01*
X22050122Y-52692754D01*
X21817611Y-52526527D01*
X21557879Y-52409188D01*
X21682097Y-52357735D01*
X21886828Y-52220938D01*
X22060938Y-52046828D01*
X22197735Y-51842097D01*
X22291963Y-51614611D01*
X22340000Y-51373114D01*
X22340000Y-51126886D01*
X22380000Y-51126886D01*
X22380000Y-51373114D01*
X22428037Y-51614611D01*
X22522265Y-51842097D01*
X22659062Y-52046828D01*
X22833172Y-52220938D01*
X23037903Y-52357735D01*
X23265389Y-52451963D01*
X23506886Y-52500000D01*
X23753114Y-52500000D01*
X23994611Y-52451963D01*
X24222097Y-52357735D01*
X24426828Y-52220938D01*
X24600938Y-52046828D01*
X24737735Y-51842097D01*
X24792588Y-51709670D01*
X24863065Y-51896300D01*
X25014264Y-52138852D01*
X25209878Y-52347246D01*
X25442389Y-52513473D01*
X25702121Y-52630812D01*
X25577903Y-52682265D01*
X25373172Y-52819062D01*
X25199062Y-52993172D01*
X25062265Y-53197903D01*
X24968037Y-53425389D01*
X24920000Y-53666886D01*
X24920000Y-53913114D01*
X24968037Y-54154611D01*
X25062265Y-54382097D01*
X25199062Y-54586828D01*
X25373172Y-54760938D01*
X25577903Y-54897735D01*
X25805389Y-54991963D01*
X26046886Y-55040000D01*
X26293114Y-55040000D01*
X26534611Y-54991963D01*
X26762097Y-54897735D01*
X26966828Y-54760938D01*
X27140938Y-54586828D01*
X27277735Y-54382097D01*
X27371963Y-54154611D01*
X27420000Y-53913114D01*
X27420000Y-53666886D01*
X27460000Y-53666886D01*
X27460000Y-53913114D01*
X27508037Y-54154611D01*
X27602265Y-54382097D01*
X27739062Y-54586828D01*
X27913172Y-54760938D01*
X28117903Y-54897735D01*
X28345389Y-54991963D01*
X28586886Y-55040000D01*
X28833114Y-55040000D01*
X29074611Y-54991963D01*
X29302097Y-54897735D01*
X29506828Y-54760938D01*
X29680938Y-54586828D01*
X29817735Y-54382097D01*
X29911963Y-54154611D01*
X29960000Y-53913114D01*
X29960000Y-53666886D01*
X30000000Y-53666886D01*
X30000000Y-53913114D01*
X30048037Y-54154611D01*
X30142265Y-54382097D01*
X30279062Y-54586828D01*
X30453172Y-54760938D01*
X30657903Y-54897735D01*
X30885389Y-54991963D01*
X31126886Y-55040000D01*
X31373114Y-55040000D01*
X31614611Y-54991963D01*
X31842097Y-54897735D01*
X32046828Y-54760938D01*
X32220938Y-54586828D01*
X32357735Y-54382097D01*
X32412588Y-54249670D01*
X32483065Y-54436300D01*
X32634264Y-54678852D01*
X32829878Y-54887246D01*
X33062389Y-55053473D01*
X33322861Y-55171146D01*
X33411090Y-55197903D01*
X33636000Y-55086889D01*
X33636000Y-53944000D01*
X33616000Y-53944000D01*
X33616000Y-53636000D01*
X33636000Y-53636000D01*
X33636000Y-53616000D01*
X33944000Y-53616000D01*
X33944000Y-53636000D01*
X33964000Y-53636000D01*
X33964000Y-53944000D01*
X33944000Y-53944000D01*
X33944000Y-55086889D01*
X34168910Y-55197903D01*
X34257139Y-55171146D01*
X34517611Y-55053473D01*
X34750122Y-54887246D01*
X34945736Y-54678852D01*
X35096935Y-54436300D01*
X35167412Y-54249670D01*
X35222265Y-54382097D01*
X35359062Y-54586828D01*
X35533172Y-54760938D01*
X35737903Y-54897735D01*
X35965389Y-54991963D01*
X36206886Y-55040000D01*
X36453114Y-55040000D01*
X36694611Y-54991963D01*
X36922097Y-54897735D01*
X37126828Y-54760938D01*
X37300938Y-54586828D01*
X37437735Y-54382097D01*
X37531963Y-54154611D01*
X37580000Y-53913114D01*
X37580000Y-53666886D01*
X37620000Y-53666886D01*
X37620000Y-53913114D01*
X37668037Y-54154611D01*
X37762265Y-54382097D01*
X37899062Y-54586828D01*
X38073172Y-54760938D01*
X38277903Y-54897735D01*
X38505389Y-54991963D01*
X38746886Y-55040000D01*
X38993114Y-55040000D01*
X39234611Y-54991963D01*
X39462097Y-54897735D01*
X39666828Y-54760938D01*
X39840938Y-54586828D01*
X39977735Y-54382097D01*
X40032588Y-54249670D01*
X40103065Y-54436300D01*
X40254264Y-54678852D01*
X40449878Y-54887246D01*
X40682389Y-55053473D01*
X40942861Y-55171146D01*
X41031090Y-55197903D01*
X41256000Y-55086889D01*
X41256000Y-53944000D01*
X41236000Y-53944000D01*
X41236000Y-53636000D01*
X41256000Y-53636000D01*
X41256000Y-53616000D01*
X41564000Y-53616000D01*
X41564000Y-53636000D01*
X41584000Y-53636000D01*
X41584000Y-53944000D01*
X41564000Y-53944000D01*
X41564000Y-55086889D01*
X41788910Y-55197903D01*
X41877139Y-55171146D01*
X42137611Y-55053473D01*
X42370122Y-54887246D01*
X42565736Y-54678852D01*
X42716935Y-54436300D01*
X42787412Y-54249670D01*
X42842265Y-54382097D01*
X42979062Y-54586828D01*
X43153172Y-54760938D01*
X43357903Y-54897735D01*
X43585389Y-54991963D01*
X43826886Y-55040000D01*
X44073114Y-55040000D01*
X44314611Y-54991963D01*
X44542097Y-54897735D01*
X44746828Y-54760938D01*
X44920938Y-54586828D01*
X45057735Y-54382097D01*
X45151963Y-54154611D01*
X45200000Y-53913114D01*
X45200000Y-53666886D01*
X45151963Y-53425389D01*
X45057735Y-53197903D01*
X44920938Y-52993172D01*
X44746828Y-52819062D01*
X44542097Y-52682265D01*
X44314611Y-52588037D01*
X44073114Y-52540000D01*
X43826886Y-52540000D01*
X43585389Y-52588037D01*
X43357903Y-52682265D01*
X43153172Y-52819062D01*
X42979062Y-52993172D01*
X42842265Y-53197903D01*
X42787412Y-53330330D01*
X42716935Y-53143700D01*
X42565736Y-52901148D01*
X42370122Y-52692754D01*
X42137611Y-52526527D01*
X41877879Y-52409188D01*
X42002097Y-52357735D01*
X42206828Y-52220938D01*
X42380938Y-52046828D01*
X42517735Y-51842097D01*
X42611963Y-51614611D01*
X42660000Y-51373114D01*
X42660000Y-51126886D01*
X42700000Y-51126886D01*
X42700000Y-51373114D01*
X42748037Y-51614611D01*
X42842265Y-51842097D01*
X42979062Y-52046828D01*
X43153172Y-52220938D01*
X43357903Y-52357735D01*
X43585389Y-52451963D01*
X43826886Y-52500000D01*
X44073114Y-52500000D01*
X44314611Y-52451963D01*
X44542097Y-52357735D01*
X44746828Y-52220938D01*
X44920938Y-52046828D01*
X45057735Y-51842097D01*
X45112588Y-51709670D01*
X45183065Y-51896300D01*
X45334264Y-52138852D01*
X45529878Y-52347246D01*
X45762389Y-52513473D01*
X46022121Y-52630812D01*
X45897903Y-52682265D01*
X45693172Y-52819062D01*
X45519062Y-52993172D01*
X45382265Y-53197903D01*
X45288037Y-53425389D01*
X45240000Y-53666886D01*
X45240000Y-53913114D01*
X45288037Y-54154611D01*
X45382265Y-54382097D01*
X45519062Y-54586828D01*
X45693172Y-54760938D01*
X45897903Y-54897735D01*
X46125389Y-54991963D01*
X46366886Y-55040000D01*
X46613114Y-55040000D01*
X46854611Y-54991963D01*
X47082097Y-54897735D01*
X47286828Y-54760938D01*
X47460938Y-54586828D01*
X47597735Y-54382097D01*
X47691963Y-54154611D01*
X47740000Y-53913114D01*
X47740000Y-53666886D01*
X47780000Y-53666886D01*
X47780000Y-53913114D01*
X47828037Y-54154611D01*
X47922265Y-54382097D01*
X48059062Y-54586828D01*
X48233172Y-54760938D01*
X48437903Y-54897735D01*
X48665389Y-54991963D01*
X48906886Y-55040000D01*
X49153114Y-55040000D01*
X49394611Y-54991963D01*
X49622097Y-54897735D01*
X49826828Y-54760938D01*
X50000938Y-54586828D01*
X50137735Y-54382097D01*
X50192588Y-54249670D01*
X50263065Y-54436300D01*
X50414264Y-54678852D01*
X50609878Y-54887246D01*
X50842389Y-55053473D01*
X51102861Y-55171146D01*
X51191090Y-55197903D01*
X51416000Y-55086889D01*
X51416000Y-53944000D01*
X51396000Y-53944000D01*
X51396000Y-53636000D01*
X51416000Y-53636000D01*
X51416000Y-53616000D01*
X51724000Y-53616000D01*
X51724000Y-53636000D01*
X51744000Y-53636000D01*
X51744000Y-53944000D01*
X51724000Y-53944000D01*
X51724000Y-55086889D01*
X51948910Y-55197903D01*
X52037139Y-55171146D01*
X52297611Y-55053473D01*
X52530122Y-54887246D01*
X52725736Y-54678852D01*
X52876935Y-54436300D01*
X52947412Y-54249670D01*
X53002265Y-54382097D01*
X53139062Y-54586828D01*
X53313172Y-54760938D01*
X53517903Y-54897735D01*
X53745389Y-54991963D01*
X53986886Y-55040000D01*
X54233114Y-55040000D01*
X54474611Y-54991963D01*
X54702097Y-54897735D01*
X54906828Y-54760938D01*
X55080938Y-54586828D01*
X55217735Y-54382097D01*
X55311963Y-54154611D01*
X55360000Y-53913114D01*
X55360000Y-53666886D01*
X55400000Y-53666886D01*
X55400000Y-53913114D01*
X55448037Y-54154611D01*
X55542265Y-54382097D01*
X55679062Y-54586828D01*
X55853172Y-54760938D01*
X56057903Y-54897735D01*
X56285389Y-54991963D01*
X56526886Y-55040000D01*
X56773114Y-55040000D01*
X57014611Y-54991963D01*
X57242097Y-54897735D01*
X57446828Y-54760938D01*
X57620938Y-54586828D01*
X57757735Y-54382097D01*
X57851963Y-54154611D01*
X57900000Y-53913114D01*
X57900000Y-53666886D01*
X57851963Y-53425389D01*
X57757735Y-53197903D01*
X57620938Y-52993172D01*
X57446828Y-52819062D01*
X57242097Y-52682265D01*
X57014611Y-52588037D01*
X56773114Y-52540000D01*
X56526886Y-52540000D01*
X56285389Y-52588037D01*
X56057903Y-52682265D01*
X55853172Y-52819062D01*
X55679062Y-52993172D01*
X55542265Y-53197903D01*
X55448037Y-53425389D01*
X55400000Y-53666886D01*
X55360000Y-53666886D01*
X55311963Y-53425389D01*
X55217735Y-53197903D01*
X55080938Y-52993172D01*
X54906828Y-52819062D01*
X54702097Y-52682265D01*
X54474611Y-52588037D01*
X54233114Y-52540000D01*
X53986886Y-52540000D01*
X53745389Y-52588037D01*
X53517903Y-52682265D01*
X53313172Y-52819062D01*
X53139062Y-52993172D01*
X53002265Y-53197903D01*
X52947412Y-53330330D01*
X52876935Y-53143700D01*
X52725736Y-52901148D01*
X52530122Y-52692754D01*
X52297611Y-52526527D01*
X52037879Y-52409188D01*
X52162097Y-52357735D01*
X52366828Y-52220938D01*
X52540938Y-52046828D01*
X52677735Y-51842097D01*
X52771963Y-51614611D01*
X52820000Y-51373114D01*
X52820000Y-51126886D01*
X52860000Y-51126886D01*
X52860000Y-51373114D01*
X52908037Y-51614611D01*
X53002265Y-51842097D01*
X53139062Y-52046828D01*
X53313172Y-52220938D01*
X53517903Y-52357735D01*
X53745389Y-52451963D01*
X53986886Y-52500000D01*
X54233114Y-52500000D01*
X54474611Y-52451963D01*
X54702097Y-52357735D01*
X54906828Y-52220938D01*
X55080938Y-52046828D01*
X55217735Y-51842097D01*
X55311963Y-51614611D01*
X55360000Y-51373114D01*
X55360000Y-51126886D01*
X55311963Y-50885389D01*
X55217735Y-50657903D01*
X55080938Y-50453172D01*
X55027766Y-50400000D01*
X55398065Y-50400000D01*
X55398065Y-52100000D01*
X55405788Y-52178414D01*
X55428660Y-52253814D01*
X55465803Y-52323303D01*
X55515789Y-52384211D01*
X55576697Y-52434197D01*
X55646186Y-52471340D01*
X55721586Y-52494212D01*
X55800000Y-52501935D01*
X57500000Y-52501935D01*
X57578414Y-52494212D01*
X57653814Y-52471340D01*
X57723303Y-52434197D01*
X57784211Y-52384211D01*
X57834197Y-52323303D01*
X57871340Y-52253814D01*
X57894212Y-52178414D01*
X57901935Y-52100000D01*
X57901935Y-50400000D01*
X57894212Y-50321586D01*
X57871340Y-50246186D01*
X57834197Y-50176697D01*
X57784211Y-50115789D01*
X57723303Y-50065803D01*
X57653814Y-50028660D01*
X57578414Y-50005788D01*
X57500000Y-49998065D01*
X55800000Y-49998065D01*
X55721586Y-50005788D01*
X55646186Y-50028660D01*
X55576697Y-50065803D01*
X55515789Y-50115789D01*
X55465803Y-50176697D01*
X55428660Y-50246186D01*
X55405788Y-50321586D01*
X55398065Y-50400000D01*
X55027766Y-50400000D01*
X54906828Y-50279062D01*
X54702097Y-50142265D01*
X54474611Y-50048037D01*
X54233114Y-50000000D01*
X53986886Y-50000000D01*
X53745389Y-50048037D01*
X53517903Y-50142265D01*
X53313172Y-50279062D01*
X53139062Y-50453172D01*
X53002265Y-50657903D01*
X52908037Y-50885389D01*
X52860000Y-51126886D01*
X52820000Y-51126886D01*
X52771963Y-50885389D01*
X52677735Y-50657903D01*
X52540938Y-50453172D01*
X52366828Y-50279062D01*
X52162097Y-50142265D01*
X51934611Y-50048037D01*
X51693114Y-50000000D01*
X51446886Y-50000000D01*
X51205389Y-50048037D01*
X50977903Y-50142265D01*
X50773172Y-50279062D01*
X50599062Y-50453172D01*
X50462265Y-50657903D01*
X50368037Y-50885389D01*
X50320000Y-51126886D01*
X50320000Y-51373114D01*
X50368037Y-51614611D01*
X50462265Y-51842097D01*
X50599062Y-52046828D01*
X50773172Y-52220938D01*
X50977903Y-52357735D01*
X51102121Y-52409188D01*
X50842389Y-52526527D01*
X50609878Y-52692754D01*
X50414264Y-52901148D01*
X50263065Y-53143700D01*
X50192588Y-53330330D01*
X50137735Y-53197903D01*
X50000938Y-52993172D01*
X49826828Y-52819062D01*
X49622097Y-52682265D01*
X49394611Y-52588037D01*
X49153114Y-52540000D01*
X48906886Y-52540000D01*
X48665389Y-52588037D01*
X48437903Y-52682265D01*
X48233172Y-52819062D01*
X48059062Y-52993172D01*
X47922265Y-53197903D01*
X47828037Y-53425389D01*
X47780000Y-53666886D01*
X47740000Y-53666886D01*
X47691963Y-53425389D01*
X47597735Y-53197903D01*
X47460938Y-52993172D01*
X47286828Y-52819062D01*
X47082097Y-52682265D01*
X46957879Y-52630812D01*
X47217611Y-52513473D01*
X47450122Y-52347246D01*
X47645736Y-52138852D01*
X47796935Y-51896300D01*
X47867412Y-51709670D01*
X47922265Y-51842097D01*
X48059062Y-52046828D01*
X48233172Y-52220938D01*
X48437903Y-52357735D01*
X48665389Y-52451963D01*
X48906886Y-52500000D01*
X49153114Y-52500000D01*
X49394611Y-52451963D01*
X49622097Y-52357735D01*
X49826828Y-52220938D01*
X50000938Y-52046828D01*
X50137735Y-51842097D01*
X50231963Y-51614611D01*
X50280000Y-51373114D01*
X50280000Y-51126886D01*
X50231963Y-50885389D01*
X50137735Y-50657903D01*
X50000938Y-50453172D01*
X49826828Y-50279062D01*
X49622097Y-50142265D01*
X49394611Y-50048037D01*
X49153114Y-50000000D01*
X48906886Y-50000000D01*
X48665389Y-50048037D01*
X48437903Y-50142265D01*
X48233172Y-50279062D01*
X48059062Y-50453172D01*
X47922265Y-50657903D01*
X47867412Y-50790330D01*
X47796935Y-50603700D01*
X47645736Y-50361148D01*
X47450122Y-50152754D01*
X47217611Y-49986527D01*
X46957139Y-49868854D01*
X46868910Y-49842097D01*
X46644000Y-49953111D01*
X46644000Y-51096000D01*
X46664000Y-51096000D01*
X46664000Y-51404000D01*
X46644000Y-51404000D01*
X46644000Y-51424000D01*
X46336000Y-51424000D01*
X46336000Y-51404000D01*
X46316000Y-51404000D01*
X46316000Y-51096000D01*
X46336000Y-51096000D01*
X46336000Y-49953111D01*
X46111090Y-49842097D01*
X46022861Y-49868854D01*
X45762389Y-49986527D01*
X45529878Y-50152754D01*
X45334264Y-50361148D01*
X45183065Y-50603700D01*
X45112588Y-50790330D01*
X45057735Y-50657903D01*
X44920938Y-50453172D01*
X44746828Y-50279062D01*
X44542097Y-50142265D01*
X44314611Y-50048037D01*
X44073114Y-50000000D01*
X43826886Y-50000000D01*
X43585389Y-50048037D01*
X43357903Y-50142265D01*
X43153172Y-50279062D01*
X42979062Y-50453172D01*
X42842265Y-50657903D01*
X42748037Y-50885389D01*
X42700000Y-51126886D01*
X42660000Y-51126886D01*
X42611963Y-50885389D01*
X42517735Y-50657903D01*
X42380938Y-50453172D01*
X42206828Y-50279062D01*
X42002097Y-50142265D01*
X41774611Y-50048037D01*
X41533114Y-50000000D01*
X41286886Y-50000000D01*
X41045389Y-50048037D01*
X40817903Y-50142265D01*
X40613172Y-50279062D01*
X40439062Y-50453172D01*
X40302265Y-50657903D01*
X40208037Y-50885389D01*
X40160000Y-51126886D01*
X40160000Y-51373114D01*
X40208037Y-51614611D01*
X40302265Y-51842097D01*
X40439062Y-52046828D01*
X40613172Y-52220938D01*
X40817903Y-52357735D01*
X40942121Y-52409188D01*
X40682389Y-52526527D01*
X40449878Y-52692754D01*
X40254264Y-52901148D01*
X40103065Y-53143700D01*
X40032588Y-53330330D01*
X39977735Y-53197903D01*
X39840938Y-52993172D01*
X39666828Y-52819062D01*
X39462097Y-52682265D01*
X39234611Y-52588037D01*
X38993114Y-52540000D01*
X38746886Y-52540000D01*
X38505389Y-52588037D01*
X38277903Y-52682265D01*
X38073172Y-52819062D01*
X37899062Y-52993172D01*
X37762265Y-53197903D01*
X37668037Y-53425389D01*
X37620000Y-53666886D01*
X37580000Y-53666886D01*
X37531963Y-53425389D01*
X37437735Y-53197903D01*
X37300938Y-52993172D01*
X37126828Y-52819062D01*
X36922097Y-52682265D01*
X36694611Y-52588037D01*
X36453114Y-52540000D01*
X36206886Y-52540000D01*
X35965389Y-52588037D01*
X35737903Y-52682265D01*
X35533172Y-52819062D01*
X35359062Y-52993172D01*
X35222265Y-53197903D01*
X35167412Y-53330330D01*
X35096935Y-53143700D01*
X34945736Y-52901148D01*
X34750122Y-52692754D01*
X34517611Y-52526527D01*
X34257879Y-52409188D01*
X34382097Y-52357735D01*
X34586828Y-52220938D01*
X34760938Y-52046828D01*
X34897735Y-51842097D01*
X34991963Y-51614611D01*
X35040000Y-51373114D01*
X35040000Y-51126886D01*
X35080000Y-51126886D01*
X35080000Y-51373114D01*
X35128037Y-51614611D01*
X35222265Y-51842097D01*
X35359062Y-52046828D01*
X35533172Y-52220938D01*
X35737903Y-52357735D01*
X35965389Y-52451963D01*
X36206886Y-52500000D01*
X36453114Y-52500000D01*
X36694611Y-52451963D01*
X36922097Y-52357735D01*
X37126828Y-52220938D01*
X37300938Y-52046828D01*
X37437735Y-51842097D01*
X37531963Y-51614611D01*
X37580000Y-51373114D01*
X37580000Y-51126886D01*
X37620000Y-51126886D01*
X37620000Y-51373114D01*
X37668037Y-51614611D01*
X37762265Y-51842097D01*
X37899062Y-52046828D01*
X38073172Y-52220938D01*
X38277903Y-52357735D01*
X38505389Y-52451963D01*
X38746886Y-52500000D01*
X38993114Y-52500000D01*
X39234611Y-52451963D01*
X39462097Y-52357735D01*
X39666828Y-52220938D01*
X39840938Y-52046828D01*
X39977735Y-51842097D01*
X40071963Y-51614611D01*
X40120000Y-51373114D01*
X40120000Y-51126886D01*
X40071963Y-50885389D01*
X39977735Y-50657903D01*
X39840938Y-50453172D01*
X39666828Y-50279062D01*
X39462097Y-50142265D01*
X39234611Y-50048037D01*
X38993114Y-50000000D01*
X38746886Y-50000000D01*
X38505389Y-50048037D01*
X38277903Y-50142265D01*
X38073172Y-50279062D01*
X37899062Y-50453172D01*
X37762265Y-50657903D01*
X37668037Y-50885389D01*
X37620000Y-51126886D01*
X37580000Y-51126886D01*
X37531963Y-50885389D01*
X37437735Y-50657903D01*
X37300938Y-50453172D01*
X37126828Y-50279062D01*
X36922097Y-50142265D01*
X36694611Y-50048037D01*
X36453114Y-50000000D01*
X36206886Y-50000000D01*
X35965389Y-50048037D01*
X35737903Y-50142265D01*
X35533172Y-50279062D01*
X35359062Y-50453172D01*
X35222265Y-50657903D01*
X35128037Y-50885389D01*
X35080000Y-51126886D01*
X35040000Y-51126886D01*
X34991963Y-50885389D01*
X34897735Y-50657903D01*
X34760938Y-50453172D01*
X34586828Y-50279062D01*
X34382097Y-50142265D01*
X34154611Y-50048037D01*
X33913114Y-50000000D01*
X33666886Y-50000000D01*
X33425389Y-50048037D01*
X33197903Y-50142265D01*
X32993172Y-50279062D01*
X32819062Y-50453172D01*
X32682265Y-50657903D01*
X32588037Y-50885389D01*
X32540000Y-51126886D01*
X32540000Y-51373114D01*
X32588037Y-51614611D01*
X32682265Y-51842097D01*
X32819062Y-52046828D01*
X32993172Y-52220938D01*
X33197903Y-52357735D01*
X33322121Y-52409188D01*
X33062389Y-52526527D01*
X32829878Y-52692754D01*
X32634264Y-52901148D01*
X32483065Y-53143700D01*
X32412588Y-53330330D01*
X32357735Y-53197903D01*
X32220938Y-52993172D01*
X32046828Y-52819062D01*
X31842097Y-52682265D01*
X31614611Y-52588037D01*
X31373114Y-52540000D01*
X31126886Y-52540000D01*
X30885389Y-52588037D01*
X30657903Y-52682265D01*
X30453172Y-52819062D01*
X30279062Y-52993172D01*
X30142265Y-53197903D01*
X30048037Y-53425389D01*
X30000000Y-53666886D01*
X29960000Y-53666886D01*
X29911963Y-53425389D01*
X29817735Y-53197903D01*
X29680938Y-52993172D01*
X29506828Y-52819062D01*
X29302097Y-52682265D01*
X29074611Y-52588037D01*
X28833114Y-52540000D01*
X28586886Y-52540000D01*
X28345389Y-52588037D01*
X28117903Y-52682265D01*
X27913172Y-52819062D01*
X27739062Y-52993172D01*
X27602265Y-53197903D01*
X27508037Y-53425389D01*
X27460000Y-53666886D01*
X27420000Y-53666886D01*
X27371963Y-53425389D01*
X27277735Y-53197903D01*
X27140938Y-52993172D01*
X26966828Y-52819062D01*
X26762097Y-52682265D01*
X26637879Y-52630812D01*
X26897611Y-52513473D01*
X27130122Y-52347246D01*
X27325736Y-52138852D01*
X27476935Y-51896300D01*
X27547412Y-51709670D01*
X27602265Y-51842097D01*
X27739062Y-52046828D01*
X27913172Y-52220938D01*
X28117903Y-52357735D01*
X28345389Y-52451963D01*
X28586886Y-52500000D01*
X28833114Y-52500000D01*
X29074611Y-52451963D01*
X29302097Y-52357735D01*
X29506828Y-52220938D01*
X29680938Y-52046828D01*
X29817735Y-51842097D01*
X29911963Y-51614611D01*
X29960000Y-51373114D01*
X29960000Y-51126886D01*
X30000000Y-51126886D01*
X30000000Y-51373114D01*
X30048037Y-51614611D01*
X30142265Y-51842097D01*
X30279062Y-52046828D01*
X30453172Y-52220938D01*
X30657903Y-52357735D01*
X30885389Y-52451963D01*
X31126886Y-52500000D01*
X31373114Y-52500000D01*
X31614611Y-52451963D01*
X31842097Y-52357735D01*
X32046828Y-52220938D01*
X32220938Y-52046828D01*
X32357735Y-51842097D01*
X32451963Y-51614611D01*
X32500000Y-51373114D01*
X32500000Y-51126886D01*
X32451963Y-50885389D01*
X32357735Y-50657903D01*
X32220938Y-50453172D01*
X32046828Y-50279062D01*
X31842097Y-50142265D01*
X31614611Y-50048037D01*
X31373114Y-50000000D01*
X31126886Y-50000000D01*
X30885389Y-50048037D01*
X30657903Y-50142265D01*
X30453172Y-50279062D01*
X30279062Y-50453172D01*
X30142265Y-50657903D01*
X30048037Y-50885389D01*
X30000000Y-51126886D01*
X29960000Y-51126886D01*
X29911963Y-50885389D01*
X29817735Y-50657903D01*
X29680938Y-50453172D01*
X29506828Y-50279062D01*
X29302097Y-50142265D01*
X29074611Y-50048037D01*
X28833114Y-50000000D01*
X28586886Y-50000000D01*
X28345389Y-50048037D01*
X28117903Y-50142265D01*
X27913172Y-50279062D01*
X27739062Y-50453172D01*
X27602265Y-50657903D01*
X27547412Y-50790330D01*
X27476935Y-50603700D01*
X27325736Y-50361148D01*
X27130122Y-50152754D01*
X26897611Y-49986527D01*
X26637139Y-49868854D01*
X26548910Y-49842097D01*
X26324000Y-49953111D01*
X26324000Y-51096000D01*
X26344000Y-51096000D01*
X26344000Y-51404000D01*
X26324000Y-51404000D01*
X26324000Y-51424000D01*
X26016000Y-51424000D01*
X26016000Y-51404000D01*
X25996000Y-51404000D01*
X25996000Y-51096000D01*
X26016000Y-51096000D01*
X26016000Y-49953111D01*
X25791090Y-49842097D01*
X25702861Y-49868854D01*
X25442389Y-49986527D01*
X25209878Y-50152754D01*
X25014264Y-50361148D01*
X24863065Y-50603700D01*
X24792588Y-50790330D01*
X24737735Y-50657903D01*
X24600938Y-50453172D01*
X24426828Y-50279062D01*
X24222097Y-50142265D01*
X23994611Y-50048037D01*
X23753114Y-50000000D01*
X23506886Y-50000000D01*
X23265389Y-50048037D01*
X23037903Y-50142265D01*
X22833172Y-50279062D01*
X22659062Y-50453172D01*
X22522265Y-50657903D01*
X22428037Y-50885389D01*
X22380000Y-51126886D01*
X22340000Y-51126886D01*
X22291963Y-50885389D01*
X22197735Y-50657903D01*
X22060938Y-50453172D01*
X21886828Y-50279062D01*
X21682097Y-50142265D01*
X21454611Y-50048037D01*
X21213114Y-50000000D01*
X20966886Y-50000000D01*
X20725389Y-50048037D01*
X20497903Y-50142265D01*
X20293172Y-50279062D01*
X20119062Y-50453172D01*
X19982265Y-50657903D01*
X19888037Y-50885389D01*
X19840000Y-51126886D01*
X19840000Y-51373114D01*
X19888037Y-51614611D01*
X19982265Y-51842097D01*
X20119062Y-52046828D01*
X20293172Y-52220938D01*
X20497903Y-52357735D01*
X20622121Y-52409188D01*
X20362389Y-52526527D01*
X20129878Y-52692754D01*
X19934264Y-52901148D01*
X19783065Y-53143700D01*
X19712588Y-53330330D01*
X19657735Y-53197903D01*
X19520938Y-52993172D01*
X19346828Y-52819062D01*
X19142097Y-52682265D01*
X18914611Y-52588037D01*
X18673114Y-52540000D01*
X18426886Y-52540000D01*
X18185389Y-52588037D01*
X17957903Y-52682265D01*
X17753172Y-52819062D01*
X17579062Y-52993172D01*
X17442265Y-53197903D01*
X17387412Y-53330330D01*
X17316935Y-53143700D01*
X17165736Y-52901148D01*
X16970122Y-52692754D01*
X16737611Y-52526527D01*
X16477879Y-52409188D01*
X16602097Y-52357735D01*
X16806828Y-52220938D01*
X16980938Y-52046828D01*
X17117735Y-51842097D01*
X17211963Y-51614611D01*
X17260000Y-51373114D01*
X17260000Y-51126886D01*
X17211963Y-50885389D01*
X17117735Y-50657903D01*
X16985000Y-50459251D01*
X16985000Y-46683334D01*
X16987298Y-46660002D01*
X16978127Y-46566886D01*
X16950966Y-46477347D01*
X16915036Y-46410128D01*
X16906859Y-46394829D01*
X16847501Y-46322501D01*
X16829377Y-46307627D01*
X16281795Y-45760046D01*
X16290000Y-45718795D01*
X16290000Y-45561209D01*
X16277719Y-45499465D01*
X18075001Y-47296749D01*
X18075000Y-50093762D01*
X17957903Y-50142265D01*
X17753172Y-50279062D01*
X17579062Y-50453172D01*
X17442265Y-50657903D01*
X17348037Y-50885389D01*
X17300000Y-51126886D01*
X17300000Y-51373114D01*
X17348037Y-51614611D01*
X17442265Y-51842097D01*
X17579062Y-52046828D01*
X17753172Y-52220938D01*
X17957903Y-52357735D01*
X18185389Y-52451963D01*
X18426886Y-52500000D01*
X18673114Y-52500000D01*
X18914611Y-52451963D01*
X19142097Y-52357735D01*
X19346828Y-52220938D01*
X19520938Y-52046828D01*
X19657735Y-51842097D01*
X19751963Y-51614611D01*
X19800000Y-51373114D01*
X19800000Y-51126886D01*
X19751963Y-50885389D01*
X19657735Y-50657903D01*
X19520938Y-50453172D01*
X19346828Y-50279062D01*
X19142097Y-50142265D01*
X19025000Y-50093762D01*
X19025000Y-47123328D01*
X19027298Y-47099996D01*
X19018127Y-47006880D01*
X18990966Y-46917342D01*
X18946859Y-46834823D01*
X18902374Y-46780618D01*
X18887501Y-46762495D01*
X18869377Y-46747621D01*
X16301799Y-44180045D01*
X16310004Y-44138793D01*
X16310004Y-43981207D01*
X16279261Y-43826649D01*
X16218955Y-43681058D01*
X16131405Y-43550030D01*
X16019974Y-43438599D01*
X15888946Y-43351049D01*
X15743355Y-43290743D01*
X15588797Y-43260000D01*
X15431211Y-43260000D01*
X15276653Y-43290743D01*
X15131062Y-43351049D01*
X15000034Y-43438599D01*
X14888603Y-43550030D01*
X14801053Y-43681058D01*
X14740747Y-43826649D01*
X14710004Y-43981207D01*
X14710004Y-44138793D01*
X14740747Y-44293351D01*
X14801053Y-44438942D01*
X14888603Y-44569970D01*
X15000034Y-44681401D01*
X15131062Y-44768951D01*
X15276653Y-44829257D01*
X15370940Y-44848012D01*
X15256649Y-44870745D01*
X15111058Y-44931051D01*
X14980030Y-45018601D01*
X14868599Y-45130032D01*
X14781049Y-45261060D01*
X14720743Y-45406651D01*
X14690000Y-45561209D01*
X14690000Y-45718795D01*
X14720743Y-45873353D01*
X14781049Y-46018944D01*
X14868599Y-46149972D01*
X14980030Y-46261403D01*
X15111058Y-46348953D01*
X15256649Y-46409259D01*
X15411207Y-46440002D01*
X15568793Y-46440002D01*
X15610044Y-46431797D01*
X15677976Y-46499729D01*
X15578791Y-46480000D01*
X15421205Y-46480000D01*
X15266647Y-46510743D01*
X15121056Y-46571049D01*
X14990028Y-46658599D01*
X14878597Y-46770030D01*
X14791047Y-46901058D01*
X14730741Y-47046649D01*
X14699998Y-47201207D01*
X14699998Y-47358793D01*
X14708203Y-47400043D01*
X13150629Y-48957619D01*
X13132500Y-48972497D01*
X13073142Y-49044825D01*
X13029035Y-49127344D01*
X13001873Y-49216882D01*
X12992702Y-49309998D01*
X12995001Y-49333340D01*
X12995001Y-50093761D01*
X12877903Y-50142265D01*
X12673172Y-50279062D01*
X12499062Y-50453172D01*
X12362265Y-50657903D01*
X12268037Y-50885389D01*
X12220000Y-51126886D01*
X12180000Y-51126886D01*
X12131963Y-50885389D01*
X12037735Y-50657903D01*
X11900938Y-50453172D01*
X11726828Y-50279062D01*
X11522097Y-50142265D01*
X11294611Y-50048037D01*
X11053114Y-50000000D01*
X10806886Y-50000000D01*
X10565389Y-50048037D01*
X10337903Y-50142265D01*
X10133172Y-50279062D01*
X9959062Y-50453172D01*
X9822265Y-50657903D01*
X9767412Y-50790330D01*
X9696935Y-50603700D01*
X9545736Y-50361148D01*
X9350122Y-50152754D01*
X9117611Y-49986527D01*
X8857139Y-49868854D01*
X8768910Y-49842097D01*
X8544000Y-49953111D01*
X8544000Y-51096000D01*
X8564000Y-51096000D01*
X8564000Y-51404000D01*
X8544000Y-51404000D01*
X8544000Y-51424000D01*
X8236000Y-51424000D01*
X8236000Y-51404000D01*
X7092150Y-51404000D01*
X6982091Y-51628911D01*
X6640401Y-51628911D01*
X6625104Y-51552010D01*
X6380112Y-50960548D01*
X6320338Y-50871089D01*
X6982091Y-50871089D01*
X7092150Y-51096000D01*
X8236000Y-51096000D01*
X8236000Y-49953111D01*
X8011090Y-49842097D01*
X7922861Y-49868854D01*
X7662389Y-49986527D01*
X7429878Y-50152754D01*
X7234264Y-50361148D01*
X7083065Y-50603700D01*
X6982091Y-50871089D01*
X6320338Y-50871089D01*
X6024440Y-50428246D01*
X5571754Y-49975560D01*
X5039452Y-49619888D01*
X4447990Y-49374896D01*
X3820097Y-49250000D01*
X3179903Y-49250000D01*
X2552010Y-49374896D01*
X1960548Y-49619888D01*
X1428246Y-49975560D01*
X975560Y-50428246D01*
X619888Y-50960548D01*
X425000Y-51431048D01*
X425000Y-41471207D01*
X14700000Y-41471207D01*
X14700000Y-41628793D01*
X14730743Y-41783351D01*
X14791049Y-41928942D01*
X14849170Y-42015926D01*
X14850155Y-42019174D01*
X14915155Y-42140781D01*
X14980708Y-42220657D01*
X15002630Y-42247369D01*
X15029343Y-42269292D01*
X20330709Y-47570659D01*
X20352630Y-47597370D01*
X20379341Y-47619291D01*
X20379342Y-47619292D01*
X20459219Y-47684845D01*
X20580825Y-47749845D01*
X20712776Y-47789872D01*
X20850000Y-47803387D01*
X20884390Y-47800000D01*
X33015613Y-47800000D01*
X33050000Y-47803387D01*
X33084387Y-47800000D01*
X33084390Y-47800000D01*
X33187224Y-47789872D01*
X33319175Y-47749845D01*
X33440781Y-47684845D01*
X33547370Y-47597370D01*
X33569296Y-47570653D01*
X34067550Y-47072400D01*
X34083351Y-47069257D01*
X34228942Y-47008951D01*
X34359970Y-46921401D01*
X34471401Y-46809970D01*
X34558951Y-46678942D01*
X34619257Y-46533351D01*
X34650000Y-46378793D01*
X34650000Y-46221207D01*
X34619257Y-46066649D01*
X34558951Y-45921058D01*
X34471401Y-45790030D01*
X34359970Y-45678599D01*
X34228942Y-45591049D01*
X34083351Y-45530743D01*
X33928793Y-45500000D01*
X33771207Y-45500000D01*
X33616649Y-45530743D01*
X33471058Y-45591049D01*
X33340030Y-45678599D01*
X33228599Y-45790030D01*
X33141049Y-45921058D01*
X33080743Y-46066649D01*
X33077600Y-46082450D01*
X32760051Y-46400000D01*
X21139950Y-46400000D01*
X16300000Y-41560051D01*
X16300000Y-41471207D01*
X16269257Y-41316649D01*
X16208951Y-41171058D01*
X16142233Y-41071207D01*
X16650000Y-41071207D01*
X16650000Y-41228793D01*
X16680743Y-41383351D01*
X16741049Y-41528942D01*
X16828599Y-41659970D01*
X16940030Y-41771401D01*
X17071058Y-41858951D01*
X17216649Y-41919257D01*
X17371207Y-41950000D01*
X17528793Y-41950000D01*
X17683351Y-41919257D01*
X17828942Y-41858951D01*
X17959970Y-41771401D01*
X18056371Y-41675000D01*
X18182539Y-41675000D01*
X19025000Y-42517462D01*
X19025001Y-43874210D01*
X19022461Y-43900000D01*
X19032597Y-44002917D01*
X19062617Y-44101880D01*
X19111367Y-44193085D01*
X19111368Y-44193086D01*
X19176974Y-44273027D01*
X19197005Y-44289466D01*
X20310534Y-45402996D01*
X20326973Y-45423027D01*
X20406914Y-45488633D01*
X20498119Y-45537383D01*
X20597082Y-45567403D01*
X20674212Y-45575000D01*
X20700000Y-45577540D01*
X20725788Y-45575000D01*
X20893629Y-45575000D01*
X20990030Y-45671401D01*
X21121058Y-45758951D01*
X21266649Y-45819257D01*
X21421207Y-45850000D01*
X21578793Y-45850000D01*
X21733351Y-45819257D01*
X21878942Y-45758951D01*
X22009970Y-45671401D01*
X22106371Y-45575000D01*
X29839416Y-45575000D01*
X29841049Y-45578942D01*
X29928599Y-45709970D01*
X30040030Y-45821401D01*
X30171058Y-45908951D01*
X30316649Y-45969257D01*
X30471207Y-46000000D01*
X30628793Y-46000000D01*
X30783351Y-45969257D01*
X30928942Y-45908951D01*
X31059970Y-45821401D01*
X31171401Y-45709970D01*
X31258951Y-45578942D01*
X31319257Y-45433351D01*
X31350000Y-45278793D01*
X31350000Y-45121207D01*
X31319257Y-44966649D01*
X31258951Y-44821058D01*
X31171401Y-44690030D01*
X31059970Y-44578599D01*
X30928942Y-44491049D01*
X30783351Y-44430743D01*
X30628793Y-44400000D01*
X30471207Y-44400000D01*
X30316649Y-44430743D01*
X30171058Y-44491049D01*
X30120247Y-44525000D01*
X22106371Y-44525000D01*
X22009970Y-44428599D01*
X21878942Y-44341049D01*
X21733351Y-44280743D01*
X21578793Y-44250000D01*
X21421207Y-44250000D01*
X21266649Y-44280743D01*
X21121058Y-44341049D01*
X20990030Y-44428599D01*
X20905545Y-44513084D01*
X20369347Y-43976886D01*
X40210000Y-43976886D01*
X40210000Y-44223114D01*
X40258037Y-44464611D01*
X40352265Y-44692097D01*
X40489062Y-44896828D01*
X40663172Y-45070938D01*
X40867903Y-45207735D01*
X41095389Y-45301963D01*
X41336886Y-45350000D01*
X41583114Y-45350000D01*
X41824611Y-45301963D01*
X42052097Y-45207735D01*
X42256828Y-45070938D01*
X42430938Y-44896828D01*
X42567735Y-44692097D01*
X42661963Y-44464611D01*
X42710000Y-44223114D01*
X42710000Y-43976886D01*
X42750000Y-43976886D01*
X42750000Y-44223114D01*
X42798037Y-44464611D01*
X42892265Y-44692097D01*
X43029062Y-44896828D01*
X43203172Y-45070938D01*
X43407903Y-45207735D01*
X43635389Y-45301963D01*
X43876886Y-45350000D01*
X44123114Y-45350000D01*
X44364611Y-45301963D01*
X44592097Y-45207735D01*
X44796828Y-45070938D01*
X44970938Y-44896828D01*
X45107735Y-44692097D01*
X45201963Y-44464611D01*
X45250000Y-44223114D01*
X45250000Y-43976886D01*
X45290000Y-43976886D01*
X45290000Y-44223114D01*
X45338037Y-44464611D01*
X45432265Y-44692097D01*
X45569062Y-44896828D01*
X45743172Y-45070938D01*
X45947903Y-45207735D01*
X46175389Y-45301963D01*
X46416886Y-45350000D01*
X46663114Y-45350000D01*
X46904611Y-45301963D01*
X47132097Y-45207735D01*
X47336828Y-45070938D01*
X47510938Y-44896828D01*
X47647735Y-44692097D01*
X47741963Y-44464611D01*
X47790000Y-44223114D01*
X47790000Y-43976886D01*
X47830000Y-43976886D01*
X47830000Y-44223114D01*
X47878037Y-44464611D01*
X47972265Y-44692097D01*
X48109062Y-44896828D01*
X48283172Y-45070938D01*
X48487903Y-45207735D01*
X48715389Y-45301963D01*
X48956886Y-45350000D01*
X49203114Y-45350000D01*
X49444611Y-45301963D01*
X49672097Y-45207735D01*
X49876828Y-45070938D01*
X50050938Y-44896828D01*
X50187735Y-44692097D01*
X50281963Y-44464611D01*
X50330000Y-44223114D01*
X50330000Y-43976886D01*
X50370000Y-43976886D01*
X50370000Y-44223114D01*
X50418037Y-44464611D01*
X50512265Y-44692097D01*
X50649062Y-44896828D01*
X50823172Y-45070938D01*
X51027903Y-45207735D01*
X51255389Y-45301963D01*
X51496886Y-45350000D01*
X51743114Y-45350000D01*
X51984611Y-45301963D01*
X52212097Y-45207735D01*
X52416828Y-45070938D01*
X52590938Y-44896828D01*
X52727735Y-44692097D01*
X52821963Y-44464611D01*
X52870000Y-44223114D01*
X52870000Y-43976886D01*
X52910000Y-43976886D01*
X52910000Y-44223114D01*
X52958037Y-44464611D01*
X53052265Y-44692097D01*
X53189062Y-44896828D01*
X53363172Y-45070938D01*
X53567903Y-45207735D01*
X53795389Y-45301963D01*
X54036886Y-45350000D01*
X54283114Y-45350000D01*
X54524611Y-45301963D01*
X54752097Y-45207735D01*
X54956828Y-45070938D01*
X55130938Y-44896828D01*
X55267735Y-44692097D01*
X55361963Y-44464611D01*
X55410000Y-44223114D01*
X55410000Y-43976886D01*
X55361963Y-43735389D01*
X55267735Y-43507903D01*
X55130938Y-43303172D01*
X55077766Y-43250000D01*
X55448065Y-43250000D01*
X55448065Y-44950000D01*
X55455788Y-45028414D01*
X55478660Y-45103814D01*
X55515803Y-45173303D01*
X55565789Y-45234211D01*
X55626697Y-45284197D01*
X55696186Y-45321340D01*
X55771586Y-45344212D01*
X55850000Y-45351935D01*
X57550000Y-45351935D01*
X57628414Y-45344212D01*
X57703814Y-45321340D01*
X57773303Y-45284197D01*
X57834211Y-45234211D01*
X57884197Y-45173303D01*
X57921340Y-45103814D01*
X57944212Y-45028414D01*
X57951935Y-44950000D01*
X57951935Y-43250000D01*
X57944212Y-43171586D01*
X57921340Y-43096186D01*
X57884197Y-43026697D01*
X57834211Y-42965789D01*
X57773303Y-42915803D01*
X57703814Y-42878660D01*
X57628414Y-42855788D01*
X57550000Y-42848065D01*
X55850000Y-42848065D01*
X55771586Y-42855788D01*
X55696186Y-42878660D01*
X55626697Y-42915803D01*
X55565789Y-42965789D01*
X55515803Y-43026697D01*
X55478660Y-43096186D01*
X55455788Y-43171586D01*
X55448065Y-43250000D01*
X55077766Y-43250000D01*
X54956828Y-43129062D01*
X54752097Y-42992265D01*
X54524611Y-42898037D01*
X54283114Y-42850000D01*
X54036886Y-42850000D01*
X53795389Y-42898037D01*
X53567903Y-42992265D01*
X53363172Y-43129062D01*
X53189062Y-43303172D01*
X53052265Y-43507903D01*
X52958037Y-43735389D01*
X52910000Y-43976886D01*
X52870000Y-43976886D01*
X52821963Y-43735389D01*
X52727735Y-43507903D01*
X52590938Y-43303172D01*
X52416828Y-43129062D01*
X52212097Y-42992265D01*
X51984611Y-42898037D01*
X51743114Y-42850000D01*
X51496886Y-42850000D01*
X51255389Y-42898037D01*
X51027903Y-42992265D01*
X50823172Y-43129062D01*
X50649062Y-43303172D01*
X50512265Y-43507903D01*
X50418037Y-43735389D01*
X50370000Y-43976886D01*
X50330000Y-43976886D01*
X50281963Y-43735389D01*
X50187735Y-43507903D01*
X50050938Y-43303172D01*
X49876828Y-43129062D01*
X49672097Y-42992265D01*
X49444611Y-42898037D01*
X49203114Y-42850000D01*
X48956886Y-42850000D01*
X48715389Y-42898037D01*
X48487903Y-42992265D01*
X48283172Y-43129062D01*
X48109062Y-43303172D01*
X47972265Y-43507903D01*
X47878037Y-43735389D01*
X47830000Y-43976886D01*
X47790000Y-43976886D01*
X47741963Y-43735389D01*
X47647735Y-43507903D01*
X47510938Y-43303172D01*
X47336828Y-43129062D01*
X47132097Y-42992265D01*
X46904611Y-42898037D01*
X46663114Y-42850000D01*
X46416886Y-42850000D01*
X46175389Y-42898037D01*
X45947903Y-42992265D01*
X45743172Y-43129062D01*
X45569062Y-43303172D01*
X45432265Y-43507903D01*
X45338037Y-43735389D01*
X45290000Y-43976886D01*
X45250000Y-43976886D01*
X45201963Y-43735389D01*
X45107735Y-43507903D01*
X44970938Y-43303172D01*
X44796828Y-43129062D01*
X44592097Y-42992265D01*
X44364611Y-42898037D01*
X44123114Y-42850000D01*
X43876886Y-42850000D01*
X43635389Y-42898037D01*
X43407903Y-42992265D01*
X43203172Y-43129062D01*
X43029062Y-43303172D01*
X42892265Y-43507903D01*
X42798037Y-43735389D01*
X42750000Y-43976886D01*
X42710000Y-43976886D01*
X42661963Y-43735389D01*
X42567735Y-43507903D01*
X42430938Y-43303172D01*
X42256828Y-43129062D01*
X42052097Y-42992265D01*
X41824611Y-42898037D01*
X41583114Y-42850000D01*
X41336886Y-42850000D01*
X41095389Y-42898037D01*
X40867903Y-42992265D01*
X40663172Y-43129062D01*
X40489062Y-43303172D01*
X40352265Y-43507903D01*
X40258037Y-43735389D01*
X40210000Y-43976886D01*
X20369347Y-43976886D01*
X20075000Y-43682539D01*
X20075000Y-42325788D01*
X20077540Y-42300000D01*
X20067403Y-42197083D01*
X20037383Y-42098119D01*
X20016992Y-42059970D01*
X19988633Y-42006914D01*
X19923027Y-41926973D01*
X19902996Y-41910534D01*
X18789471Y-40797010D01*
X18773027Y-40776973D01*
X18693086Y-40711367D01*
X18601881Y-40662617D01*
X18502918Y-40632597D01*
X18425788Y-40625000D01*
X18425780Y-40625000D01*
X18400000Y-40622461D01*
X18374220Y-40625000D01*
X18056371Y-40625000D01*
X17959970Y-40528599D01*
X17828942Y-40441049D01*
X17683351Y-40380743D01*
X17528793Y-40350000D01*
X17371207Y-40350000D01*
X17216649Y-40380743D01*
X17071058Y-40441049D01*
X16940030Y-40528599D01*
X16828599Y-40640030D01*
X16741049Y-40771058D01*
X16680743Y-40916649D01*
X16650000Y-41071207D01*
X16142233Y-41071207D01*
X16121401Y-41040030D01*
X16009970Y-40928599D01*
X15878942Y-40841049D01*
X15733351Y-40780743D01*
X15578793Y-40750000D01*
X15421207Y-40750000D01*
X15266649Y-40780743D01*
X15121058Y-40841049D01*
X14990030Y-40928599D01*
X14878599Y-41040030D01*
X14791049Y-41171058D01*
X14730743Y-41316649D01*
X14700000Y-41471207D01*
X425000Y-41471207D01*
X425000Y-34421207D01*
X27700006Y-34421207D01*
X27700006Y-34578793D01*
X27730749Y-34733351D01*
X27791055Y-34878942D01*
X27878605Y-35009970D01*
X27990036Y-35121401D01*
X28121064Y-35208951D01*
X28266655Y-35269257D01*
X28395684Y-35294922D01*
X30580042Y-37479280D01*
X30600743Y-37583351D01*
X30661049Y-37728942D01*
X30748599Y-37859970D01*
X30860030Y-37971401D01*
X30991058Y-38058951D01*
X31136649Y-38119257D01*
X31291207Y-38150000D01*
X31448793Y-38150000D01*
X31603351Y-38119257D01*
X31748942Y-38058951D01*
X31837169Y-38000000D01*
X39728079Y-38000000D01*
X39760000Y-38003144D01*
X39791921Y-38000000D01*
X39791932Y-38000000D01*
X39887422Y-37990595D01*
X40009948Y-37953427D01*
X40122868Y-37893070D01*
X40221843Y-37811843D01*
X40242200Y-37787038D01*
X45437045Y-32592194D01*
X45461843Y-32571843D01*
X45543070Y-32472868D01*
X45603427Y-32359948D01*
X45640595Y-32237422D01*
X45650000Y-32141932D01*
X45650000Y-32141922D01*
X45653144Y-32110001D01*
X45650000Y-32078079D01*
X45650000Y-30887169D01*
X45708951Y-30798942D01*
X45769257Y-30653351D01*
X45800000Y-30498793D01*
X45800000Y-30341207D01*
X45769257Y-30186649D01*
X45708951Y-30041058D01*
X45650000Y-29952831D01*
X45650000Y-22550000D01*
X61548065Y-22550000D01*
X61548065Y-24250000D01*
X61555788Y-24328414D01*
X61578660Y-24403814D01*
X61615803Y-24473303D01*
X61665789Y-24534211D01*
X61726697Y-24584197D01*
X61796186Y-24621340D01*
X61871586Y-24644212D01*
X61950000Y-24651935D01*
X63650000Y-24651935D01*
X63728414Y-24644212D01*
X63803814Y-24621340D01*
X63873303Y-24584197D01*
X63934211Y-24534211D01*
X63984197Y-24473303D01*
X64021340Y-24403814D01*
X64044212Y-24328414D01*
X64051935Y-24250000D01*
X64051935Y-22550000D01*
X64044212Y-22471586D01*
X64021340Y-22396186D01*
X63984197Y-22326697D01*
X63934211Y-22265789D01*
X63873303Y-22215803D01*
X63803814Y-22178660D01*
X63728414Y-22155788D01*
X63650000Y-22148065D01*
X61950000Y-22148065D01*
X61871586Y-22155788D01*
X61796186Y-22178660D01*
X61726697Y-22215803D01*
X61665789Y-22265789D01*
X61615803Y-22326697D01*
X61578660Y-22396186D01*
X61555788Y-22471586D01*
X61548065Y-22550000D01*
X45650000Y-22550000D01*
X45650000Y-20402202D01*
X45698951Y-20328942D01*
X45759257Y-20183351D01*
X45762400Y-20167549D01*
X50370659Y-15559291D01*
X50397370Y-15537370D01*
X50484845Y-15430781D01*
X50549845Y-15309175D01*
X50589872Y-15177224D01*
X50600000Y-15074390D01*
X50603387Y-15040000D01*
X50600000Y-15005610D01*
X50600000Y-12550000D01*
X61548065Y-12550000D01*
X61548065Y-14250000D01*
X61555788Y-14328414D01*
X61578660Y-14403814D01*
X61615803Y-14473303D01*
X61665789Y-14534211D01*
X61726697Y-14584197D01*
X61796186Y-14621340D01*
X61871586Y-14644212D01*
X61950000Y-14651935D01*
X63650000Y-14651935D01*
X63728414Y-14644212D01*
X63803814Y-14621340D01*
X63873303Y-14584197D01*
X63934211Y-14534211D01*
X63984197Y-14473303D01*
X64021340Y-14403814D01*
X64044212Y-14328414D01*
X64051935Y-14250000D01*
X64051935Y-12550000D01*
X64044212Y-12471586D01*
X64021340Y-12396186D01*
X63984197Y-12326697D01*
X63934211Y-12265789D01*
X63873303Y-12215803D01*
X63803814Y-12178660D01*
X63728414Y-12155788D01*
X63650000Y-12148065D01*
X61950000Y-12148065D01*
X61871586Y-12155788D01*
X61796186Y-12178660D01*
X61726697Y-12215803D01*
X61665789Y-12265789D01*
X61615803Y-12326697D01*
X61578660Y-12396186D01*
X61555788Y-12471586D01*
X61548065Y-12550000D01*
X50600000Y-12550000D01*
X50600000Y-10102384D01*
X50603387Y-10067997D01*
X50600000Y-10033608D01*
X50589872Y-9930774D01*
X50549845Y-9798823D01*
X50484846Y-9677218D01*
X50484845Y-9677216D01*
X50419291Y-9597340D01*
X50397369Y-9570628D01*
X50370658Y-9548707D01*
X49799999Y-8978048D01*
X49799999Y-8302387D01*
X49803386Y-8267997D01*
X49789871Y-8130773D01*
X49749844Y-7998822D01*
X49684844Y-7877216D01*
X49619291Y-7797339D01*
X49619286Y-7797334D01*
X49597368Y-7770627D01*
X49570662Y-7748710D01*
X48051298Y-6229347D01*
X48029372Y-6202630D01*
X47922783Y-6115155D01*
X47801177Y-6050155D01*
X47669226Y-6010128D01*
X47566392Y-6000000D01*
X47566389Y-6000000D01*
X47532002Y-5996613D01*
X47497615Y-6000000D01*
X47192338Y-6000000D01*
X47178942Y-5991049D01*
X47033351Y-5930743D01*
X46878793Y-5900000D01*
X46721207Y-5900000D01*
X46566649Y-5930743D01*
X46421058Y-5991049D01*
X46290030Y-6078599D01*
X46178599Y-6190030D01*
X46091049Y-6321058D01*
X46030743Y-6466649D01*
X46000000Y-6621207D01*
X46000000Y-6778793D01*
X46030743Y-6933351D01*
X46091049Y-7078942D01*
X46178599Y-7209970D01*
X46290030Y-7321401D01*
X46421058Y-7408951D01*
X46566649Y-7469257D01*
X46721207Y-7500000D01*
X46878793Y-7500000D01*
X47033351Y-7469257D01*
X47178942Y-7408951D01*
X47192338Y-7400000D01*
X47242053Y-7400000D01*
X48399999Y-8557947D01*
X48400000Y-9233601D01*
X48396612Y-9267997D01*
X48410128Y-9405220D01*
X48450154Y-9537171D01*
X48515154Y-9658778D01*
X48580707Y-9738654D01*
X48602630Y-9765367D01*
X48629341Y-9787288D01*
X49200000Y-10357947D01*
X49200001Y-14750049D01*
X44772451Y-19177600D01*
X44756649Y-19180743D01*
X44611058Y-19241049D01*
X44480030Y-19328599D01*
X44368599Y-19440030D01*
X44281049Y-19571058D01*
X44220743Y-19716649D01*
X44190000Y-19871207D01*
X44190000Y-20028793D01*
X44220743Y-20183351D01*
X44281049Y-20328942D01*
X44350001Y-20432136D01*
X44350000Y-29952831D01*
X44291049Y-30041058D01*
X44230743Y-30186649D01*
X44200000Y-30341207D01*
X44200000Y-30498793D01*
X44230743Y-30653351D01*
X44291049Y-30798942D01*
X44350001Y-30887170D01*
X44350000Y-31840761D01*
X39490762Y-36700000D01*
X31837169Y-36700000D01*
X31748942Y-36641049D01*
X31603351Y-36580743D01*
X31499280Y-36560042D01*
X29284999Y-34345761D01*
X29269263Y-34266649D01*
X29208957Y-34121058D01*
X29121407Y-33990030D01*
X29009976Y-33878599D01*
X28878948Y-33791049D01*
X28733357Y-33730743D01*
X28578799Y-33700000D01*
X28421213Y-33700000D01*
X28266655Y-33730743D01*
X28121064Y-33791049D01*
X27990036Y-33878599D01*
X27878605Y-33990030D01*
X27791055Y-34121058D01*
X27730749Y-34266649D01*
X27700006Y-34421207D01*
X425000Y-34421207D01*
X425000Y-31676886D01*
X34850000Y-31676886D01*
X34850000Y-31923114D01*
X34898037Y-32164611D01*
X34992265Y-32392097D01*
X35129062Y-32596828D01*
X35303172Y-32770938D01*
X35507903Y-32907735D01*
X35735389Y-33001963D01*
X35976886Y-33050000D01*
X36223114Y-33050000D01*
X36464611Y-33001963D01*
X36692097Y-32907735D01*
X36896828Y-32770938D01*
X37070938Y-32596828D01*
X37207735Y-32392097D01*
X37301963Y-32164611D01*
X37350000Y-31923114D01*
X37350000Y-31676886D01*
X37301963Y-31435389D01*
X37207735Y-31207903D01*
X37070938Y-31003172D01*
X36896828Y-30829062D01*
X36692097Y-30692265D01*
X36464611Y-30598037D01*
X36223114Y-30550000D01*
X35976886Y-30550000D01*
X35735389Y-30598037D01*
X35507903Y-30692265D01*
X35303172Y-30829062D01*
X35129062Y-31003172D01*
X34992265Y-31207903D01*
X34898037Y-31435389D01*
X34850000Y-31676886D01*
X425000Y-31676886D01*
X425000Y-30003949D01*
X32699932Y-30003949D01*
X32707655Y-30082363D01*
X32730527Y-30157763D01*
X32767670Y-30227252D01*
X32817656Y-30288160D01*
X34019738Y-31490242D01*
X34080646Y-31540228D01*
X34150135Y-31577371D01*
X34225535Y-31600243D01*
X34303949Y-31607966D01*
X34382363Y-31600243D01*
X34457763Y-31577371D01*
X34527252Y-31540228D01*
X34588160Y-31490242D01*
X35790242Y-30288160D01*
X35840228Y-30227252D01*
X35877371Y-30157763D01*
X35900243Y-30082363D01*
X35907966Y-30003949D01*
X35900243Y-29925535D01*
X35877371Y-29850135D01*
X35840228Y-29780646D01*
X35790242Y-29719738D01*
X34588160Y-28517656D01*
X34527252Y-28467670D01*
X34457763Y-28430527D01*
X34382363Y-28407655D01*
X34303949Y-28399932D01*
X34225535Y-28407655D01*
X34150135Y-28430527D01*
X34080646Y-28467670D01*
X34019738Y-28517656D01*
X32817656Y-29719738D01*
X32767670Y-29780646D01*
X32730527Y-29850135D01*
X32707655Y-29925535D01*
X32699932Y-30003949D01*
X425000Y-30003949D01*
X425000Y-4568952D01*
X619888Y-5039452D01*
X975560Y-5571754D01*
X1428246Y-6024440D01*
X1960548Y-6380112D01*
X2552010Y-6625104D01*
X3179903Y-6750000D01*
X3820097Y-6750000D01*
X4447990Y-6625104D01*
X5039452Y-6380112D01*
X5571754Y-6024440D01*
X6024440Y-5571754D01*
X6380112Y-5039452D01*
X6625104Y-4447990D01*
X6750000Y-3820097D01*
X6750000Y-3179903D01*
X6625104Y-2552010D01*
X6380112Y-1960548D01*
X6024440Y-1428246D01*
X5571754Y-975560D01*
X5039452Y-619888D01*
X4568952Y-425000D01*
X60431048Y-425000D01*
X59960548Y-619888D01*
M02*
