M48
METRIC,TZ
T1C0.400
T2C1.000
T3C3.200
%
G90
G05
T1
X1500Y-27500
X1500Y-29000
X1500Y-30500
X1500Y-32000
X1500Y-33500
X1500Y-35000
X1500Y-36500
X1500Y-49000
X2000Y-40500
X2000Y-47000
X2500Y-23000
X2500Y-26500
X3500Y-40500
X3500Y-47000
X4000Y-23000
X4000Y-26500
X4075Y-29975
X4075Y-31325
X4075Y-32875
X5500Y-23000
X6000Y-49000
X6700Y-33900
X7000Y-23000
X8000Y-49000
X8500Y-23000
X8900Y-5000
X9900Y-6500
X10000Y-23000
X10000Y-49000
X10900Y-5000
X11500Y-23000
X11900Y-6500
X12900Y-5000
X13000Y-23000
X13500Y-28000
X13500Y-29500
X13500Y-31000
X13500Y-32500
X13500Y-34000
X13500Y-35500
X13900Y-6500
X14900Y-5000
X15490Y-45640
X15500Y-47280
X15500Y-41550
X15510Y-44060
X15900Y-6500
X16000Y-24500
X16900Y-5000
X17000Y-27500
X17000Y-29000
X17000Y-30500
X17000Y-32000
X17450Y-41150
X17500Y-23000
X17500Y-24500
X17900Y-6500
X18500Y-27500
X18900Y-5000
X19000Y-23000
X19000Y-24500
X19900Y-6500
X20000Y-27500
X20900Y-5000
X21000Y-23000
X21000Y-24500
X21500Y-27500
X21500Y-29000
X21500Y-45050
X21900Y-6500
X22900Y-5000
X23000Y-22500
X23000Y-24500
X23000Y-26000
X23000Y-27500
X23000Y-29000
X23000Y-30500
X23900Y-6500
X24000Y-21500
X24000Y-23500
X24000Y-39500
X24000Y-43500
X24900Y-5000
X25000Y-20500
X25000Y-22500
X25000Y-40500
X25000Y-42500
X25900Y-6500
X26000Y-19500
X26000Y-21500
X26000Y-39500
X26000Y-41500
X26000Y-43500
X26900Y-5000
X27000Y-18500
X27000Y-20500
X27000Y-40500
X27000Y-42500
X27900Y-6500
X28000Y-17500
X28000Y-19500
X28000Y-39500
X28000Y-43500
X28500Y-34500
X28900Y-5000
X29000Y-16500
X29000Y-18500
X29000Y-26500
X29000Y-29000
X29000Y-30500
X30000Y-17500
X30500Y-24000
X30550Y-45200
X31370Y-37350
X31500Y-23000
X32500Y-24000
X33000Y-17500
X33000Y-22500
X33500Y-25000
X33850Y-46300
X34000Y-8500
X34000Y-10500
X34000Y-12500
X34000Y-14500
X34000Y-16000
X34000Y-17500
X34500Y-22500
X34500Y-26000
X35000Y-17500
X35500Y-27000
X36000Y-8500
X36000Y-10500
X36000Y-12500
X36500Y-28000
X37500Y-27000
X37500Y-29000
X38000Y-8500
X38000Y-10500
X38000Y-12500
X38500Y-26000
X38500Y-28000
X38500Y-30000
X39500Y-27000
X39500Y-31000
X39500Y-34000
X40000Y-8500
X41500Y-20000
X41500Y-34000
X42000Y-8500
X43000Y-20000
X44000Y-8500
X44990Y-19950
X45000Y-17000
X45000Y-30420
X45000Y-34000
X46000Y-8500
X46500Y-34000
X46800Y-6700
X47000Y-10500
X47000Y-21500
X48000Y-8500
X48000Y-20000
X48000Y-34000
X48500Y-21500
X49000Y-10500
X49500Y-20000
X49500Y-34000
X50000Y-8500
X50000Y-21500
X50100Y-30000
X51000Y-10500
X51000Y-20000
X51000Y-34000
X51500Y-21500
X52000Y-8500
X52500Y-20000
X52500Y-34000
X53000Y-10500
X53000Y-21500
X54000Y-8500
X54000Y-20000
X54000Y-34000
X54500Y-21500
X55000Y-10500
X55500Y-20500
X55500Y-34000
X56000Y-8500
X57000Y-10500
X57000Y-20500
X57000Y-24000
X57000Y-34000
X58000Y-8500
X58500Y-20500
X58500Y-24000
X58500Y-34000
X59000Y-10500
X59500Y-46500
X60000Y-8500
X60000Y-20500
X60000Y-34000
X60500Y-25000
X60500Y-27500
X60500Y-29000
X60500Y-30500
X60500Y-32000
X61000Y-10500
X61000Y-19500
X61000Y-46500
X61500Y-34000
X62000Y-8500
X62000Y-18500
X62500Y-46500
X63000Y-17500
X63000Y-19500
X63000Y-26000
X63000Y-27500
X63000Y-29000
X63000Y-30500
X63000Y-32000
X63000Y-34000
X63000Y-35500
X63000Y-37000
X63000Y-38500
X63000Y-40000
X63500Y-8500
T2
X62800Y-13400
X41460Y-44100
X44000Y-44100
X46540Y-44100
X49080Y-44100
X51620Y-44100
X54160Y-44100
X56700Y-44100
X8390Y-51250
X8390Y-53790
X10930Y-51250
X10930Y-53790
X13470Y-51250
X13470Y-53790
X16010Y-51250
X16010Y-53790
X18550Y-51250
X18550Y-53790
X21090Y-51250
X21090Y-53790
X23630Y-51250
X23630Y-53790
X26170Y-51250
X26170Y-53790
X28710Y-51250
X28710Y-53790
X31250Y-51250
X31250Y-53790
X33790Y-51250
X33790Y-53790
X36330Y-51250
X36330Y-53790
X38870Y-51250
X38870Y-53790
X41410Y-51250
X41410Y-53790
X43950Y-51250
X43950Y-53790
X46490Y-51250
X46490Y-53790
X49030Y-51250
X49030Y-53790
X51570Y-51250
X51570Y-53790
X54110Y-51250
X54110Y-53790
X56650Y-51250
X56650Y-53790
X62800Y-23400
X34304Y-30004
X36100Y-31800
T3
X61500Y-52500
X3500Y-52500
X61500Y-3500
X3500Y-3500
T0
M30
