G04 #@! TF.GenerationSoftware,KiCad,Pcbnew,(5.1.5-0-10_14)*
G04 #@! TF.CreationDate,2020-04-05T15:29:42+02:00*
G04 #@! TF.ProjectId,Oasis_ADC,4f617369-735f-4414-9443-2e6b69636164,rev?*
G04 #@! TF.SameCoordinates,Original*
G04 #@! TF.FileFunction,Legend,Bot*
G04 #@! TF.FilePolarity,Positive*
%FSLAX46Y46*%
G04 Gerber Fmt 4.6, Leading zero omitted, Abs format (unit mm)*
G04 Created by KiCad (PCBNEW (5.1.5-0-10_14)) date 2020-04-05 15:29:42*
%MOMM*%
%LPD*%
G04 APERTURE LIST*
%ADD10C,0.010000*%
G04 APERTURE END LIST*
D10*
G36*
X8603465Y-9383172D02*
G01*
X8490883Y-9980363D01*
X8075469Y-10151610D01*
X7660056Y-10322857D01*
X7161698Y-9983978D01*
X7022132Y-9889622D01*
X6895972Y-9805375D01*
X6789105Y-9735083D01*
X6707418Y-9682592D01*
X6656799Y-9651749D01*
X6643014Y-9645098D01*
X6618180Y-9662203D01*
X6565112Y-9709489D01*
X6489760Y-9780917D01*
X6398071Y-9870445D01*
X6295993Y-9972034D01*
X6189474Y-10079643D01*
X6084464Y-10187232D01*
X5986909Y-10288760D01*
X5902758Y-10378186D01*
X5837960Y-10449471D01*
X5798462Y-10496573D01*
X5789020Y-10512337D01*
X5802609Y-10541398D01*
X5840707Y-10605066D01*
X5899306Y-10697112D01*
X5974403Y-10811309D01*
X6061991Y-10941429D01*
X6112746Y-11015646D01*
X6205255Y-11151167D01*
X6287460Y-11273461D01*
X6355370Y-11376440D01*
X6405000Y-11454018D01*
X6432360Y-11500106D01*
X6436471Y-11509792D01*
X6427151Y-11537319D01*
X6401746Y-11601473D01*
X6364089Y-11693235D01*
X6318014Y-11803584D01*
X6267354Y-11923500D01*
X6215941Y-12043964D01*
X6167611Y-12155954D01*
X6126194Y-12250452D01*
X6095526Y-12318437D01*
X6079438Y-12350888D01*
X6078489Y-12352165D01*
X6053228Y-12358362D01*
X5985954Y-12372185D01*
X5883640Y-12392277D01*
X5753259Y-12417279D01*
X5601784Y-12445831D01*
X5513406Y-12462296D01*
X5351548Y-12493114D01*
X5205351Y-12522439D01*
X5082213Y-12548666D01*
X4989531Y-12570191D01*
X4934699Y-12585410D01*
X4923677Y-12590238D01*
X4912881Y-12622919D01*
X4904171Y-12696730D01*
X4897540Y-12803037D01*
X4892982Y-12933212D01*
X4890491Y-13078621D01*
X4890062Y-13230635D01*
X4891689Y-13380622D01*
X4895365Y-13519951D01*
X4901085Y-13639990D01*
X4908842Y-13732110D01*
X4918632Y-13787677D01*
X4924504Y-13799245D01*
X4959601Y-13813110D01*
X5033972Y-13832933D01*
X5137777Y-13856384D01*
X5261181Y-13881136D01*
X5304259Y-13889143D01*
X5511953Y-13927186D01*
X5676016Y-13957824D01*
X5801870Y-13982274D01*
X5894935Y-14001754D01*
X5960633Y-14017481D01*
X6004383Y-14030673D01*
X6031608Y-14042549D01*
X6047728Y-14054325D01*
X6049983Y-14056653D01*
X6072497Y-14094145D01*
X6106842Y-14167110D01*
X6149589Y-14266612D01*
X6197308Y-14383718D01*
X6246570Y-14509493D01*
X6293945Y-14635002D01*
X6336005Y-14751310D01*
X6369320Y-14849484D01*
X6390459Y-14920588D01*
X6395995Y-14955687D01*
X6395534Y-14956917D01*
X6376777Y-14985606D01*
X6334224Y-15048730D01*
X6272347Y-15139718D01*
X6195618Y-15252000D01*
X6108509Y-15379005D01*
X6083701Y-15415098D01*
X5995247Y-15545948D01*
X5917412Y-15665336D01*
X5854434Y-15766407D01*
X5810555Y-15842304D01*
X5790015Y-15886172D01*
X5789020Y-15891562D01*
X5806278Y-15919889D01*
X5853964Y-15976006D01*
X5925950Y-16053882D01*
X6016103Y-16147485D01*
X6118295Y-16250786D01*
X6226394Y-16357751D01*
X6334272Y-16462351D01*
X6435796Y-16558554D01*
X6524838Y-16640329D01*
X6595267Y-16701645D01*
X6640953Y-16736471D01*
X6653591Y-16742157D01*
X6683009Y-16728765D01*
X6743239Y-16692644D01*
X6824470Y-16639881D01*
X6886970Y-16597412D01*
X7000215Y-16519485D01*
X7134326Y-16427729D01*
X7268845Y-16336120D01*
X7341167Y-16287091D01*
X7585962Y-16121515D01*
X7791449Y-16232620D01*
X7885064Y-16281293D01*
X7964670Y-16319126D01*
X8018533Y-16340703D01*
X8032243Y-16343706D01*
X8048730Y-16321538D01*
X8081255Y-16258894D01*
X8127391Y-16161554D01*
X8184710Y-16035294D01*
X8250784Y-15885895D01*
X8323185Y-15719133D01*
X8399484Y-15540787D01*
X8477254Y-15356636D01*
X8554066Y-15172457D01*
X8627494Y-14994030D01*
X8695108Y-14827132D01*
X8754480Y-14677542D01*
X8803184Y-14551038D01*
X8838790Y-14453399D01*
X8858870Y-14390402D01*
X8862100Y-14368766D01*
X8836504Y-14341169D01*
X8780461Y-14296370D01*
X8705689Y-14243679D01*
X8699413Y-14239510D01*
X8506155Y-14084814D01*
X8350326Y-13904336D01*
X8233276Y-13703847D01*
X8156355Y-13489119D01*
X8120914Y-13265922D01*
X8128303Y-13040026D01*
X8179873Y-12817204D01*
X8276974Y-12603224D01*
X8305542Y-12556409D01*
X8454132Y-12367363D01*
X8629673Y-12215557D01*
X8826090Y-12101779D01*
X9037307Y-12026820D01*
X9257247Y-11991467D01*
X9479837Y-11996512D01*
X9698999Y-12042744D01*
X9908658Y-12130951D01*
X10102739Y-12261924D01*
X10162774Y-12315082D01*
X10315565Y-12481484D01*
X10426903Y-12656657D01*
X10503277Y-12853011D01*
X10545813Y-13047462D01*
X10556314Y-13266087D01*
X10521299Y-13485797D01*
X10444327Y-13699165D01*
X10328953Y-13898767D01*
X10178734Y-14077174D01*
X9997227Y-14226962D01*
X9973373Y-14242751D01*
X9897799Y-14294457D01*
X9840349Y-14339257D01*
X9812883Y-14367862D01*
X9812483Y-14368766D01*
X9818380Y-14399709D01*
X9841755Y-14469936D01*
X9880179Y-14573670D01*
X9931223Y-14705135D01*
X9992458Y-14858552D01*
X10061456Y-15028146D01*
X10135786Y-15208138D01*
X10213022Y-15392753D01*
X10290732Y-15576213D01*
X10366489Y-15752741D01*
X10437863Y-15916559D01*
X10502426Y-16061892D01*
X10557748Y-16182962D01*
X10601400Y-16273992D01*
X10630954Y-16329205D01*
X10642856Y-16343706D01*
X10679223Y-16332414D01*
X10747270Y-16302130D01*
X10835263Y-16258265D01*
X10883649Y-16232620D01*
X11089137Y-16121515D01*
X11333932Y-16287091D01*
X11458894Y-16371915D01*
X11595705Y-16465261D01*
X11723911Y-16553153D01*
X11788129Y-16597412D01*
X11878449Y-16658063D01*
X11954929Y-16706126D01*
X12007593Y-16735515D01*
X12024698Y-16741727D01*
X12049595Y-16724968D01*
X12104695Y-16678181D01*
X12184657Y-16606225D01*
X12284139Y-16513957D01*
X12397800Y-16406235D01*
X12469685Y-16337071D01*
X12595449Y-16213502D01*
X12704137Y-16102979D01*
X12791355Y-16010230D01*
X12852711Y-15939982D01*
X12883809Y-15896965D01*
X12886792Y-15888235D01*
X12872947Y-15855029D01*
X12834688Y-15787887D01*
X12776258Y-15693608D01*
X12701903Y-15578990D01*
X12615865Y-15450828D01*
X12591397Y-15415098D01*
X12502245Y-15285234D01*
X12422262Y-15168314D01*
X12355920Y-15070907D01*
X12307689Y-14999584D01*
X12282043Y-14960915D01*
X12279565Y-14956917D01*
X12283271Y-14926100D01*
X12302939Y-14858344D01*
X12335140Y-14762584D01*
X12376445Y-14647754D01*
X12423425Y-14522789D01*
X12472651Y-14396624D01*
X12520692Y-14278193D01*
X12564119Y-14176430D01*
X12599504Y-14100271D01*
X12623416Y-14058649D01*
X12625116Y-14056653D01*
X12639738Y-14044758D01*
X12664435Y-14032995D01*
X12704628Y-14020146D01*
X12765737Y-14004994D01*
X12853183Y-13986321D01*
X12972388Y-13962910D01*
X13128773Y-13933542D01*
X13327757Y-13897000D01*
X13370840Y-13889143D01*
X13498529Y-13864472D01*
X13609847Y-13840338D01*
X13694955Y-13819069D01*
X13744017Y-13802993D01*
X13750595Y-13799245D01*
X13761436Y-13766018D01*
X13770247Y-13691766D01*
X13777024Y-13585121D01*
X13781760Y-13454712D01*
X13784450Y-13309172D01*
X13785087Y-13157131D01*
X13783666Y-13007221D01*
X13780180Y-12868073D01*
X13774624Y-12748317D01*
X13766992Y-12656586D01*
X13757278Y-12601511D01*
X13751422Y-12590238D01*
X13718820Y-12578868D01*
X13644582Y-12560369D01*
X13536104Y-12536347D01*
X13400783Y-12508407D01*
X13246015Y-12478153D01*
X13161692Y-12462296D01*
X13001704Y-12432389D01*
X12859033Y-12405295D01*
X12740652Y-12382376D01*
X12653535Y-12364988D01*
X12604655Y-12354492D01*
X12596610Y-12352165D01*
X12583013Y-12325931D01*
X12554271Y-12262740D01*
X12514215Y-12171622D01*
X12466676Y-12061602D01*
X12415485Y-11941710D01*
X12364474Y-11820972D01*
X12317474Y-11708416D01*
X12278316Y-11613071D01*
X12250831Y-11543962D01*
X12238851Y-11510119D01*
X12238628Y-11508640D01*
X12252209Y-11481942D01*
X12290285Y-11420505D01*
X12348853Y-11330434D01*
X12423912Y-11217835D01*
X12511460Y-11088815D01*
X12562353Y-11014706D01*
X12655091Y-10878822D01*
X12737459Y-10755454D01*
X12805439Y-10650842D01*
X12855012Y-10571228D01*
X12882158Y-10522852D01*
X12886079Y-10512007D01*
X12869225Y-10486765D01*
X12822632Y-10432869D01*
X12752251Y-10356358D01*
X12664035Y-10263268D01*
X12563935Y-10159640D01*
X12457902Y-10051509D01*
X12351889Y-9944915D01*
X12251848Y-9845895D01*
X12163730Y-9760487D01*
X12093487Y-9694730D01*
X12047072Y-9654661D01*
X12031544Y-9645098D01*
X12006261Y-9658545D01*
X11945789Y-9696320D01*
X11856008Y-9754580D01*
X11742797Y-9829479D01*
X11612036Y-9917170D01*
X11513400Y-9983978D01*
X11015043Y-10322857D01*
X10599629Y-10151610D01*
X10184216Y-9980363D01*
X10071634Y-9383172D01*
X9959051Y-8785980D01*
X8716048Y-8785980D01*
X8603465Y-9383172D01*
G37*
X8603465Y-9383172D02*
X8490883Y-9980363D01*
X8075469Y-10151610D01*
X7660056Y-10322857D01*
X7161698Y-9983978D01*
X7022132Y-9889622D01*
X6895972Y-9805375D01*
X6789105Y-9735083D01*
X6707418Y-9682592D01*
X6656799Y-9651749D01*
X6643014Y-9645098D01*
X6618180Y-9662203D01*
X6565112Y-9709489D01*
X6489760Y-9780917D01*
X6398071Y-9870445D01*
X6295993Y-9972034D01*
X6189474Y-10079643D01*
X6084464Y-10187232D01*
X5986909Y-10288760D01*
X5902758Y-10378186D01*
X5837960Y-10449471D01*
X5798462Y-10496573D01*
X5789020Y-10512337D01*
X5802609Y-10541398D01*
X5840707Y-10605066D01*
X5899306Y-10697112D01*
X5974403Y-10811309D01*
X6061991Y-10941429D01*
X6112746Y-11015646D01*
X6205255Y-11151167D01*
X6287460Y-11273461D01*
X6355370Y-11376440D01*
X6405000Y-11454018D01*
X6432360Y-11500106D01*
X6436471Y-11509792D01*
X6427151Y-11537319D01*
X6401746Y-11601473D01*
X6364089Y-11693235D01*
X6318014Y-11803584D01*
X6267354Y-11923500D01*
X6215941Y-12043964D01*
X6167611Y-12155954D01*
X6126194Y-12250452D01*
X6095526Y-12318437D01*
X6079438Y-12350888D01*
X6078489Y-12352165D01*
X6053228Y-12358362D01*
X5985954Y-12372185D01*
X5883640Y-12392277D01*
X5753259Y-12417279D01*
X5601784Y-12445831D01*
X5513406Y-12462296D01*
X5351548Y-12493114D01*
X5205351Y-12522439D01*
X5082213Y-12548666D01*
X4989531Y-12570191D01*
X4934699Y-12585410D01*
X4923677Y-12590238D01*
X4912881Y-12622919D01*
X4904171Y-12696730D01*
X4897540Y-12803037D01*
X4892982Y-12933212D01*
X4890491Y-13078621D01*
X4890062Y-13230635D01*
X4891689Y-13380622D01*
X4895365Y-13519951D01*
X4901085Y-13639990D01*
X4908842Y-13732110D01*
X4918632Y-13787677D01*
X4924504Y-13799245D01*
X4959601Y-13813110D01*
X5033972Y-13832933D01*
X5137777Y-13856384D01*
X5261181Y-13881136D01*
X5304259Y-13889143D01*
X5511953Y-13927186D01*
X5676016Y-13957824D01*
X5801870Y-13982274D01*
X5894935Y-14001754D01*
X5960633Y-14017481D01*
X6004383Y-14030673D01*
X6031608Y-14042549D01*
X6047728Y-14054325D01*
X6049983Y-14056653D01*
X6072497Y-14094145D01*
X6106842Y-14167110D01*
X6149589Y-14266612D01*
X6197308Y-14383718D01*
X6246570Y-14509493D01*
X6293945Y-14635002D01*
X6336005Y-14751310D01*
X6369320Y-14849484D01*
X6390459Y-14920588D01*
X6395995Y-14955687D01*
X6395534Y-14956917D01*
X6376777Y-14985606D01*
X6334224Y-15048730D01*
X6272347Y-15139718D01*
X6195618Y-15252000D01*
X6108509Y-15379005D01*
X6083701Y-15415098D01*
X5995247Y-15545948D01*
X5917412Y-15665336D01*
X5854434Y-15766407D01*
X5810555Y-15842304D01*
X5790015Y-15886172D01*
X5789020Y-15891562D01*
X5806278Y-15919889D01*
X5853964Y-15976006D01*
X5925950Y-16053882D01*
X6016103Y-16147485D01*
X6118295Y-16250786D01*
X6226394Y-16357751D01*
X6334272Y-16462351D01*
X6435796Y-16558554D01*
X6524838Y-16640329D01*
X6595267Y-16701645D01*
X6640953Y-16736471D01*
X6653591Y-16742157D01*
X6683009Y-16728765D01*
X6743239Y-16692644D01*
X6824470Y-16639881D01*
X6886970Y-16597412D01*
X7000215Y-16519485D01*
X7134326Y-16427729D01*
X7268845Y-16336120D01*
X7341167Y-16287091D01*
X7585962Y-16121515D01*
X7791449Y-16232620D01*
X7885064Y-16281293D01*
X7964670Y-16319126D01*
X8018533Y-16340703D01*
X8032243Y-16343706D01*
X8048730Y-16321538D01*
X8081255Y-16258894D01*
X8127391Y-16161554D01*
X8184710Y-16035294D01*
X8250784Y-15885895D01*
X8323185Y-15719133D01*
X8399484Y-15540787D01*
X8477254Y-15356636D01*
X8554066Y-15172457D01*
X8627494Y-14994030D01*
X8695108Y-14827132D01*
X8754480Y-14677542D01*
X8803184Y-14551038D01*
X8838790Y-14453399D01*
X8858870Y-14390402D01*
X8862100Y-14368766D01*
X8836504Y-14341169D01*
X8780461Y-14296370D01*
X8705689Y-14243679D01*
X8699413Y-14239510D01*
X8506155Y-14084814D01*
X8350326Y-13904336D01*
X8233276Y-13703847D01*
X8156355Y-13489119D01*
X8120914Y-13265922D01*
X8128303Y-13040026D01*
X8179873Y-12817204D01*
X8276974Y-12603224D01*
X8305542Y-12556409D01*
X8454132Y-12367363D01*
X8629673Y-12215557D01*
X8826090Y-12101779D01*
X9037307Y-12026820D01*
X9257247Y-11991467D01*
X9479837Y-11996512D01*
X9698999Y-12042744D01*
X9908658Y-12130951D01*
X10102739Y-12261924D01*
X10162774Y-12315082D01*
X10315565Y-12481484D01*
X10426903Y-12656657D01*
X10503277Y-12853011D01*
X10545813Y-13047462D01*
X10556314Y-13266087D01*
X10521299Y-13485797D01*
X10444327Y-13699165D01*
X10328953Y-13898767D01*
X10178734Y-14077174D01*
X9997227Y-14226962D01*
X9973373Y-14242751D01*
X9897799Y-14294457D01*
X9840349Y-14339257D01*
X9812883Y-14367862D01*
X9812483Y-14368766D01*
X9818380Y-14399709D01*
X9841755Y-14469936D01*
X9880179Y-14573670D01*
X9931223Y-14705135D01*
X9992458Y-14858552D01*
X10061456Y-15028146D01*
X10135786Y-15208138D01*
X10213022Y-15392753D01*
X10290732Y-15576213D01*
X10366489Y-15752741D01*
X10437863Y-15916559D01*
X10502426Y-16061892D01*
X10557748Y-16182962D01*
X10601400Y-16273992D01*
X10630954Y-16329205D01*
X10642856Y-16343706D01*
X10679223Y-16332414D01*
X10747270Y-16302130D01*
X10835263Y-16258265D01*
X10883649Y-16232620D01*
X11089137Y-16121515D01*
X11333932Y-16287091D01*
X11458894Y-16371915D01*
X11595705Y-16465261D01*
X11723911Y-16553153D01*
X11788129Y-16597412D01*
X11878449Y-16658063D01*
X11954929Y-16706126D01*
X12007593Y-16735515D01*
X12024698Y-16741727D01*
X12049595Y-16724968D01*
X12104695Y-16678181D01*
X12184657Y-16606225D01*
X12284139Y-16513957D01*
X12397800Y-16406235D01*
X12469685Y-16337071D01*
X12595449Y-16213502D01*
X12704137Y-16102979D01*
X12791355Y-16010230D01*
X12852711Y-15939982D01*
X12883809Y-15896965D01*
X12886792Y-15888235D01*
X12872947Y-15855029D01*
X12834688Y-15787887D01*
X12776258Y-15693608D01*
X12701903Y-15578990D01*
X12615865Y-15450828D01*
X12591397Y-15415098D01*
X12502245Y-15285234D01*
X12422262Y-15168314D01*
X12355920Y-15070907D01*
X12307689Y-14999584D01*
X12282043Y-14960915D01*
X12279565Y-14956917D01*
X12283271Y-14926100D01*
X12302939Y-14858344D01*
X12335140Y-14762584D01*
X12376445Y-14647754D01*
X12423425Y-14522789D01*
X12472651Y-14396624D01*
X12520692Y-14278193D01*
X12564119Y-14176430D01*
X12599504Y-14100271D01*
X12623416Y-14058649D01*
X12625116Y-14056653D01*
X12639738Y-14044758D01*
X12664435Y-14032995D01*
X12704628Y-14020146D01*
X12765737Y-14004994D01*
X12853183Y-13986321D01*
X12972388Y-13962910D01*
X13128773Y-13933542D01*
X13327757Y-13897000D01*
X13370840Y-13889143D01*
X13498529Y-13864472D01*
X13609847Y-13840338D01*
X13694955Y-13819069D01*
X13744017Y-13802993D01*
X13750595Y-13799245D01*
X13761436Y-13766018D01*
X13770247Y-13691766D01*
X13777024Y-13585121D01*
X13781760Y-13454712D01*
X13784450Y-13309172D01*
X13785087Y-13157131D01*
X13783666Y-13007221D01*
X13780180Y-12868073D01*
X13774624Y-12748317D01*
X13766992Y-12656586D01*
X13757278Y-12601511D01*
X13751422Y-12590238D01*
X13718820Y-12578868D01*
X13644582Y-12560369D01*
X13536104Y-12536347D01*
X13400783Y-12508407D01*
X13246015Y-12478153D01*
X13161692Y-12462296D01*
X13001704Y-12432389D01*
X12859033Y-12405295D01*
X12740652Y-12382376D01*
X12653535Y-12364988D01*
X12604655Y-12354492D01*
X12596610Y-12352165D01*
X12583013Y-12325931D01*
X12554271Y-12262740D01*
X12514215Y-12171622D01*
X12466676Y-12061602D01*
X12415485Y-11941710D01*
X12364474Y-11820972D01*
X12317474Y-11708416D01*
X12278316Y-11613071D01*
X12250831Y-11543962D01*
X12238851Y-11510119D01*
X12238628Y-11508640D01*
X12252209Y-11481942D01*
X12290285Y-11420505D01*
X12348853Y-11330434D01*
X12423912Y-11217835D01*
X12511460Y-11088815D01*
X12562353Y-11014706D01*
X12655091Y-10878822D01*
X12737459Y-10755454D01*
X12805439Y-10650842D01*
X12855012Y-10571228D01*
X12882158Y-10522852D01*
X12886079Y-10512007D01*
X12869225Y-10486765D01*
X12822632Y-10432869D01*
X12752251Y-10356358D01*
X12664035Y-10263268D01*
X12563935Y-10159640D01*
X12457902Y-10051509D01*
X12351889Y-9944915D01*
X12251848Y-9845895D01*
X12163730Y-9760487D01*
X12093487Y-9694730D01*
X12047072Y-9654661D01*
X12031544Y-9645098D01*
X12006261Y-9658545D01*
X11945789Y-9696320D01*
X11856008Y-9754580D01*
X11742797Y-9829479D01*
X11612036Y-9917170D01*
X11513400Y-9983978D01*
X11015043Y-10322857D01*
X10599629Y-10151610D01*
X10184216Y-9980363D01*
X10071634Y-9383172D01*
X9959051Y-8785980D01*
X8716048Y-8785980D01*
X8603465Y-9383172D01*
G36*
X5786363Y-17637472D02*
G01*
X5700710Y-17663641D01*
X5645563Y-17696707D01*
X5627599Y-17722855D01*
X5632543Y-17753852D01*
X5664628Y-17802547D01*
X5691757Y-17837035D01*
X5747683Y-17899383D01*
X5789701Y-17925615D01*
X5825520Y-17923903D01*
X5931776Y-17896863D01*
X6009811Y-17898091D01*
X6073180Y-17928735D01*
X6094454Y-17946670D01*
X6162549Y-18009779D01*
X6162549Y-18833922D01*
X6436471Y-18833922D01*
X6436471Y-17638628D01*
X6299510Y-17638628D01*
X6217281Y-17641879D01*
X6174856Y-17653426D01*
X6162555Y-17675952D01*
X6162549Y-17676620D01*
X6156740Y-17700215D01*
X6130469Y-17697138D01*
X6094069Y-17680115D01*
X6018889Y-17648439D01*
X5957842Y-17629381D01*
X5879292Y-17624496D01*
X5786363Y-17637472D01*
G37*
X5786363Y-17637472D02*
X5700710Y-17663641D01*
X5645563Y-17696707D01*
X5627599Y-17722855D01*
X5632543Y-17753852D01*
X5664628Y-17802547D01*
X5691757Y-17837035D01*
X5747683Y-17899383D01*
X5789701Y-17925615D01*
X5825520Y-17923903D01*
X5931776Y-17896863D01*
X6009811Y-17898091D01*
X6073180Y-17928735D01*
X6094454Y-17946670D01*
X6162549Y-18009779D01*
X6162549Y-18833922D01*
X6436471Y-18833922D01*
X6436471Y-17638628D01*
X6299510Y-17638628D01*
X6217281Y-17641879D01*
X6174856Y-17653426D01*
X6162555Y-17675952D01*
X6162549Y-17676620D01*
X6156740Y-17700215D01*
X6130469Y-17697138D01*
X6094069Y-17680115D01*
X6018889Y-17648439D01*
X5957842Y-17629381D01*
X5879292Y-17624496D01*
X5786363Y-17637472D01*
G36*
X10843240Y-17659199D02*
G01*
X10781264Y-17688802D01*
X10721241Y-17731561D01*
X10675514Y-17780775D01*
X10642207Y-17843544D01*
X10619445Y-17926971D01*
X10605353Y-18038159D01*
X10598058Y-18184209D01*
X10595682Y-18372223D01*
X10595645Y-18391912D01*
X10595098Y-18833922D01*
X10869020Y-18833922D01*
X10869020Y-18426435D01*
X10869215Y-18275471D01*
X10870564Y-18166056D01*
X10874212Y-18089933D01*
X10881304Y-18038848D01*
X10892987Y-18004545D01*
X10910406Y-17978768D01*
X10934671Y-17953298D01*
X11019565Y-17898571D01*
X11112239Y-17888416D01*
X11200527Y-17923017D01*
X11231230Y-17948770D01*
X11253771Y-17972982D01*
X11269954Y-17998912D01*
X11280832Y-18034708D01*
X11287458Y-18088519D01*
X11290885Y-18168493D01*
X11292166Y-18282779D01*
X11292353Y-18421907D01*
X11292353Y-18833922D01*
X11566275Y-18833922D01*
X11566275Y-17638628D01*
X11429314Y-17638628D01*
X11347084Y-17641879D01*
X11304660Y-17653426D01*
X11292359Y-17675952D01*
X11292353Y-17676620D01*
X11286646Y-17698681D01*
X11261473Y-17696177D01*
X11211422Y-17671937D01*
X11097906Y-17636271D01*
X10968055Y-17632305D01*
X10843240Y-17659199D01*
G37*
X10843240Y-17659199D02*
X10781264Y-17688802D01*
X10721241Y-17731561D01*
X10675514Y-17780775D01*
X10642207Y-17843544D01*
X10619445Y-17926971D01*
X10605353Y-18038159D01*
X10598058Y-18184209D01*
X10595682Y-18372223D01*
X10595645Y-18391912D01*
X10595098Y-18833922D01*
X10869020Y-18833922D01*
X10869020Y-18426435D01*
X10869215Y-18275471D01*
X10870564Y-18166056D01*
X10874212Y-18089933D01*
X10881304Y-18038848D01*
X10892987Y-18004545D01*
X10910406Y-17978768D01*
X10934671Y-17953298D01*
X11019565Y-17898571D01*
X11112239Y-17888416D01*
X11200527Y-17923017D01*
X11231230Y-17948770D01*
X11253771Y-17972982D01*
X11269954Y-17998912D01*
X11280832Y-18034708D01*
X11287458Y-18088519D01*
X11290885Y-18168493D01*
X11292166Y-18282779D01*
X11292353Y-18421907D01*
X11292353Y-18833922D01*
X11566275Y-18833922D01*
X11566275Y-17638628D01*
X11429314Y-17638628D01*
X11347084Y-17641879D01*
X11304660Y-17653426D01*
X11292359Y-17675952D01*
X11292353Y-17676620D01*
X11286646Y-17698681D01*
X11261473Y-17696177D01*
X11211422Y-17671937D01*
X11097906Y-17636271D01*
X10968055Y-17632305D01*
X10843240Y-17659199D01*
G36*
X4046713Y-17634355D02*
G01*
X3982949Y-17649845D01*
X3860700Y-17706569D01*
X3756166Y-17793202D01*
X3683820Y-17897074D01*
X3673881Y-17920396D01*
X3660246Y-17981484D01*
X3650702Y-18071853D01*
X3647451Y-18163190D01*
X3647451Y-18335882D01*
X4008530Y-18335882D01*
X4157454Y-18336445D01*
X4262368Y-18339864D01*
X4329063Y-18348731D01*
X4363334Y-18365641D01*
X4370972Y-18393189D01*
X4357771Y-18433968D01*
X4334123Y-18481683D01*
X4268157Y-18561314D01*
X4176488Y-18600987D01*
X4064445Y-18599695D01*
X3937528Y-18556514D01*
X3827842Y-18503224D01*
X3736827Y-18575191D01*
X3645812Y-18647157D01*
X3731437Y-18726269D01*
X3845750Y-18801017D01*
X3986334Y-18846084D01*
X4137551Y-18858696D01*
X4283764Y-18836079D01*
X4307353Y-18828405D01*
X4435859Y-18761296D01*
X4531449Y-18661247D01*
X4596139Y-18525271D01*
X4631943Y-18350380D01*
X4632360Y-18346632D01*
X4635566Y-18156032D01*
X4622607Y-18088035D01*
X4369608Y-18088035D01*
X4346373Y-18098491D01*
X4283290Y-18106500D01*
X4190294Y-18111073D01*
X4131362Y-18111765D01*
X4021463Y-18111332D01*
X3952748Y-18108578D01*
X3916595Y-18101321D01*
X3904385Y-18087376D01*
X3907496Y-18064562D01*
X3910106Y-18055735D01*
X3954656Y-17972800D01*
X4024721Y-17905960D01*
X4086554Y-17876589D01*
X4168699Y-17878362D01*
X4251938Y-17914990D01*
X4321762Y-17975634D01*
X4363663Y-18049456D01*
X4369608Y-18088035D01*
X4622607Y-18088035D01*
X4603615Y-17988395D01*
X4540227Y-17847711D01*
X4449122Y-17737974D01*
X4334022Y-17663174D01*
X4198645Y-17627304D01*
X4046713Y-17634355D01*
G37*
X4046713Y-17634355D02*
X3982949Y-17649845D01*
X3860700Y-17706569D01*
X3756166Y-17793202D01*
X3683820Y-17897074D01*
X3673881Y-17920396D01*
X3660246Y-17981484D01*
X3650702Y-18071853D01*
X3647451Y-18163190D01*
X3647451Y-18335882D01*
X4008530Y-18335882D01*
X4157454Y-18336445D01*
X4262368Y-18339864D01*
X4329063Y-18348731D01*
X4363334Y-18365641D01*
X4370972Y-18393189D01*
X4357771Y-18433968D01*
X4334123Y-18481683D01*
X4268157Y-18561314D01*
X4176488Y-18600987D01*
X4064445Y-18599695D01*
X3937528Y-18556514D01*
X3827842Y-18503224D01*
X3736827Y-18575191D01*
X3645812Y-18647157D01*
X3731437Y-18726269D01*
X3845750Y-18801017D01*
X3986334Y-18846084D01*
X4137551Y-18858696D01*
X4283764Y-18836079D01*
X4307353Y-18828405D01*
X4435859Y-18761296D01*
X4531449Y-18661247D01*
X4596139Y-18525271D01*
X4631943Y-18350380D01*
X4632360Y-18346632D01*
X4635566Y-18156032D01*
X4622607Y-18088035D01*
X4369608Y-18088035D01*
X4346373Y-18098491D01*
X4283290Y-18106500D01*
X4190294Y-18111073D01*
X4131362Y-18111765D01*
X4021463Y-18111332D01*
X3952748Y-18108578D01*
X3916595Y-18101321D01*
X3904385Y-18087376D01*
X3907496Y-18064562D01*
X3910106Y-18055735D01*
X3954656Y-17972800D01*
X4024721Y-17905960D01*
X4086554Y-17876589D01*
X4168699Y-17878362D01*
X4251938Y-17914990D01*
X4321762Y-17975634D01*
X4363663Y-18049456D01*
X4369608Y-18088035D01*
X4622607Y-18088035D01*
X4603615Y-17988395D01*
X4540227Y-17847711D01*
X4449122Y-17737974D01*
X4334022Y-17663174D01*
X4198645Y-17627304D01*
X4046713Y-17634355D01*
G36*
X4959024Y-17649056D02*
G01*
X4814744Y-17710348D01*
X4769301Y-17740185D01*
X4711221Y-17786036D01*
X4674762Y-17822089D01*
X4668432Y-17833832D01*
X4686307Y-17859889D01*
X4732050Y-17904105D01*
X4768672Y-17934965D01*
X4868912Y-18015520D01*
X4948065Y-17948918D01*
X5009231Y-17905921D01*
X5068871Y-17891079D01*
X5137128Y-17894704D01*
X5245518Y-17921652D01*
X5320128Y-17977587D01*
X5365470Y-18068014D01*
X5386053Y-18198435D01*
X5386058Y-18198517D01*
X5384278Y-18344290D01*
X5356613Y-18451245D01*
X5301429Y-18524064D01*
X5263808Y-18548723D01*
X5163895Y-18579431D01*
X5057178Y-18579449D01*
X4964331Y-18549655D01*
X4942353Y-18535098D01*
X4887235Y-18497914D01*
X4844141Y-18491820D01*
X4797665Y-18519496D01*
X4746284Y-18569205D01*
X4664954Y-18653116D01*
X4755251Y-18727546D01*
X4894764Y-18811549D01*
X5052088Y-18852947D01*
X5216497Y-18849950D01*
X5324469Y-18822500D01*
X5450669Y-18754620D01*
X5551599Y-18647831D01*
X5597452Y-18572451D01*
X5634590Y-18464297D01*
X5653173Y-18327318D01*
X5653316Y-18178864D01*
X5635135Y-18036281D01*
X5598745Y-17916918D01*
X5593013Y-17904680D01*
X5508135Y-17784655D01*
X5393218Y-17697267D01*
X5257341Y-17644329D01*
X5109583Y-17627654D01*
X4959024Y-17649056D01*
G37*
X4959024Y-17649056D02*
X4814744Y-17710348D01*
X4769301Y-17740185D01*
X4711221Y-17786036D01*
X4674762Y-17822089D01*
X4668432Y-17833832D01*
X4686307Y-17859889D01*
X4732050Y-17904105D01*
X4768672Y-17934965D01*
X4868912Y-18015520D01*
X4948065Y-17948918D01*
X5009231Y-17905921D01*
X5068871Y-17891079D01*
X5137128Y-17894704D01*
X5245518Y-17921652D01*
X5320128Y-17977587D01*
X5365470Y-18068014D01*
X5386053Y-18198435D01*
X5386058Y-18198517D01*
X5384278Y-18344290D01*
X5356613Y-18451245D01*
X5301429Y-18524064D01*
X5263808Y-18548723D01*
X5163895Y-18579431D01*
X5057178Y-18579449D01*
X4964331Y-18549655D01*
X4942353Y-18535098D01*
X4887235Y-18497914D01*
X4844141Y-18491820D01*
X4797665Y-18519496D01*
X4746284Y-18569205D01*
X4664954Y-18653116D01*
X4755251Y-18727546D01*
X4894764Y-18811549D01*
X5052088Y-18852947D01*
X5216497Y-18849950D01*
X5324469Y-18822500D01*
X5450669Y-18754620D01*
X5551599Y-18647831D01*
X5597452Y-18572451D01*
X5634590Y-18464297D01*
X5653173Y-18327318D01*
X5653316Y-18178864D01*
X5635135Y-18036281D01*
X5598745Y-17916918D01*
X5593013Y-17904680D01*
X5508135Y-17784655D01*
X5393218Y-17697267D01*
X5257341Y-17644329D01*
X5109583Y-17627654D01*
X4959024Y-17649056D01*
G36*
X7382746Y-18026245D02*
G01*
X7380392Y-18208879D01*
X7371793Y-18347600D01*
X7354640Y-18448147D01*
X7326626Y-18516254D01*
X7285443Y-18557659D01*
X7228783Y-18578097D01*
X7158628Y-18583318D01*
X7085152Y-18577468D01*
X7029343Y-18556093D01*
X6988891Y-18513458D01*
X6961491Y-18443825D01*
X6944833Y-18341460D01*
X6936611Y-18200624D01*
X6934510Y-18026245D01*
X6934510Y-17638628D01*
X6660589Y-17638628D01*
X6660589Y-18833922D01*
X6797549Y-18833922D01*
X6880116Y-18830576D01*
X6922632Y-18818826D01*
X6934510Y-18796520D01*
X6941664Y-18776654D01*
X6970135Y-18780857D01*
X7027524Y-18808971D01*
X7159055Y-18852342D01*
X7298562Y-18849270D01*
X7432235Y-18802174D01*
X7495892Y-18764971D01*
X7544447Y-18724691D01*
X7579919Y-18674291D01*
X7604326Y-18606729D01*
X7619687Y-18514965D01*
X7628018Y-18391955D01*
X7631338Y-18230659D01*
X7631765Y-18105928D01*
X7631765Y-17638628D01*
X7382746Y-17638628D01*
X7382746Y-18026245D01*
G37*
X7382746Y-18026245D02*
X7380392Y-18208879D01*
X7371793Y-18347600D01*
X7354640Y-18448147D01*
X7326626Y-18516254D01*
X7285443Y-18557659D01*
X7228783Y-18578097D01*
X7158628Y-18583318D01*
X7085152Y-18577468D01*
X7029343Y-18556093D01*
X6988891Y-18513458D01*
X6961491Y-18443825D01*
X6944833Y-18341460D01*
X6936611Y-18200624D01*
X6934510Y-18026245D01*
X6934510Y-17638628D01*
X6660589Y-17638628D01*
X6660589Y-18833922D01*
X6797549Y-18833922D01*
X6880116Y-18830576D01*
X6922632Y-18818826D01*
X6934510Y-18796520D01*
X6941664Y-18776654D01*
X6970135Y-18780857D01*
X7027524Y-18808971D01*
X7159055Y-18852342D01*
X7298562Y-18849270D01*
X7432235Y-18802174D01*
X7495892Y-18764971D01*
X7544447Y-18724691D01*
X7579919Y-18674291D01*
X7604326Y-18606729D01*
X7619687Y-18514965D01*
X7628018Y-18391955D01*
X7631338Y-18230659D01*
X7631765Y-18105928D01*
X7631765Y-17638628D01*
X7382746Y-17638628D01*
X7382746Y-18026245D01*
G36*
X8140453Y-17653364D02*
G01*
X8014498Y-17721959D01*
X7915953Y-17830245D01*
X7869522Y-17918315D01*
X7849588Y-17996101D01*
X7836672Y-18106993D01*
X7831137Y-18234738D01*
X7833346Y-18363084D01*
X7843663Y-18475779D01*
X7855714Y-18535969D01*
X7896366Y-18618311D01*
X7966770Y-18705770D01*
X8051618Y-18782251D01*
X8135603Y-18831655D01*
X8137651Y-18832439D01*
X8241866Y-18854027D01*
X8365373Y-18854562D01*
X8482739Y-18834908D01*
X8528058Y-18819155D01*
X8644780Y-18752966D01*
X8728376Y-18666246D01*
X8783299Y-18551438D01*
X8814005Y-18400982D01*
X8820953Y-18322173D01*
X8820067Y-18223145D01*
X8553138Y-18223145D01*
X8544146Y-18367645D01*
X8518264Y-18477760D01*
X8477132Y-18548116D01*
X8447828Y-18568235D01*
X8372749Y-18582265D01*
X8283506Y-18578111D01*
X8206350Y-18557922D01*
X8186117Y-18546815D01*
X8132735Y-18482123D01*
X8097500Y-18383119D01*
X8082502Y-18262632D01*
X8089828Y-18133494D01*
X8106201Y-18055775D01*
X8153210Y-17965771D01*
X8227418Y-17909509D01*
X8316791Y-17890057D01*
X8409293Y-17910481D01*
X8480347Y-17960437D01*
X8517688Y-18001655D01*
X8539482Y-18042281D01*
X8549870Y-18097264D01*
X8552994Y-18181549D01*
X8553138Y-18223145D01*
X8820067Y-18223145D01*
X8819070Y-18111874D01*
X8784820Y-17939423D01*
X8718198Y-17804814D01*
X8619201Y-17708040D01*
X8487825Y-17649094D01*
X8459615Y-17642259D01*
X8290074Y-17626213D01*
X8140453Y-17653364D01*
G37*
X8140453Y-17653364D02*
X8014498Y-17721959D01*
X7915953Y-17830245D01*
X7869522Y-17918315D01*
X7849588Y-17996101D01*
X7836672Y-18106993D01*
X7831137Y-18234738D01*
X7833346Y-18363084D01*
X7843663Y-18475779D01*
X7855714Y-18535969D01*
X7896366Y-18618311D01*
X7966770Y-18705770D01*
X8051618Y-18782251D01*
X8135603Y-18831655D01*
X8137651Y-18832439D01*
X8241866Y-18854027D01*
X8365373Y-18854562D01*
X8482739Y-18834908D01*
X8528058Y-18819155D01*
X8644780Y-18752966D01*
X8728376Y-18666246D01*
X8783299Y-18551438D01*
X8814005Y-18400982D01*
X8820953Y-18322173D01*
X8820067Y-18223145D01*
X8553138Y-18223145D01*
X8544146Y-18367645D01*
X8518264Y-18477760D01*
X8477132Y-18548116D01*
X8447828Y-18568235D01*
X8372749Y-18582265D01*
X8283506Y-18578111D01*
X8206350Y-18557922D01*
X8186117Y-18546815D01*
X8132735Y-18482123D01*
X8097500Y-18383119D01*
X8082502Y-18262632D01*
X8089828Y-18133494D01*
X8106201Y-18055775D01*
X8153210Y-17965771D01*
X8227418Y-17909509D01*
X8316791Y-17890057D01*
X8409293Y-17910481D01*
X8480347Y-17960437D01*
X8517688Y-18001655D01*
X8539482Y-18042281D01*
X8549870Y-18097264D01*
X8552994Y-18181549D01*
X8553138Y-18223145D01*
X8820067Y-18223145D01*
X8819070Y-18111874D01*
X8784820Y-17939423D01*
X8718198Y-17804814D01*
X8619201Y-17708040D01*
X8487825Y-17649094D01*
X8459615Y-17642259D01*
X8290074Y-17626213D01*
X8140453Y-17653364D01*
G36*
X9322241Y-17634345D02*
G01*
X9227941Y-17652229D01*
X9130110Y-17689633D01*
X9119657Y-17694402D01*
X9045469Y-17733412D01*
X8994090Y-17769664D01*
X8977483Y-17792887D01*
X8993298Y-17830761D01*
X9031712Y-17886644D01*
X9048763Y-17907505D01*
X9119031Y-17989618D01*
X9209621Y-17936168D01*
X9295836Y-17900561D01*
X9395451Y-17881529D01*
X9490981Y-17880326D01*
X9564939Y-17898210D01*
X9582688Y-17909373D01*
X9616488Y-17960553D01*
X9620596Y-18019509D01*
X9595304Y-18065567D01*
X9580344Y-18074499D01*
X9535514Y-18085592D01*
X9456714Y-18098630D01*
X9359574Y-18111088D01*
X9341654Y-18113042D01*
X9185635Y-18140030D01*
X9072477Y-18185873D01*
X8997431Y-18254803D01*
X8955747Y-18351054D01*
X8942762Y-18468617D01*
X8960701Y-18602254D01*
X9018950Y-18707195D01*
X9117745Y-18783630D01*
X9257318Y-18831748D01*
X9412255Y-18850732D01*
X9538602Y-18850504D01*
X9641087Y-18833262D01*
X9711079Y-18809457D01*
X9799517Y-18767978D01*
X9881246Y-18719842D01*
X9910295Y-18698655D01*
X9985000Y-18637676D01*
X9894902Y-18546508D01*
X9804804Y-18455339D01*
X9702368Y-18523128D01*
X9599626Y-18574042D01*
X9489913Y-18600673D01*
X9384449Y-18603483D01*
X9294454Y-18582935D01*
X9231146Y-18539493D01*
X9210704Y-18502838D01*
X9213771Y-18444053D01*
X9264566Y-18399099D01*
X9362952Y-18368057D01*
X9470744Y-18353710D01*
X9636635Y-18326337D01*
X9759876Y-18274693D01*
X9842114Y-18197266D01*
X9884999Y-18092544D01*
X9890940Y-17968387D01*
X9861594Y-17838702D01*
X9794691Y-17740677D01*
X9689629Y-17673866D01*
X9545810Y-17637820D01*
X9439262Y-17630754D01*
X9322241Y-17634345D01*
G37*
X9322241Y-17634345D02*
X9227941Y-17652229D01*
X9130110Y-17689633D01*
X9119657Y-17694402D01*
X9045469Y-17733412D01*
X8994090Y-17769664D01*
X8977483Y-17792887D01*
X8993298Y-17830761D01*
X9031712Y-17886644D01*
X9048763Y-17907505D01*
X9119031Y-17989618D01*
X9209621Y-17936168D01*
X9295836Y-17900561D01*
X9395451Y-17881529D01*
X9490981Y-17880326D01*
X9564939Y-17898210D01*
X9582688Y-17909373D01*
X9616488Y-17960553D01*
X9620596Y-18019509D01*
X9595304Y-18065567D01*
X9580344Y-18074499D01*
X9535514Y-18085592D01*
X9456714Y-18098630D01*
X9359574Y-18111088D01*
X9341654Y-18113042D01*
X9185635Y-18140030D01*
X9072477Y-18185873D01*
X8997431Y-18254803D01*
X8955747Y-18351054D01*
X8942762Y-18468617D01*
X8960701Y-18602254D01*
X9018950Y-18707195D01*
X9117745Y-18783630D01*
X9257318Y-18831748D01*
X9412255Y-18850732D01*
X9538602Y-18850504D01*
X9641087Y-18833262D01*
X9711079Y-18809457D01*
X9799517Y-18767978D01*
X9881246Y-18719842D01*
X9910295Y-18698655D01*
X9985000Y-18637676D01*
X9894902Y-18546508D01*
X9804804Y-18455339D01*
X9702368Y-18523128D01*
X9599626Y-18574042D01*
X9489913Y-18600673D01*
X9384449Y-18603483D01*
X9294454Y-18582935D01*
X9231146Y-18539493D01*
X9210704Y-18502838D01*
X9213771Y-18444053D01*
X9264566Y-18399099D01*
X9362952Y-18368057D01*
X9470744Y-18353710D01*
X9636635Y-18326337D01*
X9759876Y-18274693D01*
X9842114Y-18197266D01*
X9884999Y-18092544D01*
X9890940Y-17968387D01*
X9861594Y-17838702D01*
X9794691Y-17740677D01*
X9689629Y-17673866D01*
X9545810Y-17637820D01*
X9439262Y-17630754D01*
X9322241Y-17634345D01*
G36*
X12036796Y-17666354D02*
G01*
X12011981Y-17678037D01*
X11926094Y-17740951D01*
X11844879Y-17832769D01*
X11784236Y-17933868D01*
X11766988Y-17980349D01*
X11751251Y-18063376D01*
X11741867Y-18163713D01*
X11740728Y-18205147D01*
X11740589Y-18335882D01*
X12493047Y-18335882D01*
X12477007Y-18404363D01*
X12437637Y-18485355D01*
X12368806Y-18555351D01*
X12286919Y-18600441D01*
X12234737Y-18609804D01*
X12163971Y-18598441D01*
X12079540Y-18569943D01*
X12050858Y-18556831D01*
X11944791Y-18503858D01*
X11854272Y-18572901D01*
X11802039Y-18619597D01*
X11774247Y-18658140D01*
X11772840Y-18669452D01*
X11797668Y-18696868D01*
X11852083Y-18738532D01*
X11901472Y-18771037D01*
X12034748Y-18829468D01*
X12184161Y-18855915D01*
X12332249Y-18849039D01*
X12450295Y-18813096D01*
X12571982Y-18736101D01*
X12658460Y-18634728D01*
X12712559Y-18503570D01*
X12737109Y-18337224D01*
X12739286Y-18261108D01*
X12730573Y-18086685D01*
X12729503Y-18081611D01*
X12480173Y-18081611D01*
X12473306Y-18097968D01*
X12445083Y-18106988D01*
X12386873Y-18110854D01*
X12290042Y-18111749D01*
X12252757Y-18111765D01*
X12139317Y-18110413D01*
X12067378Y-18105505D01*
X12028687Y-18095760D01*
X12014995Y-18079899D01*
X12014510Y-18074805D01*
X12030137Y-18034326D01*
X12069247Y-17977621D01*
X12086061Y-17957766D01*
X12148481Y-17901611D01*
X12213547Y-17879532D01*
X12248603Y-17877686D01*
X12343442Y-17900766D01*
X12422973Y-17962759D01*
X12473423Y-18052802D01*
X12474317Y-18055735D01*
X12480173Y-18081611D01*
X12729503Y-18081611D01*
X12701601Y-17949343D01*
X12649410Y-17839461D01*
X12585579Y-17761461D01*
X12467567Y-17676882D01*
X12328842Y-17631686D01*
X12181290Y-17627600D01*
X12036796Y-17666354D01*
G37*
X12036796Y-17666354D02*
X12011981Y-17678037D01*
X11926094Y-17740951D01*
X11844879Y-17832769D01*
X11784236Y-17933868D01*
X11766988Y-17980349D01*
X11751251Y-18063376D01*
X11741867Y-18163713D01*
X11740728Y-18205147D01*
X11740589Y-18335882D01*
X12493047Y-18335882D01*
X12477007Y-18404363D01*
X12437637Y-18485355D01*
X12368806Y-18555351D01*
X12286919Y-18600441D01*
X12234737Y-18609804D01*
X12163971Y-18598441D01*
X12079540Y-18569943D01*
X12050858Y-18556831D01*
X11944791Y-18503858D01*
X11854272Y-18572901D01*
X11802039Y-18619597D01*
X11774247Y-18658140D01*
X11772840Y-18669452D01*
X11797668Y-18696868D01*
X11852083Y-18738532D01*
X11901472Y-18771037D01*
X12034748Y-18829468D01*
X12184161Y-18855915D01*
X12332249Y-18849039D01*
X12450295Y-18813096D01*
X12571982Y-18736101D01*
X12658460Y-18634728D01*
X12712559Y-18503570D01*
X12737109Y-18337224D01*
X12739286Y-18261108D01*
X12730573Y-18086685D01*
X12729503Y-18081611D01*
X12480173Y-18081611D01*
X12473306Y-18097968D01*
X12445083Y-18106988D01*
X12386873Y-18110854D01*
X12290042Y-18111749D01*
X12252757Y-18111765D01*
X12139317Y-18110413D01*
X12067378Y-18105505D01*
X12028687Y-18095760D01*
X12014995Y-18079899D01*
X12014510Y-18074805D01*
X12030137Y-18034326D01*
X12069247Y-17977621D01*
X12086061Y-17957766D01*
X12148481Y-17901611D01*
X12213547Y-17879532D01*
X12248603Y-17877686D01*
X12343442Y-17900766D01*
X12422973Y-17962759D01*
X12473423Y-18052802D01*
X12474317Y-18055735D01*
X12480173Y-18081611D01*
X12729503Y-18081611D01*
X12701601Y-17949343D01*
X12649410Y-17839461D01*
X12585579Y-17761461D01*
X12467567Y-17676882D01*
X12328842Y-17631686D01*
X12181290Y-17627600D01*
X12036796Y-17666354D01*
G36*
X14376753Y-17651568D02*
G01*
X14246478Y-17709163D01*
X14147581Y-17805334D01*
X14079918Y-17940229D01*
X14043345Y-18113996D01*
X14040724Y-18141126D01*
X14038670Y-18332408D01*
X14065301Y-18500073D01*
X14118999Y-18635967D01*
X14147753Y-18679681D01*
X14247909Y-18772198D01*
X14375463Y-18832119D01*
X14518163Y-18856985D01*
X14663760Y-18844339D01*
X14774438Y-18805391D01*
X14869616Y-18739755D01*
X14947406Y-18653699D01*
X14948751Y-18651685D01*
X14980343Y-18598570D01*
X15000873Y-18545160D01*
X15013305Y-18477754D01*
X15020603Y-18382653D01*
X15023818Y-18304666D01*
X15025156Y-18233944D01*
X14776186Y-18233944D01*
X14773753Y-18304348D01*
X14764920Y-18398068D01*
X14749336Y-18458214D01*
X14721234Y-18501006D01*
X14694914Y-18526002D01*
X14601608Y-18578338D01*
X14503980Y-18585333D01*
X14413058Y-18547676D01*
X14367598Y-18505479D01*
X14334838Y-18462956D01*
X14315677Y-18422267D01*
X14307267Y-18369314D01*
X14306763Y-18289997D01*
X14309355Y-18216950D01*
X14314929Y-18112601D01*
X14323766Y-18044920D01*
X14339693Y-18000774D01*
X14366538Y-17967031D01*
X14387811Y-17947746D01*
X14476794Y-17897086D01*
X14572789Y-17894560D01*
X14653281Y-17924567D01*
X14721947Y-17987231D01*
X14762856Y-18090168D01*
X14776186Y-18233944D01*
X15025156Y-18233944D01*
X15026754Y-18149582D01*
X15021740Y-18033600D01*
X15006717Y-17946367D01*
X14979624Y-17877530D01*
X14938400Y-17816737D01*
X14923115Y-17798686D01*
X14827546Y-17708746D01*
X14725039Y-17656211D01*
X14599679Y-17634201D01*
X14538550Y-17632402D01*
X14376753Y-17651568D01*
G37*
X14376753Y-17651568D02*
X14246478Y-17709163D01*
X14147581Y-17805334D01*
X14079918Y-17940229D01*
X14043345Y-18113996D01*
X14040724Y-18141126D01*
X14038670Y-18332408D01*
X14065301Y-18500073D01*
X14118999Y-18635967D01*
X14147753Y-18679681D01*
X14247909Y-18772198D01*
X14375463Y-18832119D01*
X14518163Y-18856985D01*
X14663760Y-18844339D01*
X14774438Y-18805391D01*
X14869616Y-18739755D01*
X14947406Y-18653699D01*
X14948751Y-18651685D01*
X14980343Y-18598570D01*
X15000873Y-18545160D01*
X15013305Y-18477754D01*
X15020603Y-18382653D01*
X15023818Y-18304666D01*
X15025156Y-18233944D01*
X14776186Y-18233944D01*
X14773753Y-18304348D01*
X14764920Y-18398068D01*
X14749336Y-18458214D01*
X14721234Y-18501006D01*
X14694914Y-18526002D01*
X14601608Y-18578338D01*
X14503980Y-18585333D01*
X14413058Y-18547676D01*
X14367598Y-18505479D01*
X14334838Y-18462956D01*
X14315677Y-18422267D01*
X14307267Y-18369314D01*
X14306763Y-18289997D01*
X14309355Y-18216950D01*
X14314929Y-18112601D01*
X14323766Y-18044920D01*
X14339693Y-18000774D01*
X14366538Y-17967031D01*
X14387811Y-17947746D01*
X14476794Y-17897086D01*
X14572789Y-17894560D01*
X14653281Y-17924567D01*
X14721947Y-17987231D01*
X14762856Y-18090168D01*
X14776186Y-18233944D01*
X15025156Y-18233944D01*
X15026754Y-18149582D01*
X15021740Y-18033600D01*
X15006717Y-17946367D01*
X14979624Y-17877530D01*
X14938400Y-17816737D01*
X14923115Y-17798686D01*
X14827546Y-17708746D01*
X14725039Y-17656211D01*
X14599679Y-17634201D01*
X14538550Y-17632402D01*
X14376753Y-17651568D01*
G36*
X5324693Y-19512784D02*
G01*
X5205663Y-19543731D01*
X5105979Y-19607600D01*
X5057712Y-19655313D01*
X4978592Y-19768106D01*
X4933248Y-19898950D01*
X4917670Y-20059792D01*
X4917590Y-20072794D01*
X4917451Y-20203530D01*
X5669909Y-20203530D01*
X5653870Y-20272010D01*
X5624909Y-20334031D01*
X5574222Y-20398654D01*
X5563621Y-20408971D01*
X5472506Y-20464805D01*
X5368600Y-20474275D01*
X5249000Y-20437540D01*
X5228726Y-20427647D01*
X5166544Y-20397574D01*
X5124894Y-20380440D01*
X5117627Y-20378855D01*
X5092260Y-20394242D01*
X5043880Y-20431887D01*
X5019321Y-20452459D01*
X4968430Y-20499714D01*
X4951719Y-20530917D01*
X4963317Y-20559620D01*
X4969517Y-20567468D01*
X5011507Y-20601819D01*
X5080794Y-20643565D01*
X5129118Y-20667935D01*
X5266289Y-20710873D01*
X5418153Y-20724786D01*
X5561976Y-20708300D01*
X5602255Y-20696496D01*
X5726922Y-20629689D01*
X5819329Y-20526892D01*
X5880010Y-20387105D01*
X5909502Y-20209330D01*
X5912740Y-20116373D01*
X5903286Y-19981033D01*
X5664510Y-19981033D01*
X5641416Y-19991038D01*
X5579338Y-19998888D01*
X5489086Y-20003521D01*
X5427942Y-20004314D01*
X5317960Y-20003549D01*
X5248543Y-19999970D01*
X5210462Y-19991649D01*
X5194485Y-19976657D01*
X5191373Y-19954903D01*
X5212722Y-19887892D01*
X5266471Y-19821664D01*
X5337178Y-19770832D01*
X5407911Y-19750038D01*
X5503984Y-19768484D01*
X5587151Y-19821811D01*
X5644814Y-19898677D01*
X5664510Y-19981033D01*
X5903286Y-19981033D01*
X5898972Y-19919291D01*
X5856480Y-19762271D01*
X5784365Y-19644069D01*
X5681727Y-19563440D01*
X5547668Y-19519139D01*
X5475043Y-19510607D01*
X5324693Y-19512784D01*
G37*
X5324693Y-19512784D02*
X5205663Y-19543731D01*
X5105979Y-19607600D01*
X5057712Y-19655313D01*
X4978592Y-19768106D01*
X4933248Y-19898950D01*
X4917670Y-20059792D01*
X4917590Y-20072794D01*
X4917451Y-20203530D01*
X5669909Y-20203530D01*
X5653870Y-20272010D01*
X5624909Y-20334031D01*
X5574222Y-20398654D01*
X5563621Y-20408971D01*
X5472506Y-20464805D01*
X5368600Y-20474275D01*
X5249000Y-20437540D01*
X5228726Y-20427647D01*
X5166544Y-20397574D01*
X5124894Y-20380440D01*
X5117627Y-20378855D01*
X5092260Y-20394242D01*
X5043880Y-20431887D01*
X5019321Y-20452459D01*
X4968430Y-20499714D01*
X4951719Y-20530917D01*
X4963317Y-20559620D01*
X4969517Y-20567468D01*
X5011507Y-20601819D01*
X5080794Y-20643565D01*
X5129118Y-20667935D01*
X5266289Y-20710873D01*
X5418153Y-20724786D01*
X5561976Y-20708300D01*
X5602255Y-20696496D01*
X5726922Y-20629689D01*
X5819329Y-20526892D01*
X5880010Y-20387105D01*
X5909502Y-20209330D01*
X5912740Y-20116373D01*
X5903286Y-19981033D01*
X5664510Y-19981033D01*
X5641416Y-19991038D01*
X5579338Y-19998888D01*
X5489086Y-20003521D01*
X5427942Y-20004314D01*
X5317960Y-20003549D01*
X5248543Y-19999970D01*
X5210462Y-19991649D01*
X5194485Y-19976657D01*
X5191373Y-19954903D01*
X5212722Y-19887892D01*
X5266471Y-19821664D01*
X5337178Y-19770832D01*
X5407911Y-19750038D01*
X5503984Y-19768484D01*
X5587151Y-19821811D01*
X5644814Y-19898677D01*
X5664510Y-19981033D01*
X5903286Y-19981033D01*
X5898972Y-19919291D01*
X5856480Y-19762271D01*
X5784365Y-19644069D01*
X5681727Y-19563440D01*
X5547668Y-19519139D01*
X5475043Y-19510607D01*
X5324693Y-19512784D01*
G36*
X6111554Y-19505883D02*
G01*
X6015823Y-19524755D01*
X5961323Y-19552699D01*
X5903992Y-19599123D01*
X5985559Y-19702111D01*
X6035850Y-19764479D01*
X6069999Y-19794907D01*
X6103937Y-19799555D01*
X6153594Y-19784586D01*
X6176904Y-19776117D01*
X6271937Y-19763622D01*
X6358968Y-19790406D01*
X6422862Y-19850915D01*
X6433241Y-19870208D01*
X6444544Y-19921314D01*
X6453268Y-20015500D01*
X6459003Y-20146089D01*
X6461340Y-20306405D01*
X6461373Y-20329211D01*
X6461373Y-20726471D01*
X6735295Y-20726471D01*
X6735295Y-19506275D01*
X6598334Y-19506275D01*
X6519362Y-19508337D01*
X6478221Y-19517513D01*
X6463008Y-19538290D01*
X6461373Y-19557886D01*
X6461373Y-19609497D01*
X6395760Y-19557886D01*
X6320525Y-19522675D01*
X6219456Y-19505265D01*
X6111554Y-19505883D01*
G37*
X6111554Y-19505883D02*
X6015823Y-19524755D01*
X5961323Y-19552699D01*
X5903992Y-19599123D01*
X5985559Y-19702111D01*
X6035850Y-19764479D01*
X6069999Y-19794907D01*
X6103937Y-19799555D01*
X6153594Y-19784586D01*
X6176904Y-19776117D01*
X6271937Y-19763622D01*
X6358968Y-19790406D01*
X6422862Y-19850915D01*
X6433241Y-19870208D01*
X6444544Y-19921314D01*
X6453268Y-20015500D01*
X6459003Y-20146089D01*
X6461340Y-20306405D01*
X6461373Y-20329211D01*
X6461373Y-20726471D01*
X6735295Y-20726471D01*
X6735295Y-19506275D01*
X6598334Y-19506275D01*
X6519362Y-19508337D01*
X6478221Y-19517513D01*
X6463008Y-19538290D01*
X6461373Y-19557886D01*
X6461373Y-19609497D01*
X6395760Y-19557886D01*
X6320525Y-19522675D01*
X6219456Y-19505265D01*
X6111554Y-19505883D01*
G36*
X7293541Y-19513669D02*
G01*
X7188580Y-19539163D01*
X7158239Y-19552669D01*
X7099427Y-19588046D01*
X7054291Y-19627890D01*
X7020894Y-19679120D01*
X6997299Y-19748654D01*
X6981567Y-19843409D01*
X6971761Y-19970305D01*
X6965943Y-20136258D01*
X6963734Y-20247108D01*
X6955604Y-20726471D01*
X7094469Y-20726471D01*
X7178713Y-20722938D01*
X7222116Y-20710866D01*
X7233334Y-20690594D01*
X7239256Y-20668674D01*
X7265734Y-20672865D01*
X7301814Y-20690441D01*
X7392138Y-20717382D01*
X7508223Y-20724642D01*
X7630320Y-20712767D01*
X7738679Y-20682305D01*
X7748398Y-20678077D01*
X7847432Y-20608505D01*
X7912719Y-20511789D01*
X7942760Y-20398738D01*
X7940465Y-20358122D01*
X7695367Y-20358122D01*
X7673771Y-20412782D01*
X7609741Y-20451952D01*
X7506435Y-20472974D01*
X7451226Y-20475766D01*
X7359218Y-20468620D01*
X7298059Y-20440848D01*
X7283138Y-20427647D01*
X7242713Y-20355829D01*
X7233334Y-20290686D01*
X7233334Y-20203530D01*
X7354731Y-20203530D01*
X7495847Y-20210722D01*
X7594827Y-20233345D01*
X7657367Y-20272964D01*
X7671369Y-20290628D01*
X7695367Y-20358122D01*
X7940465Y-20358122D01*
X7936059Y-20280157D01*
X7891120Y-20166855D01*
X7829804Y-20090285D01*
X7792668Y-20057181D01*
X7756313Y-20035425D01*
X7709010Y-20022161D01*
X7639027Y-20014528D01*
X7534636Y-20009670D01*
X7493230Y-20008273D01*
X7233334Y-19999780D01*
X7233715Y-19921116D01*
X7243781Y-19838428D01*
X7280171Y-19788431D01*
X7353689Y-19756489D01*
X7355661Y-19755920D01*
X7459895Y-19743361D01*
X7561892Y-19759766D01*
X7637695Y-19799657D01*
X7668110Y-19819354D01*
X7700868Y-19816629D01*
X7751279Y-19788091D01*
X7780881Y-19767950D01*
X7838782Y-19724919D01*
X7874648Y-19692662D01*
X7880403Y-19683427D01*
X7856705Y-19635636D01*
X7786687Y-19578562D01*
X7756275Y-19559305D01*
X7668845Y-19526140D01*
X7551017Y-19507350D01*
X7420134Y-19503129D01*
X7293541Y-19513669D01*
G37*
X7293541Y-19513669D02*
X7188580Y-19539163D01*
X7158239Y-19552669D01*
X7099427Y-19588046D01*
X7054291Y-19627890D01*
X7020894Y-19679120D01*
X6997299Y-19748654D01*
X6981567Y-19843409D01*
X6971761Y-19970305D01*
X6965943Y-20136258D01*
X6963734Y-20247108D01*
X6955604Y-20726471D01*
X7094469Y-20726471D01*
X7178713Y-20722938D01*
X7222116Y-20710866D01*
X7233334Y-20690594D01*
X7239256Y-20668674D01*
X7265734Y-20672865D01*
X7301814Y-20690441D01*
X7392138Y-20717382D01*
X7508223Y-20724642D01*
X7630320Y-20712767D01*
X7738679Y-20682305D01*
X7748398Y-20678077D01*
X7847432Y-20608505D01*
X7912719Y-20511789D01*
X7942760Y-20398738D01*
X7940465Y-20358122D01*
X7695367Y-20358122D01*
X7673771Y-20412782D01*
X7609741Y-20451952D01*
X7506435Y-20472974D01*
X7451226Y-20475766D01*
X7359218Y-20468620D01*
X7298059Y-20440848D01*
X7283138Y-20427647D01*
X7242713Y-20355829D01*
X7233334Y-20290686D01*
X7233334Y-20203530D01*
X7354731Y-20203530D01*
X7495847Y-20210722D01*
X7594827Y-20233345D01*
X7657367Y-20272964D01*
X7671369Y-20290628D01*
X7695367Y-20358122D01*
X7940465Y-20358122D01*
X7936059Y-20280157D01*
X7891120Y-20166855D01*
X7829804Y-20090285D01*
X7792668Y-20057181D01*
X7756313Y-20035425D01*
X7709010Y-20022161D01*
X7639027Y-20014528D01*
X7534636Y-20009670D01*
X7493230Y-20008273D01*
X7233334Y-19999780D01*
X7233715Y-19921116D01*
X7243781Y-19838428D01*
X7280171Y-19788431D01*
X7353689Y-19756489D01*
X7355661Y-19755920D01*
X7459895Y-19743361D01*
X7561892Y-19759766D01*
X7637695Y-19799657D01*
X7668110Y-19819354D01*
X7700868Y-19816629D01*
X7751279Y-19788091D01*
X7780881Y-19767950D01*
X7838782Y-19724919D01*
X7874648Y-19692662D01*
X7880403Y-19683427D01*
X7856705Y-19635636D01*
X7786687Y-19578562D01*
X7756275Y-19559305D01*
X7668845Y-19526140D01*
X7551017Y-19507350D01*
X7420134Y-19503129D01*
X7293541Y-19513669D01*
G36*
X8792472Y-19511332D02*
G01*
X8693986Y-19518726D01*
X8565224Y-19904706D01*
X8436463Y-20290686D01*
X8396089Y-20153726D01*
X8371793Y-20069083D01*
X8339833Y-19954697D01*
X8305321Y-19828963D01*
X8287072Y-19761520D01*
X8218429Y-19506275D01*
X7935227Y-19506275D01*
X8019878Y-19773971D01*
X8061565Y-19905638D01*
X8111926Y-20064458D01*
X8164519Y-20230128D01*
X8211470Y-20377843D01*
X8318411Y-20714020D01*
X8549339Y-20729044D01*
X8611950Y-20522316D01*
X8650562Y-20393896D01*
X8692700Y-20252322D01*
X8729528Y-20127285D01*
X8730982Y-20122309D01*
X8758489Y-20037586D01*
X8782758Y-19979778D01*
X8799757Y-19957918D01*
X8803250Y-19960446D01*
X8815510Y-19994336D01*
X8838805Y-20066930D01*
X8870300Y-20169101D01*
X8907158Y-20291720D01*
X8927101Y-20359167D01*
X9035105Y-20726471D01*
X9264321Y-20726471D01*
X9447561Y-20147500D01*
X9499037Y-19985091D01*
X9545930Y-19837602D01*
X9586023Y-19711960D01*
X9617103Y-19615095D01*
X9636955Y-19553934D01*
X9642989Y-19536065D01*
X9638212Y-19517768D01*
X9600703Y-19509755D01*
X9522645Y-19510557D01*
X9510426Y-19511163D01*
X9365674Y-19518726D01*
X9270870Y-19867353D01*
X9236023Y-19994497D01*
X9204883Y-20106265D01*
X9180191Y-20192953D01*
X9164688Y-20244856D01*
X9161824Y-20253318D01*
X9149954Y-20243587D01*
X9126017Y-20193172D01*
X9092761Y-20108935D01*
X9052936Y-19997741D01*
X9019270Y-19897297D01*
X8890959Y-19503939D01*
X8792472Y-19511332D01*
G37*
X8792472Y-19511332D02*
X8693986Y-19518726D01*
X8565224Y-19904706D01*
X8436463Y-20290686D01*
X8396089Y-20153726D01*
X8371793Y-20069083D01*
X8339833Y-19954697D01*
X8305321Y-19828963D01*
X8287072Y-19761520D01*
X8218429Y-19506275D01*
X7935227Y-19506275D01*
X8019878Y-19773971D01*
X8061565Y-19905638D01*
X8111926Y-20064458D01*
X8164519Y-20230128D01*
X8211470Y-20377843D01*
X8318411Y-20714020D01*
X8549339Y-20729044D01*
X8611950Y-20522316D01*
X8650562Y-20393896D01*
X8692700Y-20252322D01*
X8729528Y-20127285D01*
X8730982Y-20122309D01*
X8758489Y-20037586D01*
X8782758Y-19979778D01*
X8799757Y-19957918D01*
X8803250Y-19960446D01*
X8815510Y-19994336D01*
X8838805Y-20066930D01*
X8870300Y-20169101D01*
X8907158Y-20291720D01*
X8927101Y-20359167D01*
X9035105Y-20726471D01*
X9264321Y-20726471D01*
X9447561Y-20147500D01*
X9499037Y-19985091D01*
X9545930Y-19837602D01*
X9586023Y-19711960D01*
X9617103Y-19615095D01*
X9636955Y-19553934D01*
X9642989Y-19536065D01*
X9638212Y-19517768D01*
X9600703Y-19509755D01*
X9522645Y-19510557D01*
X9510426Y-19511163D01*
X9365674Y-19518726D01*
X9270870Y-19867353D01*
X9236023Y-19994497D01*
X9204883Y-20106265D01*
X9180191Y-20192953D01*
X9164688Y-20244856D01*
X9161824Y-20253318D01*
X9149954Y-20243587D01*
X9126017Y-20193172D01*
X9092761Y-20108935D01*
X9052936Y-19997741D01*
X9019270Y-19897297D01*
X8890959Y-19503939D01*
X8792472Y-19511332D01*
G36*
X9748432Y-20726471D02*
G01*
X9885393Y-20726471D01*
X9964889Y-20724140D01*
X10006292Y-20714488D01*
X10021199Y-20693525D01*
X10022353Y-20679351D01*
X10024867Y-20650927D01*
X10040720Y-20645475D01*
X10082379Y-20662998D01*
X10114776Y-20679351D01*
X10239151Y-20718103D01*
X10374354Y-20720346D01*
X10484274Y-20691444D01*
X10586634Y-20621619D01*
X10664660Y-20518555D01*
X10707386Y-20396989D01*
X10708474Y-20390192D01*
X10714822Y-20316032D01*
X10717979Y-20209570D01*
X10717725Y-20129052D01*
X10445711Y-20129052D01*
X10439410Y-20236070D01*
X10425075Y-20324278D01*
X10405669Y-20374090D01*
X10332254Y-20442162D01*
X10245086Y-20466564D01*
X10155196Y-20446831D01*
X10078383Y-20387968D01*
X10049292Y-20348379D01*
X10032283Y-20301138D01*
X10024316Y-20232181D01*
X10022353Y-20128607D01*
X10025866Y-20026039D01*
X10035143Y-19935921D01*
X10048294Y-19875613D01*
X10050486Y-19870208D01*
X10103522Y-19805940D01*
X10180933Y-19770656D01*
X10267546Y-19764959D01*
X10348193Y-19789453D01*
X10407703Y-19844742D01*
X10413876Y-19855743D01*
X10433199Y-19922827D01*
X10443726Y-20019284D01*
X10445711Y-20129052D01*
X10717725Y-20129052D01*
X10717596Y-20088225D01*
X10715806Y-20022918D01*
X10703627Y-19861355D01*
X10678315Y-19740053D01*
X10636207Y-19650379D01*
X10573641Y-19583699D01*
X10512900Y-19544557D01*
X10428036Y-19517040D01*
X10322485Y-19507603D01*
X10214402Y-19515290D01*
X10121942Y-19539146D01*
X10073090Y-19567685D01*
X10022353Y-19613601D01*
X10022353Y-19033137D01*
X9748432Y-19033137D01*
X9748432Y-20726471D01*
G37*
X9748432Y-20726471D02*
X9885393Y-20726471D01*
X9964889Y-20724140D01*
X10006292Y-20714488D01*
X10021199Y-20693525D01*
X10022353Y-20679351D01*
X10024867Y-20650927D01*
X10040720Y-20645475D01*
X10082379Y-20662998D01*
X10114776Y-20679351D01*
X10239151Y-20718103D01*
X10374354Y-20720346D01*
X10484274Y-20691444D01*
X10586634Y-20621619D01*
X10664660Y-20518555D01*
X10707386Y-20396989D01*
X10708474Y-20390192D01*
X10714822Y-20316032D01*
X10717979Y-20209570D01*
X10717725Y-20129052D01*
X10445711Y-20129052D01*
X10439410Y-20236070D01*
X10425075Y-20324278D01*
X10405669Y-20374090D01*
X10332254Y-20442162D01*
X10245086Y-20466564D01*
X10155196Y-20446831D01*
X10078383Y-20387968D01*
X10049292Y-20348379D01*
X10032283Y-20301138D01*
X10024316Y-20232181D01*
X10022353Y-20128607D01*
X10025866Y-20026039D01*
X10035143Y-19935921D01*
X10048294Y-19875613D01*
X10050486Y-19870208D01*
X10103522Y-19805940D01*
X10180933Y-19770656D01*
X10267546Y-19764959D01*
X10348193Y-19789453D01*
X10407703Y-19844742D01*
X10413876Y-19855743D01*
X10433199Y-19922827D01*
X10443726Y-20019284D01*
X10445711Y-20129052D01*
X10717725Y-20129052D01*
X10717596Y-20088225D01*
X10715806Y-20022918D01*
X10703627Y-19861355D01*
X10678315Y-19740053D01*
X10636207Y-19650379D01*
X10573641Y-19583699D01*
X10512900Y-19544557D01*
X10428036Y-19517040D01*
X10322485Y-19507603D01*
X10214402Y-19515290D01*
X10121942Y-19539146D01*
X10073090Y-19567685D01*
X10022353Y-19613601D01*
X10022353Y-19033137D01*
X9748432Y-19033137D01*
X9748432Y-20726471D01*
G36*
X11317236Y-19508921D02*
G01*
X11279970Y-19520091D01*
X11267957Y-19544633D01*
X11267451Y-19555712D01*
X11265296Y-19586572D01*
X11250449Y-19591417D01*
X11210343Y-19570260D01*
X11186520Y-19555806D01*
X11111362Y-19524850D01*
X11021594Y-19509544D01*
X10927471Y-19508367D01*
X10839246Y-19519799D01*
X10767174Y-19542320D01*
X10721508Y-19574409D01*
X10712502Y-19614545D01*
X10717047Y-19625415D01*
X10750179Y-19670534D01*
X10801555Y-19726026D01*
X10810848Y-19734996D01*
X10859818Y-19776245D01*
X10902069Y-19789572D01*
X10961159Y-19780271D01*
X10984831Y-19774090D01*
X11058496Y-19759246D01*
X11110290Y-19765921D01*
X11154031Y-19789465D01*
X11194098Y-19821061D01*
X11223608Y-19860798D01*
X11244116Y-19916252D01*
X11257176Y-19995003D01*
X11264344Y-20104629D01*
X11267176Y-20252706D01*
X11267451Y-20342111D01*
X11267451Y-20726471D01*
X11516471Y-20726471D01*
X11516471Y-19506275D01*
X11391961Y-19506275D01*
X11317236Y-19508921D01*
G37*
X11317236Y-19508921D02*
X11279970Y-19520091D01*
X11267957Y-19544633D01*
X11267451Y-19555712D01*
X11265296Y-19586572D01*
X11250449Y-19591417D01*
X11210343Y-19570260D01*
X11186520Y-19555806D01*
X11111362Y-19524850D01*
X11021594Y-19509544D01*
X10927471Y-19508367D01*
X10839246Y-19519799D01*
X10767174Y-19542320D01*
X10721508Y-19574409D01*
X10712502Y-19614545D01*
X10717047Y-19625415D01*
X10750179Y-19670534D01*
X10801555Y-19726026D01*
X10810848Y-19734996D01*
X10859818Y-19776245D01*
X10902069Y-19789572D01*
X10961159Y-19780271D01*
X10984831Y-19774090D01*
X11058496Y-19759246D01*
X11110290Y-19765921D01*
X11154031Y-19789465D01*
X11194098Y-19821061D01*
X11223608Y-19860798D01*
X11244116Y-19916252D01*
X11257176Y-19995003D01*
X11264344Y-20104629D01*
X11267176Y-20252706D01*
X11267451Y-20342111D01*
X11267451Y-20726471D01*
X11516471Y-20726471D01*
X11516471Y-19506275D01*
X11391961Y-19506275D01*
X11317236Y-19508921D01*
G36*
X12091280Y-19515922D02*
G01*
X11974130Y-19547180D01*
X11884949Y-19603837D01*
X11822016Y-19678045D01*
X11802452Y-19709716D01*
X11788008Y-19742891D01*
X11777911Y-19785329D01*
X11771385Y-19844788D01*
X11767658Y-19929029D01*
X11765954Y-20045810D01*
X11765500Y-20202890D01*
X11765491Y-20244565D01*
X11765491Y-20726471D01*
X11885020Y-20726471D01*
X11961261Y-20721131D01*
X12017634Y-20707604D01*
X12031758Y-20699262D01*
X12070370Y-20684864D01*
X12109808Y-20699262D01*
X12174738Y-20717237D01*
X12269055Y-20724472D01*
X12373593Y-20721333D01*
X12469189Y-20708186D01*
X12525000Y-20691318D01*
X12633002Y-20621986D01*
X12700497Y-20525772D01*
X12730841Y-20397844D01*
X12731123Y-20394559D01*
X12728460Y-20337808D01*
X12487647Y-20337808D01*
X12466595Y-20402358D01*
X12432303Y-20438686D01*
X12363468Y-20466162D01*
X12272610Y-20477129D01*
X12179958Y-20471731D01*
X12105744Y-20450110D01*
X12084951Y-20436239D01*
X12048619Y-20372143D01*
X12039412Y-20299278D01*
X12039412Y-20203530D01*
X12177173Y-20203530D01*
X12308047Y-20213605D01*
X12407259Y-20242148D01*
X12468977Y-20286639D01*
X12487647Y-20337808D01*
X12728460Y-20337808D01*
X12724564Y-20254790D01*
X12678466Y-20144282D01*
X12591800Y-20060712D01*
X12579821Y-20053110D01*
X12528345Y-20028357D01*
X12464632Y-20013368D01*
X12375565Y-20006082D01*
X12269755Y-20004407D01*
X12039412Y-20004314D01*
X12039412Y-19907755D01*
X12049183Y-19832836D01*
X12074116Y-19782644D01*
X12077035Y-19779972D01*
X12132519Y-19758015D01*
X12216273Y-19749505D01*
X12308833Y-19753687D01*
X12390730Y-19769809D01*
X12439327Y-19793990D01*
X12465659Y-19813359D01*
X12493465Y-19817057D01*
X12531839Y-19801188D01*
X12589875Y-19761855D01*
X12676669Y-19695164D01*
X12684635Y-19688916D01*
X12680553Y-19665800D01*
X12646499Y-19627352D01*
X12594740Y-19584627D01*
X12537545Y-19548679D01*
X12519575Y-19540191D01*
X12454028Y-19523252D01*
X12357980Y-19511170D01*
X12250671Y-19506323D01*
X12245653Y-19506313D01*
X12091280Y-19515922D01*
G37*
X12091280Y-19515922D02*
X11974130Y-19547180D01*
X11884949Y-19603837D01*
X11822016Y-19678045D01*
X11802452Y-19709716D01*
X11788008Y-19742891D01*
X11777911Y-19785329D01*
X11771385Y-19844788D01*
X11767658Y-19929029D01*
X11765954Y-20045810D01*
X11765500Y-20202890D01*
X11765491Y-20244565D01*
X11765491Y-20726471D01*
X11885020Y-20726471D01*
X11961261Y-20721131D01*
X12017634Y-20707604D01*
X12031758Y-20699262D01*
X12070370Y-20684864D01*
X12109808Y-20699262D01*
X12174738Y-20717237D01*
X12269055Y-20724472D01*
X12373593Y-20721333D01*
X12469189Y-20708186D01*
X12525000Y-20691318D01*
X12633002Y-20621986D01*
X12700497Y-20525772D01*
X12730841Y-20397844D01*
X12731123Y-20394559D01*
X12728460Y-20337808D01*
X12487647Y-20337808D01*
X12466595Y-20402358D01*
X12432303Y-20438686D01*
X12363468Y-20466162D01*
X12272610Y-20477129D01*
X12179958Y-20471731D01*
X12105744Y-20450110D01*
X12084951Y-20436239D01*
X12048619Y-20372143D01*
X12039412Y-20299278D01*
X12039412Y-20203530D01*
X12177173Y-20203530D01*
X12308047Y-20213605D01*
X12407259Y-20242148D01*
X12468977Y-20286639D01*
X12487647Y-20337808D01*
X12728460Y-20337808D01*
X12724564Y-20254790D01*
X12678466Y-20144282D01*
X12591800Y-20060712D01*
X12579821Y-20053110D01*
X12528345Y-20028357D01*
X12464632Y-20013368D01*
X12375565Y-20006082D01*
X12269755Y-20004407D01*
X12039412Y-20004314D01*
X12039412Y-19907755D01*
X12049183Y-19832836D01*
X12074116Y-19782644D01*
X12077035Y-19779972D01*
X12132519Y-19758015D01*
X12216273Y-19749505D01*
X12308833Y-19753687D01*
X12390730Y-19769809D01*
X12439327Y-19793990D01*
X12465659Y-19813359D01*
X12493465Y-19817057D01*
X12531839Y-19801188D01*
X12589875Y-19761855D01*
X12676669Y-19695164D01*
X12684635Y-19688916D01*
X12680553Y-19665800D01*
X12646499Y-19627352D01*
X12594740Y-19584627D01*
X12537545Y-19548679D01*
X12519575Y-19540191D01*
X12454028Y-19523252D01*
X12357980Y-19511170D01*
X12250671Y-19506323D01*
X12245653Y-19506313D01*
X12091280Y-19515922D01*
G36*
X13130091Y-17659560D02*
G01*
X13077588Y-17685499D01*
X13012842Y-17730700D01*
X12965653Y-17779991D01*
X12933335Y-17841885D01*
X12913203Y-17924896D01*
X12902570Y-18037538D01*
X12898753Y-18188324D01*
X12898530Y-18253149D01*
X12899182Y-18395221D01*
X12901888Y-18496757D01*
X12907776Y-18567015D01*
X12917973Y-18615256D01*
X12933606Y-18650738D01*
X12949872Y-18674943D01*
X13053705Y-18777929D01*
X13175979Y-18839874D01*
X13307886Y-18858506D01*
X13440616Y-18831549D01*
X13482667Y-18812486D01*
X13583334Y-18760015D01*
X13583334Y-19582259D01*
X13509865Y-19544267D01*
X13413059Y-19514872D01*
X13294072Y-19507342D01*
X13175255Y-19521245D01*
X13085527Y-19552476D01*
X13011101Y-19611954D01*
X12947510Y-19697066D01*
X12942729Y-19705805D01*
X12922563Y-19746966D01*
X12907835Y-19788454D01*
X12897697Y-19838713D01*
X12891301Y-19906184D01*
X12887799Y-19999309D01*
X12886342Y-20126531D01*
X12886079Y-20269701D01*
X12886079Y-20726471D01*
X13160000Y-20726471D01*
X13160000Y-19884231D01*
X13236617Y-19819763D01*
X13316207Y-19768194D01*
X13391578Y-19758818D01*
X13467367Y-19782947D01*
X13507759Y-19806574D01*
X13537821Y-19840227D01*
X13559203Y-19891087D01*
X13573550Y-19966334D01*
X13582510Y-20073146D01*
X13587730Y-20218704D01*
X13589569Y-20315588D01*
X13595785Y-20714020D01*
X13726520Y-20721547D01*
X13857255Y-20729073D01*
X13857255Y-18256582D01*
X13583334Y-18256582D01*
X13576350Y-18394423D01*
X13552818Y-18490107D01*
X13508865Y-18549641D01*
X13440618Y-18579029D01*
X13371667Y-18584902D01*
X13293614Y-18578154D01*
X13241811Y-18551594D01*
X13209417Y-18516499D01*
X13183916Y-18478752D01*
X13168735Y-18436700D01*
X13161981Y-18377779D01*
X13161759Y-18289428D01*
X13164032Y-18215448D01*
X13169251Y-18104000D01*
X13177021Y-18030833D01*
X13190105Y-17984422D01*
X13211268Y-17953244D01*
X13231240Y-17935223D01*
X13314686Y-17895925D01*
X13413449Y-17889579D01*
X13470159Y-17903116D01*
X13526308Y-17951233D01*
X13563501Y-18044833D01*
X13581528Y-18183254D01*
X13583334Y-18256582D01*
X13857255Y-18256582D01*
X13857255Y-17638628D01*
X13720295Y-17638628D01*
X13638065Y-17641879D01*
X13595640Y-17653426D01*
X13583339Y-17675952D01*
X13583334Y-17676620D01*
X13577626Y-17698681D01*
X13552453Y-17696176D01*
X13502402Y-17671935D01*
X13385781Y-17634851D01*
X13254571Y-17630953D01*
X13130091Y-17659560D01*
G37*
X13130091Y-17659560D02*
X13077588Y-17685499D01*
X13012842Y-17730700D01*
X12965653Y-17779991D01*
X12933335Y-17841885D01*
X12913203Y-17924896D01*
X12902570Y-18037538D01*
X12898753Y-18188324D01*
X12898530Y-18253149D01*
X12899182Y-18395221D01*
X12901888Y-18496757D01*
X12907776Y-18567015D01*
X12917973Y-18615256D01*
X12933606Y-18650738D01*
X12949872Y-18674943D01*
X13053705Y-18777929D01*
X13175979Y-18839874D01*
X13307886Y-18858506D01*
X13440616Y-18831549D01*
X13482667Y-18812486D01*
X13583334Y-18760015D01*
X13583334Y-19582259D01*
X13509865Y-19544267D01*
X13413059Y-19514872D01*
X13294072Y-19507342D01*
X13175255Y-19521245D01*
X13085527Y-19552476D01*
X13011101Y-19611954D01*
X12947510Y-19697066D01*
X12942729Y-19705805D01*
X12922563Y-19746966D01*
X12907835Y-19788454D01*
X12897697Y-19838713D01*
X12891301Y-19906184D01*
X12887799Y-19999309D01*
X12886342Y-20126531D01*
X12886079Y-20269701D01*
X12886079Y-20726471D01*
X13160000Y-20726471D01*
X13160000Y-19884231D01*
X13236617Y-19819763D01*
X13316207Y-19768194D01*
X13391578Y-19758818D01*
X13467367Y-19782947D01*
X13507759Y-19806574D01*
X13537821Y-19840227D01*
X13559203Y-19891087D01*
X13573550Y-19966334D01*
X13582510Y-20073146D01*
X13587730Y-20218704D01*
X13589569Y-20315588D01*
X13595785Y-20714020D01*
X13726520Y-20721547D01*
X13857255Y-20729073D01*
X13857255Y-18256582D01*
X13583334Y-18256582D01*
X13576350Y-18394423D01*
X13552818Y-18490107D01*
X13508865Y-18549641D01*
X13440618Y-18579029D01*
X13371667Y-18584902D01*
X13293614Y-18578154D01*
X13241811Y-18551594D01*
X13209417Y-18516499D01*
X13183916Y-18478752D01*
X13168735Y-18436700D01*
X13161981Y-18377779D01*
X13161759Y-18289428D01*
X13164032Y-18215448D01*
X13169251Y-18104000D01*
X13177021Y-18030833D01*
X13190105Y-17984422D01*
X13211268Y-17953244D01*
X13231240Y-17935223D01*
X13314686Y-17895925D01*
X13413449Y-17889579D01*
X13470159Y-17903116D01*
X13526308Y-17951233D01*
X13563501Y-18044833D01*
X13581528Y-18183254D01*
X13583334Y-18256582D01*
X13857255Y-18256582D01*
X13857255Y-17638628D01*
X13720295Y-17638628D01*
X13638065Y-17641879D01*
X13595640Y-17653426D01*
X13583339Y-17675952D01*
X13583334Y-17676620D01*
X13577626Y-17698681D01*
X13552453Y-17696176D01*
X13502402Y-17671935D01*
X13385781Y-17634851D01*
X13254571Y-17630953D01*
X13130091Y-17659560D01*
G36*
X55085957Y-1085835D02*
G01*
X55062935Y-1123245D01*
X55027466Y-1182514D01*
X54981004Y-1261118D01*
X54925004Y-1356538D01*
X54860919Y-1466250D01*
X54790204Y-1587734D01*
X54714313Y-1718468D01*
X54634701Y-1855930D01*
X54552822Y-1997598D01*
X54470130Y-2140951D01*
X54388079Y-2283467D01*
X54308124Y-2422624D01*
X54231719Y-2555901D01*
X54160318Y-2680776D01*
X54095376Y-2794727D01*
X54038347Y-2895233D01*
X53990685Y-2979772D01*
X53953845Y-3045822D01*
X53929280Y-3090862D01*
X53918446Y-3112370D01*
X53918049Y-3113714D01*
X53931499Y-3131965D01*
X53968886Y-3159882D01*
X54025765Y-3194725D01*
X54097688Y-3233754D01*
X54172985Y-3270843D01*
X54275440Y-3315817D01*
X54383183Y-3356226D01*
X54499927Y-3392969D01*
X54629382Y-3426942D01*
X54775260Y-3459044D01*
X54941274Y-3490173D01*
X55131134Y-3521227D01*
X55327531Y-3550145D01*
X55498166Y-3575800D01*
X55641455Y-3601198D01*
X55760992Y-3627602D01*
X55860370Y-3656273D01*
X55943182Y-3688473D01*
X56013022Y-3725465D01*
X56073482Y-3768512D01*
X56128155Y-3818875D01*
X56145786Y-3837583D01*
X56184000Y-3881139D01*
X56212268Y-3916682D01*
X56225382Y-3937583D01*
X56225732Y-3939297D01*
X56230320Y-3949806D01*
X56246242Y-3949924D01*
X56276734Y-3938254D01*
X56325032Y-3913396D01*
X56394373Y-3873952D01*
X56442561Y-3845587D01*
X56514417Y-3801247D01*
X56570258Y-3763279D01*
X56606333Y-3734416D01*
X56618887Y-3717388D01*
X56618879Y-3717264D01*
X56611094Y-3701037D01*
X56589108Y-3660400D01*
X56554197Y-3597567D01*
X56507637Y-3514752D01*
X56450705Y-3414172D01*
X56384677Y-3298040D01*
X56310828Y-3168571D01*
X56230436Y-3027980D01*
X56144776Y-2878482D01*
X56055124Y-2722292D01*
X55962757Y-2561624D01*
X55868951Y-2398693D01*
X55774982Y-2235713D01*
X55682126Y-2074900D01*
X55591660Y-1918468D01*
X55504859Y-1768633D01*
X55423000Y-1627608D01*
X55347359Y-1497609D01*
X55279213Y-1380849D01*
X55219837Y-1279545D01*
X55170507Y-1195911D01*
X55132500Y-1132162D01*
X55107093Y-1090511D01*
X55095560Y-1073175D01*
X55095077Y-1072805D01*
X55085957Y-1085835D01*
G37*
X55085957Y-1085835D02*
X55062935Y-1123245D01*
X55027466Y-1182514D01*
X54981004Y-1261118D01*
X54925004Y-1356538D01*
X54860919Y-1466250D01*
X54790204Y-1587734D01*
X54714313Y-1718468D01*
X54634701Y-1855930D01*
X54552822Y-1997598D01*
X54470130Y-2140951D01*
X54388079Y-2283467D01*
X54308124Y-2422624D01*
X54231719Y-2555901D01*
X54160318Y-2680776D01*
X54095376Y-2794727D01*
X54038347Y-2895233D01*
X53990685Y-2979772D01*
X53953845Y-3045822D01*
X53929280Y-3090862D01*
X53918446Y-3112370D01*
X53918049Y-3113714D01*
X53931499Y-3131965D01*
X53968886Y-3159882D01*
X54025765Y-3194725D01*
X54097688Y-3233754D01*
X54172985Y-3270843D01*
X54275440Y-3315817D01*
X54383183Y-3356226D01*
X54499927Y-3392969D01*
X54629382Y-3426942D01*
X54775260Y-3459044D01*
X54941274Y-3490173D01*
X55131134Y-3521227D01*
X55327531Y-3550145D01*
X55498166Y-3575800D01*
X55641455Y-3601198D01*
X55760992Y-3627602D01*
X55860370Y-3656273D01*
X55943182Y-3688473D01*
X56013022Y-3725465D01*
X56073482Y-3768512D01*
X56128155Y-3818875D01*
X56145786Y-3837583D01*
X56184000Y-3881139D01*
X56212268Y-3916682D01*
X56225382Y-3937583D01*
X56225732Y-3939297D01*
X56230320Y-3949806D01*
X56246242Y-3949924D01*
X56276734Y-3938254D01*
X56325032Y-3913396D01*
X56394373Y-3873952D01*
X56442561Y-3845587D01*
X56514417Y-3801247D01*
X56570258Y-3763279D01*
X56606333Y-3734416D01*
X56618887Y-3717388D01*
X56618879Y-3717264D01*
X56611094Y-3701037D01*
X56589108Y-3660400D01*
X56554197Y-3597567D01*
X56507637Y-3514752D01*
X56450705Y-3414172D01*
X56384677Y-3298040D01*
X56310828Y-3168571D01*
X56230436Y-3027980D01*
X56144776Y-2878482D01*
X56055124Y-2722292D01*
X55962757Y-2561624D01*
X55868951Y-2398693D01*
X55774982Y-2235713D01*
X55682126Y-2074900D01*
X55591660Y-1918468D01*
X55504859Y-1768633D01*
X55423000Y-1627608D01*
X55347359Y-1497609D01*
X55279213Y-1380849D01*
X55219837Y-1279545D01*
X55170507Y-1195911D01*
X55132500Y-1132162D01*
X55107093Y-1090511D01*
X55095560Y-1073175D01*
X55095077Y-1072805D01*
X55085957Y-1085835D01*
G36*
X53262472Y-4234619D02*
G01*
X53251092Y-4253693D01*
X53225512Y-4297421D01*
X53186998Y-4363619D01*
X53136814Y-4450102D01*
X53076225Y-4554685D01*
X53006497Y-4675183D01*
X52928893Y-4809412D01*
X52844680Y-4955187D01*
X52755121Y-5110323D01*
X52663002Y-5270000D01*
X52568924Y-5433117D01*
X52478598Y-5589709D01*
X52393335Y-5737506D01*
X52314443Y-5874240D01*
X52243231Y-5997642D01*
X52181009Y-6105444D01*
X52129087Y-6195377D01*
X52088772Y-6265173D01*
X52061376Y-6312564D01*
X52048493Y-6334786D01*
X52027493Y-6372330D01*
X52016075Y-6395831D01*
X52015449Y-6399920D01*
X52029364Y-6392242D01*
X52068059Y-6370203D01*
X52129513Y-6334971D01*
X52211702Y-6287711D01*
X52312604Y-6229589D01*
X52430195Y-6161771D01*
X52562454Y-6085424D01*
X52707358Y-6001714D01*
X52862883Y-5911806D01*
X53027008Y-5816867D01*
X53089451Y-5780732D01*
X53256513Y-5684083D01*
X53415926Y-5591938D01*
X53565645Y-5505475D01*
X53703624Y-5425871D01*
X53827815Y-5354305D01*
X53936173Y-5291955D01*
X54026652Y-5239998D01*
X54097204Y-5199613D01*
X54145785Y-5171978D01*
X54170346Y-5158272D01*
X54172915Y-5156974D01*
X54165431Y-5145220D01*
X54139386Y-5113795D01*
X54097441Y-5065594D01*
X54042254Y-5003510D01*
X53976483Y-4930439D01*
X53902788Y-4849276D01*
X53823827Y-4762916D01*
X53742260Y-4674253D01*
X53660746Y-4586182D01*
X53581943Y-4501599D01*
X53508510Y-4423397D01*
X53443107Y-4354472D01*
X53388392Y-4297719D01*
X53347023Y-4256032D01*
X53332836Y-4242363D01*
X53285820Y-4198201D01*
X53262472Y-4234619D01*
G37*
X53262472Y-4234619D02*
X53251092Y-4253693D01*
X53225512Y-4297421D01*
X53186998Y-4363619D01*
X53136814Y-4450102D01*
X53076225Y-4554685D01*
X53006497Y-4675183D01*
X52928893Y-4809412D01*
X52844680Y-4955187D01*
X52755121Y-5110323D01*
X52663002Y-5270000D01*
X52568924Y-5433117D01*
X52478598Y-5589709D01*
X52393335Y-5737506D01*
X52314443Y-5874240D01*
X52243231Y-5997642D01*
X52181009Y-6105444D01*
X52129087Y-6195377D01*
X52088772Y-6265173D01*
X52061376Y-6312564D01*
X52048493Y-6334786D01*
X52027493Y-6372330D01*
X52016075Y-6395831D01*
X52015449Y-6399920D01*
X52029364Y-6392242D01*
X52068059Y-6370203D01*
X52129513Y-6334971D01*
X52211702Y-6287711D01*
X52312604Y-6229589D01*
X52430195Y-6161771D01*
X52562454Y-6085424D01*
X52707358Y-6001714D01*
X52862883Y-5911806D01*
X53027008Y-5816867D01*
X53089451Y-5780732D01*
X53256513Y-5684083D01*
X53415926Y-5591938D01*
X53565645Y-5505475D01*
X53703624Y-5425871D01*
X53827815Y-5354305D01*
X53936173Y-5291955D01*
X54026652Y-5239998D01*
X54097204Y-5199613D01*
X54145785Y-5171978D01*
X54170346Y-5158272D01*
X54172915Y-5156974D01*
X54165431Y-5145220D01*
X54139386Y-5113795D01*
X54097441Y-5065594D01*
X54042254Y-5003510D01*
X53976483Y-4930439D01*
X53902788Y-4849276D01*
X53823827Y-4762916D01*
X53742260Y-4674253D01*
X53660746Y-4586182D01*
X53581943Y-4501599D01*
X53508510Y-4423397D01*
X53443107Y-4354472D01*
X53388392Y-4297719D01*
X53347023Y-4256032D01*
X53332836Y-4242363D01*
X53285820Y-4198201D01*
X53262472Y-4234619D01*
G36*
X56927906Y-4291158D02*
G01*
X56895381Y-4303736D01*
X56845807Y-4328712D01*
X56774626Y-4367876D01*
X56769084Y-4370988D01*
X56703526Y-4408476D01*
X56648202Y-4441319D01*
X56608545Y-4466205D01*
X56589988Y-4479820D01*
X56589469Y-4480487D01*
X56593952Y-4499390D01*
X56614514Y-4541605D01*
X56649817Y-4604832D01*
X56698520Y-4686772D01*
X56759282Y-4785122D01*
X56830764Y-4897585D01*
X56848555Y-4925165D01*
X56894907Y-5001699D01*
X56928658Y-5067556D01*
X56946847Y-5116782D01*
X56948714Y-5126507D01*
X56947885Y-5169312D01*
X56938606Y-5237209D01*
X56922032Y-5325843D01*
X56899320Y-5430859D01*
X56871627Y-5547902D01*
X56840110Y-5672616D01*
X56805925Y-5800645D01*
X56770229Y-5927634D01*
X56734179Y-6049228D01*
X56698932Y-6161072D01*
X56665644Y-6258810D01*
X56635472Y-6338087D01*
X56614439Y-6385122D01*
X56589663Y-6435225D01*
X56566270Y-6483168D01*
X56565003Y-6485793D01*
X56526301Y-6534220D01*
X56469816Y-6566828D01*
X56404061Y-6582454D01*
X56337549Y-6579937D01*
X56278795Y-6558114D01*
X56245742Y-6529382D01*
X56198141Y-6450583D01*
X56163261Y-6352378D01*
X56144123Y-6244779D01*
X56141412Y-6183780D01*
X56152330Y-6069935D01*
X56184376Y-5975660D01*
X56239274Y-5896379D01*
X56256393Y-5878733D01*
X56307339Y-5829235D01*
X56310837Y-5479362D01*
X56314336Y-5129489D01*
X56225182Y-4994531D01*
X56183346Y-4933445D01*
X56143055Y-4878493D01*
X56110057Y-4837336D01*
X56095874Y-4822192D01*
X56055719Y-4784810D01*
X56001335Y-4814098D01*
X55966961Y-4835084D01*
X55948154Y-4851378D01*
X55946951Y-4854307D01*
X55934097Y-4866728D01*
X55912104Y-4875977D01*
X55890850Y-4884313D01*
X55858306Y-4900149D01*
X55811678Y-4925033D01*
X55748171Y-4960509D01*
X55664992Y-5008123D01*
X55559347Y-5069422D01*
X55501938Y-5102932D01*
X55434406Y-5143071D01*
X55390115Y-5171659D01*
X55365145Y-5192039D01*
X55355577Y-5207553D01*
X55357492Y-5221546D01*
X55359089Y-5224796D01*
X55374624Y-5245266D01*
X55407864Y-5283665D01*
X55454938Y-5335696D01*
X55511972Y-5397066D01*
X55561300Y-5449090D01*
X55674970Y-5572567D01*
X55763895Y-5679591D01*
X55828866Y-5771240D01*
X55870679Y-5848588D01*
X55884783Y-5887866D01*
X55890608Y-5922249D01*
X55896625Y-5980899D01*
X55902304Y-6057117D01*
X55907116Y-6144202D01*
X55909381Y-6199268D01*
X55912541Y-6294464D01*
X55913931Y-6364062D01*
X55913142Y-6413409D01*
X55909765Y-6447854D01*
X55903392Y-6472743D01*
X55893613Y-6493425D01*
X55885933Y-6506053D01*
X55841579Y-6554726D01*
X55784426Y-6588645D01*
X55724292Y-6603438D01*
X55679227Y-6598086D01*
X55638424Y-6574930D01*
X55587276Y-6533462D01*
X55532958Y-6480912D01*
X55482643Y-6424516D01*
X55443506Y-6371505D01*
X55429095Y-6345889D01*
X55407509Y-6310814D01*
X55368247Y-6257389D01*
X55314898Y-6189789D01*
X55251048Y-6112190D01*
X55180285Y-6028768D01*
X55106196Y-5943698D01*
X55032368Y-5861155D01*
X54962389Y-5785316D01*
X54899845Y-5720356D01*
X54850740Y-5672669D01*
X54796221Y-5625032D01*
X54750358Y-5589908D01*
X54718189Y-5570949D01*
X54707511Y-5568864D01*
X54691147Y-5577274D01*
X54650329Y-5599846D01*
X54587414Y-5635224D01*
X54504756Y-5682054D01*
X54404711Y-5738981D01*
X54289634Y-5804649D01*
X54161881Y-5877703D01*
X54023806Y-5956788D01*
X53877766Y-6040548D01*
X53726116Y-6127629D01*
X53571210Y-6216676D01*
X53415405Y-6306332D01*
X53261056Y-6395243D01*
X53110518Y-6482054D01*
X52966146Y-6565409D01*
X52830296Y-6643954D01*
X52705323Y-6716333D01*
X52593583Y-6781190D01*
X52497430Y-6837171D01*
X52419221Y-6882920D01*
X52361311Y-6917083D01*
X52326054Y-6938304D01*
X52315835Y-6944963D01*
X52329598Y-6946280D01*
X52372896Y-6947559D01*
X52444286Y-6948796D01*
X52542327Y-6949983D01*
X52665578Y-6951115D01*
X52812597Y-6952186D01*
X52981943Y-6953189D01*
X53172174Y-6954119D01*
X53381849Y-6954968D01*
X53609527Y-6955732D01*
X53853765Y-6956403D01*
X54113123Y-6956976D01*
X54386159Y-6957444D01*
X54671432Y-6957802D01*
X54967500Y-6958042D01*
X55272921Y-6958159D01*
X55401076Y-6958171D01*
X58501030Y-6958171D01*
X58279947Y-6574847D01*
X58233144Y-6493680D01*
X58172898Y-6389166D01*
X58101222Y-6264801D01*
X58020131Y-6124082D01*
X57931638Y-5970503D01*
X57837760Y-5807562D01*
X57740509Y-5638754D01*
X57641900Y-5467575D01*
X57543947Y-5297521D01*
X57519175Y-5254512D01*
X57428848Y-5097857D01*
X57342711Y-4948803D01*
X57262058Y-4809568D01*
X57188184Y-4682371D01*
X57122383Y-4569432D01*
X57065950Y-4472968D01*
X57020179Y-4395200D01*
X56986365Y-4338346D01*
X56965802Y-4304625D01*
X56960047Y-4296040D01*
X56947942Y-4289189D01*
X56927906Y-4291158D01*
G37*
X56927906Y-4291158D02*
X56895381Y-4303736D01*
X56845807Y-4328712D01*
X56774626Y-4367876D01*
X56769084Y-4370988D01*
X56703526Y-4408476D01*
X56648202Y-4441319D01*
X56608545Y-4466205D01*
X56589988Y-4479820D01*
X56589469Y-4480487D01*
X56593952Y-4499390D01*
X56614514Y-4541605D01*
X56649817Y-4604832D01*
X56698520Y-4686772D01*
X56759282Y-4785122D01*
X56830764Y-4897585D01*
X56848555Y-4925165D01*
X56894907Y-5001699D01*
X56928658Y-5067556D01*
X56946847Y-5116782D01*
X56948714Y-5126507D01*
X56947885Y-5169312D01*
X56938606Y-5237209D01*
X56922032Y-5325843D01*
X56899320Y-5430859D01*
X56871627Y-5547902D01*
X56840110Y-5672616D01*
X56805925Y-5800645D01*
X56770229Y-5927634D01*
X56734179Y-6049228D01*
X56698932Y-6161072D01*
X56665644Y-6258810D01*
X56635472Y-6338087D01*
X56614439Y-6385122D01*
X56589663Y-6435225D01*
X56566270Y-6483168D01*
X56565003Y-6485793D01*
X56526301Y-6534220D01*
X56469816Y-6566828D01*
X56404061Y-6582454D01*
X56337549Y-6579937D01*
X56278795Y-6558114D01*
X56245742Y-6529382D01*
X56198141Y-6450583D01*
X56163261Y-6352378D01*
X56144123Y-6244779D01*
X56141412Y-6183780D01*
X56152330Y-6069935D01*
X56184376Y-5975660D01*
X56239274Y-5896379D01*
X56256393Y-5878733D01*
X56307339Y-5829235D01*
X56310837Y-5479362D01*
X56314336Y-5129489D01*
X56225182Y-4994531D01*
X56183346Y-4933445D01*
X56143055Y-4878493D01*
X56110057Y-4837336D01*
X56095874Y-4822192D01*
X56055719Y-4784810D01*
X56001335Y-4814098D01*
X55966961Y-4835084D01*
X55948154Y-4851378D01*
X55946951Y-4854307D01*
X55934097Y-4866728D01*
X55912104Y-4875977D01*
X55890850Y-4884313D01*
X55858306Y-4900149D01*
X55811678Y-4925033D01*
X55748171Y-4960509D01*
X55664992Y-5008123D01*
X55559347Y-5069422D01*
X55501938Y-5102932D01*
X55434406Y-5143071D01*
X55390115Y-5171659D01*
X55365145Y-5192039D01*
X55355577Y-5207553D01*
X55357492Y-5221546D01*
X55359089Y-5224796D01*
X55374624Y-5245266D01*
X55407864Y-5283665D01*
X55454938Y-5335696D01*
X55511972Y-5397066D01*
X55561300Y-5449090D01*
X55674970Y-5572567D01*
X55763895Y-5679591D01*
X55828866Y-5771240D01*
X55870679Y-5848588D01*
X55884783Y-5887866D01*
X55890608Y-5922249D01*
X55896625Y-5980899D01*
X55902304Y-6057117D01*
X55907116Y-6144202D01*
X55909381Y-6199268D01*
X55912541Y-6294464D01*
X55913931Y-6364062D01*
X55913142Y-6413409D01*
X55909765Y-6447854D01*
X55903392Y-6472743D01*
X55893613Y-6493425D01*
X55885933Y-6506053D01*
X55841579Y-6554726D01*
X55784426Y-6588645D01*
X55724292Y-6603438D01*
X55679227Y-6598086D01*
X55638424Y-6574930D01*
X55587276Y-6533462D01*
X55532958Y-6480912D01*
X55482643Y-6424516D01*
X55443506Y-6371505D01*
X55429095Y-6345889D01*
X55407509Y-6310814D01*
X55368247Y-6257389D01*
X55314898Y-6189789D01*
X55251048Y-6112190D01*
X55180285Y-6028768D01*
X55106196Y-5943698D01*
X55032368Y-5861155D01*
X54962389Y-5785316D01*
X54899845Y-5720356D01*
X54850740Y-5672669D01*
X54796221Y-5625032D01*
X54750358Y-5589908D01*
X54718189Y-5570949D01*
X54707511Y-5568864D01*
X54691147Y-5577274D01*
X54650329Y-5599846D01*
X54587414Y-5635224D01*
X54504756Y-5682054D01*
X54404711Y-5738981D01*
X54289634Y-5804649D01*
X54161881Y-5877703D01*
X54023806Y-5956788D01*
X53877766Y-6040548D01*
X53726116Y-6127629D01*
X53571210Y-6216676D01*
X53415405Y-6306332D01*
X53261056Y-6395243D01*
X53110518Y-6482054D01*
X52966146Y-6565409D01*
X52830296Y-6643954D01*
X52705323Y-6716333D01*
X52593583Y-6781190D01*
X52497430Y-6837171D01*
X52419221Y-6882920D01*
X52361311Y-6917083D01*
X52326054Y-6938304D01*
X52315835Y-6944963D01*
X52329598Y-6946280D01*
X52372896Y-6947559D01*
X52444286Y-6948796D01*
X52542327Y-6949983D01*
X52665578Y-6951115D01*
X52812597Y-6952186D01*
X52981943Y-6953189D01*
X53172174Y-6954119D01*
X53381849Y-6954968D01*
X53609527Y-6955732D01*
X53853765Y-6956403D01*
X54113123Y-6956976D01*
X54386159Y-6957444D01*
X54671432Y-6957802D01*
X54967500Y-6958042D01*
X55272921Y-6958159D01*
X55401076Y-6958171D01*
X58501030Y-6958171D01*
X58279947Y-6574847D01*
X58233144Y-6493680D01*
X58172898Y-6389166D01*
X58101222Y-6264801D01*
X58020131Y-6124082D01*
X57931638Y-5970503D01*
X57837760Y-5807562D01*
X57740509Y-5638754D01*
X57641900Y-5467575D01*
X57543947Y-5297521D01*
X57519175Y-5254512D01*
X57428848Y-5097857D01*
X57342711Y-4948803D01*
X57262058Y-4809568D01*
X57188184Y-4682371D01*
X57122383Y-4569432D01*
X57065950Y-4472968D01*
X57020179Y-4395200D01*
X56986365Y-4338346D01*
X56965802Y-4304625D01*
X56960047Y-4296040D01*
X56947942Y-4289189D01*
X56927906Y-4291158D01*
M02*
